<svg width="745" height="503" viewBox="0 0 745 503" fill="none" xmlns="http://www.w3.org/2000/svg">
<path d="M347.457 165.012C346.725 164.009 345.651 163.308 344.438 163.041C343.225 162.774 341.956 162.96 340.871 163.563C339.786 164.167 338.958 165.147 338.545 166.318C338.132 167.489 338.161 168.771 338.627 169.922L294.227 212.412C293.386 211.91 292.426 211.644 291.447 211.642C290.562 211.64 289.689 211.852 288.904 212.259C288.118 212.666 287.442 213.256 286.932 213.98C286.423 214.704 286.095 215.539 285.977 216.416C285.859 217.293 285.954 218.186 286.253 219.018C286.553 219.851 287.049 220.599 287.699 221.199C288.349 221.8 289.134 222.235 289.988 222.468C290.842 222.701 291.739 222.724 292.604 222.537C293.469 222.35 294.276 221.957 294.957 221.392L341.627 253.522C341.875 253.697 342.172 253.791 342.477 253.792C342.798 253.793 343.111 253.691 343.37 253.501C343.629 253.311 343.82 253.043 343.915 252.736C344.01 252.43 344.005 252.1 343.899 251.797C343.793 251.494 343.592 251.233 343.327 251.052L296.627 218.882C296.866 218.171 296.959 217.419 296.899 216.671C296.839 215.923 296.627 215.195 296.277 214.532L343.767 169.082L344.927 168.222L346.627 167.012C347.138 166.643 347.688 166.331 348.267 166.082L347.457 165.012Z" fill="white"/>
<path d="M347.457 165.012C346.725 164.009 345.651 163.308 344.438 163.041C343.225 162.774 341.956 162.96 340.871 163.563C339.786 164.167 338.958 165.147 338.545 166.318C338.132 167.489 338.161 168.771 338.627 169.922L294.227 212.412C293.386 211.91 292.426 211.644 291.447 211.642C290.562 211.64 289.689 211.852 288.904 212.259C288.118 212.666 287.442 213.256 286.932 213.98C286.423 214.704 286.095 215.539 285.977 216.416C285.859 217.293 285.954 218.186 286.253 219.018C286.553 219.851 287.049 220.599 287.699 221.199C288.349 221.8 289.134 222.235 289.988 222.468C290.842 222.701 291.739 222.724 292.604 222.537C293.469 222.35 294.276 221.957 294.957 221.392L341.627 253.522C341.875 253.697 342.172 253.791 342.477 253.792C342.798 253.793 343.111 253.691 343.37 253.501C343.629 253.311 343.82 253.043 343.915 252.736C344.01 252.43 344.005 252.1 343.899 251.797C343.793 251.494 343.592 251.233 343.327 251.052L296.627 218.882C296.866 218.171 296.959 217.419 296.899 216.671C296.839 215.923 296.627 215.195 296.277 214.532L343.767 169.082L344.927 168.222L346.627 167.012C347.138 166.643 347.688 166.331 348.267 166.082L347.457 165.012Z" stroke="black" stroke-width="1.3" stroke-linecap="round" stroke-linejoin="round"/>
<path d="M363.377 265.512H351.247V257.402C351.247 256.047 350.708 254.747 349.75 253.789C348.792 252.83 347.492 252.292 346.137 252.292H338.737C338.065 252.291 337.399 252.422 336.778 252.678C336.157 252.934 335.592 253.31 335.117 253.785C334.641 254.26 334.264 254.824 334.007 255.444C333.749 256.065 333.617 256.73 333.617 257.402V265.512H321.497L314.887 281.062H369.987L363.377 265.512Z" fill="#02B9F6"/>
<path d="M363.377 265.512H351.247V257.402C351.247 256.047 350.708 254.747 349.75 253.789C348.792 252.83 347.492 252.292 346.137 252.292H338.737C338.065 252.291 337.399 252.422 336.778 252.678C336.157 252.934 335.592 253.31 335.117 253.785C334.641 254.26 334.264 254.824 334.007 255.444C333.749 256.065 333.617 256.73 333.617 257.402V265.512H321.497L314.887 281.062H369.987L363.377 265.512Z" stroke="black" stroke-width="1.3" stroke-linecap="round" stroke-linejoin="round"/>
<path d="M351.246 265.512H344.766" stroke="black" stroke-width="1.3" stroke-linecap="round" stroke-linejoin="round"/>
<path d="M368.027 167.832C363.838 168.807 359.44 168.25 355.627 166.262C354.205 165.543 352.612 165.231 351.024 165.359C349.436 165.488 347.914 166.053 346.627 166.992L344.967 168.222L343.097 169.612L341.437 170.842C340.161 171.804 339.177 173.102 338.594 174.59C338.012 176.078 337.853 177.699 338.137 179.272C338.927 183.492 338.19 187.856 336.057 191.582L341.627 206.012L359.977 192.382L361.847 190.992L380.207 177.362L368.027 167.832Z" fill="#02B9F6"/>
<path d="M377.487 175.202L368.027 167.832C363.838 168.807 359.44 168.25 355.627 166.262C354.205 165.543 352.612 165.231 351.024 165.359C349.436 165.488 347.914 166.053 346.627 166.992L344.967 168.222L343.097 169.612L341.437 170.842C340.161 171.804 339.177 173.102 338.594 174.59C338.012 176.078 337.853 177.699 338.137 179.272C338.927 183.492 338.19 187.856 336.057 191.582L341.627 206.012L359.977 192.382L361.847 190.992L380.207 177.362" stroke="black" stroke-width="1.3" stroke-linecap="round" stroke-linejoin="round"/>
<path d="M382.527 440.322H366.157C364.096 440.322 362.12 439.503 360.663 438.046C359.206 436.589 358.387 434.612 358.387 432.552V291.222H347.537V432.552C347.537 434.612 346.718 436.589 345.261 438.046C343.804 439.503 341.828 440.322 339.767 440.322H323.397C321.099 440.316 318.847 440.961 316.9 442.182C314.953 443.403 313.392 445.15 312.397 447.222L310.707 450.722H395.147L393.467 447.222C392.476 445.16 390.925 443.418 388.99 442.198C387.055 440.978 384.815 440.327 382.527 440.322Z" fill="black"/>
<path d="M703.197 440.322H686.817C684.756 440.322 682.78 439.503 681.323 438.046C679.866 436.589 679.047 434.612 679.047 432.552V291.222H668.197V432.552C668.198 433.572 667.999 434.582 667.609 435.524C667.22 436.467 666.648 437.324 665.928 438.045C665.207 438.767 664.351 439.339 663.409 439.73C662.467 440.121 661.457 440.322 660.437 440.322H644.057C641.759 440.316 639.506 440.961 637.56 442.182C635.613 443.403 634.052 445.15 633.057 447.222L631.377 450.722H715.817L714.127 447.222C713.139 445.16 711.589 443.418 709.656 442.198C707.722 440.977 705.483 440.327 703.197 440.322Z" fill="black"/>
<path d="M744.306 281.062H284.256V291.222H744.306V281.062Z" fill="black"/>
<path d="M738.106 291.222H284.256V281.062H572.276" stroke="white" stroke-width="1.3" stroke-linecap="round" stroke-linejoin="round"/>
<path d="M582.066 281.062H744.296V291.222" stroke="white" stroke-width="1.3" stroke-linecap="round" stroke-linejoin="round"/>
<path d="M378.557 283.922V291.222" stroke="white" stroke-width="1.3" stroke-linecap="round" stroke-linejoin="round"/>
<path d="M347.536 432.552C347.536 434.612 346.718 436.589 345.261 438.046C343.804 439.503 341.827 440.322 339.767 440.322H323.396C321.099 440.316 318.846 440.961 316.899 442.182C314.953 443.403 313.392 445.15 312.396 447.222" stroke="white" stroke-width="1.3" stroke-linecap="round" stroke-linejoin="round"/>
<path d="M310.736 450.722H395.176L393.496 447.222C392.501 445.15 390.94 443.403 388.993 442.182C387.047 440.961 384.794 440.316 382.496 440.322H366.156C364.096 440.322 362.119 439.503 360.662 438.046C359.205 436.589 358.386 434.612 358.386 432.552V291.222H347.536V428.752" stroke="white" stroke-width="1.3" stroke-linecap="round" stroke-linejoin="round"/>
<path d="M633.086 447.221L631.406 450.721H715.846L714.156 447.221C713.163 445.148 711.602 443.4 709.655 442.178C707.708 440.957 705.455 440.313 703.156 440.321H686.816C684.755 440.321 682.779 439.503 681.322 438.045C679.865 436.588 679.046 434.612 679.046 432.551V308.201" stroke="white" stroke-width="1.3" stroke-linecap="round" stroke-linejoin="round"/>
<path d="M276.757 14.3018H85.957V362.912H276.757V14.3018Z" fill="black"/>
<path d="M287.146 0.661621H75.5762V14.3016H287.146V0.661621Z" fill="black"/>
<path d="M287.146 376.552H140.326H132.256H75.5762V362.912H287.146V376.552Z" fill="black"/>
<path d="M276.767 155.462V14.3018H85.957V103.262" stroke="white" stroke-width="1.3" stroke-linecap="round" stroke-linejoin="round"/>
<path d="M85.957 111.701V362.911H276.767V164.231" stroke="white" stroke-width="1.3" stroke-linecap="round" stroke-linejoin="round"/>
<path d="M144.867 95.5918V111.702H174.867V27.3018H144.867V90.4518" stroke="white" stroke-width="1.3" stroke-linecap="round" stroke-linejoin="round"/>
<path d="M263.767 77.7518V27.3018H230.867" stroke="white" stroke-width="1.3" stroke-linecap="round" stroke-linejoin="round"/>
<path d="M230.867 31.9912V111.701H263.767V83.5212" stroke="white" stroke-width="1.3" stroke-linecap="round" stroke-linejoin="round"/>
<path d="M98.957 230.111H133.027" stroke="white" stroke-width="1.3" stroke-linecap="round" stroke-linejoin="round"/>
<path d="M107.287 124.701H98.957V132.051" stroke="white" stroke-width="1.3" stroke-linecap="round" stroke-linejoin="round"/>
<path d="M138.906 230.101H174.866V124.701H126.756" stroke="white" stroke-width="1.3" stroke-linecap="round" stroke-linejoin="round"/>
<path d="M217.867 107.462V27.3018H187.867V56.6018" stroke="white" stroke-width="1.3" stroke-linecap="round" stroke-linejoin="round"/>
<path d="M187.867 61.4219V111.702H217.867" stroke="white" stroke-width="1.3" stroke-linecap="round" stroke-linejoin="round"/>
<path d="M263.766 348.912V243.102H238.176" stroke="white" stroke-width="1.3" stroke-linecap="round" stroke-linejoin="round"/>
<path d="M232.907 243.102H187.867V348.912H259.447" stroke="white" stroke-width="1.3" stroke-linecap="round" stroke-linejoin="round"/>
<path d="M169.897 243.102H98.957V348.912" stroke="white" stroke-width="1.3" stroke-linecap="round" stroke-linejoin="round"/>
<path d="M174.867 322.771V243.111" stroke="white" stroke-width="1.3" stroke-linecap="round" stroke-linejoin="round"/>
<path d="M111.146 348.911H174.866V328.651" stroke="white" stroke-width="1.3" stroke-linecap="round" stroke-linejoin="round"/>
<path d="M187.867 193.801V230.101H263.767V124.701H250.967" stroke="white" stroke-width="1.3" stroke-linecap="round" stroke-linejoin="round"/>
<path d="M244.247 124.701H187.867V161.751" stroke="white" stroke-width="1.3" stroke-linecap="round" stroke-linejoin="round"/>
<path d="M114.406 111.702H131.866V84.7119" stroke="white" stroke-width="1.3" stroke-linecap="round" stroke-linejoin="round"/>
<path d="M131.867 79.0318V27.3018H98.957V111.702H110.007" stroke="white" stroke-width="1.3" stroke-linecap="round" stroke-linejoin="round"/>
<path d="M198.476 0.661621H287.146V14.3016H75.5762V0.661621H190.256" stroke="white" stroke-width="1.3" stroke-linecap="round" stroke-linejoin="round"/>
<path d="M132.256 376.552H75.5762V362.912H287.146V376.552H140.326" stroke="white" stroke-width="1.3" stroke-linecap="round" stroke-linejoin="round"/>
<path d="M679.047 299.011V291.231H668.197V432.551C668.198 433.571 667.998 434.581 667.609 435.524C667.219 436.467 666.648 437.323 665.927 438.045C665.207 438.767 664.351 439.339 663.409 439.73C662.466 440.12 661.457 440.321 660.437 440.321H644.057" stroke="white" stroke-width="1.3" stroke-linecap="round" stroke-linejoin="round"/>
<path d="M68.706 426.502H3.66602" stroke="white" stroke-width="1.3" stroke-linecap="round" stroke-linejoin="round"/>
<path d="M372.525 426.502H457.195" stroke="white" stroke-width="1.3" stroke-linecap="round" stroke-linejoin="round"/>
<path d="M463.855 426.502H473.845" stroke="white" stroke-width="1.3" stroke-linecap="round" stroke-linejoin="round"/>
<path d="M480.867 426.502H533.387" stroke="white" stroke-width="1.3" stroke-linecap="round" stroke-linejoin="round"/>
<path d="M336.046 426.502H214.146" stroke="white" stroke-width="1.3" stroke-linecap="round" stroke-linejoin="round"/>
<path d="M208.177 426.502H137.877" stroke="white" stroke-width="1.3" stroke-linecap="round" stroke-linejoin="round"/>
<path d="M125.097 426.502H111.047" stroke="white" stroke-width="1.3" stroke-linecap="round" stroke-linejoin="round"/>
<path d="M49.0954 458.661L46.5454 460.011C36.3354 465.401 33.4454 464.251 31.5454 462.131C29.6454 460.011 28.1854 458.361 28.1854 458.361C28.1854 464.951 27.3854 468.361 24.1354 473.171C20.8854 477.981 18.5954 480.441 12.4754 485.171C6.35536 489.901 1.54536 492.311 1.92536 497.091C2.30536 501.871 7.28536 502.631 15.0254 501.861C22.7654 501.091 31.3554 499.381 40.9154 487.151V490.591C40.9154 490.591 47.7954 488.871 51.2354 486.001C54.6754 483.131 54.1054 481.791 54.2954 476.821C54.4854 471.851 52.3854 467.271 49.1354 462.871L49.0954 458.661Z" fill="white"/>
<path d="M124.736 472.432C116.306 471.432 108.106 471.042 101.186 464.432C94.2656 457.822 92.6756 455.762 92.5956 453.342C91.3156 452.932 89.8956 452.402 88.2256 451.792C83.2902 449.969 78.477 447.831 73.8156 445.392C73.7056 451.392 74.2556 455.192 72.5956 457.272C70.9356 459.352 68.3956 461.542 68.7456 468.272C69.0956 475.002 67.7456 478.662 72.5956 479.352C77.4456 480.042 83.7456 480.252 83.7456 480.252L85.4856 476.122C85.4856 476.122 88.3656 480.512 99.9156 481.312C111.466 482.112 132.236 480.252 132.236 480.252C132.236 480.252 133.156 473.462 124.736 472.432Z" fill="white"/>
<path d="M49.1366 462.871V458.661L46.5466 460.011C36.3366 465.401 33.4466 464.251 31.5466 462.131C29.6466 460.011 28.1866 458.361 28.1866 458.361C28.1866 464.951 27.3866 468.361 24.1366 473.171C20.8866 477.981 18.5966 480.441 12.4766 485.171" stroke="black" stroke-width="1.3" stroke-linecap="round" stroke-linejoin="round"/>
<path d="M101.186 464.462C94.2557 457.882 92.6757 455.792 92.5957 453.372C91.3157 452.962 89.8957 452.432 88.2257 451.822C83.2903 449.999 78.4771 447.861 73.8157 445.422C73.7057 451.422 74.2557 455.222 72.5957 457.302" stroke="black" stroke-width="1.3" stroke-linecap="round" stroke-linejoin="round"/>
<path d="M42.0655 472.012C39.2555 477.092 35.2255 483.412 25.7555 486.212C16.2855 489.012 14.1855 485.212 20.1355 478.352C17.7766 480.865 15.1998 483.164 12.4355 485.222C6.31552 490.012 1.54552 492.312 1.92552 497.092C2.30552 501.872 7.28552 502.632 15.0255 501.862C22.7655 501.092 31.3555 499.382 40.9155 487.152V490.592C40.9155 490.592 47.7955 488.872 51.2355 486.002C54.6755 483.132 54.1055 481.792 54.2955 476.822C54.4855 471.852 52.3855 467.272 49.1355 462.872C49.1555 465.292 44.8755 466.932 42.0655 472.012Z" fill="black"/>
<path d="M68.7456 468.272C69.0856 474.972 67.7456 478.662 72.5956 479.352C77.4456 480.042 83.7456 480.252 83.7456 480.252L85.4856 476.122C85.4856 476.122 88.3656 480.512 99.9156 481.312C111.466 482.112 132.236 480.252 132.236 480.252C132.236 480.252 133.156 473.462 124.736 472.432C119.026 471.722 113.426 471.332 108.256 469.112C105.346 470.032 100.446 469.352 95.2556 468.112C87.2556 466.272 85.3256 460.842 80.0156 460.612C74.7056 460.382 70.8156 459.442 72.5556 457.262C70.9356 459.382 68.3956 461.572 68.7456 468.272Z" fill="black"/>
<path d="M89.8965 212.461C84.5265 217.061 76.8965 218.851 57.9965 221.211C51.3274 231.224 44.148 240.886 36.4865 250.161L35.1065 272.631H34.8765C32.7465 301.551 32.7465 332.491 29.6765 362.201L28.1465 458.381C28.1465 458.381 29.6265 460.011 31.5065 462.151C33.3865 464.291 36.3365 465.421 46.5065 460.031C51.4143 457.549 56.1725 454.78 60.7565 451.741C60.7565 451.741 59.2165 422.201 60.7565 407.261C62.2965 392.321 61.6165 375.261 60.7565 364.841C60.7565 364.841 62.5665 354.161 65.5065 340.841C68.4465 327.521 70.8365 314.961 72.7065 302.421C72.7065 302.421 73.7765 319.501 74.5765 331.771C75.3765 344.041 76.4465 345.911 74.5765 356.051C72.7065 366.191 70.3865 376.331 71.5765 397.141C72.7665 417.951 73.8065 427.831 73.8065 445.441C78.4679 447.881 83.2811 450.019 88.2165 451.841C96.2165 454.771 98.8865 456.111 103.686 448.101C103.686 448.101 103.956 388.101 104.756 374.731C105.556 361.361 107.426 359.791 107.426 348.051C107.426 336.311 107.696 317.101 109.556 298.691C110.756 286.861 114.276 258.261 116.626 239.321C118.06 227.929 115.665 216.383 109.816 206.501C108.116 203.621 106.566 200.911 105.606 198.991L89.8965 212.461Z" fill="#02B9F6"/>
<path d="M60.3965 217.501V217.441V217.501Z" stroke="black" stroke-width="1.3" stroke-linecap="round" stroke-linejoin="round"/>
<path d="M89.8965 212.461C84.5265 217.061 76.8965 218.851 57.9965 221.211C51.3274 231.224 44.148 240.886 36.4865 250.161L35.1065 272.631H34.8765C32.7465 301.551 32.7465 332.491 29.6765 362.201L28.1465 458.381C28.1465 458.381 29.6265 460.011 31.5065 462.151C33.3865 464.291 36.3365 465.421 46.5065 460.031C51.4143 457.549 56.1725 454.78 60.7565 451.741C60.7565 451.741 59.2165 422.201 60.7565 407.261C62.2965 392.321 61.6165 375.261 60.7565 364.841C60.7565 364.841 62.5665 354.161 65.5065 340.841C68.4465 327.521 70.8365 314.961 72.7065 302.421C72.7065 302.421 73.7765 319.501 74.5765 331.771C75.3765 344.041 76.4465 345.911 74.5765 356.051C72.7065 366.191 70.3865 376.331 71.5765 397.141C72.7665 417.951 73.8065 427.831 73.8065 445.441C78.4679 447.881 83.2811 450.019 88.2165 451.841C96.2165 454.771 98.8865 456.111 103.686 448.101C103.686 448.101 103.956 388.101 104.756 374.731C105.556 361.361 107.426 359.791 107.426 348.051C107.426 336.311 107.696 317.101 109.556 298.691C110.756 286.861 114.276 258.261 116.626 239.321C118.06 227.929 115.665 216.383 109.816 206.501C108.116 203.621 106.566 200.911 105.606 198.991L89.8965 212.461Z" stroke="black" stroke-width="1.3" stroke-linecap="round" stroke-linejoin="round"/>
<path d="M44.2853 117.651C48.2853 125.761 53.4853 136.761 56.1753 142.401C57.3224 144.81 58.989 146.934 61.0553 148.621L66.2453 152.871C67.5543 153.942 68.6253 155.274 69.3899 156.783C70.1544 158.291 70.5957 159.943 70.6853 161.631L70.9753 167.061L86.7353 166.781C84.5853 161.651 84.0353 152.061 83.9053 146.081C83.8409 142.582 82.7528 139.179 80.7753 136.291C78.3253 132.721 74.6553 127.291 70.5453 121.061C65.7136 113.372 61.8319 105.125 58.9853 96.5013C58.9853 96.5013 58.1053 94.8313 58.9853 90.6813C59.8653 86.5313 58.6253 85.4413 55.2253 85.4213C51.8253 85.4013 35.7453 85.0813 30.7253 85.4213C25.7053 85.7613 27.1553 88.0713 27.7253 91.6613C27.7053 91.6513 38.7453 106.301 44.2853 117.651Z" fill="black"/>
<path d="M99.0854 187.692C98.5178 187.477 98.0286 187.096 97.6823 186.598C97.3359 186.1 97.1487 185.509 97.1454 184.902V184.082C93.9754 182.552 95.1454 180.902 92.7054 181.412C90.2654 181.922 77.3254 184.332 77.3254 184.332L75.3254 187.512L70.6854 187.562V191.642C70.6991 196.682 69.4731 201.648 67.1154 206.102C64.4354 211.102 61.2754 216.282 58.0254 221.212C76.9054 218.852 84.5554 217.062 89.9254 212.462L105.625 199.012L100.135 188.122L99.0854 187.692Z" fill="black"/>
<path d="M58.9866 96.5019C58.6856 95.7322 58.5527 94.9071 58.5966 94.0819C58.6068 92.938 58.7375 91.7984 58.9866 90.6819C59.8766 86.5319 58.6466 85.4419 55.2266 85.4219" stroke="white" stroke-width="1.3" stroke-linecap="round" stroke-linejoin="round"/>
<path d="M27.1266 87.3115C26.9366 88.3815 27.4266 89.8615 27.7066 91.6515" stroke="white" stroke-width="1.3" stroke-linecap="round" stroke-linejoin="round"/>
<path d="M57.9961 221.212C76.8761 218.852 84.5261 217.062 89.8961 212.462L102.176 201.922" stroke="white" stroke-width="1.3" stroke-linecap="round" stroke-linejoin="round"/>
<path d="M105.617 198.972L100.127 188.082" stroke="white" stroke-width="1.3" stroke-linecap="round" stroke-linejoin="round"/>
<path d="M86.7363 166.782C84.5863 161.652 84.0363 152.062 83.9063 146.082C83.8418 142.583 82.7537 139.179 80.7763 136.292C78.3263 132.722 74.6563 127.292 70.5463 121.062C65.7145 113.373 61.8328 105.126 58.9863 96.502C61.4863 96.222 67.4263 101.182 70.4063 102.602C73.3863 104.022 73.8163 106.012 73.8163 106.012C77.5754 106.603 81.3646 106.984 85.1663 107.152C89.1663 107.152 91.8463 108.282 92.5563 113.152C93.2663 118.022 95.1063 123.942 97.3763 131.462C99.1372 136.646 101.676 141.532 104.906 145.952C104.906 145.952 110.156 123.802 111.476 115.812C112.796 107.822 113.056 102.552 116.216 99.812C119.376 97.072 122.626 94.102 122.626 94.102H121.856C121.696 94.1022 121.538 94.0698 121.39 94.0068C121.243 93.9438 121.11 93.8515 121 93.7355C120.89 93.6195 120.804 93.4822 120.748 93.332C120.693 93.1819 120.668 93.022 120.676 92.862L120.786 91.032C120.956 87.952 121.656 87.692 123.236 85.582C124.816 83.472 124.906 82.582 126.756 82.582H135.096C137.636 82.582 137.556 84.252 137.556 84.252L139.746 83.982C141.946 83.722 141.956 84.882 142.526 87.982C143.096 91.082 144.376 94.242 140.246 97.092C136.116 99.942 130.986 104.782 127.246 107.782C123.506 110.782 124.536 113.332 124.116 123.302C123.696 133.272 122.626 156.102 122.626 156.102H125.476C123.794 161.905 121.791 167.611 119.476 173.192C116.196 180.742 114.066 181.532 114.066 181.532C115.066 183.692 113.936 185.352 110.386 187.532C106.836 189.712 105.936 190.702 103.266 189.432C101.896 188.782 100.266 188.162 99.1063 187.712C98.5387 187.498 98.0495 187.116 97.7032 186.618C97.3568 186.12 97.1696 185.529 97.1663 184.922V184.102C93.9963 182.572 95.1663 180.922 92.7263 181.432C90.2863 181.942 77.3463 184.352 77.3463 184.352L75.3463 187.532L70.7063 187.582V191.662C70.72 196.702 69.494 201.668 67.1363 206.122C55.9763 227.122 36.5363 250.182 36.5363 250.182L35.1563 272.652H34.9263C33.5367 272.619 32.1736 272.265 30.9439 271.617C29.7142 270.969 28.6513 270.045 27.8385 268.917C27.0258 267.789 26.4852 266.489 26.2593 265.117C26.0333 263.746 26.1282 262.341 26.5363 261.012C27.9563 256.352 30.1263 249.212 32.5863 241.012C36.9463 226.562 41.5263 205.242 41.5263 205.242L37.0063 188.012C35.4463 188.012 34.0063 187.922 32.8263 187.802C31.2519 187.646 29.7511 187.059 28.4894 186.104C27.2278 185.149 26.2543 183.865 25.6763 182.392C23.1063 175.792 21.8563 168.782 15.3663 154.462C7.36627 136.892 2.66628 123.462 0.896275 117.012C-0.873725 110.562 0.0162754 108.822 3.22628 105.832C6.43628 102.842 7.53627 102.072 12.0763 102.072C15.0163 102.04 17.9451 101.705 20.8163 101.072C20.8163 101.072 20.7063 99.412 23.1363 97.642C25.5663 95.872 27.7063 91.642 27.7063 91.642C27.7063 91.642 38.7063 106.292 44.2863 117.642C48.2863 125.752 53.4863 136.752 56.1763 142.392C57.3233 144.801 58.99 146.925 61.0563 148.612L66.2463 152.862C67.5552 153.933 68.6263 155.265 69.3908 156.773C70.1554 158.282 70.5966 159.933 70.6863 161.622L70.9763 167.052L86.7363 166.782Z" fill="white"/>
<path d="M86.7363 166.782C84.5863 161.652 84.0363 152.062 83.9063 146.082C83.8418 142.583 82.7537 139.179 80.7763 136.292C78.3263 132.722 74.6563 127.292 70.5463 121.062C65.7145 113.373 61.8328 105.126 58.9863 96.502C61.4863 96.222 67.4263 101.182 70.4063 102.602C73.3863 104.022 73.8163 106.012 73.8163 106.012C77.5754 106.603 81.3646 106.984 85.1663 107.152C89.1663 107.152 91.8463 108.282 92.5563 113.152C93.2663 118.022 95.1063 123.942 97.3763 131.462C99.1372 136.646 101.676 141.532 104.906 145.952C104.906 145.952 110.156 123.802 111.476 115.812C112.796 107.822 113.056 102.552 116.216 99.812C119.376 97.072 122.626 94.102 122.626 94.102H121.856C121.696 94.1022 121.538 94.0698 121.39 94.0068C121.243 93.9438 121.11 93.8515 121 93.7355C120.89 93.6195 120.804 93.4822 120.748 93.332C120.693 93.1819 120.668 93.022 120.676 92.862L120.786 91.032C120.956 87.952 121.656 87.692 123.236 85.582C124.816 83.472 124.906 82.582 126.756 82.582H135.096C137.636 82.582 137.556 84.252 137.556 84.252L139.746 83.982C141.946 83.722 141.956 84.882 142.526 87.982C143.096 91.082 144.376 94.242 140.246 97.092C136.116 99.942 130.986 104.782 127.246 107.782C123.506 110.782 124.536 113.332 124.116 123.302C123.696 133.272 122.626 156.102 122.626 156.102H125.476C123.794 161.905 121.791 167.611 119.476 173.192C116.196 180.742 114.066 181.532 114.066 181.532C115.066 183.692 113.936 185.352 110.386 187.532C106.836 189.712 105.936 190.702 103.266 189.432C101.896 188.782 100.266 188.162 99.1063 187.712C98.5387 187.498 98.0495 187.116 97.7032 186.618C97.3568 186.12 97.1696 185.529 97.1663 184.922V184.102C93.9963 182.572 95.1663 180.922 92.7263 181.432C90.2863 181.942 77.3463 184.352 77.3463 184.352L75.3463 187.532L70.7063 187.582V191.662C70.72 196.702 69.494 201.668 67.1363 206.122C55.9763 227.122 36.5363 250.182 36.5363 250.182L35.1563 272.652H34.9263C33.5367 272.619 32.1736 272.265 30.9439 271.617C29.7142 270.969 28.6513 270.045 27.8385 268.917C27.0258 267.789 26.4852 266.489 26.2593 265.117C26.0333 263.746 26.1282 262.341 26.5363 261.012C27.9563 256.352 30.1263 249.212 32.5863 241.012C36.9463 226.562 41.5263 205.242 41.5263 205.242L37.0063 188.012C35.4463 188.012 34.0063 187.922 32.8263 187.802C31.2519 187.646 29.7511 187.059 28.4894 186.104C27.2278 185.149 26.2543 183.865 25.6763 182.392C23.1063 175.792 21.8563 168.782 15.3663 154.462C7.36627 136.892 2.66628 123.462 0.896275 117.012C-0.873725 110.562 0.0162754 108.822 3.22628 105.832C6.43628 102.842 7.53627 102.072 12.0763 102.072C15.0163 102.04 17.9451 101.705 20.8163 101.072C20.8163 101.072 20.7063 99.412 23.1363 97.642C25.5663 95.872 27.7063 91.642 27.7063 91.642C27.7063 91.642 38.7063 106.292 44.2863 117.642C48.2863 125.752 53.4863 136.752 56.1763 142.392C57.3233 144.801 58.99 146.925 61.0563 148.612L66.2463 152.862C67.5552 153.933 68.6263 155.265 69.3908 156.773C70.1554 158.282 70.5966 159.933 70.6863 161.622L70.9763 167.052L86.7363 166.782Z" stroke="black" stroke-width="1.3" stroke-linecap="round" stroke-linejoin="round"/>
<path d="M122.627 94.0815C124.627 92.2715 124.527 88.3115 124.527 88.3115" stroke="black" stroke-width="1.3" stroke-linecap="round" stroke-linejoin="round"/>
<path d="M126.756 82.582C128.976 82.582 128.976 83.582 128.976 86.502V89.422" stroke="black" stroke-width="1.3" stroke-linecap="round" stroke-linejoin="round"/>
<path d="M131.096 82.582C133.576 82.582 133.406 84.912 133.406 86.772V89.422" stroke="black" stroke-width="1.3" stroke-linecap="round" stroke-linejoin="round"/>
<path d="M137.557 84.252C137.917 86.502 138.367 89.422 138.367 89.422" stroke="black" stroke-width="1.3" stroke-linecap="round" stroke-linejoin="round"/>
<path d="M73.8164 106.012C75.5164 109.632 77.5264 113.642 77.5264 113.642" stroke="black" stroke-width="1.3" stroke-linecap="round" stroke-linejoin="round"/>
<path d="M80.7559 120.342C82.7201 123.885 84.8836 127.314 87.2359 130.612C89.5759 133.512 88.7959 136.412 88.4559 142.882C88.1159 149.352 88.1259 160.182 88.1259 160.182" stroke="black" stroke-width="1.3" stroke-linecap="round" stroke-linejoin="round"/>
<path d="M88.127 163.771C88.127 163.771 90.897 174.691 103.977 182.051C105.261 182.794 106.702 183.222 108.183 183.3C109.664 183.378 111.142 183.105 112.497 182.501C113.055 182.237 113.576 181.901 114.047 181.501" stroke="black" stroke-width="1.3" stroke-linecap="round" stroke-linejoin="round"/>
<path d="M104.906 145.912C103.566 151.042 98.6962 160.912 99.5562 166.412" stroke="black" stroke-width="1.3" stroke-linecap="round" stroke-linejoin="round"/>
<path d="M92.1055 160.182C92.1055 160.182 94.1055 154.292 100.035 154.102" stroke="black" stroke-width="1.3" stroke-linecap="round" stroke-linejoin="round"/>
<path d="M122.626 156.102H119.356C117.066 156.102 114.296 154.482 111.246 152.192C109.416 150.826 107.722 149.289 106.186 147.602" stroke="black" stroke-width="1.3" stroke-linecap="round" stroke-linejoin="round"/>
<path d="M107.287 154.102C107.287 154.102 110.537 156.772 113.287 158.772C116.037 160.772 120.347 160.182 120.347 160.182" stroke="black" stroke-width="1.3" stroke-linecap="round" stroke-linejoin="round"/>
<path d="M97.1465 184.082C99.6302 185 102.259 185.464 104.906 185.452" stroke="black" stroke-width="1.3" stroke-linecap="round" stroke-linejoin="round"/>
<path d="M73.1953 169.302C73.1953 169.302 75.6953 172.742 77.7853 175.042C79.8753 177.342 80.1053 179.852 77.3253 184.332" stroke="black" stroke-width="1.3" stroke-linecap="round" stroke-linejoin="round"/>
<path d="M69.8555 172.321C69.8555 172.321 71.9355 175.251 73.1955 176.811C74.4555 178.371 73.3155 180.951 71.5855 183.311" stroke="black" stroke-width="1.3" stroke-linecap="round" stroke-linejoin="round"/>
<path d="M70.9756 167.062H66.1956C63.0385 167.085 59.9004 166.571 56.9156 165.542C54.4056 164.602 52.8456 164.492 49.0856 167.942C45.3256 171.392 43.7656 172.842 43.7656 172.842" stroke="black" stroke-width="1.3" stroke-linecap="round" stroke-linejoin="round"/>
<path d="M37.0059 188.012C42.2859 188.012 47.0059 188.832 53.7259 188.542C60.4459 188.252 64.2159 187.542 70.6559 187.542" stroke="black" stroke-width="1.3" stroke-linecap="round" stroke-linejoin="round"/>
<path d="M41.5254 205.222C42.4654 208.082 42.9654 209.682 42.9654 209.682" stroke="black" stroke-width="1.3" stroke-linecap="round" stroke-linejoin="round"/>
<path d="M47.0554 195.691C47.0554 195.691 46.9754 208.831 41.5254 218.571" stroke="black" stroke-width="1.3" stroke-linecap="round" stroke-linejoin="round"/>
<path d="M36.4867 250.162C30.4867 257.252 25.7067 258.672 26.1967 264.632" stroke="black" stroke-width="1.3" stroke-linecap="round" stroke-linejoin="round"/>
<path d="M22.707 101.012C22.707 101.012 31.137 106.632 35.127 113.602" stroke="black" stroke-width="1.3" stroke-linecap="round" stroke-linejoin="round"/>
<path d="M13.1055 106.682C13.1055 106.682 22.8255 113.362 27.2755 116.282C31.7255 119.202 32.9055 121.672 34.5455 129.412C36.1855 137.152 37.3555 146.042 42.1555 150.262C43.5315 151.383 44.6448 152.792 45.4172 154.391C46.1895 155.989 46.6019 157.737 46.6255 159.512" stroke="black" stroke-width="1.3" stroke-linecap="round" stroke-linejoin="round"/>
<path d="M44.4966 158.012C41.4895 163.194 37.8739 167.998 33.7266 172.322" stroke="black" stroke-width="1.3" stroke-linecap="round" stroke-linejoin="round"/>
<path d="M50.9167 166.412C50.9167 166.412 50.3267 161.942 43.1367 160.262" stroke="black" stroke-width="1.3" stroke-linecap="round" stroke-linejoin="round"/>
<path d="M36.7169 117.762C36.912 120.091 36.912 122.432 36.7169 124.762C36.4545 126.479 35.7009 128.083 34.5469 129.382" stroke="black" stroke-width="1.3" stroke-linecap="round" stroke-linejoin="round"/>
<path d="M43.1367 131.212C43.1367 131.212 47.6167 142.812 49.1867 147.092C50.7567 151.372 51.9167 151.932 57.3667 155.432C62.8167 158.932 66.0867 160.722 66.0867 160.722" stroke="black" stroke-width="1.3" stroke-linecap="round" stroke-linejoin="round"/>
<path d="M84.8066 127.121V119.491" stroke="black" stroke-width="1.3" stroke-linecap="round" stroke-linejoin="round"/>
<path d="M72.7461 302.402C76.9761 271.182 79.3861 245.771 79.3861 245.771" stroke="black" stroke-width="1.3" stroke-linecap="round" stroke-linejoin="round"/>
<path d="M70.627 237.332C70.627 237.332 74.027 239.432 76.507 240.622C78.987 241.812 80.657 242.992 84.447 240.622C87.2407 238.77 89.8914 236.711 92.377 234.462" stroke="black" stroke-width="1.3" stroke-linecap="round" stroke-linejoin="round"/>
<path d="M35.4668 390.312C35.4668 390.312 36.3668 432.912 35.4668 448.382" stroke="black" stroke-width="1.3" stroke-linecap="round" stroke-linejoin="round"/>
<path d="M97.1562 444.012V398.752" stroke="black" stroke-width="1.3" stroke-linecap="round" stroke-linejoin="round"/>
<path d="M97.1562 393.521V385.691" stroke="black" stroke-width="1.3" stroke-linecap="round" stroke-linejoin="round"/>
<path d="M65.4272 126.162C63.6825 130.645 62.998 135.471 63.4272 140.262" stroke="black" stroke-width="1.3" stroke-linecap="round" stroke-linejoin="round"/>
<path d="M62.8864 53.8115C65.2264 58.4915 73.3964 64.3615 73.3964 64.3615C73.3964 64.3615 69.0664 71.7115 61.3164 73.5215L62.8864 53.8115Z" fill="black"/>
<path d="M66.7564 58.7415C68.8337 60.77 71.0526 62.648 73.3964 64.3615C73.3964 64.3615 69.0664 71.7115 61.3164 73.5215L62.8864 53.8115" stroke="white" stroke-width="1.3" stroke-linecap="round" stroke-linejoin="round"/>
<path d="M62.8871 53.812C62.6071 50.542 61.7471 46.182 61.7471 46.182H63.7471C63.7471 46.182 63.7471 45.802 63.5671 45.122C62.512 40.0917 59.7525 35.5799 55.7548 32.3494C51.7572 29.1189 46.7668 27.3678 41.6271 27.392H33.7871C27.4186 27.3597 21.2202 29.4457 16.1671 33.322C15.1524 34.1092 14.1778 34.9469 13.2471 35.832C10.2431 38.7484 8.14781 42.4723 7.21439 46.5538C6.28098 50.6353 6.54935 54.8997 7.98711 58.832C9.48652 63.0205 9.58478 67.5828 8.26711 71.832L6.53711 77.352C9.5171 79.8527 12.9396 81.7726 16.6271 83.012C17.4486 81.2724 18.0887 79.4528 18.5371 77.582C18.8506 79.623 18.9845 81.6876 18.9371 83.752C22.7681 84.8637 26.7381 85.4227 30.7271 85.412V88.872C30.7271 88.872 44.7271 94.462 55.2271 89.792V81.692C55.2271 81.692 60.0271 81.242 62.5771 79.692C62.5771 79.692 65.0371 77.972 65.0371 72.432V60.432C65.0371 58.322 63.1771 57.082 62.8871 53.812Z" fill="white"/>
<path d="M62.8871 53.812C62.6071 50.542 61.7471 46.182 61.7471 46.182H63.7471C63.7471 46.182 63.7471 45.802 63.5671 45.122C62.512 40.0917 59.7525 35.5799 55.7548 32.3494C51.7572 29.1189 46.7668 27.3678 41.6271 27.392H33.7871C27.4186 27.3597 21.2202 29.4457 16.1671 33.322C15.1524 34.1092 14.1778 34.9469 13.2471 35.832C10.2431 38.7484 8.14781 42.4723 7.21439 46.5538C6.28098 50.6353 6.54935 54.8997 7.98711 58.832V58.832C9.48652 63.0205 9.58478 67.5828 8.26711 71.832L6.53711 77.352C9.5171 79.8527 12.9396 81.7726 16.6271 83.012C17.4486 81.2724 18.0887 79.4528 18.5371 77.582C18.8506 79.623 18.9845 81.6876 18.9371 83.752C22.7681 84.8637 26.7381 85.4227 30.7271 85.412V88.872C30.7271 88.872 44.7271 94.462 55.2271 89.792V81.692C55.2271 81.692 60.0271 81.242 62.5771 79.692C62.5771 79.692 65.0371 77.972 65.0371 72.432V60.432C65.0371 58.322 63.1771 57.082 62.8871 53.812Z" stroke="black" stroke-width="1.3" stroke-linecap="round" stroke-linejoin="round"/>
<path d="M41.6271 27.392H33.7871C27.4186 27.3597 21.2202 29.4457 16.1671 33.322C15.1524 34.1092 14.1778 34.9469 13.2471 35.832C10.2431 38.7484 8.14781 42.4723 7.21439 46.5538C6.28098 50.6353 6.54935 54.8997 7.98711 58.832C9.48652 63.0205 9.58478 67.5828 8.26711 71.832L6.53711 77.352C9.5171 79.8527 12.9396 81.7726 16.6271 83.012C17.4486 81.2724 18.0887 79.4528 18.5371 77.582C18.8506 79.623 18.9845 81.6876 18.9371 83.752C22.7681 84.8637 26.7381 85.4227 30.7271 85.412C37.9471 85.552 42.2771 83.092 42.2771 83.092C42.2771 83.092 33.6271 77.252 33.6271 48.642L35.7871 53.782C39.1482 53.9734 42.5098 53.4131 45.6271 52.142C50.6271 50.042 56.0871 46.142 61.7171 46.142H63.7171C63.7171 46.142 63.7171 45.762 63.5371 45.082C62.475 40.0641 59.7164 35.5655 55.7257 32.3434C51.7351 29.1214 46.7561 27.3728 41.6271 27.392Z" fill="black"/>
<path d="M41.6271 27.392H33.7871C27.4186 27.3597 21.2202 29.4457 16.1671 33.322C15.1524 34.1092 14.1778 34.9469 13.2471 35.832C10.2431 38.7484 8.14781 42.4723 7.21439 46.5538C6.28098 50.6353 6.54935 54.8997 7.98711 58.832C9.48652 63.0205 9.58478 67.5828 8.26711 71.832L6.53711 77.352C9.5171 79.8527 12.9396 81.7726 16.6271 83.012C17.4486 81.2724 18.0887 79.4528 18.5371 77.582C18.8506 79.623 18.9845 81.6876 18.9371 83.752C22.7681 84.8637 26.7381 85.4227 30.7271 85.412C37.9471 85.552 42.2771 83.092 42.2771 83.092C42.2771 83.092 33.6271 77.252 33.6271 48.642L35.7871 53.782C39.1482 53.9734 42.5097 53.4131 45.6271 52.142C50.6271 50.042 56.0871 46.142 61.7171 46.142H63.7171C63.7171 46.142 63.7171 45.762 63.5371 45.082C62.475 40.0641 59.7164 35.5655 55.7257 32.3434C51.7351 29.1214 46.7561 27.3728 41.6271 27.392V27.392Z" stroke="black" stroke-width="1.3" stroke-linecap="round" stroke-linejoin="round"/>
<path d="M30.6267 72.1518C30.1297 69.1521 29.7959 66.1277 29.6267 63.0918H27.9467C27.4732 63.0897 27.0055 63.195 26.5787 63.3998C26.1518 63.6047 25.777 63.9036 25.4824 64.2743C25.1878 64.6449 24.9812 65.0775 24.878 65.5396C24.7748 66.0016 24.7778 66.4811 24.8867 66.9418C25.4967 69.4118 26.9867 72.1518 30.6267 72.1518Z" fill="white"/>
<path d="M41.8164 57.3117C44.4951 55.8451 47.4326 54.9113 50.4664 54.5617V52.2217C50.4664 52.2217 43.9264 52.9517 41.8164 57.3117Z" stroke="black" stroke-width="1.3" stroke-linecap="round" stroke-linejoin="round"/>
<path d="M34.3262 61.622L41.3262 59.522L51.3262 57.312C51.3262 57.312 53.7762 54.872 55.0362 57.312C56.3309 59.5087 57.7464 61.632 59.2762 63.672C59.5277 64.0157 59.6857 64.4188 59.7347 64.8418C59.7837 65.2649 59.7221 65.6934 59.5558 66.0855C59.3895 66.4776 59.1242 66.8198 58.786 67.0786C58.4477 67.3374 58.0481 67.504 57.6262 67.562C57.2209 67.6037 56.8136 67.6237 56.4062 67.622" stroke="black" stroke-width="1.3" stroke-linecap="round" stroke-linejoin="round"/>
<path d="M51.3269 57.3115L52.0469 62.0815C52.167 62.9579 51.963 63.8479 51.4732 64.5844C50.9834 65.321 50.2415 65.8533 49.3869 66.0815L46.1969 66.9115C45.5049 67.093 44.7694 66.9955 44.1485 66.6402C43.5276 66.2849 43.071 65.7001 42.8769 65.0115L41.2969 59.4815" stroke="black" stroke-width="1.3" stroke-linecap="round" stroke-linejoin="round"/>
<path d="M54.2266 56.4017L64.2266 54.0117L65.6266 60.2317C65.6803 60.4847 65.683 60.746 65.6343 61C65.5856 61.2541 65.4866 61.4958 65.3431 61.7111C65.1996 61.9263 65.0145 62.1107 64.7987 62.2533C64.583 62.396 64.3408 62.494 64.0866 62.5417L59.1566 63.4717" stroke="black" stroke-width="1.3" stroke-linecap="round" stroke-linejoin="round"/>
<path d="M54.2266 52.6121V54.6721C55.5251 54.6487 56.7945 54.2831 57.9066 53.6121C59.1049 52.9641 60.4442 52.6207 61.8066 52.6121C61.8066 52.6121 60.2966 50.1121 54.2266 52.6121Z" stroke="black" stroke-width="1.3" stroke-linecap="round" stroke-linejoin="round"/>
<path d="M41.8164 57.3117C44.4951 55.8451 47.4326 54.9113 50.4664 54.5617V52.2217C50.4664 52.2217 43.9264 52.9517 41.8164 57.3117Z" fill="black"/>
<path d="M54.2266 52.6121V54.6721C55.5251 54.6487 56.7945 54.2831 57.9066 53.6121C59.1049 52.9641 60.4442 52.6207 61.8066 52.6121C61.8066 52.6121 60.2966 50.1121 54.2266 52.6121Z" fill="black"/>
<path d="M46.1465 61.0116C46.5065 62.6016 47.7065 63.6816 48.8265 63.4316C49.9465 63.1816 50.5865 61.6916 50.2265 60.1016L46.1465 61.0116Z" stroke="black" stroke-width="1.3" stroke-linecap="round" stroke-linejoin="round"/>
<path d="M57.7168 58.1917C58.0268 59.5817 58.9568 60.5617 59.7968 60.3817C60.6368 60.2017 61.0568 58.9117 60.7368 57.5117L57.7168 58.1917Z" stroke="black" stroke-width="1.3" stroke-linecap="round" stroke-linejoin="round"/>
<path d="M46.1465 61.0116C46.5065 62.6016 47.7065 63.6816 48.8265 63.4316C49.9465 63.1816 50.5865 61.6916 50.2265 60.1016L46.1465 61.0116Z" fill="black"/>
<path d="M57.7168 58.1917C58.0268 59.5817 58.9568 60.5617 59.7968 60.3817C60.6368 60.2017 61.0568 58.9117 60.7368 57.5117L57.7168 58.1917Z" fill="black"/>
<path d="M55.2267 81.6914C52.6152 81.8281 49.9983 81.8281 47.3867 81.6914" stroke="black" stroke-width="1.3" stroke-linecap="round" stroke-linejoin="round"/>
<path d="M55.627 72.5017C56.023 72.0102 56.5339 71.6236 57.1146 71.3759C57.6953 71.1283 58.328 71.0273 58.957 71.0817" stroke="black" stroke-width="1.3" stroke-linecap="round" stroke-linejoin="round"/>
<path d="M61.7471 46.182H63.7471C63.7471 46.182 63.7471 45.802 63.5671 45.122C62.512 40.0917 59.7525 35.5799 55.7548 32.3494C51.7572 29.1189 46.7668 27.3678 41.6271 27.392H33.7871C27.4186 27.3597 21.2202 29.4457 16.1671 33.322C15.1524 34.1092 14.1778 34.9469 13.2471 35.832C10.2431 38.7484 8.14781 42.4723 7.21439 46.5538C6.28098 50.6353 6.54935 54.8997 7.98711 58.832C9.48652 63.0205 9.58478 67.5828 8.26711 71.832L6.53711 77.352C9.5171 79.8527 12.9396 81.7726 16.6271 83.012C17.4486 81.2724 18.0887 79.4528 18.5371 77.582C18.8506 79.623 18.9845 81.6876 18.9371 83.752C21.3264 84.443 23.7729 84.9183 26.2471 85.172" stroke="white" stroke-width="1.3" stroke-linecap="round" stroke-linejoin="round"/>
<path d="M15.8155 482.502C14.8155 483.342 13.7155 484.242 12.4355 485.232C6.31552 490.012 1.54552 492.312 1.92552 497.092C2.30552 501.872 7.28552 502.632 15.0255 501.862C22.7655 501.092 31.3555 499.382 40.9155 487.152" stroke="white" stroke-width="1.3" stroke-linecap="round" stroke-linejoin="round"/>
<path d="M40.916 490.591C40.916 490.591 47.796 488.871 51.236 486.001C54.676 483.131 54.106 481.791 54.296 476.821C54.3504 473.15 53.3658 469.538 51.456 466.401" stroke="white" stroke-width="1.3" stroke-linecap="round" stroke-linejoin="round"/>
<path d="M132.237 480.252C132.237 480.252 133.157 473.462 124.737 472.432C120.037 471.852 115.417 471.482 111.047 470.132" stroke="white" stroke-width="1.3" stroke-linecap="round" stroke-linejoin="round"/>
<path d="M85.4863 476.122C85.4863 476.122 88.3663 480.512 99.9163 481.312C109.046 481.952 123.916 480.922 129.796 480.462" stroke="white" stroke-width="1.3" stroke-linecap="round" stroke-linejoin="round"/>
<path d="M70.6271 459.792C69.4771 461.542 68.5071 463.982 68.7371 468.272C69.0771 474.972 67.7371 478.662 72.5871 479.352C77.4371 480.042 83.7371 480.252 83.7371 480.252" stroke="white" stroke-width="1.3" stroke-linecap="round" stroke-linejoin="round"/>
<path d="M672.107 325.012C672.108 324.256 671.961 323.508 671.672 322.81C671.384 322.112 670.96 321.477 670.426 320.943C669.892 320.409 669.257 319.985 668.559 319.697C667.861 319.408 667.113 319.26 666.357 319.262H662.037C660.512 319.262 659.05 319.868 657.971 320.946C656.893 322.024 656.287 323.487 656.287 325.012C656.287 326.537 656.893 327.999 657.971 329.078C659.05 330.156 660.512 330.762 662.037 330.762H666.357C667.882 330.762 669.345 330.156 670.423 329.078C671.501 327.999 672.107 326.537 672.107 325.012Z" fill="#02B9F6"/>
<path d="M672.107 325.012C672.108 324.256 671.961 323.508 671.672 322.81C671.384 322.112 670.96 321.477 670.426 320.943C669.892 320.409 669.257 319.985 668.559 319.697C667.861 319.408 667.113 319.26 666.357 319.262H662.037C660.512 319.262 659.05 319.868 657.971 320.946C656.893 322.024 656.287 323.487 656.287 325.012C656.287 326.537 656.893 327.999 657.971 329.078C659.05 330.156 660.512 330.762 662.037 330.762H666.357C667.882 330.762 669.345 330.156 670.423 329.078C671.501 327.999 672.107 326.537 672.107 325.012Z" stroke="white" stroke-width="1.3" stroke-linecap="round" stroke-linejoin="round"/>
<path d="M652.125 347.012C651.771 344.486 650.514 342.173 648.588 340.5C646.662 338.828 644.196 337.909 641.645 337.912H561.325L578.405 203.452L567.725 202.382C557.725 201.382 547.725 209.922 547.105 219.922L540.455 332.012C540.359 333.607 539.657 335.105 538.494 336.202C537.331 337.298 535.794 337.909 534.195 337.912H522.725C521.616 337.91 520.518 338.128 519.492 338.551C518.467 338.975 517.536 339.596 516.751 340.38C515.966 341.164 515.344 342.095 514.919 343.119C514.494 344.144 514.275 345.242 514.275 346.352V359.222H653.845L652.125 347.012Z" fill="#02B9F6"/>
<path d="M653.845 359.262L676.435 224.692C676.887 222.001 676.708 219.242 675.91 216.633C675.113 214.024 673.72 211.636 671.842 209.657C669.963 207.679 667.65 206.164 665.086 205.233C662.521 204.302 659.776 203.98 657.065 204.292L639.265 206.292C628.886 207.48 618.409 207.543 608.015 206.482L578.405 203.482C576.038 203.24 573.646 203.481 571.373 204.19C569.101 204.898 566.997 206.06 565.186 207.605C563.376 209.15 561.897 211.046 560.84 213.178C559.783 215.311 559.169 217.635 559.035 220.012L550.775 359.312" fill="#02B9F6"/>
<path d="M676.437 224.692C676.889 222.001 676.709 219.242 675.912 216.633C675.115 214.024 673.722 211.636 671.843 209.657C669.965 207.679 667.652 206.164 665.087 205.233C662.523 204.302 659.777 203.98 657.067 204.292L639.267 206.292C628.887 207.48 618.41 207.543 608.017 206.482L578.407 203.482C576.039 203.24 573.647 203.481 571.375 204.19C569.103 204.898 566.998 206.06 565.188 207.605C563.377 209.15 561.899 211.046 560.842 213.178C559.784 215.311 559.171 217.635 559.037 220.012L556.297 266.222" stroke="white" stroke-width="1.3" stroke-linecap="round" stroke-linejoin="round"/>
<path d="M668.436 272.372L653.846 359.262" stroke="white" stroke-width="1.3" stroke-linecap="round" stroke-linejoin="round"/>
<path d="M584.926 467.251C589.488 467.251 593.186 463.553 593.186 458.991C593.186 454.43 589.488 450.731 584.926 450.731C580.364 450.731 576.666 454.43 576.666 458.991C576.666 463.553 580.364 467.251 584.926 467.251Z" fill="black"/>
<path d="M638.666 467.251C643.228 467.251 646.926 463.553 646.926 458.991C646.926 454.43 643.228 450.731 638.666 450.731C634.104 450.731 630.406 454.43 630.406 458.991C630.406 463.553 634.104 467.251 638.666 467.251Z" fill="black"/>
<path d="M529.096 467.251C533.658 467.251 537.356 463.553 537.356 458.991C537.356 454.43 533.658 450.731 529.096 450.731C524.534 450.731 520.836 454.43 520.836 458.991C520.836 463.553 524.534 467.251 529.096 467.251Z" fill="black"/>
<path d="M584.926 467.251C589.488 467.251 593.186 463.553 593.186 458.991C593.186 454.43 589.488 450.731 584.926 450.731C580.364 450.731 576.666 454.43 576.666 458.991C576.666 463.553 580.364 467.251 584.926 467.251Z" stroke="white" stroke-width="1.3" stroke-linecap="round" stroke-linejoin="round"/>
<path d="M638.626 467.252C640.646 467.249 642.594 466.505 644.102 465.162C645.609 463.818 646.572 461.968 646.807 459.962C647.042 457.957 646.534 455.934 645.377 454.279C644.221 452.623 642.498 451.449 640.534 450.979C638.57 450.509 636.502 450.775 634.721 451.728C632.94 452.681 631.571 454.253 630.873 456.148C630.174 458.043 630.195 460.128 630.931 462.009C631.667 463.889 633.067 465.435 634.866 466.352" stroke="white" stroke-width="1.3" stroke-linecap="round" stroke-linejoin="round"/>
<path d="M536.356 455.011C535.397 453.244 533.826 451.887 531.938 451.196C530.05 450.504 527.974 450.524 526.101 451.254C524.227 451.983 522.683 453.371 521.759 455.156C520.836 456.942 520.595 459.004 521.083 460.955C521.57 462.905 522.753 464.611 524.408 465.752C526.064 466.894 528.079 467.392 530.075 467.153C532.072 466.915 533.913 465.956 535.253 464.457C536.594 462.958 537.341 461.022 537.356 459.011" stroke="white" stroke-width="1.3" stroke-linecap="round" stroke-linejoin="round"/>
<path d="M575.896 382.792V421.022H592.236V399.212V394.782V382.792H575.896Z" fill="black"/>
<path d="M584.067 369.271H560.127L567.407 382.791H584.067H600.717L607.997 369.271H584.067Z" fill="black"/>
<path d="M653.845 359.262H514.275V369.272H653.845V359.262Z" fill="black"/>
<path d="M514.275 369.272V359.262H633.865" stroke="white" stroke-width="1.3" stroke-linecap="round" stroke-linejoin="round"/>
<path d="M551.016 362.021V369.271" stroke="white" stroke-width="1.3" stroke-linecap="round" stroke-linejoin="round"/>
<path d="M571.687 382.791H600.717L607.997 369.271H584.067H560.127L567.407 382.791" stroke="white" stroke-width="1.3" stroke-linecap="round" stroke-linejoin="round"/>
<path d="M592.236 394.782V382.792H575.896V421.022H592.236V399.212" stroke="white" stroke-width="1.3" stroke-linecap="round" stroke-linejoin="round"/>
<path d="M634.947 437.602H611.827C609.282 437.602 606.789 436.876 604.642 435.508C602.495 434.141 600.783 432.189 599.707 429.882L595.567 421.012H572.567L568.427 429.872C567.352 432.18 565.641 434.132 563.494 435.5C561.346 436.868 558.853 437.593 556.307 437.592H533.177C531.199 437.592 529.264 438.17 527.609 439.256C525.955 440.341 524.655 441.887 523.867 443.702L520.867 450.702H647.287L644.287 443.702C643.496 441.884 642.19 440.338 640.53 439.254C638.871 438.17 636.93 437.595 634.947 437.602Z" fill="black"/>
<path d="M623.127 450.722H647.287L644.287 443.722C643.499 441.907 642.198 440.361 640.544 439.276C638.89 438.19 636.955 437.612 634.977 437.612H611.827C609.281 437.612 606.788 436.886 604.641 435.518C602.494 434.151 600.782 432.199 599.707 429.892L595.567 421.012H572.567L568.427 429.872C567.352 432.18 565.64 434.132 563.493 435.5C561.346 436.868 558.852 437.593 556.307 437.592" stroke="white" stroke-width="1.3" stroke-linecap="round" stroke-linejoin="round"/>
<path d="M551.017 437.602H533.177C531.199 437.602 529.264 438.18 527.609 439.266C525.955 440.351 524.655 441.897 523.867 443.712L520.867 450.712H617.627" stroke="white" stroke-width="1.3" stroke-linecap="round" stroke-linejoin="round"/>
<path d="M596.696 450.722L589.666 435.872H584.066H578.456L573.166 447.062" stroke="white" stroke-width="1.3" stroke-linecap="round" stroke-linejoin="round"/>
<path d="M514.275 346.392V359.262" stroke="white" stroke-width="1.3" stroke-linecap="round" stroke-linejoin="round"/>
<path d="M555.666 276.802L552.176 335.752" stroke="white" stroke-width="1.3" stroke-linecap="round" stroke-linejoin="round"/>
<path d="M548.947 325.012C548.947 323.487 548.341 322.024 547.263 320.946C546.184 319.868 544.722 319.262 543.197 319.262H538.877C537.352 319.262 535.889 319.868 534.811 320.946C533.733 322.024 533.127 323.487 533.127 325.012C533.127 326.537 533.733 327.999 534.811 329.078C535.889 330.156 537.352 330.762 538.877 330.762H543.197C544.721 330.759 546.182 330.152 547.26 329.075C548.338 327.997 548.944 326.536 548.947 325.012Z" fill="#02B9F6"/>
<path d="M533.127 325.012C533.126 324.256 533.274 323.508 533.562 322.81C533.851 322.112 534.274 321.477 534.808 320.943C535.342 320.409 535.977 319.985 536.675 319.697C537.373 319.408 538.122 319.26 538.877 319.262H500.207C498.682 319.262 497.22 319.868 496.141 320.946C495.063 322.024 494.457 323.487 494.457 325.012C494.457 326.537 495.063 327.999 496.141 329.078C497.22 330.156 498.682 330.762 500.207 330.762H538.877C537.352 330.762 535.89 330.156 534.811 329.078C533.733 327.999 533.127 326.537 533.127 325.012Z" fill="#02B9F6"/>
<path d="M548.947 325.012C548.947 323.487 548.341 322.024 547.263 320.946C546.184 319.868 544.722 319.262 543.197 319.262H538.877C537.352 319.262 535.889 319.868 534.811 320.946C533.733 322.024 533.127 323.487 533.127 325.012C533.127 326.537 533.733 327.999 534.811 329.078C535.889 330.156 537.352 330.762 538.877 330.762H543.197C544.721 330.759 546.182 330.152 547.26 329.075C548.338 327.997 548.944 326.536 548.947 325.012V325.012Z" stroke="white" stroke-width="1.3" stroke-linecap="round" stroke-linejoin="round"/>
<path d="M531.056 330.781L539.346 369.221H527.956L519.656 330.781H531.056Z" fill="black"/>
<path d="M515.547 330.781L523.847 369.221H527.957L519.657 330.781H515.547Z" fill="black"/>
<path d="M531.057 330.781L538.577 365.601" stroke="white" stroke-width="1.3" stroke-linecap="round" stroke-linejoin="round"/>
<path d="M526.887 364.272L520.537 334.892" stroke="white" stroke-width="1.3" stroke-linecap="round" stroke-linejoin="round"/>
<path d="M519.657 330.781H515.547L523.847 369.221" stroke="white" stroke-width="1.3" stroke-linecap="round" stroke-linejoin="round"/>
<path d="M640.947 359.262H653.847V369.272H518.787" stroke="white" stroke-width="1.3" stroke-linecap="round" stroke-linejoin="round"/>
<path d="M529.287 319.281H500.207C498.682 319.281 497.22 319.887 496.141 320.965C495.063 322.044 494.457 323.506 494.457 325.031C494.457 326.556 495.063 328.019 496.141 329.097C497.22 330.175 498.682 330.781 500.207 330.781H538.877" stroke="white" stroke-width="1.3" stroke-linecap="round" stroke-linejoin="round"/>
</svg>
