<svg width="871" height="483" viewBox="0 0 871 483" fill="none" xmlns="http://www.w3.org/2000/svg">
<path d="M173.23 25.5703C171.125 25.5704 169.044 26.0204 167.126 26.8902C165.208 27.7599 163.499 29.0293 162.112 30.6134C160.725 32.1975 159.692 34.0596 159.083 36.0752C158.474 38.0907 158.303 40.2132 158.58 42.3003L164.79 88.8403H184.67L190.88 42.3003C191.158 40.2132 190.987 38.0907 190.378 36.0752C189.769 34.0596 188.736 32.1975 187.349 30.6134C185.962 29.0293 184.252 27.7599 182.335 26.8902C180.417 26.0204 178.336 25.5704 176.23 25.5703H173.23Z" fill="black"/>
<path d="M164.79 88.8403H184.67L190.88 42.3003C191.158 40.2132 190.987 38.0907 190.378 36.0752C189.769 34.0596 188.736 32.1975 187.349 30.6134C185.962 29.0293 184.252 27.7599 182.335 26.8902C180.417 26.0204 178.336 25.5704 176.23 25.5703H173.23C171.125 25.5704 169.044 26.0204 167.126 26.8902C165.208 27.7599 163.499 29.0293 162.112 30.6134C160.725 32.1975 159.692 34.0596 159.083 36.0752C158.474 38.0907 158.303 40.2132 158.58 42.3003" stroke="white" stroke-width="1.3" stroke-linecap="round" stroke-linejoin="round"/>
<path d="M162.229 44.5703C160.176 44.5762 158.148 45.0339 156.291 45.9108C154.434 46.7878 152.793 48.0626 151.484 49.6448C150.174 51.2271 149.229 53.078 148.715 55.0663C148.201 57.0547 148.131 59.1318 148.509 61.1503L153.789 88.8403H170.669L175.999 61.1503C176.378 59.1318 176.308 57.0547 175.794 55.0663C175.28 53.078 174.334 51.2271 173.025 49.6448C171.716 48.0626 170.074 46.7878 168.217 45.9108C166.36 45.0339 164.333 44.5762 162.279 44.5703H162.229Z" fill="black"/>
<path d="M171.79 83.0003L176 61.1503C176.379 59.1318 176.308 57.0547 175.794 55.0663C175.28 53.078 174.335 51.2271 173.026 49.6448C171.717 48.0626 170.075 46.7878 168.218 45.9108C166.361 45.0339 164.334 44.5762 162.28 44.5703V44.5703C160.226 44.5762 158.199 45.0339 156.342 45.9108C154.485 46.7878 152.844 48.0626 151.534 49.6448C150.225 51.2271 149.28 53.078 148.766 55.0663C148.252 57.0547 148.182 59.1318 148.56 61.1503" stroke="white" stroke-width="1.3" stroke-linecap="round" stroke-linejoin="round"/>
<path d="M149.359 65.6001L153.789 88.8401H162.229H170.669" stroke="white" stroke-width="1.3" stroke-linecap="round" stroke-linejoin="round"/>
<path d="M167.97 87.8403H142.23L151.44 125.97H167.97H184.49L193.71 87.8403H167.97Z" fill="#FF57A4"/>
<path d="M167.97 87.8403H142.23L151.44 125.97H167.97H184.49L193.71 87.8403H167.97Z" stroke="black" stroke-width="1.3" stroke-linecap="round" stroke-linejoin="round"/>
<path d="M842.4 307.64H684.79H665.12H527.18L499.24 460.14H509.6L541.47 317.23H652.98H684.79H828.11L859.98 460.14H870.33L842.4 307.64Z" fill="black"/>
<path d="M527.18 307.64L525.08 317.23H541.47H844.16L842.4 307.64H527.18Z" fill="white"/>
<path d="M865.08 431.48L842.4 307.64H684.79H665.12H527.18L519.92 347.24" stroke="white" stroke-width="1.3" stroke-linecap="round" stroke-linejoin="round"/>
<path d="M833.52 341.5L859.979 460.14H870.33L866.56 439.53" stroke="white" stroke-width="1.3" stroke-linecap="round" stroke-linejoin="round"/>
<path d="M511.27 452.66L541.47 317.23H652.98H684.79H828.11L831.83 333.91" stroke="white" stroke-width="1.3" stroke-linecap="round" stroke-linejoin="round"/>
<path d="M518.38 355.66L499.24 460.14H509.6" stroke="white" stroke-width="1.3" stroke-linecap="round" stroke-linejoin="round"/>
<path d="M854.09 276.03H515.5V307.64H854.09V276.03Z" fill="#FF57A4"/>
<path d="M854.09 276.03H515.5V307.64H854.09V276.03Z" stroke="black" stroke-width="1.3" stroke-linecap="round" stroke-linejoin="round"/>
<path d="M747.98 282.18H621.59V301.48H747.98V282.18Z" stroke="black" stroke-width="1.3" stroke-linecap="round" stroke-linejoin="round"/>
<path d="M615.44 282.18H521.65V301.48H615.44V282.18Z" stroke="black" stroke-width="1.3" stroke-linecap="round" stroke-linejoin="round"/>
<path d="M847.931 282.18H754.141V301.48H847.931V282.18Z" stroke="black" stroke-width="1.3" stroke-linecap="round" stroke-linejoin="round"/>
<path d="M747.98 282.18H621.59V301.48H747.98V282.18Z" fill="black"/>
<path d="M615.44 282.18H521.65V301.48H615.44V282.18Z" fill="black"/>
<path d="M847.931 282.18H754.141V301.48H847.931V282.18Z" fill="black"/>
<path d="M558.931 282.18C558.889 283.469 559.107 284.753 559.572 285.956C560.036 287.159 560.738 288.256 561.635 289.182C562.532 290.108 563.606 290.845 564.793 291.348C565.98 291.851 567.256 292.11 568.546 292.11C569.835 292.11 571.111 291.851 572.299 291.348C573.486 290.845 574.56 290.108 575.457 289.182C576.354 288.256 577.055 287.159 577.52 285.956C577.984 284.753 578.202 283.469 578.161 282.18H558.931Z" fill="white"/>
<path d="M791.421 282.18C791.379 283.469 791.597 284.753 792.062 285.956C792.526 287.159 793.228 288.256 794.125 289.182C795.022 290.108 796.096 290.845 797.283 291.348C798.47 291.851 799.747 292.11 801.036 292.11C802.325 292.11 803.602 291.851 804.789 291.348C805.976 290.845 807.05 290.108 807.947 289.182C808.844 288.256 809.546 287.159 810.01 285.956C810.475 284.753 810.693 283.469 810.651 282.18H791.421Z" fill="white"/>
<path d="M675.17 282.18C675.17 284.732 676.183 287.178 677.988 288.983C679.792 290.787 682.239 291.8 684.79 291.8C687.341 291.8 689.788 290.787 691.592 288.983C693.396 287.178 694.41 284.732 694.41 282.18H675.17Z" fill="white"/>
<path d="M558.931 282.18C558.889 283.469 559.107 284.753 559.572 285.956C560.036 287.159 560.738 288.256 561.635 289.182C562.532 290.108 563.606 290.845 564.793 291.348C565.98 291.851 567.256 292.11 568.546 292.11C569.835 292.11 571.111 291.851 572.299 291.348C573.486 290.845 574.56 290.108 575.457 289.182C576.354 288.256 577.055 287.159 577.52 285.956C577.984 284.753 578.202 283.469 578.161 282.18H558.931Z" stroke="white" stroke-width="1.3" stroke-linecap="round" stroke-linejoin="round"/>
<path d="M791.421 282.18C791.379 283.469 791.597 284.753 792.062 285.956C792.526 287.159 793.228 288.256 794.125 289.182C795.022 290.108 796.096 290.845 797.283 291.348C798.47 291.851 799.747 292.11 801.036 292.11C802.325 292.11 803.602 291.851 804.789 291.348C805.976 290.845 807.05 290.108 807.947 289.182C808.844 288.256 809.546 287.159 810.01 285.956C810.475 284.753 810.693 283.469 810.651 282.18H791.421Z" stroke="white" stroke-width="1.3" stroke-linecap="round" stroke-linejoin="round"/>
<path d="M675.17 282.18C675.17 284.732 676.183 287.178 677.988 288.983C679.792 290.787 682.239 291.8 684.79 291.8C687.341 291.8 689.788 290.787 691.592 288.983C693.396 287.178 694.41 284.732 694.41 282.18H675.17Z" stroke="white" stroke-width="1.3" stroke-linecap="round" stroke-linejoin="round"/>
<path d="M379.009 404.94L388.899 440.94H374.319L348.279 404.94H379.009Z" fill="black"/>
<path d="M379.009 404.94L388.899 440.94H374.319L348.279 404.94H379.009Z" stroke="white" stroke-width="1.3" stroke-linecap="round" stroke-linejoin="round"/>
<path d="M13.7301 404.9L3.83008 440.9H18.4101L44.4501 404.9H13.7301Z" fill="black"/>
<path d="M13.7301 404.9L3.83008 440.9H18.4101L44.4501 404.9H13.7301Z" stroke="white" stroke-width="1.3" stroke-linecap="round" stroke-linejoin="round"/>
<path d="M41.5795 404.9L31.6895 440.9H46.2695L72.3094 404.9H41.5795Z" fill="#FF57A4"/>
<path d="M41.5795 404.9L31.6895 440.9H46.2695L72.3094 404.9H41.5795Z" stroke="black" stroke-width="1.3" stroke-linecap="round" stroke-linejoin="round"/>
<path d="M406.871 404.94L416.761 440.94H402.181L376.141 404.94H406.871Z" fill="#FF57A4"/>
<path d="M406.871 404.94L416.761 440.94H402.181L376.141 404.94H406.871Z" stroke="black" stroke-width="1.3" stroke-linecap="round" stroke-linejoin="round"/>
<path d="M416.719 404.9H59.4395V125.97H263.289H270.859H416.719V404.9Z" fill="black"/>
<path d="M59.4401 125.97H3.83008V404.9H59.4401V125.97Z" fill="black"/>
<path d="M59.4401 284.39V125.97H3.83008V399.74" stroke="white" stroke-width="1.3" stroke-linecap="round" stroke-linejoin="round"/>
<path d="M59.4395 400.48V290.91" stroke="white" stroke-width="1.3" stroke-linecap="round" stroke-linejoin="round"/>
<path d="M3.83008 404.9H59.4401" stroke="white" stroke-width="1.3" stroke-linecap="round" stroke-linejoin="round"/>
<path d="M411.409 404.9H59.4395" stroke="white" stroke-width="1.3" stroke-linecap="round" stroke-linejoin="round"/>
<path d="M408.51 125.97H416.72V404.9" stroke="white" stroke-width="1.3" stroke-linecap="round" stroke-linejoin="round"/>
<path d="M270.859 125.97H400.159" stroke="white" stroke-width="1.3" stroke-linecap="round" stroke-linejoin="round"/>
<path d="M59.4395 125.97H265.259" stroke="white" stroke-width="1.3" stroke-linecap="round" stroke-linejoin="round"/>
<path d="M384.9 307.15H406.72" stroke="white" stroke-width="1.3" stroke-linecap="round" stroke-linejoin="round"/>
<path d="M248.52 307.15H377.54" stroke="white" stroke-width="1.3" stroke-linecap="round" stroke-linejoin="round"/>
<path d="M248.52 321.78H406.72" stroke="white" stroke-width="1.3" stroke-linecap="round" stroke-linejoin="round"/>
<path d="M351.891 336.4H406.721" stroke="white" stroke-width="1.3" stroke-linecap="round" stroke-linejoin="round"/>
<path d="M248.52 336.4H344.12" stroke="white" stroke-width="1.3" stroke-linecap="round" stroke-linejoin="round"/>
<path d="M276.51 351.03H406.72" stroke="white" stroke-width="1.3" stroke-linecap="round" stroke-linejoin="round"/>
<path d="M248.52 351.03H270.44" stroke="white" stroke-width="1.3" stroke-linecap="round" stroke-linejoin="round"/>
<path d="M248.52 365.65H406.72" stroke="white" stroke-width="1.3" stroke-linecap="round" stroke-linejoin="round"/>
<path d="M290.029 380.28H406.719" stroke="white" stroke-width="1.3" stroke-linecap="round" stroke-linejoin="round"/>
<path d="M248.52 380.28H280.29" stroke="white" stroke-width="1.3" stroke-linecap="round" stroke-linejoin="round"/>
<path d="M388.9 394.9H406.72" stroke="white" stroke-width="1.3" stroke-linecap="round" stroke-linejoin="round"/>
<path d="M248.52 394.9H381.22" stroke="white" stroke-width="1.3" stroke-linecap="round" stroke-linejoin="round"/>
<path d="M115.191 142.49H90.9609V205.88H115.191V142.49Z" stroke="white" stroke-width="1.3" stroke-linecap="round" stroke-linejoin="round"/>
<path d="M90.9602 142.49H82.7402" stroke="white" stroke-width="1.3" stroke-linecap="round" stroke-linejoin="round"/>
<path d="M99.1604 154.67C98.2558 155.575 97.6929 156.765 97.5676 158.039C97.4423 159.312 97.7624 160.589 98.4733 161.653C99.1841 162.717 100.242 163.501 101.466 163.872C102.691 164.244 104.006 164.179 105.188 163.689C106.37 163.199 107.345 162.315 107.948 161.187C108.551 160.058 108.744 158.756 108.495 157.501C108.245 156.246 107.568 155.117 106.579 154.305C105.59 153.494 104.35 153.05 103.07 153.05" stroke="white" stroke-width="1.3" stroke-linecap="round" stroke-linejoin="round"/>
<path d="M147.64 142.49H123.41V205.88H147.64V142.49Z" stroke="white" stroke-width="1.3" stroke-linecap="round" stroke-linejoin="round"/>
<path d="M123.41 142.49H118.17" stroke="white" stroke-width="1.3" stroke-linecap="round" stroke-linejoin="round"/>
<path d="M139.431 162.49C140.335 161.586 140.898 160.395 141.024 159.122C141.149 157.849 140.829 156.571 140.118 155.508C139.407 154.444 138.349 153.66 137.125 153.288C135.901 152.917 134.585 152.982 133.404 153.471C132.222 153.961 131.246 154.846 130.643 155.974C130.04 157.102 129.847 158.405 130.097 159.66C130.346 160.914 131.023 162.044 132.013 162.855C133.002 163.667 134.241 164.11 135.521 164.11" stroke="white" stroke-width="1.3" stroke-linecap="round" stroke-linejoin="round"/>
<path d="M180.08 142.49H155.85V205.88H180.08V142.49Z" fill="#FF57A4"/>
<path d="M180.08 142.49H155.85V205.88H180.08V142.49Z" stroke="black" stroke-width="1.3" stroke-linecap="round" stroke-linejoin="round"/>
<path d="M165.159 153.81C164.001 154.489 163.129 155.565 162.704 156.838C162.28 158.111 162.332 159.495 162.851 160.733C163.37 161.97 164.321 162.978 165.526 163.567C166.732 164.157 168.111 164.289 169.406 163.938C170.702 163.588 171.826 162.779 172.57 161.662C173.315 160.545 173.628 159.196 173.452 157.865C173.277 156.535 172.624 155.313 171.616 154.428C170.607 153.542 169.311 153.053 167.969 153.05" stroke="black" stroke-width="1.3" stroke-linecap="round" stroke-linejoin="round"/>
<path d="M212.531 148.15V205.88H188.301V142.49H212.531" stroke="white" stroke-width="1.3" stroke-linecap="round" stroke-linejoin="round"/>
<path d="M188.301 142.49H182.811" stroke="white" stroke-width="1.3" stroke-linecap="round" stroke-linejoin="round"/>
<path d="M200.411 164.11C203.465 164.11 205.941 161.634 205.941 158.58C205.941 155.526 203.465 153.05 200.411 153.05C197.357 153.05 194.881 155.526 194.881 158.58C194.881 161.634 197.357 164.11 200.411 164.11Z" stroke="white" stroke-width="1.3" stroke-linecap="round" stroke-linejoin="round"/>
<path d="M212.52 181.65V205.88H275.91V181.65H212.52Z" stroke="white" stroke-width="1.3" stroke-linecap="round" stroke-linejoin="round"/>
<path d="M228.61 199.3C231.664 199.3 234.14 196.824 234.14 193.77C234.14 190.716 231.664 188.24 228.61 188.24C225.556 188.24 223.08 190.716 223.08 193.77C223.08 196.824 225.556 199.3 228.61 199.3Z" stroke="white" stroke-width="1.3" stroke-linecap="round" stroke-linejoin="round"/>
<path d="M229.33 157.43H292.73V181.66H229.33V164.01" stroke="white" stroke-width="1.3" stroke-linecap="round" stroke-linejoin="round"/>
<path d="M245.421 175.07C248.475 175.07 250.951 172.594 250.951 169.54C250.951 166.486 248.475 164.01 245.421 164.01C242.366 164.01 239.891 166.486 239.891 169.54C239.891 172.594 242.366 175.07 245.421 175.07Z" stroke="white" stroke-width="1.3" stroke-linecap="round" stroke-linejoin="round"/>
<path d="M81.2298 223.83H73.2598" stroke="white" stroke-width="1.3" stroke-linecap="round" stroke-linejoin="round"/>
<path d="M135.52 223.83C135.567 225.462 135.286 227.087 134.694 228.609C134.101 230.13 133.21 231.518 132.072 232.689C130.934 233.86 129.573 234.791 128.069 235.426C126.565 236.062 124.948 236.389 123.315 236.389C121.683 236.389 120.066 236.062 118.562 235.426C117.058 234.791 115.697 233.86 114.559 232.689C113.421 231.518 112.53 230.13 111.937 228.609C111.345 227.087 111.064 225.462 111.11 223.83H81.2305V296.48H165.4V223.83H135.52Z" stroke="white" stroke-width="1.3" stroke-linecap="round" stroke-linejoin="round"/>
<path d="M135.519 223.83H115.189" stroke="white" stroke-width="1.3" stroke-linecap="round" stroke-linejoin="round"/>
<path d="M174.289 223.83H168.949" stroke="white" stroke-width="1.3" stroke-linecap="round" stroke-linejoin="round"/>
<path d="M228.001 227.5C227.121 230.278 225.277 232.649 222.802 234.186C220.327 235.723 217.384 236.324 214.504 235.881C211.624 235.438 208.998 233.98 207.099 231.77C205.201 229.56 204.155 226.744 204.151 223.83H174.291V296.48H258.451V223.83H228.581" stroke="white" stroke-width="1.3" stroke-linecap="round" stroke-linejoin="round"/>
<path d="M228.58 223.83H208.25" stroke="white" stroke-width="1.3" stroke-linecap="round" stroke-linejoin="round"/>
<path d="M228.659 306.48H75.3995C72.1078 306.48 69.4395 309.149 69.4395 312.44V388.94C69.4395 392.232 72.1078 394.9 75.3995 394.9H228.659C231.951 394.9 234.619 392.232 234.619 388.94V312.44C234.619 309.149 231.951 306.48 228.659 306.48Z" fill="#FF57A4"/>
<path d="M406.719 135.97H69.4395V205.88H406.719V135.97Z" stroke="white" stroke-width="1.3" stroke-linecap="round" stroke-linejoin="round"/>
<path d="M69.4395 296.49H406.719V215.88H359.149" stroke="white" stroke-width="1.3" stroke-linecap="round" stroke-linejoin="round"/>
<path d="M115.189 215.88H69.4395V290.91" stroke="white" stroke-width="1.3" stroke-linecap="round" stroke-linejoin="round"/>
<path d="M349.461 215.88H123.311" stroke="white" stroke-width="1.3" stroke-linecap="round" stroke-linejoin="round"/>
<path d="M152.38 330.66H151.69C147.344 330.66 143.82 334.184 143.82 338.53V362.86C143.82 367.207 147.344 370.73 151.69 370.73H152.38C156.727 370.73 160.25 367.207 160.25 362.86V338.53C160.25 334.184 156.727 330.66 152.38 330.66Z" fill="black"/>
<path d="M152 370.73H152.35C154.437 370.73 156.439 369.901 157.915 368.425C159.391 366.949 160.22 364.948 160.22 362.86V338.53C160.219 337.001 159.773 335.505 158.937 334.225C158.101 332.945 156.91 331.935 155.51 331.32" stroke="white" stroke-width="1.3" stroke-linecap="round" stroke-linejoin="round"/>
<path d="M152.001 330.66H151.651C150.618 330.66 149.595 330.864 148.641 331.259C147.687 331.655 146.82 332.235 146.09 332.966C145.36 333.697 144.781 334.564 144.386 335.519C143.992 336.474 143.79 337.497 143.791 338.53V362.86C143.791 364.553 144.336 366.201 145.347 367.559C146.358 368.918 147.779 369.914 149.401 370.4" stroke="white" stroke-width="1.3" stroke-linecap="round" stroke-linejoin="round"/>
<path d="M152.029 306.48V394.9" stroke="white" stroke-width="1.3" stroke-linecap="round" stroke-linejoin="round"/>
<path d="M762.56 464.94L736.35 362.3H721.68L728.36 383.07L684.62 395.59L640.87 383.07L647.55 362.3H632.89L606.67 464.94H614.55L630.38 415.69L684.62 400.16L738.85 415.69L754.69 464.94H762.56ZM632 410.65L639.53 387.25L676.63 397.88L632 410.65ZM692.6 397.88L729.71 387.25L737.23 410.65L692.6 397.88Z" fill="white"/>
<path d="M762.56 464.94L736.35 362.3H721.68L728.36 383.07L684.62 395.59L640.87 383.07L647.55 362.3H632.89L606.67 464.94H614.55L630.38 415.69L684.62 400.16L738.85 415.69L754.69 464.94H762.56ZM632 410.65L639.53 387.25L676.63 397.88L632 410.65ZM692.6 397.88L729.71 387.25L737.23 410.65L692.6 397.88Z" stroke="black" stroke-width="1.3" stroke-linecap="round" stroke-linejoin="round"/>
<path d="M749.63 346.86L726.271 255.19C725.727 253.058 724.531 251.15 722.849 249.732C721.167 248.313 719.084 247.456 716.89 247.28C709.21 246.68 696.77 245.88 684.79 245.88C672.81 245.88 660.37 246.68 652.69 247.28C650.497 247.455 648.413 248.311 646.731 249.73C645.049 251.148 643.853 253.058 643.31 255.19L620 346.86C619.277 349.666 619.47 352.63 620.549 355.319C621.628 358.009 623.538 360.283 626 361.81C635.31 367.52 653.441 374.93 684.781 374.93C716.121 374.93 734.25 367.52 743.56 361.81C746.035 360.293 747.96 358.023 749.052 355.333C750.144 352.643 750.347 349.674 749.63 346.86ZM684.79 272.35C677.08 272.35 670.79 268.35 670.79 263.52C670.79 258.69 677.04 254.7 684.79 254.7C692.54 254.7 698.79 258.65 698.79 263.52C698.79 268.39 692.5 272.35 684.79 272.35Z" fill="black"/>
<path d="M697 267.8C694.62 270.51 690 272.35 684.79 272.35C677.08 272.35 670.79 268.35 670.79 263.52C670.79 258.69 677.04 254.7 684.79 254.7C692.54 254.7 698.79 258.65 698.79 263.52M749.63 346.86L726.271 255.19C725.727 253.058 724.531 251.15 722.849 249.732C721.167 248.313 719.084 247.456 716.89 247.28C709.21 246.68 696.77 245.88 684.79 245.88C672.81 245.88 660.37 246.68 652.69 247.28C650.497 247.455 648.413 248.311 646.731 249.73C645.049 251.148 643.853 253.058 643.31 255.19L621.31 341.44L749.63 346.86ZM620 346.86C619.277 349.666 619.47 352.63 620.549 355.319C621.628 358.009 623.538 360.283 626 361.81C635.31 367.52 653.441 374.93 684.781 374.93C716.121 374.93 734.25 367.52 743.56 361.81C746.457 360.036 748.581 357.238 749.51 353.97L620 346.86Z" stroke="white" stroke-width="1.3" stroke-linecap="round" stroke-linejoin="round"/>
<path d="M361.9 465.73C360.46 462.12 358.17 456.83 357.45 453.1C356.73 449.37 358.17 445.28 358.17 442.51C358.17 439.74 355.04 436.44 355.17 429.51C355.3 422.58 352.71 398.02 350.77 384.76C350.77 384.76 350.11 385.19 345.77 388.76C341.43 392.33 339.53 393.56 333.77 393.32C330.4 393.18 326.04 392.63 323 392.19C326.54 403.41 335.56 427.52 338 435.88C340.44 444.24 337.18 442.6 339.8 448.67C342.42 454.74 340.29 455.73 338.65 462.29C337.01 468.85 334.92 471.19 333.12 474.56C331.32 477.93 331.12 480.94 336.37 481.66C341.62 482.38 345.15 481.9 351.37 481.66C357.59 481.42 359.91 479.86 361.83 477.66C363.75 475.46 363.34 469.34 361.9 465.73Z" fill="white"/>
<path d="M352.6 399.12C353.82 408.93 329.09 410 326.73 403.29C326.73 403.29 328.67 408.81 330.89 415.09C333.11 421.37 354.84 419.77 353.78 409.99L352.6 399.12Z" fill="#FF57A4"/>
<path d="M321.88 427.71C321.63 419.71 323.23 401.07 323.01 392.26C320.87 391.96 319.38 391.71 319.38 391.71L318.18 386.43C315.272 388.675 312.033 390.456 308.58 391.71C304.518 391.333 300.513 390.494 296.64 389.21C298.3 403.37 299.56 408.1 302.15 420.56C304.74 433.02 305.6 434.25 304.68 439.43C303.998 444.302 302.015 448.9 298.94 452.74C295.867 457.117 291.515 460.435 286.48 462.24C281.8 463.84 281.8 465.69 283.03 467.79C284.26 469.89 284.88 470.5 287.59 471.98C290.3 473.46 295.73 472.6 301.53 469.15C307.33 465.7 315.09 462.73 321.85 460.51C328.61 458.29 327.8 453.85 324.85 445.1C321.9 436.35 322.12 435.73 321.88 427.71Z" fill="white"/>
<path d="M323.001 394.39C316.491 402.83 298.191 400.7 297.381 395.2C297.381 395.2 298.061 400.59 299.031 405.53C300.001 410.47 317.321 411.58 322.761 403.34L323.001 394.39Z" fill="#FF57A4"/>
<path d="M296.64 389.21C298.3 403.37 299.56 408.1 302.15 420.56C304.74 433.02 305.6 434.25 304.68 439.43C303.998 444.302 302.015 448.9 298.94 452.74C295.867 457.117 291.515 460.436 286.48 462.24C281.8 463.84 281.8 465.69 283.03 467.79C284.26 469.89 284.88 470.5 287.59 471.98C290.3 473.46 295.73 472.6 301.53 469.15C307.33 465.7 315.09 462.73 321.85 460.51C328.61 458.29 327.8 453.85 324.85 445.1C321.9 436.35 322.13 435.73 321.85 427.71C321.57 419.69 323.2 401.07 322.98 392.26" stroke="black" stroke-width="1.3" stroke-linecap="round" stroke-linejoin="round"/>
<path d="M323 392.26C326.54 403.48 335.56 427.59 338 435.95C340.44 444.31 337.18 442.67 339.8 448.74C342.42 454.81 340.29 455.8 338.65 462.36C337.01 468.92 334.92 471.26 333.12 474.63C331.32 478 331.12 481.01 336.37 481.73C341.62 482.45 345.15 481.97 351.37 481.73C357.59 481.49 359.91 479.93 361.83 477.73C363.75 475.53 363.27 469.31 361.83 465.73C360.39 462.15 358.1 456.83 357.38 453.1C356.66 449.37 358.1 445.28 358.1 442.51C358.1 439.74 354.97 436.44 355.1 429.51C355.23 422.58 352.64 398.02 350.7 384.76" stroke="black" stroke-width="1.3" stroke-linecap="round" stroke-linejoin="round"/>
<path d="M344.91 456.33C347.261 455.617 349.77 455.617 352.12 456.33" stroke="black" stroke-width="1.3" stroke-linecap="round" stroke-linejoin="round"/>
<path d="M330.85 406.52C330.85 406.52 339.08 410.11 349.32 404.9" stroke="black" stroke-width="1.3" stroke-linecap="round" stroke-linejoin="round"/>
<path d="M305.51 399.81C305.51 399.81 316.33 402.37 323.01 394.39" stroke="black" stroke-width="1.3" stroke-linecap="round" stroke-linejoin="round"/>
<path d="M285.379 36.1602C285.159 31.7302 285.489 24.9202 291.249 19.4402C291.689 19.0202 292.189 18.6002 292.709 18.1802C291.709 18.9702 288.839 19.3502 286.219 19.5502C284.652 19.662 283.128 20.1081 281.748 20.8585C280.368 21.6088 279.165 22.646 278.219 23.9002C271.789 32.4202 275.219 40.2902 285.879 40.9002H285.999C285.674 39.3379 285.467 37.7535 285.379 36.1602Z" fill="#FF57A4"/>
<path d="M292.709 18.1802C291.709 18.9702 288.839 19.3502 286.219 19.5502C284.652 19.662 283.128 20.1081 281.748 20.8585C280.368 21.6088 279.165 22.646 278.219 23.9002V23.9002C271.789 32.4202 275.219 40.2902 285.879 40.9002H285.999" stroke="black" stroke-width="1.3" stroke-linecap="round" stroke-linejoin="round"/>
<path d="M283.191 192.5C282.041 194.5 280.851 196.64 279.671 198.81C271.525 213.791 268.296 230.954 270.441 247.87C273.467 271.561 277.699 295.081 283.121 318.34C284.723 325.222 285.472 332.275 285.351 339.34L284.581 383.03C284.581 383.03 293.221 390.23 308.581 391.67C312.034 390.416 315.272 388.635 318.181 386.39L319.381 391.67C319.381 391.67 328.021 393.11 333.781 393.35C339.541 393.59 341.461 392.35 345.781 388.79C350.101 385.23 350.781 384.79 350.781 384.79C350.781 384.79 348.631 366.05 344.481 351.86C340.331 337.67 336.481 328.29 338.991 314.77C340.921 304.54 347.741 274.62 352.631 250C356.017 233.356 354.867 216.108 349.301 200.06C347.94 196.002 346.164 192.095 344.001 188.4H285.571L283.191 192.5Z" fill="black"/>
<path d="M352.61 250C355.996 233.356 354.846 216.108 349.28 200.06C347.925 196.003 346.156 192.095 344 188.4H285.57L283.19 192.5C282.04 194.5 280.85 196.64 279.67 198.81C273.586 209.992 270.215 222.447 269.83 235.17" stroke="white" stroke-width="1.3" stroke-linecap="round" stroke-linejoin="round"/>
<path d="M344.46 351.87C340.31 337.67 336.46 328.3 338.97 314.78C340.58 306.23 345.62 283.92 350.08 262.44" stroke="white" stroke-width="1.3" stroke-linecap="round" stroke-linejoin="round"/>
<path d="M284.58 383.07C284.58 383.07 293.22 390.27 308.58 391.71C312.033 390.456 315.271 388.675 318.18 386.43L319.38 391.71C319.38 391.71 328.02 393.15 333.78 393.39C339.54 393.63 341.46 392.39 345.78 388.83C350.1 385.27 350.78 384.83 350.78 384.83C349.693 375.88 348.144 366.991 346.14 358.2" stroke="white" stroke-width="1.3" stroke-linecap="round" stroke-linejoin="round"/>
<path d="M270.439 247.87C273.466 271.56 277.698 295.081 283.119 318.34C284.722 325.222 285.471 332.275 285.349 339.34L284.659 378.26" stroke="white" stroke-width="1.3" stroke-linecap="round" stroke-linejoin="round"/>
<path d="M332.259 21.91C334.031 25.0964 334.89 28.709 334.744 32.3516C334.597 35.9942 333.451 39.5261 331.429 42.56L322.429 56.06C322.429 56.06 323.959 65.06 332.579 73.69C332.579 73.69 325.109 82.31 308.049 86.34C307.638 83.6712 308.094 80.9407 309.349 78.55L302.929 67C299.352 68.149 295.666 68.9265 291.929 69.32C291.355 69.3721 290.78 69.2188 290.308 68.8875C289.836 68.5561 289.496 68.0681 289.349 67.51L288.609 64.73C288.385 64.1832 288.089 63.6687 287.729 63.2C287.029 62.42 287.239 61.08 288.329 61.08C288.783 61.0641 289.234 61.014 289.679 60.93C289.679 60.93 288.219 60.35 287.289 60.03H287.189C286.826 59.8779 286.528 59.6039 286.345 59.2552C286.163 58.9065 286.108 58.505 286.189 58.12C286.271 57.773 286.301 57.4159 286.279 57.06C286.252 56.7851 286.123 56.5303 285.918 56.3453C285.713 56.1604 285.446 56.0587 285.169 56.06H283.319C283.194 56.0595 283.07 56.0281 282.959 55.9685C282.848 55.909 282.753 55.8232 282.683 55.7186C282.613 55.6139 282.57 55.4937 282.557 55.3685C282.544 55.2432 282.562 55.1167 282.609 55C283.509 52.81 285.529 47.82 286.149 45.64C286.959 42.82 285.659 40.7 285.439 36.28C285.219 31.86 285.549 25.04 291.309 19.56C294.259 16.75 298.869 14.14 304.659 11.91C309.694 9.98834 315.252 9.94109 320.319 11.7769C325.386 13.6127 329.624 17.2092 332.259 21.91Z" fill="white"/>
<path d="M332.259 21.9102C329.641 17.1742 325.402 13.5427 320.32 11.6833C315.238 9.82401 309.655 9.86197 304.599 11.7902C298.809 14.0202 294.199 16.6302 291.249 19.4402C290.979 19.7002 290.739 19.9502 290.499 20.2102C283.999 27.3702 292.069 34.3202 301.549 31.6902C301.549 31.6902 301.819 40.0902 311.459 41.5802C311.459 41.5802 312.629 39.8702 314.109 39.8702H315.309C315.536 39.8644 315.762 39.9056 315.972 39.991C316.182 40.0764 316.373 40.2043 316.531 40.3667C316.69 40.5291 316.814 40.7224 316.894 40.9347C316.974 41.1469 317.01 41.3735 316.999 41.6002C316.926 43.8219 316.59 46.0272 315.999 48.1702C315.771 48.9025 315.316 49.5434 314.699 50.0002L314.789 50.3202C314.817 50.4625 314.853 50.6028 314.899 50.7402C314.899 50.8902 314.999 51.0202 315.049 51.1602C315.099 51.3002 315.119 51.3702 315.159 51.4802L315.379 51.9302C315.379 52.0102 315.449 52.0902 315.499 52.1702C315.59 52.3425 315.69 52.5094 315.799 52.6702C315.829 52.7257 315.862 52.7792 315.899 52.8302C316.014 53.0122 316.141 53.186 316.279 53.3502L316.349 53.4402C316.499 53.6202 316.659 53.8002 316.819 53.9602C317 54.1406 317.19 54.3109 317.389 54.4702C318.804 55.6593 320.591 56.314 322.439 56.3202H322.499C323.841 56.3255 325.163 55.993 326.343 55.3534C327.523 54.7138 328.523 53.7876 329.251 52.6601C329.979 51.5326 330.412 50.2401 330.51 48.9015C330.607 47.5629 330.366 46.2213 329.809 45.0002L331.429 42.5802C333.454 39.5441 334.603 36.0085 334.75 32.3619C334.896 28.7153 334.034 25.0989 332.259 21.9102Z" fill="#FF57A4"/>
<path d="M301.551 31.6904C301.551 31.6904 301.821 40.0904 311.461 41.5804C311.461 41.5804 312.631 39.8704 314.111 39.8704H315.311C315.538 39.8647 315.763 39.9058 315.974 39.9912C316.184 40.0766 316.374 40.2045 316.533 40.3669C316.692 40.5293 316.815 40.7226 316.896 40.9349C316.976 41.1471 317.012 41.3737 317.001 41.6004C316.927 43.8221 316.591 46.0274 316.001 48.1704C315.772 48.9028 315.317 49.5436 314.701 50.0004" stroke="black" stroke-width="1.3" stroke-linecap="round" stroke-linejoin="round"/>
<path d="M291.684 47.9702C292.373 47.7326 292.619 46.6342 292.234 45.5168C291.849 44.3994 290.978 43.6862 290.289 43.9238C289.6 44.1614 289.353 45.2598 289.738 46.3772C290.124 47.4945 290.995 48.2077 291.684 47.9702Z" fill="black" stroke="black" stroke-width="1.3" stroke-linecap="round" stroke-linejoin="round"/>
<path d="M296.17 42.0004C296.17 42.0004 293.22 39.4104 287.73 40.0004V38.1704C287.73 38.1704 294.06 38.2704 296.17 42.0004Z" fill="black" stroke="black" stroke-width="1.3" stroke-linecap="round" stroke-linejoin="round"/>
<path d="M345.47 5.85018C338.91 0.630178 330.69 0.0601773 327.11 4.56018C324.86 7.40018 324.99 11.5602 327.03 15.5602C329.15 17.3279 330.924 19.4744 332.26 21.8902C334.031 25.0765 334.891 28.6891 334.744 32.3317C334.598 35.9743 333.451 39.5063 331.43 42.5402L329.81 45.0002C330.248 45.9421 330.492 46.9621 330.53 48.0002C330.689 48.0755 330.853 48.1422 331.02 48.2002C336.75 50.0002 343.47 45.0002 346 37.0002C347.074 33.7762 347.267 30.3239 346.56 27.0002C346.507 26.7856 346.534 26.5589 346.638 26.3634C346.741 26.1679 346.912 26.0172 347.12 25.9402C348.579 25.4875 349.871 24.6101 350.83 23.4202C354.44 18.9402 352 11.0602 345.47 5.85018Z" fill="#FF57A4"/>
<path d="M330.53 48.0002C330.69 48.0755 330.854 48.1422 331.02 48.2002C336.75 50.0002 343.47 45.0002 346 37.0002C347.074 33.7762 347.268 30.3239 346.56 27.0002C346.507 26.7856 346.535 26.5589 346.638 26.3634C346.742 26.1679 346.913 26.0173 347.12 25.9402C348.58 25.4875 349.872 24.6102 350.83 23.4202C354.41 18.9202 352 11.0402 345.44 5.83022C338.88 0.620216 330.66 0.0402169 327.08 4.54022C324.83 7.38022 324.96 11.5402 327 15.5402C329.121 17.308 330.894 19.4544 332.23 21.8702" stroke="black" stroke-width="1.3" stroke-linecap="round" stroke-linejoin="round"/>
<path d="M288.15 110.43C288.15 110.43 290.15 105.85 291.05 103.38C291.95 100.91 290.81 99.6702 288.83 96.3802C286.85 93.0902 284.5 90.6902 285.3 87.6502C286.1 84.6102 284.66 84.1302 285.78 82.3802L286.9 80.6202C286.9 80.6202 284.98 77.6202 283.22 74.1502C281.46 70.6802 281.7 68.2302 281.78 65.1502C281.78 63.9002 281.78 62.9802 281.78 62.3302C281.776 62.1557 281.807 61.9821 281.871 61.8197C281.935 61.6573 282.031 61.5093 282.153 61.3845C282.275 61.2596 282.421 61.1604 282.582 61.0927C282.743 61.025 282.915 60.9902 283.09 60.9902V60.9902C283.411 60.99 283.721 61.1066 283.962 61.3182C284.203 61.5299 284.359 61.8221 284.4 62.1402C284.624 63.7716 284.758 65.4141 284.8 67.0602C284.8 69.4602 285.44 70.1802 287.36 72.9002C289.28 75.6202 290.71 77.7702 290.71 77.7702C290.71 77.7702 292.17 76.6702 293.59 75.6402C295.01 74.6102 296.36 75.0002 298.23 76.4202C299.91 77.7002 301.5 79.3502 304.11 79.9902C304.347 80.0409 304.562 80.1664 304.722 80.3482C304.882 80.5301 304.98 80.7587 305 81.0002V81.0002C305 81.2968 304.886 81.5819 304.681 81.7962C304.476 82.0105 304.196 82.1373 303.9 82.1502C302.636 82.2391 301.368 82.0724 300.17 81.6602C300.17 81.6602 302.35 84.6602 304.98 85.6602C305.247 85.7578 305.479 85.9344 305.643 86.1667C305.807 86.3989 305.897 86.6757 305.9 86.9602C305.9 87.1545 305.859 87.3467 305.779 87.5238C305.699 87.701 305.583 87.8591 305.437 87.9877C305.291 88.1163 305.12 88.2125 304.934 88.2698C304.749 88.3272 304.553 88.3443 304.36 88.3202C303.569 88.2247 302.803 87.984 302.1 87.6102C302.1 87.6102 303.9 90.2502 305.19 92.3102C306.48 94.3702 305 99.3102 303.26 102.99C301.52 106.67 294.32 126 294.32 126C294.32 126 285.9 115.75 288.15 110.43Z" stroke="black" stroke-width="1.3" stroke-linecap="round" stroke-linejoin="round"/>
<path d="M393.11 160.15L374.74 118.71C374.133 117.342 373.657 115.919 373.32 114.46L370.61 102.66C369.839 99.3242 368.1 96.2904 365.61 93.9401C360.87 89.4701 352.47 82.0501 344.5 77.5101C342.736 75.4847 341.378 73.1387 340.5 70.6001C340.106 69.4653 339.408 68.4606 338.483 67.6952C337.557 66.9299 336.439 66.4335 335.25 66.2601C332.288 65.8088 329.296 65.5882 326.3 65.6001C328.039 68.5515 330.146 71.2699 332.57 73.6901C332.57 73.6901 325.1 82.3101 308.04 86.3401C307.629 83.6712 308.085 80.9408 309.34 78.5501L305.52 71.6401C301.26 74.7601 299.85 76.6401 300.17 81.6401C300.17 81.6401 294.17 83.6401 288.17 85.0601C282.17 86.4801 276.62 87.0601 274.17 101.06C271.72 115.06 269.42 124.52 264.67 131.72C259.92 138.92 258.48 142.66 259.92 151.43C260.92 157.61 262.73 162.73 265.56 165.91C266.571 167.004 267.904 167.747 269.366 168.031C270.829 168.316 272.343 168.126 273.69 167.49C277.61 165.69 283.99 161.6 290.86 152.44C290.86 152.44 284.6 169.92 281.04 177.16C277.48 184.4 277.8 190.01 283.2 192.49L285.58 188.39H345.33C346.272 188.39 347.203 188.193 348.064 187.813C348.926 187.433 349.699 186.878 350.334 186.183C350.969 185.487 351.452 184.668 351.753 183.775C352.053 182.883 352.165 181.938 352.08 181L348.85 145.09L352.74 134.18L362.44 158.25C362.997 159.61 363.824 160.843 364.871 161.874C365.917 162.905 367.162 163.714 368.53 164.25L369.16 164.49L368.68 165.66C368.338 166.5 368.25 167.421 368.428 168.311C368.606 169.2 369.041 170.017 369.68 170.66C365.252 178.418 359.878 185.597 353.68 192.03C353.189 192.537 352.805 193.137 352.549 193.795C352.293 194.452 352.171 195.155 352.19 195.86L352.24 197.69C352.24 197.69 346.58 202.23 341.84 204.05C337.1 205.87 335.68 207.88 332.66 211.31C330.902 213.271 328.982 215.081 326.92 216.72C326.678 216.916 326.501 217.179 326.41 217.477C326.319 217.775 326.319 218.093 326.41 218.39C326.471 218.6 326.575 218.796 326.717 218.963C326.858 219.13 327.033 219.265 327.231 219.359C327.428 219.454 327.643 219.505 327.862 219.511C328.081 219.516 328.298 219.475 328.5 219.39C331.578 218.056 334.416 216.225 336.9 213.97L347 228.69C347 228.69 350.83 220.69 352.75 217C354.67 213.31 355.75 212.45 355.75 212.45C356.559 215.705 358.444 218.592 361.1 220.64C361.722 221.124 362.442 221.465 363.21 221.64C363.978 221.815 364.775 221.819 365.544 221.652C366.314 221.485 367.038 221.151 367.664 220.674C368.291 220.197 368.805 219.588 369.17 218.89C372.803 211.968 376.847 205.269 381.28 198.83C385.718 192.21 389.617 185.244 392.94 178C394.241 175.209 394.929 172.172 394.958 169.093C394.988 166.015 394.357 162.965 393.11 160.15Z" fill="white"/>
<path d="M315.56 97.5604C323.51 94.6604 336.49 88.5604 344.51 77.5604C342.746 75.535 341.388 73.189 340.51 70.6504C340.116 69.5156 339.419 68.5108 338.493 67.7455C337.567 66.9802 336.449 66.4838 335.26 66.3104C332.299 65.8591 329.306 65.6385 326.31 65.6504C328.049 68.6018 330.156 71.3202 332.58 73.7404C332.58 73.7404 325.11 82.3604 308.05 86.3904C307.639 83.7215 308.095 80.9911 309.35 78.6004L305.53 71.6904C301.27 74.8104 299.86 76.6904 300.18 81.6904C300.206 85.5993 301.174 89.4443 303 92.9004C304.179 95.0623 306.1 96.7249 308.408 97.5814C310.716 98.4379 313.257 98.4304 315.56 97.5604Z" fill="#FF57A4"/>
<path d="M288.561 109.49C286.381 108.49 285.561 109.33 284.261 113.03C283.106 116.461 281.681 119.794 280.001 123C278.591 125.44 281.581 133.45 287.701 140.13C293.821 146.81 295.561 146.5 298.081 142.73C299.081 141.22 300.311 139.09 301.431 137.07C302.414 135.29 302.895 133.276 302.822 131.244C302.75 129.211 302.127 127.236 301.021 125.53C299.771 123.61 298.291 121.46 296.751 119.53C292.661 114.36 288.561 109.49 288.561 109.49Z" fill="#FF57A4"/>
<path d="M350.54 164L348.84 145.15C326.02 138.15 294.46 147.58 294.46 147.58C294.46 147.58 292.71 149.98 290.85 152.5C290.85 152.5 288.68 158.56 286.17 165.02C323 158.79 350.54 164 350.54 164Z" fill="#FF57A4"/>
<path d="M367.271 199.88C365.751 192.36 361.451 184.98 356.841 188.71C355.841 189.837 354.797 190.954 353.711 192.06C353.22 192.567 352.835 193.167 352.579 193.825C352.324 194.483 352.202 195.185 352.221 195.89L352.271 197.72C353.901 196.57 354.511 196.09 354.511 196.09C356.899 199.982 358.909 204.094 360.511 208.37C358.778 209.518 357.204 210.89 355.831 212.45C356.639 215.706 358.525 218.592 361.181 220.64C361.802 221.124 362.522 221.465 363.29 221.64C364.058 221.815 364.855 221.819 365.625 221.652C366.395 221.485 367.118 221.151 367.745 220.674C368.371 220.197 368.885 219.588 369.251 218.89C369.941 217.57 370.781 216.03 371.731 214.33C373.571 211 368.781 207.39 367.271 199.88Z" fill="#FF57A4"/>
<path d="M305.53 71.6403C301.27 74.7603 299.86 76.6403 300.18 81.6403C300.18 81.6403 294.18 83.6403 288.18 85.0603C282.18 86.4803 276.63 87.0603 274.18 101.06C271.73 115.06 269.43 124.52 264.68 131.72C259.93 138.92 258.49 142.66 259.93 151.43C260.93 157.61 262.74 162.73 265.57 165.91C266.581 167.004 267.914 167.748 269.376 168.032C270.838 168.316 272.353 168.126 273.7 167.49C277.62 165.69 284 161.6 290.87 152.44C290.87 152.44 284.61 169.92 281.05 177.16C277.49 184.4 277.81 190.01 283.21 192.49L285.59 188.39H345.34C346.282 188.39 347.213 188.193 348.074 187.813C348.936 187.433 349.708 186.878 350.343 186.183C350.979 185.488 351.462 184.668 351.762 183.775C352.063 182.883 352.175 181.938 352.09 181L348.86 145.09L352.75 134.18L362.45 158.25C363.007 159.61 363.834 160.843 364.88 161.874C365.927 162.905 367.172 163.714 368.54 164.25L369.17 164.49L368.69 165.66C368.348 166.5 368.26 167.422 368.438 168.311C368.616 169.2 369.051 170.017 369.69 170.66V170.66C365.262 178.418 359.887 185.597 353.69 192.03C353.199 192.537 352.814 193.137 352.559 193.795C352.303 194.453 352.181 195.155 352.2 195.86L352.25 197.69C352.25 197.69 346.59 202.23 341.85 204.05C337.11 205.87 335.69 207.88 332.67 211.31C330.911 213.271 328.991 215.081 326.93 216.72C326.688 216.916 326.51 217.18 326.419 217.477C326.329 217.775 326.329 218.093 326.42 218.39C326.481 218.601 326.585 218.796 326.726 218.963C326.868 219.13 327.043 219.265 327.24 219.36C327.438 219.454 327.653 219.506 327.872 219.511C328.091 219.516 328.308 219.475 328.51 219.39C331.588 218.056 334.426 216.225 336.91 213.97L347 228.69C347 228.69 350.83 220.69 352.75 217C354.67 213.31 355.75 212.45 355.75 212.45C356.559 215.706 358.444 218.592 361.1 220.64C361.722 221.124 362.442 221.465 363.21 221.64C363.977 221.815 364.774 221.819 365.544 221.652C366.314 221.485 367.037 221.151 367.664 220.674C368.29 220.197 368.805 219.588 369.17 218.89C372.803 211.968 376.847 205.269 381.28 198.83C385.718 192.21 389.617 185.245 392.94 178C394.242 175.208 394.931 172.169 394.96 169.089C394.99 166.008 394.359 162.957 393.11 160.14L374.74 118.7C374.133 117.332 373.657 115.909 373.32 114.45L370.61 102.65C369.839 99.3144 368.1 96.2807 365.61 93.9303C360.87 89.4603 352.47 82.0403 344.5 77.5003C342.736 75.475 341.378 73.129 340.5 70.5903C340.106 69.4556 339.408 68.4508 338.482 67.6855C337.557 66.9202 336.439 66.4237 335.25 66.2503C332.288 65.7991 329.296 65.5784 326.3 65.5903" stroke="black" stroke-width="1.3" stroke-linecap="round" stroke-linejoin="round"/>
<path d="M288.15 110.43C288.15 110.43 290.15 105.85 291.05 103.38C291.95 100.91 290.81 99.6702 288.83 96.3802C286.85 93.0902 284.5 90.6902 285.3 87.6502C286.1 84.6102 284.66 84.1302 285.78 82.3802L286.9 80.6202C286.9 80.6202 284.98 77.6202 283.22 74.1502C281.46 70.6802 281.7 68.2302 281.78 65.1502C281.78 63.9002 281.78 62.9802 281.78 62.3302C281.776 62.1557 281.807 61.9821 281.871 61.8197C281.935 61.6573 282.031 61.5093 282.153 61.3845C282.275 61.2596 282.421 61.1604 282.582 61.0927C282.743 61.025 282.915 60.9902 283.09 60.9902C283.411 60.99 283.721 61.1066 283.962 61.3182C284.203 61.5299 284.359 61.8221 284.4 62.1402C284.624 63.7716 284.758 65.4141 284.8 67.0602C284.8 69.4602 285.44 70.1802 287.36 72.9002C289.28 75.6202 290.71 77.7702 290.71 77.7702C290.71 77.7702 292.17 76.6702 293.59 75.6402C295.01 74.6102 296.36 75.0002 298.23 76.4202C299.91 77.7002 301.5 79.3502 304.11 79.9902C304.347 80.0409 304.562 80.1664 304.722 80.3482C304.882 80.5301 304.98 80.7587 305 81.0002C305 81.2968 304.886 81.5819 304.681 81.7962C304.476 82.0105 304.196 82.1373 303.9 82.1502C302.636 82.2391 301.368 82.0724 300.17 81.6602C300.17 81.6602 302.35 84.6602 304.98 85.6602C305.247 85.7578 305.479 85.9344 305.643 86.1667C305.807 86.3989 305.897 86.6757 305.9 86.9602C305.9 87.1545 305.859 87.3467 305.779 87.5238C305.699 87.701 305.583 87.8591 305.437 87.9877C305.291 88.1163 305.12 88.2125 304.934 88.2698C304.749 88.3272 304.553 88.3443 304.36 88.3202C303.569 88.2247 302.803 87.984 302.1 87.6102C302.1 87.6102 303.9 90.2502 305.19 92.3102C306.48 94.3702 305 99.3102 303.26 102.99C301.52 106.67 294.32 126 294.32 126C294.32 126 285.9 115.75 288.15 110.43Z" fill="white"/>
<path d="M303.27 103.05C301.53 106.72 294.32 125.97 294.32 125.97C294.32 125.97 285.9 115.75 288.15 110.43C288.15 110.43 289.15 108.16 290.06 105.96" stroke="black" stroke-width="1.3" stroke-linecap="round" stroke-linejoin="round"/>
<path d="M291.05 103.38C291.92 100.91 290.81 99.6702 288.83 96.3802C286.85 93.0902 284.5 90.6902 285.3 87.6502C286.1 84.6102 284.66 84.1302 285.78 82.3802L286.9 80.6202C286.9 80.6202 284.98 77.6202 283.22 74.1502C281.46 70.6802 281.7 68.2302 281.78 65.1502C281.78 63.9002 281.78 62.9802 281.78 62.3302C281.776 62.1557 281.807 61.9821 281.871 61.8197C281.935 61.6573 282.031 61.5093 282.153 61.3845C282.275 61.2596 282.421 61.1604 282.582 61.0927C282.743 61.025 282.915 60.9902 283.09 60.9902V60.9902C283.411 60.99 283.721 61.1066 283.962 61.3182C284.203 61.5299 284.359 61.8221 284.4 62.1402C284.624 63.7716 284.758 65.4141 284.8 67.0602C284.8 69.4602 285.44 70.1802 287.36 72.9002C289.28 75.6202 290.71 77.7702 290.71 77.7702C290.71 77.7702 292.17 76.6702 293.59 75.6402C295.01 74.6102 296.36 75.0002 298.23 76.4202C299.91 77.7002 301.5 79.3502 304.11 79.9902C304.347 80.0409 304.562 80.1664 304.722 80.3482C304.882 80.5301 304.98 80.7587 305 81.0002V81.0002C305 81.2968 304.886 81.5819 304.681 81.7962C304.476 82.0105 304.196 82.1373 303.9 82.1502C302.636 82.2391 301.368 82.0724 300.17 81.6602C300.17 81.6602 302.35 84.6602 304.98 85.6602C305.247 85.7578 305.479 85.9344 305.643 86.1667C305.807 86.3989 305.897 86.6757 305.9 86.9602C305.9 87.1545 305.859 87.3467 305.779 87.5238C305.699 87.701 305.583 87.8591 305.437 87.9877C305.291 88.1163 305.12 88.2125 304.934 88.2698C304.749 88.3272 304.553 88.3443 304.36 88.3202C303.569 88.2247 302.803 87.984 302.1 87.6102C302.1 87.6102 303.9 90.2502 305.19 92.3102C306.19 93.9402 305.49 97.4102 304.28 100.6" stroke="black" stroke-width="1.3" stroke-linecap="round" stroke-linejoin="round"/>
<path d="M290.731 77.6904L288.471 79.4504" stroke="black" stroke-width="1.3" stroke-linecap="round" stroke-linejoin="round"/>
<path d="M300.18 81.6802C298.48 79.7702 297.18 77.1402 294.23 78.5702" stroke="black" stroke-width="1.3" stroke-linecap="round" stroke-linejoin="round"/>
<path d="M293.11 83.5503C294.611 83.7619 296.093 84.0964 297.54 84.5503C298.63 85.0103 299.14 87.7203 301.3 90.0603C301.502 90.2874 301.614 90.5811 301.614 90.8853C301.614 91.1895 301.502 91.4832 301.3 91.7103V91.7103C301.087 91.9583 300.785 92.1121 300.459 92.1383C300.133 92.1646 299.81 92.061 299.56 91.8503C298.9 91.2903 298 90.4903 297.17 89.6903C295.64 88.1903 295.22 87.6903 293.59 87.6903H289.59" stroke="black" stroke-width="1.3" stroke-linecap="round" stroke-linejoin="round"/>
<path d="M302.11 87.6704C301.592 87.4434 301.087 87.1863 300.6 86.9004" stroke="black" stroke-width="1.3" stroke-linecap="round" stroke-linejoin="round"/>
<path d="M294.32 126C297.09 129.59 298.93 130.65 298.93 130.65" stroke="black" stroke-width="1.3" stroke-linecap="round" stroke-linejoin="round"/>
<path d="M263.291 138.84C263.291 138.84 266.561 139.05 269.621 135.67C272.681 132.29 275.381 128.53 278.441 125.36" stroke="black" stroke-width="1.3" stroke-linecap="round" stroke-linejoin="round"/>
<path d="M290.85 152.45C293.69 148.59 296.85 144.76 298.09 142.73" stroke="black" stroke-width="1.3" stroke-linecap="round" stroke-linejoin="round"/>
<path d="M309.939 136.55C309.939 136.55 321.409 129.37 329.139 129.37" stroke="black" stroke-width="1.3" stroke-linecap="round" stroke-linejoin="round"/>
<path d="M315.561 97.5604C321.511 95.2771 327.208 92.3815 332.561 88.9204" stroke="black" stroke-width="1.3" stroke-linecap="round" stroke-linejoin="round"/>
<path d="M352.731 134.19C349.281 125.66 345.541 116.26 345.541 116.26" stroke="black" stroke-width="1.3" stroke-linecap="round" stroke-linejoin="round"/>
<path d="M369.15 164.53C371.01 160.37 376.38 156.92 376.38 156.92" stroke="black" stroke-width="1.3" stroke-linecap="round" stroke-linejoin="round"/>
<path d="M370.57 169.41C370.57 169.41 372.63 165.96 375.86 164.97" stroke="black" stroke-width="1.3" stroke-linecap="round" stroke-linejoin="round"/>
<path d="M352.26 197.72L354.5 196.09C354.5 196.09 360.29 205.18 362.17 214.32" stroke="black" stroke-width="1.3" stroke-linecap="round" stroke-linejoin="round"/>
<path d="M355.791 212.45C356.828 211.318 357.952 210.268 359.151 209.31" stroke="black" stroke-width="1.3" stroke-linecap="round" stroke-linejoin="round"/>
<path d="M309.349 78.5504L302.929 67.0004C299.352 68.1494 295.666 68.9268 291.929 69.3204C291.355 69.3724 290.78 69.2192 290.308 68.8878C289.836 68.5564 289.496 68.0684 289.349 67.5104L288.609 64.7304C288.385 64.1836 288.089 63.669 287.729 63.2004C287.029 62.4204 287.239 61.0804 288.329 61.0804C288.783 61.0645 289.234 61.0143 289.679 60.9304C289.679 60.9304 288.219 60.3504 287.289 60.0304H287.189C286.826 59.8783 286.528 59.6042 286.345 59.2556C286.163 58.9069 286.108 58.5054 286.189 58.1204C286.271 57.7733 286.301 57.4162 286.279 57.0604C286.252 56.7855 286.123 56.5306 285.918 56.3457C285.713 56.1608 285.446 56.059 285.169 56.0604H283.319C283.194 56.0598 283.07 56.0284 282.959 55.9689C282.848 55.9094 282.753 55.8235 282.683 55.7189C282.613 55.6143 282.57 55.4941 282.557 55.3688C282.544 55.2435 282.562 55.117 282.609 55.0004C283.509 52.8104 285.529 47.8204 286.149 45.6404C286.959 42.8204 285.659 40.7004 285.439 36.2804C285.234 33.3745 285.531 30.4549 286.319 27.6504" stroke="black" stroke-width="1.3" stroke-linecap="round" stroke-linejoin="round"/>
<path d="M332.581 73.6904C332.581 73.6904 325.111 82.3104 308.051 86.3404C307.755 84.4677 307.892 82.5521 308.451 80.7404" stroke="black" stroke-width="1.3" stroke-linecap="round" stroke-linejoin="round"/>
<path d="M322.48 56.3203C322.48 56.3203 323.65 63.3203 330.09 70.9603" stroke="black" stroke-width="1.3" stroke-linecap="round" stroke-linejoin="round"/>
<path d="M302.93 67.0005C307.13 65.6705 311.04 63.6804 311.04 60.2104" stroke="black" stroke-width="1.3" stroke-linecap="round" stroke-linejoin="round"/>
<path d="M309.35 78.5503C310.68 80.7603 311.45 81.9003 311.45 81.9003" stroke="black" stroke-width="1.3" stroke-linecap="round" stroke-linejoin="round"/>
<path d="M332.58 73.6904C333.546 72.6603 334.288 71.4414 334.76 70.1104" stroke="black" stroke-width="1.3" stroke-linecap="round" stroke-linejoin="round"/>
<path d="M332.261 21.9102C329.643 17.1742 325.403 13.5427 320.321 11.6833C315.239 9.82401 309.657 9.86197 304.601 11.7902C298.811 14.0202 294.201 16.6302 291.251 19.4402C290.981 19.7002 290.741 19.9502 290.501 20.2102C287.301 23.7402 287.631 27.2102 289.931 29.5202" stroke="black" stroke-width="1.3" stroke-linecap="round" stroke-linejoin="round"/>
<path d="M317.43 54.47C318.844 55.6591 320.632 56.3138 322.48 56.32H322.54C323.878 56.3186 325.195 55.9812 326.37 55.3388C327.545 54.6964 328.539 53.7695 329.262 52.6431C329.986 51.5166 330.415 50.2266 330.511 48.8913C330.606 47.556 330.365 46.218 329.81 45" stroke="black" stroke-width="1.3" stroke-linecap="round" stroke-linejoin="round"/>
<path d="M318.18 386.43C314.81 372.48 310.18 347.92 310.18 347.92" stroke="white" stroke-width="1.3" stroke-linecap="round" stroke-linejoin="round"/>
<path d="M295.82 223.83C295.82 223.83 300.73 227.05 303.57 228.69C306.41 230.33 308.38 230.53 312.15 228.69C315.92 226.85 320.15 224.63 320.15 224.63" stroke="white" stroke-width="1.3" stroke-linecap="round" stroke-linejoin="round"/>
<path d="M308 327.51C308 327.51 307 325.51 306.23 311.07C305.46 296.63 307.11 229.99 307.11 229.99" stroke="white" stroke-width="1.3" stroke-linecap="round" stroke-linejoin="round"/>
<path d="M84.411 51.2701C83.6563 49.3388 82.7709 47.4611 81.761 45.6501C82.4487 42.1849 82.5501 38.6289 82.061 35.1301C82.034 34.9112 81.9517 34.7027 81.8219 34.5243C81.6921 34.3459 81.519 34.2035 81.3189 34.1105C81.1189 34.0174 80.8984 33.9769 80.6784 33.9925C80.4583 34.0082 80.2458 34.0797 80.061 34.2001C77.2123 35.988 74.8164 38.4113 73.061 41.2801C71.3578 40.8403 69.6096 40.5987 67.851 40.5601C66.0957 40.5992 64.3508 40.8408 62.651 41.2801C60.8919 38.4142 58.4967 35.9917 55.651 34.2001C55.4662 34.0797 55.2537 34.0082 55.0336 33.9925C54.8136 33.9769 54.5931 34.0174 54.3931 34.1105C54.193 34.2035 54.0199 34.3459 53.8901 34.5243C53.7603 34.7027 53.678 34.9112 53.651 35.1301C53.1785 38.6317 53.2968 42.1877 54.001 45.6501C52.9959 47.4636 52.1106 49.3409 51.351 51.2701C50.913 52.4037 50.7351 53.6211 50.8302 54.8326C50.9254 56.0442 51.2914 57.2189 51.901 58.2701C52.2969 58.9717 52.7484 59.6405 53.251 60.2701L49.711 69.3801C47.7262 74.4989 44.1509 78.8454 39.511 81.7801L38.511 82.4301C33.9672 85.2888 30.205 89.2316 27.5623 93.9043C24.9196 98.5769 23.4794 103.833 23.371 109.2L23.301 112.34C23.2931 113.314 22.9008 114.244 22.2097 114.93C21.5185 115.616 20.5845 116 19.611 116H18.611C15.7966 115.999 13.0204 116.652 10.5009 117.906C7.98135 119.16 5.78715 120.981 4.09093 123.227C2.39472 125.473 1.24275 128.082 0.725668 130.848C0.208583 133.615 0.340485 136.463 1.111 139.17L2.191 142.95C2.57002 144.383 3.3939 145.658 4.54402 146.593C5.69414 147.527 7.11114 148.072 8.591 148.15C9.6273 148.184 10.6576 147.98 11.6031 147.555C12.5487 147.129 13.3844 146.493 14.0463 145.695C14.7083 144.897 15.179 143.958 15.4225 142.95C15.6659 141.943 15.6757 140.892 15.451 139.88L14.541 135.76C14.2815 134.601 14.2861 133.398 14.5545 132.241C14.8229 131.083 15.3482 130.001 16.0915 129.075C16.8348 128.148 17.7771 127.4 18.8485 126.887C19.9199 126.374 21.093 126.108 22.281 126.11H74.361C74.6698 126.112 74.9754 126.048 75.2582 125.924C75.541 125.8 75.7947 125.618 76.0029 125.39C76.2111 125.162 76.3693 124.893 76.4671 124.6C76.5649 124.308 76.6003 123.997 76.571 123.69C76.45 122.339 75.9229 121.056 75.059 120.01C74.1952 118.964 73.035 118.204 71.731 117.83L71.161 117.67L74.541 90.4501C79.1533 85.2161 81.6927 78.4763 81.681 71.5001V61.2301C82.5166 60.3371 83.2511 59.3544 83.871 58.3001C84.4836 57.2443 84.8503 56.0639 84.9438 54.8468C85.0373 53.6297 84.8552 52.4071 84.411 51.2701Z" fill="white"/>
<path d="M51.8594 58.3003C52.7817 59.8813 53.9612 61.2974 55.3494 62.4903" stroke="black" stroke-width="1.3" stroke-linecap="round" stroke-linejoin="round"/>
<path d="M60.4004 65.39C62.7988 66.219 65.323 66.6251 67.8604 66.59C70.4914 66.6308 73.1078 66.1902 75.5804 65.29" stroke="black" stroke-width="1.3" stroke-linecap="round" stroke-linejoin="round"/>
<path d="M61.3707 54.5803C62.6962 54.5803 63.7707 53.5058 63.7707 52.1803C63.7707 50.8548 62.6962 49.7803 61.3707 49.7803C60.0452 49.7803 58.9707 50.8548 58.9707 52.1803C58.9707 53.5058 60.0452 54.5803 61.3707 54.5803Z" fill="black" stroke="black" stroke-width="1.3" stroke-linecap="round" stroke-linejoin="round"/>
<path d="M75.1402 54.5803C76.4657 54.5803 77.5402 53.5058 77.5402 52.1803C77.5402 50.8548 76.4657 49.7803 75.1402 49.7803C73.8148 49.7803 72.7402 50.8548 72.7402 52.1803C72.7402 53.5058 73.8148 54.5803 75.1402 54.5803Z" fill="black" stroke="black" stroke-width="1.3" stroke-linecap="round" stroke-linejoin="round"/>
<path d="M69.8009 57.4104C69.8869 57.3386 69.9519 57.2448 69.9888 57.139C70.0258 57.0332 70.0334 56.9194 70.0108 56.8096C69.9883 56.6998 69.9364 56.5982 69.8607 56.5156C69.785 56.433 69.6883 56.3724 69.5809 56.3404C69.1534 56.2068 68.7088 56.136 68.2609 56.1304C67.8098 56.136 67.3618 56.2068 66.9309 56.3404C66.8235 56.3724 66.7269 56.433 66.6512 56.5156C66.5755 56.5982 66.5236 56.6998 66.501 56.8096C66.4784 56.9194 66.486 57.0332 66.523 57.139C66.5599 57.2448 66.6249 57.3386 66.7109 57.4104L68.2609 58.7404L69.8009 57.4104Z" fill="#FF57A4"/>
<path d="M69.8009 57.4104C69.8869 57.3386 69.9519 57.2448 69.9888 57.139C70.0258 57.0332 70.0334 56.9194 70.0108 56.8096C69.9883 56.6998 69.9364 56.5982 69.8607 56.5156C69.785 56.433 69.6883 56.3724 69.5809 56.3404C69.1534 56.2068 68.7088 56.136 68.2609 56.1304V56.1304C67.8098 56.136 67.3618 56.2068 66.9309 56.3404C66.8235 56.3724 66.7269 56.433 66.6512 56.5156C66.5755 56.5982 66.5236 56.6998 66.501 56.8096C66.4784 56.9194 66.486 57.0332 66.523 57.139C66.5599 57.2448 66.6249 57.3386 66.7109 57.4104L68.2609 58.7404L69.8009 57.4104Z" stroke="#FF57A4" stroke-width="1.3" stroke-linecap="round" stroke-linejoin="round"/>
<path d="M71.1602 117.63L74.5402 90.4103C79.1433 85.1866 81.6821 78.4627 81.6802 71.5003V61.2303C82.5158 60.3372 83.2503 59.3546 83.8702 58.3003C84.4782 57.2482 84.8423 56.0732 84.9358 54.8617C85.0293 53.6502 84.8496 52.4331 84.4102 51.3003C83.6554 49.369 82.77 47.4913 81.7602 45.6803C82.4481 42.2151 82.5495 38.659 82.0602 35.1603C82.0306 34.9426 81.9469 34.7359 81.8165 34.5591C81.6862 34.3823 81.5136 34.2411 81.3144 34.1485C81.1152 34.0559 80.896 34.0149 80.6768 34.0291C80.4577 34.0434 80.2456 34.1126 80.0602 34.2303C78.3857 35.2874 76.8533 36.5544 75.5002 38.0003C74.9364 38.6342 74.412 39.3021 73.9302 40.0003L73.0702 41.2303C74.6974 41.7272 76.2664 42.3977 77.7502 43.2303" stroke="black" stroke-width="1.3" stroke-linecap="round" stroke-linejoin="round"/>
<path d="M71.1601 117.63L71.7301 117.79C73.0341 118.164 74.1943 118.924 75.0582 119.97C75.922 121.016 76.4491 122.299 76.5701 123.65V123.65C76.5995 123.957 76.5641 124.268 76.4662 124.56C76.3684 124.853 76.2103 125.122 76.002 125.35C75.7938 125.578 75.5401 125.76 75.2573 125.884C74.9745 126.008 74.6689 126.072 74.3601 126.07H22.2501C21.0622 126.068 19.889 126.334 18.8176 126.847C17.7462 127.36 16.8039 128.108 16.0606 129.035C15.3173 129.961 14.7921 131.043 14.5237 132.201C14.2553 133.358 14.2506 134.561 14.5101 135.72L15.4201 139.84C15.6448 140.852 15.6351 141.903 15.3916 142.91C15.1482 143.918 14.6774 144.857 14.0155 145.655C13.3535 146.453 12.5178 147.089 11.5723 147.515C10.6267 147.94 9.59643 148.144 8.56013 148.11C7.08028 148.032 5.66327 147.487 4.51315 146.553C3.36303 145.618 2.53915 144.343 2.16013 142.91L1.08013 139.13C0.31702 136.426 0.190799 133.581 0.711366 130.82C1.23193 128.059 2.38513 125.456 4.08052 123.215C5.77591 120.974 7.96738 119.157 10.4831 117.905C12.9987 116.653 15.7702 116.001 18.5801 116H19.5801C20.5468 116 21.4749 115.621 22.1649 114.944C22.8549 114.267 23.2518 113.347 23.2701 112.38L23.3401 109.24C23.4387 103.869 24.8712 98.6066 27.5089 93.9266C30.1465 89.2467 33.9064 85.296 38.4501 82.4301L39.4501 81.7801C44.09 78.8454 47.6654 74.4989 49.6501 69.3801L53.1901 60.2701C52.6875 59.6405 52.2361 58.9717 51.8401 58.2701C51.2305 57.2189 50.8646 56.0442 50.7694 54.8326C50.6742 53.6211 50.8522 52.4037 51.2901 51.2701C52.0692 49.3394 52.9745 47.462 54.0001 45.6501C53.3159 42.1843 53.2179 38.6283 53.7101 35.1301C53.7371 34.9112 53.8194 34.7027 53.9492 34.5243C54.0791 34.3459 54.2522 34.2035 54.4522 34.1105C54.6523 34.0174 54.8727 33.9769 55.0928 33.9925C55.3128 34.0082 55.5253 34.0797 55.7101 34.2001C58.5559 35.9917 60.951 38.4142 62.7101 41.2801C64.41 40.8408 66.1549 40.5992 67.9101 40.5601C69.6687 40.5987 71.417 40.8403 73.1201 41.2801" stroke="black" stroke-width="1.3" stroke-linecap="round" stroke-linejoin="round"/>
<path d="M71.1599 117.63L66.2999 116.63C65.9324 116.557 65.5908 116.388 65.3099 116.14C65.0291 115.892 64.819 115.574 64.7011 115.218C64.5832 114.862 64.5617 114.482 64.6388 114.115C64.7159 113.748 64.8888 113.408 65.1399 113.13L66.1399 112.04C68.034 109.95 69.3002 107.368 69.7933 104.59C70.2863 101.813 69.9863 98.9529 68.9275 96.3383C67.8687 93.7237 66.0941 91.4607 63.8075 89.809C61.5208 88.1572 58.8148 87.1837 55.9999 87.0003C52.2774 86.7793 48.5427 87.1164 44.9199 88.0003" stroke="black" stroke-width="1.3" stroke-linecap="round" stroke-linejoin="round"/>
<path d="M40.6008 126.07C34.6008 126.07 35.2108 120.93 35.2108 120.93" stroke="black" stroke-width="1.3" stroke-linecap="round" stroke-linejoin="round"/>
</svg>
