<svg width="78" height="225" viewBox="0 0 78 225" fill="none" xmlns="http://www.w3.org/2000/svg">
<path d="M1.08829e-05 -0.000267854L1.28373e-05 22.3557C28.566 22.3557 28.773 34.7757 28.773 70.1727L28.773 86.9397C28.773 97.9107 29.601 110.331 45.333 113.85L45.333 114.885C29.187 118.611 28.98 130.203 28.98 144.693L28.98 167.049C28.98 196.443 28.566 202.239 2.85632e-05 202.239L3.05176e-05 224.595C44.919 224.595 59.202 215.901 59.202 181.332L59.202 152.559C59.202 137.862 61.893 130.203 77.832 126.891L77.832 101.844C61.686 100.395 58.995 86.9397 58.995 78.8667L58.995 53.8197C58.995 10.1427 44.712 -0.000271763 1.08829e-05 -0.000267854Z" fill="#00B5EF"/>
</svg>
