<svg width="1440" height="161" viewBox="0 0 1440 161" fill="none" xmlns="http://www.w3.org/2000/svg">
<path d="M1440 32.0009L1392 48.0009C1344 64.0009 1248 96.0009 1152 122.701C1056 149.001 960 171.001 864 154.701C768 139.001 672 85.001 576 69.301C480 53.001 384 75.001 288 69.301C192 64.001 96 32.001 48 16.001L-1.40128e-05 0.00102616L48 0.00102196C96 0.00101776 192 0.00100937 288 0.00100098C384 0.000992587 480 0.000984194 576 0.000975802C672 0.000967409 768 0.000959017 864 0.000950624C960 0.000942231 1056 0.000933839 1152 0.000925446C1248 0.000917054 1344 0.000908661 1392 0.000904465L1440 0.000900269L1440 32.0009Z" fill="white"/>
</svg>
