<svg width="78" height="225" viewBox="0 0 78 225" fill="none" xmlns="http://www.w3.org/2000/svg">
<path d="M77.832 224.595V202.239C49.266 202.239 49.059 189.819 49.059 154.422V137.655C49.059 126.684 48.231 114.264 32.499 110.745V109.71C48.645 105.984 48.852 94.392 48.852 79.902V57.546C48.852 28.152 49.266 22.356 77.832 22.356V0C32.913 0 18.63 8.694 18.63 43.263V72.036C18.63 86.733 15.939 94.392 0 97.704V122.751C16.146 124.2 18.837 137.655 18.837 145.728V170.775C18.837 214.452 33.12 224.595 77.832 224.595Z" fill="#00B5EF"/>
</svg>
