
<svg width="58" height="4" viewBox="0 0 58 4" fill="none" xmlns="http://www.w3.org/2000/svg">
<g clip-path="url(#clip0_1870_173551)">
<path d="M-3 2C-0.16 0.666667 2.20667 0.666667 4.1 2C5.99333 3.33333 8.36 3.33333 11.2 2C14.04 0.666667 16.4067 0.666667 18.3 2C20.1933 3.33333 22.56 3.33333 25.4 2C28.24 0.666667 30.6067 0.666667 32.5 2C34.3933 3.33333 36.76 3.33333 39.6 2C42.44 0.666667 44.8067 0.666667 46.7 2C48.5933 3.33333 50.96 3.33333 53.8 2C56.64 0.666667 59.0067 0.666667 60.9 2C62.7933 3.33333 65.16 3.33333 68 2" stroke="#FF59A3" stroke-width="1.3"/>
</g>
<defs>
<clipPath id="clip0_1870_173551">
<rect width="58" height="4" fill="white"/>
</clipPath>
</defs>
</svg>
