<svg width="76" height="73" viewBox="0 0 76 73" fill="none" xmlns="http://www.w3.org/2000/svg">
<g clip-path="url(#clip0_1701_113511)">
<path d="M52.7048 25.8457L51.9241 32.1641C46.6644 33.1548 41.3225 33.6468 35.9699 33.6335L34.1727 29.2253L33.6129 33.6335C28.117 33.5788 22.6343 33.0874 17.2168 32.1641C16.9556 34.5226 16.9556 36.9027 17.2168 39.2612C17.7029 41.7886 16.3329 44.6979 17.2168 49.8555C17.6292 52.28 18.3658 55.3804 19.0435 57.9518C20.06 61.9079 22.3342 65.429 25.5253 67.9877C26.585 68.8486 27.6969 69.6436 28.8546 70.3682C31.0014 71.7195 33.4701 72.4766 36.0071 72.5618C38.5442 72.647 41.0584 72.0573 43.2914 70.8531C46.3327 69.2045 49.0602 67.0361 51.3495 64.4465C54.4558 60.8964 56.1165 56.3147 56.0047 51.6041C55.8721 44.4775 55.2534 32.4579 52.7048 25.8457Z" fill="white"/>
<path d="M51.3495 64.5494C54.4558 60.9993 56.1165 56.4176 56.0047 51.7069C55.8721 44.4775 55.2534 32.4286 52.7048 25.8457L51.9241 32.1641C46.6644 33.1548 41.3225 33.6468 35.9699 33.6335L34.1727 29.2253L33.6129 33.6335C28.117 33.5788 22.6343 33.0874 17.2168 32.1641C16.9556 34.5226 16.9556 36.9027 17.2168 39.2612C17.7029 41.7886 16.3329 44.6979 17.2168 49.8555C17.6292 52.28 18.3658 55.3804 19.0435 57.9518C20.06 61.9079 22.3342 65.429 25.5253 67.9877C26.585 68.8486 27.6969 69.6436 28.8546 70.3682C31.0014 71.7195 33.4701 72.4766 36.0071 72.5618C38.5442 72.647 41.0584 72.0573 43.2914 70.8531C45.4624 69.6732 47.4766 68.2269 49.2871 66.5477" stroke="black" stroke-width="1.56522" stroke-linecap="round" stroke-linejoin="round"/>
<path d="M13.328 57.9511L11.6928 64.1666C17.5854 69.5298 19.7951 71.8515 19.7951 71.8515V60.3756C19.4936 59.6276 19.2378 58.8621 19.0291 58.0833C18.3515 55.5119 17.556 52.4115 17.2024 49.987C16.3185 44.8294 17.6885 41.92 17.2024 39.3927C16.9413 37.0342 16.9413 34.6541 17.2024 32.2956C22.62 33.2189 28.1027 33.7103 33.5985 33.7649L34.1583 29.3568L35.9556 33.7649C41.3082 33.7783 46.65 33.2863 51.9097 32.2956L52.6905 25.9772C55.239 32.5601 55.8578 44.609 55.9903 51.8384V71.8515C64.8292 65.9005 67.0242 60.5666 70.2651 54.9535L67.3188 48.8996C68.6884 50.1867 70.1562 51.3658 71.7088 52.4262C74.0658 47.7535 73.1819 46.1519 73.1819 46.1519C63.4445 40.1421 64.7997 24.8898 63.5328 17.9396C63.1899 16.0231 62.4493 14.1992 61.3585 12.5848C60.2676 10.9704 58.8506 9.60122 57.1983 8.56495C39.992 -2.02933 25.5993 3.06944 17.5854 7.94781C15.5512 9.20236 13.8235 10.8943 12.5288 12.9001C11.2341 14.9059 10.4049 17.1749 10.1018 19.5413C7.02297 42.4931 1.73438 50.7805 1.73438 50.7805C3.70495 54.9482 6.34749 58.7654 9.55678 62.08C11.0169 60.9029 12.2886 59.5105 13.328 57.9511V57.9511Z" fill="black"/>
<path d="M13.328 57.9511L11.6928 64.1666C17.5854 69.5298 19.7951 71.8515 19.7951 71.8515V60.3756C19.4936 59.6276 19.2378 58.8621 19.0291 58.0833C18.3515 55.5119 17.556 52.4115 17.2024 49.987C16.3185 44.8294 17.6885 41.92 17.2024 39.3927C16.9413 37.0342 16.9413 34.6541 17.2024 32.2956C22.62 33.2189 28.1027 33.7103 33.5985 33.7649L34.1583 29.3568L35.9556 33.7649C41.3082 33.7783 46.65 33.2863 51.9097 32.2956L52.6905 25.9772C55.239 32.5601 55.8578 44.609 55.9903 51.8384V71.8515C64.8292 65.9005 67.0242 60.5666 70.2651 54.9535L67.3188 48.8996C68.6884 50.1867 70.1562 51.3658 71.7088 52.4262C74.0658 47.7535 73.1819 46.1519 73.1819 46.1519C63.4445 40.1421 64.7997 24.8898 63.5328 17.9396C63.1899 16.0231 62.4493 14.1992 61.3585 12.5848C60.2676 10.9704 58.8506 9.60122 57.1983 8.56495C39.992 -2.02933 25.5993 3.06944 17.5854 7.94781C15.5512 9.20236 13.8235 10.8943 12.5288 12.9001C11.2341 14.9059 10.4049 17.1749 10.1018 19.5413C7.02297 42.4931 1.73438 50.7805 1.73438 50.7805C3.70495 54.9482 6.34749 58.7654 9.55678 62.08C11.0169 60.9029 12.2886 59.5105 13.328 57.9511V57.9511Z" stroke="black" stroke-width="1.56522" stroke-linecap="round" stroke-linejoin="round"/>
<path d="M13.4612 37.7031V49.8256C12.2272 49.1936 11.1744 48.2594 10.4014 47.1106C9.62838 45.9617 9.16055 44.6359 9.04177 43.2574C8.92392 38.717 11.06 37.7031 13.4612 37.7031Z" fill="white"/>
<path d="M13.4612 37.7031V49.8256C12.2272 49.1936 11.1744 48.2594 10.4014 47.1106C9.62838 45.9617 9.16055 44.6359 9.04177 43.2574C8.92392 38.717 11.06 37.7031 13.4612 37.7031Z" stroke="black" stroke-width="1.56522" stroke-linecap="round" stroke-linejoin="round"/>
<path d="M60.1897 47.6809C60.3001 43.8607 60.0535 40.0384 59.4531 36.2638C59.4531 36.2638 63.7547 34.2066 64.2998 39.7022C64.4491 41.2846 64.1415 42.8766 63.4132 44.2904C62.6849 45.7041 61.5664 46.8806 60.1897 47.6809V47.6809Z" fill="white"/>
<path d="M60.1897 47.6809C60.3001 43.8607 60.0535 40.0384 59.4531 36.2638C59.4531 36.2638 63.7547 34.2066 64.2998 39.7022C64.4491 41.2846 64.1415 42.8766 63.4132 44.2904C62.6849 45.7041 61.5664 46.8806 60.1897 47.6809V47.6809Z" stroke="black" stroke-width="1.56522" stroke-linecap="round" stroke-linejoin="round"/>
<path d="M35.5431 59.0539C35.5431 59.0539 35.5431 59.0539 34.3499 59.0539C33.9473 59.0174 33.558 58.8915 33.2105 58.6855C32.8629 58.4794 32.566 58.1985 32.3415 57.8632C32.1169 57.5279 31.9704 57.1468 31.9126 56.7477C31.8548 56.3486 31.8873 55.9417 32.0076 55.5567C32.8157 53.1395 33.2866 50.6228 33.4071 48.0775V42.582H53.3829" stroke="black" stroke-width="1.56522" stroke-linecap="round" stroke-linejoin="round"/>
<path d="M37.1484 42.582L39.9179 51.56C40.1199 52.2127 40.5267 52.7834 41.0783 53.1881C41.6299 53.5929 42.2973 53.8102 42.9821 53.8082H48.5948C49.4426 53.8082 50.2557 53.4722 50.8552 52.8742C51.4547 52.2763 51.7915 51.4652 51.7915 50.6196V42.582" stroke="black" stroke-width="1.56522" stroke-linecap="round" stroke-linejoin="round"/>
<path d="M33.4062 42.582H18.8516" stroke="black" stroke-width="1.56522" stroke-linecap="round" stroke-linejoin="round"/>
<path d="M32.9805 51.7363C32.8501 52.3164 32.5336 52.8383 32.079 53.2228C31.6244 53.6072 31.0565 53.8334 30.4614 53.8669H24.3479C23.4206 53.8669 22.531 53.5005 21.8739 52.8478C21.2168 52.1952 20.8457 51.3094 20.8418 50.3845V42.582" stroke="black" stroke-width="1.56522" stroke-linecap="round" stroke-linejoin="round"/>
<path d="M37.8262 35.498V37.8638C37.8262 37.8638 45.3098 37.4817 50.3332 39.2303C50.2595 39.2303 47.2248 35.498 37.8262 35.498Z" fill="black"/>
<path d="M37.8262 35.498V37.8638C37.8262 37.8638 45.3098 37.4817 50.3332 39.2303C50.2595 39.2303 47.2248 35.498 37.8262 35.498Z" stroke="black" stroke-width="1.56522" stroke-linecap="round" stroke-linejoin="round"/>
<path d="M32.4049 35.7345V38.159C30.3096 38.0249 28.2059 38.1135 26.1293 38.4235C24.097 38.7649 22.0454 38.9808 19.9863 39.07C23.5428 36.4086 27.9896 35.2142 32.4049 35.7345V35.7345Z" fill="black"/>
<path d="M32.4049 35.7345V38.159C30.3096 38.0249 28.2059 38.1135 26.1293 38.4235C24.097 38.7649 22.0454 38.9808 19.9863 39.07C23.5428 36.4086 27.9896 35.2142 32.4049 35.7345V35.7345Z" stroke="black" stroke-width="1.56522" stroke-linecap="round" stroke-linejoin="round"/>
<path d="M33.4062 62.7422C34.4948 63.3198 35.7088 63.6219 36.9418 63.6219C38.1748 63.6219 39.3888 63.3198 40.4773 62.7422" stroke="black" stroke-width="1.56522" stroke-linecap="round" stroke-linejoin="round"/>
<path d="M44.4712 47.6505C45.4801 47.6505 46.2979 46.5124 46.2979 45.1084C46.2979 43.7045 45.4801 42.5664 44.4712 42.5664C43.4624 42.5664 42.6445 43.7045 42.6445 45.1084C42.6445 46.5124 43.4624 47.6505 44.4712 47.6505Z" fill="black"/>
<path d="M44.4712 47.6505C45.4801 47.6505 46.2979 46.5124 46.2979 45.1084C46.2979 43.7045 45.4801 42.5664 44.4712 42.5664C43.4624 42.5664 42.6445 43.7045 42.6445 45.1084C42.6445 46.5124 43.4624 47.6505 44.4712 47.6505Z" stroke="black" stroke-width="1.56522" stroke-linecap="round" stroke-linejoin="round"/>
<path d="M27.0279 47.6505C28.0367 47.6505 28.8546 46.5124 28.8546 45.1084C28.8546 43.7045 28.0367 42.5664 27.0279 42.5664C26.019 42.5664 25.2012 43.7045 25.2012 45.1084C25.2012 46.5124 26.019 47.6505 27.0279 47.6505Z" fill="black"/>
<path d="M27.0279 47.6505C28.0367 47.6505 28.8546 46.5124 28.8546 45.1084C28.8546 43.7045 28.0367 42.5664 27.0279 42.5664C26.019 42.5664 25.2012 43.7045 25.2012 45.1084C25.2012 46.5124 26.019 47.6505 27.0279 47.6505Z" stroke="black" stroke-width="1.56522" stroke-linecap="round" stroke-linejoin="round"/>
<path d="M63.1348 65.856C66.5083 62.1678 68.1582 58.6266 70.2795 54.9531" stroke="white" stroke-width="1.56522" stroke-linecap="round" stroke-linejoin="round"/>
<path d="M56.0059 71.8519C57.6383 70.7703 59.1938 69.5772 60.661 68.2812" stroke="white" stroke-width="1.56522" stroke-linecap="round" stroke-linejoin="round"/>
<path d="M63.4 17.9396C63.0571 16.0231 62.3165 14.1992 61.2256 12.5848C60.1348 10.9704 58.7178 9.60122 57.0655 8.56495C39.9917 -2.02934 25.5991 3.06944 17.5851 7.94781C15.5509 9.20236 13.8233 10.8943 12.5285 12.9001C11.2338 14.9059 10.4046 17.1749 10.1016 19.5413" stroke="white" stroke-width="1.56522" stroke-linecap="round" stroke-linejoin="round"/>
</g>
<defs>
<clipPath id="clip0_1701_113511">
<rect width="75.1304" height="72" fill="white" transform="translate(0.261719 0.869141)"/>
</clipPath>
</defs>
</svg>
