<svg width="39" height="50" viewBox="0 0 39 50" fill="none" xmlns="http://www.w3.org/2000/svg">
<path d="M21.8798 26.71V27.25C21.8783 27.8457 21.9217 28.4407 22.0098 29.03L23.3298 37.56C23.35 37.6991 23.3323 37.8411 23.2785 37.9709C23.2247 38.1008 23.1368 38.2137 23.0241 38.2977C22.9114 38.3817 22.7781 38.4337 22.6382 38.4482C22.4984 38.4627 22.3573 38.4391 22.2298 38.38L20.5098 37.58" stroke="black" stroke-linecap="round" stroke-linejoin="round"/>
<path d="M5.65072 27.8898L3.85072 26.6998C3.65975 26.5764 3.4452 26.4939 3.22067 26.4578C2.99615 26.4217 2.76657 26.4327 2.54652 26.49C2.32646 26.5474 2.12075 26.6499 1.94243 26.791C1.76411 26.9322 1.6171 27.1088 1.51072 27.3098L1.43072 27.4998C1.14801 28.0237 1 28.6096 1 29.2048C1 29.8001 1.14801 30.386 1.43072 30.9098L3.06072 33.9098C3.37103 34.4802 3.82905 34.9566 4.38677 35.2892C4.94449 35.6217 5.58139 35.7981 6.23072 35.7998H7.80072" stroke="black" stroke-linecap="round" stroke-linejoin="round"/>
<path d="M33.5703 27.9499L34.5703 27.2199C34.9648 26.9428 35.4462 26.8175 35.9258 26.8671C36.4054 26.9167 36.8509 27.1379 37.1803 27.4899V27.4899C37.5114 27.8506 37.7303 28.2999 37.8103 28.7829C37.8902 29.266 37.8276 29.7618 37.6303 30.2099L35.8903 34.2099C35.747 34.5876 35.518 34.927 35.2212 35.2011C34.9245 35.4753 34.5682 35.6769 34.1803 35.7899" stroke="black" stroke-linecap="round" stroke-linejoin="round"/>
<path d="M8.50977 37.6699L9.50977 40.4999C9.90034 41.5961 10.5606 42.5762 11.4298 43.3499L16.5098 47.8399C17.4081 48.6383 18.568 49.0795 19.7698 49.0799H21.4398" stroke="black" stroke-linecap="round" stroke-linejoin="round"/>
<path d="M32.8106 33.77L31.2706 40.87C30.9575 42.3209 30.2112 43.6425 29.1306 44.66L25.8006 47.8C24.9259 48.6218 23.7709 49.0796 22.5706 49.08H21.3906" stroke="black" stroke-linecap="round" stroke-linejoin="round"/>
<path d="M34.65 8.86L33.82 8.01L34.59 6.5C24.02 0.42 14.74 3.5 14.74 3.5L15.13 1C12.9643 1.88586 10.8741 2.94601 8.87996 4.17C5.91579 5.93927 3.62121 8.64062 2.35476 11.852C1.08832 15.0633 0.921355 18.6037 1.87996 21.92L3.19996 26.5C3.43188 26.5303 3.65403 26.6123 3.84996 26.74L5.64996 27.93V21.24L9.80996 21.31L8.43996 13.31C11.6167 16.1911 15.7513 17.7879 20.04 17.79H27.59V13.79L29.08 14.46C30.2878 14.9989 31.3204 15.8654 32.061 16.9612C32.8016 18.057 33.2204 19.3384 33.27 20.66L33.51 26.71L33.59 27.95L34.59 27.22C34.9955 26.9222 35.5022 26.7964 36 26.87L37.7 21C38.313 18.8877 38.3536 16.6504 37.8177 14.5173C37.2818 12.3841 36.1885 10.4317 34.65 8.86Z" fill="black" stroke="black" stroke-linecap="round" stroke-linejoin="round"/>
<path d="M2.82031 28.27C3.59031 28.27 4.71031 29.27 5.87031 32.27" stroke="black" stroke-linecap="round" stroke-linejoin="round"/>
<path d="M9.70109 25.4302L9.62109 25.1502C12.5549 25.1854 15.4701 24.6803 18.2211 23.6602L18.7111 25.5002C16.1585 26.6564 13.3045 26.9715 10.5611 26.4002C10.3444 26.3297 10.1504 26.2026 9.99922 26.0321C9.84803 25.8616 9.74511 25.6538 9.70109 25.4302Z" fill="black" stroke="black" stroke-linecap="round" stroke-linejoin="round"/>
<path d="M31.451 24.6398C28.341 22.4998 23.311 22.9499 23.311 22.9499L22.791 20.9499C22.791 20.9499 28.051 20.3798 31.141 23.2298C31.3407 23.4068 31.4784 23.643 31.5342 23.9039C31.59 24.1648 31.5608 24.4367 31.451 24.6799V24.6398Z" fill="black" stroke="black" stroke-linecap="round" stroke-linejoin="round"/>
<path d="M26.5414 31.2C27.1489 31.2 27.6414 30.5956 27.6414 29.85C27.6414 29.1044 27.1489 28.5 26.5414 28.5C25.9339 28.5 25.4414 29.1044 25.4414 29.85C25.4414 30.5956 25.9339 31.2 26.5414 31.2Z" fill="black" stroke="black" stroke-linecap="round" stroke-linejoin="round"/>
<path d="M23.6609 41.4302C20.0609 42.2402 16.9609 39.7202 16.9609 39.7202C16.9609 39.7202 18.0709 43.2202 21.3909 43.3802" stroke="black" stroke-linecap="round" stroke-linejoin="round"/>
<path d="M13.0811 30.7002C14.6594 30.1658 16.33 29.9583 17.9911 30.0902C17.9911 30.0902 14.5111 29.9002 12.8711 28.9502" stroke="black" stroke-linecap="round" stroke-linejoin="round"/>
</svg>
