<svg width="39" height="50" viewBox="0 0 39 50" fill="none" xmlns="http://www.w3.org/2000/svg">
<path d="M33.86 27.95L34.86 27.22C35.2589 26.9329 35.7496 26.8028 36.2384 26.8544C36.7272 26.9061 37.1799 27.1359 37.51 27.5C37.8411 27.8607 38.0601 28.31 38.14 28.793C38.2199 29.2761 38.1574 29.772 37.96 30.22L36.22 34.22C36.0704 34.5885 35.8385 34.9179 35.5422 35.183C35.2458 35.4482 34.8928 35.6421 34.51 35.75L32.64 35.97L31.58 40.87C31.2669 42.3209 30.5206 43.6425 29.44 44.66L26.09 47.8C25.2153 48.6219 24.0603 49.0796 22.86 49.08H20.01C18.8082 49.0796 17.6483 48.6384 16.75 47.84L11.68 43.32C10.815 42.5547 10.155 41.5853 9.76001 40.5L8.76001 37.7L8.09001 35.78H6.51001C5.86069 35.7783 5.22379 35.6019 4.66607 35.2694C4.10834 34.9368 3.65032 34.4604 3.34001 33.89L1.71001 30.89C1.42731 30.3662 1.2793 29.7803 1.2793 29.185C1.2793 28.5898 1.42731 28.0039 1.71001 27.48L1.79001 27.32C1.89639 27.119 2.04341 26.9424 2.22173 26.8012C2.40004 26.6601 2.60576 26.5576 2.82582 26.5002C3.04587 26.4429 3.27545 26.4319 3.49997 26.468C3.72449 26.5041 3.93905 26.5866 4.13001 26.71L5.93001 27.9L4.69001 22.9L8.43001 10.79L33.86 13.33L35.02 23.07L33.86 27.95Z" fill="white"/>
<path d="M21.8798 26.71V27.25C21.8783 27.8457 21.9217 28.4407 22.0098 29.03L23.3298 37.56C23.35 37.6991 23.3323 37.8411 23.2785 37.9709C23.2247 38.1008 23.1368 38.2137 23.0241 38.2977C22.9114 38.3817 22.7781 38.4337 22.6382 38.4482C22.4984 38.4627 22.3573 38.4391 22.2298 38.38L20.5098 37.58" stroke="black" stroke-linecap="round" stroke-linejoin="round"/>
<path d="M8.50977 37.6699L9.50977 40.4999C9.90034 41.5961 10.5606 42.5762 11.4298 43.3499L16.5098 47.8399C17.4081 48.6383 18.568 49.0795 19.7698 49.0799H21.4398" stroke="black" stroke-linecap="round" stroke-linejoin="round"/>
<path d="M32.8106 33.77L31.2706 40.87C30.9575 42.3209 30.2112 43.6425 29.1306 44.66L25.8006 47.8C24.9259 48.6218 23.7709 49.0796 22.5706 49.08H21.3906" stroke="black" stroke-linecap="round" stroke-linejoin="round"/>
<path d="M34.65 8.86L33.82 8.01L34.59 6.5C24.02 0.42 14.74 3.5 14.74 3.5L15.13 1C12.9643 1.88586 10.8741 2.94601 8.87996 4.17C5.91579 5.93927 3.62121 8.64062 2.35476 11.852C1.08832 15.0633 0.921355 18.6037 1.87996 21.92L3.19996 26.5C3.43188 26.5303 3.65403 26.6123 3.84996 26.74L5.64996 27.93V21.24L9.80996 21.31L8.43996 13.31C11.6167 16.1911 15.7513 17.7879 20.04 17.79H27.59V13.79L29.08 14.46C30.2878 14.9989 31.3204 15.8654 32.061 16.9612C32.8016 18.057 33.2204 19.3384 33.27 20.66L33.51 26.71L33.59 27.95L34.59 27.22C34.9955 26.9222 35.5022 26.7964 36 26.87L37.7 21C38.313 18.8877 38.3536 16.6504 37.8177 14.5173C37.2818 12.3841 36.1885 10.4317 34.65 8.86Z" fill="black" stroke="black" stroke-linecap="round" stroke-linejoin="round"/>
<path d="M36 26.87L37.7 21C38.3193 18.892 38.3679 16.6574 37.8408 14.5245C37.3138 12.3916 36.2299 10.4368 34.7 8.86L33.87 8.01L34.59 6.5C24.02 0.42 14.74 3.5 14.74 3.5L15.13 1C12.9643 1.88586 10.8741 2.94601 8.87996 4.17C5.91579 5.93927 3.62121 8.64062 2.35476 11.852C1.08832 15.0633 0.921355 18.6037 1.87996 21.92L3.19996 26.5" stroke="white" stroke-linecap="round" stroke-linejoin="round"/>
<path d="M2.82031 28.27C3.59031 28.27 4.71031 29.27 5.87031 32.27" stroke="black" stroke-linecap="round" stroke-linejoin="round"/>
<path d="M10.7006 27.67C13.4964 26.869 16.2167 25.825 18.8306 24.55V22.27C16.317 23.8912 13.7164 25.3734 11.0406 26.71C10.6206 26.92 10.5606 27.23 10.7006 27.67Z" fill="black" stroke="black" stroke-linecap="round" stroke-linejoin="round"/>
<path d="M31 26.9999C28.2907 26.3177 25.6201 25.4898 23 24.5199V22.3799C25.4541 23.6732 27.9818 24.8218 30.57 25.8199C30.6839 25.8589 30.7872 25.9237 30.8718 26.0092C30.9565 26.0948 31.0202 26.1988 31.058 26.3131C31.0957 26.4273 31.1065 26.5488 31.0895 26.668C31.0725 26.7871 31.0282 26.9007 30.96 26.9999H31Z" fill="black" stroke="black" stroke-linecap="round" stroke-linejoin="round"/>
<path d="M15.4809 31.2C16.0884 31.2 16.5809 30.5956 16.5809 29.85C16.5809 29.1044 16.0884 28.5 15.4809 28.5C14.8733 28.5 14.3809 29.1044 14.3809 29.85C14.3809 30.5956 14.8733 31.2 15.4809 31.2Z" fill="black" stroke="black" stroke-linecap="round" stroke-linejoin="round"/>
<path d="M26.2699 31.2C26.8774 31.2 27.3699 30.5956 27.3699 29.85C27.3699 29.1044 26.8774 28.5 26.2699 28.5C25.6624 28.5 25.1699 29.1044 25.1699 29.85C25.1699 30.5956 25.6624 31.2 26.2699 31.2Z" fill="black" stroke="black" stroke-linecap="round" stroke-linejoin="round"/>
<path d="M18.8301 41.1601C19.5859 40.6731 20.466 40.4141 21.3651 40.4141C22.2642 40.4141 23.1443 40.6731 23.9001 41.1601" stroke="black" stroke-linecap="round" stroke-linejoin="round"/>
<path d="M5.65072 27.8898L3.85072 26.6998C3.65975 26.5764 3.4452 26.4939 3.22067 26.4578C2.99615 26.4217 2.76657 26.4327 2.54652 26.49C2.32646 26.5474 2.12075 26.6499 1.94243 26.791C1.76411 26.9322 1.6171 27.1088 1.51072 27.3098L1.43072 27.4998C1.14801 28.0237 1 28.6096 1 29.2048C1 29.8001 1.14801 30.386 1.43072 30.9098L3.06072 33.9098C3.37103 34.4802 3.82905 34.9566 4.38677 35.2892C4.94449 35.6217 5.58139 35.7981 6.23072 35.7998H7.80072" stroke="black" stroke-linecap="round" stroke-linejoin="round"/>
<path d="M33.5703 27.9499L34.5703 27.2199C34.9648 26.9428 35.4462 26.8175 35.9258 26.8671C36.4054 26.9167 36.8509 27.1379 37.1803 27.4899V27.4899C37.5114 27.8506 37.7303 28.2999 37.8103 28.7829C37.8902 29.266 37.8276 29.7618 37.6303 30.2099L35.8903 34.2099C35.747 34.5876 35.518 34.927 35.2212 35.2011C34.9245 35.4753 34.5682 35.6769 34.1803 35.7899" stroke="black" stroke-linecap="round" stroke-linejoin="round"/>
</svg>
