<svg width="39" height="50" viewBox="0 0 39 50" fill="none" xmlns="http://www.w3.org/2000/svg">
<path d="M33.571 27.95L34.571 27.22C34.9656 26.9429 35.4469 26.8176 35.9265 26.8672C36.4061 26.9168 36.8516 27.138 37.181 27.49C37.5122 27.8507 37.7311 28.3 37.811 28.783C37.8909 29.2661 37.8284 29.762 37.631 30.21L35.891 34.21C35.7477 34.5878 35.5187 34.9271 35.222 35.2013C34.9252 35.4754 34.5689 35.677 34.181 35.79L32.311 36.01L31.251 40.91C30.9379 42.3609 30.1916 43.6825 29.111 44.7L25.801 47.8C24.9263 48.6219 23.7713 49.0796 22.571 49.08H19.721C18.5365 49.0675 17.3964 48.6271 16.511 47.84L11.441 43.32C10.5724 42.5559 9.90889 41.5864 9.51104 40.5L8.51104 37.7L7.84104 35.78H6.25104C5.60171 35.7783 4.96481 35.6019 4.40709 35.2694C3.84936 34.9368 3.39135 34.4604 3.08104 33.89L1.45104 30.89C1.16872 30.3703 1.01918 29.789 1.01569 29.1975C1.0122 28.6061 1.15487 28.023 1.43104 27.5L1.51104 27.31C1.61741 27.109 1.76443 26.9324 1.94275 26.7912C2.12107 26.6501 2.32678 26.5476 2.54684 26.4902C2.76689 26.4329 2.99647 26.4219 3.22099 26.458C3.44552 26.4941 3.66007 26.5766 3.85104 26.7L5.65104 27.89L4.41104 22.89L8.14104 10.79L33.571 13.33L34.731 23.07L33.571 27.95Z" fill="white"/>
<path d="M21.8798 26.71V27.25C21.8783 27.8457 21.9217 28.4407 22.0098 29.03L23.3298 37.56C23.35 37.6991 23.3323 37.8411 23.2785 37.9709C23.2247 38.1008 23.1368 38.2137 23.0241 38.2977C22.9114 38.3817 22.7781 38.4337 22.6382 38.4482C22.4984 38.4627 22.3573 38.4391 22.2298 38.38L20.5098 37.58" stroke="black" stroke-linecap="round" stroke-linejoin="round"/>
<path d="M8.50977 37.6699L9.50977 40.4999C9.90034 41.5961 10.5606 42.5762 11.4298 43.3499L16.5098 47.8399C17.4081 48.6383 18.568 49.0795 19.7698 49.0799H21.4398" stroke="black" stroke-linecap="round" stroke-linejoin="round"/>
<path d="M32.8106 33.77L31.2706 40.87C30.9575 42.3209 30.2112 43.6425 29.1306 44.66L25.8006 47.8C24.9259 48.6218 23.7709 49.0796 22.5706 49.08H21.3906" stroke="black" stroke-linecap="round" stroke-linejoin="round"/>
<path d="M34.65 8.86L33.82 8.01L34.59 6.5C24.02 0.42 14.74 3.5 14.74 3.5L15.13 1C12.9643 1.88586 10.8741 2.94601 8.87996 4.17C5.91579 5.93927 3.62121 8.64062 2.35476 11.852C1.08832 15.0633 0.921355 18.6037 1.87996 21.92L3.19996 26.5C3.43188 26.5303 3.65403 26.6123 3.84996 26.74L5.64996 27.93V21.24L9.80996 21.31L8.43996 13.31C11.6167 16.1911 15.7513 17.7879 20.04 17.79H27.59V13.79L29.08 14.46C30.2878 14.9989 31.3204 15.8654 32.061 16.9612C32.8016 18.057 33.2204 19.3384 33.27 20.66L33.51 26.71L33.59 27.95L34.59 27.22C34.9955 26.9222 35.5022 26.7964 36 26.87L37.7 21C38.313 18.8877 38.3536 16.6504 37.8177 14.5173C37.2818 12.3841 36.1885 10.4317 34.65 8.86Z" fill="black" stroke="black" stroke-linecap="round" stroke-linejoin="round"/>
<path d="M36 26.87L37.7 21C38.3193 18.892 38.3679 16.6574 37.8408 14.5245C37.3138 12.3916 36.2299 10.4368 34.7 8.86L33.87 8.01L34.59 6.5C24.02 0.42 14.74 3.5 14.74 3.5L15.13 1C12.9643 1.88586 10.8741 2.94601 8.87996 4.17C5.91579 5.93927 3.62121 8.64062 2.35476 11.852C1.08832 15.0633 0.921355 18.6037 1.87996 21.92L3.19996 26.5" stroke="white" stroke-linecap="round" stroke-linejoin="round"/>
<path d="M2.82031 28.27C3.59031 28.27 4.71031 29.27 5.87031 32.27" stroke="black" stroke-linecap="round" stroke-linejoin="round"/>
<path d="M5.65072 27.8898L3.85072 26.6998C3.65975 26.5764 3.4452 26.4939 3.22067 26.4578C2.99615 26.4217 2.76657 26.4327 2.54652 26.49C2.32646 26.5474 2.12075 26.6499 1.94243 26.791C1.76411 26.9322 1.6171 27.1088 1.51072 27.3098L1.43072 27.4998C1.14801 28.0237 1 28.6096 1 29.2048C1 29.8001 1.14801 30.386 1.43072 30.9098L3.06072 33.9098C3.37103 34.4802 3.82905 34.9566 4.38677 35.2892C4.94449 35.6217 5.58139 35.7981 6.23072 35.7998H7.80072" stroke="black" stroke-linecap="round" stroke-linejoin="round"/>
<path d="M33.5703 27.9499L34.5703 27.2199C34.9648 26.9428 35.4462 26.8175 35.9258 26.8671C36.4054 26.9167 36.8509 27.1379 37.1803 27.4899V27.4899C37.5114 27.8506 37.7303 28.2999 37.8103 28.7829C37.8902 29.266 37.8276 29.7618 37.6303 30.2099L35.8903 34.2099C35.747 34.5876 35.518 34.927 35.2212 35.2011C34.9245 35.4753 34.5682 35.6769 34.1803 35.7899" stroke="black" stroke-linecap="round" stroke-linejoin="round"/>
<path d="M10.3512 27.67L10.4512 27.95C10.4512 27.95 12.9012 24.55 18.4512 24.55V22.55C18.4512 22.55 13.2312 22.35 10.5112 26.31C10.3792 26.5081 10.296 26.7345 10.2682 26.9708C10.2403 27.2072 10.2688 27.4468 10.3512 27.67Z" fill="black" stroke="black" stroke-linecap="round" stroke-linejoin="round"/>
<path d="M31.2715 26.9998C28.3715 24.5498 23.2715 24.5898 23.2715 24.5898V22.5898C23.2715 22.5898 28.2715 22.4098 31.0515 25.5298C31.2328 25.7245 31.3479 25.9715 31.3803 26.2356C31.4126 26.4996 31.3605 26.7672 31.2315 26.9998H31.2715Z" fill="black" stroke="black" stroke-linecap="round" stroke-linejoin="round"/>
<path d="M15.1312 31.2C15.7388 31.2 16.2312 30.5956 16.2312 29.85C16.2312 29.1044 15.7388 28.5 15.1312 28.5C14.5237 28.5 14.0312 29.1044 14.0312 29.85C14.0312 30.5956 14.5237 31.2 15.1312 31.2Z" fill="black" stroke="black" stroke-linecap="round" stroke-linejoin="round"/>
<path d="M26.5414 31.2C27.1489 31.2 27.6414 30.5956 27.6414 29.85C27.6414 29.1044 27.1489 28.5 26.5414 28.5C25.9339 28.5 25.4414 29.1044 25.4414 29.85C25.4414 30.5956 25.9339 31.2 26.5414 31.2Z" fill="black" stroke="black" stroke-linecap="round" stroke-linejoin="round"/>
<path d="M23.6609 41.4302C20.0609 42.2402 16.9609 39.7202 16.9609 39.7202C16.9609 39.7202 18.0709 43.2202 21.3909 43.3802" stroke="black" stroke-linecap="round" stroke-linejoin="round"/>
</svg>
