<svg width="42" height="53" viewBox="0 0 42 53" fill="none" xmlns="http://www.w3.org/2000/svg">
<g clip-path="url(#clip0_1957_270619)">
<path d="M9.81044 38.4301C10.3078 41.5542 11.0025 44.6437 11.8904 47.6801C12.0905 48.2816 12.4264 48.829 12.8721 49.2799C13.3178 49.7308 13.8612 50.073 14.4604 50.2801C16.7248 51.1406 19.128 51.5778 21.5504 51.5701C24.7908 51.4125 27.9622 50.5779 30.8604 49.1201C31.4586 48.8317 31.984 48.4122 32.3978 47.8928C32.8116 47.3735 33.103 46.7675 33.2504 46.1201C33.9074 43.2301 34.4015 40.3055 34.7304 37.3601L36.5104 36.2901C37.1369 35.9091 37.675 35.399 38.0888 34.7938C38.5026 34.1885 38.7827 33.502 38.9104 32.7801L39.9104 27.0701C39.9377 26.9031 39.9221 26.7319 39.8651 26.5726C39.8082 26.4133 39.7118 26.2711 39.5849 26.1592C39.458 26.0473 39.3048 25.9694 39.1396 25.9328C38.9745 25.8962 38.8027 25.9022 38.6404 25.9501L37.0204 26.4401C36.5104 26.5973 36.0515 26.8878 35.6911 27.2815C35.3307 27.6753 35.082 28.1581 34.9704 28.6801L34.8004 29.5001H32.8004C32.8004 29.5001 32.2004 26.9301 33.3504 25.4401C33.7278 24.9461 34.0624 24.4209 34.3504 23.8701C34.5048 23.5714 34.5654 23.2332 34.5243 22.8995C34.4833 22.5659 34.3425 22.2524 34.1204 22.0001C33.0634 20.8058 32.3999 19.3148 32.2204 17.7301C32.1204 16.3401 32.0604 14.9501 32.0104 13.8901C31.9908 13.343 31.7997 12.8159 31.4642 12.3834C31.1286 11.9509 30.6655 11.6349 30.1404 11.4801L28.3304 10.9301C27.76 10.7617 27.1495 10.7894 26.5966 11.0088C26.0438 11.2281 25.5803 11.6264 25.2804 12.1401L24.4404 13.5901C24.0848 14.2303 23.587 14.7805 22.9855 15.1983C22.3839 15.6161 21.6946 15.8904 20.9704 16.0001C18.5511 16.3936 16.0922 16.4843 13.6504 16.2701C10.6504 15.7301 9.86044 15.6501 9.86044 15.6501L9.26044 16.9201C8.51025 18.5431 8.16701 20.3245 8.26044 22.1101L8.60044 29.1101L6.24044 27.1101C6.03291 26.9552 5.78301 26.8675 5.52423 26.8587C5.26545 26.8498 5.01015 26.9203 4.79256 27.0607C4.57496 27.201 4.40547 27.4045 4.30679 27.6439C4.2081 27.8833 4.18495 28.1471 4.24044 28.4001L5.46044 33.6001C5.7909 34.8622 6.53793 35.9757 7.58044 36.7601L9.81044 38.4301Z" fill="#C882FF"/>
<path d="M36.5104 36.2801C37.1369 35.8991 37.675 35.389 38.0888 34.7838C38.5026 34.1785 38.7827 33.492 38.9104 32.7701L39.9104 27.0601C39.9377 26.8931 39.9221 26.7219 39.8651 26.5626C39.8082 26.4033 39.7118 26.2611 39.5849 26.1492C39.458 26.0373 39.3048 25.9594 39.1396 25.9228C38.9745 25.8862 38.8027 25.8922 38.6404 25.9401L37.0204 26.4301C36.5091 26.5881 36.0494 26.8801 35.6889 27.2758C35.3284 27.6714 35.0804 28.1563 34.9704 28.6801L34.8004 29.5001H32.8004C32.8004 29.5001 32.2004 26.9301 33.3504 25.4401C33.7278 24.9461 34.0624 24.4209 34.3504 23.8701C34.5048 23.5714 34.5654 23.2332 34.5243 22.8995C34.4833 22.5659 34.3425 22.2524 34.1204 22.0001C33.0634 20.8058 32.3999 19.3148 32.2204 17.7301C32.1204 16.3401 32.0604 14.9501 32.0104 13.8901C31.9908 13.343 31.7997 12.8159 31.4642 12.3834C31.1286 11.9509 30.6655 11.6349 30.1404 11.4801L28.3304 10.9301C27.76 10.7617 27.1495 10.7894 26.5966 11.0088C26.0438 11.2281 25.5803 11.6264 25.2804 12.1401L24.4404 13.5901C24.0848 14.2303 23.587 14.7805 22.9855 15.1983C22.3839 15.6161 21.6946 15.8904 20.9704 16.0001C18.5511 16.3936 16.0922 16.4843 13.6504 16.2701C10.6504 15.7301 9.86044 15.6501 9.86044 15.6501L9.26044 16.9201C8.51025 18.5431 8.16701 20.3245 8.26044 22.1101L8.60044 29.1101L6.24044 27.1101C6.03291 26.9552 5.78301 26.8675 5.52423 26.8587C5.26545 26.8498 5.01015 26.9203 4.79256 27.0607C4.57496 27.201 4.40547 27.4045 4.30679 27.6439C4.2081 27.8833 4.18495 28.1471 4.24044 28.4001L5.46044 33.6001C5.7909 34.8622 6.53793 35.9757 7.58044 36.7601" stroke="black" stroke-linecap="round" stroke-linejoin="round"/>
<path d="M9.81055 38.4299C10.3079 41.554 11.0026 44.6435 11.8905 47.6799C12.0906 48.2814 12.4265 48.8288 12.8722 49.2797C13.3179 49.7306 13.8614 50.0728 14.4605 50.2799C16.725 51.1404 19.1282 51.5776 21.5505 51.5699C24.7909 51.4123 27.9623 50.5777 30.8605 49.1199C31.4587 48.8315 31.9842 48.412 32.3979 47.8926C32.8117 47.3732 33.1031 46.7673 33.2505 46.1199C33.9075 43.2299 34.4016 40.3053 34.7305 37.3599" stroke="black" stroke-linecap="round" stroke-linejoin="round"/>
<path d="M11.1806 26.5002C14.0406 25.5002 16.5806 24.5502 17.5606 23.6702C17.6963 23.5426 17.7781 23.368 17.7892 23.1821C17.8004 22.9962 17.7401 22.8131 17.6206 22.6702L16.7906 21.6702C16.6699 21.5281 16.5006 21.4361 16.3157 21.412C16.1308 21.388 15.9436 21.4337 15.7906 21.5402C14.1389 22.8264 12.379 23.9674 10.5306 24.9502C10.3528 25.0401 10.2117 25.1889 10.1314 25.3713C10.0512 25.5537 10.0367 25.7583 10.0906 25.9502V25.9502C10.1245 26.0589 10.1799 26.1597 10.2535 26.2466C10.3272 26.3335 10.4175 26.4047 10.5192 26.456C10.6208 26.5073 10.7318 26.5376 10.8454 26.5452C10.959 26.5528 11.073 26.5375 11.1806 26.5002V26.5002Z" fill="black"/>
<path d="M11.1806 26.5002C14.0406 25.5002 16.5806 24.5502 17.5606 23.6702C17.6963 23.5426 17.7781 23.368 17.7892 23.1821C17.8004 22.9962 17.7401 22.8131 17.6206 22.6702L16.7906 21.6702C16.6699 21.5281 16.5006 21.4361 16.3157 21.412C16.1308 21.388 15.9436 21.4337 15.7906 21.5402C14.1389 22.8264 12.379 23.9674 10.5306 24.9502C10.3528 25.0401 10.2117 25.1889 10.1314 25.3713C10.0512 25.5537 10.0367 25.7583 10.0906 25.9502V25.9502C10.1245 26.0589 10.1799 26.1597 10.2535 26.2466C10.3272 26.3335 10.4175 26.4047 10.5192 26.456C10.6208 26.5073 10.7318 26.5376 10.8454 26.5452C10.959 26.5528 11.073 26.5375 11.1806 26.5002V26.5002Z" stroke="black" stroke-linecap="round" stroke-linejoin="round"/>
<path d="M28.512 25.3999C26.0008 25.3578 23.5242 24.8067 21.232 23.7799C21.0567 23.69 20.9237 23.5347 20.862 23.3476C20.8002 23.1605 20.8146 22.9566 20.902 22.7799L21.402 21.8399C21.4463 21.7529 21.5075 21.6757 21.5822 21.6128C21.6568 21.5499 21.7433 21.5026 21.8365 21.4737C21.9297 21.4448 22.0278 21.4348 22.125 21.4445C22.2221 21.4542 22.3163 21.4832 22.402 21.5299C24.3698 22.5695 26.5002 23.2661 28.702 23.5899C28.9377 23.6199 29.152 23.7419 29.2981 23.9292C29.4442 24.1165 29.5103 24.354 29.482 24.5899C29.4567 24.8243 29.3415 25.0397 29.1605 25.1908C28.9796 25.3419 28.7471 25.4168 28.512 25.3999V25.3999Z" fill="black"/>
<path d="M28.512 25.3999C26.0008 25.3578 23.5242 24.8067 21.232 23.7799C21.0567 23.69 20.9237 23.5347 20.862 23.3476C20.8002 23.1605 20.8146 22.9566 20.902 22.7799L21.402 21.8399C21.4463 21.7529 21.5075 21.6757 21.5822 21.6128C21.6568 21.5499 21.7433 21.5026 21.8365 21.4737C21.9297 21.4448 22.0278 21.4348 22.125 21.4445C22.2221 21.4542 22.3163 21.4832 22.402 21.5299C24.3698 22.5695 26.5002 23.2661 28.702 23.5899C28.9377 23.6199 29.152 23.7419 29.2981 23.9292C29.4442 24.1165 29.5103 24.354 29.482 24.5899C29.4567 24.8243 29.3415 25.0397 29.1605 25.1908C28.9796 25.3419 28.7471 25.4168 28.512 25.3999V25.3999Z" stroke="black" stroke-linecap="round" stroke-linejoin="round"/>
<path d="M19.2921 25.6699C19.2921 25.6699 19.9621 31.0999 17.6621 34.7599C17.519 34.9777 17.4298 35.2265 17.402 35.4856C17.3741 35.7447 17.4085 36.0067 17.5021 36.2499L17.5821 36.4599C17.6988 36.777 17.91 37.0506 18.1872 37.2437C18.4644 37.4368 18.7942 37.5402 19.1321 37.5399C19.7637 37.5509 20.3952 37.5175 21.0221 37.4399" stroke="black" stroke-linecap="round" stroke-linejoin="round"/>
<path d="M14.4438 30.609C15.1633 30.5333 15.6674 29.7194 15.5697 28.7912C15.4719 27.8629 14.8094 27.1719 14.0899 27.2476C13.3704 27.3234 12.8663 28.1372 12.9641 29.0655C13.0618 29.9937 13.7243 30.6848 14.4438 30.609Z" fill="black"/>
<path d="M26.3394 30.6153C27.1028 30.535 27.6373 29.6683 27.5333 28.6797C27.4292 27.691 26.7259 26.9548 25.9624 27.0351C25.199 27.1155 24.6645 27.9821 24.7685 28.9708C24.8726 29.9594 25.5759 30.6957 26.3394 30.6153Z" fill="black"/>
<path d="M14.4438 30.609C15.1633 30.5333 15.6674 29.7194 15.5697 28.7912C15.4719 27.8629 14.8094 27.1719 14.0899 27.2476C13.3704 27.3234 12.8663 28.1372 12.9641 29.0655C13.0618 29.9937 13.7243 30.6848 14.4438 30.609Z" stroke="black" stroke-linecap="round" stroke-linejoin="round"/>
<path d="M26.3394 30.6153C27.1028 30.535 27.6373 29.6683 27.5333 28.6797C27.4292 27.691 26.7259 26.9548 25.9624 27.0351C25.199 27.1155 24.6645 27.9821 24.7685 28.9708C24.8726 29.9594 25.5759 30.6957 26.3394 30.6153Z" stroke="black" stroke-linecap="round" stroke-linejoin="round"/>
<path d="M9.81148 38.4298C9.36433 36.4212 9.09992 34.3762 9.02148 32.3198" stroke="black" stroke-linecap="round" stroke-linejoin="round"/>
<path d="M34.7305 37.3499C34.8993 35.4415 34.9527 33.5247 34.8905 31.6099" stroke="black" stroke-linecap="round" stroke-linejoin="round"/>
<path d="M36.4512 30.7301C36.4604 30.139 36.6263 29.561 36.932 29.055C37.2377 28.549 37.6722 28.1332 38.1912 27.8501" stroke="black" stroke-linecap="round" stroke-linejoin="round"/>
<path d="M40.3413 16.58C38.4313 14.02 36.4513 11.86 36.4513 11.86L36.6613 11.13C37.0091 9.93645 36.8843 8.65482 36.3127 7.5508C35.7411 6.44677 34.7667 5.60501 33.5913 5.20001C26.6413 2.79001 21.5913 4.54001 21.5913 4.54001L21.0713 3.23001C20.7099 2.23239 19.9793 1.4116 19.0303 0.937076C18.0812 0.462556 16.9862 0.370536 15.9713 0.680013C12.724 1.72765 9.65295 3.25813 6.86129 5.22001C6.06023 5.78212 5.4848 6.61042 5.23756 7.55728C4.99031 8.50413 5.08732 9.50802 5.51129 10.39L5.71129 10.83C4.31571 11.5987 3.12025 12.6846 2.22129 14C1.79993 14.6406 1.55495 15.381 1.51106 16.1465C1.46716 16.9119 1.62591 17.6755 1.97129 18.36L6.21129 27.05L8.57129 29.05L8.23129 22.05C8.13787 20.2645 8.48111 18.483 9.23129 16.86L9.83129 15.59C9.83129 15.59 10.5813 15.67 13.6213 16.21C16.0705 16.4466 18.5396 16.3761 20.9713 16C21.6997 15.903 22.3961 15.6397 23.0065 15.2305C23.6169 14.8212 24.1249 14.277 24.4913 13.64L25.3313 12.19C25.6312 11.6764 26.0946 11.278 26.6475 11.0587C27.2004 10.8394 27.8108 10.8117 28.3813 10.98L30.1913 11.53C30.6933 11.6979 31.1324 12.0145 31.4504 12.4378C31.7683 12.8611 31.95 13.3711 31.9713 13.9C32.0213 14.96 32.0813 16.35 32.1813 17.74C32.3741 19.3259 33.0516 20.8136 34.1213 22C34.3349 22.2557 34.4671 22.5695 34.501 22.9009C34.5348 23.2324 34.4688 23.5664 34.3113 23.86C34.0233 24.4109 33.6887 24.9361 33.3113 25.43C32.1613 26.92 32.7613 29.49 32.7613 29.49H34.7613L34.9313 28.67C35.0421 28.145 35.2916 27.6594 35.654 27.2636C36.0163 26.8679 36.4781 26.5766 36.9913 26.42L38.6113 25.93H38.8113L40.6613 22.73C41.2173 21.7866 41.4834 20.7005 41.4265 19.6069C41.3696 18.5133 40.9922 17.4606 40.3413 16.58Z" fill="black"/>
<path d="M40.3413 16.58C38.4313 14.02 36.4513 11.86 36.4513 11.86L36.6613 11.13C37.0091 9.93645 36.8843 8.65482 36.3127 7.5508C35.7411 6.44677 34.7667 5.60501 33.5913 5.20001C26.6413 2.79001 21.5913 4.54001 21.5913 4.54001L21.0713 3.23001C20.7099 2.23239 19.9793 1.4116 19.0303 0.937076C18.0812 0.462556 16.9862 0.370536 15.9713 0.680013C12.724 1.72765 9.65295 3.25813 6.86129 5.22001C6.06023 5.78212 5.4848 6.61042 5.23756 7.55728C4.99031 8.50413 5.08732 9.50802 5.51129 10.39L5.71129 10.83C4.31571 11.5987 3.12025 12.6846 2.22129 14C1.79993 14.6406 1.55495 15.381 1.51106 16.1465C1.46716 16.9119 1.62591 17.6755 1.97129 18.36L6.21129 27.05L8.57129 29.05L8.23129 22.05C8.13787 20.2645 8.48111 18.483 9.23129 16.86L9.83129 15.59C9.83129 15.59 10.5813 15.67 13.6213 16.21C16.0705 16.4466 18.5396 16.3761 20.9713 16C21.6997 15.903 22.3961 15.6397 23.0065 15.2305C23.6169 14.8212 24.1249 14.277 24.4913 13.64L25.3313 12.19C25.6312 11.6764 26.0946 11.278 26.6475 11.0587C27.2004 10.8394 27.8108 10.8117 28.3813 10.98L30.1913 11.53C30.6933 11.6979 31.1324 12.0145 31.4504 12.4378C31.7683 12.8611 31.95 13.3711 31.9713 13.9C32.0213 14.96 32.0813 16.35 32.1813 17.74C32.3741 19.3259 33.0516 20.8136 34.1213 22C34.3349 22.2557 34.4671 22.5695 34.501 22.9009C34.5348 23.2324 34.4688 23.5664 34.3113 23.86C34.0233 24.4109 33.6887 24.9361 33.3113 25.43C32.1613 26.92 32.7613 29.49 32.7613 29.49H34.7613L34.9313 28.67C35.0421 28.145 35.2916 27.6594 35.654 27.2636C36.0163 26.8679 36.4781 26.5766 36.9913 26.42L38.6113 25.93H38.8113L40.6613 22.73C41.2173 21.7866 41.4834 20.7005 41.4265 19.6069C41.3696 18.5133 40.9922 17.4606 40.3413 16.58Z" stroke="black" stroke-linecap="round" stroke-linejoin="round"/>
<path d="M18.8008 41.87C19.4681 41.2664 20.3359 40.9321 21.2358 40.9321C22.1356 40.9321 23.0034 41.2664 23.6708 41.87" stroke="black" stroke-linecap="round" stroke-linejoin="round"/>
</g>
<defs>
<clipPath id="clip0_1957_270619">
<rect width="40.97" height="52.07" fill="white" transform="translate(0.970703)"/>
</clipPath>
</defs>
</svg>
