<svg width="42" height="53" viewBox="0 0 42 53" fill="none" xmlns="http://www.w3.org/2000/svg">
<g clip-path="url(#clip0_1957_270621)">
<path d="M9.75184 38.4301C10.2492 41.5542 10.9439 44.6437 11.8318 47.6801C12.0319 48.2816 12.3678 48.829 12.8135 49.2799C13.2592 49.7308 13.8026 50.073 14.4018 50.2801C16.6662 51.1406 19.0695 51.5778 21.4918 51.5701C24.7322 51.4125 27.9036 50.5779 30.8018 49.1201C31.4 48.8317 31.9255 48.4122 32.3392 47.8928C32.753 47.3735 33.0444 46.7675 33.1918 46.1201C33.8488 43.2301 34.3429 40.3055 34.6718 37.3601L36.4518 36.2901C37.0783 35.9091 37.6164 35.399 38.0302 34.7938C38.444 34.1885 38.7241 33.502 38.8518 32.7801L39.8518 27.0701C39.8791 26.9031 39.8635 26.7319 39.8065 26.5726C39.7496 26.4133 39.6532 26.2711 39.5263 26.1592C39.3994 26.0473 39.2462 25.9694 39.081 25.9328C38.9159 25.8962 38.7441 25.9022 38.5818 25.9501L36.9618 26.4401C36.4518 26.5973 35.9929 26.8878 35.6325 27.2815C35.2722 27.6753 35.0234 28.1581 34.9118 28.6801L34.7418 29.5001H32.7418C32.7418 29.5001 32.1418 26.9301 33.2918 25.4401C33.6693 24.9461 34.0038 24.4209 34.2918 23.8701C34.4462 23.5714 34.5068 23.2332 34.4657 22.8995C34.4247 22.5659 34.2839 22.2524 34.0618 22.0001C33.0048 20.8058 32.3413 19.3148 32.1618 17.7301C32.0618 16.3401 32.0018 14.9501 31.9518 13.8901C31.9323 13.343 31.7412 12.8159 31.4056 12.3834C31.07 11.9509 30.6069 11.6349 30.0818 11.4801L28.2718 10.9301C27.7014 10.7617 27.0909 10.7894 26.538 11.0088C25.9852 11.2281 25.5218 11.6264 25.2218 12.1401L24.3818 13.5901C24.0262 14.2303 23.5285 14.7805 22.9269 15.1983C22.3253 15.6161 21.636 15.8904 20.9118 16.0001C18.4925 16.3936 16.0336 16.4843 13.5918 16.2701C10.5918 15.7301 9.80184 15.6501 9.80184 15.6501L9.20184 16.9201C8.45166 18.5431 8.10841 20.3245 8.20184 22.1101L8.54184 29.1101L6.18184 27.1101C5.97432 26.9552 5.72442 26.8675 5.46564 26.8587C5.20685 26.8498 4.95156 26.9203 4.73396 27.0607C4.51637 27.201 4.34687 27.4045 4.24819 27.6439C4.14951 27.8833 4.12636 28.1471 4.18184 28.4001L5.40184 33.6001C5.73231 34.8622 6.47934 35.9757 7.52184 36.7601L9.75184 38.4301Z" fill="white"/>
<path d="M36.4518 36.2801C37.0783 35.8991 37.6164 35.389 38.0302 34.7838C38.444 34.1785 38.7241 33.492 38.8518 32.7701L39.8518 27.0601C39.8791 26.8931 39.8635 26.7219 39.8065 26.5626C39.7496 26.4033 39.6532 26.2611 39.5263 26.1492C39.3994 26.0373 39.2462 25.9594 39.081 25.9228C38.9159 25.8862 38.7441 25.8922 38.5818 25.9401L36.9618 26.4301C36.4505 26.5881 35.9908 26.8801 35.6303 27.2758C35.2698 27.6714 35.0218 28.1563 34.9118 28.6801L34.7418 29.5001H32.7418C32.7418 29.5001 32.1418 26.9301 33.2918 25.4401C33.6693 24.9461 34.0038 24.4209 34.2918 23.8701C34.4462 23.5714 34.5068 23.2332 34.4657 22.8995C34.4247 22.5659 34.2839 22.2524 34.0618 22.0001C33.0048 20.8058 32.3413 19.3148 32.1618 17.7301C32.0618 16.3401 32.0018 14.9501 31.9518 13.8901C31.9323 13.343 31.7412 12.8159 31.4056 12.3834C31.07 11.9509 30.6069 11.6349 30.0818 11.4801L28.2718 10.9301C27.7014 10.7617 27.0909 10.7894 26.538 11.0088C25.9852 11.2281 25.5218 11.6264 25.2218 12.1401L24.3818 13.5901C24.0262 14.2303 23.5285 14.7805 22.9269 15.1983C22.3253 15.6161 21.636 15.8904 20.9118 16.0001C18.4925 16.3936 16.0336 16.4843 13.5918 16.2701C10.5918 15.7301 9.80184 15.6501 9.80184 15.6501L9.20184 16.9201C8.45166 18.5431 8.10841 20.3245 8.20184 22.1101L8.54184 29.1101L6.18184 27.1101C5.97432 26.9552 5.72442 26.8675 5.46564 26.8587C5.20685 26.8498 4.95156 26.9203 4.73396 27.0607C4.51637 27.201 4.34687 27.4045 4.24819 27.6439C4.14951 27.8833 4.12636 28.1471 4.18184 28.4001L5.40184 33.6001C5.73231 34.8622 6.47934 35.9757 7.52184 36.7601" stroke="black" stroke-linecap="round" stroke-linejoin="round"/>
<path d="M9.75195 38.4299C10.2493 41.554 10.9441 44.6435 11.832 47.6799C12.032 48.2814 12.3679 48.8288 12.8136 49.2797C13.2593 49.7306 13.8028 50.0728 14.402 50.2799C16.6664 51.1404 19.0696 51.5776 21.492 51.5699C24.7323 51.4123 27.9037 50.5777 30.802 49.1199C31.4001 48.8315 31.9256 48.412 32.3393 47.8926C32.7531 47.3732 33.0445 46.7673 33.192 46.1199C33.8489 43.2299 34.343 40.3053 34.672 37.3599" stroke="black" stroke-linecap="round" stroke-linejoin="round"/>
<path d="M9.82184 23.73C9.84655 23.8252 9.89432 23.913 9.96095 23.9855C10.0276 24.0579 10.111 24.1129 10.2039 24.1455C10.2968 24.1781 10.3962 24.1874 10.4935 24.1724C10.5909 24.1575 10.683 24.1189 10.7618 24.06C11.6004 23.4659 12.566 23.0756 13.5818 22.92C14.6807 22.7046 15.7935 22.5676 16.9118 22.51C17.1011 22.4997 17.2792 22.4173 17.4094 22.2796C17.5397 22.1419 17.6121 21.9595 17.6118 21.77V20.45C17.6121 20.2604 17.5397 20.078 17.4094 19.9404C17.2792 19.8027 17.1011 19.7202 16.9118 19.71C15.5976 19.7245 14.2999 20.0049 13.0969 20.5342C11.8939 21.0635 10.8105 21.8308 9.91184 22.79C9.84507 22.8629 9.79807 22.9518 9.77532 23.0481C9.75256 23.1443 9.75481 23.2448 9.78184 23.34L9.82184 23.73Z" fill="black"/>
<path d="M9.82184 23.73C9.84655 23.8252 9.89432 23.913 9.96095 23.9855C10.0276 24.0579 10.111 24.1129 10.2039 24.1455C10.2968 24.1781 10.3962 24.1874 10.4935 24.1724C10.5909 24.1575 10.683 24.1189 10.7618 24.06C11.6004 23.4659 12.566 23.0756 13.5818 22.92C14.6807 22.7046 15.7935 22.5676 16.9118 22.51C17.1011 22.4997 17.2792 22.4173 17.4094 22.2796C17.5397 22.1419 17.6121 21.9595 17.6118 21.77V20.45C17.6121 20.2604 17.5397 20.078 17.4094 19.9404C17.2792 19.8027 17.1011 19.7202 16.9118 19.71C15.5976 19.7245 14.2999 20.0049 13.0969 20.5342C11.8939 21.0635 10.8105 21.8308 9.91184 22.79C9.84507 22.8629 9.79807 22.9518 9.77532 23.0481C9.75256 23.1443 9.75481 23.2448 9.78184 23.34L9.82184 23.73Z" stroke="black" stroke-linecap="round" stroke-linejoin="round"/>
<path d="M21.9121 20.34V21.22C21.912 21.451 22.0016 21.6729 22.1621 21.839C22.3226 22.0051 22.5413 22.1023 22.7721 22.11C25.0821 22.1525 27.3549 22.6986 29.4321 23.71C29.5238 23.7608 29.6248 23.7928 29.729 23.8042C29.8332 23.8156 29.9386 23.8061 30.0392 23.7763C30.1397 23.7465 30.2333 23.697 30.3145 23.6307C30.3957 23.5644 30.4629 23.4826 30.5121 23.39L30.5821 23.27C30.6602 23.1232 30.6906 22.9557 30.6691 22.7909C30.6476 22.626 30.5752 22.4719 30.4621 22.35C29.4795 21.3129 28.2738 20.5128 26.9363 20.0103C25.5988 19.5079 24.1646 19.3163 22.7421 19.45C22.5166 19.4653 22.3054 19.5657 22.1512 19.731C21.9971 19.8963 21.9116 20.114 21.9121 20.34Z" fill="black"/>
<path d="M21.9121 20.34V21.22C21.912 21.451 22.0016 21.6729 22.1621 21.839C22.3226 22.0051 22.5413 22.1023 22.7721 22.11C25.0821 22.1525 27.3549 22.6986 29.4321 23.71C29.5238 23.7608 29.6248 23.7928 29.729 23.8042C29.8332 23.8156 29.9386 23.8061 30.0392 23.7763C30.1397 23.7465 30.2333 23.697 30.3145 23.6307C30.3957 23.5644 30.4629 23.4826 30.5121 23.39L30.5821 23.27C30.6602 23.1232 30.6906 22.9557 30.6691 22.7909C30.6476 22.626 30.5752 22.4719 30.4621 22.35C29.4795 21.3129 28.2738 20.5128 26.9363 20.0103C25.5988 19.5079 24.1646 19.3163 22.7421 19.45C22.5166 19.4653 22.3054 19.5657 22.1512 19.731C21.9971 19.8963 21.9116 20.114 21.9121 20.34V20.34Z" stroke="black" stroke-linecap="round" stroke-linejoin="round"/>
<path d="M19.2335 25.6699C19.2335 25.6699 19.9035 31.0999 17.6035 34.7599C17.4604 34.9777 17.3712 35.2265 17.3434 35.4856C17.3155 35.7447 17.3499 36.0067 17.4435 36.2499L17.5235 36.4599C17.6402 36.777 17.8514 37.0506 18.1286 37.2437C18.4058 37.4368 18.7356 37.5402 19.0735 37.5399C19.7051 37.5509 20.3366 37.5175 20.9635 37.4399" stroke="black" stroke-linecap="round" stroke-linejoin="round"/>
<path d="M14.3852 30.609C15.1047 30.5333 15.6088 29.7194 15.5111 28.7912C15.4133 27.8629 14.7508 27.1719 14.0313 27.2476C13.3118 27.3234 12.8077 28.1372 12.9055 29.0655C13.0032 29.9937 13.6657 30.6848 14.3852 30.609Z" fill="black"/>
<path d="M26.2808 30.6153C27.0442 30.535 27.5788 29.6683 27.4747 28.6797C27.3706 27.691 26.6673 26.9548 25.9038 27.0351C25.1404 27.1155 24.6059 27.9821 24.7099 28.9708C24.814 29.9594 25.5173 30.6957 26.2808 30.6153Z" fill="black"/>
<path d="M14.3852 30.609C15.1047 30.5333 15.6088 29.7194 15.5111 28.7912C15.4133 27.8629 14.7508 27.1719 14.0313 27.2476C13.3118 27.3234 12.8077 28.1372 12.9055 29.0655C13.0032 29.9937 13.6657 30.6848 14.3852 30.609Z" stroke="black" stroke-linecap="round" stroke-linejoin="round"/>
<path d="M26.2808 30.6153C27.0442 30.535 27.5788 29.6683 27.4747 28.6797C27.3706 27.691 26.6673 26.9548 25.9038 27.0351C25.1404 27.1155 24.6059 27.9821 24.7099 28.9708C24.814 29.9594 25.5173 30.6957 26.2808 30.6153Z" stroke="black" stroke-linecap="round" stroke-linejoin="round"/>
<path d="M9.75289 38.4298C9.30574 36.4212 9.04132 34.3762 8.96289 32.3198" stroke="black" stroke-linecap="round" stroke-linejoin="round"/>
<path d="M19.9121 41.0498C20.7827 41.1067 21.6543 40.9549 22.4544 40.607C23.2545 40.2591 23.9599 39.7253 24.5121 39.0498C24.4869 39.7295 24.3083 40.3947 23.9897 40.9956C23.671 41.5965 23.2206 42.1176 22.6721 42.5198" stroke="black" stroke-linecap="round" stroke-linejoin="round"/>
<path d="M34.6719 37.3499C34.8407 35.4415 34.8941 33.5247 34.8319 31.6099" stroke="black" stroke-linecap="round" stroke-linejoin="round"/>
<path d="M36.3926 30.7301C36.4018 30.139 36.5677 29.561 36.8734 29.055C37.1791 28.549 37.6136 28.1332 38.1326 27.8501" stroke="black" stroke-linecap="round" stroke-linejoin="round"/>
<path d="M40.2827 16.58C38.3727 14.02 36.3927 11.86 36.3927 11.86L36.6027 11.13C36.9505 9.93645 36.8257 8.65482 36.2541 7.5508C35.6826 6.44677 34.7081 5.60501 33.5327 5.20001C26.5827 2.79001 21.5327 4.54001 21.5327 4.54001L21.0127 3.23001C20.6513 2.23239 19.9207 1.4116 18.9717 0.937076C18.0226 0.462556 16.9276 0.370536 15.9127 0.680013C12.6654 1.72765 9.59436 3.25813 6.8027 5.22001C6.00164 5.78212 5.42621 6.61042 5.17896 7.55728C4.93172 8.50413 5.02873 9.50802 5.4527 10.39L5.6527 10.83C4.25711 11.5987 3.06166 12.6846 2.1627 14C1.74134 14.6406 1.49636 15.381 1.45246 16.1465C1.40857 16.9119 1.56732 17.6755 1.9127 18.36L6.1527 27.05L8.5127 29.05L8.1727 22.05C8.07927 20.2645 8.42251 18.483 9.1727 16.86L9.7727 15.59C9.7727 15.59 10.5227 15.67 13.5627 16.21C16.0119 16.4466 18.481 16.3761 20.9127 16C21.6411 15.903 22.3375 15.6397 22.9479 15.2305C23.5583 14.8212 24.0663 14.277 24.4327 13.64L25.2727 12.19C25.5726 11.6764 26.036 11.278 26.5889 11.0587C27.1418 10.8394 27.7522 10.8117 28.3227 10.98L30.1327 11.53C30.6347 11.6979 31.0739 12.0145 31.3918 12.4378C31.7097 12.8611 31.8914 13.3711 31.9127 13.9C31.9627 14.96 32.0227 16.35 32.1227 17.74C32.3155 19.3259 32.993 20.8136 34.0627 22C34.2763 22.2557 34.4085 22.5695 34.4424 22.9009C34.4763 23.2324 34.4102 23.5664 34.2527 23.86C33.9647 24.4109 33.6301 24.9361 33.2527 25.43C32.1027 26.92 32.7027 29.49 32.7027 29.49H34.7027L34.8727 28.67C34.9835 28.145 35.233 27.6594 35.5954 27.2636C35.9577 26.8679 36.4195 26.5766 36.9327 26.42L38.5527 25.93H38.7527L40.6027 22.73C41.1587 21.7866 41.4248 20.7005 41.3679 19.6069C41.311 18.5133 40.9336 17.4606 40.2827 16.58Z" fill="black"/>
<path d="M40.2827 16.58C38.3727 14.02 36.3927 11.86 36.3927 11.86L36.6027 11.13C36.9505 9.93645 36.8257 8.65482 36.2541 7.5508C35.6826 6.44677 34.7081 5.60501 33.5327 5.20001C26.5827 2.79001 21.5327 4.54001 21.5327 4.54001L21.0127 3.23001C20.6513 2.23239 19.9207 1.4116 18.9717 0.937076C18.0226 0.462556 16.9276 0.370536 15.9127 0.680013C12.6654 1.72765 9.59436 3.25813 6.8027 5.22001C6.00164 5.78212 5.42621 6.61042 5.17896 7.55728C4.93172 8.50413 5.02873 9.50802 5.4527 10.39L5.6527 10.83C4.25711 11.5987 3.06166 12.6846 2.1627 14C1.74134 14.6406 1.49636 15.381 1.45246 16.1465C1.40857 16.9119 1.56732 17.6755 1.9127 18.36L6.1527 27.05L8.5127 29.05L8.1727 22.05C8.07927 20.2645 8.42252 18.483 9.1727 16.86L9.7727 15.59C9.7727 15.59 10.5227 15.67 13.5627 16.21C16.0119 16.4466 18.481 16.3761 20.9127 16C21.6411 15.903 22.3375 15.6397 22.9479 15.2305C23.5583 14.8212 24.0663 14.277 24.4327 13.64L25.2727 12.19C25.5726 11.6764 26.036 11.278 26.5889 11.0587C27.1418 10.8394 27.7522 10.8117 28.3227 10.98L30.1327 11.53C30.6347 11.6979 31.0739 12.0145 31.3918 12.4378C31.7097 12.8611 31.8914 13.3711 31.9127 13.9C31.9627 14.96 32.0227 16.35 32.1227 17.74C32.3155 19.3259 32.993 20.8136 34.0627 22C34.2763 22.2557 34.4085 22.5695 34.4424 22.9009C34.4763 23.2324 34.4102 23.5664 34.2527 23.86C33.9647 24.4109 33.6301 24.9361 33.2527 25.43C32.1027 26.92 32.7027 29.49 32.7027 29.49H34.7027L34.8727 28.67C34.9835 28.145 35.233 27.6594 35.5954 27.2636C35.9577 26.8679 36.4195 26.5766 36.9327 26.42L38.5527 25.93H38.7527L40.6027 22.73C41.1587 21.7866 41.4248 20.7005 41.3679 19.6069C41.311 18.5133 40.9336 17.4606 40.2827 16.58Z" stroke="black" stroke-linecap="round" stroke-linejoin="round"/>
<path d="M36.3927 11.86L36.6027 11.13C36.9505 9.93645 36.8257 8.65482 36.2541 7.5508C35.6826 6.44677 34.7081 5.60501 33.5327 5.20001C26.5827 2.79001 21.5327 4.54001 21.5327 4.54001L21.0127 3.23001C20.6513 2.23239 19.9207 1.4116 18.9717 0.937076C18.0226 0.462556 16.9276 0.370536 15.9127 0.680013C12.6654 1.72765 9.59436 3.25813 6.8027 5.22001C6.00164 5.78212 5.42621 6.61042 5.17896 7.55728C4.93172 8.50413 5.02873 9.50802 5.4527 10.39L5.6527 10.83C4.25711 11.5987 3.06166 12.6846 2.1627 14C1.74134 14.6406 1.49636 15.381 1.45246 16.1465C1.40857 16.9119 1.56732 17.6755 1.9127 18.36" stroke="white" stroke-linecap="round" stroke-linejoin="round"/>
</g>
<defs>
<clipPath id="clip0_1957_270621">
<rect width="40.97" height="52.07" fill="white" transform="translate(0.912109)"/>
</clipPath>
</defs>
</svg>
