<svg width="39" height="56" viewBox="0 0 39 56" fill="none" xmlns="http://www.w3.org/2000/svg">
<g clip-path="url(#clip0_1539_631231)">
<path d="M12.9798 14.1118C18.1233 13.3415 23.3697 13.611 28.4065 14.9042C29.3184 15.1217 30.2013 15.4457 31.0371 15.8694C32.0149 14.9615 32.8777 13.9379 33.6065 12.8215C34.2716 11.8574 34.6939 10.7478 34.8377 9.58669C34.9814 8.42554 34.8424 7.24697 34.4323 6.1507C34.0222 5.05442 33.3532 4.07269 32.4818 3.28857C31.6104 2.50445 30.5623 1.941 29.4261 1.6459C26.0028 0.762556 22.4676 0.386002 18.9343 0.528338C17.6647 0.556841 16.4209 0.891009 15.3089 1.50232C14.197 2.11363 13.2501 2.98394 12.5489 4.03895C11.8477 5.09397 11.4131 6.30237 11.2822 7.56103C11.1513 8.81968 11.3279 10.0912 11.7971 11.2671L12.9798 14.1118Z" fill="black"/>
<path d="M15.6324 1.35107C13.8686 2.22989 12.5008 3.73712 11.8001 5.57383C11.0994 7.41054 11.1171 9.44257 11.8496 11.2669L12.9814 14.1116" stroke="white" stroke-linecap="round" stroke-linejoin="round"/>
<path d="M28.4077 14.9042C29.3196 15.1217 30.2026 15.4457 31.0383 15.8694C32.0161 14.9615 32.879 13.9379 33.6077 12.8215C34.2729 11.8574 34.6952 10.7478 34.8389 9.58669C34.9827 8.42554 34.8436 7.24697 34.4336 6.1507C34.0235 5.05442 33.3544 4.07269 32.483 3.28857C31.6116 2.50445 30.5635 1.941 29.4273 1.6459C26.004 0.762556 22.4689 0.386002 18.9355 0.528338" stroke="white" stroke-linecap="round" stroke-linejoin="round"/>
<path d="M30.2109 5.2627C30.2109 5.2627 33.6266 7.88389 30.2109 12.9434" stroke="white" stroke-linecap="round" stroke-linejoin="round"/>
<path d="M5.86413 32.511C5.86413 32.511 5.51746 38.3935 6.9755 42.1526C8.43354 45.9116 7.48531 47.3543 10.5645 50.9407C11.6657 52.2176 12.8658 53.4065 14.1535 54.4965C14.7887 55.0261 15.5606 55.3669 16.381 55.48C17.2013 55.5932 18.0371 55.4742 18.7928 55.1366C21.4387 53.9986 23.9602 52.5926 26.3175 50.9407C30.3959 47.9537 31.4155 45.6475 31.4155 43.1787V41.6547C31.4155 41.6547 33.4547 41.9697 34.7904 38.9319C36.1261 35.8942 37.3802 32.1148 35.4022 32.1148C33.4241 32.1148 32.1292 34.2382 32.1292 34.2382C32.1292 34.2382 24.472 33.527 25.4916 24.3833C22.8995 25.3594 20.039 25.3594 17.4469 24.3833C13.1441 22.7476 12.0532 17.9116 12.0532 17.9116C11.0241 18.3952 10.1615 19.1712 9.57368 20.1419C8.9859 21.1126 8.6992 22.2348 8.74962 23.3674C8.87846 26.6561 7.85869 29.8876 5.86413 32.511Z" fill="white"/>
<path d="M6.9754 42.1219C6.78069 41.6116 6.62059 41.0889 6.49618 40.5573C5.72682 40.3663 4.98128 40.0903 4.27344 39.7344C4.27344 39.7344 4.27344 41.9695 5.70089 42.4775C5.9232 42.5609 6.16065 42.5968 6.39781 42.5828C6.63496 42.5688 6.8665 42.5052 7.07736 42.3962C7.03657 42.3048 7.00599 42.2133 6.9754 42.1219Z" fill="black"/>
<path d="M5.86413 32.5107C5.86413 32.5107 5.51746 38.3932 6.9755 42.1523C8.43354 45.9113 7.48531 47.354 10.5645 50.9403C11.6657 52.2173 12.8658 53.4062 14.1535 54.4962C14.7887 55.0257 15.5606 55.3666 16.381 55.4797C17.2013 55.5929 18.0371 55.4739 18.7928 55.1363C21.4387 53.9983 23.9602 52.5923 26.3175 50.9403C30.3959 47.9534 31.4155 45.6472 31.4155 43.1784" stroke="black" stroke-linecap="round" stroke-linejoin="round"/>
<path d="M31.4567 41.6547C31.4567 41.6547 33.4959 41.9697 34.8316 38.9319C36.1673 35.8942 37.4214 32.1148 35.4433 32.1148C33.4653 32.1148 32.1704 34.2382 32.1704 34.2382C32.1704 34.2382 24.4724 33.527 25.492 24.3833C22.8999 25.3593 20.0394 25.3593 17.4473 24.3833" stroke="black" stroke-linecap="round" stroke-linejoin="round"/>
<path d="M37.1451 24.7288L37.3083 23.9262C37.9274 20.9088 37.3449 17.7697 35.6839 15.1724C34.0228 12.5751 31.4134 10.723 28.4071 10.0075C19.4346 7.87398 12.695 8.82899 8.06593 10.4444C5.83486 11.2323 3.96501 12.7977 2.80132 14.8516C1.63763 16.9055 1.25861 19.3095 1.73417 21.62L2.1624 23.6519C2.51803 25.44 2.30414 27.2942 1.55064 28.9553C-0.488577 33.649 0.153776 38.8711 6.49574 40.4966C5.93672 37.8255 5.72426 35.0939 5.86358 32.3689C7.85814 29.7455 8.8779 26.514 8.74907 23.2252C8.69597 22.0831 8.98579 20.9511 9.58149 19.9739C10.1772 18.9966 11.0517 18.2186 12.0934 17.739C12.0934 17.739 13.1844 22.575 17.4871 24.2107C20.046 25.2325 22.8901 25.2938 25.491 24.3834C24.4714 33.5271 32.1695 34.2789 32.1695 34.2789C32.1695 34.2789 33.4644 32.1556 35.4424 32.1556C36.4008 32.1556 36.5844 33.0598 36.3702 34.3399C40.6424 28.7825 37.1451 24.7288 37.1451 24.7288Z" fill="black"/>
<path d="M15.6314 8.88965C13.0535 9.08474 10.5111 9.60711 8.06593 10.4441C5.83486 11.232 3.96501 12.7974 2.80132 14.8513C1.63763 16.9052 1.25861 19.3092 1.73417 21.6197L2.1624 23.6516C2.51803 25.4397 2.30414 27.2939 1.55064 28.955C-0.488577 33.6487 0.153776 38.8708 6.49574 40.4963C5.93672 37.8252 5.72426 35.0936 5.86358 32.3686C7.85814 29.7452 8.87791 26.5137 8.74907 23.2249C8.70878 21.7816 9.19002 20.3719 10.1051 19.2525" stroke="black" stroke-linecap="round" stroke-linejoin="round"/>
<path d="M12.0938 17.8709C12.0938 17.8709 13.1847 22.7069 17.4875 24.3426C20.0625 25.3215 22.9065 25.336 25.4914 24.3832C24.4718 33.5269 32.1698 34.2787 32.1698 34.2787C32.1698 34.2787 33.4647 32.1554 35.4428 32.1554C36.4012 32.1554 36.5847 33.0596 36.3706 34.3397C40.6326 28.7824 37.1353 24.7287 37.1353 24.7287L37.2985 23.926C37.9176 20.9086 37.3351 17.7695 35.674 15.1722C34.013 12.5749 31.4036 10.7228 28.3973 10.0073" stroke="black" stroke-linecap="round" stroke-linejoin="round"/>
<path d="M15.0815 35.5586C15.0815 35.5586 15.7035 41.6544 13.8784 45.4135C13.8197 45.5341 13.7927 45.6676 13.8 45.8015C13.8072 45.9354 13.8484 46.0652 13.9197 46.1789C13.991 46.2926 14.0901 46.3864 14.2077 46.4515C14.3253 46.5166 14.4575 46.551 14.5921 46.5513H16.407" stroke="black" stroke-linecap="round" stroke-linejoin="round"/>
<path d="M20.9504 38.2342C21.4498 38.1483 21.7599 37.5318 21.6431 36.8573C21.5263 36.1827 21.0268 35.7054 20.5273 35.7913C20.0279 35.8772 19.7177 36.4936 19.8346 37.1682C19.9514 37.8428 20.4509 38.32 20.9504 38.2342Z" fill="black"/>
<path d="M20.9504 38.2342C21.4498 38.1483 21.7599 37.5318 21.6431 36.8573C21.5263 36.1827 21.0268 35.7054 20.5273 35.7913C20.0279 35.8772 19.7177 36.4936 19.8346 37.1682C19.9514 37.8428 20.4509 38.32 20.9504 38.2342Z" stroke="black" stroke-linecap="round" stroke-linejoin="round"/>
<path d="M11.4308 38.0418C11.9302 37.9559 12.2404 37.3394 12.1236 36.6649C12.0068 35.9903 11.5072 35.513 11.0078 35.5989C10.5084 35.6848 10.1982 36.3012 10.315 36.9758C10.4318 37.6504 10.9314 38.1276 11.4308 38.0418Z" fill="black"/>
<path d="M11.4308 38.0418C11.9302 37.9559 12.2404 37.3394 12.1236 36.6649C12.0068 35.9903 11.5072 35.513 11.0078 35.5989C10.5084 35.6848 10.1982 36.3012 10.315 36.9758C10.4318 37.6504 10.9314 38.1276 11.4308 38.0418Z" stroke="black" stroke-linecap="round" stroke-linejoin="round"/>
<path d="M32.6289 37.1944C32.6289 37.1944 33.3222 34.7256 34.7497 33.9941" stroke="black" stroke-linecap="round" stroke-linejoin="round"/>
<path d="M4.27344 39.7344C4.27344 39.7344 4.27344 41.9797 5.70089 42.4775" stroke="black" stroke-linecap="round" stroke-linejoin="round"/>
<path d="M7.47461 33.9941C9.48964 34.1078 11.481 33.5147 13.1028 32.3178V30.6211C11.3381 31.9204 9.45359 33.0498 7.47461 33.9941Z" fill="black"/>
<path d="M7.47461 33.9941C9.48964 34.1078 11.481 33.5147 13.1028 32.3178V30.6211C11.3381 31.9204 9.45359 33.0498 7.47461 33.9941V33.9941Z" stroke="black" stroke-linecap="round" stroke-linejoin="round"/>
<path d="M24.9303 33.7909C22.5463 33.7657 20.1879 33.2971 17.9766 32.4092V30.6211C17.9766 30.6211 20.393 31.8809 24.9303 33.7909Z" stroke="black" stroke-linecap="round" stroke-linejoin="round"/>
<path d="M24.9303 33.7909C22.5463 33.7657 20.1879 33.2971 17.9766 32.4092V30.6211C17.9766 30.6211 20.393 31.8809 24.9303 33.7909Z" fill="black"/>
<path d="M12.093 17.8711C11.5834 16.3044 11.3086 14.6715 11.2773 13.0249" stroke="black" stroke-linecap="round" stroke-linejoin="round"/>
<path d="M15.6309 19.3032C15.6309 19.3032 17.1297 22.981 22.5948 22.1987" stroke="black" stroke-linecap="round" stroke-linejoin="round"/>
<path d="M5.86271 32.5107C5.27555 33.4288 4.50928 34.22 3.60938 34.8373" stroke="black" stroke-linecap="round" stroke-linejoin="round"/>
<path d="M14.2754 49.518C14.2754 49.518 15.8762 48.2074 18.4762 49.518" stroke="black" stroke-linecap="round" stroke-linejoin="round"/>
</g>
<defs>
<clipPath id="clip0_1539_631231">
<rect width="39" height="56" fill="white"/>
</clipPath>
</defs>
</svg>
