<svg width="39" height="56" viewBox="0 0 39 56" fill="none" xmlns="http://www.w3.org/2000/svg">
<path d="M13.2256 14.3989C18.2702 13.6407 23.4158 13.9059 28.3556 15.1789C29.25 15.3929 30.116 15.7118 30.9356 16.1289C31.8946 15.2352 32.7409 14.2277 33.4556 13.1289C34.108 12.1799 34.5222 11.0878 34.6632 9.94486C34.8042 8.80196 34.6678 7.64191 34.2656 6.56286C33.8634 5.48381 33.2073 4.51751 32.3526 3.74571C31.498 2.97391 30.47 2.41932 29.3556 2.12885C25.9982 1.25939 22.531 0.888754 19.0656 1.02885C17.8204 1.05691 16.6005 1.38583 15.51 1.98753C14.4195 2.58924 13.4907 3.44586 12.803 4.4843C12.1153 5.52274 11.6891 6.71215 11.5607 7.95103C11.4323 9.1899 11.6055 10.4415 12.0656 11.5989L13.2256 14.3989Z" fill="black"/>
<path d="M15.8242 1.83887C14.0944 2.70387 12.7528 4.18741 12.0656 5.99526C11.3784 7.80311 11.3958 9.80321 12.1142 11.5989L13.2242 14.3989" stroke="white" stroke-linecap="round" stroke-linejoin="round"/>
<path d="M28.3545 15.1789C29.2488 15.3929 30.1148 15.7118 30.9345 16.1289C31.8935 15.2352 32.7397 14.2277 33.4545 13.1289C34.1068 12.1799 34.521 11.0878 34.662 9.94486C34.803 8.80196 34.6666 7.64191 34.2644 6.56286C33.8622 5.48381 33.2061 4.51751 32.3514 3.74571C31.4968 2.97391 30.4688 2.41932 29.3545 2.12885C25.997 1.25939 22.5298 0.888754 19.0645 1.02885" stroke="white" stroke-linecap="round" stroke-linejoin="round"/>
<path d="M30.125 5.68896C30.125 5.68896 33.475 8.26896 30.125 13.249" stroke="white" stroke-linecap="round" stroke-linejoin="round"/>
<path d="M6.2443 32.5087C6.2443 32.5087 5.9043 38.2987 7.3343 41.9987C8.7643 45.6987 7.8343 47.1187 10.8543 50.6487C11.9343 51.9056 13.1113 53.0758 14.3743 54.1487C14.9973 54.6699 15.7543 55.0053 16.5589 55.1167C17.3634 55.2281 18.1831 55.111 18.9243 54.7787C21.5194 53.6586 23.9924 52.2747 26.3043 50.6487C30.3043 47.7087 31.3043 45.4387 31.3043 43.0087V41.5087C31.3043 41.5087 33.3043 41.8187 34.6143 38.8287C35.9243 35.8387 37.1543 32.1187 35.2143 32.1187C33.2743 32.1187 32.0043 34.2087 32.0043 34.2087C32.0043 34.2087 24.4943 33.5087 25.4943 24.5087C22.952 25.4694 20.1466 25.4694 17.6043 24.5087C13.3843 22.8987 12.3143 18.1387 12.3143 18.1387C11.305 18.6147 10.459 19.3784 9.88251 20.3339C9.30603 21.2893 9.02485 22.3939 9.0743 23.5087C9.20065 26.7457 8.2005 29.9265 6.2443 32.5087Z" fill="white"/>
<path d="M7.33555 41.9687C7.14458 41.4664 6.98756 40.9519 6.86555 40.4286C6.11098 40.2407 5.37978 39.969 4.68555 39.6187C4.68555 39.6187 4.68555 41.8187 6.08555 42.3187C6.30358 42.4008 6.53647 42.4361 6.76906 42.4224C7.00166 42.4086 7.22874 42.346 7.43555 42.2387C7.39555 42.1487 7.36555 42.0587 7.33555 41.9687Z" fill="white"/>
<path d="M6.2443 32.5088C6.2443 32.5088 5.9043 38.2988 7.3343 41.9988C8.7643 45.6988 7.8343 47.1188 10.8543 50.6488C11.9343 51.9057 13.1113 53.0759 14.3743 54.1488C14.9973 54.67 15.7543 55.0055 16.5589 55.1169C17.3634 55.2283 18.1831 55.1111 18.9243 54.7788C21.5194 53.6587 23.9924 52.2748 26.3043 50.6488C30.3043 47.7088 31.3043 45.4388 31.3043 43.0088" stroke="black" stroke-linecap="round" stroke-linejoin="round"/>
<path d="M31.3455 41.5088C31.3455 41.5088 33.3455 41.8188 34.6555 38.8288C35.9655 35.8388 37.1955 32.1188 35.2555 32.1188C33.3155 32.1188 32.0455 34.2088 32.0455 34.2088C32.0455 34.2088 24.4955 33.5088 25.4955 24.5088C22.9532 25.4695 20.1477 25.4695 17.6055 24.5088" stroke="black" stroke-linecap="round" stroke-linejoin="round"/>
<path d="M36.9251 24.8487L37.0851 24.0587C37.6923 21.0887 37.121 17.999 35.4919 15.4424C33.8629 12.8859 31.3036 11.0629 28.3551 10.3587C19.5551 8.25872 12.9451 9.19872 8.40511 10.7887C6.21694 11.5643 4.38305 13.105 3.24174 15.1267C2.10043 17.1483 1.72869 19.5145 2.19511 21.7887L2.61511 23.7887C2.96389 25.5487 2.75412 27.3737 2.01511 29.0087C0.01511 33.6287 0.64511 38.7687 6.86511 40.3687C6.31684 37.7396 6.10847 35.0509 6.24511 32.3687C8.20131 29.7865 9.20147 26.6058 9.07511 23.3687C9.02303 22.2445 9.30727 21.1303 9.89152 20.1685C10.4758 19.2066 11.3335 18.4407 12.3551 17.9687C12.3551 17.9687 13.4251 22.7287 17.6451 24.3387C20.1548 25.3444 22.9442 25.4048 25.4951 24.5087C24.4951 33.5087 32.0451 34.2487 32.0451 34.2487C32.0451 34.2487 33.3151 32.1587 35.2551 32.1587C36.1951 32.1587 36.3751 33.0487 36.1651 34.3087C40.3551 28.8387 36.9251 24.8487 36.9251 24.8487Z" fill="black"/>
<path d="M15.8251 9.25879C13.2967 9.45082 10.8032 9.96497 8.40511 10.7888C6.21694 11.5644 4.38305 13.1051 3.24174 15.1267C2.10043 17.1484 1.72869 19.5146 2.19511 21.7888L2.61511 23.7888C2.96389 25.5488 2.75412 27.3738 2.01511 29.0088C0.01511 33.6288 0.64511 38.7688 6.86511 40.3688C6.31684 37.7397 6.10847 35.051 6.24511 32.3688C8.20131 29.7866 9.20147 26.6059 9.07511 23.3688C9.0356 21.9482 9.50758 20.5606 10.4051 19.4588" stroke="black" stroke-linecap="round" stroke-linejoin="round"/>
<path d="M12.3555 18.0989C12.3555 18.0989 13.4255 22.8589 17.6455 24.4689C20.1709 25.4324 22.9603 25.4467 25.4955 24.5089C24.4955 33.5089 32.0455 34.2489 32.0455 34.2489C32.0455 34.2489 33.3155 32.1589 35.2555 32.1589C36.1955 32.1589 36.3755 33.0489 36.1655 34.3089C40.3455 28.8389 36.9155 24.8489 36.9155 24.8489L37.0755 24.0589C37.6827 21.0889 37.1114 17.9991 35.4823 15.4426C33.8532 12.8861 31.294 11.0631 28.3455 10.3589" stroke="black" stroke-linecap="round" stroke-linejoin="round"/>
<path d="M15.2853 35.5088C15.2853 35.5088 15.8953 41.5088 14.1053 45.2088C14.0478 45.3275 14.0214 45.459 14.0285 45.5907C14.0356 45.7225 14.076 45.8503 14.1459 45.9622C14.2158 46.0741 14.313 46.1664 14.4284 46.2305C14.5437 46.2946 14.6734 46.3285 14.8053 46.3288H16.5853" stroke="black" stroke-linecap="round" stroke-linejoin="round"/>
<path d="M11.7827 37.6638C12.2786 37.6289 12.635 36.9531 12.5789 36.1542C12.5227 35.3554 12.0753 34.736 11.5794 34.7709C11.0836 34.8057 10.7272 35.4816 10.7833 36.2804C10.8394 37.0793 11.2869 37.6986 11.7827 37.6638Z" fill="black"/>
<path d="M11.7827 37.6638C12.2786 37.6289 12.635 36.9531 12.5789 36.1542C12.5227 35.3554 12.0753 34.736 11.5794 34.7709C11.0836 34.8057 10.7272 35.4816 10.7833 36.2804C10.8394 37.0793 11.2869 37.6986 11.7827 37.6638Z" stroke="black" stroke-linecap="round" stroke-linejoin="round"/>
<path d="M32.4941 37.1188C32.4941 37.1188 33.1741 34.6888 34.5741 33.9688" stroke="black" stroke-linecap="round" stroke-linejoin="round"/>
<path d="M4.68555 39.6187C4.68555 39.6187 4.68555 41.8287 6.08555 42.3187" stroke="black" stroke-linecap="round" stroke-linejoin="round"/>
<path d="M8.11523 32.3188C9.01314 31.7033 10.0548 31.3302 11.1393 31.2356C12.2238 31.141 13.3143 31.3281 14.3052 31.7788L14.6252 30.5588C14.6252 30.5588 9.93523 28.7788 8.11523 32.3188Z" fill="black"/>
<path d="M8.11523 32.3188C9.01314 31.7033 10.0548 31.3302 11.1393 31.2356C12.2238 31.141 13.3143 31.3281 14.3052 31.7788L14.6252 30.5588C14.6252 30.5588 9.93523 28.7788 8.11523 32.3188Z" stroke="black" stroke-linecap="round" stroke-linejoin="round"/>
<path d="M25.3047 33.3388C25.3047 33.3388 20.3047 33.6888 17.3047 31.4688V32.7788C19.8041 33.9723 22.6634 34.1725 25.3047 33.3388Z" fill="black"/>
<path d="M25.3047 33.3388C25.3047 33.3388 20.3047 33.6888 17.3047 31.4688V32.7788C19.8041 33.9723 22.6634 34.1725 25.3047 33.3388V33.3388Z" stroke="black" stroke-linecap="round" stroke-linejoin="round"/>
<path d="M12.3547 18.0986C11.8549 16.5566 11.5853 14.9493 11.5547 13.3286" stroke="black" stroke-linecap="round" stroke-linejoin="round"/>
<path d="M15.8242 19.5088C15.8242 19.5088 17.2942 23.1288 22.6542 22.3588" stroke="black" stroke-linecap="round" stroke-linejoin="round"/>
<path d="M6.24516 32.5088C5.66929 33.4124 4.91775 34.1912 4.03516 34.7988" stroke="black" stroke-linecap="round" stroke-linejoin="round"/>
<path d="M23.135 36.6187C22.0251 37.0904 20.831 37.332 19.625 37.3287C20.7948 37.4119 21.9483 37.6507 23.055 38.0387" stroke="black" stroke-linecap="round" stroke-linejoin="round"/>
<path d="M16.0352 48.5591C17.4661 48.7491 18.9161 48.3919 20.0952 47.5591C19.9972 48.1906 19.7297 48.7836 19.3211 49.275C18.9125 49.7664 18.3782 50.1376 17.7752 50.3491" stroke="black" stroke-linecap="round" stroke-linejoin="round"/>
</svg>
