<svg width="51" height="49" viewBox="0 0 51 49" fill="none" xmlns="http://www.w3.org/2000/svg">
<g clip-path="url(#clip0_1539_1094170)">
<path d="M35.5995 16.998L35.0695 21.298C31.4992 21.9723 27.873 22.3071 24.2395 22.298L23.0195 19.298L22.6395 22.298C18.9089 22.2608 15.1871 21.9264 11.5095 21.298C11.3323 22.9032 11.3323 24.5229 11.5095 26.128C11.8395 27.848 10.9095 29.828 11.5095 33.338C11.7895 34.988 12.2895 37.098 12.7495 38.848C13.4396 41.5404 14.9833 43.9367 17.1495 45.678C17.8689 46.2639 18.6237 46.8049 19.4095 47.298C20.8668 48.2177 22.5426 48.733 24.2648 48.791C25.987 48.8489 27.6937 48.4476 29.2095 47.628C31.274 46.5061 33.1255 45.0304 34.6795 43.268C36.7881 40.852 37.9155 37.7339 37.8395 34.528C37.7495 29.678 37.3295 21.498 35.5995 16.998Z" fill="white"/>
<path d="M34.6795 43.338C36.7881 40.922 37.9155 37.8039 37.8395 34.598C37.7495 29.678 37.3295 21.478 35.5995 16.998L35.0695 21.298C31.4992 21.9723 27.873 22.3071 24.2395 22.298L23.0195 19.298L22.6395 22.298C18.9089 22.2608 15.1871 21.9264 11.5095 21.298C11.3323 22.9032 11.3323 24.5229 11.5095 26.128C11.8395 27.848 10.9095 29.828 11.5095 33.338C11.7895 34.988 12.2895 37.098 12.7495 38.848C13.4396 41.5404 14.9833 43.9367 17.1495 45.678C17.8689 46.2639 18.6237 46.8049 19.4095 47.298C20.8668 48.2177 22.5426 48.733 24.2648 48.791C25.987 48.8489 27.6937 48.4476 29.2095 47.628C30.6832 46.8251 32.0505 45.8408 33.2795 44.698" stroke="black" stroke-linecap="round" stroke-linejoin="round"/>
<path d="M8.87 38.8479L7.76 43.0779C11.76 46.7279 13.26 48.3079 13.26 48.3079V40.4979C13.0553 39.9888 12.8817 39.4679 12.74 38.9379C12.28 37.1879 11.74 35.0779 11.5 33.4279C10.9 29.9179 11.83 27.9379 11.5 26.2179C11.3227 24.6127 11.3227 22.993 11.5 21.3879C15.1776 22.0163 18.8993 22.3506 22.63 22.3879L23.01 19.3879L24.23 22.3879C27.8635 22.3969 31.4896 22.0621 35.06 21.3879L35.59 17.0879C37.32 21.5679 37.74 29.7679 37.83 34.6879V48.3079C43.83 44.2579 45.32 40.6279 47.52 36.8079L45.52 32.6879C46.4497 33.5638 47.446 34.3662 48.5 35.0879C50.1 31.9079 49.5 30.8179 49.5 30.8179C42.89 26.7279 43.81 16.3479 42.95 11.6179C42.7172 10.3136 42.2145 9.07227 41.474 7.9736C40.7335 6.87493 39.7716 5.9431 38.65 5.23786C26.97 -1.97214 17.2 1.49786 11.76 4.81786C10.3791 5.67165 9.20636 6.82314 8.32746 8.1882C7.44857 9.55326 6.8857 11.0974 6.68 12.7079C4.59 28.3279 1 33.9679 1 33.9679C2.33767 36.8043 4.13147 39.4021 6.31 41.6579C7.30117 40.8567 8.16442 39.9092 8.87 38.8479Z" fill="black"/>
<path d="M8.87 38.8479L7.76 43.0779C11.76 46.7279 13.26 48.3079 13.26 48.3079V40.4979C13.0553 39.9888 12.8817 39.4679 12.74 38.9379C12.28 37.1879 11.74 35.0779 11.5 33.4279C10.9 29.9179 11.83 27.9379 11.5 26.2179C11.3227 24.6127 11.3227 22.993 11.5 21.3879C15.1776 22.0163 18.8993 22.3506 22.63 22.3879L23.01 19.3879L24.23 22.3879C27.8635 22.3969 31.4896 22.0621 35.06 21.3879L35.59 17.0879C37.32 21.5679 37.74 29.7679 37.83 34.6879V48.3079C43.83 44.2579 45.32 40.6279 47.52 36.8079L45.52 32.6879C46.4497 33.5638 47.446 34.3662 48.5 35.0879C50.1 31.9079 49.5 30.8179 49.5 30.8179C42.89 26.7279 43.81 16.3479 42.95 11.6179C42.7172 10.3136 42.2145 9.07227 41.474 7.9736C40.7335 6.87493 39.7716 5.9431 38.65 5.23786C26.97 -1.97214 17.2 1.49786 11.76 4.81786C10.3791 5.67165 9.20636 6.82314 8.32746 8.1882C7.44856 9.55326 6.8857 11.0974 6.68 12.7079C4.59 28.3279 1 33.9679 1 33.9679C2.33767 36.8043 4.13147 39.4021 6.31 41.6579C7.30117 40.8567 8.16442 39.9092 8.87 38.8479V38.8479Z" stroke="black" stroke-linecap="round" stroke-linejoin="round"/>
<path d="M8.96019 25.0679V33.3179C8.12255 32.8878 7.40785 32.252 6.88313 31.4702C6.3584 30.6883 6.04083 29.786 5.96019 28.8479C5.88019 25.7579 7.33019 25.0679 8.96019 25.0679Z" fill="white"/>
<path d="M8.96019 25.0679V33.3179C8.12255 32.8878 7.40785 32.252 6.88313 31.4702C6.3584 30.6883 6.04083 29.786 5.96019 28.8479C5.88019 25.7579 7.33019 25.0679 8.96019 25.0679Z" stroke="black" stroke-linecap="round" stroke-linejoin="round"/>
<path d="M40.6797 31.8577C40.7546 29.2578 40.5872 26.6565 40.1797 24.0877C40.1797 24.0877 43.0997 22.6877 43.4697 26.4277C43.571 27.5046 43.3622 28.5881 42.8679 29.5502C42.3735 30.5123 41.6143 31.313 40.6797 31.8577Z" fill="white"/>
<path d="M40.6797 31.8577C40.7546 29.2578 40.5872 26.6565 40.1797 24.0877C40.1797 24.0877 43.0997 22.6877 43.4697 26.4277C43.571 27.5046 43.3622 28.5881 42.8679 29.5502C42.3735 30.5123 41.6143 31.313 40.6797 31.8577V31.8577Z" stroke="black" stroke-linecap="round" stroke-linejoin="round"/>
<path d="M23.9502 39.5977C23.9502 39.5977 23.9502 39.5977 23.1402 39.5977C22.8669 39.5728 22.6026 39.4872 22.3667 39.347C22.1308 39.2068 21.9293 39.0156 21.7768 38.7874C21.6244 38.5592 21.5249 38.2998 21.4857 38.0282C21.4465 37.7566 21.4685 37.4797 21.5502 37.2177C22.0987 35.5726 22.4184 33.8599 22.5002 32.1277V28.3877H36.0602" stroke="black" stroke-linecap="round" stroke-linejoin="round"/>
<path d="M25.0391 28.3877L26.9191 34.4977C27.0562 34.9419 27.3323 35.3303 27.7067 35.6057C28.0812 35.8812 28.5342 36.0291 28.9991 36.0277H32.8091C33.3846 36.0277 33.9365 35.7991 34.3435 35.3921C34.7504 34.9852 34.9791 34.4332 34.9791 33.8577V28.3877" stroke="black" stroke-linecap="round" stroke-linejoin="round"/>
<path d="M22.4991 28.3877H12.6191" stroke="black" stroke-linecap="round" stroke-linejoin="round"/>
<path d="M22.2107 34.6177C22.1222 35.0125 21.9073 35.3676 21.5987 35.6293C21.2901 35.891 20.9047 36.0449 20.5007 36.0677H16.3507C15.7212 36.0677 15.1174 35.8183 14.6713 35.3741C14.2253 34.93 13.9733 34.3272 13.9707 33.6977V28.3877" stroke="black" stroke-linecap="round" stroke-linejoin="round"/>
<path d="M25.5 23.5679V25.1779C25.5 25.1779 30.58 24.9179 33.99 26.1079C33.94 26.1079 31.88 23.5679 25.5 23.5679Z" fill="black"/>
<path d="M25.5 23.5679V25.1779C25.5 25.1779 30.58 24.9179 33.99 26.1079C33.94 26.1079 31.88 23.5679 25.5 23.5679Z" stroke="black" stroke-linecap="round" stroke-linejoin="round"/>
<path d="M21.8206 23.7277V25.3777C20.3983 25.2864 18.9702 25.3467 17.5606 25.5577C16.181 25.79 14.7884 25.9369 13.3906 25.9977C15.8048 24.1864 18.8234 23.3736 21.8206 23.7277Z" fill="black"/>
<path d="M21.8206 23.7277V25.3777C20.3983 25.2864 18.9702 25.3467 17.5606 25.5577C16.181 25.79 14.7884 25.9369 13.3906 25.9977C15.8048 24.1864 18.8234 23.3736 21.8206 23.7277V23.7277Z" stroke="black" stroke-linecap="round" stroke-linejoin="round"/>
<path d="M22.5 42.1079C23.2389 42.501 24.063 42.7066 24.9 42.7066C25.737 42.7066 26.5611 42.501 27.3 42.1079" stroke="black" stroke-linecap="round" stroke-linejoin="round"/>
<path d="M30.0095 31.8379C30.6944 31.8379 31.2495 31.0634 31.2495 30.1079C31.2495 29.1525 30.6944 28.3779 30.0095 28.3779C29.3247 28.3779 28.7695 29.1525 28.7695 30.1079C28.7695 31.0634 29.3247 31.8379 30.0095 31.8379Z" fill="black"/>
<path d="M30.0095 31.8379C30.6944 31.8379 31.2495 31.0634 31.2495 30.1079C31.2495 29.1525 30.6944 28.3779 30.0095 28.3779C29.3247 28.3779 28.7695 29.1525 28.7695 30.1079C28.7695 31.0634 29.3247 31.8379 30.0095 31.8379Z" stroke="black" stroke-linecap="round" stroke-linejoin="round"/>
<path d="M18.1697 31.8379C18.8545 31.8379 19.4097 31.0634 19.4097 30.1079C19.4097 29.1525 18.8545 28.3779 18.1697 28.3779C17.4849 28.3779 16.9297 29.1525 16.9297 30.1079C16.9297 31.0634 17.4849 31.8379 18.1697 31.8379Z" fill="black"/>
<path d="M18.1697 31.8379C18.8545 31.8379 19.4097 31.0634 19.4097 30.1079C19.4097 29.1525 18.8545 28.3779 18.1697 28.3779C17.4849 28.3779 16.9297 29.1525 16.9297 30.1079C16.9297 31.0634 17.4849 31.8379 18.1697 31.8379Z" stroke="black" stroke-linecap="round" stroke-linejoin="round"/>
<path d="M42.6797 44.2276C44.9697 41.7176 46.0897 39.3076 47.5297 36.8076" stroke="white" stroke-linecap="round" stroke-linejoin="round"/>
<path d="M37.8398 48.3079C38.948 47.5718 40.0039 46.7599 40.9998 45.8779" stroke="white" stroke-linecap="round" stroke-linejoin="round"/>
<path d="M42.8597 11.6179C42.6269 10.3136 42.1242 9.07227 41.3837 7.9736C40.6432 6.87493 39.6813 5.9431 38.5597 5.23786C26.9697 -1.97214 17.1997 1.49786 11.7597 4.81786C10.3788 5.67165 9.20605 6.82314 8.32715 8.1882C7.44825 9.55326 6.88539 11.0974 6.67969 12.7079" stroke="white" stroke-linecap="round" stroke-linejoin="round"/>
</g>
<defs>
<clipPath id="clip0_1539_1094170">
<rect width="51" height="49" fill="white"/>
</clipPath>
</defs>
</svg>
