<svg width="39" height="50" viewBox="0 0 39 50" fill="none" xmlns="http://www.w3.org/2000/svg">
<g clip-path="url(#clip0_1314_233358)">
<path d="M21.8291 26.7012V27.2513C21.8276 27.8582 21.872 28.4644 21.9619 29.0647L23.3103 37.7546C23.3309 37.8963 23.3128 38.0409 23.2579 38.1732C23.2029 38.3055 23.1131 38.4205 22.998 38.5061C22.8829 38.5917 22.7467 38.6447 22.6039 38.6594C22.4611 38.6742 22.3169 38.6502 22.1866 38.5899L20.4297 37.7749" stroke="black" stroke-width="1.2" stroke-linecap="round" stroke-linejoin="round"/>
<path d="M5.2506 27.9034L3.41194 26.6911C3.21688 26.5653 2.99771 26.4813 2.76837 26.4445C2.53902 26.4078 2.30451 26.4189 2.07973 26.4774C1.85495 26.5358 1.64482 26.6402 1.46267 26.784C1.28052 26.9278 1.13035 27.1078 1.02168 27.3125L0.939967 27.5061C0.651191 28.0397 0.5 28.6366 0.5 29.243C0.5 29.8495 0.651191 30.4464 0.939967 30.98L2.60497 34.0362C2.92195 34.6173 3.38981 35.1027 3.95951 35.4414C4.52921 35.7802 5.17979 35.9599 5.84306 35.9617H7.44678" stroke="black" stroke-width="1.2" stroke-linecap="round" stroke-linejoin="round"/>
<path d="M33.7695 27.9645L34.791 27.2209C35.194 26.9385 35.6857 26.8109 36.1756 26.8614C36.6655 26.9119 37.1206 27.1373 37.4571 27.4959V27.4959C37.7953 27.8633 38.0189 28.3211 38.1005 28.8132C38.1822 29.3053 38.1183 29.8104 37.9167 30.2669L36.1394 34.3419C35.993 34.7267 35.759 35.0724 35.4559 35.3517C35.1528 35.631 34.7888 35.8363 34.3926 35.9515" stroke="black" stroke-width="1.2" stroke-linecap="round" stroke-linejoin="round"/>
<path d="M8.17188 37.8667L9.19335 40.7497C9.59231 41.8664 10.2668 42.8649 11.1546 43.6532L16.3437 48.2273C17.2613 49.0407 18.4461 49.4901 19.6737 49.4906H21.3796" stroke="black" stroke-width="1.2" stroke-linecap="round" stroke-linejoin="round"/>
<path d="M32.9934 33.8936L31.4203 41.1266C31.1004 42.6047 30.3382 43.9511 29.2344 44.9877L25.8328 48.1865C24.9393 49.0238 23.7595 49.4901 22.5335 49.4905H21.3281" stroke="black" stroke-width="1.2" stroke-linecap="round" stroke-linejoin="round"/>
<path d="M34.8728 8.51661L34.025 7.65068L34.8115 6.11237C24.0145 -0.0815946 14.5352 3.05614 14.5352 3.05614L14.9336 0.509277C12.7214 1.41175 10.5863 2.49177 8.54936 3.7387C5.52152 5.54113 3.17766 8.29312 1.88402 11.5647C0.590371 14.8362 0.419821 18.443 1.39902 21.8214L2.74737 26.4873C2.98426 26.5181 3.21118 26.6017 3.41133 26.7318L5.24998 27.9441V21.1287L9.49933 21.2L8.09991 13.05C11.3449 15.9851 15.5683 17.6118 19.949 17.614H27.6612V13.539L29.1832 14.2216C30.4169 14.7706 31.4718 15.6533 32.2283 16.7697C32.9847 17.886 33.4125 19.1914 33.4632 20.5378L33.7083 26.7012L33.7901 27.9645L34.8115 27.2208C35.2258 26.9173 35.7434 26.7892 36.2518 26.8642L37.9883 20.8842C38.6145 18.7323 38.656 16.4531 38.1086 14.2799C37.5611 12.1068 36.4444 10.1178 34.8728 8.51661Z" fill="black" stroke="black" stroke-width="1.2" stroke-linecap="round" stroke-linejoin="round"/>
<path d="M2.35938 28.2905C3.14591 28.2905 4.28997 29.3093 5.47488 32.3655" stroke="black" stroke-width="1.2" stroke-linecap="round" stroke-linejoin="round"/>
<path d="M10.4091 27.6794C13.2649 26.8634 16.0437 25.7999 18.7137 24.501V22.1782C16.1461 23.8298 13.4897 25.3398 10.7564 26.7014C10.3274 26.9154 10.2661 27.2312 10.4091 27.6794Z" fill="black" stroke="black" stroke-width="1.2" stroke-linecap="round" stroke-linejoin="round"/>
<path d="M31.1445 26.9966C28.377 26.3016 25.6491 25.4582 22.9727 24.4702V22.29C25.4795 23.6076 28.0614 24.7777 30.7052 25.7945C30.8216 25.8342 30.9271 25.9003 31.0135 25.9874C31.1 26.0746 31.1651 26.1805 31.2037 26.2969C31.2423 26.4134 31.2533 26.5371 31.2359 26.6585C31.2186 26.7799 31.1733 26.8956 31.1036 26.9966H31.1445Z" fill="black" stroke="black" stroke-width="1.2" stroke-linecap="round" stroke-linejoin="round"/>
<path d="M15.2916 31.2755C15.9122 31.2755 16.4152 30.6598 16.4152 29.9002C16.4152 29.1406 15.9122 28.5249 15.2916 28.5249C14.671 28.5249 14.168 29.1406 14.168 29.9002C14.168 30.6598 14.671 31.2755 15.2916 31.2755Z" fill="black" stroke="black" stroke-width="1.2" stroke-linecap="round" stroke-linejoin="round"/>
<path d="M26.3131 31.2755C26.9336 31.2755 27.4367 30.6598 27.4367 29.9002C27.4367 29.1406 26.9336 28.5249 26.3131 28.5249C25.6925 28.5249 25.1895 29.1406 25.1895 29.9002C25.1895 30.6598 25.6925 31.2755 26.3131 31.2755Z" fill="black" stroke="black" stroke-width="1.2" stroke-linecap="round" stroke-linejoin="round"/>
<path d="M18.7129 41.4221C19.4849 40.926 20.3839 40.6621 21.3023 40.6621C22.2208 40.6621 23.1198 40.926 23.8918 41.4221" stroke="black" stroke-width="1.2" stroke-linecap="round" stroke-linejoin="round"/>
</g>
<defs>
<clipPath id="clip0_1314_233358">
<rect width="39" height="50" fill="white"/>
</clipPath>
</defs>
</svg>
