<svg width="41" height="53" viewBox="0 0 41 53" fill="none" xmlns="http://www.w3.org/2000/svg">
<g clip-path="url(#clip0_1957_270618)">
<path d="M8.83973 38.4301C9.33711 41.5542 10.0318 44.6437 10.9197 47.6801C11.1198 48.2816 11.4557 48.829 11.9014 49.2799C12.3471 49.7308 12.8905 50.073 13.4897 50.2801C15.7541 51.1406 18.1573 51.5778 20.5797 51.5701C23.8201 51.4125 26.9915 50.5779 29.8897 49.1201C30.4879 48.8317 31.0133 48.4122 31.4271 47.8928C31.8409 47.3735 32.1323 46.7675 32.2797 46.1201C32.9367 43.2301 33.4308 40.3055 33.7597 37.3601L35.5397 36.2901C36.1662 35.9091 36.7043 35.399 37.1181 34.7938C37.5319 34.1885 37.812 33.502 37.9397 32.7801L38.9397 27.0701C38.967 26.9031 38.9514 26.7319 38.8944 26.5726C38.8375 26.4133 38.7411 26.2711 38.6142 26.1592C38.4873 26.0473 38.3341 25.9694 38.1689 25.9328C38.0037 25.8962 37.832 25.9022 37.6697 25.9501L36.0497 26.4401C35.5397 26.5973 35.0808 26.8878 34.7204 27.2815C34.36 27.6753 34.1113 28.1581 33.9997 28.6801L33.8297 29.5001H31.8297C31.8297 29.5001 31.2297 26.9301 32.3797 25.4401C32.7571 24.9461 33.0917 24.4209 33.3797 23.8701C33.5341 23.5714 33.5947 23.2332 33.5536 22.8995C33.5126 22.5659 33.3718 22.2524 33.1497 22.0001C32.0926 20.8058 31.4292 19.3148 31.2497 17.7301C31.1497 16.3401 31.0897 14.9501 31.0397 13.8901C31.0201 13.343 30.829 12.8159 30.4935 12.3834C30.1579 11.9509 29.6948 11.6349 29.1697 11.4801L27.3597 10.9301C26.7893 10.7617 26.1788 10.7894 25.6259 11.0088C25.0731 11.2281 24.6096 11.6264 24.3097 12.1401L23.4697 13.5901C23.1141 14.2303 22.6163 14.7805 22.0148 15.1983C21.4132 15.6161 20.7239 15.8904 19.9997 16.0001C17.5804 16.3936 15.1215 16.4843 12.6797 16.2701C9.67973 15.7301 8.88973 15.6501 8.88973 15.6501L8.28973 16.9201C7.53955 18.5431 7.19631 20.3245 7.28973 22.1101L7.62973 29.1101L5.26973 27.1101C5.06221 26.9552 4.81231 26.8675 4.55353 26.8587C4.29475 26.8498 4.03945 26.9203 3.82186 27.0607C3.60426 27.201 3.43476 27.4045 3.33608 27.6439C3.2374 27.8833 3.21425 28.1471 3.26973 28.4001L4.48973 33.6001C4.8202 34.8622 5.56723 35.9757 6.60973 36.7601L8.83973 38.4301Z" fill="#C882FF"/>
<path d="M35.5397 36.2801C36.1662 35.8991 36.7043 35.389 37.1181 34.7838C37.5319 34.1785 37.812 33.492 37.9397 32.7701L38.9397 27.0601C38.967 26.8931 38.9514 26.7219 38.8944 26.5626C38.8375 26.4033 38.7411 26.2611 38.6142 26.1492C38.4873 26.0373 38.3341 25.9594 38.1689 25.9228C38.0037 25.8862 37.832 25.8922 37.6697 25.9401L36.0497 26.4301C35.5384 26.5881 35.0786 26.8801 34.7182 27.2758C34.3577 27.6714 34.1097 28.1563 33.9997 28.6801L33.8297 29.5001H31.8297C31.8297 29.5001 31.2297 26.9301 32.3797 25.4401C32.7571 24.9461 33.0917 24.4209 33.3797 23.8701C33.5341 23.5714 33.5947 23.2332 33.5536 22.8995C33.5126 22.5659 33.3718 22.2524 33.1497 22.0001C32.0926 20.8058 31.4292 19.3148 31.2497 17.7301C31.1497 16.3401 31.0897 14.9501 31.0397 13.8901C31.0201 13.343 30.829 12.8159 30.4935 12.3834C30.1579 11.9509 29.6948 11.6349 29.1697 11.4801L27.3597 10.9301C26.7893 10.7617 26.1788 10.7894 25.6259 11.0088C25.0731 11.2281 24.6096 11.6264 24.3097 12.1401L23.4697 13.5901C23.1141 14.2303 22.6163 14.7805 22.0148 15.1983C21.4132 15.6161 20.7239 15.8904 19.9997 16.0001C17.5804 16.3936 15.1215 16.4843 12.6797 16.2701C9.67973 15.7301 8.88973 15.6501 8.88973 15.6501L8.28973 16.9201C7.53955 18.5431 7.19631 20.3245 7.28973 22.1101L7.62973 29.1101L5.26973 27.1101C5.06221 26.9552 4.81231 26.8675 4.55353 26.8587C4.29475 26.8498 4.03945 26.9203 3.82186 27.0607C3.60426 27.201 3.43476 27.4045 3.33608 27.6439C3.2374 27.8833 3.21425 28.1471 3.26973 28.4001L4.48973 33.6001C4.8202 34.8622 5.56723 35.9757 6.60973 36.7601" stroke="black" stroke-linecap="round" stroke-linejoin="round"/>
<path d="M8.83984 38.4299C9.33722 41.554 10.0319 44.6435 10.9198 47.6799C11.1199 48.2814 11.4558 48.8288 11.9015 49.2797C12.3472 49.7306 12.8906 50.0728 13.4898 50.2799C15.7542 51.1404 18.1575 51.5776 20.5798 51.5699C23.8202 51.4123 26.9916 50.5777 29.8898 49.1199C30.488 48.8315 31.0135 48.412 31.4272 47.8926C31.841 47.3732 32.1324 46.7673 32.2798 46.1199C32.9368 43.2299 33.4309 40.3053 33.7598 37.3599" stroke="black" stroke-linecap="round" stroke-linejoin="round"/>
<path d="M8.90973 23.73C8.93444 23.8252 8.98221 23.913 9.04884 23.9855C9.11546 24.0579 9.1989 24.1129 9.29178 24.1455C9.38466 24.1781 9.48414 24.1874 9.58144 24.1724C9.67874 24.1575 9.77088 24.1189 9.84973 24.06C10.6883 23.4659 11.6539 23.0756 12.6697 22.92C13.7686 22.7046 14.8814 22.5676 15.9997 22.51C16.189 22.4997 16.3671 22.4173 16.4973 22.2796C16.6276 22.1419 16.7 21.9595 16.6997 21.77V20.45C16.7 20.2604 16.6276 20.078 16.4973 19.9404C16.3671 19.8027 16.189 19.7202 15.9997 19.71C14.6855 19.7245 13.3878 20.0049 12.1848 20.5342C10.9818 21.0635 9.89835 21.8308 8.99973 22.79C8.93296 22.8629 8.88596 22.9518 8.86321 23.0481C8.84046 23.1443 8.8427 23.2448 8.86973 23.34L8.90973 23.73Z" fill="black"/>
<path d="M8.90973 23.73C8.93444 23.8252 8.98221 23.913 9.04884 23.9855C9.11546 24.0579 9.1989 24.1129 9.29178 24.1455C9.38466 24.1781 9.48414 24.1874 9.58144 24.1724C9.67874 24.1575 9.77088 24.1189 9.84973 24.06C10.6883 23.4659 11.6539 23.0756 12.6697 22.92C13.7686 22.7046 14.8814 22.5676 15.9997 22.51C16.189 22.4997 16.3671 22.4173 16.4973 22.2796C16.6276 22.1419 16.7 21.9595 16.6997 21.77V20.45C16.7 20.2604 16.6276 20.078 16.4973 19.9404C16.3671 19.8027 16.189 19.7202 15.9997 19.71C14.6855 19.7245 13.3878 20.0049 12.1848 20.5342C10.9818 21.0635 9.89835 21.8308 8.99973 22.79C8.93296 22.8629 8.88596 22.9518 8.86321 23.0481C8.84046 23.1443 8.8427 23.2448 8.86973 23.34L8.90973 23.73Z" stroke="black" stroke-linecap="round" stroke-linejoin="round"/>
<path d="M21 20.34V21.22C20.9999 21.451 21.0895 21.6729 21.25 21.839C21.4105 22.0051 21.6292 22.1023 21.86 22.11C24.17 22.1525 26.4428 22.6986 28.52 23.71C28.6117 23.7608 28.7126 23.7928 28.8169 23.8042C28.9211 23.8156 29.0265 23.8061 29.1271 23.7763C29.2276 23.7465 29.3212 23.697 29.4024 23.6307C29.4836 23.5644 29.5507 23.4826 29.6 23.39L29.67 23.27C29.7481 23.1232 29.7785 22.9557 29.757 22.7909C29.7355 22.626 29.6631 22.4719 29.55 22.35C28.5674 21.3129 27.3617 20.5128 26.0242 20.0103C24.6867 19.5079 23.2525 19.3163 21.83 19.45C21.6045 19.4653 21.3933 19.5657 21.2391 19.731C21.085 19.8963 20.9995 20.114 21 20.34V20.34Z" fill="black"/>
<path d="M21 20.34V21.22C20.9999 21.451 21.0895 21.6729 21.25 21.839C21.4105 22.0051 21.6292 22.1023 21.86 22.11C24.17 22.1525 26.4428 22.6986 28.52 23.71C28.6117 23.7608 28.7126 23.7928 28.8169 23.8042C28.9211 23.8156 29.0265 23.8061 29.1271 23.7763C29.2276 23.7465 29.3212 23.697 29.4024 23.6307C29.4836 23.5644 29.5507 23.4826 29.6 23.39L29.67 23.27C29.7481 23.1232 29.7785 22.9557 29.757 22.7909C29.7355 22.626 29.6631 22.4719 29.55 22.35C28.5674 21.3129 27.3617 20.5128 26.0242 20.0103C24.6867 19.5079 23.2525 19.3163 21.83 19.45C21.6045 19.4653 21.3933 19.5657 21.2391 19.731C21.085 19.8963 20.9995 20.114 21 20.34V20.34Z" stroke="black" stroke-linecap="round" stroke-linejoin="round"/>
<path d="M18.3214 25.6699C18.3214 25.6699 18.9914 31.0999 16.6914 34.7599C16.5483 34.9777 16.4591 35.2265 16.4312 35.4856C16.4034 35.7447 16.4378 36.0067 16.5314 36.2499L16.6114 36.4599C16.7281 36.777 16.9393 37.0506 17.2165 37.2437C17.4937 37.4368 17.8235 37.5402 18.1614 37.5399C18.793 37.5509 19.4245 37.5175 20.0514 37.4399" stroke="black" stroke-linecap="round" stroke-linejoin="round"/>
<path d="M13.4731 30.609C14.1926 30.5333 14.6967 29.7194 14.599 28.7912C14.5012 27.8629 13.8387 27.1719 13.1192 27.2476C12.3997 27.3234 11.8956 28.1372 11.9934 29.0655C12.0911 29.9937 12.7536 30.6848 13.4731 30.609Z" fill="black"/>
<path d="M25.3687 30.6153C26.1321 30.535 26.6666 29.6683 26.5626 28.6797C26.4585 27.691 25.7552 26.9548 24.9917 27.0351C24.2283 27.1155 23.6938 27.9821 23.7978 28.9708C23.9019 29.9594 24.6052 30.6957 25.3687 30.6153Z" fill="black"/>
<path d="M13.4731 30.609C14.1926 30.5333 14.6967 29.7194 14.599 28.7912C14.5012 27.8629 13.8387 27.1719 13.1192 27.2476C12.3997 27.3234 11.8956 28.1372 11.9934 29.0655C12.0911 29.9937 12.7536 30.6848 13.4731 30.609Z" stroke="black" stroke-linecap="round" stroke-linejoin="round"/>
<path d="M25.3687 30.6153C26.1321 30.535 26.6666 29.6683 26.5626 28.6797C26.4585 27.691 25.7552 26.9548 24.9917 27.0351C24.2283 27.1155 23.6938 27.9821 23.7978 28.9708C23.9019 29.9594 24.6052 30.6957 25.3687 30.6153Z" stroke="black" stroke-linecap="round" stroke-linejoin="round"/>
<path d="M8.84078 38.4298C8.39363 36.4212 8.12922 34.3762 8.05078 32.3198" stroke="black" stroke-linecap="round" stroke-linejoin="round"/>
<path d="M19 41.0498C19.8706 41.1067 20.7422 40.9549 21.5423 40.607C22.3424 40.2591 23.0478 39.7253 23.6 39.0498C23.5748 39.7295 23.3962 40.3947 23.0776 40.9956C22.7589 41.5965 22.3085 42.1176 21.76 42.5198" stroke="black" stroke-linecap="round" stroke-linejoin="round"/>
<path d="M33.7598 37.3499C33.9286 35.4415 33.982 33.5247 33.9198 31.6099" stroke="black" stroke-linecap="round" stroke-linejoin="round"/>
<path d="M35.4805 30.7301C35.4897 30.139 35.6556 29.561 35.9613 29.055C36.267 28.549 36.7015 28.1332 37.2205 27.8501" stroke="black" stroke-linecap="round" stroke-linejoin="round"/>
<path d="M39.3706 16.58C37.4606 14.02 35.4806 11.86 35.4806 11.86L35.6906 11.13C36.0384 9.93645 35.9136 8.65482 35.342 7.5508C34.7704 6.44677 33.796 5.60501 32.6206 5.20001C25.6706 2.79001 20.6206 4.54001 20.6206 4.54001L20.1006 3.23001C19.7392 2.23239 19.0086 1.4116 18.0596 0.937076C17.1105 0.462556 16.0155 0.370536 15.0006 0.680013C11.7533 1.72765 8.68225 3.25813 5.89059 5.22001C5.08953 5.78212 4.5141 6.61042 4.26686 7.55728C4.01961 8.50413 4.11662 9.50802 4.54059 10.39L4.74059 10.83C3.345 11.5987 2.14955 12.6846 1.25059 14C0.829229 14.6406 0.584246 15.381 0.540354 16.1465C0.496461 16.9119 0.655211 17.6755 1.00059 18.36L5.24059 27.05L7.60059 29.05L7.26059 22.05C7.16716 20.2645 7.51041 18.483 8.26059 16.86L8.86059 15.59C8.86059 15.59 9.61059 15.67 12.6506 16.21C15.0998 16.4466 17.5689 16.3761 20.0006 16C20.729 15.903 21.4254 15.6397 22.0358 15.2305C22.6462 14.8212 23.1542 14.277 23.5206 13.64L24.3606 12.19C24.6605 11.6764 25.1239 11.278 25.6768 11.0587C26.2297 10.8394 26.8401 10.8117 27.4106 10.98L29.2206 11.53C29.7226 11.6979 30.1617 12.0145 30.4797 12.4378C30.7976 12.8611 30.9792 13.3711 31.0006 13.9C31.0506 14.96 31.1106 16.35 31.2106 17.74C31.4033 19.3259 32.0809 20.8136 33.1506 22C33.3642 22.2557 33.4964 22.5695 33.5303 22.9009C33.5641 23.2324 33.4981 23.5664 33.3406 23.86C33.0526 24.4109 32.718 24.9361 32.3406 25.43C31.1906 26.92 31.7906 29.49 31.7906 29.49H33.7906L33.9606 28.67C34.0714 28.145 34.3209 27.6594 34.6833 27.2636C35.0456 26.8679 35.5074 26.5766 36.0206 26.42L37.6406 25.93H37.8406L39.6906 22.73C40.2466 21.7866 40.5127 20.7005 40.4558 19.6069C40.3989 18.5133 40.0215 17.4606 39.3706 16.58Z" fill="black"/>
<path d="M39.3706 16.58C37.4606 14.02 35.4806 11.86 35.4806 11.86L35.6906 11.13C36.0384 9.93645 35.9136 8.65482 35.342 7.5508C34.7704 6.44677 33.796 5.60501 32.6206 5.20001C25.6706 2.79001 20.6206 4.54001 20.6206 4.54001L20.1006 3.23001C19.7392 2.23239 19.0086 1.4116 18.0596 0.937076C17.1105 0.462556 16.0155 0.370536 15.0006 0.680013C11.7533 1.72765 8.68225 3.25813 5.89059 5.22001C5.08953 5.78212 4.5141 6.61042 4.26686 7.55728C4.01961 8.50413 4.11662 9.50802 4.54059 10.39L4.74059 10.83C3.345 11.5987 2.14955 12.6846 1.25059 14C0.829229 14.6406 0.584246 15.381 0.540354 16.1465C0.496461 16.9119 0.655211 17.6755 1.00059 18.36L5.24059 27.05L7.60059 29.05L7.26059 22.05C7.16716 20.2645 7.51041 18.483 8.26059 16.86L8.86059 15.59C8.86059 15.59 9.61059 15.67 12.6506 16.21C15.0998 16.4466 17.5689 16.3761 20.0006 16C20.729 15.903 21.4254 15.6397 22.0358 15.2305C22.6462 14.8212 23.1542 14.277 23.5206 13.64L24.3606 12.19C24.6605 11.6764 25.1239 11.278 25.6768 11.0587C26.2297 10.8394 26.8401 10.8117 27.4106 10.98L29.2206 11.53C29.7226 11.6979 30.1617 12.0145 30.4797 12.4378C30.7976 12.8611 30.9792 13.3711 31.0006 13.9C31.0506 14.96 31.1106 16.35 31.2106 17.74C31.4033 19.3259 32.0809 20.8136 33.1506 22C33.3642 22.2557 33.4964 22.5695 33.5303 22.9009C33.5641 23.2324 33.4981 23.5664 33.3406 23.86C33.0526 24.4109 32.718 24.9361 32.3406 25.43C31.1906 26.92 31.7906 29.49 31.7906 29.49H33.7906L33.9606 28.67C34.0714 28.145 34.3209 27.6594 34.6833 27.2636C35.0456 26.8679 35.5074 26.5766 36.0206 26.42L37.6406 25.93H37.8406L39.6906 22.73C40.2466 21.7866 40.5127 20.7005 40.4558 19.6069C40.3989 18.5133 40.0215 17.4606 39.3706 16.58Z" stroke="black" stroke-linecap="round" stroke-linejoin="round"/>
</g>
<defs>
<clipPath id="clip0_1957_270618">
<rect width="40.97" height="52.07" fill="white"/>
</clipPath>
</defs>
</svg>
