<svg width="1139" height="670" viewBox="0 0 1139 670" fill="none" xmlns="http://www.w3.org/2000/svg">
<path d="M1041.83 1H99.0932C68.1699 1 43.1016 26.0683 43.1016 56.9916V595.387C43.1016 626.311 68.1699 651.379 99.0932 651.379H1041.83C1072.75 651.379 1097.82 626.311 1097.82 595.387V56.9916C1097.82 26.0683 1072.75 1 1041.83 1Z" fill="white"/>
<path d="M915.213 1H99.0932C84.2433 1 70.0016 6.8991 59.5011 17.3996C49.0007 27.9 43.1016 42.1417 43.1016 56.9916" stroke="black" stroke-width="2" stroke-linecap="round" stroke-linejoin="round"/>
<path d="M43.1016 68.8109V595.387C43.1016 610.237 49.0007 624.479 59.5011 634.979C70.0016 645.48 84.2433 651.379 99.0932 651.379H1041.83C1056.68 651.376 1070.92 645.476 1081.42 634.976C1091.91 624.476 1097.81 610.235 1097.81 595.387V56.9916C1097.81 42.1434 1091.91 27.9032 1081.42 17.403C1070.92 6.9028 1056.68 1.00256 1041.83 1H926.123" stroke="black" stroke-width="2" stroke-linecap="round" stroke-linejoin="round"/>
<path d="M1039.39 10.6719H101.53C74.6026 10.6719 52.7734 32.5011 52.7734 59.4288V592.95C52.7734 619.877 74.6026 641.707 101.53 641.707H1039.39C1066.32 641.707 1088.15 619.877 1088.15 592.95V59.4288C1088.15 32.5011 1066.32 10.6719 1039.39 10.6719Z" fill="black"/>
<path d="M1039.39 10.6719H101.53C74.6026 10.6719 52.7734 32.5011 52.7734 59.4288V592.95C52.7734 619.877 74.6026 641.707 101.53 641.707H1039.39C1066.32 641.707 1088.15 619.877 1088.15 592.95V59.4288C1088.15 32.5011 1066.32 10.6719 1039.39 10.6719Z" stroke="black" stroke-width="2" stroke-linecap="round" stroke-linejoin="round"/>
<path d="M1059.13 39.6875H81.791V612.69H1059.13V39.6875Z" fill="white"/>
<path d="M1059.13 39.6875H81.791V612.69H1059.13V39.6875Z" stroke="black" stroke-width="2" stroke-linecap="round" stroke-linejoin="round"/>
<path d="M570.462 36.0123C576.301 36.0123 581.034 31.2792 581.034 25.4407C581.034 19.6022 576.301 14.8691 570.462 14.8691C564.624 14.8691 559.891 19.6022 559.891 25.4407C559.891 31.2792 564.624 36.0123 570.462 36.0123Z" fill="white"/>
<path d="M570.462 36.0123C576.301 36.0123 581.034 31.2792 581.034 25.4407C581.034 19.6022 576.301 14.8691 570.462 14.8691C564.624 14.8691 559.891 19.6022 559.891 25.4407C559.891 31.2792 564.624 36.0123 570.462 36.0123Z" stroke="black" stroke-width="2" stroke-linecap="round" stroke-linejoin="round"/>
<path d="M570.461 20.4414C569.472 20.4414 568.506 20.7347 567.683 21.2841C566.861 21.8336 566.22 22.6146 565.842 23.5283C565.463 24.442 565.364 25.4474 565.557 26.4174C565.75 27.3874 566.226 28.2784 566.926 28.9777C567.625 29.677 568.516 30.1533 569.486 30.3462C570.456 30.5392 571.461 30.4402 572.375 30.0617C573.289 29.6832 574.07 29.0423 574.619 28.22C575.169 27.3976 575.462 26.4309 575.462 25.4419" stroke="black" stroke-width="2" stroke-linecap="round" stroke-linejoin="round"/>
<path d="M1 632.035V656.573L7.41258 659.475C20.4996 665.43 34.7112 668.511 49.0895 668.509H1089.9C1104.28 668.51 1118.5 665.43 1131.59 659.475L1138 656.573V632.035H1Z" fill="white"/>
<path d="M284.121 668.528H1089.9C1104.28 668.53 1118.5 665.449 1131.59 659.494" stroke="black" stroke-width="2" stroke-linecap="round" stroke-linejoin="round"/>
<path d="M1138 656.573V632.035H1V656.573L7.41258 659.475C20.4996 665.43 34.7112 668.511 49.0895 668.509H267.301" stroke="black" stroke-width="2" stroke-linecap="round" stroke-linejoin="round"/>
<path d="M683.847 632.035H457.066C459.386 636.779 462.991 640.776 467.471 643.572C471.951 646.368 477.126 647.85 482.407 647.849H658.526C662.679 647.849 666.78 646.932 670.537 645.163C674.294 643.394 677.614 640.817 680.259 637.616" stroke="black" stroke-width="2" stroke-linecap="round" stroke-linejoin="round"/>
<path d="M1.9668 656.572H418.282" stroke="black" stroke-width="2" stroke-linecap="round" stroke-linejoin="round"/>
<path d="M435.043 656.572H1119.62" stroke="black" stroke-width="2" stroke-linecap="round" stroke-linejoin="round"/>
<path d="M1119.62 656.572H916.393" stroke="black" stroke-width="2" stroke-linecap="round" stroke-linejoin="round"/>
<path d="M900.126 656.572H797.467" stroke="black" stroke-width="2" stroke-linecap="round" stroke-linejoin="round"/>
</svg>
