<svg width="125" height="125" viewBox="0 0 125 125" fill="none" xmlns="http://www.w3.org/2000/svg">
<g clip-path="url(#clip0_767_7088)">
<path d="M0 62.5C0 27.9822 27.9822 0 62.5 0C97.0178 0 125 27.9822 125 62.5C125 97.0178 97.0178 125 62.5 125C27.9822 125 0 97.0178 0 62.5Z" fill="#1EE7CA"/>
<circle cx="-2.64712" cy="99.0667" r="2.2007" transform="rotate(-35.7313 -2.64712 99.0667)" fill="white"/>
<circle cx="2.49351" cy="106.213" r="2.2007" transform="rotate(-35.7313 2.49351 106.213)" fill="white"/>
<circle cx="7.63413" cy="113.358" r="2.2007" transform="rotate(-35.7313 7.63413 113.358)" fill="white"/>
<circle cx="12.7748" cy="120.504" r="2.2007" transform="rotate(-35.7313 12.7748 120.504)" fill="white"/>
<circle cx="8.50913" cy="69.3528" r="2.2007" transform="rotate(-35.7313 8.50913 69.3528)" fill="white"/>
<circle cx="13.6498" cy="76.4988" r="2.2007" transform="rotate(-35.7313 13.6498 76.4988)" fill="white"/>
<circle cx="18.7904" cy="83.6443" r="2.2007" transform="rotate(-35.7313 18.7904 83.6443)" fill="white"/>
<circle cx="23.931" cy="90.7903" r="2.2007" transform="rotate(-35.7313 23.931 90.7903)" fill="white"/>
<circle cx="29.0716" cy="97.9363" r="2.2007" transform="rotate(-35.7313 29.0716 97.9363)" fill="white"/>
<circle cx="34.2142" cy="105.082" r="2.2007" transform="rotate(-35.7313 34.2142 105.082)" fill="white"/>
<circle cx="-0.641258" cy="86.7801" r="2.2007" transform="rotate(-35.7313 -0.641258 86.7801)" fill="white"/>
<circle cx="4.49937" cy="93.9261" r="2.2007" transform="rotate(-35.7313 4.49937 93.9261)" fill="white"/>
<circle cx="9.63999" cy="101.072" r="2.2007" transform="rotate(-35.7313 9.63999 101.072)" fill="white"/>
<circle cx="14.7806" cy="108.218" r="2.2007" transform="rotate(-35.7313 14.7806 108.218)" fill="white"/>
<circle cx="19.9212" cy="115.364" r="2.2007" transform="rotate(-35.7313 19.9212 115.364)" fill="white"/>
<circle cx="15.6556" cy="64.2122" r="2.2007" transform="rotate(-35.7313 15.6556 64.2122)" fill="white"/>
<circle cx="20.7962" cy="71.3582" r="2.2007" transform="rotate(-35.7313 20.7962 71.3582)" fill="white"/>
<circle cx="25.9369" cy="78.5037" r="2.2007" transform="rotate(-35.7313 25.9369 78.5037)" fill="white"/>
<circle cx="31.0775" cy="85.6492" r="2.2007" transform="rotate(-35.7313 31.0775 85.6492)" fill="white"/>
<circle cx="36.2181" cy="92.7957" r="2.2007" transform="rotate(-35.7313 36.2181 92.7957)" fill="white"/>
<circle cx="41.3568" cy="99.9412" r="2.2007" transform="rotate(-35.7313 41.3568 99.9412)" fill="white"/>
<circle cx="1.36265" cy="74.4935" r="2.2007" transform="rotate(-35.7313 1.36265 74.4935)" fill="white"/>
<circle cx="6.50523" cy="81.639" r="2.2007" transform="rotate(-35.7313 6.50523 81.639)" fill="white"/>
<circle cx="11.6459" cy="88.7855" r="2.2007" transform="rotate(-35.7313 11.6459 88.7855)" fill="white"/>
<circle cx="16.7865" cy="95.9314" r="2.2007" transform="rotate(-35.7313 16.7865 95.9314)" fill="white"/>
<circle cx="21.9271" cy="103.077" r="2.2007" transform="rotate(-35.7313 21.9271 103.077)" fill="white"/>
<circle cx="27.0677" cy="110.223" r="2.2007" transform="rotate(-35.7313 27.0677 110.223)" fill="white"/>
<circle cx="22.8021" cy="59.0711" r="2.2007" transform="rotate(-35.7313 22.8021 59.0711)" fill="white"/>
<circle cx="27.9427" cy="66.2171" r="2.2007" transform="rotate(-35.7313 27.9427 66.2171)" fill="white"/>
<circle cx="33.0834" cy="73.3631" r="2.2007" transform="rotate(-35.7313 33.0834 73.3631)" fill="white"/>
<circle cx="38.224" cy="80.5091" r="2.2007" transform="rotate(-35.7313 38.224 80.5091)" fill="white"/>
<circle cx="43.3626" cy="87.6541" r="2.2007" transform="rotate(-35.7313 43.3626 87.6541)" fill="white"/>
<circle cx="48.5052" cy="94.8006" r="2.2007" transform="rotate(-35.7313 48.5052 94.8006)" fill="white"/>
<path d="M41.373 -26.2534C49.1114 2.50566 78.997 54.5573 136.632 32.6914" stroke="white" stroke-width="1.76056"/>
<path d="M66.4415 65.8022V66.8326C66.4397 67.9887 66.5265 69.1431 66.7014 70.2859L69.2542 86.7815C69.3031 87.0564 69.2749 87.3396 69.1728 87.5995C69.0707 87.8595 68.8986 88.0861 68.6757 88.2542C68.4527 88.4224 68.1875 88.5256 67.9095 88.5524C67.6315 88.5792 67.3516 88.5285 67.1006 88.406L63.7773 86.8464" stroke="black" stroke-width="1.5" stroke-linecap="round" stroke-linejoin="round"/>
<path d="M68.2323 93.5674L66.3014 94.0872C64.9124 94.4606 63.6715 95.2512 62.7461 96.3522H68.2323" stroke="black" stroke-width="1.5" stroke-linecap="round" stroke-linejoin="round"/>
<path d="M35.0192 68.0769L31.5289 65.7841C31.1594 65.5419 30.7434 65.3798 30.3075 65.3081C29.8716 65.2364 29.4256 65.2567 28.998 65.3678C28.5705 65.4788 28.1709 65.6781 27.825 65.9528C27.4791 66.2276 27.1945 66.5717 26.9896 66.963L26.8318 67.2879C26.2858 68.3038 26 69.4392 26 70.5926C26 71.7459 26.2858 72.8813 26.8318 73.8973L29.9787 79.6712C30.5838 80.7747 31.4743 81.6954 32.5569 82.3371C33.6395 82.9789 34.8746 83.3181 36.1332 83.3193H39.1408" stroke="black" stroke-width="1.5" stroke-linecap="round" stroke-linejoin="round"/>
<path d="M89.0821 68.2154L91.0686 66.7951C91.8301 66.2523 92.7637 66.0064 93.6937 66.1039C94.6238 66.2013 95.4861 66.6354 96.1185 67.3243C96.7617 68.0226 97.187 68.8936 97.342 69.8303C97.497 70.767 97.375 71.7286 96.9911 72.5969L93.6121 80.2831C93.2136 81.1835 92.5637 81.9498 91.7404 82.4899C90.9171 83.03 89.9553 83.321 88.9707 83.3279" stroke="black" stroke-width="1.5" stroke-linecap="round" stroke-linejoin="round"/>
<path d="M40.0605 85.853L42.4091 92.4438C43.162 94.5815 44.4386 96.4964 46.1222 98.0135L55.962 106.721C57.7061 108.272 59.9592 109.127 62.2929 109.125H65.5048" stroke="black" stroke-width="1.5" stroke-linecap="round" stroke-linejoin="round"/>
<path d="M87.6239 79.4668L84.6349 93.224C84.0277 96.0354 82.5806 98.5961 80.4854 100.567L74.0432 106.647C72.3467 108.241 70.1054 109.128 67.7772 109.125H65.4844" stroke="black" stroke-width="1.5" stroke-linecap="round" stroke-linejoin="round"/>
<path d="M91.181 31.2239L89.5658 29.5715L91.0696 26.5546C70.5917 14.8675 52.6201 20.8735 52.6201 20.8735L53.372 16C49.1931 17.7258 45.1579 19.7806 41.3043 22.1452C35.5649 25.5653 31.1213 30.7918 28.6689 37.0066C26.2166 43.2214 25.8939 50.074 27.7514 56.4917L30.3135 65.2826C30.7586 65.3604 31.1843 65.5244 31.5666 65.7653L35.057 68.0582V55.22L43.1052 55.3499L40.4225 39.8755C46.5693 45.4579 54.5742 48.552 62.8777 48.5549H77.4981V40.7573L80.4037 42.0569C82.7383 43.1006 84.734 44.7773 86.1646 46.8971C87.5953 49.0168 88.4037 51.4948 88.4983 54.0504L88.9346 65.8024L89.0831 68.216L91.0696 66.7957C91.86 66.2312 92.837 65.9919 93.7988 66.1273L97.0942 54.7651C98.2844 50.6693 98.3641 46.3306 97.325 42.1939C96.2859 38.0571 94.1655 34.2711 91.181 31.2239Z" fill="black" stroke="black" stroke-width="1.5" stroke-linecap="round" stroke-linejoin="round"/>
<path d="M29.5234 68.8291C31.0273 68.8291 33.2366 70.7785 35.4459 76.5431" stroke="black" stroke-width="1.5" stroke-linecap="round" stroke-linejoin="round"/>
<path d="M43.8949 67.6595L44.0713 68.1979C44.0713 68.1979 48.8241 61.6071 59.6294 61.6071V57.829C59.6294 57.829 49.4646 57.4391 44.2291 65.1068C43.9804 65.4777 43.8208 65.9011 43.7628 66.344C43.7048 66.7868 43.75 67.2371 43.8949 67.6595Z" fill="black" stroke="black" stroke-width="1.5" stroke-linecap="round" stroke-linejoin="round"/>
<path d="M85.036 66.3598C79.4663 61.607 69.6172 61.7184 69.6172 61.7184V57.8289C69.6172 57.8289 79.2249 57.4668 84.7389 63.5099C85.0799 63.8944 85.2919 64.376 85.3452 64.8872C85.3985 65.3983 85.2903 65.9133 85.036 66.3598Z" fill="black"/>
<path d="M85.0349 67.065C84.8706 67.0676 84.7114 67.0079 84.5893 66.8979C79.2239 62.3679 69.7368 62.3957 69.6254 62.3771C69.4427 62.3631 69.2683 62.2952 69.1241 62.1822C69.0151 62.0522 68.9559 61.8877 68.957 61.7181V57.8286C68.9569 57.6486 69.0264 57.4756 69.151 57.3459C69.2756 57.2161 69.4456 57.1395 69.6254 57.1323C70.0339 57.1323 79.623 56.826 85.2484 63.0455C85.7098 63.536 86.0005 64.1623 86.0774 64.8313C86.1544 65.5003 86.0134 66.1762 85.6754 66.7586C85.6247 66.8475 85.5552 66.9242 85.4719 66.9835C85.3885 67.0428 85.2933 67.0833 85.1927 67.1021L85.0349 67.065ZM70.3123 61.0033C72.5774 61.0776 79.7159 61.5974 84.6543 65.1806C84.6527 64.7333 84.4838 64.3029 84.1809 63.9738C79.8087 59.1467 72.5402 58.5805 70.3123 58.5248V61.0033Z" fill="black"/>
<path d="M53.1292 74.4816C54.3084 74.4816 55.2642 73.3137 55.2642 71.8731C55.2642 70.4325 54.3084 69.2646 53.1292 69.2646C51.95 69.2646 50.9941 70.4325 50.9941 71.8731C50.9941 73.3137 51.95 74.4816 53.1292 74.4816Z" fill="black" stroke="black" stroke-width="1.5" stroke-linecap="round" stroke-linejoin="round"/>
<path d="M75.8714 74.4816C77.0505 74.4816 78.0064 73.3137 78.0064 71.8731C78.0064 70.4325 77.0505 69.2646 75.8714 69.2646C74.6922 69.2646 73.7363 70.4325 73.7363 71.8731C73.7363 73.3137 74.6922 74.4816 75.8714 74.4816Z" fill="black" stroke="black" stroke-width="1.5" stroke-linecap="round" stroke-linejoin="round"/>
</g>
<defs>
<clipPath id="clip0_767_7088">
<path d="M0 62.5C0 27.9822 27.9822 0 62.5 0C97.0178 0 125 27.9822 125 62.5C125 97.0178 97.0178 125 62.5 125C27.9822 125 0 97.0178 0 62.5Z" fill="white"/>
</clipPath>
</defs>
</svg>
