<svg width="125" height="125" viewBox="0 0 125 125" fill="none" xmlns="http://www.w3.org/2000/svg">
<g clip-path="url(#clip0_953_46816)">
<path d="M0 62.5C0 27.9822 27.9822 0 62.5 0C97.0178 0 125 27.9822 125 62.5C125 97.0178 97.0178 125 62.5 125C27.9822 125 0 97.0178 0 62.5Z" fill="#C882FF"/>
<path d="M18.4991 -27.9988C18.4991 -27.9988 60 78.501 156.5 47.0007" stroke="white" stroke-width="2" stroke-miterlimit="10"/>
<path d="M27.1166 -0.389036C27.1166 -0.389036 59.0019 102.501 157.896 64.3957" stroke="white" stroke-width="2" stroke-miterlimit="10"/>
<path d="M69.5 30.5005L45 40.0005L43 60.5005L76.5 80.5005L92.5 74.5005L94.5 65.0005L92.5 56.0005L80 32.0005L69.5 30.5005Z" fill="#C882FF"/>
<path d="M-1.49784 88.8432C-0.496704 88.8432 0.314874 88.0316 0.314874 87.0305C0.314874 86.0294 -0.496704 85.2178 -1.49784 85.2178C-2.49897 85.2178 -3.31055 86.0294 -3.31055 87.0305C-3.31055 88.0316 -2.49897 88.8432 -1.49784 88.8432Z" fill="white"/>
<path d="M0.215054 72.7392C1.21619 72.7392 2.02776 71.9276 2.02776 70.9265C2.02776 69.9253 1.21619 69.1138 0.215054 69.1138C-0.786079 69.1138 -1.59766 69.9253 -1.59766 70.9265C-1.59766 71.9276 -0.786079 72.7392 0.215054 72.7392Z" fill="white"/>
<path d="M2.75216 79.5263C3.7533 79.5263 4.56487 78.7147 4.56487 77.7136C4.56487 76.7125 3.7533 75.9009 2.75216 75.9009C1.75103 75.9009 0.939453 76.7125 0.939453 77.7136C0.939453 78.7147 1.75103 79.5263 2.75216 79.5263Z" fill="white"/>
<path d="M5.28927 86.3051C6.2904 86.3051 7.10198 85.4935 7.10198 84.4924C7.10198 83.4913 6.2904 82.6797 5.28927 82.6797C4.28814 82.6797 3.47656 83.4913 3.47656 84.4924C3.47656 85.4935 4.28814 86.3051 5.28927 86.3051Z" fill="white"/>
<path d="M-0.620884 49.8569C0.380248 49.8569 1.19183 49.0453 1.19183 48.0442C1.19183 47.043 0.380248 46.2314 -0.620884 46.2314C-1.62202 46.2314 -2.43359 47.043 -2.43359 48.0442C-2.43359 49.0453 -1.62202 49.8569 -0.620884 49.8569Z" fill="white"/>
<path d="M1.91623 56.6357C2.91736 56.6357 3.72894 55.8241 3.72894 54.823C3.72894 53.8218 2.91736 53.0103 1.91623 53.0103C0.915093 53.0103 0.103516 53.8218 0.103516 54.823C0.103516 55.8241 0.915093 56.6357 1.91623 56.6357Z" fill="white"/>
<path d="M4.45529 63.4233C5.45642 63.4233 6.268 62.6117 6.268 61.6106C6.268 60.6094 5.45642 59.7979 4.45529 59.7979C3.45416 59.7979 2.64258 60.6094 2.64258 61.6106C2.64258 62.6117 3.45416 63.4233 4.45529 63.4233Z" fill="white"/>
<path d="M6.9924 70.2016C7.99353 70.2016 8.80511 69.39 8.80511 68.3889C8.80511 67.3878 7.99353 66.5762 6.9924 66.5762C5.99127 66.5762 5.17969 67.3878 5.17969 68.3889C5.17969 69.39 5.99127 70.2016 6.9924 70.2016Z" fill="white"/>
<path d="M9.53927 76.9887C10.5404 76.9887 11.352 76.1771 11.352 75.176C11.352 74.1749 10.5404 73.3633 9.53927 73.3633C8.53814 73.3633 7.72656 74.1749 7.72656 75.176C7.72656 76.1771 8.53814 76.9887 9.53927 76.9887Z" fill="white"/>
<path d="M12.0764 83.767C13.0775 83.767 13.8891 82.9555 13.8891 81.9543C13.8891 80.9532 13.0775 80.1416 12.0764 80.1416C11.0752 80.1416 10.2637 80.9532 10.2637 81.9543C10.2637 82.9555 11.0752 83.767 12.0764 83.767Z" fill="white"/>
<path d="M6.16427 47.3105C7.16541 47.3105 7.97698 46.4989 7.97698 45.4978C7.97698 44.4966 7.16541 43.6851 6.16427 43.6851C5.16314 43.6851 4.35156 44.4966 4.35156 45.4978C4.35156 46.4989 5.16314 47.3105 6.16427 47.3105Z" fill="white"/>
<path d="M8.70333 54.0981C9.70447 54.0981 10.516 53.2865 10.516 52.2854C10.516 51.2842 9.70447 50.4727 8.70333 50.4727C7.7022 50.4727 6.89062 51.2842 6.89062 52.2854C6.89062 53.2865 7.7022 54.0981 8.70333 54.0981Z" fill="white"/>
<path d="M11.2404 60.8852C12.2416 60.8852 13.0532 60.0736 13.0532 59.0725C13.0532 58.0713 12.2416 57.2598 11.2404 57.2598C10.2393 57.2598 9.42773 58.0713 9.42773 59.0725C9.42773 60.0736 10.2393 60.8852 11.2404 60.8852Z" fill="white"/>
<path d="M13.7776 67.6635C14.7787 67.6635 15.5903 66.8519 15.5903 65.8508C15.5903 64.8497 14.7787 64.0381 13.7776 64.0381C12.7764 64.0381 11.9648 64.8497 11.9648 65.8508C11.9648 66.8519 12.7764 67.6635 13.7776 67.6635Z" fill="white"/>
<path d="M16.3147 74.4511C17.3158 74.4511 18.1274 73.6395 18.1274 72.6384C18.1274 71.6373 17.3158 70.8257 16.3147 70.8257C15.3135 70.8257 14.502 71.6373 14.502 72.6384C14.502 73.6395 15.3135 74.4511 16.3147 74.4511Z" fill="white"/>
<path d="M18.8518 81.2294C19.8529 81.2294 20.6645 80.4179 20.6645 79.4167C20.6645 78.4156 19.8529 77.604 18.8518 77.604C17.8506 77.604 17.0391 78.4156 17.0391 79.4167C17.0391 80.4179 17.8506 81.2294 18.8518 81.2294Z" fill="white"/>
<path d="M12.9436 44.7724C13.9447 44.7724 14.7563 43.9608 14.7563 42.9597C14.7563 41.9586 13.9447 41.147 12.9436 41.147C11.9424 41.147 11.1309 41.9586 11.1309 42.9597C11.1309 43.9608 11.9424 44.7724 12.9436 44.7724Z" fill="white"/>
<path d="M15.4826 51.56C16.4838 51.56 17.2953 50.7484 17.2953 49.7473C17.2953 48.7461 16.4838 47.9346 15.4826 47.9346C14.4815 47.9346 13.6699 48.7461 13.6699 49.7473C13.6699 50.7484 14.4815 51.56 15.4826 51.56Z" fill="white"/>
<path d="M18.0197 58.3388C19.0209 58.3388 19.8325 57.5272 19.8325 56.5261C19.8325 55.525 19.0209 54.7134 18.0197 54.7134C17.0186 54.7134 16.207 55.525 16.207 56.5261C16.207 57.5272 17.0186 58.3388 18.0197 58.3388Z" fill="white"/>
<path d="M20.5666 65.1259C21.5677 65.1259 22.3793 64.3143 22.3793 63.3132C22.3793 62.3121 21.5677 61.5005 20.5666 61.5005C19.5655 61.5005 18.7539 62.3121 18.7539 63.3132C18.7539 64.3143 19.5655 65.1259 20.5666 65.1259Z" fill="white"/>
<path d="M23.1037 71.9125C24.1049 71.9125 24.9164 71.1009 24.9164 70.0998C24.9164 69.0987 24.1049 68.2871 23.1037 68.2871C22.1026 68.2871 21.291 69.0987 21.291 70.0998C21.291 71.1009 22.1026 71.9125 23.1037 71.9125Z" fill="white"/>
<path d="M25.6428 78.6918C26.6439 78.6918 27.4555 77.8802 27.4555 76.8791C27.4555 75.878 26.6439 75.0664 25.6428 75.0664C24.6417 75.0664 23.8301 75.878 23.8301 76.8791C23.8301 77.8802 24.6417 78.6918 25.6428 78.6918Z" fill="white"/>
<path d="M-1.34745 88.8432C-0.346314 88.8432 0.465265 88.0316 0.465265 87.0305C0.465265 86.0294 -0.346314 85.2178 -1.34745 85.2178C-2.34858 85.2178 -3.16016 86.0294 -3.16016 87.0305C-3.16016 88.0316 -2.34858 88.8432 -1.34745 88.8432Z" fill="white"/>
<path d="M1.18966 95.6298C2.1908 95.6298 3.00237 94.8182 3.00237 93.8171C3.00237 92.816 2.1908 92.0044 1.18966 92.0044C0.188531 92.0044 -0.623047 92.816 -0.623047 93.8171C-0.623047 94.8182 0.188531 95.6298 1.18966 95.6298Z" fill="white"/>
<path d="M3.72873 102.409C4.72986 102.409 5.54144 101.597 5.54144 100.596C5.54144 99.5948 4.72986 98.7832 3.72873 98.7832C2.72759 98.7832 1.91602 99.5948 1.91602 100.596C1.91602 101.597 2.72759 102.409 3.72873 102.409Z" fill="white"/>
<path d="M6.27365 109.196C7.27478 109.196 8.08636 108.384 8.08636 107.383C8.08636 106.382 7.27478 105.57 6.27365 105.57C5.27252 105.57 4.46094 106.382 4.46094 107.383C4.46094 108.384 5.27252 109.196 6.27365 109.196Z" fill="white"/>
<path d="M8.81271 115.983C9.81384 115.983 10.6254 115.171 10.6254 114.17C10.6254 113.169 9.81384 112.357 8.81271 112.357C7.81158 112.357 7 113.169 7 114.17C7 115.171 7.81158 115.983 8.81271 115.983Z" fill="white"/>
<path d="M11.3518 122.762C12.3529 122.762 13.1645 121.95 13.1645 120.949C13.1645 119.948 12.3529 119.136 11.3518 119.136C10.3506 119.136 9.53906 119.948 9.53906 120.949C9.53906 121.95 10.3506 122.762 11.3518 122.762Z" fill="white"/>
<path d="M5.44162 86.3051C6.44275 86.3051 7.25433 85.4935 7.25433 84.4924C7.25433 83.4913 6.44275 82.6797 5.44162 82.6797C4.44048 82.6797 3.62891 83.4913 3.62891 84.4924C3.62891 85.4935 4.44048 86.3051 5.44162 86.3051Z" fill="white"/>
<path d="M7.97873 93.0922C8.97986 93.0922 9.79144 92.2806 9.79144 91.2795C9.79144 90.2784 8.97986 89.4668 7.97873 89.4668C6.97759 89.4668 6.16602 90.2784 6.16602 91.2795C6.16602 92.2806 6.97759 93.0922 7.97873 93.0922Z" fill="white"/>
<path d="M10.5178 99.871C11.5189 99.871 12.3305 99.0594 12.3305 98.0583C12.3305 97.0572 11.5189 96.2456 10.5178 96.2456C9.51666 96.2456 8.70508 97.0572 8.70508 98.0583C8.70508 99.0594 9.51666 99.871 10.5178 99.871Z" fill="white"/>
<path d="M13.0549 106.658C14.056 106.658 14.8676 105.846 14.8676 104.845C14.8676 103.844 14.056 103.032 13.0549 103.032C12.0538 103.032 11.2422 103.844 11.2422 104.845C11.2422 105.846 12.0538 106.658 13.0549 106.658Z" fill="white"/>
<path d="M15.592 113.437C16.5931 113.437 17.4047 112.625 17.4047 111.624C17.4047 110.623 16.5931 109.812 15.592 109.812C14.5909 109.812 13.7793 110.623 13.7793 111.624C13.7793 112.625 14.5909 113.437 15.592 113.437Z" fill="white"/>
<path d="M18.1291 120.224C19.1302 120.224 19.9418 119.412 19.9418 118.411C19.9418 117.41 19.1302 116.598 18.1291 116.598C17.128 116.598 16.3164 117.41 16.3164 118.411C16.3164 119.412 17.128 120.224 18.1291 120.224Z" fill="white"/>
<path d="M12.219 83.767C13.2201 83.767 14.0317 82.9555 14.0317 81.9543C14.0317 80.9532 13.2201 80.1416 12.219 80.1416C11.2178 80.1416 10.4062 80.9532 10.4062 81.9543C10.4062 82.9555 11.2178 83.767 12.219 83.767Z" fill="white"/>
<path d="M14.7658 90.5546C15.767 90.5546 16.5785 89.743 16.5785 88.7419C16.5785 87.7408 15.767 86.9292 14.7658 86.9292C13.7647 86.9292 12.9531 87.7408 12.9531 88.7419C12.9531 89.743 13.7647 90.5546 14.7658 90.5546Z" fill="white"/>
<path d="M17.3029 97.3329C18.3041 97.3329 19.1157 96.5214 19.1157 95.5202C19.1157 94.5191 18.3041 93.7075 17.3029 93.7075C16.3018 93.7075 15.4902 94.5191 15.4902 95.5202C15.4902 96.5214 16.3018 97.3329 17.3029 97.3329Z" fill="white"/>
<path d="M19.8401 104.12C20.8412 104.12 21.6528 103.308 21.6528 102.307C21.6528 101.306 20.8412 100.495 19.8401 100.495C18.8389 100.495 18.0273 101.306 18.0273 102.307C18.0273 103.308 18.8389 104.12 19.8401 104.12Z" fill="white"/>
<path d="M22.3791 110.899C23.3802 110.899 24.1918 110.088 24.1918 109.087C24.1918 108.085 23.3802 107.274 22.3791 107.274C21.378 107.274 20.5664 108.085 20.5664 109.087C20.5664 110.088 21.378 110.899 22.3791 110.899Z" fill="white"/>
<path d="M24.9182 117.686C25.9193 117.686 26.7309 116.874 26.7309 115.873C26.7309 114.872 25.9193 114.061 24.9182 114.061C23.917 114.061 23.1055 114.872 23.1055 115.873C23.1055 116.874 23.917 117.686 24.9182 117.686Z" fill="white"/>
<path d="M19.0041 81.2294C20.0052 81.2294 20.8168 80.4179 20.8168 79.4167C20.8168 78.4156 20.0052 77.604 19.0041 77.604C18.003 77.604 17.1914 78.4156 17.1914 79.4167C17.1914 80.4179 18.003 81.2294 19.0041 81.2294Z" fill="white"/>
<path d="M21.5451 88.017C22.5463 88.017 23.3578 87.2054 23.3578 86.2043C23.3578 85.2032 22.5463 84.3916 21.5451 84.3916C20.544 84.3916 19.7324 85.2032 19.7324 86.2043C19.7324 87.2054 20.544 88.017 21.5451 88.017Z" fill="white"/>
<path d="M24.0822 94.7953C25.0834 94.7953 25.895 93.9838 25.895 92.9826C25.895 91.9815 25.0834 91.1699 24.0822 91.1699C23.0811 91.1699 22.2695 91.9815 22.2695 92.9826C22.2695 93.9838 23.0811 94.7953 24.0822 94.7953Z" fill="white"/>
<path d="M26.6213 101.582C27.6224 101.582 28.434 100.771 28.434 99.7697C28.434 98.7686 27.6224 97.957 26.6213 97.957C25.6202 97.957 24.8086 98.7686 24.8086 99.7697C24.8086 100.771 25.6202 101.582 26.6213 101.582Z" fill="white"/>
<path d="M29.1584 108.361C30.1595 108.361 30.9711 107.549 30.9711 106.548C30.9711 105.547 30.1595 104.735 29.1584 104.735C28.1573 104.735 27.3457 105.547 27.3457 106.548C27.3457 107.549 28.1573 108.361 29.1584 108.361Z" fill="white"/>
<path d="M31.6975 115.148C32.6986 115.148 33.5102 114.337 33.5102 113.336C33.5102 112.335 32.6986 111.523 31.6975 111.523C30.6963 111.523 29.8848 112.335 29.8848 113.336C29.8848 114.337 30.6963 115.148 31.6975 115.148Z" fill="white"/>
<path d="M25.7932 78.6918C26.7943 78.6918 27.6059 77.8802 27.6059 76.8791C27.6059 75.878 26.7943 75.0664 25.7932 75.0664C24.792 75.0664 23.9805 75.878 23.9805 76.8791C23.9805 77.8802 24.792 78.6918 25.7932 78.6918Z" fill="white"/>
<path d="M28.3303 85.4789C29.3314 85.4789 30.143 84.6674 30.143 83.6662C30.143 82.6651 29.3314 81.8535 28.3303 81.8535C27.3292 81.8535 26.5176 82.6651 26.5176 83.6662C26.5176 84.6674 27.3292 85.4789 28.3303 85.4789Z" fill="white"/>
<path d="M30.8674 92.2573C31.8685 92.2573 32.6801 91.4457 32.6801 90.4445C32.6801 89.4434 31.8685 88.6318 30.8674 88.6318C29.8663 88.6318 29.0547 89.4434 29.0547 90.4445C29.0547 91.4457 29.8663 92.2573 30.8674 92.2573Z" fill="white"/>
<path d="M33.4065 99.0449C34.4076 99.0449 35.2192 98.2333 35.2192 97.2321C35.2192 96.231 34.4076 95.4194 33.4065 95.4194C32.4053 95.4194 31.5938 96.231 31.5938 97.2321C31.5938 98.2333 32.4053 99.0449 33.4065 99.0449Z" fill="white"/>
<path d="M35.9455 105.824C36.9467 105.824 37.7582 105.012 37.7582 104.011C37.7582 103.01 36.9467 102.198 35.9455 102.198C34.9444 102.198 34.1328 103.01 34.1328 104.011C34.1328 105.012 34.9444 105.824 35.9455 105.824Z" fill="white"/>
<path d="M38.4826 112.611C39.4838 112.611 40.2953 111.799 40.2953 110.798C40.2953 109.797 39.4838 108.985 38.4826 108.985C37.4815 108.985 36.6699 109.797 36.6699 110.798C36.6699 111.799 37.4815 112.611 38.4826 112.611Z" fill="white"/>
<path d="M95.8841 43.5247C92.4526 38.9297 88.8862 35.0261 88.8862 35.0261L89.2656 33.7108C89.8855 31.5596 89.6565 29.2526 88.626 27.2651C87.5954 25.2777 85.8417 23.7613 83.7263 23.0285C71.1975 18.7033 62.0412 21.8565 62.0412 21.8565L61.1981 19.4958C60.5583 17.6899 59.247 16.2002 57.5369 15.3366C55.8268 14.4729 53.8496 14.3017 52.0165 14.8586C46.1586 16.7382 40.6185 19.4926 35.5841 23.0285C34.1403 24.0412 33.1028 25.5335 32.6566 27.2397C32.2104 28.9459 32.3843 30.7551 33.1475 32.345L33.5184 33.1291C31.0005 34.5077 28.8428 36.4603 27.2203 38.8286C26.4417 39.9747 25.9822 41.3073 25.8888 42.6897C25.7955 44.0722 26.0717 45.4545 26.6892 46.6949L34.3278 62.3516L38.5434 65.9096L37.9617 53.3893C37.7984 50.1699 38.4357 46.9602 39.8166 44.0475L40.8873 41.771C40.8873 41.771 42.2279 41.8975 47.7166 42.8755C51.0891 43.4742 56.915 42.8755 60.903 42.3865C62.2118 42.2153 63.4638 41.7462 64.5629 41.0154C65.6621 40.2846 66.579 39.3115 67.2433 38.1709L68.7609 35.5572C69.297 34.6297 70.1311 33.9107 71.1276 33.5173C72.1242 33.1239 73.2245 33.0792 74.2496 33.3904L77.4956 34.3684C78.4414 34.651 79.2751 35.2224 79.8799 36.0026C80.4847 36.7827 80.8302 37.7326 80.8681 38.719C80.9524 40.6244 81.0705 43.1285 81.2475 45.6325C81.5614 48.4795 82.7382 51.1625 84.62 53.3218C85.0066 53.7858 85.246 54.3545 85.3076 54.9553C85.3691 55.5561 85.2501 56.1615 84.9657 56.6943C84.4493 57.6894 83.8425 58.6348 83.153 59.5187C81.0789 62.1999 82.1834 66.837 82.1834 66.837H85.8341L86.1545 65.3616C86.3526 64.4174 86.8006 63.5438 87.4516 62.8319C88.1027 62.12 88.933 61.596 89.8558 61.3146L92.773 60.4209C92.8935 60.3848 93.0182 60.365 93.144 60.3619L96.4659 54.5781C97.4605 52.8806 97.9355 50.9288 97.8321 48.9642C97.7287 46.9995 97.0514 45.1084 95.8841 43.5247Z" fill="black"/>
<path d="M88.9751 78.9871C90.1039 78.3029 91.0736 77.3856 91.8195 76.2966C92.5654 75.2076 93.0702 73.9719 93.3003 72.6721L95.113 62.386C95.167 62.0843 95.1425 61.7738 95.0419 61.4843C94.9414 61.1948 94.768 60.936 94.5386 60.7329C94.3091 60.5297 94.0313 60.3889 93.7318 60.324C93.4322 60.2592 93.1211 60.2724 92.8281 60.3625L89.9109 61.2309C88.9882 61.5123 88.1579 62.0363 87.5068 62.7482C86.8557 63.4601 86.4077 64.3337 86.2096 65.2779L85.8892 66.7534H82.2385C82.2385 66.7534 81.134 62.1162 83.2081 59.4351C83.8977 58.5512 84.5045 57.6057 85.0208 56.6106C85.3052 56.0779 85.4243 55.4724 85.3627 54.8716C85.3011 54.2709 85.0617 53.7021 84.6751 53.2381C82.7933 51.0788 81.6166 48.3959 81.3027 45.5489C81.1256 43.0195 80.9991 40.5407 80.9233 38.6353C80.8854 37.6489 80.5398 36.6991 79.9351 35.9189C79.3303 35.1387 78.4966 34.5674 77.5508 34.2848L74.3048 33.3068C73.2796 32.9955 72.1793 33.0402 71.1828 33.4337C70.1863 33.8271 69.3521 34.546 68.816 35.4736L67.2984 38.0873C66.6342 39.2278 65.7172 40.2009 64.6181 40.9317C63.519 41.6625 62.2669 42.1316 60.9581 42.3029C56.9702 42.8256 51.1526 43.3905 47.7717 42.7919C42.283 41.8139 40.9425 41.6874 40.9425 41.6874L39.8717 43.9638C38.4608 46.8981 37.8031 50.1377 37.9578 53.3899L38.5649 65.9271L34.3492 62.3691C33.9767 62.0615 33.5166 61.8794 33.0345 61.8488C32.5523 61.8181 32.0729 61.9405 31.6644 62.1985C31.2559 62.4565 30.9394 62.8368 30.7599 63.2853C30.5804 63.7339 30.5471 64.2276 30.6648 64.6962L33.093 74.156C33.6716 76.4369 35.0172 78.4493 36.9039 79.8555" stroke="black" stroke-width="1.5" stroke-linecap="round" stroke-linejoin="round"/>
<path d="M40.8945 82.8657C41.7888 88.4933 43.0419 94.058 44.6464 99.5257C45.0043 100.61 45.6062 101.598 46.4057 102.414C47.2052 103.23 48.1811 103.851 49.2583 104.23C53.3419 105.776 57.6737 106.562 62.04 106.549C68.3803 106.549 74.9398 103.969 78.8013 102.131C79.8827 101.613 80.8329 100.857 81.5805 99.9197C82.3281 98.9823 82.8538 97.8877 83.118 96.7181C84.3001 91.5142 85.1868 86.2475 85.7739 80.9434" stroke="black" stroke-width="1.5" stroke-linecap="round" stroke-linejoin="round"/>
<path d="M41.0201 56.3912C41.0653 56.5616 41.1515 56.7183 41.2712 56.8477C41.3909 56.977 41.5404 57.0751 41.7068 57.1333C41.8731 57.1915 42.0512 57.2081 42.2255 57.1817C42.3997 57.1552 42.5648 57.0864 42.7063 56.9814C44.2098 55.9118 45.9419 55.2075 47.7651 54.9242C49.714 54.5479 51.6855 54.3001 53.6669 54.1822C54.0077 54.167 54.3294 54.0209 54.565 53.7743C54.8006 53.5276 54.9319 53.1996 54.9316 52.8585V50.4809C54.934 50.1378 54.8022 49.8074 54.5643 49.5601C54.3265 49.3128 54.0014 49.1682 53.6585 49.1572C51.2848 49.1683 48.9384 49.6647 46.7635 50.6158C44.5887 51.5669 42.6313 52.9528 41.0117 54.6881C40.8925 54.8211 40.8084 54.9818 40.7672 55.1555C40.726 55.3293 40.7289 55.5106 40.7756 55.683L41.0201 56.3912Z" stroke="black" stroke-width="1.5" stroke-linecap="round" stroke-linejoin="round"/>
<path d="M62.8575 50.2706V51.8472C62.8529 52.2641 63.0119 52.6662 63.3003 52.9673C63.5888 53.2683 63.9837 53.4444 64.4004 53.4576C66.9298 53.5419 72.0391 54.014 76.3896 56.3495C76.5562 56.4399 76.739 56.4966 76.9275 56.5162C77.116 56.5359 77.3066 56.5182 77.4883 56.4642C77.6699 56.4102 77.8392 56.3209 77.9863 56.2013C78.1334 56.0818 78.2555 55.9345 78.3457 55.7677L78.4553 55.5569C78.6059 55.2905 78.6667 54.9827 78.6288 54.679C78.5908 54.3753 78.4561 54.0919 78.2445 53.8707C76.47 52.0105 74.2974 50.5762 71.8895 49.6752C69.4817 48.7743 66.9012 48.4302 64.3414 48.6686C63.9388 48.7023 63.5633 48.8853 63.2887 49.1817C63.0141 49.4782 62.8603 49.8665 62.8575 50.2706V50.2706Z" stroke="black" stroke-width="1.5" stroke-linecap="round" stroke-linejoin="round"/>
<path d="M57.9745 59.8813C57.9745 59.8813 59.1717 69.6615 55.0236 76.2463C54.771 76.6435 54.6137 77.0937 54.564 77.5617C54.5142 78.0298 54.5734 78.5029 54.7369 78.9443L54.8802 79.3153C55.0945 79.8847 55.4771 80.3753 55.9772 80.7217C56.4773 81.0682 57.071 81.254 57.6794 81.2545C58.8062 81.2796 59.9333 81.2232 61.0519 81.0858" stroke="black" stroke-width="1.5" stroke-linecap="round" stroke-linejoin="round"/>
<path d="M48.4626 68.6243C49.7488 68.4944 50.6548 67.0363 50.4862 65.3675C50.3177 63.6988 49.1384 62.4513 47.8522 62.5812C46.5661 62.7111 45.6601 64.1692 45.8286 65.838C45.9972 67.5068 47.1765 68.7542 48.4626 68.6243Z" stroke="black" stroke-width="1.49256" stroke-linecap="round" stroke-linejoin="round"/>
<path d="M41.0201 56.3912C41.0653 56.5616 41.1515 56.7183 41.2712 56.8477C41.3909 56.977 41.5404 57.0751 41.7068 57.1333C41.8731 57.1915 42.0512 57.2081 42.2255 57.1817C42.3997 57.1552 42.5648 57.0864 42.7063 56.9814C44.2098 55.9118 45.9419 55.2075 47.7651 54.9242C49.714 54.5479 51.6855 54.3001 53.6669 54.1822C54.0077 54.167 54.3294 54.0209 54.565 53.7743C54.8006 53.5276 54.9319 53.1996 54.9316 52.8585V50.4809C54.934 50.1378 54.8022 49.8074 54.5643 49.5601C54.3265 49.3128 54.0014 49.1682 53.6585 49.1572C51.2848 49.1683 48.9384 49.6647 46.7635 50.6158C44.5887 51.5669 42.6313 52.9528 41.0117 54.6881C40.8925 54.8211 40.8084 54.9818 40.7672 55.1555C40.726 55.3293 40.7289 55.5106 40.7756 55.683L41.0201 56.3912Z" fill="black"/>
<path d="M62.8575 50.2706V51.8472C62.8529 52.2641 63.0119 52.6662 63.3003 52.9673C63.5888 53.2683 63.9837 53.4444 64.4004 53.4576C66.9298 53.5419 72.0391 54.014 76.3896 56.3495C76.5562 56.4399 76.739 56.4966 76.9275 56.5162C77.116 56.5359 77.3066 56.5182 77.4883 56.4642C77.6699 56.4102 77.8392 56.3209 77.9863 56.2013C78.1334 56.0818 78.2555 55.9345 78.3457 55.7677L78.4553 55.5569C78.6059 55.2905 78.6667 54.9827 78.6288 54.679C78.5908 54.3753 78.4561 54.0919 78.2445 53.8707C76.47 52.0105 74.2973 50.5762 71.8895 49.6752C69.4817 48.7743 66.9012 48.4302 64.3414 48.6686C63.9388 48.7023 63.5633 48.8853 63.2887 49.1817C63.0141 49.4782 62.8603 49.8665 62.8575 50.2706Z" fill="black"/>
<path d="M48.4626 68.6243C49.7488 68.4944 50.6548 67.0363 50.4862 65.3675C50.3177 63.6988 49.1384 62.4513 47.8522 62.5812C46.5661 62.7111 45.6601 64.1692 45.8286 65.838C45.9972 67.5068 47.1765 68.7542 48.4626 68.6243Z" fill="black"/>
<path d="M70.6638 68.7715C72.0345 68.6272 72.9939 67.0687 72.8067 65.2905C72.6195 63.5122 71.3566 62.1877 69.9858 62.332C68.6151 62.4763 67.6557 64.0348 67.8429 65.8131C68.0301 67.5913 69.2931 68.9159 70.6638 68.7715Z" fill="black"/>
<path d="M70.6638 68.7715C72.0345 68.6272 72.9939 67.0687 72.8067 65.2905C72.6195 63.5122 71.3566 62.1877 69.9858 62.332C68.6151 62.4763 67.6557 64.0348 67.8429 65.8131C68.0301 67.5913 69.2931 68.9159 70.6638 68.7715Z" stroke="black" stroke-width="1.5" stroke-linecap="round" stroke-linejoin="round"/>
<path d="M40.8947 82.8652C39.3771 74.7712 39.4699 71.854 39.4699 71.854" stroke="black" stroke-width="1.5" stroke-linecap="round" stroke-linejoin="round"/>
<path d="M61.0879 88.6658C61.0879 88.6658 65.7925 88.5225 67.9846 84.5767" stroke="black" stroke-width="1.5" stroke-linecap="round" stroke-linejoin="round"/>
<path d="M85.7754 80.9258C86.0856 77.4839 86.1813 74.026 86.0621 70.5723" stroke="black" stroke-width="1.5" stroke-linecap="round" stroke-linejoin="round"/>
<path d="M88.8848 68.9874C88.8848 68.9874 88.8848 65.2187 92.0043 63.8022" stroke="black" stroke-width="1.5" stroke-linecap="round" stroke-linejoin="round"/>
<path d="M95.8841 43.5247C92.4526 38.9297 88.8862 35.0261 88.8862 35.0261L89.2656 33.7108C89.8855 31.5596 89.6565 29.2526 88.626 27.2651C87.5954 25.2777 85.8417 23.7613 83.7263 23.0285C71.1975 18.7033 62.0412 21.8565 62.0412 21.8565L61.1981 19.4958C60.5583 17.6899 59.247 16.2002 57.5369 15.3366C55.8268 14.4729 53.8496 14.3017 52.0165 14.8586C46.1586 16.7382 40.6185 19.4926 35.5841 23.0285C34.1403 24.0412 33.1028 25.5335 32.6566 27.2397C32.2104 28.9459 32.3843 30.7551 33.1475 32.345L33.5184 33.1291C31.0005 34.5077 28.8428 36.4603 27.2203 38.8286C26.4417 39.9747 25.9822 41.3073 25.8888 42.6897C25.7955 44.0722 26.0717 45.4545 26.6892 46.6949L34.3278 62.3516L38.5434 65.9096L37.9617 53.3893C37.7984 50.1699 38.4357 46.9602 39.8166 44.0475L40.8873 41.771C40.8873 41.771 42.2279 41.8975 47.7166 42.8755C51.0891 43.4742 56.915 42.8755 60.903 42.3865C62.2118 42.2153 63.4638 41.7462 64.5629 41.0154C65.6621 40.2846 66.579 39.3115 67.2433 38.1709L68.7609 35.5572C69.297 34.6297 70.1311 33.9107 71.1276 33.5173C72.1242 33.1239 73.2245 33.0792 74.2496 33.3904L77.4956 34.3684C78.4414 34.651 79.2751 35.2224 79.8799 36.0026C80.4847 36.7827 80.8302 37.7326 80.8681 38.719C80.9524 40.6244 81.0705 43.1285 81.2475 45.6325C81.5614 48.4795 82.7382 51.1625 84.62 53.3218C85.0066 53.7858 85.246 54.3545 85.3076 54.9553C85.3691 55.5561 85.2501 56.1615 84.9657 56.6943C84.4493 57.6894 83.8425 58.6348 83.153 59.5187C81.0789 62.1999 82.1834 66.837 82.1834 66.837H85.8341L86.1545 65.3616C86.3526 64.4174 86.8006 63.5438 87.4516 62.8319C88.1027 62.12 88.933 61.596 89.8558 61.3146L92.773 60.4209C92.8935 60.3848 93.0182 60.365 93.144 60.3619L96.4658 54.5781C97.4605 52.8806 97.9355 50.9288 97.8321 48.9642C97.7287 46.9995 97.0514 45.1084 95.8841 43.5247V43.5247Z" stroke="black" stroke-width="1.5" stroke-linecap="round" stroke-linejoin="round"/>
</g>
<defs>
<clipPath id="clip0_953_46816">
<path d="M0 62.5C0 27.9822 27.9822 0 62.5 0C97.0178 0 125 27.9822 125 62.5C125 97.0178 97.0178 125 62.5 125C27.9822 125 0 97.0178 0 62.5Z" fill="white"/>
</clipPath>
</defs>
</svg>
