<svg width="125" height="125" viewBox="0 0 125 125" fill="none" xmlns="http://www.w3.org/2000/svg">
<g clip-path="url(#clip0_1901_52181)">
<path d="M0 62.5C0 27.9822 27.9822 0 62.5 0V0C97.0178 0 125 27.9822 125 62.5V62.5C125 97.0178 97.0178 125 62.5 125V125C27.9822 125 0 97.0178 0 62.5V62.5Z" fill="#FF59A3"/>
<path d="M85.6438 15.9478C86.735 15.9478 87.6196 15.0632 87.6196 13.9719C87.6196 12.8807 86.735 11.9961 85.6438 11.9961C84.5526 11.9961 83.668 12.8807 83.668 13.9719C83.668 15.0632 84.5526 15.9478 85.6438 15.9478Z" fill="white"/>
<path d="M88.0325 23.4751C89.1237 23.4751 90.0083 22.5905 90.0083 21.4993C90.0083 20.4081 89.1237 19.5234 88.0325 19.5234C86.9413 19.5234 86.0566 20.4081 86.0566 21.4993C86.0566 22.5905 86.9413 23.4751 88.0325 23.4751Z" fill="white"/>
<path d="M90.4212 31.0025C91.5124 31.0025 92.397 30.1178 92.397 29.0266C92.397 27.9354 91.5124 27.0508 90.4212 27.0508C89.3299 27.0508 88.4453 27.9354 88.4453 29.0266C88.4453 30.1178 89.3299 31.0025 90.4212 31.0025Z" fill="white"/>
<path d="M92.8118 38.52C93.903 38.52 94.7876 37.6354 94.7876 36.5442C94.7876 35.453 93.903 34.5684 92.8118 34.5684C91.7206 34.5684 90.8359 35.453 90.8359 36.5442C90.8359 37.6354 91.7206 38.52 92.8118 38.52Z" fill="white"/>
<path d="M95.2024 46.0454C96.2936 46.0454 97.1782 45.1608 97.1782 44.0696C97.1782 42.9784 96.2936 42.0938 95.2024 42.0938C94.1112 42.0938 93.2266 42.9784 93.2266 44.0696C93.2266 45.1608 94.1112 46.0454 95.2024 46.0454Z" fill="white"/>
<path d="M97.5911 53.5728C98.6823 53.5728 99.5669 52.6882 99.5669 51.5969C99.5669 50.5057 98.6823 49.6211 97.5911 49.6211C96.4998 49.6211 95.6152 50.5057 95.6152 51.5969C95.6152 52.6882 96.4998 53.5728 97.5911 53.5728Z" fill="white"/>
<path d="M93.1712 13.5591C94.2624 13.5591 95.147 12.6745 95.147 11.5833C95.147 10.492 94.2624 9.60742 93.1712 9.60742C92.0799 9.60742 91.1953 10.492 91.1953 11.5833C91.1953 12.6745 92.0799 13.5591 93.1712 13.5591Z" fill="white"/>
<path d="M95.5598 21.0864C96.651 21.0864 97.5357 20.2018 97.5357 19.1106C97.5357 18.0194 96.651 17.1348 95.5598 17.1348C94.4686 17.1348 93.584 18.0194 93.584 19.1106C93.584 20.2018 94.4686 21.0864 95.5598 21.0864Z" fill="white"/>
<path d="M97.9485 28.6118C99.0397 28.6118 99.9243 27.7272 99.9243 26.636C99.9243 25.5448 99.0397 24.6602 97.9485 24.6602C96.8573 24.6602 95.9727 25.5448 95.9727 26.636C95.9727 27.7272 96.8573 28.6118 97.9485 28.6118Z" fill="white"/>
<path d="M100.339 36.1294C101.43 36.1294 102.315 35.2448 102.315 34.1536C102.315 33.0623 101.43 32.1777 100.339 32.1777C99.2479 32.1777 98.3633 33.0623 98.3633 34.1536C98.3633 35.2448 99.2479 36.1294 100.339 36.1294Z" fill="white"/>
<path d="M102.728 43.6568C103.819 43.6568 104.704 42.7721 104.704 41.6809C104.704 40.5897 103.819 39.7051 102.728 39.7051C101.637 39.7051 100.752 40.5897 100.752 41.6809C100.752 42.7721 101.637 43.6568 102.728 43.6568Z" fill="white"/>
<path d="M105.116 51.1841C106.208 51.1841 107.092 50.2995 107.092 49.2083C107.092 48.117 106.208 47.2324 105.116 47.2324C104.025 47.2324 103.141 48.117 103.141 49.2083C103.141 50.2995 104.025 51.1841 105.116 51.1841Z" fill="white"/>
<path d="M100.697 11.1704C101.788 11.1704 102.672 10.2858 102.672 9.19459C102.672 8.10336 101.788 7.21875 100.697 7.21875C99.6053 7.21875 98.7207 8.10336 98.7207 9.19459C98.7207 10.2858 99.6053 11.1704 100.697 11.1704Z" fill="white"/>
<path d="M103.087 18.6958C104.178 18.6958 105.063 17.8112 105.063 16.72C105.063 15.6288 104.178 14.7441 103.087 14.7441C101.996 14.7441 101.111 15.6288 101.111 16.72C101.111 17.8112 101.996 18.6958 103.087 18.6958Z" fill="white"/>
<path d="M105.476 26.2232C106.567 26.2232 107.452 25.3385 107.452 24.2473C107.452 23.1561 106.567 22.2715 105.476 22.2715C104.385 22.2715 103.5 23.1561 103.5 24.2473C103.5 25.3385 104.385 26.2232 105.476 26.2232Z" fill="white"/>
<path d="M107.866 33.7407C108.958 33.7407 109.842 32.8561 109.842 31.7649C109.842 30.6737 108.958 29.7891 107.866 29.7891C106.775 29.7891 105.891 30.6737 105.891 31.7649C105.891 32.8561 106.775 33.7407 107.866 33.7407Z" fill="white"/>
<path d="M110.255 41.2681C111.346 41.2681 112.231 40.3835 112.231 39.2922C112.231 38.201 111.346 37.3164 110.255 37.3164C109.164 37.3164 108.279 38.201 108.279 39.2922C108.279 40.3835 109.164 41.2681 110.255 41.2681Z" fill="white"/>
<path d="M112.644 48.7935C113.735 48.7935 114.62 47.9089 114.62 46.8176C114.62 45.7264 113.735 44.8418 112.644 44.8418C111.553 44.8418 110.668 45.7264 110.668 46.8176C110.668 47.9089 111.553 48.7935 112.644 48.7935Z" fill="white"/>
<path d="M108.224 8.7798C109.315 8.7798 110.2 7.89519 110.2 6.80396C110.2 5.71274 109.315 4.82812 108.224 4.82812C107.133 4.82812 106.248 5.71274 106.248 6.80396C106.248 7.89519 107.133 8.7798 108.224 8.7798Z" fill="white"/>
<path d="M110.613 16.3071C111.704 16.3071 112.588 15.4225 112.588 14.3313C112.588 13.2401 111.704 12.3555 110.613 12.3555C109.521 12.3555 108.637 13.2401 108.637 14.3313C108.637 15.4225 109.521 16.3071 110.613 16.3071Z" fill="white"/>
<path d="M113.001 23.8345C114.092 23.8345 114.977 22.9499 114.977 21.8587C114.977 20.7674 114.092 19.8828 113.001 19.8828C111.91 19.8828 111.025 20.7674 111.025 21.8587C111.025 22.9499 111.91 23.8345 113.001 23.8345Z" fill="white"/>
<path d="M115.392 31.3521C116.483 31.3521 117.368 30.4675 117.368 29.3762C117.368 28.285 116.483 27.4004 115.392 27.4004C114.301 27.4004 113.416 28.285 113.416 29.3762C113.416 30.4675 114.301 31.3521 115.392 31.3521Z" fill="white"/>
<path d="M117.771 38.8775C118.862 38.8775 119.747 37.9928 119.747 36.9016C119.747 35.8104 118.862 34.9258 117.771 34.9258C116.68 34.9258 115.795 35.8104 115.795 36.9016C115.795 37.9928 116.68 38.8775 117.771 38.8775Z" fill="white"/>
<path d="M120.161 46.4048C121.253 46.4048 122.137 45.5202 122.137 44.429C122.137 43.3377 121.253 42.4531 120.161 42.4531C119.07 42.4531 118.186 43.3377 118.186 44.429C118.186 45.5202 119.07 46.4048 120.161 46.4048Z" fill="white"/>
<path d="M115.741 6.39113C116.833 6.39113 117.717 5.50652 117.717 4.41529C117.717 3.32407 116.833 2.43945 115.741 2.43945C114.65 2.43945 113.766 3.32407 113.766 4.41529C113.766 5.50652 114.65 6.39113 115.741 6.39113Z" fill="white"/>
<path d="M118.13 13.9185C119.221 13.9185 120.106 13.0339 120.106 11.9426C120.106 10.8514 119.221 9.9668 118.13 9.9668C117.039 9.9668 116.154 10.8514 116.154 11.9426C116.154 13.0339 117.039 13.9185 118.13 13.9185Z" fill="white"/>
<path d="M120.519 21.4439C121.61 21.4439 122.495 20.5593 122.495 19.468C122.495 18.3768 121.61 17.4922 120.519 17.4922C119.428 17.4922 118.543 18.3768 118.543 19.468C118.543 20.5593 119.428 21.4439 120.519 21.4439Z" fill="white"/>
<path d="M122.911 28.9614C124.003 28.9614 124.887 28.0768 124.887 26.9856C124.887 25.8944 124.003 25.0098 122.911 25.0098C121.82 25.0098 120.936 25.8944 120.936 26.9856C120.936 28.0768 121.82 28.9614 122.911 28.9614Z" fill="white"/>
<path d="M125.3 36.4888C126.391 36.4888 127.276 35.6042 127.276 34.5129C127.276 33.4217 126.391 32.5371 125.3 32.5371C124.209 32.5371 123.324 33.4217 123.324 34.5129C123.324 35.6042 124.209 36.4888 125.3 36.4888Z" fill="white"/>
<path d="M99.9797 61.0982C101.071 61.0982 101.956 60.2135 101.956 59.1223C101.956 58.0311 101.071 57.1465 99.9797 57.1465C98.8885 57.1465 98.0039 58.0311 98.0039 59.1223C98.0039 60.2135 98.8885 61.0982 99.9797 61.0982Z" fill="white"/>
<path d="M102.368 68.6157C103.46 68.6157 104.344 67.7311 104.344 66.6399C104.344 65.5487 103.46 64.6641 102.368 64.6641C101.277 64.6641 100.393 65.5487 100.393 66.6399C100.393 67.7311 101.277 68.6157 102.368 68.6157Z" fill="white"/>
<path d="M104.759 76.1431C105.85 76.1431 106.735 75.2585 106.735 74.1672C106.735 73.076 105.85 72.1914 104.759 72.1914C103.668 72.1914 102.783 73.076 102.783 74.1672C102.783 75.2585 103.668 76.1431 104.759 76.1431Z" fill="white"/>
<path d="M107.15 83.6685C108.241 83.6685 109.126 82.7839 109.126 81.6926C109.126 80.6014 108.241 79.7168 107.15 79.7168C106.058 79.7168 105.174 80.6014 105.174 81.6926C105.174 82.7839 106.058 83.6685 107.15 83.6685Z" fill="white"/>
<path d="M109.538 91.1958C110.63 91.1958 111.514 90.3112 111.514 89.22C111.514 88.1288 110.63 87.2441 109.538 87.2441C108.447 87.2441 107.562 88.1288 107.562 89.22C107.562 90.3112 108.447 91.1958 109.538 91.1958Z" fill="white"/>
<path d="M111.927 98.7134C113.018 98.7134 113.903 97.8288 113.903 96.7376C113.903 95.6463 113.018 94.7617 111.927 94.7617C110.836 94.7617 109.951 95.6463 109.951 96.7376C109.951 97.8288 110.836 98.7134 111.927 98.7134Z" fill="white"/>
<path d="M107.505 58.7095C108.596 58.7095 109.481 57.8249 109.481 56.7337C109.481 55.6424 108.596 54.7578 107.505 54.7578C106.414 54.7578 105.529 55.6424 105.529 56.7337C105.529 57.8249 106.414 58.7095 107.505 58.7095Z" fill="white"/>
<path d="M109.896 66.2271C110.987 66.2271 111.872 65.3425 111.872 64.2512C111.872 63.16 110.987 62.2754 109.896 62.2754C108.805 62.2754 107.92 63.16 107.92 64.2512C107.92 65.3425 108.805 66.2271 109.896 66.2271Z" fill="white"/>
<path d="M112.286 73.7525C113.378 73.7525 114.262 72.8678 114.262 71.7766C114.262 70.6854 113.378 69.8008 112.286 69.8008C111.195 69.8008 110.311 70.6854 110.311 71.7766C110.311 72.8678 111.195 73.7525 112.286 73.7525Z" fill="white"/>
<path d="M114.675 81.2798C115.766 81.2798 116.651 80.3952 116.651 79.304C116.651 78.2127 115.766 77.3281 114.675 77.3281C113.584 77.3281 112.699 78.2127 112.699 79.304C112.699 80.3952 113.584 81.2798 114.675 81.2798Z" fill="white"/>
<path d="M117.064 88.8071C118.155 88.8071 119.04 87.9225 119.04 86.8313C119.04 85.7401 118.155 84.8555 117.064 84.8555C115.973 84.8555 115.088 85.7401 115.088 86.8313C115.088 87.9225 115.973 88.8071 117.064 88.8071Z" fill="white"/>
<path d="M119.452 96.3247C120.544 96.3247 121.428 95.4401 121.428 94.3489C121.428 93.2577 120.544 92.373 119.452 92.373C118.361 92.373 117.477 93.2577 117.477 94.3489C117.477 95.4401 118.361 96.3247 119.452 96.3247Z" fill="white"/>
<path d="M115.034 56.3208C116.126 56.3208 117.01 55.4362 117.01 54.345C117.01 53.2538 116.126 52.3691 115.034 52.3691C113.943 52.3691 113.059 53.2538 113.059 54.345C113.059 55.4362 113.943 56.3208 115.034 56.3208Z" fill="white"/>
<path d="M117.423 63.8364C118.514 63.8364 119.399 62.9518 119.399 61.8606C119.399 60.7694 118.514 59.8848 117.423 59.8848C116.332 59.8848 115.447 60.7694 115.447 61.8606C115.447 62.9518 116.332 63.8364 117.423 63.8364Z" fill="white"/>
<path d="M119.814 71.3638C120.905 71.3638 121.79 70.4792 121.79 69.3879C121.79 68.2967 120.905 67.4121 119.814 67.4121C118.722 67.4121 117.838 68.2967 117.838 69.3879C117.838 70.4792 118.722 71.3638 119.814 71.3638Z" fill="white"/>
<path d="M122.2 78.8911C123.292 78.8911 124.176 78.0065 124.176 76.9153C124.176 75.8241 123.292 74.9395 122.2 74.9395C121.109 74.9395 120.225 75.8241 120.225 76.9153C120.225 78.0065 121.109 78.8911 122.2 78.8911Z" fill="white"/>
<path d="M124.589 86.4165C125.68 86.4165 126.565 85.5319 126.565 84.4407C126.565 83.3495 125.68 82.4648 124.589 82.4648C123.498 82.4648 122.613 83.3495 122.613 84.4407C122.613 85.5319 123.498 86.4165 124.589 86.4165Z" fill="white"/>
<path d="M122.55 53.9302C123.641 53.9302 124.526 53.0456 124.526 51.9544C124.526 50.8631 123.641 49.9785 122.55 49.9785C121.459 49.9785 120.574 50.8631 120.574 51.9544C120.574 53.0456 121.459 53.9302 122.55 53.9302Z" fill="white"/>
<path d="M124.939 61.4478C126.03 61.4478 126.915 60.5632 126.915 59.4719C126.915 58.3807 126.03 57.4961 124.939 57.4961C123.847 57.4961 122.963 58.3807 122.963 59.4719C122.963 60.5632 123.847 61.4478 124.939 61.4478Z" fill="white"/>
<path d="M-7 43.252C-7 43.252 50.6026 62.7438 34.5753 118.94" stroke="white" stroke-width="2" stroke-miterlimit="10"/>
<path d="M49.5556 32.9767C56.9076 31.7545 66.1802 31.7545 77.3276 34.4104C78.9744 34.8038 80.5692 35.3899 82.0788 36.1564C83.8198 34.5035 85.3619 32.653 86.6738 30.6425C87.8555 28.902 88.603 26.9038 88.8538 24.815C89.1046 22.7263 88.8514 20.6079 88.1153 18.6371C87.3792 16.6664 86.1816 14.9007 84.6229 13.4878C83.0643 12.075 81.1898 11.0561 79.1564 10.5165C72.9952 8.91188 66.6339 8.2092 60.2711 8.43038C57.9929 8.49531 55.764 9.10876 53.7735 10.2187C51.7829 11.3286 50.0894 12.9023 48.8367 14.8062C47.5839 16.7102 46.8089 18.8882 46.5773 21.1554C46.3457 23.4227 46.6643 25.7125 47.5063 27.8304L49.5556 32.9767Z" fill="black"/>
<path d="M54.281 9.91992C51.1098 11.511 48.6507 14.2337 47.3899 17.5501C46.129 20.8664 46.158 24.5351 47.4713 27.8311L49.5206 32.9775" stroke="black" stroke-width="1.5" stroke-linecap="round" stroke-linejoin="round"/>
<path d="M77.3261 34.4104C78.9729 34.8038 80.5676 35.3899 82.0773 36.1564C83.8183 34.5035 85.3603 32.653 86.6722 30.6425C87.854 28.902 88.6015 26.9038 88.8523 24.815C89.1031 22.7263 88.8498 20.6079 88.1137 18.6371C87.3776 16.6664 86.1801 14.9007 84.6214 13.4878C83.0627 12.075 81.1882 11.0561 79.1549 10.5165C72.9937 8.91188 66.6324 8.2092 60.2695 8.43038" stroke="black" stroke-width="1.5" stroke-linecap="round" stroke-linejoin="round"/>
<path d="M38.7287 92.5015C38.382 91.5801 38.0935 90.6378 37.8649 89.6802C36.4811 89.3342 35.1402 88.8348 33.8672 88.1914V88.1914C33.8672 88.1914 33.8213 92.235 36.4588 93.154C36.8567 93.3034 37.2816 93.3676 37.7059 93.3422C38.1302 93.3169 38.5444 93.2027 38.9217 93.0069C38.8482 92.7956 38.8022 92.6302 38.7287 92.5015Z" fill="#FF57A4"/>
<path d="M36.7251 75.041C36.7251 75.041 36.1094 85.683 38.7285 92.5019C41.3476 99.3209 39.6475 101.912 45.2074 108.391C47.1755 110.705 49.3268 112.856 51.6404 114.824C52.7811 115.783 54.169 116.401 55.6448 116.608C57.1206 116.814 58.6248 116.6 59.9848 115.991C64.7676 113.919 69.3226 111.357 73.5768 108.345C80.8276 102.951 82.831 98.7878 82.831 94.3123" stroke="black" stroke-width="1.5" stroke-linecap="round" stroke-linejoin="round"/>
<path d="M82.8228 91.6828C82.8228 91.6828 86.5723 92.2526 88.8974 86.7754C91.2224 81.2982 93.5567 74.4425 90.0002 74.4425C86.4436 74.4425 84.1094 78.2839 84.1094 78.2839C84.1094 78.2839 70.1866 76.9606 72.1625 60.3359C67.4916 62.0943 62.3408 62.0943 57.6699 60.3359" stroke="black" stroke-width="1.5" stroke-linecap="round" stroke-linejoin="round"/>
<path d="M93.0606 61.026L93.3547 59.574C94.4708 54.12 93.4227 48.4457 90.4319 43.7503C87.4411 39.0548 82.7419 35.7062 77.3274 34.412C61.1715 30.5614 49.0315 32.2983 40.7055 35.2115C36.6718 36.6365 33.2923 39.4771 31.1948 43.2056C29.0973 46.9341 28.4243 51.2972 29.3007 55.4845L30.0727 59.1605C30.7098 62.3895 30.3243 65.7368 28.9699 68.7364C25.2939 77.2095 26.4518 86.666 37.8658 89.5976C36.2667 83.0727 36.7262 75.0407 36.7262 75.0407C36.7262 75.0407 41.9277 69.2694 41.9277 58.5631C41.9277 50.9539 47.9471 48.6472 47.9471 48.6472C47.9471 48.6472 49.923 57.3684 57.6701 60.3368C62.3409 62.0952 67.4918 62.0952 72.1626 60.3368C70.1868 76.9706 84.1096 78.2939 84.1096 78.2939C84.1096 78.2939 86.4346 74.4525 90.0003 74.4525C91.7372 74.4525 92.0681 76.0975 91.6821 78.4042C99.3741 68.3504 93.0606 61.026 93.0606 61.026Z" fill="black"/>
<path d="M54.279 32.3887C49.6404 32.744 45.0664 33.6922 40.6687 35.21C36.6418 36.6419 33.2707 39.4854 31.1803 43.2132C29.09 46.941 28.4222 51.3004 29.3007 55.483L30.0727 59.159C30.7098 62.388 30.3243 65.7353 28.9699 68.7349C25.2939 77.208 26.4518 86.6645 37.8658 89.5961C36.2667 83.0712 36.7262 75.0392 36.7262 75.0392C36.7262 75.0392 41.9277 69.2679 41.9277 58.5616C41.852 55.9473 42.7198 53.3931 44.3722 51.3659" stroke="black" stroke-width="1.5" stroke-linecap="round" stroke-linejoin="round"/>
<path d="M47.9473 48.6381C47.9473 48.6381 49.9231 57.3686 57.6702 60.3369C62.3411 62.0953 67.4919 62.0953 72.1628 60.3369C70.1869 76.9707 84.1097 78.2941 84.1097 78.2941C84.1097 78.2941 86.4348 74.4527 90.0005 74.4527C91.7374 74.4527 92.0682 76.0977 91.6822 78.4044C99.3742 68.369 93.0607 61.0446 93.0607 61.0446L93.3548 59.5926C94.4762 54.1358 93.4307 48.4569 90.4395 43.7573C87.4482 39.0577 82.7459 35.7063 77.3275 34.4121" stroke="black" stroke-width="1.5" stroke-linecap="round" stroke-linejoin="round"/>
<path d="M53.3586 80.5547C53.3586 80.5547 54.4613 91.5826 51.1713 98.4016C51.0642 98.6188 51.0138 98.8597 51.025 99.1016C51.0361 99.3436 51.1083 99.5788 51.235 99.7853C51.3616 99.9918 51.5385 100.163 51.7492 100.282C51.9598 100.402 52.1973 100.466 52.4396 100.469H55.7112" stroke="black" stroke-width="1.5" stroke-linecap="round" stroke-linejoin="round"/>
<path d="M63.92 85.433C64.8203 85.2777 65.3794 84.1624 65.1688 82.9421C64.9583 81.7217 64.0577 80.8583 63.1574 81.0136C62.2572 81.169 61.6981 82.2842 61.9086 83.5046C62.1192 84.725 63.0197 85.5884 63.92 85.433Z" fill="black"/>
<path d="M63.92 85.433C64.8203 85.2777 65.3794 84.1624 65.1688 82.9421C64.9583 81.7217 64.0577 80.8583 63.1574 81.0136C62.2572 81.169 61.6981 82.2842 61.9086 83.5046C62.1192 84.725 63.0197 85.5884 63.92 85.433Z" stroke="black" stroke-width="1.5" stroke-linecap="round" stroke-linejoin="round"/>
<path d="M46.7579 85.0834C47.6582 84.9281 48.2173 83.8128 48.0067 82.5925C47.7961 81.3721 46.8956 80.5087 45.9953 80.664C45.0951 80.8194 44.5359 81.9346 44.7465 83.155C44.9571 84.3754 45.8576 85.2388 46.7579 85.0834Z" fill="black"/>
<path d="M46.7579 85.0834C47.6582 84.9281 48.2173 83.8128 48.0067 82.5925C47.7961 81.3721 46.8956 80.5087 45.9953 80.664C45.0951 80.8194 44.5359 81.9346 44.7465 83.155C44.9571 84.3754 45.8576 85.2388 46.7579 85.0834Z" stroke="black" stroke-width="1.5" stroke-linecap="round" stroke-linejoin="round"/>
<path d="M55.1973 104.77C55.9281 104.763 56.6331 105.039 57.1639 105.542C57.7613 106.304 56.9985 106.994 56.1806 107.251" stroke="black" stroke-width="1.5" stroke-linecap="round" stroke-linejoin="round"/>
<path d="M84.9082 83.5494C84.9082 83.5494 86.1488 79.0831 88.722 77.7598" stroke="black" stroke-width="1.5" stroke-linecap="round" stroke-linejoin="round"/>
<path d="M33.8575 88.1445C33.8575 88.1445 33.8024 92.1973 36.4491 93.1071" stroke="black" stroke-width="1.5" stroke-linecap="round" stroke-linejoin="round"/>
<path d="M39.6289 79.2397C39.6289 79.2397 42.2572 73.45 49.7378 73.79V71.6855C49.7378 71.6855 42.1837 71.9521 39.6289 79.2397Z" fill="black"/>
<path d="M39.6289 79.2397C39.6289 79.2397 42.2572 73.45 49.7378 73.79V71.6855C49.7378 71.6855 42.1837 71.9521 39.6289 79.2397Z" stroke="black" stroke-width="1.5" stroke-linecap="round" stroke-linejoin="round"/>
<path d="M72.0252 77.0808C70.1286 75.6241 67.959 74.5629 65.6448 73.9599C63.3307 73.3569 60.919 73.2244 58.5527 73.5702V71.7322C58.5527 71.7322 67.7335 71.1257 72.0252 77.0808Z" fill="black"/>
<path d="M72.0252 77.0808C70.1286 75.6241 67.959 74.5629 65.6448 73.9599C63.3307 73.3569 60.919 73.2244 58.5527 73.5702V71.7322C58.5527 71.7322 67.7335 71.1257 72.0252 77.0808Z" stroke="black" stroke-width="1.5" stroke-linecap="round" stroke-linejoin="round"/>
<path d="M47.9481 48.6369C47.0361 45.8049 46.5468 42.8538 46.4961 39.8789" stroke="black" stroke-width="1.5" stroke-linecap="round" stroke-linejoin="round"/>
<path d="M54.2793 51.1465C54.2793 51.1465 56.9903 57.8 66.8236 56.3848" stroke="black" stroke-width="1.5" stroke-linecap="round" stroke-linejoin="round"/>
<path d="M80.5898 16.9785C80.5898 16.9785 86.7379 21.7297 80.5898 30.8737" stroke="black" stroke-width="1.5" stroke-linecap="round" stroke-linejoin="round"/>
<path d="M36.7246 75.041C35.6757 76.7064 34.2964 78.1389 32.6719 79.25" stroke="black" stroke-width="1.5" stroke-linecap="round" stroke-linejoin="round"/>
</g>
<defs>
<clipPath id="clip0_1901_52181">
<path d="M0 62.5C0 27.9822 27.9822 0 62.5 0V0C97.0178 0 125 27.9822 125 62.5V62.5C125 97.0178 97.0178 125 62.5 125V125C27.9822 125 0 97.0178 0 62.5V62.5Z" fill="white"/>
</clipPath>
</defs>
</svg>
