<svg width="50" height="50" viewBox="0 0 50 50" fill="none" xmlns="http://www.w3.org/2000/svg">
<path d="M38.125 11.8958C37.3125 11.0833 36 11.0833 35.1875 11.8958L25 22.0625L14.8125 11.875C14 11.0625 12.6875 11.0625 11.875 11.875C11.0625 12.6875 11.0625 14 11.875 14.8125L22.0625 25L11.875 35.1875C11.0625 36 11.0625 37.3125 11.875 38.125C12.6875 38.9375 14 38.9375 14.8125 38.125L25 27.9375L35.1875 38.125C36 38.9375 37.3125 38.9375 38.125 38.125C38.9375 37.3125 38.9375 36 38.125 35.1875L27.9375 25L38.125 14.8125C38.9167 14.0208 38.9167 12.6875 38.125 11.8958Z" fill="black"/>
</svg>
