<svg width="312" height="109" viewBox="0 0 312 109" fill="none" xmlns="http://www.w3.org/2000/svg">
<path d="M0 66.125H75C86.598 66.125 96 75.527 96 87.125C96 98.723 86.598 108.125 75 108.125H30C13.4315 108.125 0 94.6935 0 78.125V66.125Z" fill="#FF59A3"/>
<path d="M28.14 91.125H30.72L34.04 85.385H34.18V91.125H37V80.965H34.4L31.12 86.685H30.96V80.965H28.14V91.125ZM41.8728 88.645C42.7328 87.445 42.9728 84.785 42.9928 83.465H45.0928V88.645H41.8728ZM41.0128 91.125H46.7728L46.9728 93.765H49.4928V88.645H47.9328V80.965H40.7128C40.6528 84.605 40.3328 87.425 39.1328 88.645H38.2728V93.765H40.8128L41.0128 91.125ZM55.4981 91.325C56.8781 91.325 58.0981 91.025 58.7981 90.565V88.145C57.9581 88.685 56.8581 88.885 55.7381 88.885C54.1781 88.885 53.3981 88.085 53.2981 86.565H59.0181C59.0981 86.305 59.2181 85.665 59.2181 84.945C59.2181 82.125 57.4581 80.765 54.9381 80.765C52.0381 80.765 50.2181 82.785 50.2181 86.085C50.2181 89.605 52.1581 91.325 55.4981 91.325ZM53.1781 84.885C53.2981 83.745 53.7981 82.965 54.8581 82.965C55.8781 82.965 56.4581 83.645 56.5181 84.885H53.1781ZM65.1134 85.945C64.0734 85.945 63.5734 85.285 63.5734 84.565C63.5734 83.885 64.0734 83.185 65.1134 83.185H66.1734V85.945H65.1134ZM66.1734 88.005V91.125H69.0134V80.965H64.6734C61.7334 80.965 60.6534 82.805 60.6534 84.345C60.6534 85.885 61.4734 86.945 62.8734 87.385L60.1934 91.125H63.3534L65.6134 88.005H66.1734Z" fill="white"/>
<path d="M108 66.125H183C194.598 66.125 204 75.527 204 87.125C204 98.723 194.598 108.125 183 108.125H138C121.431 108.125 108 94.6935 108 78.125V66.125Z" fill="#C882FF"/>
<path d="M136.14 91.125H138.72L142.04 85.385H142.18V91.125H145V80.965H142.4L139.12 86.685H138.96V80.965H136.14V91.125ZM149.873 88.645C150.733 87.445 150.973 84.785 150.993 83.465H153.093V88.645H149.873ZM149.013 91.125H154.773L154.973 93.765H157.493V88.645H155.933V80.965H148.713C148.653 84.605 148.333 87.425 147.133 88.645H146.273V93.765H148.813L149.013 91.125ZM163.498 91.325C164.878 91.325 166.098 91.025 166.798 90.565V88.145C165.958 88.685 164.858 88.885 163.738 88.885C162.178 88.885 161.398 88.085 161.298 86.565H167.018C167.098 86.305 167.218 85.665 167.218 84.945C167.218 82.125 165.458 80.765 162.938 80.765C160.038 80.765 158.218 82.785 158.218 86.085C158.218 89.605 160.158 91.325 163.498 91.325ZM161.178 84.885C161.298 83.745 161.798 82.965 162.858 82.965C163.878 82.965 164.458 83.645 164.518 84.885H161.178ZM173.113 85.945C172.073 85.945 171.573 85.285 171.573 84.565C171.573 83.885 172.073 83.185 173.113 83.185H174.173V85.945H173.113ZM174.173 88.005V91.125H177.013V80.965H172.673C169.733 80.965 168.653 82.805 168.653 84.345C168.653 85.885 169.473 86.945 170.873 87.385L168.193 91.125H171.353L173.613 88.005H174.173Z" fill="white"/>
<path d="M216 66.125H291C302.598 66.125 312 75.527 312 87.125C312 98.723 302.598 108.125 291 108.125H246C229.431 108.125 216 94.6935 216 78.125V66.125Z" fill="#1EE7CA"/>
<path d="M244.14 91.125H246.72L250.04 85.385H250.18V91.125H253V80.965H250.4L247.12 86.685H246.96V80.965H244.14V91.125ZM257.873 88.645C258.733 87.445 258.973 84.785 258.993 83.465H261.093V88.645H257.873ZM257.013 91.125H262.773L262.973 93.765H265.493V88.645H263.933V80.965H256.713C256.653 84.605 256.333 87.425 255.133 88.645H254.273V93.765H256.813L257.013 91.125ZM271.498 91.325C272.878 91.325 274.098 91.025 274.798 90.565V88.145C273.958 88.685 272.858 88.885 271.738 88.885C270.178 88.885 269.398 88.085 269.298 86.565H275.018C275.098 86.305 275.218 85.665 275.218 84.945C275.218 82.125 273.458 80.765 270.938 80.765C268.038 80.765 266.218 82.785 266.218 86.085C266.218 89.605 268.158 91.325 271.498 91.325ZM269.178 84.885C269.298 83.745 269.798 82.965 270.858 82.965C271.878 82.965 272.458 83.645 272.518 84.885H269.178ZM281.113 85.945C280.073 85.945 279.573 85.285 279.573 84.565C279.573 83.885 280.073 83.185 281.113 83.185H282.173V85.945H281.113ZM282.173 88.005V91.125H285.013V80.965H280.673C277.733 80.965 276.653 82.805 276.653 84.345C276.653 85.885 277.473 86.945 278.873 87.385L276.193 91.125H279.353L281.613 88.005H282.173Z" fill="white"/>
<path d="M47.8707 41.8131C47.9167 41.8653 47.9455 41.9305 47.9532 42C47.9474 41.9635 47.9474 41.9263 47.9532 41.8898L47.8707 41.8131ZM47.8707 41.8131C47.9167 41.8653 47.9455 41.9305 47.9532 42C47.9474 41.9635 47.9474 41.9263 47.9532 41.8898L47.8707 41.8131ZM47.7936 41.7249L47.8266 41.769C47.8381 41.7863 47.853 41.8012 47.8707 41.8131L47.7936 41.7249ZM47.8707 41.8127V41.8131C47.9167 41.8653 47.9455 41.9305 47.9532 42C47.9474 41.9635 47.9474 41.9263 47.9532 41.8898L47.8707 41.8127ZM47.8212 44.2605L47.9532 44.1945L47.8212 44.2605ZM47.8212 41.7249L47.8542 41.769C47.8657 41.7863 47.8806 41.8013 47.8979 41.8132L47.8212 41.7249ZM45.2031 38.8594V39.2499C45.2027 39.121 45.2346 38.9944 45.2964 38.8812L45.2031 38.8594ZM47.8707 41.8127V41.8131C47.9167 41.8653 47.9455 41.9305 47.9532 42C47.9474 41.9635 47.9474 41.9263 47.9532 41.8898L47.8707 41.8127Z" fill="white"/>
<path d="M49.5586 50.081H49.6027L49.6023 49.7012C49.6035 49.8293 49.5889 49.9567 49.5586 50.081Z" fill="white"/>
<path d="M62.8029 27.568C62.8056 27.5518 62.8056 27.535 62.8029 27.5185C62.5773 25.3186 58.2819 24.125 54.0025 24.125C49.7237 24.125 45.4501 25.2909 45.2022 27.5185C45.1995 27.535 45.1999 27.5518 45.2026 27.568C45.1995 27.6121 45.1995 27.6562 45.2026 27.6999V38.8593H45.2962C45.2344 38.9724 45.2022 39.099 45.2026 39.228V38.8374C43.7539 38.5489 42.2795 38.4108 40.8024 38.425C36.5453 38.425 32.2499 39.5909 32.002 41.8184C31.9993 41.8349 31.9993 41.8514 32.002 41.8679C31.9993 41.912 31.9993 41.9558 32.002 41.9999V53.5501C32.002 55.8985 36.4022 57.125 40.8024 57.125C44.9329 57.125 49.1131 56.0251 49.564 53.9295C51.0237 54.2322 52.5116 54.3815 54.0024 54.375C58.2595 54.375 62.5549 53.209 62.8028 50.9815C62.8082 50.9209 62.8082 50.8603 62.8028 50.8V27.6996C62.8055 27.6558 62.8056 27.6121 62.8029 27.568ZM40.8025 40.0748C42.4871 40.0529 44.1664 40.2678 45.7912 40.7128L46.0605 40.8007H46.1319C46.7453 40.9649 47.3105 41.2726 47.782 41.6977L47.8591 41.7855L47.9527 41.868C47.947 41.9045 47.947 41.9417 47.9527 41.9781C47.9527 42.1926 47.4632 42.6986 46.1488 43.1498L45.7912 43.2653C44.1672 43.7184 42.4879 43.9402 40.8025 43.9252C36.0835 43.9252 33.6523 42.5778 33.6523 42C33.6523 41.4226 36.0835 40.0748 40.8025 40.0748ZM47.9527 53.5501C47.9527 54.1002 45.5215 55.4753 40.8025 55.4753C36.0835 55.4753 33.6523 54.1279 33.6523 53.5501V51.8999C33.7731 51.9659 33.8997 52.0319 34.0317 52.0925L34.3286 52.2245C34.6866 52.3749 35.0541 52.5019 35.429 52.604L35.7313 52.6918C36.0888 52.7908 36.4683 52.8733 36.8312 52.9504C37.0733 52.9945 37.3207 53.0382 37.5736 53.0712L37.9641 53.1261C38.9064 53.2343 39.854 53.2842 40.8024 53.275C42.7963 53.3083 44.7828 53.0244 46.6873 52.4332L47.0449 52.3012C47.2758 52.2134 47.4903 52.1198 47.6829 52.0262L47.8202 51.9548L47.9522 51.8834L47.9527 53.5501ZM47.9527 49.7001C47.9527 49.9146 47.4632 50.4206 46.1488 50.8718C44.4177 51.4032 42.613 51.6572 40.8025 51.6249C36.0835 51.6249 33.6523 50.2775 33.6523 49.6997V48.0496C33.7731 48.1156 33.8997 48.1816 34.0317 48.2422L34.3286 48.3741C34.6866 48.5249 35.0541 48.6515 35.429 48.754L35.7313 48.8418C36.0888 48.9408 36.4683 49.0233 36.8312 49.1004C37.0733 49.1445 37.3208 49.1883 37.5736 49.2213L37.9641 49.2761C38.9064 49.3843 39.854 49.4342 40.8024 49.425C42.6413 49.4457 44.4744 49.209 46.2473 48.721C46.3962 48.6822 46.5431 48.6366 46.6874 48.5832L47.0449 48.4513C47.2759 48.3634 47.4904 48.2698 47.683 48.1762L47.8203 48.1048L47.9523 48.0335V49.0233C47.9438 49.0797 47.9442 49.1372 47.9527 49.1936C47.9657 49.2504 47.9841 49.3056 48.0075 49.359C47.9642 49.4672 47.9454 49.5838 47.9527 49.7001ZM47.9527 45.8501C47.9527 46.0646 47.4632 46.5706 46.1488 47.0218L45.7912 47.1373C44.1664 47.5827 42.4871 47.7972 40.8025 47.775C36.0835 47.775 33.6523 46.4275 33.6523 45.8497V44.1996C33.7731 44.2656 33.8997 44.3316 34.0317 44.3922L34.3287 44.5242C34.6874 44.673 35.0549 44.7996 35.429 44.9036L35.7313 44.9915C36.0889 45.0851 36.4683 45.1729 36.8312 45.25C37.0733 45.2942 37.3208 45.3379 37.5736 45.3709L37.9642 45.4258C38.9064 45.5343 39.8541 45.5842 40.8024 45.5746C42.6413 45.5957 44.4744 45.3586 46.2473 44.8706C46.3962 44.8322 46.5431 44.7866 46.6874 44.7333L47.045 44.6013C47.2813 44.5134 47.4904 44.4198 47.683 44.3262L47.8203 44.2548L47.9523 44.1835V45.1733C47.9439 45.2297 47.9443 45.2872 47.9527 45.3436C47.9657 45.4004 47.9842 45.4557 48.0076 45.5086C47.9642 45.6168 47.9454 45.7339 47.9527 45.8501ZM61.153 50.8C61.153 51.3502 58.7217 52.7252 54.0027 52.7252C52.5226 52.7391 51.0455 52.5783 49.6026 52.2464V50.0903H49.5584C49.5895 49.9625 49.6045 49.8313 49.6026 49.6997V50.0903C51.0505 50.3861 52.5253 50.5315 54.0027 50.525C56.7528 50.525 59.4698 50.0466 61.153 49.1224V50.8ZM61.153 46.95C61.153 47.5002 58.7217 48.8753 54.0027 48.8753C52.5226 48.8891 51.0455 48.7279 49.6026 48.3965V46.2403H49.5584C49.5895 46.1126 49.6045 45.9814 49.6026 45.8498V46.2403C51.0505 46.5361 52.5253 46.6815 54.0027 46.675C56.7528 46.675 59.4698 46.1966 61.153 45.2724V46.95ZM61.153 43.1001C61.153 43.6502 58.7217 45.0253 54.0027 45.0253C52.5226 45.0391 51.0455 44.878 49.6026 44.5465V42.3904H49.5584C49.5895 42.2626 49.6045 42.1314 49.6026 41.9998V42.3904C51.0501 42.6888 52.5249 42.8346 54.0027 42.8247C56.7528 42.8247 59.4698 42.3462 61.153 41.422V43.1001ZM61.153 39.2501C61.153 39.8003 58.7217 41.1753 54.0027 41.1753C52.284 41.1987 50.5706 40.9739 48.915 40.5093C48.3204 39.9745 47.6167 39.5747 46.8525 39.3376C46.8556 39.3123 46.8556 39.2862 46.8525 39.2608V37.6107C48.5356 38.4962 51.2527 38.9746 54.0027 38.9746C56.7528 38.9746 59.4698 38.4962 61.153 37.572V39.2501ZM61.153 35.4001C61.153 35.9503 58.7217 37.3253 54.0027 37.3253C49.2838 37.3253 46.8525 35.9779 46.8525 35.4001V33.75C48.5356 34.6462 51.2527 35.1246 54.0027 35.1246C56.7528 35.1246 59.4698 34.6462 61.153 33.722V35.4001ZM61.153 31.5501C61.153 32.1003 58.7217 33.4754 54.0027 33.4754C49.2838 33.4754 46.8525 32.1279 46.8525 31.5501V29.9C48.5356 30.7962 51.2527 31.2746 54.0027 31.2746C56.7528 31.2746 59.4698 30.7962 61.153 29.872V31.5501ZM54.0027 29.6246C49.2838 29.6246 46.8525 28.2772 46.8525 27.6994C46.8525 27.122 49.2838 25.7745 54.0027 25.7745C58.7217 25.7745 61.153 27.122 61.153 27.6998C61.153 28.2772 58.7217 29.6246 54.0027 29.6246Z" fill="white"/>
<path d="M47.9507 49.1956C47.9423 49.1392 47.9423 49.0816 47.9507 49.0252V49.7016C47.9503 49.5838 47.9768 49.4672 48.0275 49.3609C47.9968 49.3083 47.9711 49.2531 47.9507 49.1955V49.1956ZM47.9507 49.1956C47.9423 49.1392 47.9423 49.0816 47.9507 49.0252V49.7016C47.9503 49.5838 47.9768 49.4672 48.0275 49.3609C47.9968 49.3083 47.9711 49.2531 47.9507 49.1955V49.1956ZM49.5349 46.231H49.579L49.5786 45.8516C49.587 45.9786 49.5794 46.1059 49.5567 46.231H49.5349ZM47.9507 49.1956C47.9423 49.1392 47.9423 49.0816 47.9507 49.0252V49.7016C47.9503 49.5838 47.9768 49.4672 48.0275 49.3609C47.9968 49.3083 47.9711 49.2531 47.9507 49.1955V49.1956ZM47.7969 51.9456L47.9289 51.8796L47.7969 51.9456ZM47.9507 49.1956C47.9423 49.1392 47.9423 49.0816 47.9507 49.0252V49.7016C47.9503 49.5838 47.9768 49.4672 48.0275 49.3609C47.9968 49.3083 47.9711 49.2531 47.9507 49.1955V49.1956Z" fill="white"/>
<path d="M47.9507 45.344C47.9423 45.2876 47.9423 45.23 47.9507 45.1737V45.85C47.9503 45.7323 47.9768 45.6156 48.0275 45.509C47.9968 45.4568 47.9711 45.4015 47.9507 45.344V45.344ZM47.9507 45.344C47.9423 45.2876 47.9423 45.23 47.9507 45.1737V45.85C47.9503 45.7323 47.9768 45.6156 48.0275 45.509C47.9968 45.4568 47.9711 45.4015 47.9507 45.344V45.344ZM49.5349 42.3794H49.579L49.5786 42C49.587 42.127 49.5794 42.2544 49.5567 42.3794H49.5349ZM47.9507 45.344C47.9423 45.2876 47.9423 45.23 47.9507 45.1737V45.85C47.9503 45.7323 47.9768 45.6156 48.0275 45.509C47.9968 45.4568 47.9711 45.4015 47.9507 45.344V45.344ZM47.7969 48.094L47.9289 48.0281L47.7969 48.094ZM47.9507 45.344C47.9423 45.2876 47.9423 45.23 47.9507 45.1737V45.85C47.9503 45.7323 47.9768 45.6156 48.0275 45.509C47.9968 45.4568 47.9711 45.4015 47.9507 45.344V45.344Z" fill="white"/>
<path d="M46.8539 39.3385C46.8569 39.3131 46.8569 39.287 46.8539 39.2617C46.8508 39.287 46.8508 39.3131 46.8539 39.3385Z" fill="white"/>
<path d="M49.6027 42V42.3906H49.5586H49.559C49.5901 42.2628 49.6046 42.1316 49.6027 42Z" fill="white"/>
<path d="M45.2964 38.8812C45.2346 38.9944 45.2027 39.121 45.2031 39.2499V38.8594L45.2964 38.8812Z" fill="white"/>
<path d="M49.6027 49.7012V50.0917H49.5586H49.559C49.5901 49.964 49.6046 49.8328 49.6027 49.7012Z" fill="white"/>
<path d="M49.6027 45.8516V46.2421H49.5586H49.559C49.5901 46.1144 49.6046 45.9832 49.6027 45.8516Z" fill="white"/>
<path d="M135.871 41.8131C135.917 41.8653 135.945 41.9305 135.953 42C135.947 41.9635 135.947 41.9263 135.953 41.8898L135.871 41.8131ZM135.871 41.8131C135.917 41.8653 135.945 41.9305 135.953 42C135.947 41.9635 135.947 41.9263 135.953 41.8898L135.871 41.8131ZM135.794 41.7249L135.827 41.769C135.838 41.7863 135.853 41.8012 135.871 41.8131L135.794 41.7249ZM135.871 41.8127V41.8131C135.917 41.8653 135.945 41.9305 135.953 42C135.947 41.9635 135.947 41.9263 135.953 41.8898L135.871 41.8127ZM135.821 44.2605L135.953 44.1945L135.821 44.2605ZM135.821 41.7249L135.854 41.769C135.866 41.7863 135.881 41.8013 135.898 41.8132L135.821 41.7249ZM133.203 38.8594V39.2499C133.203 39.121 133.235 38.9944 133.296 38.8812L133.203 38.8594ZM135.871 41.8127V41.8131C135.917 41.8653 135.945 41.9305 135.953 42C135.947 41.9635 135.947 41.9263 135.953 41.8898L135.871 41.8127Z" fill="white"/>
<path d="M137.559 50.081H137.603L137.602 49.7012C137.603 49.8293 137.589 49.9567 137.559 50.081Z" fill="white"/>
<path d="M150.803 27.568C150.806 27.5518 150.806 27.535 150.803 27.5185C150.577 25.3186 146.282 24.125 142.003 24.125C137.724 24.125 133.45 25.2909 133.202 27.5185H133.203C133.2 27.535 133.2 27.5518 133.203 27.568C133.199 27.6121 133.199 27.6562 133.203 27.6999V38.8593H133.296H133.296C133.234 38.9724 133.202 39.099 133.203 39.228V38.8374C131.754 38.5489 130.279 38.4108 128.802 38.425C124.545 38.425 120.25 39.5909 120.002 41.8184C119.999 41.8349 119.999 41.8514 120.002 41.8679C119.999 41.912 119.999 41.9558 120.002 41.9999V53.5501C120.002 55.8985 124.402 57.125 128.802 57.125C132.933 57.125 137.113 56.0251 137.564 53.9295C139.024 54.2322 140.512 54.3815 142.002 54.375C146.26 54.375 150.555 53.209 150.803 50.9815C150.808 50.9209 150.808 50.8603 150.803 50.8V27.6996C150.805 27.6558 150.805 27.6117 150.803 27.5676L150.803 27.568ZM128.802 40.0748C130.487 40.0529 132.166 40.2678 133.791 40.7128L134.061 40.8007H134.132V40.8011C134.745 40.9653 135.31 41.2726 135.782 41.6977L135.859 41.7855L135.953 41.868C135.947 41.9045 135.947 41.9417 135.953 41.9781C135.953 42.1926 135.463 42.6986 134.149 43.1498L133.791 43.2653V43.2649C132.167 43.718 130.488 43.9402 128.803 43.9252C124.084 43.9252 121.652 42.5778 121.652 42C121.652 41.4226 124.084 40.0748 128.803 40.0748L128.802 40.0748ZM135.953 53.5501C135.953 54.1002 133.521 55.4753 128.802 55.4753C124.083 55.4753 121.652 54.1279 121.652 53.5501V51.8999C121.773 51.9659 121.9 52.0319 122.032 52.0925L122.329 52.2245C122.687 52.3749 123.054 52.5019 123.429 52.604L123.731 52.6918C124.089 52.7908 124.468 52.8733 124.831 52.9504C125.073 52.9945 125.321 53.0382 125.574 53.0712L125.964 53.1261V53.1265C126.906 53.2347 127.854 53.2842 128.802 53.275C130.796 53.3083 132.783 53.0244 134.687 52.4332L135.045 52.3012C135.276 52.2134 135.49 52.1198 135.683 52.0262L135.82 51.9548L135.952 51.8834L135.953 53.5501ZM135.953 49.7001C135.953 49.9146 135.463 50.4206 134.149 50.8718L134.148 50.8714C132.417 51.4028 130.613 51.6572 128.802 51.6249C124.084 51.6249 121.652 50.2775 121.652 49.6997V48.0496C121.773 48.1156 121.9 48.1816 122.032 48.2422L122.329 48.3741C122.687 48.5249 123.054 48.6515 123.429 48.754L123.731 48.8418C124.089 48.9408 124.468 49.0233 124.831 49.1004C125.073 49.1445 125.321 49.1883 125.574 49.2213L125.964 49.2761V49.2765C126.906 49.3847 127.854 49.4342 128.802 49.425C130.641 49.4457 132.474 49.209 134.247 48.721C134.396 48.6822 134.543 48.6366 134.687 48.5832L135.045 48.4513C135.276 48.3634 135.49 48.2698 135.683 48.1762L135.82 48.1048L135.952 48.0335V49.0233H135.953C135.944 49.0797 135.944 49.1372 135.953 49.1936C135.966 49.2504 135.984 49.3056 136.008 49.359C135.964 49.4672 135.945 49.5834 135.953 49.6997L135.953 49.7001ZM135.953 45.8501C135.953 46.0646 135.463 46.5706 134.149 47.0218L133.791 47.1373V47.1369C132.166 47.5824 130.487 47.7972 128.803 47.775C124.084 47.775 121.652 46.4275 121.652 45.8497V44.1996C121.773 44.2656 121.9 44.3316 122.032 44.3922L122.329 44.5242C122.687 44.673 123.055 44.7996 123.429 44.9036L123.731 44.9915C124.089 45.0851 124.468 45.1729 124.831 45.25C125.073 45.2942 125.321 45.3379 125.574 45.3709L125.964 45.4258V45.4261C126.906 45.5347 127.854 45.5842 128.802 45.5746C130.641 45.5957 132.474 45.3586 134.247 44.8706C134.396 44.8322 134.543 44.7866 134.687 44.7333L135.045 44.6013C135.281 44.5134 135.49 44.4198 135.683 44.3262L135.82 44.2548L135.952 44.1835V45.1733H135.953C135.944 45.2297 135.944 45.2872 135.953 45.3436C135.966 45.4004 135.984 45.4557 136.008 45.5086C135.964 45.6168 135.945 45.7334 135.953 45.8497L135.953 45.8501ZM149.153 50.8C149.153 51.3502 146.722 52.7252 142.003 52.7252V52.7249C140.523 52.7387 139.046 52.5783 137.603 52.2464V50.0903H137.558H137.559C137.59 49.9625 137.604 49.8313 137.603 49.6997V50.0903C139.05 50.3861 140.525 50.5315 142.003 50.525C144.753 50.525 147.47 50.0466 149.153 49.1224V50.8ZM149.153 46.95C149.153 47.5002 146.722 48.8753 142.003 48.8753V48.8749C140.523 48.8887 139.046 48.7279 137.603 48.3965V46.2403H137.558H137.559C137.59 46.1126 137.604 45.9814 137.603 45.8498V46.2403C139.05 46.5361 140.525 46.6815 142.003 46.675C144.753 46.675 147.47 46.1966 149.153 45.2724V46.95ZM149.153 43.1001C149.153 43.6502 146.722 45.0253 142.003 45.0253V45.0249C140.523 45.0387 139.046 44.878 137.603 44.5465V42.3904H137.558H137.559C137.59 42.2626 137.604 42.1314 137.603 41.9998V42.3904C139.05 42.6888 140.525 42.8346 142.003 42.8247C144.753 42.8247 147.47 42.3462 149.153 41.422V43.1001ZM149.153 39.2501C149.153 39.8003 146.722 41.1753 142.003 41.1753V41.1749C140.284 41.1983 138.571 40.9739 136.915 40.5093C136.32 39.9745 135.617 39.5747 134.853 39.3376C134.856 39.3123 134.856 39.2862 134.853 39.2608V37.6107C136.536 38.4962 139.253 38.9746 142.003 38.9746C144.753 38.9746 147.47 38.4962 149.153 37.572V39.2501ZM149.153 35.4001C149.153 35.9503 146.722 37.3253 142.003 37.3253C137.284 37.3253 134.853 35.9779 134.853 35.4001V33.75C136.536 34.6462 139.253 35.1246 142.003 35.1246C144.753 35.1246 147.47 34.6462 149.153 33.722V35.4001ZM149.153 31.5501C149.153 32.1003 146.722 33.4754 142.003 33.4754C137.284 33.4754 134.853 32.1279 134.853 31.5501V29.9C136.536 30.7962 139.253 31.2746 142.003 31.2746C144.753 31.2746 147.47 30.7962 149.153 29.872V31.5501ZM142.003 29.6246C137.284 29.6246 134.853 28.2772 134.853 27.6994C134.853 27.122 137.284 25.7745 142.003 25.7745C146.722 25.7745 149.153 27.122 149.153 27.6998C149.153 28.2772 146.722 29.6246 142.003 29.6246Z" fill="white"/>
<path d="M135.951 49.1956C135.942 49.1392 135.942 49.0816 135.951 49.0252V49.7016C135.95 49.5838 135.977 49.4672 136.027 49.3609C135.997 49.3083 135.971 49.2531 135.951 49.1955V49.1956ZM135.951 49.1956C135.942 49.1392 135.942 49.0816 135.951 49.0252V49.7016C135.95 49.5838 135.977 49.4672 136.027 49.3609C135.997 49.3083 135.971 49.2531 135.951 49.1955V49.1956ZM137.535 46.231H137.579L137.579 45.8516C137.587 45.9786 137.579 46.1059 137.557 46.231H137.535ZM135.951 49.1956C135.942 49.1392 135.942 49.0816 135.951 49.0252V49.7016C135.95 49.5838 135.977 49.4672 136.027 49.3609C135.997 49.3083 135.971 49.2531 135.951 49.1955V49.1956ZM135.797 51.9456L135.929 51.8796L135.797 51.9456ZM135.951 49.1956C135.942 49.1392 135.942 49.0816 135.951 49.0252V49.7016C135.95 49.5838 135.977 49.4672 136.027 49.3609C135.997 49.3083 135.971 49.2531 135.951 49.1955V49.1956Z" fill="white"/>
<path d="M135.951 45.344C135.942 45.2876 135.942 45.23 135.951 45.1737V45.85C135.95 45.7323 135.977 45.6156 136.027 45.509C135.997 45.4568 135.971 45.4015 135.951 45.344V45.344ZM135.951 45.344C135.942 45.2876 135.942 45.23 135.951 45.1737V45.85C135.95 45.7323 135.977 45.6156 136.027 45.509C135.997 45.4568 135.971 45.4015 135.951 45.344V45.344ZM137.535 42.3794H137.579L137.579 42C137.587 42.127 137.579 42.2544 137.557 42.3794H137.535ZM135.951 45.344C135.942 45.2876 135.942 45.23 135.951 45.1737V45.85C135.95 45.7323 135.977 45.6156 136.027 45.509C135.997 45.4568 135.971 45.4015 135.951 45.344V45.344ZM135.797 48.094L135.929 48.0281L135.797 48.094ZM135.951 45.344C135.942 45.2876 135.942 45.23 135.951 45.1737V45.85C135.95 45.7323 135.977 45.6156 136.027 45.509C135.997 45.4568 135.971 45.4015 135.951 45.344V45.344Z" fill="white"/>
<path d="M134.854 39.3385C134.857 39.3131 134.857 39.287 134.854 39.2617C134.851 39.287 134.851 39.3131 134.854 39.3385Z" fill="white"/>
<path d="M137.603 42V42.3906H137.559H137.559C137.59 42.2628 137.605 42.1316 137.603 42Z" fill="white"/>
<path d="M133.296 38.8812C133.235 38.9944 133.203 39.121 133.203 39.2499V38.8594L133.296 38.8812Z" fill="white"/>
<path d="M137.603 49.7012V50.0917H137.559H137.559C137.59 49.964 137.605 49.8328 137.603 49.7012Z" fill="white"/>
<path d="M137.603 45.8516V46.2421H137.559H137.559C137.59 46.1144 137.605 45.9832 137.603 45.8516Z" fill="white"/>
<path d="M169.871 41.8131C169.917 41.8653 169.945 41.9305 169.953 42C169.947 41.9635 169.947 41.9263 169.953 41.8898L169.871 41.8131ZM169.871 41.8131C169.917 41.8653 169.945 41.9305 169.953 42C169.947 41.9635 169.947 41.9263 169.953 41.8898L169.871 41.8131ZM169.794 41.7249L169.827 41.769C169.838 41.7863 169.853 41.8012 169.871 41.8131L169.794 41.7249ZM169.871 41.8127V41.8131C169.917 41.8653 169.945 41.9305 169.953 42C169.947 41.9635 169.947 41.9263 169.953 41.8898L169.871 41.8127ZM169.821 44.2605L169.953 44.1945L169.821 44.2605ZM169.821 41.7249L169.854 41.769C169.866 41.7863 169.881 41.8013 169.898 41.8132L169.821 41.7249ZM167.203 38.8594V39.2499C167.203 39.121 167.235 38.9944 167.296 38.8812L167.203 38.8594ZM169.871 41.8127V41.8131C169.917 41.8653 169.945 41.9305 169.953 42C169.947 41.9635 169.947 41.9263 169.953 41.8898L169.871 41.8127Z" fill="white"/>
<path d="M171.559 50.081H171.603L171.602 49.7012C171.603 49.8293 171.589 49.9567 171.559 50.081Z" fill="white"/>
<path d="M184.803 27.568C184.806 27.5518 184.806 27.535 184.803 27.5185C184.577 25.3186 180.282 24.125 176.003 24.125C171.724 24.125 167.45 25.2909 167.202 27.5185H167.203C167.2 27.535 167.2 27.5518 167.203 27.568C167.199 27.6121 167.199 27.6562 167.203 27.6999V38.8593H167.296H167.296C167.234 38.9724 167.202 39.099 167.203 39.228V38.8374C165.754 38.5489 164.279 38.4108 162.802 38.425C158.545 38.425 154.25 39.5909 154.002 41.8184C153.999 41.8349 153.999 41.8514 154.002 41.8679C153.999 41.912 153.999 41.9558 154.002 41.9999V53.5501C154.002 55.8985 158.402 57.125 162.802 57.125C166.933 57.125 171.113 56.0251 171.564 53.9295C173.024 54.2322 174.512 54.3815 176.002 54.375C180.26 54.375 184.555 53.209 184.803 50.9815C184.808 50.9209 184.808 50.8603 184.803 50.8V27.6996C184.805 27.6558 184.805 27.6117 184.803 27.5676L184.803 27.568ZM162.802 40.0748C164.487 40.0529 166.166 40.2678 167.791 40.7128L168.061 40.8007H168.132V40.8011C168.745 40.9653 169.31 41.2726 169.782 41.6977L169.859 41.7855L169.953 41.868C169.947 41.9045 169.947 41.9417 169.953 41.9781C169.953 42.1926 169.463 42.6986 168.149 43.1498L167.791 43.2653V43.2649C166.167 43.718 164.488 43.9402 162.803 43.9252C158.084 43.9252 155.652 42.5778 155.652 42C155.652 41.4226 158.084 40.0748 162.803 40.0748L162.802 40.0748ZM169.953 53.5501C169.953 54.1002 167.521 55.4753 162.802 55.4753C158.083 55.4753 155.652 54.1279 155.652 53.5501V51.8999C155.773 51.9659 155.9 52.0319 156.032 52.0925L156.329 52.2245C156.687 52.3749 157.054 52.5019 157.429 52.604L157.731 52.6918C158.089 52.7908 158.468 52.8733 158.831 52.9504C159.073 52.9945 159.321 53.0382 159.574 53.0712L159.964 53.1261V53.1265C160.906 53.2347 161.854 53.2842 162.802 53.275C164.796 53.3083 166.783 53.0244 168.687 52.4332L169.045 52.3012C169.276 52.2134 169.49 52.1198 169.683 52.0262L169.82 51.9548L169.952 51.8834L169.953 53.5501ZM169.953 49.7001C169.953 49.9146 169.463 50.4206 168.149 50.8718L168.148 50.8714C166.417 51.4028 164.613 51.6572 162.802 51.6249C158.084 51.6249 155.652 50.2775 155.652 49.6997V48.0496C155.773 48.1156 155.9 48.1816 156.032 48.2422L156.329 48.3741C156.687 48.5249 157.054 48.6515 157.429 48.754L157.731 48.8418C158.089 48.9408 158.468 49.0233 158.831 49.1004C159.073 49.1445 159.321 49.1883 159.574 49.2213L159.964 49.2761V49.2765C160.906 49.3847 161.854 49.4342 162.802 49.425C164.641 49.4457 166.474 49.209 168.247 48.721C168.396 48.6822 168.543 48.6366 168.687 48.5832L169.045 48.4513C169.276 48.3634 169.49 48.2698 169.683 48.1762L169.82 48.1048L169.952 48.0335V49.0233H169.953C169.944 49.0797 169.944 49.1372 169.953 49.1936C169.966 49.2504 169.984 49.3056 170.008 49.359C169.964 49.4672 169.945 49.5834 169.953 49.6997L169.953 49.7001ZM169.953 45.8501C169.953 46.0646 169.463 46.5706 168.149 47.0218L167.791 47.1373V47.1369C166.166 47.5824 164.487 47.7972 162.803 47.775C158.084 47.775 155.652 46.4275 155.652 45.8497V44.1996C155.773 44.2656 155.9 44.3316 156.032 44.3922L156.329 44.5242C156.687 44.673 157.055 44.7996 157.429 44.9036L157.731 44.9915C158.089 45.0851 158.468 45.1729 158.831 45.25C159.073 45.2942 159.321 45.3379 159.574 45.3709L159.964 45.4258V45.4261C160.906 45.5347 161.854 45.5842 162.802 45.5746C164.641 45.5957 166.474 45.3586 168.247 44.8706C168.396 44.8322 168.543 44.7866 168.687 44.7333L169.045 44.6013C169.281 44.5134 169.49 44.4198 169.683 44.3262L169.82 44.2548L169.952 44.1835V45.1733H169.953C169.944 45.2297 169.944 45.2872 169.953 45.3436C169.966 45.4004 169.984 45.4557 170.008 45.5086C169.964 45.6168 169.945 45.7334 169.953 45.8497L169.953 45.8501ZM183.153 50.8C183.153 51.3502 180.722 52.7252 176.003 52.7252V52.7249C174.523 52.7387 173.046 52.5783 171.603 52.2464V50.0903H171.558H171.559C171.59 49.9625 171.604 49.8313 171.603 49.6997V50.0903C173.05 50.3861 174.525 50.5315 176.003 50.525C178.753 50.525 181.47 50.0466 183.153 49.1224V50.8ZM183.153 46.95C183.153 47.5002 180.722 48.8753 176.003 48.8753V48.8749C174.523 48.8887 173.046 48.7279 171.603 48.3965V46.2403H171.558H171.559C171.59 46.1126 171.604 45.9814 171.603 45.8498V46.2403C173.05 46.5361 174.525 46.6815 176.003 46.675C178.753 46.675 181.47 46.1966 183.153 45.2724V46.95ZM183.153 43.1001C183.153 43.6502 180.722 45.0253 176.003 45.0253V45.0249C174.523 45.0387 173.046 44.878 171.603 44.5465V42.3904H171.558H171.559C171.59 42.2626 171.604 42.1314 171.603 41.9998V42.3904C173.05 42.6888 174.525 42.8346 176.003 42.8247C178.753 42.8247 181.47 42.3462 183.153 41.422V43.1001ZM183.153 39.2501C183.153 39.8003 180.722 41.1753 176.003 41.1753V41.1749C174.284 41.1983 172.571 40.9739 170.915 40.5093C170.32 39.9745 169.617 39.5747 168.853 39.3376C168.856 39.3123 168.856 39.2862 168.853 39.2608V37.6107C170.536 38.4962 173.253 38.9746 176.003 38.9746C178.753 38.9746 181.47 38.4962 183.153 37.572V39.2501ZM183.153 35.4001C183.153 35.9503 180.722 37.3253 176.003 37.3253C171.284 37.3253 168.853 35.9779 168.853 35.4001V33.75C170.536 34.6462 173.253 35.1246 176.003 35.1246C178.753 35.1246 181.47 34.6462 183.153 33.722V35.4001ZM183.153 31.5501C183.153 32.1003 180.722 33.4754 176.003 33.4754C171.284 33.4754 168.853 32.1279 168.853 31.5501V29.9C170.536 30.7962 173.253 31.2746 176.003 31.2746C178.753 31.2746 181.47 30.7962 183.153 29.872V31.5501ZM176.003 29.6246C171.284 29.6246 168.853 28.2772 168.853 27.6994C168.853 27.122 171.284 25.7745 176.003 25.7745C180.722 25.7745 183.153 27.122 183.153 27.6998C183.153 28.2772 180.722 29.6246 176.003 29.6246Z" fill="white"/>
<path d="M169.951 49.1956C169.942 49.1392 169.942 49.0816 169.951 49.0252V49.7016C169.95 49.5838 169.977 49.4672 170.027 49.3609C169.997 49.3083 169.971 49.2531 169.951 49.1955V49.1956ZM169.951 49.1956C169.942 49.1392 169.942 49.0816 169.951 49.0252V49.7016C169.95 49.5838 169.977 49.4672 170.027 49.3609C169.997 49.3083 169.971 49.2531 169.951 49.1955V49.1956ZM171.535 46.231H171.579L171.579 45.8516C171.587 45.9786 171.579 46.1059 171.557 46.231H171.535ZM169.951 49.1956C169.942 49.1392 169.942 49.0816 169.951 49.0252V49.7016C169.95 49.5838 169.977 49.4672 170.027 49.3609C169.997 49.3083 169.971 49.2531 169.951 49.1955V49.1956ZM169.797 51.9456L169.929 51.8796L169.797 51.9456ZM169.951 49.1956C169.942 49.1392 169.942 49.0816 169.951 49.0252V49.7016C169.95 49.5838 169.977 49.4672 170.027 49.3609C169.997 49.3083 169.971 49.2531 169.951 49.1955V49.1956Z" fill="white"/>
<path d="M169.951 45.344C169.942 45.2876 169.942 45.23 169.951 45.1737V45.85C169.95 45.7323 169.977 45.6156 170.027 45.509C169.997 45.4568 169.971 45.4015 169.951 45.344V45.344ZM169.951 45.344C169.942 45.2876 169.942 45.23 169.951 45.1737V45.85C169.95 45.7323 169.977 45.6156 170.027 45.509C169.997 45.4568 169.971 45.4015 169.951 45.344V45.344ZM171.535 42.3794H171.579L171.579 42C171.587 42.127 171.579 42.2544 171.557 42.3794H171.535ZM169.951 45.344C169.942 45.2876 169.942 45.23 169.951 45.1737V45.85C169.95 45.7323 169.977 45.6156 170.027 45.509C169.997 45.4568 169.971 45.4015 169.951 45.344V45.344ZM169.797 48.094L169.929 48.0281L169.797 48.094ZM169.951 45.344C169.942 45.2876 169.942 45.23 169.951 45.1737V45.85C169.95 45.7323 169.977 45.6156 170.027 45.509C169.997 45.4568 169.971 45.4015 169.951 45.344V45.344Z" fill="white"/>
<path d="M168.854 39.3385C168.857 39.3131 168.857 39.287 168.854 39.2617C168.851 39.287 168.851 39.3131 168.854 39.3385Z" fill="white"/>
<path d="M171.603 42V42.3906H171.559H171.559C171.59 42.2628 171.605 42.1316 171.603 42Z" fill="white"/>
<path d="M167.296 38.8812C167.235 38.9944 167.203 39.121 167.203 39.2499V38.8594L167.296 38.8812Z" fill="white"/>
<path d="M171.603 49.7012V50.0917H171.559H171.559C171.59 49.964 171.605 49.8328 171.603 49.7012Z" fill="white"/>
<path d="M171.603 45.8516V46.2421H171.559H171.559C171.59 46.1144 171.605 45.9832 171.603 45.8516Z" fill="white"/>
<path d="M135.871 29.8131C135.917 29.8653 135.945 29.9305 135.953 30C135.947 29.9635 135.947 29.9263 135.953 29.8898L135.871 29.8131ZM135.871 29.8131C135.917 29.8653 135.945 29.9305 135.953 30C135.947 29.9635 135.947 29.9263 135.953 29.8898L135.871 29.8131ZM135.794 29.7249L135.827 29.769C135.838 29.7863 135.853 29.8012 135.871 29.8131L135.794 29.7249ZM135.871 29.8127V29.8131C135.917 29.8653 135.945 29.9305 135.953 30C135.947 29.9635 135.947 29.9263 135.953 29.8898L135.871 29.8127ZM135.821 32.2605L135.953 32.1945L135.821 32.2605ZM135.821 29.7249L135.854 29.769C135.866 29.7863 135.881 29.8013 135.898 29.8132L135.821 29.7249ZM133.203 26.8594V27.2499C133.203 27.121 133.235 26.9944 133.296 26.8812L133.203 26.8594ZM135.871 29.8127V29.8131C135.917 29.8653 135.945 29.9305 135.953 30C135.947 29.9635 135.947 29.9263 135.953 29.8898L135.871 29.8127Z" fill="white"/>
<path d="M137.559 38.081H137.603L137.602 37.7012C137.603 37.8293 137.589 37.9567 137.559 38.081Z" fill="white"/>
<path d="M150.803 15.568C150.806 15.5518 150.806 15.535 150.803 15.5185C150.577 13.3186 146.282 12.125 142.003 12.125C137.724 12.125 133.45 13.2909 133.202 15.5185H133.203C133.2 15.535 133.2 15.5518 133.203 15.568C133.199 15.6121 133.199 15.6562 133.203 15.6999V26.8593H133.296H133.296C133.234 26.9724 133.202 27.099 133.203 27.228V26.8374C131.754 26.5489 130.279 26.4108 128.802 26.425C124.545 26.425 120.25 27.5909 120.002 29.8184C119.999 29.8349 119.999 29.8514 120.002 29.8679C119.999 29.912 119.999 29.9558 120.002 29.9999V41.5501C120.002 43.8985 124.402 45.125 128.802 45.125C132.933 45.125 137.113 44.0251 137.564 41.9295C139.024 42.2322 140.512 42.3815 142.002 42.375C146.26 42.375 150.555 41.209 150.803 38.9815C150.808 38.9209 150.808 38.8603 150.803 38.8V15.6996C150.805 15.6558 150.805 15.6117 150.803 15.5676L150.803 15.568ZM128.802 28.0748C130.487 28.0529 132.166 28.2678 133.791 28.7128L134.061 28.8007H134.132V28.8011C134.745 28.9653 135.31 29.2726 135.782 29.6977L135.859 29.7855L135.953 29.868C135.947 29.9045 135.947 29.9417 135.953 29.9781C135.953 30.1926 135.463 30.6986 134.149 31.1498L133.791 31.2653V31.2649C132.167 31.718 130.488 31.9402 128.803 31.9252C124.084 31.9252 121.652 30.5778 121.652 30C121.652 29.4226 124.084 28.0748 128.803 28.0748L128.802 28.0748ZM135.953 41.5501C135.953 42.1002 133.521 43.4753 128.802 43.4753C124.083 43.4753 121.652 42.1279 121.652 41.5501V39.8999C121.773 39.9659 121.9 40.0319 122.032 40.0925L122.329 40.2245C122.687 40.3749 123.054 40.5019 123.429 40.604L123.731 40.6918C124.089 40.7908 124.468 40.8733 124.831 40.9504C125.073 40.9945 125.321 41.0382 125.574 41.0712L125.964 41.1261V41.1265C126.906 41.2347 127.854 41.2842 128.802 41.275C130.796 41.3083 132.783 41.0244 134.687 40.4332L135.045 40.3012C135.276 40.2134 135.49 40.1198 135.683 40.0262L135.82 39.9548L135.952 39.8834L135.953 41.5501ZM135.953 37.7001C135.953 37.9146 135.463 38.4206 134.149 38.8718L134.148 38.8714C132.417 39.4028 130.613 39.6572 128.802 39.6249C124.084 39.6249 121.652 38.2775 121.652 37.6997V36.0496C121.773 36.1156 121.9 36.1816 122.032 36.2422L122.329 36.3741C122.687 36.5249 123.054 36.6515 123.429 36.754L123.731 36.8418C124.089 36.9408 124.468 37.0233 124.831 37.1004C125.073 37.1445 125.321 37.1883 125.574 37.2213L125.964 37.2761V37.2765C126.906 37.3847 127.854 37.4342 128.802 37.425C130.641 37.4457 132.474 37.209 134.247 36.721C134.396 36.6822 134.543 36.6366 134.687 36.5832L135.045 36.4513C135.276 36.3634 135.49 36.2698 135.683 36.1762L135.82 36.1048L135.952 36.0335V37.0233H135.953C135.944 37.0797 135.944 37.1372 135.953 37.1936C135.966 37.2504 135.984 37.3056 136.008 37.359C135.964 37.4672 135.945 37.5834 135.953 37.6997L135.953 37.7001ZM135.953 33.8501C135.953 34.0646 135.463 34.5706 134.149 35.0218L133.791 35.1373V35.1369C132.166 35.5824 130.487 35.7972 128.803 35.775C124.084 35.775 121.652 34.4275 121.652 33.8497V32.1996C121.773 32.2656 121.9 32.3316 122.032 32.3922L122.329 32.5242C122.687 32.673 123.055 32.7996 123.429 32.9036L123.731 32.9915C124.089 33.0851 124.468 33.1729 124.831 33.25C125.073 33.2942 125.321 33.3379 125.574 33.3709L125.964 33.4258V33.4261C126.906 33.5347 127.854 33.5842 128.802 33.5746C130.641 33.5957 132.474 33.3586 134.247 32.8706C134.396 32.8322 134.543 32.7866 134.687 32.7333L135.045 32.6013C135.281 32.5134 135.49 32.4198 135.683 32.3262L135.82 32.2548L135.952 32.1835V33.1733H135.953C135.944 33.2297 135.944 33.2872 135.953 33.3436C135.966 33.4004 135.984 33.4557 136.008 33.5086C135.964 33.6168 135.945 33.7334 135.953 33.8497L135.953 33.8501ZM149.153 38.8C149.153 39.3502 146.722 40.7252 142.003 40.7252V40.7249C140.523 40.7387 139.046 40.5783 137.603 40.2464V38.0903H137.558H137.559C137.59 37.9625 137.604 37.8313 137.603 37.6997V38.0903C139.05 38.3861 140.525 38.5315 142.003 38.525C144.753 38.525 147.47 38.0466 149.153 37.1224V38.8ZM149.153 34.95C149.153 35.5002 146.722 36.8753 142.003 36.8753V36.8749C140.523 36.8887 139.046 36.7279 137.603 36.3965V34.2403H137.558H137.559C137.59 34.1126 137.604 33.9814 137.603 33.8498V34.2403C139.05 34.5361 140.525 34.6815 142.003 34.675C144.753 34.675 147.47 34.1966 149.153 33.2724V34.95ZM149.153 31.1001C149.153 31.6502 146.722 33.0253 142.003 33.0253V33.0249C140.523 33.0387 139.046 32.878 137.603 32.5465V30.3904H137.558H137.559C137.59 30.2626 137.604 30.1314 137.603 29.9998V30.3904C139.05 30.6888 140.525 30.8346 142.003 30.8247C144.753 30.8247 147.47 30.3462 149.153 29.422V31.1001ZM149.153 27.2501C149.153 27.8003 146.722 29.1753 142.003 29.1753V29.1749C140.284 29.1983 138.571 28.9739 136.915 28.5093C136.32 27.9745 135.617 27.5747 134.853 27.3376C134.856 27.3123 134.856 27.2862 134.853 27.2608V25.6107C136.536 26.4962 139.253 26.9746 142.003 26.9746C144.753 26.9746 147.47 26.4962 149.153 25.572V27.2501ZM149.153 23.4001C149.153 23.9503 146.722 25.3253 142.003 25.3253C137.284 25.3253 134.853 23.9779 134.853 23.4001V21.75C136.536 22.6462 139.253 23.1246 142.003 23.1246C144.753 23.1246 147.47 22.6462 149.153 21.722V23.4001ZM149.153 19.5501C149.153 20.1003 146.722 21.4754 142.003 21.4754C137.284 21.4754 134.853 20.1279 134.853 19.5501V17.9C136.536 18.7962 139.253 19.2746 142.003 19.2746C144.753 19.2746 147.47 18.7962 149.153 17.872V19.5501ZM142.003 17.6246C137.284 17.6246 134.853 16.2772 134.853 15.6994C134.853 15.122 137.284 13.7745 142.003 13.7745C146.722 13.7745 149.153 15.122 149.153 15.6998C149.153 16.2772 146.722 17.6246 142.003 17.6246Z" fill="white"/>
<path d="M135.951 37.1956C135.942 37.1392 135.942 37.0816 135.951 37.0252V37.7016C135.95 37.5838 135.977 37.4672 136.027 37.3609C135.997 37.3083 135.971 37.2531 135.951 37.1955V37.1956ZM135.951 37.1956C135.942 37.1392 135.942 37.0816 135.951 37.0252V37.7016C135.95 37.5838 135.977 37.4672 136.027 37.3609C135.997 37.3083 135.971 37.2531 135.951 37.1955V37.1956ZM137.535 34.231H137.579L137.579 33.8516C137.587 33.9786 137.579 34.1059 137.557 34.231H137.535ZM135.951 37.1956C135.942 37.1392 135.942 37.0816 135.951 37.0252V37.7016C135.95 37.5838 135.977 37.4672 136.027 37.3609C135.997 37.3083 135.971 37.2531 135.951 37.1955V37.1956ZM135.797 39.9456L135.929 39.8796L135.797 39.9456ZM135.951 37.1956C135.942 37.1392 135.942 37.0816 135.951 37.0252V37.7016C135.95 37.5838 135.977 37.4672 136.027 37.3609C135.997 37.3083 135.971 37.2531 135.951 37.1955V37.1956Z" fill="white"/>
<path d="M135.951 33.344C135.942 33.2876 135.942 33.23 135.951 33.1737V33.85C135.95 33.7323 135.977 33.6156 136.027 33.509C135.997 33.4568 135.971 33.4015 135.951 33.344V33.344ZM135.951 33.344C135.942 33.2876 135.942 33.23 135.951 33.1737V33.85C135.95 33.7323 135.977 33.6156 136.027 33.509C135.997 33.4568 135.971 33.4015 135.951 33.344V33.344ZM137.535 30.3794H137.579L137.579 30C137.587 30.127 137.579 30.2544 137.557 30.3794H137.535ZM135.951 33.344C135.942 33.2876 135.942 33.23 135.951 33.1737V33.85C135.95 33.7323 135.977 33.6156 136.027 33.509C135.997 33.4568 135.971 33.4015 135.951 33.344V33.344ZM135.797 36.094L135.929 36.0281L135.797 36.094ZM135.951 33.344C135.942 33.2876 135.942 33.23 135.951 33.1737V33.85C135.95 33.7323 135.977 33.6156 136.027 33.509C135.997 33.4568 135.971 33.4015 135.951 33.344V33.344Z" fill="white"/>
<path d="M134.854 27.3385C134.857 27.3131 134.857 27.287 134.854 27.2617C134.851 27.287 134.851 27.3131 134.854 27.3385Z" fill="white"/>
<path d="M137.603 30V30.3906H137.559H137.559C137.59 30.2628 137.605 30.1316 137.603 30Z" fill="white"/>
<path d="M133.296 26.8812C133.235 26.9944 133.203 27.121 133.203 27.2499V26.8594L133.296 26.8812Z" fill="white"/>
<path d="M137.603 37.7012V38.0917H137.559H137.559C137.59 37.964 137.605 37.8328 137.603 37.7012Z" fill="white"/>
<path d="M137.603 33.8516V34.2421H137.559H137.559C137.59 34.1144 137.605 33.9832 137.603 33.8516Z" fill="white"/>
<path d="M169.871 29.8131C169.917 29.8653 169.945 29.9305 169.953 30C169.947 29.9635 169.947 29.9263 169.953 29.8898L169.871 29.8131ZM169.871 29.8131C169.917 29.8653 169.945 29.9305 169.953 30C169.947 29.9635 169.947 29.9263 169.953 29.8898L169.871 29.8131ZM169.794 29.7249L169.827 29.769C169.838 29.7863 169.853 29.8012 169.871 29.8131L169.794 29.7249ZM169.871 29.8127V29.8131C169.917 29.8653 169.945 29.9305 169.953 30C169.947 29.9635 169.947 29.9263 169.953 29.8898L169.871 29.8127ZM169.821 32.2605L169.953 32.1945L169.821 32.2605ZM169.821 29.7249L169.854 29.769C169.866 29.7863 169.881 29.8013 169.898 29.8132L169.821 29.7249ZM167.203 26.8594V27.2499C167.203 27.121 167.235 26.9944 167.296 26.8812L167.203 26.8594ZM169.871 29.8127V29.8131C169.917 29.8653 169.945 29.9305 169.953 30C169.947 29.9635 169.947 29.9263 169.953 29.8898L169.871 29.8127Z" fill="white"/>
<path d="M171.559 38.081H171.603L171.602 37.7012C171.603 37.8293 171.589 37.9567 171.559 38.081Z" fill="white"/>
<path d="M184.803 15.568C184.806 15.5518 184.806 15.535 184.803 15.5185C184.577 13.3186 180.282 12.125 176.003 12.125C171.724 12.125 167.45 13.2909 167.202 15.5185H167.203C167.2 15.535 167.2 15.5518 167.203 15.568C167.199 15.6121 167.199 15.6562 167.203 15.6999V26.8593H167.296H167.296C167.234 26.9724 167.202 27.099 167.203 27.228V26.8374C165.754 26.5489 164.279 26.4108 162.802 26.425C158.545 26.425 154.25 27.5909 154.002 29.8184C153.999 29.8349 153.999 29.8514 154.002 29.8679C153.999 29.912 153.999 29.9558 154.002 29.9999V41.5501C154.002 43.8985 158.402 45.125 162.802 45.125C166.933 45.125 171.113 44.0251 171.564 41.9295C173.024 42.2322 174.512 42.3815 176.002 42.375C180.26 42.375 184.555 41.209 184.803 38.9815C184.808 38.9209 184.808 38.8603 184.803 38.8V15.6996C184.805 15.6558 184.805 15.6117 184.803 15.5676L184.803 15.568ZM162.802 28.0748C164.487 28.0529 166.166 28.2678 167.791 28.7128L168.061 28.8007H168.132V28.8011C168.745 28.9653 169.31 29.2726 169.782 29.6977L169.859 29.7855L169.953 29.868C169.947 29.9045 169.947 29.9417 169.953 29.9781C169.953 30.1926 169.463 30.6986 168.149 31.1498L167.791 31.2653V31.2649C166.167 31.718 164.488 31.9402 162.803 31.9252C158.084 31.9252 155.652 30.5778 155.652 30C155.652 29.4226 158.084 28.0748 162.803 28.0748L162.802 28.0748ZM169.953 41.5501C169.953 42.1002 167.521 43.4753 162.802 43.4753C158.083 43.4753 155.652 42.1279 155.652 41.5501V39.8999C155.773 39.9659 155.9 40.0319 156.032 40.0925L156.329 40.2245C156.687 40.3749 157.054 40.5019 157.429 40.604L157.731 40.6918C158.089 40.7908 158.468 40.8733 158.831 40.9504C159.073 40.9945 159.321 41.0382 159.574 41.0712L159.964 41.1261V41.1265C160.906 41.2347 161.854 41.2842 162.802 41.275C164.796 41.3083 166.783 41.0244 168.687 40.4332L169.045 40.3012C169.276 40.2134 169.49 40.1198 169.683 40.0262L169.82 39.9548L169.952 39.8834L169.953 41.5501ZM169.953 37.7001C169.953 37.9146 169.463 38.4206 168.149 38.8718L168.148 38.8714C166.417 39.4028 164.613 39.6572 162.802 39.6249C158.084 39.6249 155.652 38.2775 155.652 37.6997V36.0496C155.773 36.1156 155.9 36.1816 156.032 36.2422L156.329 36.3741C156.687 36.5249 157.054 36.6515 157.429 36.754L157.731 36.8418C158.089 36.9408 158.468 37.0233 158.831 37.1004C159.073 37.1445 159.321 37.1883 159.574 37.2213L159.964 37.2761V37.2765C160.906 37.3847 161.854 37.4342 162.802 37.425C164.641 37.4457 166.474 37.209 168.247 36.721C168.396 36.6822 168.543 36.6366 168.687 36.5832L169.045 36.4513C169.276 36.3634 169.49 36.2698 169.683 36.1762L169.82 36.1048L169.952 36.0335V37.0233H169.953C169.944 37.0797 169.944 37.1372 169.953 37.1936C169.966 37.2504 169.984 37.3056 170.008 37.359C169.964 37.4672 169.945 37.5834 169.953 37.6997L169.953 37.7001ZM169.953 33.8501C169.953 34.0646 169.463 34.5706 168.149 35.0218L167.791 35.1373V35.1369C166.166 35.5824 164.487 35.7972 162.803 35.775C158.084 35.775 155.652 34.4275 155.652 33.8497V32.1996C155.773 32.2656 155.9 32.3316 156.032 32.3922L156.329 32.5242C156.687 32.673 157.055 32.7996 157.429 32.9036L157.731 32.9915C158.089 33.0851 158.468 33.1729 158.831 33.25C159.073 33.2942 159.321 33.3379 159.574 33.3709L159.964 33.4258V33.4261C160.906 33.5347 161.854 33.5842 162.802 33.5746C164.641 33.5957 166.474 33.3586 168.247 32.8706C168.396 32.8322 168.543 32.7866 168.687 32.7333L169.045 32.6013C169.281 32.5134 169.49 32.4198 169.683 32.3262L169.82 32.2548L169.952 32.1835V33.1733H169.953C169.944 33.2297 169.944 33.2872 169.953 33.3436C169.966 33.4004 169.984 33.4557 170.008 33.5086C169.964 33.6168 169.945 33.7334 169.953 33.8497L169.953 33.8501ZM183.153 38.8C183.153 39.3502 180.722 40.7252 176.003 40.7252V40.7249C174.523 40.7387 173.046 40.5783 171.603 40.2464V38.0903H171.558H171.559C171.59 37.9625 171.604 37.8313 171.603 37.6997V38.0903C173.05 38.3861 174.525 38.5315 176.003 38.525C178.753 38.525 181.47 38.0466 183.153 37.1224V38.8ZM183.153 34.95C183.153 35.5002 180.722 36.8753 176.003 36.8753V36.8749C174.523 36.8887 173.046 36.7279 171.603 36.3965V34.2403H171.558H171.559C171.59 34.1126 171.604 33.9814 171.603 33.8498V34.2403C173.05 34.5361 174.525 34.6815 176.003 34.675C178.753 34.675 181.47 34.1966 183.153 33.2724V34.95ZM183.153 31.1001C183.153 31.6502 180.722 33.0253 176.003 33.0253V33.0249C174.523 33.0387 173.046 32.878 171.603 32.5465V30.3904H171.558H171.559C171.59 30.2626 171.604 30.1314 171.603 29.9998V30.3904C173.05 30.6888 174.525 30.8346 176.003 30.8247C178.753 30.8247 181.47 30.3462 183.153 29.422V31.1001ZM183.153 27.2501C183.153 27.8003 180.722 29.1753 176.003 29.1753V29.1749C174.284 29.1983 172.571 28.9739 170.915 28.5093C170.32 27.9745 169.617 27.5747 168.853 27.3376C168.856 27.3123 168.856 27.2862 168.853 27.2608V25.6107C170.536 26.4962 173.253 26.9746 176.003 26.9746C178.753 26.9746 181.47 26.4962 183.153 25.572V27.2501ZM183.153 23.4001C183.153 23.9503 180.722 25.3253 176.003 25.3253C171.284 25.3253 168.853 23.9779 168.853 23.4001V21.75C170.536 22.6462 173.253 23.1246 176.003 23.1246C178.753 23.1246 181.47 22.6462 183.153 21.722V23.4001ZM183.153 19.5501C183.153 20.1003 180.722 21.4754 176.003 21.4754C171.284 21.4754 168.853 20.1279 168.853 19.5501V17.9C170.536 18.7962 173.253 19.2746 176.003 19.2746C178.753 19.2746 181.47 18.7962 183.153 17.872V19.5501ZM176.003 17.6246C171.284 17.6246 168.853 16.2772 168.853 15.6994C168.853 15.122 171.284 13.7745 176.003 13.7745C180.722 13.7745 183.153 15.122 183.153 15.6998C183.153 16.2772 180.722 17.6246 176.003 17.6246Z" fill="white"/>
<path d="M169.951 37.1956C169.942 37.1392 169.942 37.0816 169.951 37.0252V37.7016C169.95 37.5838 169.977 37.4672 170.027 37.3609C169.997 37.3083 169.971 37.2531 169.951 37.1955V37.1956ZM169.951 37.1956C169.942 37.1392 169.942 37.0816 169.951 37.0252V37.7016C169.95 37.5838 169.977 37.4672 170.027 37.3609C169.997 37.3083 169.971 37.2531 169.951 37.1955V37.1956ZM171.535 34.231H171.579L171.579 33.8516C171.587 33.9786 171.579 34.1059 171.557 34.231H171.535ZM169.951 37.1956C169.942 37.1392 169.942 37.0816 169.951 37.0252V37.7016C169.95 37.5838 169.977 37.4672 170.027 37.3609C169.997 37.3083 169.971 37.2531 169.951 37.1955V37.1956ZM169.797 39.9456L169.929 39.8796L169.797 39.9456ZM169.951 37.1956C169.942 37.1392 169.942 37.0816 169.951 37.0252V37.7016C169.95 37.5838 169.977 37.4672 170.027 37.3609C169.997 37.3083 169.971 37.2531 169.951 37.1955V37.1956Z" fill="white"/>
<path d="M169.951 33.344C169.942 33.2876 169.942 33.23 169.951 33.1737V33.85C169.95 33.7323 169.977 33.6156 170.027 33.509C169.997 33.4568 169.971 33.4015 169.951 33.344V33.344ZM169.951 33.344C169.942 33.2876 169.942 33.23 169.951 33.1737V33.85C169.95 33.7323 169.977 33.6156 170.027 33.509C169.997 33.4568 169.971 33.4015 169.951 33.344V33.344ZM171.535 30.3794H171.579L171.579 30C171.587 30.127 171.579 30.2544 171.557 30.3794H171.535ZM169.951 33.344C169.942 33.2876 169.942 33.23 169.951 33.1737V33.85C169.95 33.7323 169.977 33.6156 170.027 33.509C169.997 33.4568 169.971 33.4015 169.951 33.344V33.344ZM169.797 36.094L169.929 36.0281L169.797 36.094ZM169.951 33.344C169.942 33.2876 169.942 33.23 169.951 33.1737V33.85C169.95 33.7323 169.977 33.6156 170.027 33.509C169.997 33.4568 169.971 33.4015 169.951 33.344V33.344Z" fill="white"/>
<path d="M168.854 27.3385C168.857 27.3131 168.857 27.287 168.854 27.2617C168.851 27.287 168.851 27.3131 168.854 27.3385Z" fill="white"/>
<path d="M171.603 30V30.3906H171.559H171.559C171.59 30.2628 171.605 30.1316 171.603 30Z" fill="white"/>
<path d="M167.296 26.8812C167.235 26.9944 167.203 27.121 167.203 27.2499V26.8594L167.296 26.8812Z" fill="white"/>
<path d="M171.603 37.7012V38.0917H171.559H171.559C171.59 37.964 171.605 37.8328 171.603 37.7012Z" fill="white"/>
<path d="M171.603 33.8516V34.2421H171.559H171.559C171.59 34.1144 171.605 33.9832 171.603 33.8516Z" fill="white"/>
<path d="M135.871 17.8131C135.917 17.8653 135.945 17.9305 135.953 18C135.947 17.9635 135.947 17.9263 135.953 17.8898L135.871 17.8131ZM135.871 17.8131C135.917 17.8653 135.945 17.9305 135.953 18C135.947 17.9635 135.947 17.9263 135.953 17.8898L135.871 17.8131ZM135.794 17.7249L135.827 17.769C135.838 17.7863 135.853 17.8012 135.871 17.8131L135.794 17.7249ZM135.871 17.8127V17.8131C135.917 17.8653 135.945 17.9305 135.953 18C135.947 17.9635 135.947 17.9263 135.953 17.8898L135.871 17.8127ZM135.821 20.2605L135.953 20.1945L135.821 20.2605ZM135.821 17.7249L135.854 17.769C135.866 17.7863 135.881 17.8013 135.898 17.8132L135.821 17.7249ZM133.203 14.8594V15.2499C133.203 15.121 133.235 14.9944 133.296 14.8812L133.203 14.8594ZM135.871 17.8127V17.8131C135.917 17.8653 135.945 17.9305 135.953 18C135.947 17.9635 135.947 17.9263 135.953 17.8898L135.871 17.8127Z" fill="white"/>
<path d="M137.559 26.081H137.603L137.602 25.7012C137.603 25.8293 137.589 25.9567 137.559 26.081Z" fill="white"/>
<path d="M150.803 3.56796C150.806 3.55185 150.806 3.53497 150.803 3.51847C150.577 1.31862 146.282 0.125 142.003 0.125C137.724 0.125 133.45 1.29093 133.202 3.51847H133.203C133.2 3.53497 133.2 3.55185 133.203 3.56796C133.199 3.61208 133.199 3.6562 133.203 3.69994V14.8593H133.296H133.296C133.234 14.9724 133.202 15.099 133.203 15.228V14.8374C131.754 14.5489 130.279 14.4108 128.802 14.425C124.545 14.425 120.25 15.5909 120.002 17.8184C119.999 17.8349 119.999 17.8514 120.002 17.8679C119.999 17.912 119.999 17.9558 120.002 17.9999V29.5501C120.002 31.8985 124.402 33.125 128.802 33.125C132.933 33.125 137.113 32.0251 137.564 29.9295C139.024 30.2322 140.512 30.3815 142.002 30.375C146.26 30.375 150.555 29.209 150.803 26.9815C150.808 26.9209 150.808 26.8603 150.803 26.8V3.69958C150.805 3.65584 150.805 3.61172 150.803 3.5676L150.803 3.56796ZM128.802 16.0748C130.487 16.0529 132.166 16.2678 133.791 16.7128L134.061 16.8007H134.132V16.8011C134.745 16.9653 135.31 17.2726 135.782 17.6977L135.859 17.7855L135.953 17.868C135.947 17.9045 135.947 17.9417 135.953 17.9781C135.953 18.1926 135.463 18.6986 134.149 19.1498L133.791 19.2653V19.2649C132.167 19.718 130.488 19.9402 128.803 19.9252C124.084 19.9252 121.652 18.5778 121.652 18C121.652 17.4226 124.084 16.0748 128.803 16.0748L128.802 16.0748ZM135.953 29.5501C135.953 30.1002 133.521 31.4753 128.802 31.4753C124.083 31.4753 121.652 30.1279 121.652 29.5501V27.8999C121.773 27.9659 121.9 28.0319 122.032 28.0925L122.329 28.2245C122.687 28.3749 123.054 28.5019 123.429 28.604L123.731 28.6918C124.089 28.7908 124.468 28.8733 124.831 28.9504C125.073 28.9945 125.321 29.0382 125.574 29.0712L125.964 29.1261V29.1265C126.906 29.2347 127.854 29.2842 128.802 29.275C130.796 29.3083 132.783 29.0244 134.687 28.4332L135.045 28.3012C135.276 28.2134 135.49 28.1198 135.683 28.0262L135.82 27.9548L135.952 27.8834L135.953 29.5501ZM135.953 25.7001C135.953 25.9146 135.463 26.4206 134.149 26.8718L134.148 26.8714C132.417 27.4028 130.613 27.6572 128.802 27.6249C124.084 27.6249 121.652 26.2775 121.652 25.6997V24.0496C121.773 24.1156 121.9 24.1816 122.032 24.2422L122.329 24.3741C122.687 24.5249 123.054 24.6515 123.429 24.754L123.731 24.8418C124.089 24.9408 124.468 25.0233 124.831 25.1004C125.073 25.1445 125.321 25.1883 125.574 25.2213L125.964 25.2761V25.2765C126.906 25.3847 127.854 25.4342 128.802 25.425C130.641 25.4457 132.474 25.209 134.247 24.721C134.396 24.6822 134.543 24.6366 134.687 24.5832L135.045 24.4513C135.276 24.3634 135.49 24.2698 135.683 24.1762L135.82 24.1048L135.952 24.0335V25.0233H135.953C135.944 25.0797 135.944 25.1372 135.953 25.1936C135.966 25.2504 135.984 25.3056 136.008 25.359C135.964 25.4672 135.945 25.5834 135.953 25.6997L135.953 25.7001ZM135.953 21.8501C135.953 22.0646 135.463 22.5706 134.149 23.0218L133.791 23.1373V23.1369C132.166 23.5824 130.487 23.7972 128.803 23.775C124.084 23.775 121.652 22.4275 121.652 21.8497V20.1996C121.773 20.2656 121.9 20.3316 122.032 20.3922L122.329 20.5242C122.687 20.673 123.055 20.7996 123.429 20.9036L123.731 20.9915C124.089 21.0851 124.468 21.1729 124.831 21.25C125.073 21.2942 125.321 21.3379 125.574 21.3709L125.964 21.4258V21.4261C126.906 21.5347 127.854 21.5842 128.802 21.5746C130.641 21.5957 132.474 21.3586 134.247 20.8706C134.396 20.8322 134.543 20.7866 134.687 20.7333L135.045 20.6013C135.281 20.5134 135.49 20.4198 135.683 20.3262L135.82 20.2548L135.952 20.1835V21.1733H135.953C135.944 21.2297 135.944 21.2872 135.953 21.3436C135.966 21.4004 135.984 21.4557 136.008 21.5086C135.964 21.6168 135.945 21.7334 135.953 21.8497L135.953 21.8501ZM149.153 26.8C149.153 27.3502 146.722 28.7252 142.003 28.7252V28.7249C140.523 28.7387 139.046 28.5783 137.603 28.2464V26.0903H137.558H137.559C137.59 25.9625 137.604 25.8313 137.603 25.6997V26.0903C139.05 26.3861 140.525 26.5315 142.003 26.525C144.753 26.525 147.47 26.0466 149.153 25.1224V26.8ZM149.153 22.95C149.153 23.5002 146.722 24.8753 142.003 24.8753V24.8749C140.523 24.8887 139.046 24.7279 137.603 24.3965V22.2403H137.558H137.559C137.59 22.1126 137.604 21.9814 137.603 21.8498V22.2403C139.05 22.5361 140.525 22.6815 142.003 22.675C144.753 22.675 147.47 22.1966 149.153 21.2724V22.95ZM149.153 19.1001C149.153 19.6502 146.722 21.0253 142.003 21.0253V21.0249C140.523 21.0387 139.046 20.878 137.603 20.5465V18.3904H137.558H137.559C137.59 18.2626 137.604 18.1314 137.603 17.9998V18.3904C139.05 18.6888 140.525 18.8346 142.003 18.8247C144.753 18.8247 147.47 18.3462 149.153 17.422V19.1001ZM149.153 15.2501C149.153 15.8003 146.722 17.1753 142.003 17.1753V17.1749C140.284 17.1983 138.571 16.9739 136.915 16.5093C136.32 15.9745 135.617 15.5747 134.853 15.3376C134.856 15.3123 134.856 15.2862 134.853 15.2608V13.6107C136.536 14.4962 139.253 14.9746 142.003 14.9746C144.753 14.9746 147.47 14.4962 149.153 13.572V15.2501ZM149.153 11.4001C149.153 11.9503 146.722 13.3253 142.003 13.3253C137.284 13.3253 134.853 11.9779 134.853 11.4001V9.74998C136.536 10.6462 139.253 11.1246 142.003 11.1246C144.753 11.1246 147.47 10.6462 149.153 9.72199V11.4001ZM149.153 7.55013C149.153 8.1003 146.722 9.47537 142.003 9.47537C137.284 9.47537 134.853 8.12794 134.853 7.55013V5.9C136.536 6.79623 139.253 7.27464 142.003 7.27464C144.753 7.27464 147.47 6.79622 149.153 5.87201V7.55013ZM142.003 5.62461C137.284 5.62461 134.853 4.27718 134.853 3.69937C134.853 3.12197 137.284 1.77453 142.003 1.77453C146.722 1.77453 149.153 3.12196 149.153 3.69977C149.153 4.27717 146.722 5.62461 142.003 5.62461Z" fill="white"/>
<path d="M135.951 25.1956C135.942 25.1392 135.942 25.0816 135.951 25.0252V25.7016C135.95 25.5838 135.977 25.4672 136.027 25.3609C135.997 25.3083 135.971 25.2531 135.951 25.1955V25.1956ZM135.951 25.1956C135.942 25.1392 135.942 25.0816 135.951 25.0252V25.7016C135.95 25.5838 135.977 25.4672 136.027 25.3609C135.997 25.3083 135.971 25.2531 135.951 25.1955V25.1956ZM137.535 22.231H137.579L137.579 21.8516C137.587 21.9786 137.579 22.1059 137.557 22.231H137.535ZM135.951 25.1956C135.942 25.1392 135.942 25.0816 135.951 25.0252V25.7016C135.95 25.5838 135.977 25.4672 136.027 25.3609C135.997 25.3083 135.971 25.2531 135.951 25.1955V25.1956ZM135.797 27.9456L135.929 27.8796L135.797 27.9456ZM135.951 25.1956C135.942 25.1392 135.942 25.0816 135.951 25.0252V25.7016C135.95 25.5838 135.977 25.4672 136.027 25.3609C135.997 25.3083 135.971 25.2531 135.951 25.1955V25.1956Z" fill="white"/>
<path d="M135.951 21.344C135.942 21.2876 135.942 21.23 135.951 21.1737V21.85C135.95 21.7323 135.977 21.6156 136.027 21.509C135.997 21.4568 135.971 21.4015 135.951 21.344V21.344ZM135.951 21.344C135.942 21.2876 135.942 21.23 135.951 21.1737V21.85C135.95 21.7323 135.977 21.6156 136.027 21.509C135.997 21.4568 135.971 21.4015 135.951 21.344V21.344ZM137.535 18.3794H137.579L137.579 18C137.587 18.127 137.579 18.2544 137.557 18.3794H137.535ZM135.951 21.344C135.942 21.2876 135.942 21.23 135.951 21.1737V21.85C135.95 21.7323 135.977 21.6156 136.027 21.509C135.997 21.4568 135.971 21.4015 135.951 21.344V21.344ZM135.797 24.094L135.929 24.0281L135.797 24.094ZM135.951 21.344C135.942 21.2876 135.942 21.23 135.951 21.1737V21.85C135.95 21.7323 135.977 21.6156 136.027 21.509C135.997 21.4568 135.971 21.4015 135.951 21.344V21.344Z" fill="white"/>
<path d="M134.854 15.3385C134.857 15.3131 134.857 15.287 134.854 15.2617C134.851 15.287 134.851 15.3131 134.854 15.3385Z" fill="white"/>
<path d="M137.603 18V18.3906H137.559H137.559C137.59 18.2628 137.605 18.1316 137.603 18Z" fill="white"/>
<path d="M133.296 14.8812C133.235 14.9944 133.203 15.121 133.203 15.2499V14.8594L133.296 14.8812Z" fill="white"/>
<path d="M137.603 25.7012V26.0917H137.559H137.559C137.59 25.964 137.605 25.8328 137.603 25.7012Z" fill="white"/>
<path d="M137.603 21.8516V22.2421H137.559H137.559C137.59 22.1144 137.605 21.9832 137.603 21.8516Z" fill="white"/>
<path d="M169.871 17.8131C169.917 17.8653 169.945 17.9305 169.953 18C169.947 17.9635 169.947 17.9263 169.953 17.8898L169.871 17.8131ZM169.871 17.8131C169.917 17.8653 169.945 17.9305 169.953 18C169.947 17.9635 169.947 17.9263 169.953 17.8898L169.871 17.8131ZM169.794 17.7249L169.827 17.769C169.838 17.7863 169.853 17.8012 169.871 17.8131L169.794 17.7249ZM169.871 17.8127V17.8131C169.917 17.8653 169.945 17.9305 169.953 18C169.947 17.9635 169.947 17.9263 169.953 17.8898L169.871 17.8127ZM169.821 20.2605L169.953 20.1945L169.821 20.2605ZM169.821 17.7249L169.854 17.769C169.866 17.7863 169.881 17.8013 169.898 17.8132L169.821 17.7249ZM167.203 14.8594V15.2499C167.203 15.121 167.235 14.9944 167.296 14.8812L167.203 14.8594ZM169.871 17.8127V17.8131C169.917 17.8653 169.945 17.9305 169.953 18C169.947 17.9635 169.947 17.9263 169.953 17.8898L169.871 17.8127Z" fill="white"/>
<path d="M171.559 26.081H171.603L171.602 25.7012C171.603 25.8293 171.589 25.9567 171.559 26.081Z" fill="white"/>
<path d="M184.803 3.56796C184.806 3.55185 184.806 3.53497 184.803 3.51847C184.577 1.31862 180.282 0.125 176.003 0.125C171.724 0.125 167.45 1.29093 167.202 3.51847H167.203C167.2 3.53497 167.2 3.55185 167.203 3.56796C167.199 3.61208 167.199 3.6562 167.203 3.69994V14.8593H167.296H167.296C167.234 14.9724 167.202 15.099 167.203 15.228V14.8374C165.754 14.5489 164.279 14.4108 162.802 14.425C158.545 14.425 154.25 15.5909 154.002 17.8184C153.999 17.8349 153.999 17.8514 154.002 17.8679C153.999 17.912 153.999 17.9558 154.002 17.9999V29.5501C154.002 31.8985 158.402 33.125 162.802 33.125C166.933 33.125 171.113 32.0251 171.564 29.9295C173.024 30.2322 174.512 30.3815 176.002 30.375C180.26 30.375 184.555 29.209 184.803 26.9815C184.808 26.9209 184.808 26.8603 184.803 26.8V3.69958C184.805 3.65584 184.805 3.61172 184.803 3.5676L184.803 3.56796ZM162.802 16.0748C164.487 16.0529 166.166 16.2678 167.791 16.7128L168.061 16.8007H168.132V16.8011C168.745 16.9653 169.31 17.2726 169.782 17.6977L169.859 17.7855L169.953 17.868C169.947 17.9045 169.947 17.9417 169.953 17.9781C169.953 18.1926 169.463 18.6986 168.149 19.1498L167.791 19.2653V19.2649C166.167 19.718 164.488 19.9402 162.803 19.9252C158.084 19.9252 155.652 18.5778 155.652 18C155.652 17.4226 158.084 16.0748 162.803 16.0748L162.802 16.0748ZM169.953 29.5501C169.953 30.1002 167.521 31.4753 162.802 31.4753C158.083 31.4753 155.652 30.1279 155.652 29.5501V27.8999C155.773 27.9659 155.9 28.0319 156.032 28.0925L156.329 28.2245C156.687 28.3749 157.054 28.5019 157.429 28.604L157.731 28.6918C158.089 28.7908 158.468 28.8733 158.831 28.9504C159.073 28.9945 159.321 29.0382 159.574 29.0712L159.964 29.1261V29.1265C160.906 29.2347 161.854 29.2842 162.802 29.275C164.796 29.3083 166.783 29.0244 168.687 28.4332L169.045 28.3012C169.276 28.2134 169.49 28.1198 169.683 28.0262L169.82 27.9548L169.952 27.8834L169.953 29.5501ZM169.953 25.7001C169.953 25.9146 169.463 26.4206 168.149 26.8718L168.148 26.8714C166.417 27.4028 164.613 27.6572 162.802 27.6249C158.084 27.6249 155.652 26.2775 155.652 25.6997V24.0496C155.773 24.1156 155.9 24.1816 156.032 24.2422L156.329 24.3741C156.687 24.5249 157.054 24.6515 157.429 24.754L157.731 24.8418C158.089 24.9408 158.468 25.0233 158.831 25.1004C159.073 25.1445 159.321 25.1883 159.574 25.2213L159.964 25.2761V25.2765C160.906 25.3847 161.854 25.4342 162.802 25.425C164.641 25.4457 166.474 25.209 168.247 24.721C168.396 24.6822 168.543 24.6366 168.687 24.5832L169.045 24.4513C169.276 24.3634 169.49 24.2698 169.683 24.1762L169.82 24.1048L169.952 24.0335V25.0233H169.953C169.944 25.0797 169.944 25.1372 169.953 25.1936C169.966 25.2504 169.984 25.3056 170.008 25.359C169.964 25.4672 169.945 25.5834 169.953 25.6997L169.953 25.7001ZM169.953 21.8501C169.953 22.0646 169.463 22.5706 168.149 23.0218L167.791 23.1373V23.1369C166.166 23.5824 164.487 23.7972 162.803 23.775C158.084 23.775 155.652 22.4275 155.652 21.8497V20.1996C155.773 20.2656 155.9 20.3316 156.032 20.3922L156.329 20.5242C156.687 20.673 157.055 20.7996 157.429 20.9036L157.731 20.9915C158.089 21.0851 158.468 21.1729 158.831 21.25C159.073 21.2942 159.321 21.3379 159.574 21.3709L159.964 21.4258V21.4261C160.906 21.5347 161.854 21.5842 162.802 21.5746C164.641 21.5957 166.474 21.3586 168.247 20.8706C168.396 20.8322 168.543 20.7866 168.687 20.7333L169.045 20.6013C169.281 20.5134 169.49 20.4198 169.683 20.3262L169.82 20.2548L169.952 20.1835V21.1733H169.953C169.944 21.2297 169.944 21.2872 169.953 21.3436C169.966 21.4004 169.984 21.4557 170.008 21.5086C169.964 21.6168 169.945 21.7334 169.953 21.8497L169.953 21.8501ZM183.153 26.8C183.153 27.3502 180.722 28.7252 176.003 28.7252V28.7249C174.523 28.7387 173.046 28.5783 171.603 28.2464V26.0903H171.558H171.559C171.59 25.9625 171.604 25.8313 171.603 25.6997V26.0903C173.05 26.3861 174.525 26.5315 176.003 26.525C178.753 26.525 181.47 26.0466 183.153 25.1224V26.8ZM183.153 22.95C183.153 23.5002 180.722 24.8753 176.003 24.8753V24.8749C174.523 24.8887 173.046 24.7279 171.603 24.3965V22.2403H171.558H171.559C171.59 22.1126 171.604 21.9814 171.603 21.8498V22.2403C173.05 22.5361 174.525 22.6815 176.003 22.675C178.753 22.675 181.47 22.1966 183.153 21.2724V22.95ZM183.153 19.1001C183.153 19.6502 180.722 21.0253 176.003 21.0253V21.0249C174.523 21.0387 173.046 20.878 171.603 20.5465V18.3904H171.558H171.559C171.59 18.2626 171.604 18.1314 171.603 17.9998V18.3904C173.05 18.6888 174.525 18.8346 176.003 18.8247C178.753 18.8247 181.47 18.3462 183.153 17.422V19.1001ZM183.153 15.2501C183.153 15.8003 180.722 17.1753 176.003 17.1753V17.1749C174.284 17.1983 172.571 16.9739 170.915 16.5093C170.32 15.9745 169.617 15.5747 168.853 15.3376C168.856 15.3123 168.856 15.2862 168.853 15.2608V13.6107C170.536 14.4962 173.253 14.9746 176.003 14.9746C178.753 14.9746 181.47 14.4962 183.153 13.572V15.2501ZM183.153 11.4001C183.153 11.9503 180.722 13.3253 176.003 13.3253C171.284 13.3253 168.853 11.9779 168.853 11.4001V9.74998C170.536 10.6462 173.253 11.1246 176.003 11.1246C178.753 11.1246 181.47 10.6462 183.153 9.72199V11.4001ZM183.153 7.55013C183.153 8.1003 180.722 9.47537 176.003 9.47537C171.284 9.47537 168.853 8.12794 168.853 7.55013V5.9C170.536 6.79623 173.253 7.27464 176.003 7.27464C178.753 7.27464 181.47 6.79622 183.153 5.87201V7.55013ZM176.003 5.62461C171.284 5.62461 168.853 4.27718 168.853 3.69937C168.853 3.12197 171.284 1.77453 176.003 1.77453C180.722 1.77453 183.153 3.12196 183.153 3.69977C183.153 4.27717 180.722 5.62461 176.003 5.62461Z" fill="white"/>
<path d="M169.951 25.1956C169.942 25.1392 169.942 25.0816 169.951 25.0252V25.7016C169.95 25.5838 169.977 25.4672 170.027 25.3609C169.997 25.3083 169.971 25.2531 169.951 25.1955V25.1956ZM169.951 25.1956C169.942 25.1392 169.942 25.0816 169.951 25.0252V25.7016C169.95 25.5838 169.977 25.4672 170.027 25.3609C169.997 25.3083 169.971 25.2531 169.951 25.1955V25.1956ZM171.535 22.231H171.579L171.579 21.8516C171.587 21.9786 171.579 22.1059 171.557 22.231H171.535ZM169.951 25.1956C169.942 25.1392 169.942 25.0816 169.951 25.0252V25.7016C169.95 25.5838 169.977 25.4672 170.027 25.3609C169.997 25.3083 169.971 25.2531 169.951 25.1955V25.1956ZM169.797 27.9456L169.929 27.8796L169.797 27.9456ZM169.951 25.1956C169.942 25.1392 169.942 25.0816 169.951 25.0252V25.7016C169.95 25.5838 169.977 25.4672 170.027 25.3609C169.997 25.3083 169.971 25.2531 169.951 25.1955V25.1956Z" fill="white"/>
<path d="M169.951 21.344C169.942 21.2876 169.942 21.23 169.951 21.1737V21.85C169.95 21.7323 169.977 21.6156 170.027 21.509C169.997 21.4568 169.971 21.4015 169.951 21.344V21.344ZM169.951 21.344C169.942 21.2876 169.942 21.23 169.951 21.1737V21.85C169.95 21.7323 169.977 21.6156 170.027 21.509C169.997 21.4568 169.971 21.4015 169.951 21.344V21.344ZM171.535 18.3794H171.579L171.579 18C171.587 18.127 171.579 18.2544 171.557 18.3794H171.535ZM169.951 21.344C169.942 21.2876 169.942 21.23 169.951 21.1737V21.85C169.95 21.7323 169.977 21.6156 170.027 21.509C169.997 21.4568 169.971 21.4015 169.951 21.344V21.344ZM169.797 24.094L169.929 24.0281L169.797 24.094ZM169.951 21.344C169.942 21.2876 169.942 21.23 169.951 21.1737V21.85C169.95 21.7323 169.977 21.6156 170.027 21.509C169.997 21.4568 169.971 21.4015 169.951 21.344V21.344Z" fill="white"/>
<path d="M168.854 15.3385C168.857 15.3131 168.857 15.287 168.854 15.2617C168.851 15.287 168.851 15.3131 168.854 15.3385Z" fill="white"/>
<path d="M171.603 18V18.3906H171.559H171.559C171.59 18.2628 171.605 18.1316 171.603 18Z" fill="white"/>
<path d="M167.296 14.8812C167.235 14.9944 167.203 15.121 167.203 15.2499V14.8594L167.296 14.8812Z" fill="white"/>
<path d="M171.603 25.7012V26.0917H171.559H171.559C171.59 25.964 171.605 25.8328 171.603 25.7012Z" fill="white"/>
<path d="M171.603 21.8516V22.2421H171.559H171.559C171.59 22.1144 171.605 21.9832 171.603 21.8516Z" fill="white"/>
<path d="M243.871 41.8131C243.917 41.8653 243.945 41.9305 243.953 42C243.947 41.9635 243.947 41.9263 243.953 41.8898L243.871 41.8131ZM243.871 41.8131C243.917 41.8653 243.945 41.9305 243.953 42C243.947 41.9635 243.947 41.9263 243.953 41.8898L243.871 41.8131ZM243.794 41.7249L243.827 41.769C243.838 41.7863 243.853 41.8012 243.871 41.8131L243.794 41.7249ZM243.871 41.8127V41.8131C243.917 41.8653 243.945 41.9305 243.953 42C243.947 41.9635 243.947 41.9263 243.953 41.8898L243.871 41.8127ZM243.821 44.2605L243.953 44.1945L243.821 44.2605ZM243.821 41.7249L243.854 41.769C243.866 41.7863 243.881 41.8013 243.898 41.8132L243.821 41.7249ZM241.203 38.8594V39.2499C241.203 39.121 241.235 38.9944 241.296 38.8812L241.203 38.8594ZM243.871 41.8127V41.8131C243.917 41.8653 243.945 41.9305 243.953 42C243.947 41.9635 243.947 41.9263 243.953 41.8898L243.871 41.8127Z" fill="white"/>
<path d="M245.559 50.081H245.603L245.602 49.7012C245.603 49.8293 245.589 49.9567 245.559 50.081Z" fill="white"/>
<path d="M258.803 27.568C258.806 27.5518 258.806 27.535 258.803 27.5185C258.577 25.3186 254.282 24.125 250.003 24.125C245.724 24.125 241.45 25.2909 241.202 27.5185H241.203C241.2 27.535 241.2 27.5518 241.203 27.568C241.199 27.6121 241.199 27.6562 241.203 27.6999V38.8593H241.296H241.296C241.234 38.9724 241.202 39.099 241.203 39.228V38.8374C239.754 38.5489 238.279 38.4108 236.802 38.425C232.545 38.425 228.25 39.5909 228.002 41.8184C227.999 41.8349 227.999 41.8514 228.002 41.8679C227.999 41.912 227.999 41.9558 228.002 41.9999V53.5501C228.002 55.8985 232.402 57.125 236.802 57.125C240.933 57.125 245.113 56.0251 245.564 53.9295C247.024 54.2322 248.512 54.3815 250.002 54.375C254.26 54.375 258.555 53.209 258.803 50.9815C258.808 50.9209 258.808 50.8603 258.803 50.8V27.6996C258.805 27.6558 258.805 27.6117 258.803 27.5676L258.803 27.568ZM236.802 40.0748C238.487 40.0529 240.166 40.2678 241.791 40.7128L242.061 40.8007H242.132V40.8011C242.745 40.9653 243.31 41.2726 243.782 41.6977L243.859 41.7855L243.953 41.868C243.947 41.9045 243.947 41.9417 243.953 41.9781C243.953 42.1926 243.463 42.6986 242.149 43.1498L241.791 43.2653V43.2649C240.167 43.718 238.488 43.9402 236.803 43.9252C232.084 43.9252 229.652 42.5778 229.652 42C229.652 41.4226 232.084 40.0748 236.803 40.0748L236.802 40.0748ZM243.953 53.5501C243.953 54.1002 241.521 55.4753 236.802 55.4753C232.083 55.4753 229.652 54.1279 229.652 53.5501V51.8999C229.773 51.9659 229.9 52.0319 230.032 52.0925L230.329 52.2245C230.687 52.3749 231.054 52.5019 231.429 52.604L231.731 52.6918C232.089 52.7908 232.468 52.8733 232.831 52.9504C233.073 52.9945 233.321 53.0382 233.574 53.0712L233.964 53.1261V53.1265C234.906 53.2347 235.854 53.2842 236.802 53.275C238.796 53.3083 240.783 53.0244 242.687 52.4332L243.045 52.3012C243.276 52.2134 243.49 52.1198 243.683 52.0262L243.82 51.9548L243.952 51.8834L243.953 53.5501ZM243.953 49.7001C243.953 49.9146 243.463 50.4206 242.149 50.8718L242.148 50.8714C240.417 51.4028 238.613 51.6572 236.802 51.6249C232.084 51.6249 229.652 50.2775 229.652 49.6997V48.0496C229.773 48.1156 229.9 48.1816 230.032 48.2422L230.329 48.3741C230.687 48.5249 231.054 48.6515 231.429 48.754L231.731 48.8418C232.089 48.9408 232.468 49.0233 232.831 49.1004C233.073 49.1445 233.321 49.1883 233.574 49.2213L233.964 49.2761V49.2765C234.906 49.3847 235.854 49.4342 236.802 49.425C238.641 49.4457 240.474 49.209 242.247 48.721C242.396 48.6822 242.543 48.6366 242.687 48.5832L243.045 48.4513C243.276 48.3634 243.49 48.2698 243.683 48.1762L243.82 48.1048L243.952 48.0335V49.0233H243.953C243.944 49.0797 243.944 49.1372 243.953 49.1936C243.966 49.2504 243.984 49.3056 244.008 49.359C243.964 49.4672 243.945 49.5834 243.953 49.6997L243.953 49.7001ZM243.953 45.8501C243.953 46.0646 243.463 46.5706 242.149 47.0218L241.791 47.1373V47.1369C240.166 47.5824 238.487 47.7972 236.803 47.775C232.084 47.775 229.652 46.4275 229.652 45.8497V44.1996C229.773 44.2656 229.9 44.3316 230.032 44.3922L230.329 44.5242C230.687 44.673 231.055 44.7996 231.429 44.9036L231.731 44.9915C232.089 45.0851 232.468 45.1729 232.831 45.25C233.073 45.2942 233.321 45.3379 233.574 45.3709L233.964 45.4258V45.4261C234.906 45.5347 235.854 45.5842 236.802 45.5746C238.641 45.5957 240.474 45.3586 242.247 44.8706C242.396 44.8322 242.543 44.7866 242.687 44.7333L243.045 44.6013C243.281 44.5134 243.49 44.4198 243.683 44.3262L243.82 44.2548L243.952 44.1835V45.1733H243.953C243.944 45.2297 243.944 45.2872 243.953 45.3436C243.966 45.4004 243.984 45.4557 244.008 45.5086C243.964 45.6168 243.945 45.7334 243.953 45.8497L243.953 45.8501ZM257.153 50.8C257.153 51.3502 254.722 52.7252 250.003 52.7252V52.7249C248.523 52.7387 247.046 52.5783 245.603 52.2464V50.0903H245.558H245.559C245.59 49.9625 245.604 49.8313 245.603 49.6997V50.0903C247.05 50.3861 248.525 50.5315 250.003 50.525C252.753 50.525 255.47 50.0466 257.153 49.1224V50.8ZM257.153 46.95C257.153 47.5002 254.722 48.8753 250.003 48.8753V48.8749C248.523 48.8887 247.046 48.7279 245.603 48.3965V46.2403H245.558H245.559C245.59 46.1126 245.604 45.9814 245.603 45.8498V46.2403C247.05 46.5361 248.525 46.6815 250.003 46.675C252.753 46.675 255.47 46.1966 257.153 45.2724V46.95ZM257.153 43.1001C257.153 43.6502 254.722 45.0253 250.003 45.0253V45.0249C248.523 45.0387 247.046 44.878 245.603 44.5465V42.3904H245.558H245.559C245.59 42.2626 245.604 42.1314 245.603 41.9998V42.3904C247.05 42.6888 248.525 42.8346 250.003 42.8247C252.753 42.8247 255.47 42.3462 257.153 41.422V43.1001ZM257.153 39.2501C257.153 39.8003 254.722 41.1753 250.003 41.1753V41.1749C248.284 41.1983 246.571 40.9739 244.915 40.5093C244.32 39.9745 243.617 39.5747 242.853 39.3376C242.856 39.3123 242.856 39.2862 242.853 39.2608V37.6107C244.536 38.4962 247.253 38.9746 250.003 38.9746C252.753 38.9746 255.47 38.4962 257.153 37.572V39.2501ZM257.153 35.4001C257.153 35.9503 254.722 37.3253 250.003 37.3253C245.284 37.3253 242.853 35.9779 242.853 35.4001V33.75C244.536 34.6462 247.253 35.1246 250.003 35.1246C252.753 35.1246 255.47 34.6462 257.153 33.722V35.4001ZM257.153 31.5501C257.153 32.1003 254.722 33.4754 250.003 33.4754C245.284 33.4754 242.853 32.1279 242.853 31.5501V29.9C244.536 30.7962 247.253 31.2746 250.003 31.2746C252.753 31.2746 255.47 30.7962 257.153 29.872V31.5501ZM250.003 29.6246C245.284 29.6246 242.853 28.2772 242.853 27.6994C242.853 27.122 245.284 25.7745 250.003 25.7745C254.722 25.7745 257.153 27.122 257.153 27.6998C257.153 28.2772 254.722 29.6246 250.003 29.6246Z" fill="white"/>
<path d="M243.951 49.1956C243.942 49.1392 243.942 49.0816 243.951 49.0252V49.7016C243.95 49.5838 243.977 49.4672 244.027 49.3609C243.997 49.3083 243.971 49.2531 243.951 49.1955V49.1956ZM243.951 49.1956C243.942 49.1392 243.942 49.0816 243.951 49.0252V49.7016C243.95 49.5838 243.977 49.4672 244.027 49.3609C243.997 49.3083 243.971 49.2531 243.951 49.1955V49.1956ZM245.535 46.231H245.579L245.579 45.8516C245.587 45.9786 245.579 46.1059 245.557 46.231H245.535ZM243.951 49.1956C243.942 49.1392 243.942 49.0816 243.951 49.0252V49.7016C243.95 49.5838 243.977 49.4672 244.027 49.3609C243.997 49.3083 243.971 49.2531 243.951 49.1955V49.1956ZM243.797 51.9456L243.929 51.8796L243.797 51.9456ZM243.951 49.1956C243.942 49.1392 243.942 49.0816 243.951 49.0252V49.7016C243.95 49.5838 243.977 49.4672 244.027 49.3609C243.997 49.3083 243.971 49.2531 243.951 49.1955V49.1956Z" fill="white"/>
<path d="M243.951 45.344C243.942 45.2876 243.942 45.23 243.951 45.1737V45.85C243.95 45.7323 243.977 45.6156 244.027 45.509C243.997 45.4568 243.971 45.4015 243.951 45.344V45.344ZM243.951 45.344C243.942 45.2876 243.942 45.23 243.951 45.1737V45.85C243.95 45.7323 243.977 45.6156 244.027 45.509C243.997 45.4568 243.971 45.4015 243.951 45.344V45.344ZM245.535 42.3794H245.579L245.579 42C245.587 42.127 245.579 42.2544 245.557 42.3794H245.535ZM243.951 45.344C243.942 45.2876 243.942 45.23 243.951 45.1737V45.85C243.95 45.7323 243.977 45.6156 244.027 45.509C243.997 45.4568 243.971 45.4015 243.951 45.344V45.344ZM243.797 48.094L243.929 48.0281L243.797 48.094ZM243.951 45.344C243.942 45.2876 243.942 45.23 243.951 45.1737V45.85C243.95 45.7323 243.977 45.6156 244.027 45.509C243.997 45.4568 243.971 45.4015 243.951 45.344V45.344Z" fill="white"/>
<path d="M242.854 39.3385C242.857 39.3131 242.857 39.287 242.854 39.2617C242.851 39.287 242.851 39.3131 242.854 39.3385Z" fill="white"/>
<path d="M245.603 42V42.3906H245.559H245.559C245.59 42.2628 245.605 42.1316 245.603 42Z" fill="white"/>
<path d="M241.296 38.8812C241.235 38.9944 241.203 39.121 241.203 39.2499V38.8594L241.296 38.8812Z" fill="white"/>
<path d="M245.603 49.7012V50.0917H245.559H245.559C245.59 49.964 245.605 49.8328 245.603 49.7012Z" fill="white"/>
<path d="M245.603 45.8516V46.2421H245.559H245.559C245.59 46.1144 245.605 45.9832 245.603 45.8516Z" fill="white"/>
<path d="M278.871 41.8131C278.917 41.8653 278.945 41.9305 278.953 42C278.947 41.9635 278.947 41.9263 278.953 41.8898L278.871 41.8131ZM278.871 41.8131C278.917 41.8653 278.945 41.9305 278.953 42C278.947 41.9635 278.947 41.9263 278.953 41.8898L278.871 41.8131ZM278.794 41.7249L278.827 41.769C278.838 41.7863 278.853 41.8012 278.871 41.8131L278.794 41.7249ZM278.871 41.8127V41.8131C278.917 41.8653 278.945 41.9305 278.953 42C278.947 41.9635 278.947 41.9263 278.953 41.8898L278.871 41.8127ZM278.821 44.2605L278.953 44.1945L278.821 44.2605ZM278.821 41.7249L278.854 41.769C278.866 41.7863 278.881 41.8013 278.898 41.8132L278.821 41.7249ZM276.203 38.8594V39.2499C276.203 39.121 276.235 38.9944 276.296 38.8812L276.203 38.8594ZM278.871 41.8127V41.8131C278.917 41.8653 278.945 41.9305 278.953 42C278.947 41.9635 278.947 41.9263 278.953 41.8898L278.871 41.8127Z" fill="white"/>
<path d="M280.559 50.081H280.603L280.602 49.7012C280.603 49.8293 280.589 49.9567 280.559 50.081Z" fill="white"/>
<path d="M293.803 27.568C293.806 27.5518 293.806 27.535 293.803 27.5185C293.577 25.3186 289.282 24.125 285.003 24.125C280.724 24.125 276.45 25.2909 276.202 27.5185H276.203C276.2 27.535 276.2 27.5518 276.203 27.568C276.199 27.6121 276.199 27.6562 276.203 27.6999V38.8593H276.296H276.296C276.234 38.9724 276.202 39.099 276.203 39.228V38.8374C274.754 38.5489 273.279 38.4108 271.802 38.425C267.545 38.425 263.25 39.5909 263.002 41.8184C262.999 41.8349 262.999 41.8514 263.002 41.8679C262.999 41.912 262.999 41.9558 263.002 41.9999V53.5501C263.002 55.8985 267.402 57.125 271.802 57.125C275.933 57.125 280.113 56.0251 280.564 53.9295C282.024 54.2322 283.512 54.3815 285.002 54.375C289.26 54.375 293.555 53.209 293.803 50.9815C293.808 50.9209 293.808 50.8603 293.803 50.8V27.6996C293.805 27.6558 293.805 27.6117 293.803 27.5676L293.803 27.568ZM271.802 40.0748C273.487 40.0529 275.166 40.2678 276.791 40.7128L277.061 40.8007H277.132V40.8011C277.745 40.9653 278.31 41.2726 278.782 41.6977L278.859 41.7855L278.953 41.868C278.947 41.9045 278.947 41.9417 278.953 41.9781C278.953 42.1926 278.463 42.6986 277.149 43.1498L276.791 43.2653V43.2649C275.167 43.718 273.488 43.9402 271.803 43.9252C267.084 43.9252 264.652 42.5778 264.652 42C264.652 41.4226 267.084 40.0748 271.803 40.0748L271.802 40.0748ZM278.953 53.5501C278.953 54.1002 276.521 55.4753 271.802 55.4753C267.083 55.4753 264.652 54.1279 264.652 53.5501V51.8999C264.773 51.9659 264.9 52.0319 265.032 52.0925L265.329 52.2245C265.687 52.3749 266.054 52.5019 266.429 52.604L266.731 52.6918C267.089 52.7908 267.468 52.8733 267.831 52.9504C268.073 52.9945 268.321 53.0382 268.574 53.0712L268.964 53.1261V53.1265C269.906 53.2347 270.854 53.2842 271.802 53.275C273.796 53.3083 275.783 53.0244 277.687 52.4332L278.045 52.3012C278.276 52.2134 278.49 52.1198 278.683 52.0262L278.82 51.9548L278.952 51.8834L278.953 53.5501ZM278.953 49.7001C278.953 49.9146 278.463 50.4206 277.149 50.8718L277.148 50.8714C275.417 51.4028 273.613 51.6572 271.802 51.6249C267.084 51.6249 264.652 50.2775 264.652 49.6997V48.0496C264.773 48.1156 264.9 48.1816 265.032 48.2422L265.329 48.3741C265.687 48.5249 266.054 48.6515 266.429 48.754L266.731 48.8418C267.089 48.9408 267.468 49.0233 267.831 49.1004C268.073 49.1445 268.321 49.1883 268.574 49.2213L268.964 49.2761V49.2765C269.906 49.3847 270.854 49.4342 271.802 49.425C273.641 49.4457 275.474 49.209 277.247 48.721C277.396 48.6822 277.543 48.6366 277.687 48.5832L278.045 48.4513C278.276 48.3634 278.49 48.2698 278.683 48.1762L278.82 48.1048L278.952 48.0335V49.0233H278.953C278.944 49.0797 278.944 49.1372 278.953 49.1936C278.966 49.2504 278.984 49.3056 279.008 49.359C278.964 49.4672 278.945 49.5834 278.953 49.6997L278.953 49.7001ZM278.953 45.8501C278.953 46.0646 278.463 46.5706 277.149 47.0218L276.791 47.1373V47.1369C275.166 47.5824 273.487 47.7972 271.803 47.775C267.084 47.775 264.652 46.4275 264.652 45.8497V44.1996C264.773 44.2656 264.9 44.3316 265.032 44.3922L265.329 44.5242C265.687 44.673 266.055 44.7996 266.429 44.9036L266.731 44.9915C267.089 45.0851 267.468 45.1729 267.831 45.25C268.073 45.2942 268.321 45.3379 268.574 45.3709L268.964 45.4258V45.4261C269.906 45.5347 270.854 45.5842 271.802 45.5746C273.641 45.5957 275.474 45.3586 277.247 44.8706C277.396 44.8322 277.543 44.7866 277.687 44.7333L278.045 44.6013C278.281 44.5134 278.49 44.4198 278.683 44.3262L278.82 44.2548L278.952 44.1835V45.1733H278.953C278.944 45.2297 278.944 45.2872 278.953 45.3436C278.966 45.4004 278.984 45.4557 279.008 45.5086C278.964 45.6168 278.945 45.7334 278.953 45.8497L278.953 45.8501ZM292.153 50.8C292.153 51.3502 289.722 52.7252 285.003 52.7252V52.7249C283.523 52.7387 282.046 52.5783 280.603 52.2464V50.0903H280.558H280.559C280.59 49.9625 280.604 49.8313 280.603 49.6997V50.0903C282.05 50.3861 283.525 50.5315 285.003 50.525C287.753 50.525 290.47 50.0466 292.153 49.1224V50.8ZM292.153 46.95C292.153 47.5002 289.722 48.8753 285.003 48.8753V48.8749C283.523 48.8887 282.046 48.7279 280.603 48.3965V46.2403H280.558H280.559C280.59 46.1126 280.604 45.9814 280.603 45.8498V46.2403C282.05 46.5361 283.525 46.6815 285.003 46.675C287.753 46.675 290.47 46.1966 292.153 45.2724V46.95ZM292.153 43.1001C292.153 43.6502 289.722 45.0253 285.003 45.0253V45.0249C283.523 45.0387 282.046 44.878 280.603 44.5465V42.3904H280.558H280.559C280.59 42.2626 280.604 42.1314 280.603 41.9998V42.3904C282.05 42.6888 283.525 42.8346 285.003 42.8247C287.753 42.8247 290.47 42.3462 292.153 41.422V43.1001ZM292.153 39.2501C292.153 39.8003 289.722 41.1753 285.003 41.1753V41.1749C283.284 41.1983 281.571 40.9739 279.915 40.5093C279.32 39.9745 278.617 39.5747 277.853 39.3376C277.856 39.3123 277.856 39.2862 277.853 39.2608V37.6107C279.536 38.4962 282.253 38.9746 285.003 38.9746C287.753 38.9746 290.47 38.4962 292.153 37.572V39.2501ZM292.153 35.4001C292.153 35.9503 289.722 37.3253 285.003 37.3253C280.284 37.3253 277.853 35.9779 277.853 35.4001V33.75C279.536 34.6462 282.253 35.1246 285.003 35.1246C287.753 35.1246 290.47 34.6462 292.153 33.722V35.4001ZM292.153 31.5501C292.153 32.1003 289.722 33.4754 285.003 33.4754C280.284 33.4754 277.853 32.1279 277.853 31.5501V29.9C279.536 30.7962 282.253 31.2746 285.003 31.2746C287.753 31.2746 290.47 30.7962 292.153 29.872V31.5501ZM285.003 29.6246C280.284 29.6246 277.853 28.2772 277.853 27.6994C277.853 27.122 280.284 25.7745 285.003 25.7745C289.722 25.7745 292.153 27.122 292.153 27.6998C292.153 28.2772 289.722 29.6246 285.003 29.6246Z" fill="white"/>
<path d="M278.951 49.1956C278.942 49.1392 278.942 49.0816 278.951 49.0252V49.7016C278.95 49.5838 278.977 49.4672 279.027 49.3609C278.997 49.3083 278.971 49.2531 278.951 49.1955V49.1956ZM278.951 49.1956C278.942 49.1392 278.942 49.0816 278.951 49.0252V49.7016C278.95 49.5838 278.977 49.4672 279.027 49.3609C278.997 49.3083 278.971 49.2531 278.951 49.1955V49.1956ZM280.535 46.231H280.579L280.579 45.8516C280.587 45.9786 280.579 46.1059 280.557 46.231H280.535ZM278.951 49.1956C278.942 49.1392 278.942 49.0816 278.951 49.0252V49.7016C278.95 49.5838 278.977 49.4672 279.027 49.3609C278.997 49.3083 278.971 49.2531 278.951 49.1955V49.1956ZM278.797 51.9456L278.929 51.8796L278.797 51.9456ZM278.951 49.1956C278.942 49.1392 278.942 49.0816 278.951 49.0252V49.7016C278.95 49.5838 278.977 49.4672 279.027 49.3609C278.997 49.3083 278.971 49.2531 278.951 49.1955V49.1956Z" fill="white"/>
<path d="M278.951 45.344C278.942 45.2876 278.942 45.23 278.951 45.1737V45.85C278.95 45.7323 278.977 45.6156 279.027 45.509C278.997 45.4568 278.971 45.4015 278.951 45.344V45.344ZM278.951 45.344C278.942 45.2876 278.942 45.23 278.951 45.1737V45.85C278.95 45.7323 278.977 45.6156 279.027 45.509C278.997 45.4568 278.971 45.4015 278.951 45.344V45.344ZM280.535 42.3794H280.579L280.579 42C280.587 42.127 280.579 42.2544 280.557 42.3794H280.535ZM278.951 45.344C278.942 45.2876 278.942 45.23 278.951 45.1737V45.85C278.95 45.7323 278.977 45.6156 279.027 45.509C278.997 45.4568 278.971 45.4015 278.951 45.344V45.344ZM278.797 48.094L278.929 48.0281L278.797 48.094ZM278.951 45.344C278.942 45.2876 278.942 45.23 278.951 45.1737V45.85C278.95 45.7323 278.977 45.6156 279.027 45.509C278.997 45.4568 278.971 45.4015 278.951 45.344V45.344Z" fill="white"/>
<path d="M277.854 39.3385C277.857 39.3131 277.857 39.287 277.854 39.2617C277.851 39.287 277.851 39.3131 277.854 39.3385Z" fill="white"/>
<path d="M280.603 42V42.3906H280.559H280.559C280.59 42.2628 280.605 42.1316 280.603 42Z" fill="white"/>
<path d="M276.296 38.8812C276.235 38.9944 276.203 39.121 276.203 39.2499V38.8594L276.296 38.8812Z" fill="white"/>
<path d="M280.603 49.7012V50.0917H280.559H280.559C280.59 49.964 280.605 49.8328 280.603 49.7012Z" fill="white"/>
<path d="M280.603 45.8516V46.2421H280.559H280.559C280.59 46.1144 280.605 45.9832 280.603 45.8516Z" fill="white"/>
</svg>
