<svg width="555" height="426" viewBox="0 0 555 426" fill="none" xmlns="http://www.w3.org/2000/svg">
<path d="M42.7899 319.015H210.465L210.465 12.6564H42.7899L42.7899 319.015Z" fill="black"/>
<path d="M33.6575 12.6567L219.586 12.6567V0.666242L33.6575 0.666242V12.6567Z" fill="black"/>
<path d="M33.6562 331.006H162.683H169.774H219.585V319.015H33.6562V331.006Z" fill="black"/>
<path d="M42.7773 136.703V12.6567H210.462V214.364" stroke="white" stroke-linecap="round" stroke-linejoin="round"/>
<path d="M210.462 319.015H42.7773V144.41" stroke="white" stroke-linecap="round" stroke-linejoin="round"/>
<path d="M158.695 84.0941V98.2565H132.34V24.0811H158.695V79.5788" stroke="white" stroke-linecap="round" stroke-linejoin="round"/>
<path d="M54.207 68.4166V24.0811H83.1277" stroke="white" stroke-linecap="round" stroke-linejoin="round"/>
<path d="M83.1277 28.2026V98.2566H54.207V73.4877" stroke="white" stroke-linecap="round" stroke-linejoin="round"/>
<path d="M199.039 202.302H169.098" stroke="white" stroke-linecap="round" stroke-linejoin="round"/>
<path d="M191.719 109.682H199.042V116.137V197.777" stroke="white" stroke-linecap="round" stroke-linejoin="round"/>
<path d="M163.937 202.302H132.34V109.682H174.615" stroke="white" stroke-linecap="round" stroke-linejoin="round"/>
<path d="M94.5508 94.529V24.0811H120.916V49.8298" stroke="white" stroke-linecap="round" stroke-linejoin="round"/>
<path d="M120.916 54.0625V98.2566H94.5508" stroke="white" stroke-linecap="round" stroke-linejoin="round"/>
<path d="M54.207 306.711V213.727H76.693" stroke="white" stroke-linecap="round" stroke-linejoin="round"/>
<path d="M81.3283 213.727H120.916V306.711H58.0039" stroke="white" stroke-linecap="round" stroke-linejoin="round"/>
<path d="M136.691 213.727H199.038" stroke="white" stroke-linecap="round" stroke-linejoin="round"/>
<path d="M132.34 283.741V213.727" stroke="white" stroke-linecap="round" stroke-linejoin="round"/>
<path d="M188.333 306.711H132.34V288.902" stroke="white" stroke-linecap="round" stroke-linejoin="round"/>
<path d="M120.917 170.402V202.302H54.207V109.682H65.45" stroke="white" stroke-linecap="round" stroke-linejoin="round"/>
<path d="M71.3555 109.682H120.913V142.239" stroke="white" stroke-linecap="round" stroke-linejoin="round"/>
<path d="M185.465 98.2568H170.121V74.5283" stroke="white" stroke-linecap="round" stroke-linejoin="round"/>
<path d="M170.121 69.5379V24.0811H199.042V98.2565H189.334" stroke="white" stroke-linecap="round" stroke-linejoin="round"/>
<path d="M111.579 0.666016H33.6562V12.6565H219.585V0.666016H118.802" stroke="white" stroke-linecap="round" stroke-linejoin="round"/>
<path d="M169.774 331.006H219.585V319.015H33.6562V331.006H162.683" stroke="white" stroke-linecap="round" stroke-linejoin="round"/>
<path d="M306.227 222.313H252.84L222.616 164.149C222.225 163.415 222.031 162.591 222.052 161.76C222.074 160.928 222.312 160.116 222.741 159.403C223.171 158.691 223.778 158.102 224.503 157.694C225.229 157.287 226.047 157.074 226.879 157.078H268.841C269.898 157.078 270.934 157.369 271.837 157.917C272.74 158.466 273.475 159.252 273.962 160.189" fill="white"/>
<path d="M275.236 162.694L306.228 222.293H349.664C350.345 222.286 351.006 222.061 351.551 221.653C352.096 221.244 352.497 220.672 352.695 220.02L353.22 218.293H309.783L279.6 160.209C279.112 159.272 278.377 158.486 277.474 157.937C276.571 157.389 275.535 157.098 274.478 157.098H268.781C269.838 157.098 270.874 157.389 271.777 157.937C272.68 158.486 273.415 159.272 273.903 160.209" fill="white"/>
<path d="M306.227 222.313H252.84L222.616 164.149C222.225 163.415 222.031 162.591 222.052 161.76C222.074 160.928 222.312 160.116 222.741 159.403C223.171 158.691 223.778 158.102 224.503 157.694C225.229 157.287 226.047 157.074 226.879 157.078H268.841C269.898 157.078 270.934 157.369 271.837 157.917C272.74 158.466 273.475 159.252 273.962 160.189" stroke="black" stroke-linecap="round" stroke-linejoin="round"/>
<path d="M275.236 162.694L306.228 222.293H349.664C350.345 222.286 351.006 222.061 351.551 221.653C352.096 221.244 352.497 220.672 352.695 220.02L353.22 218.293H309.783L279.6 160.209C279.112 159.272 278.377 158.486 277.474 157.937C276.571 157.389 275.535 157.098 274.478 157.098H268.781C269.838 157.098 270.874 157.389 271.777 157.937C272.68 158.486 273.415 159.272 273.903 160.209" stroke="black" stroke-linecap="round" stroke-linejoin="round"/>
<path d="M256.679 183.695C255.356 185.776 255.487 189.443 257.214 192.958C259.437 197.474 263.457 200.029 266.185 198.696C268.437 197.585 269.114 194.201 268.063 190.524" stroke="black" stroke-linecap="round" stroke-linejoin="round"/>
<path d="M267.125 188.089C264.902 183.574 260.882 181.018 258.145 182.352" stroke="black" stroke-linecap="round" stroke-linejoin="round"/>
<path d="M373.573 398.898C378.092 398.898 381.755 395.234 381.755 390.715C381.755 386.197 378.092 382.533 373.573 382.533C369.054 382.533 365.391 386.197 365.391 390.715C365.391 395.234 369.054 398.898 373.573 398.898Z" fill="black"/>
<path d="M373.573 398.898C378.092 398.898 381.755 395.234 381.755 390.715C381.755 386.197 378.092 382.533 373.573 382.533C369.054 382.533 365.391 386.197 365.391 390.715C365.391 395.234 369.054 398.898 373.573 398.898Z" stroke="white" stroke-linecap="round" stroke-linejoin="round"/>
<path d="M327.784 393.13C332.303 393.13 335.966 389.466 335.966 384.947C335.966 380.428 332.303 376.765 327.784 376.765C323.265 376.765 319.602 380.428 319.602 384.947C319.602 389.466 323.265 393.13 327.784 393.13Z" fill="black"/>
<path d="M331.585 392.201C333.362 391.274 334.739 389.728 335.455 387.855C336.17 385.982 336.175 383.912 335.468 382.036C334.761 380.16 333.392 378.607 331.618 377.672C329.845 376.737 327.79 376.484 325.843 376.96C323.895 377.437 322.19 378.61 321.049 380.258C319.907 381.907 319.409 383.916 319.648 385.906C319.888 387.897 320.848 389.731 322.347 391.062C323.847 392.393 325.782 393.129 327.786 393.13" stroke="white" stroke-linecap="round" stroke-linejoin="round"/>
<path d="M419.729 393.13C424.248 393.13 427.911 389.466 427.911 384.947C427.911 380.428 424.248 376.765 419.729 376.765C415.21 376.765 411.547 380.428 411.547 384.947C411.547 389.466 415.21 393.13 419.729 393.13Z" fill="black"/>
<path d="M411.535 384.948C411.535 386.568 412.016 388.152 412.916 389.499C413.816 390.846 415.095 391.896 416.592 392.516C418.089 393.137 419.737 393.299 421.326 392.983C422.915 392.667 424.375 391.886 425.52 390.741C426.666 389.595 427.446 388.135 427.762 386.546C428.078 384.957 427.916 383.31 427.296 381.813C426.676 380.316 425.626 379.036 424.279 378.136C422.932 377.236 421.348 376.755 419.727 376.755" stroke="white" stroke-linecap="round" stroke-linejoin="round"/>
<path d="M378.37 324.439H368.773V354.532H378.37V324.439Z" fill="black"/>
<path d="M368.773 350.41V324.439H378.37V354.532H368.773" stroke="white" stroke-linecap="round" stroke-linejoin="round"/>
<path d="M421.587 315.54H325.562V324.571H421.587V315.54Z" fill="#02B9F6"/>
<path d="M421.587 315.54H325.562V324.571H421.587V315.54Z" stroke="black" stroke-linecap="round" stroke-linejoin="round"/>
<path d="M385.656 176.482H453.266C454.463 176.482 455.644 176.762 456.715 177.299C457.785 177.837 458.714 178.617 459.429 179.578C460.143 180.539 460.623 181.654 460.83 182.834C461.037 184.013 460.965 185.225 460.62 186.372L421.587 315.56H325.562V298.842C325.562 296.096 326.653 293.462 328.595 291.521C330.537 289.579 333.17 288.488 335.917 288.488H360.877L373.06 187.655C373.432 184.575 374.919 181.739 377.24 179.68C379.561 177.622 382.555 176.485 385.656 176.482Z" fill="black"/>
<path d="M444.073 241.274L421.587 315.56H325.562V298.842C325.562 296.096 326.653 293.462 328.595 291.521C330.537 289.579 333.17 288.488 335.917 288.488H360.877L373.06 187.655C373.432 184.575 374.919 181.739 377.24 179.68C379.561 177.622 382.555 176.485 385.656 176.482H453.266C454.463 176.482 455.644 176.762 456.715 177.299C457.785 177.837 458.714 178.617 459.429 179.578C460.143 180.539 460.623 181.654 460.83 182.834C461.037 184.013 460.965 185.225 460.62 186.372L445.417 236.667" stroke="white" stroke-linecap="round" stroke-linejoin="round"/>
<path d="M360.879 288.488H403.356C411.669 288.488 415.771 293.63 415.771 299.822" stroke="white" stroke-linecap="round" stroke-linejoin="round"/>
<path d="M396.598 291.317C396.598 291.317 400.214 293.64 400.214 299.832V315.561" stroke="white" stroke-linecap="round" stroke-linejoin="round"/>
<path d="M421.586 267.073C421.586 267.073 443.638 191.372 445.739 185.402C447.84 179.432 448.961 176.482 453.264 176.482" stroke="white" stroke-linecap="round" stroke-linejoin="round"/>
<path d="M428.163 376.998C427.222 374.79 425.706 372.876 423.772 371.455C421.839 370.033 419.56 369.157 417.172 368.917L388.605 366.028L383.16 354.552H363.968L358.523 366.028L329.956 368.917C327.568 369.157 325.289 370.033 323.356 371.455C321.422 372.876 319.906 374.79 318.965 376.998L317.602 380.21H429.547L428.163 376.998Z" fill="#02B9F6"/>
<path d="M428.163 376.998C427.222 374.79 425.706 372.876 423.772 371.455C421.839 370.033 419.56 369.157 417.172 368.917L388.605 366.028L383.16 354.552H363.968L358.523 366.028L329.956 368.917C327.568 369.157 325.289 370.033 323.356 371.455C321.422 372.876 319.906 374.79 318.965 376.998L317.602 380.21H429.547L428.163 376.998Z" stroke="black" stroke-linecap="round" stroke-linejoin="round"/>
<path d="M358.543 366.007L363.998 365.583" stroke="black" stroke-linecap="round" stroke-linejoin="round"/>
<path d="M373.577 367.846C372.031 367.846 370.535 368.391 369.351 369.385C368.167 370.379 367.37 371.758 367.102 373.28L365.031 384.948H382.123L380.052 373.28C379.784 371.758 378.988 370.379 377.804 369.385C376.619 368.391 375.123 367.846 373.577 367.846Z" fill="#02B9F6"/>
<path d="M380.052 373.28C379.784 371.758 378.988 370.379 377.804 369.385C376.619 368.391 375.123 367.846 373.577 367.846V367.846C372.031 367.846 370.535 368.391 369.351 369.385C368.167 370.379 367.37 371.758 367.102 373.28L365.031 384.948H382.123L380.608 376.392" stroke="black" stroke-linecap="round" stroke-linejoin="round"/>
<path d="M483.015 98.9939C483.8 97.9454 484.939 97.2172 486.221 96.9444C487.502 96.6716 488.839 96.8726 489.983 97.5102C491.128 98.1478 492.002 99.1787 492.445 100.412C492.887 101.645 492.867 102.997 492.389 104.216L539.553 149.34C540.328 148.884 541.198 148.612 542.095 148.547C542.992 148.482 543.892 148.624 544.726 148.964C545.559 149.303 546.302 149.83 546.898 150.503C547.495 151.177 547.928 151.978 548.163 152.846C548.399 153.714 548.432 154.625 548.259 155.508C548.085 156.39 547.711 157.221 547.164 157.935C546.617 158.65 545.913 159.228 545.107 159.626C544.3 160.024 543.412 160.23 542.513 160.229C541.151 160.232 539.832 159.757 538.785 158.886L489.288 193.059C489.025 193.244 488.711 193.343 488.389 193.342C488.048 193.342 487.717 193.234 487.442 193.032C487.168 192.831 486.965 192.547 486.863 192.222C486.762 191.897 486.767 191.548 486.878 191.226C486.989 190.904 487.2 190.626 487.48 190.433L536.977 156.269C536.72 155.514 536.62 154.714 536.682 153.919C536.745 153.123 536.969 152.349 537.341 151.643L486.894 103.368L485.661 102.449L483.904 101.146C483.364 100.739 482.778 100.4 482.156 100.135L483.015 98.9939Z" fill="white"/>
<path d="M483.015 98.9939C483.8 97.9454 484.939 97.2172 486.221 96.9444C487.502 96.6716 488.839 96.8726 489.983 97.5102C491.128 98.1478 492.002 99.1787 492.445 100.412C492.887 101.645 492.867 102.997 492.389 104.216L539.553 149.34C540.328 148.884 541.198 148.612 542.095 148.547C542.992 148.482 543.892 148.624 544.726 148.964C545.559 149.303 546.302 149.83 546.898 150.503C547.495 151.177 547.928 151.978 548.163 152.846C548.399 153.714 548.432 154.625 548.259 155.508C548.085 156.39 547.711 157.221 547.164 157.935C546.617 158.65 545.913 159.228 545.107 159.626C544.3 160.024 543.412 160.23 542.513 160.229C541.151 160.232 539.832 159.757 538.785 158.886L489.288 193.059C489.025 193.244 488.711 193.343 488.389 193.342C488.048 193.342 487.717 193.234 487.442 193.032C487.168 192.831 486.965 192.547 486.863 192.222C486.762 191.897 486.767 191.548 486.878 191.226C486.989 190.904 487.2 190.626 487.48 190.433L536.977 156.269C536.72 155.514 536.62 154.714 536.682 153.919C536.745 153.123 536.969 152.349 537.341 151.643L486.894 103.368L485.661 102.449L483.904 101.146C483.364 100.739 482.778 100.4 482.156 100.135L483.015 98.9939Z" stroke="black" stroke-linecap="round" stroke-linejoin="round"/>
<path d="M466.103 205.797H478.982V197.181C478.982 195.739 479.555 194.357 480.574 193.338C481.593 192.319 482.975 191.746 484.417 191.746H492.276C493.717 191.746 495.099 192.319 496.118 193.338C497.138 194.357 497.71 195.739 497.71 197.181V205.797H510.58L517.651 222.313H459.082L466.103 205.797Z" fill="#02B9F6"/>
<path d="M466.103 205.797H478.982V197.181C478.982 195.739 479.555 194.357 480.574 193.338C481.593 192.319 482.975 191.746 484.417 191.746H492.276C493.717 191.746 495.099 192.319 496.118 193.338C497.138 194.357 497.71 195.739 497.71 197.181V205.797H510.58L517.651 222.313H459.082L466.103 205.797Z" stroke="black" stroke-linecap="round" stroke-linejoin="round"/>
<path d="M478.984 205.797H485.864" stroke="black" stroke-linecap="round" stroke-linejoin="round"/>
<path d="M461.167 102.034C465.603 103.054 470.257 102.463 474.299 100.368C475.812 99.5993 477.51 99.2654 479.202 99.4027C480.894 99.54 482.515 100.143 483.885 101.145L485.643 102.448L487.663 103.923L489.421 105.236C490.776 106.258 491.821 107.635 492.442 109.215C493.062 110.795 493.233 112.515 492.936 114.186C492.097 118.668 492.882 123.302 495.148 127.258L489.239 142.531L469.743 128.056L467.722 126.581L448.227 112.105L461.167 102.034Z" fill="#02B9F6"/>
<path d="M451.147 109.873L461.198 102.034C465.634 103.054 470.289 102.463 474.33 100.368C475.844 99.5993 477.541 99.2654 479.233 99.4027C480.925 99.54 482.546 100.143 483.916 101.145L485.674 102.448L487.694 103.923L489.452 105.236C490.807 106.258 491.853 107.635 492.473 109.215C493.093 110.795 493.264 112.515 492.967 114.186C492.129 118.668 492.913 123.302 495.179 127.258L489.27 142.531L469.774 128.056L467.754 126.581L448.258 112.105" stroke="black" stroke-linecap="round" stroke-linejoin="round"/>
<path d="M506.451 237.051L529.684 402.575H524.744L496.48 237.051H506.451Z" fill="black"/>
<path d="M211.333 237.051L188.109 402.575H193.039L221.303 237.051H211.333Z" fill="black"/>
<path d="M541.925 222.313H175.715V228.001H541.925V222.313Z" fill="black"/>
<path d="M531.824 228H185.816V237.041H531.824V228Z" fill="black"/>
<path d="M189.859 237.051L163.484 424.96H169.091L201.173 237.051H189.859Z" fill="black"/>
<path d="M527.802 237.051L554.177 424.96H548.571L516.488 237.051H527.802Z" fill="black"/>
<path d="M519.178 327.753L529.683 402.575H524.744L497.207 241.274" stroke="white" stroke-linecap="round" stroke-linejoin="round"/>
<path d="M496.48 237.051H506.451L518.401 322.187" stroke="white" stroke-linecap="round" stroke-linejoin="round"/>
<path d="M210.626 242.132L188.109 402.575H193.039L221.303 237.051H211.333" stroke="white" stroke-linecap="round" stroke-linejoin="round"/>
<path d="M208.71 393.816C213.9 393.605 219.037 392.677 223.973 391.059C228.731 389.443 234.569 388.291 237.176 387.22C239.274 386.137 241.192 384.737 242.863 383.068C237.307 382.988 232.953 385.432 224.438 385.907C215.922 386.382 206.689 381.866 207.952 377.149C208.8 373.947 211.578 372.836 214.841 372.331C206.608 373.341 199.335 373.058 193.224 375.361C187.112 377.664 186.153 380.179 189.123 384.452C192.093 388.725 202.103 393.847 202.103 393.847C202.103 393.847 204.386 393.897 208.71 393.816Z" stroke="black" stroke-linecap="round" stroke-linejoin="round"/>
<path d="M235.982 402.645C226.618 403.656 219.254 402.948 211.961 400.726C204.668 398.504 202.061 393.817 202.061 393.817C198.801 393.15 195.589 392.27 192.445 391.18C186.445 389.16 184.364 387.806 181.828 389.16C181.143 389.458 180.569 389.963 180.186 390.604C179.804 391.246 179.633 391.992 179.697 392.736C179.697 392.736 189.879 404.272 202.061 408.575C209.904 411.269 218.005 413.141 226.234 414.161L224.143 418.939L240.437 425C240.437 425 242.457 422.091 245.66 417.313C248.862 412.535 247.054 409.232 249.791 404.524C249.811 404.454 245.367 401.645 235.982 402.645Z" stroke="black" stroke-linecap="round" stroke-linejoin="round"/>
<path d="M208.71 393.816C213.9 393.605 219.037 392.677 223.973 391.059C228.731 389.443 234.569 388.291 237.176 387.22C239.274 386.137 241.192 384.737 242.863 383.068C237.307 382.988 232.953 385.432 224.438 385.907C215.922 386.382 206.689 381.866 207.952 377.149C208.8 373.947 211.578 372.836 214.841 372.331C206.608 373.341 199.335 373.058 193.224 375.361C187.112 377.664 186.153 380.179 189.123 384.452C192.093 388.725 202.103 393.847 202.103 393.847C202.103 393.847 204.386 393.897 208.71 393.816Z" fill="black"/>
<path d="M235.982 402.645C226.618 403.656 219.254 402.948 211.961 400.726C204.668 398.504 202.061 393.817 202.061 393.817C198.801 393.15 195.589 392.27 192.445 391.18C186.445 389.16 184.364 387.806 181.828 389.16C181.143 389.458 180.569 389.963 180.186 390.604C179.804 391.246 179.633 391.992 179.697 392.736C179.697 392.736 189.879 404.272 202.061 408.575C209.904 411.269 218.005 413.141 226.234 414.161L224.143 418.939L240.437 425C240.437 425 242.457 422.091 245.66 417.313C248.862 412.535 247.054 409.232 249.791 404.524C249.811 404.454 245.367 401.645 235.982 402.645Z" fill="black"/>
<path d="M214.822 372.331C206.589 373.341 199.316 373.058 193.204 375.361C187.093 377.664 186.133 380.179 189.103 384.452C190.77 386.836 194.699 389.503 197.801 391.422" stroke="white" stroke-linecap="round" stroke-linejoin="round"/>
<path d="M226.255 414.131L224.164 418.909L240.458 424.97C240.458 424.97 242.478 422.061 245.68 417.283C248.882 412.505 247.074 409.201 249.812 404.494" stroke="white" stroke-linecap="round" stroke-linejoin="round"/>
<path d="M202.081 393.817C198.821 393.15 195.608 392.27 192.464 391.18C186.464 389.16 184.383 387.806 181.848 389.16C181.163 389.458 180.588 389.963 180.206 390.604C179.824 391.246 179.652 391.992 179.716 392.736C179.716 392.736 189.899 404.272 202.081 408.575C208.839 410.883 215.789 412.584 222.85 413.656" stroke="white" stroke-linecap="round" stroke-linejoin="round"/>
<path d="M374.251 129.693C373.093 129.962 371.973 130.376 370.918 130.925C368.261 132.107 368.635 134.067 368.635 134.067C366.139 134.926 363.688 135.911 361.291 137.016C356.776 139.037 355.988 144.795 351.917 151.462C347.846 158.129 338.138 169.422 335.542 172.412C334.766 173.412 334.196 174.557 333.866 175.78C333.537 177.003 333.454 178.279 333.623 179.534L327.188 182.635C327.188 182.635 326.279 179.13 324.592 173.483C322.905 167.836 319.602 150.664 318.764 147.108C317.925 143.552 319.006 141.926 320.087 138.673C321.168 135.42 321.653 133.249 320.632 131.38C319.545 129.124 318.637 126.787 317.915 124.39C317.571 123.067 317.554 121.68 317.865 120.349C317.895 120.191 317.892 120.029 317.857 119.872C317.822 119.715 317.755 119.567 317.66 119.437C317.566 119.308 317.445 119.199 317.307 119.117C317.168 119.036 317.014 118.984 316.855 118.965C316.616 118.936 316.374 118.981 316.162 119.095C315.951 119.209 315.78 119.386 315.673 119.601C315.012 120.877 314.595 122.264 314.44 123.693C314.258 126.167 316.309 127.43 316.067 130.865C315.824 134.299 313.481 133.572 312.39 132.43C311.299 131.289 310.885 129.481 309.198 126.47C308.521 125.161 308.031 123.764 307.743 122.319L321.37 112.52L322.431 109.813L319.521 109.934L307.208 118.743C307.137 117.884 307.107 117.116 307.107 116.531C307.136 113.648 306.735 110.778 305.915 108.015C304.904 105.146 303.723 103.883 302.884 104.126C302.046 104.368 302.228 105.338 302.228 105.338C301.308 105.338 301.015 105.772 301.157 106.631C301.506 109.095 301.482 111.598 301.086 114.056C300.729 116.585 300.587 119.139 300.662 121.692C300.662 121.692 299.803 120.258 299.52 116.339C299.275 113.859 298.788 111.41 298.066 109.025C297.961 108.702 297.738 108.431 297.443 108.264C297.147 108.098 296.8 108.048 296.469 108.126C296.139 108.203 295.85 108.402 295.659 108.683C295.468 108.963 295.39 109.306 295.439 109.641L295.591 110.55C295.833 112.301 295.954 114.066 295.954 115.834C295.58 115.102 295.141 114.405 294.641 113.753C294.476 113.537 294.239 113.39 293.973 113.338C293.707 113.286 293.431 113.333 293.197 113.47C292.986 113.593 292.823 113.784 292.733 114.011C292.643 114.238 292.632 114.488 292.702 114.722C292.863 115.308 293.126 116.197 293.449 117.409C294.189 120.738 294.705 124.113 294.995 127.511L287.227 133.067C286.915 133.325 286.713 133.691 286.662 134.092C286.61 134.494 286.712 134.899 286.948 135.228C287.185 135.556 287.536 135.783 287.933 135.862C288.33 135.941 288.742 135.866 289.085 135.653L295.257 131.238C295.429 133.461 295.682 134.986 296.571 136.198C297.702 137.744 301.52 143.936 303.904 147.138C306.288 150.34 307.723 152.714 308.339 157.351C308.955 161.987 308.935 178.423 308.935 178.423C304.743 182.695 298.702 191.817 300.217 194.211C301.733 196.605 310.662 209.808 313.248 213.04C315.834 216.273 316.592 218.344 320.461 218.344C324.33 218.344 331.997 211.323 337.805 205.909C343.613 200.494 342.977 198.504 348.038 193.11C353.099 187.716 361.554 178.423 361.554 178.423C361.554 178.423 360.412 181.766 362.372 186.877C364.332 191.989 365.402 195.969 365.402 195.969H365.473H366.726C366.514 194.357 366.196 192.761 365.776 191.191C363.847 184.231 369.898 173.412 371.958 164.927C374.019 156.442 374.756 139.017 374.251 129.693Z" fill="white"/>
<path d="M366.758 196.039H367.404C369.601 195.995 371.733 196.782 373.374 198.241C375.183 199.706 383.789 205.918 385.698 207.05C386.173 202.514 385.941 200.989 384.749 196.514C383.557 192.039 380.708 181.755 383.739 173.694C386.769 165.633 401.75 131.066 403.245 127.672C403.771 126.483 404.187 125.249 404.487 123.985L404.79 122.136C404.982 120.53 404.79 116.752 397.497 118.207C390.204 119.661 373.738 120.318 374.263 129.692C374.789 139.066 374.061 156.522 372.001 165.047C369.94 173.573 363.919 184.362 365.819 191.311C366.238 192.864 366.552 194.444 366.758 196.039Z" fill="black"/>
<path d="M366.758 196.039H367.404C369.601 195.995 371.733 196.782 373.374 198.241C375.183 199.706 383.789 205.918 385.698 207.05C386.173 202.514 385.941 200.989 384.749 196.514C383.557 192.039 380.708 181.755 383.739 173.694C386.769 165.633 401.75 131.066 403.245 127.672C403.771 126.483 404.187 125.249 404.487 123.985L404.79 122.136C404.982 120.53 404.79 116.752 397.497 118.207C390.204 119.661 373.738 120.318 374.263 129.692C374.789 139.066 374.061 156.522 372.001 165.047C369.94 173.573 363.919 184.362 365.819 191.311C366.238 192.864 366.552 194.444 366.758 196.039V196.039Z" stroke="black" stroke-linecap="round" stroke-linejoin="round"/>
<path d="M368.088 209.303C367.856 209.303 367.604 209.303 367.341 209.303C367.341 209.909 367.29 210.515 367.25 211.131C368.207 210.888 369.106 210.459 369.897 209.868C370.634 209.161 369.321 209.212 368.088 209.303Z" fill="black"/>
<path d="M368.088 209.303C367.856 209.303 367.604 209.303 367.341 209.303C367.341 209.909 367.29 210.515 367.25 211.131C368.207 210.888 369.106 210.459 369.897 209.868C370.634 209.161 369.321 209.212 368.088 209.303Z" stroke="black" stroke-linecap="round" stroke-linejoin="round"/>
<path d="M367.302 209.323C367.302 209.929 367.251 210.535 367.211 211.151" stroke="white" stroke-linecap="round" stroke-linejoin="round"/>
<path d="M387.179 220.253C382.967 220.253 381.502 219.152 378.391 217.142C375.28 215.131 373.745 214.273 370.502 214.353C368.724 214.353 367.845 214.252 366.997 214.353C366.754 217.024 366.356 219.679 365.805 222.303H388.422C388.067 221.65 387.753 220.976 387.483 220.283L387.179 220.253Z" fill="black"/>
<path d="M387.179 220.253C382.967 220.253 381.502 219.152 378.391 217.142C375.28 215.131 373.745 214.273 370.502 214.353C368.724 214.353 367.845 214.252 366.997 214.353C366.754 217.024 366.356 219.679 365.805 222.303H388.422C388.067 221.65 387.753 220.976 387.483 220.283L387.179 220.253Z" stroke="black" stroke-linecap="round" stroke-linejoin="round"/>
<path d="M366.997 214.363C366.754 217.034 366.356 219.689 365.805 222.313" stroke="white" stroke-linecap="round" stroke-linejoin="round"/>
<path d="M374.375 127.915C374.375 127.915 374.617 124.884 378.587 122.753" stroke="white" stroke-linecap="round" stroke-linejoin="round"/>
<path d="M368.555 86.0034C365.999 90.64 357.504 96.216 357.504 96.216C357.504 96.216 361.545 103.812 369.302 105.974L368.555 86.0034Z" fill="black"/>
<path d="M364.444 90.8218C362.258 92.7777 359.939 94.5801 357.504 96.216C357.504 96.216 361.545 103.812 369.302 105.974L368.555 86.0034" stroke="white" stroke-linecap="round" stroke-linejoin="round"/>
<path d="M368.552 86.0032C368.987 82.7202 370.037 78.3564 370.037 78.3564L368.017 78.2756C368.017 78.2756 368.078 77.8917 368.249 77.2654C369.529 72.2402 372.503 67.8101 376.669 64.7223C380.835 61.6345 385.939 60.0779 391.119 60.3151L399.019 60.6484C405.451 60.8878 411.621 63.2619 416.555 67.3963C417.546 68.2329 418.493 69.1196 419.393 70.053C422.297 73.1266 424.249 76.9747 425.015 81.133C425.78 85.2914 425.326 89.5825 423.707 93.4885C422.03 97.6387 421.736 102.219 422.868 106.55L424.373 112.247C421.25 114.65 417.704 116.446 413.918 117.54C413.164 115.751 412.595 113.89 412.221 111.984C411.818 114.028 411.595 116.104 411.555 118.187C408.078 119.129 404.473 119.508 400.877 119.308L401.15 121.571C401.15 121.571 386.856 128.884 379.008 127.51L377.715 114.762C377.715 114.762 370.229 113.873 367.714 112.247C367.714 112.247 365.31 110.408 365.552 104.812L366.068 92.6904C366.199 90.4681 368.128 89.2862 368.552 86.0032Z" fill="white"/>
<path d="M368.552 86.0032C368.987 82.7202 370.037 78.3564 370.037 78.3564L368.017 78.2756C368.017 78.2756 368.078 77.8917 368.249 77.2654C369.529 72.2402 372.503 67.8101 376.669 64.7223C380.835 61.6345 385.939 60.0779 391.119 60.3151L399.019 60.6484C405.451 60.8878 411.621 63.2619 416.555 67.3963C417.546 68.2329 418.493 69.1196 419.393 70.053C422.297 73.1266 424.249 76.9747 425.015 81.133C425.78 85.2914 425.326 89.5825 423.707 93.4885V93.4885C422.03 97.6387 421.736 102.219 422.868 106.55L424.373 112.247C421.25 114.65 417.704 116.446 413.918 117.54C413.164 115.751 412.595 113.89 412.221 111.984C411.818 114.028 411.595 116.104 411.555 118.187C408.078 119.129 404.473 119.508 400.877 119.308L401.15 121.571C401.15 121.571 387.25 128.884 379.008 127.51L377.715 114.762C377.715 114.762 370.25 114.53 367.714 112.247C367.714 112.247 365.31 110.408 365.552 104.812L366.068 92.6904C366.199 90.4681 368.128 89.2862 368.552 86.0032Z" stroke="black" stroke-linecap="round" stroke-linejoin="round"/>
<path d="M391.161 60.2648L399.061 60.5982C405.493 60.8375 411.663 63.2116 416.597 67.346C417.588 68.1827 418.535 69.0694 419.435 70.0027C422.339 73.0763 424.291 76.9244 425.056 81.0828C425.822 85.2412 425.368 89.5322 423.749 93.4382C422.072 97.5884 421.778 102.169 422.91 106.499L424.415 112.197C421.292 114.6 417.746 116.396 413.96 117.49C413.205 115.701 412.637 113.839 412.263 111.934C411.86 113.978 411.637 116.053 411.597 118.136C407.682 119.092 403.651 119.48 399.626 119.288C392.333 119.116 388.07 116.449 388.07 116.449C388.07 116.449 397.05 110.934 398.283 82.1043L395.879 87.155C392.473 87.2218 389.096 86.5318 385.989 85.1347C381.009 82.7912 375.696 78.6597 370.009 78.4172L367.988 78.3364C367.988 78.3364 368.049 77.9526 368.221 77.3263C369.481 72.268 372.456 67.8032 376.639 64.6922C380.822 61.5813 385.954 60.0167 391.161 60.2648Z" fill="black"/>
<path d="M391.161 60.2648L399.061 60.5982C405.493 60.8375 411.663 63.2116 416.597 67.346C417.588 68.1827 418.535 69.0694 419.435 70.0027C422.339 73.0763 424.291 76.9244 425.056 81.0828C425.822 85.2412 425.368 89.5322 423.749 93.4382C422.072 97.5884 421.778 102.169 422.91 106.499L424.415 112.197C421.292 114.6 417.746 116.395 413.96 117.49C413.205 115.701 412.637 113.839 412.263 111.934C411.86 113.978 411.637 116.053 411.597 118.136C407.682 119.092 403.651 119.48 399.626 119.288C392.333 119.116 388.07 116.449 388.07 116.449C388.07 116.449 397.05 110.934 398.283 82.1043L395.879 87.155C392.473 87.2218 389.096 86.5318 385.989 85.1347C381.009 82.7912 375.696 78.6597 370.009 78.4172L367.988 78.3364C367.988 78.3364 368.049 77.9526 368.221 77.3263C369.481 72.268 372.456 67.8032 376.639 64.6922C380.822 61.5813 385.954 60.0167 391.161 60.2648V60.2648Z" stroke="black" stroke-linecap="round" stroke-linejoin="round"/>
<path d="M400.332 105.914C400.964 102.911 401.433 99.8759 401.736 96.8223L403.423 96.893C403.903 96.9112 404.373 97.0384 404.797 97.265C405.221 97.4916 405.588 97.8116 405.871 98.2008C406.153 98.59 406.343 99.0382 406.426 99.5117C406.51 99.9851 406.485 100.471 406.353 100.934C405.625 103.358 403.999 106.065 400.332 105.914Z" fill="white"/>
<path d="M389.665 90.4578C387.029 88.8563 384.105 87.7856 381.059 87.3061L381.16 84.9424C381.16 84.9424 387.736 85.9525 389.665 90.4578Z" stroke="black" stroke-linecap="round" stroke-linejoin="round"/>
<path d="M397.049 95.1253L390.109 92.701L380.078 90.0443C380.078 90.0443 377.715 87.4785 376.331 89.8827C374.929 92.0467 373.408 94.1309 371.775 96.1254C371.505 96.4623 371.327 96.8641 371.26 97.2908C371.193 97.7175 371.239 98.1543 371.394 98.5577C371.548 98.9612 371.805 99.3172 372.139 99.5905C372.474 99.8638 372.874 100.045 373.3 100.115C373.674 100.166 374.078 100.206 374.522 100.227" stroke="black" stroke-linecap="round" stroke-linejoin="round"/>
<path d="M380.083 90.0439L379.153 94.822C378.981 95.7053 379.142 96.6211 379.604 97.3931C380.067 98.1651 380.798 98.7389 381.658 99.004L384.84 100.014C385.53 100.228 386.277 100.163 386.919 99.832C387.561 99.5015 388.048 98.9321 388.275 98.2464L390.113 92.731" stroke="black" stroke-linecap="round" stroke-linejoin="round"/>
<path d="M377.193 89.0034L367.172 86.1548L365.556 92.3773C365.49 92.6295 365.475 92.8923 365.512 93.1504C365.549 93.4084 365.638 93.6563 365.773 93.8796C365.907 94.1028 366.085 94.2967 366.296 94.4499C366.507 94.6031 366.747 94.7124 367.001 94.7714L371.94 95.923" stroke="black" stroke-linecap="round" stroke-linejoin="round"/>
<path d="M377.405 85.1751L377.314 87.256C376.005 87.1709 374.741 86.7461 373.647 86.0237C372.467 85.3163 371.132 84.9104 369.758 84.8418C369.758 84.8418 371.344 82.3871 377.405 85.1751Z" stroke="black" stroke-linecap="round" stroke-linejoin="round"/>
<path d="M389.665 90.4578C387.029 88.8563 384.105 87.7856 381.059 87.3061L381.16 84.9424C381.16 84.9424 387.736 85.9525 389.665 90.4578Z" fill="black"/>
<path d="M377.405 85.1751L377.314 87.256C376.005 87.1709 374.741 86.7461 373.647 86.0237C372.467 85.3163 371.132 84.9104 369.758 84.8418C369.758 84.8418 371.344 82.3871 377.405 85.1751Z" fill="black"/>
<path d="M385.139 93.9938C384.714 95.5898 383.452 96.6303 382.33 96.3272C381.209 96.0242 380.633 94.4888 381.058 92.9028L385.139 93.9938Z" stroke="black" stroke-linecap="round" stroke-linejoin="round"/>
<path d="M373.582 90.6499C373.208 92.0439 372.228 92.9935 371.4 92.7712C370.571 92.549 370.188 91.2358 370.561 89.8418L373.582 90.6499Z" stroke="black" stroke-linecap="round" stroke-linejoin="round"/>
<path d="M385.139 93.9938C384.714 95.5898 383.452 96.6303 382.33 96.3272C381.209 96.0242 380.633 94.4888 381.058 92.9028L385.139 93.9938Z" fill="black"/>
<path d="M373.582 90.6499C373.208 92.0439 372.228 92.9935 371.4 92.7712C370.571 92.549 370.188 91.2358 370.561 89.8418L373.582 90.6499Z" fill="black"/>
<path d="M375.086 114.479C377.718 114.732 380.361 114.846 383.006 114.823" stroke="black" stroke-linecap="round" stroke-linejoin="round"/>
<path d="M375.049 105.187C374.67 104.673 374.171 104.261 373.595 103.986C373.019 103.711 372.384 103.582 371.746 103.611" stroke="black" stroke-linecap="round" stroke-linejoin="round"/>
<path d="M370.036 78.3564L368.016 78.2756C368.016 78.2756 368.076 77.8917 368.248 77.2654C369.528 72.2402 372.502 67.8101 376.668 64.7223C380.834 61.6345 385.938 60.0779 391.118 60.3151L399.017 60.6484C405.45 60.8878 411.62 63.2619 416.553 67.3963C417.544 68.2329 418.492 69.1196 419.392 70.053C422.296 73.1266 424.248 76.9747 425.013 81.133C425.778 85.2914 425.324 89.5825 423.705 93.4885C422.028 97.6387 421.734 102.219 422.867 106.55L424.372 112.247C421.249 114.65 417.703 116.446 413.917 117.54C413.162 115.751 412.593 113.89 412.22 111.984C411.816 114.028 411.593 116.104 411.553 118.187C409.111 118.786 406.619 119.162 404.108 119.308C404.416 119.706 404.632 120.166 404.742 120.656C404.852 121.147 404.853 121.656 404.745 122.146" stroke="white" stroke-linecap="round" stroke-linejoin="round"/>
<path d="M405.688 220.253H387.202C382.99 220.253 381.525 219.151 378.414 217.141C375.303 215.131 373.767 214.272 370.525 214.353C367.282 214.434 367.05 213.889 364.464 215.434C362.623 216.473 360.705 217.368 358.726 218.111C358.534 218.185 358.322 218.191 358.126 218.128C357.929 218.066 357.76 217.939 357.645 217.768C357.574 217.668 357.523 217.554 357.496 217.434C357.469 217.314 357.467 217.19 357.49 217.069C357.513 216.948 357.56 216.833 357.628 216.731C357.696 216.629 357.785 216.542 357.888 216.475C358.969 215.767 360.918 214.454 361.858 213.707C362.934 212.77 364.203 212.08 365.575 211.686C367.04 211.242 369.151 210.676 369.878 209.919C370.606 209.161 369.343 209.242 368.07 209.333C366.797 209.424 365.09 209.04 363.282 209.919C361.474 210.798 356.312 213.838 352.756 214.838C352.503 214.91 352.232 214.886 351.995 214.77C351.759 214.654 351.573 214.456 351.473 214.212C351.371 213.975 351.356 213.71 351.432 213.464C351.508 213.217 351.67 213.006 351.888 212.868C352.423 212.535 353.191 212.03 354.029 211.394C353.288 211.607 352.536 211.783 351.776 211.919C351.582 211.95 351.383 211.923 351.204 211.842C351.024 211.762 350.872 211.63 350.766 211.464C350.686 211.346 350.632 211.212 350.607 211.071C350.583 210.931 350.588 210.786 350.624 210.648C350.659 210.509 350.723 210.38 350.812 210.268C350.901 210.157 351.013 210.065 351.14 210C352.111 209.494 352.998 208.84 353.766 208.06C355.433 206.353 356.514 205.232 357.534 204.201C358.437 203.195 359.607 202.467 360.908 202.1C362.868 201.363 365.706 200.383 365.706 200.383C365.706 200.383 364.282 199.948 362.969 199.605C361.656 199.262 359.888 198.433 358.272 199.605C356.547 200.882 354.695 201.979 352.746 202.878C352.189 203.083 351.618 203.252 351.039 203.383C350.792 203.428 350.538 203.379 350.325 203.246C350.112 203.114 349.956 202.907 349.888 202.666C349.857 202.471 349.883 202.272 349.964 202.093C350.045 201.913 350.176 201.761 350.342 201.656C351.491 201.017 352.604 200.316 353.676 199.555C354.554 198.908 355.696 197.888 356.706 197.059C357.653 196.215 358.893 195.776 360.161 195.837C362.353 195.948 365.777 196.1 367.454 196.13C369.65 196.087 371.782 196.873 373.424 198.332C375.232 199.797 383.839 206.009 385.748 207.141C387.657 208.272 388.435 208.201 391.223 208.04C394.011 207.878 395.829 207.676 398.122 207.525C400.415 207.373 402.89 212.666 405.688 220.253Z" fill="white"/>
<path d="M405.688 220.253H387.202C382.99 220.253 381.525 219.151 378.414 217.141C375.303 215.131 373.767 214.272 370.525 214.353C367.282 214.434 367.05 213.889 364.464 215.434C362.623 216.473 360.705 217.368 358.726 218.111C358.534 218.185 358.322 218.191 358.126 218.128C357.929 218.066 357.76 217.939 357.645 217.768V217.768C357.574 217.668 357.523 217.554 357.496 217.434C357.469 217.314 357.467 217.19 357.49 217.069C357.513 216.948 357.56 216.833 357.628 216.731C357.696 216.629 357.785 216.542 357.888 216.475C358.969 215.767 360.918 214.454 361.858 213.707C362.934 212.77 364.203 212.08 365.575 211.686C367.04 211.242 369.151 210.676 369.878 209.919C370.606 209.161 369.343 209.242 368.07 209.333C366.797 209.424 365.09 209.04 363.282 209.919C361.474 210.798 356.312 213.838 352.756 214.838C352.503 214.91 352.232 214.886 351.995 214.77C351.759 214.654 351.573 214.456 351.473 214.212V214.212C351.371 213.975 351.356 213.71 351.432 213.464C351.508 213.217 351.67 213.006 351.888 212.868C352.423 212.535 353.191 212.03 354.029 211.394C353.288 211.607 352.536 211.783 351.776 211.919C351.582 211.95 351.383 211.923 351.204 211.842C351.024 211.762 350.872 211.63 350.766 211.464V211.464C350.686 211.346 350.632 211.212 350.607 211.071C350.583 210.931 350.588 210.786 350.624 210.648C350.659 210.509 350.723 210.38 350.812 210.268C350.901 210.157 351.013 210.065 351.14 210C352.111 209.494 352.998 208.84 353.766 208.06C355.433 206.353 356.514 205.232 357.534 204.201C358.437 203.195 359.607 202.467 360.908 202.1C362.868 201.363 365.706 200.383 365.706 200.383C365.706 200.383 364.282 199.948 362.969 199.605C361.656 199.262 359.888 198.433 358.272 199.605C356.547 200.882 354.695 201.979 352.746 202.878C352.189 203.083 351.618 203.252 351.039 203.383C350.792 203.428 350.538 203.379 350.325 203.246C350.112 203.114 349.956 202.907 349.888 202.666C349.857 202.471 349.883 202.272 349.964 202.093C350.045 201.913 350.176 201.761 350.342 201.656C351.491 201.017 352.604 200.316 353.676 199.555C354.554 198.908 355.696 197.888 356.706 197.059C357.653 196.215 358.893 195.776 360.161 195.837C362.353 195.948 365.777 196.1 367.454 196.13C369.65 196.087 371.782 196.873 373.424 198.332C375.232 199.797 383.839 206.009 385.748 207.141C387.657 208.272 388.435 208.201 391.223 208.04C394.011 207.878 395.829 207.676 398.122 207.525C400.415 207.373 402.89 212.666 405.688 220.253Z" stroke="black" stroke-linecap="round" stroke-linejoin="round"/>
<path d="M354.047 211.363C356.072 209.891 358.02 208.316 359.886 206.646C360.896 205.787 362.158 205.424 364.936 204.868C367.714 204.312 369.048 203.949 369.048 203.949" stroke="black" stroke-linecap="round" stroke-linejoin="round"/>
<path d="M437.184 129.42C436.942 125.47 430.941 122.672 427.487 120.945C424.032 119.217 422.385 120.126 419.092 121.955C415.799 123.783 412.759 125.147 412.759 125.147C411.22 124.752 409.788 124.021 408.566 123.005C408.06 122.552 407.449 122.231 406.787 122.072C406.126 121.914 405.436 121.922 404.778 122.096C404.591 124.018 404.068 125.891 403.233 127.632C401.738 131.066 386.676 165.654 383.697 173.705C380.717 181.756 383.545 192.049 384.707 196.524C385.868 200.999 386.131 202.524 385.656 207.06C387.565 208.181 388.343 208.121 391.131 207.959C393.919 207.797 395.727 207.595 398.031 207.444C400.334 207.292 402.849 212.666 405.627 220.252H387.505C387.775 220.945 388.089 221.62 388.444 222.273H424.163C429.376 222.273 429.79 201.666 430.891 191.645C431.992 181.624 435.144 179.149 435.699 168.412C436.255 157.674 437.437 133.369 437.184 129.42Z" fill="white"/>
<path d="M437.184 129.42C436.942 125.47 430.941 122.672 427.487 120.945C424.032 119.217 422.385 120.126 419.092 121.955C415.799 123.783 412.759 125.147 412.759 125.147C411.22 124.752 409.788 124.021 408.566 123.005C408.06 122.552 407.449 122.231 406.787 122.072C406.126 121.914 405.436 121.922 404.778 122.096C404.591 124.018 404.068 125.891 403.233 127.632C401.738 131.066 386.676 165.654 383.697 173.705C380.717 181.756 383.545 192.049 384.707 196.524C385.868 200.999 386.131 202.524 385.656 207.06C387.565 208.181 388.343 208.121 391.131 207.959C393.919 207.797 395.727 207.595 398.031 207.444C400.334 207.292 402.849 212.666 405.627 220.252H387.505C387.775 220.945 388.089 221.62 388.444 222.273H424.163C429.376 222.273 429.79 201.666 430.891 191.645C431.992 181.624 435.144 179.149 435.699 168.412C436.255 157.674 437.437 133.369 437.184 129.42Z" stroke="black" stroke-linecap="round" stroke-linejoin="round"/>
<path d="M398.066 207.474C404.834 206.889 413.491 203.323 413.491 203.323" stroke="black" stroke-linecap="round" stroke-linejoin="round"/>
<path d="M419.011 194.211C419.011 194.211 413.496 198.373 409.798 200.918C406.101 203.464 405.758 205.909 405.758 205.909" stroke="black" stroke-linecap="round" stroke-linejoin="round"/>
<path d="M412.049 179.493C412.049 179.493 410.695 181.564 409.16 183.685C407.624 185.806 407.21 187.251 407.301 192.089C407.392 196.928 407.301 200.059 407.301 200.059" stroke="black" stroke-linecap="round" stroke-linejoin="round"/>
<path d="M413.246 138.844C416.691 129.45 418.357 125.904 418.357 125.904" stroke="black" stroke-linecap="round" stroke-linejoin="round"/>
<path d="M410.738 187.514C411.919 182.867 412.372 178.066 412.082 173.281C411.668 166.341 410.253 152.371 412.213 142.693" stroke="black" stroke-linecap="round" stroke-linejoin="round"/>
<path d="M409.801 191.12C409.801 191.12 416.872 186.322 421.589 171.715" stroke="black" stroke-linecap="round" stroke-linejoin="round"/>
<path d="M405.668 220.252L406.557 222.313" stroke="black" stroke-linecap="round" stroke-linejoin="round"/>
<path d="M391.797 172.371C391.797 172.371 399.878 152.471 404.828 143.895C407.818 138.705 410.35 133.263 412.394 127.632" stroke="black" stroke-linecap="round" stroke-linejoin="round"/>
<path d="M378.574 140.935C378.574 140.935 381.736 141.834 386.958 140.036C392.181 138.238 396.737 137.006 396.737 137.006" stroke="white" stroke-linecap="round" stroke-linejoin="round"/>
<path d="M374.251 129.693C373.093 129.962 371.973 130.376 370.918 130.925C368.261 132.107 368.635 134.067 368.635 134.067C366.139 134.926 363.688 135.911 361.291 137.016C356.776 139.037 355.988 144.795 351.917 151.462C347.846 158.129 338.138 169.422 335.542 172.412C334.766 173.412 334.196 174.557 333.866 175.78C333.537 177.003 333.454 178.279 333.623 179.534L327.188 182.635C327.188 182.635 326.279 179.13 324.592 173.483C322.905 167.836 319.602 150.664 318.764 147.108C317.925 143.552 319.006 141.926 320.087 138.673C321.168 135.42 321.653 133.249 320.632 131.38C319.545 129.124 318.637 126.787 317.915 124.39C317.571 123.067 317.554 121.68 317.865 120.349C317.895 120.191 317.892 120.029 317.857 119.872C317.822 119.715 317.755 119.567 317.66 119.437C317.566 119.308 317.445 119.199 317.307 119.117C317.168 119.036 317.014 118.984 316.855 118.965C316.616 118.936 316.374 118.981 316.162 119.095C315.951 119.209 315.78 119.386 315.673 119.601C315.012 120.877 314.595 122.264 314.44 123.693C314.258 126.167 316.309 127.43 316.067 130.865C315.824 134.299 313.481 133.572 312.39 132.43C311.299 131.289 310.885 129.481 309.198 126.47C308.521 125.161 308.031 123.764 307.743 122.319L321.37 112.52L322.431 109.813L319.521 109.934L307.208 118.743C307.137 117.884 307.107 117.116 307.107 116.531C307.136 113.648 306.735 110.778 305.915 108.015C304.904 105.146 303.723 103.883 302.884 104.126C302.046 104.368 302.228 105.338 302.228 105.338C301.308 105.338 301.015 105.772 301.157 106.631C301.506 109.095 301.482 111.598 301.086 114.056C300.729 116.585 300.587 119.139 300.662 121.692C300.662 121.692 299.803 120.258 299.52 116.339C299.275 113.859 298.788 111.41 298.066 109.025C297.961 108.702 297.738 108.431 297.443 108.264C297.147 108.098 296.8 108.048 296.469 108.126C296.139 108.203 295.85 108.402 295.659 108.683C295.468 108.963 295.39 109.306 295.439 109.641L295.591 110.55C295.833 112.301 295.954 114.066 295.954 115.834C295.58 115.102 295.141 114.405 294.641 113.753C294.476 113.537 294.239 113.39 293.973 113.338C293.707 113.286 293.431 113.333 293.197 113.47C292.986 113.593 292.823 113.784 292.733 114.011C292.643 114.238 292.632 114.488 292.702 114.722C292.863 115.308 293.126 116.197 293.449 117.409C294.189 120.738 294.705 124.113 294.995 127.511L287.227 133.067C286.915 133.325 286.713 133.691 286.662 134.092C286.61 134.494 286.712 134.899 286.948 135.228C287.185 135.556 287.536 135.783 287.933 135.862C288.33 135.941 288.742 135.866 289.085 135.653L295.257 131.238C295.429 133.461 295.682 134.986 296.571 136.198C297.702 137.744 301.52 143.936 303.904 147.138C306.288 150.34 307.723 152.714 308.339 157.351C308.955 161.987 308.935 178.423 308.935 178.423C304.743 182.695 298.702 191.817 300.217 194.211C301.733 196.605 310.662 209.808 313.248 213.04C315.834 216.273 316.592 218.344 320.461 218.344C324.33 218.344 331.997 211.323 337.805 205.909C343.613 200.494 342.977 198.504 348.038 193.11C353.099 187.716 361.554 178.423 361.554 178.423C361.554 178.423 360.412 181.766 362.372 186.877C364.332 191.989 365.402 195.969 365.402 195.969H365.473H366.726C366.514 194.357 366.196 192.761 365.776 191.191C363.847 184.231 369.898 173.412 371.958 164.927C374.019 156.442 374.756 139.017 374.251 129.693Z" stroke="black" stroke-linecap="round" stroke-linejoin="round"/>
<path d="M300.633 121.722C300.825 123.845 301.213 125.945 301.794 127.995" stroke="black" stroke-linecap="round" stroke-linejoin="round"/>
<path d="M305.199 125.995C304.266 123.385 303.89 120.608 304.098 117.844C304.593 113.985 304.855 109.762 304.098 108.146C303.34 106.53 303.178 105.489 302.219 105.368" stroke="black" stroke-linecap="round" stroke-linejoin="round"/>
<path d="M295.945 115.864C297.107 117.702 297.592 120.783 298.087 123.804C298.582 126.824 298.925 129.864 298.925 129.864" stroke="black" stroke-linecap="round" stroke-linejoin="round"/>
<path d="M298.297 125.147L300.812 123.349" stroke="black" stroke-linecap="round" stroke-linejoin="round"/>
<path d="M298.922 128.602L301.498 126.763" stroke="black" stroke-linecap="round" stroke-linejoin="round"/>
<path d="M304.723 124.46L307.723 122.309" stroke="black" stroke-linecap="round" stroke-linejoin="round"/>
<path d="M304.078 121.005L307.21 118.773" stroke="black" stroke-linecap="round" stroke-linejoin="round"/>
<path d="M313.463 135.036C311.43 137.242 310.28 140.118 310.23 143.117" stroke="black" stroke-linecap="round" stroke-linejoin="round"/>
<path d="M294.984 127.511C295.176 128.996 295.247 131.238 295.247 131.238" stroke="black" stroke-linecap="round" stroke-linejoin="round"/>
<path d="M309.721 127.511C310.499 129.117 307.993 131.673 306.195 132.875" stroke="black" stroke-linecap="round" stroke-linejoin="round"/>
<path d="M308.922 178.422C308.922 182.533 309.296 186.261 309.296 186.261" stroke="black" stroke-linecap="round" stroke-linejoin="round"/>
<path d="M300.207 194.211C301.146 195.645 318.885 183.958 323.441 176.482" stroke="black" stroke-linecap="round" stroke-linejoin="round"/>
<path d="M327.188 182.594C328.491 187.079 330.481 198.454 330.481 198.454" stroke="black" stroke-linecap="round" stroke-linejoin="round"/>
<path d="M330.484 188.483C332.408 190.137 334.026 192.117 335.262 194.332" stroke="black" stroke-linecap="round" stroke-linejoin="round"/>
<path d="M333.625 179.493C336.295 178.188 339.041 177.044 341.848 176.069" stroke="black" stroke-linecap="round" stroke-linejoin="round"/>
<path d="M361.547 178.422C362.315 171.957 366.335 163.27 365.587 153.785" stroke="black" stroke-linecap="round" stroke-linejoin="round"/>
<path d="M360.879 150.906C361.182 153.971 362.11 156.941 363.606 159.633" stroke="black" stroke-linecap="round" stroke-linejoin="round"/>
<path d="M368.059 147.926C368.059 147.926 368.503 139.613 368.634 134.026" stroke="black" stroke-linecap="round" stroke-linejoin="round"/>
<path d="M394.422 237.051H414.524C413.454 241.763 413.454 246.654 414.524 251.365C416.332 258.891 419.837 274.467 415.948 278.356C412.059 282.245 406.554 281.215 406.554 281.215C408.951 276.794 410.632 272.021 411.534 267.073C411.534 267.073 406.21 260.063 402.059 254.476C397.907 248.89 394.422 237.051 394.422 237.051Z" fill="white"/>
<path d="M394.422 237.051H414.524C413.454 241.763 413.454 246.654 414.524 251.365C416.332 258.891 419.837 274.467 415.948 278.356C412.059 282.245 406.554 281.215 406.554 281.215C408.951 276.794 410.632 272.021 411.534 267.073C411.534 267.073 406.21 260.063 402.059 254.476C397.907 248.89 394.422 237.051 394.422 237.051Z" stroke="black" stroke-linecap="round" stroke-linejoin="round"/>
<path d="M411.535 267.073C415.04 271.478 416.313 273.75 415.576 276.538" stroke="black" stroke-linecap="round" stroke-linejoin="round"/>
<path d="M394.421 237.051H370.43C370.43 237.051 379.329 238.364 385.996 242.819C392.663 247.274 398.118 247.224 398.118 247.224C396.703 243.902 395.468 240.506 394.421 237.051Z" stroke="black" stroke-linecap="round" stroke-linejoin="round"/>
<path d="M394.421 237.051H370.43C370.43 237.051 379.329 238.364 385.996 242.819C392.663 247.274 398.118 247.224 398.118 247.224C396.703 243.902 395.468 240.506 394.421 237.051Z" fill="black"/>
<path d="M411.539 267.073C411.539 267.073 406.215 260.063 402.063 254.476C400.476 252.179 399.141 249.717 398.083 247.133C398.087 247.163 398.087 247.193 398.083 247.223C398.083 247.223 392.629 247.223 385.962 242.819C379.295 238.415 370.395 237.051 370.395 237.051H361.506C361.506 237.051 359.93 239.647 359.334 240.708C358.738 241.769 357.687 242.122 353.324 245.304C348.96 248.486 328.07 260.992 315.352 271.013C302.634 281.033 300.018 283.508 297.897 284.811C295.775 286.114 294.866 287.165 293.856 290.337C292.846 293.509 293.654 294.377 292.644 297.761C291.634 301.145 290.017 305.923 290.017 305.923C282.679 312.5 275.816 319.589 269.481 327.137C257.581 340.986 245.369 356.077 242.843 358.977C240.318 361.876 240.136 364.027 239.813 367.199C239.49 370.371 238.974 374.028 241.308 374.119C243.641 374.21 252.803 374.119 252.803 374.119L250.561 375.987L256.167 380.937C258.602 383.089 259.905 383.655 263.46 384.028C267.016 384.402 269.814 385.038 271.128 382.907C272.441 380.776 278.037 369.351 285.138 360.845C292.24 352.34 305.422 335.187 309.675 328.086C312.125 324.065 314.296 319.88 316.17 315.56C317.961 313.193 320.038 311.055 322.352 309.196C326.312 305.964 331.201 304.034 337.505 302.186C343.808 300.337 353.93 298.145 363.516 295.266C373.102 292.387 378.092 289.367 387.507 289.367C396.922 289.367 402.255 289.367 406.589 281.235C406.639 281.154 406.68 281.074 406.72 280.993C409.051 276.636 410.677 271.938 411.539 267.073Z" fill="#02B9F6"/>
<path d="M396.322 242.707L396.262 242.526L396.322 242.707Z" fill="#02B9F6"/>
<path d="M397.756 246.365C397.756 246.274 397.685 246.193 397.645 246.102C397.685 246.193 397.725 246.274 397.756 246.365Z" fill="#02B9F6"/>
<path d="M396.596 243.546L396.535 243.365L396.596 243.546Z" fill="#02B9F6"/>
<path d="M397.39 245.475L397.289 245.224L397.39 245.475Z" fill="#02B9F6"/>
<path d="M395.703 240.991V240.931V240.991Z" stroke="black" stroke-linecap="round" stroke-linejoin="round"/>
<path d="M395.465 240.273V240.183V240.273Z" stroke="black" stroke-linecap="round" stroke-linejoin="round"/>
<path d="M411.539 267.073C411.539 267.073 406.215 260.063 402.063 254.476C400.476 252.179 399.141 249.717 398.083 247.133C398.087 247.163 398.087 247.193 398.083 247.223C398.083 247.223 392.629 247.223 385.962 242.819C379.295 238.415 370.395 237.051 370.395 237.051H361.506C361.506 237.051 359.93 239.647 359.334 240.708C358.738 241.769 357.687 242.122 353.324 245.304C348.96 248.486 328.07 260.992 315.352 271.013C302.634 281.033 300.018 283.508 297.897 284.811C295.775 286.114 294.866 287.165 293.856 290.337C292.846 293.509 293.654 294.377 292.644 297.761C291.634 301.145 290.017 305.923 290.017 305.923C282.679 312.5 275.816 319.589 269.481 327.137C257.581 340.986 245.369 356.077 242.843 358.977C240.318 361.876 240.136 364.027 239.813 367.199C239.49 370.371 238.974 374.028 241.308 374.119C243.641 374.21 252.803 374.119 252.803 374.119L250.561 375.987L256.167 380.937C258.602 383.089 259.905 383.655 263.46 384.028C267.016 384.402 269.814 385.038 271.128 382.907C272.441 380.776 278.037 369.351 285.138 360.845C292.24 352.34 305.422 335.187 309.675 328.086C312.125 324.065 314.296 319.88 316.17 315.56C317.961 313.193 320.038 311.055 322.352 309.196C326.312 305.964 331.201 304.034 337.505 302.186C343.808 300.337 353.93 298.145 363.516 295.266C373.102 292.387 378.092 289.367 387.507 289.367C396.922 289.367 402.255 289.367 406.589 281.235C406.639 281.154 406.68 281.074 406.72 280.993C409.051 276.636 410.677 271.938 411.539 267.073V267.073Z" stroke="black" stroke-linecap="round" stroke-linejoin="round"/>
<path d="M396.322 242.707L396.262 242.526L396.322 242.707Z" stroke="black" stroke-linecap="round" stroke-linejoin="round"/>
<path d="M397.756 246.365C397.756 246.274 397.685 246.193 397.645 246.102C397.685 246.193 397.725 246.274 397.756 246.365Z" stroke="black" stroke-linecap="round" stroke-linejoin="round"/>
<path d="M396.596 243.546L396.535 243.365L396.596 243.546Z" stroke="black" stroke-linecap="round" stroke-linejoin="round"/>
<path d="M397.39 245.475L397.289 245.224L397.39 245.475Z" stroke="black" stroke-linecap="round" stroke-linejoin="round"/>
<path d="M341.57 269.447C355.904 262.487 374.138 253.285 389.3 249.82" stroke="black" stroke-linecap="round" stroke-linejoin="round"/>
<path d="M290.016 305.924C296.996 299.509 300.875 295.256 302.632 291.994C304.39 288.731 307.148 284.852 311.532 282.973C315.572 281.236 325.492 277.124 338.24 271.053" stroke="black" stroke-linecap="round" stroke-linejoin="round"/>
<path d="M364.273 246.102C364.273 246.102 371.344 249.789 374.375 254.517" stroke="black" stroke-linecap="round" stroke-linejoin="round"/>
<path d="M316.166 315.561C310.287 322.864 297.771 338.501 285.114 349.29C277.124 356.009 269.608 363.273 262.618 371.028C260.396 373.513 259.153 373.695 257.295 373.866C255.436 374.038 252.84 374.139 252.84 374.139" stroke="black" stroke-linecap="round" stroke-linejoin="round"/>
<path d="M284.004 322.308C285.448 320.49 286.741 318.803 287.812 317.257" stroke="black" stroke-linecap="round" stroke-linejoin="round"/>
<path d="M245.676 364.745C245.676 364.745 268.909 340.784 282.173 324.571" stroke="black" stroke-linecap="round" stroke-linejoin="round"/>
<path d="M263.495 384.028C259.939 383.655 258.636 383.089 256.201 380.937L250.595 375.988L252.838 374.119C252.838 374.119 243.686 374.21 241.342 374.119C238.998 374.028 239.564 370.381 239.847 367.199C240.13 364.017 240.312 361.876 242.877 358.977C239.463 362.916 235.574 362.401 232.261 366.341C228.947 370.28 224.765 371.472 219.715 371.866C214.664 372.26 209.229 372.412 207.967 377.149C206.704 381.887 215.937 386.382 224.452 385.907C232.968 385.432 237.322 382.988 242.877 383.069C241.207 384.737 239.289 386.138 237.19 387.22C234.584 388.291 228.745 389.443 223.988 391.059C219.045 392.679 213.901 393.607 208.704 393.817C204.401 393.897 202.098 393.817 202.098 393.817C202.098 393.817 204.714 398.504 211.997 400.726C219.28 402.948 226.654 403.645 236.019 402.645C245.383 401.645 249.807 404.454 249.807 404.454C249.807 404.454 255.161 394.524 260.02 389.301L264.879 384.119L263.495 384.028Z" fill="white"/>
<path d="M263.495 384.028C259.939 383.655 258.636 383.089 256.201 380.937L250.595 375.988L252.838 374.119C252.838 374.119 243.686 374.21 241.342 374.119C238.998 374.028 239.564 370.381 239.847 367.199C240.13 364.017 240.312 361.876 242.877 358.977C239.463 362.916 235.574 362.401 232.261 366.341C228.947 370.28 224.765 371.472 219.715 371.866C214.664 372.26 209.229 372.412 207.967 377.149C206.704 381.887 215.937 386.382 224.452 385.907C232.968 385.432 237.322 382.988 242.877 383.069C241.207 384.737 239.289 386.138 237.19 387.22C234.584 388.291 228.745 389.443 223.988 391.059C219.045 392.679 213.901 393.607 208.704 393.817C204.401 393.897 202.098 393.817 202.098 393.817C202.098 393.817 204.714 398.504 211.997 400.726C219.28 402.948 226.654 403.645 236.019 402.645C245.383 401.645 249.807 404.454 249.807 404.454C249.807 404.454 255.161 394.524 260.02 389.301L264.879 384.119L263.495 384.028Z" stroke="black" stroke-linecap="round" stroke-linejoin="round"/>
<path d="M242.84 383.069C245.29 380.567 247.88 378.206 250.598 375.998" stroke="black" stroke-linecap="round" stroke-linejoin="round"/>
<path d="M218.656 222.313H541.915V228.001H175.715V222.313H212.676" stroke="white" stroke-linecap="round" stroke-linejoin="round"/>
<path d="M234.011 237.051H185.816V228H531.813" stroke="white" stroke-linecap="round" stroke-linejoin="round"/>
<path d="M434.731 237.051H239.59" stroke="white" stroke-linecap="round" stroke-linejoin="round"/>
<path d="M531.815 231.192V237.051H439.699" stroke="white" stroke-linecap="round" stroke-linejoin="round"/>
<path d="M177.766 374.119L201.171 237.051H189.857L188.059 249.82" stroke="white" stroke-linecap="round" stroke-linejoin="round"/>
<path d="M187.486 253.931L163.484 424.959H169.091L176.849 379.523" stroke="white" stroke-linecap="round" stroke-linejoin="round"/>
<path d="M547.874 420.858L516.488 237.051H527.802" stroke="white" stroke-linecap="round" stroke-linejoin="round"/>
<path d="M528.402 241.274L554.181 424.96H548.575" stroke="white" stroke-linecap="round" stroke-linejoin="round"/>
<path d="M1 380.24H80.5999" stroke="white" stroke-linecap="round" stroke-linejoin="round"/>
<path d="M89.4609 380.24H100.926" stroke="white" stroke-linecap="round" stroke-linejoin="round"/>
<path d="M111.34 380.24H160.332" stroke="white" stroke-linecap="round" stroke-linejoin="round"/>
<path d="M284.004 380.24H311.056" stroke="white" stroke-linecap="round" stroke-linejoin="round"/>
<path d="M449.176 380.24H463.49" stroke="white" stroke-linecap="round" stroke-linejoin="round"/>
<path d="M473.258 380.24H516.492" stroke="white" stroke-linecap="round" stroke-linejoin="round"/>
</svg>
