<svg width="1440" height="230" viewBox="0 0 1440 230" fill="none" xmlns="http://www.w3.org/2000/svg">
<path d="M1.75666e-05 28.6373L60 47.6996C120 67.1198 240 104.707 360 119.295C480 133.346 600 124.396 720 143.19C840 161.984 960 210.311 1080 224.361C1200 238.949 1320 219.26 1380 210.042L1440 200.466L1440 -0.000686637L1380 -0.000691883C1320 -0.000697128 1200 -0.000707619 1080 -0.00071811C960 -0.0007286 840 -0.000739091 720 -0.000749582C600 -0.000760073 480 -0.000770563 360 -0.000781054C240 -0.000791545 120 -0.000802036 60 -0.000807281L2.00703e-05 -0.000812526L1.75666e-05 28.6373Z" fill="white"/>
</svg>
