<svg width="324" height="238" viewBox="0 0 324 238" fill="none" xmlns="http://www.w3.org/2000/svg">
<path d="M114 39.125H189C200.598 39.125 210 48.527 210 60.125C210 71.723 200.598 81.125 189 81.125H144C127.431 81.125 114 67.6935 114 51.125V39.125Z" fill="#1EE7CA"/>
<path d="M142.14 64.125H144.72L148.04 58.385H148.18V64.125H151V53.965H148.4L145.12 59.685H144.96V53.965H142.14V64.125ZM155.873 61.645C156.733 60.445 156.973 57.785 156.993 56.465H159.093V61.645H155.873ZM155.013 64.125H160.773L160.973 66.765H163.493V61.645H161.933V53.965H154.713C154.653 57.605 154.333 60.425 153.133 61.645H152.273V66.765H154.813L155.013 64.125ZM169.498 64.325C170.878 64.325 172.098 64.025 172.798 63.565V61.145C171.958 61.685 170.858 61.885 169.738 61.885C168.178 61.885 167.398 61.085 167.298 59.565H173.018C173.098 59.305 173.218 58.665 173.218 57.945C173.218 55.125 171.458 53.765 168.938 53.765C166.038 53.765 164.218 55.785 164.218 59.085C164.218 62.605 166.158 64.325 169.498 64.325ZM167.178 57.885C167.298 56.745 167.798 55.965 168.858 55.965C169.878 55.965 170.458 56.645 170.518 57.885H167.178ZM179.113 58.945C178.073 58.945 177.573 58.285 177.573 57.565C177.573 56.885 178.073 56.185 179.113 56.185H180.173V58.945H179.113ZM180.173 61.005V64.125H183.013V53.965H178.673C175.733 53.965 174.653 55.805 174.653 57.345C174.653 58.885 175.473 59.945 176.873 60.385L174.193 64.125H177.353L179.613 61.005H180.173Z" fill="white"/>
<path d="M114 136.125C114 124.527 123.402 115.125 135 115.125H210V127.125C210 143.694 196.569 157.125 180 157.125H135C123.402 157.125 114 147.723 114 136.125Z" fill="#C882FF"/>
<path d="M142.14 140.125H144.72L148.04 134.385H148.18V140.125H151V129.965H148.4L145.12 135.685H144.96V129.965H142.14V140.125ZM155.873 137.645C156.733 136.445 156.973 133.785 156.993 132.465H159.093V137.645H155.873ZM155.013 140.125H160.773L160.973 142.765H163.493V137.645H161.933V129.965H154.713C154.653 133.605 154.333 136.425 153.133 137.645H152.273V142.765H154.813L155.013 140.125ZM169.498 140.325C170.878 140.325 172.098 140.025 172.798 139.565V137.145C171.958 137.685 170.858 137.885 169.738 137.885C168.178 137.885 167.398 137.085 167.298 135.565H173.018C173.098 135.305 173.218 134.665 173.218 133.945C173.218 131.125 171.458 129.765 168.938 129.765C166.038 129.765 164.218 131.785 164.218 135.085C164.218 138.605 166.158 140.325 169.498 140.325ZM167.178 133.885C167.298 132.745 167.798 131.965 168.858 131.965C169.878 131.965 170.458 132.645 170.518 133.885H167.178ZM179.113 134.945C178.073 134.945 177.573 134.285 177.573 133.565C177.573 132.885 178.073 132.185 179.113 132.185H180.173V134.945H179.113ZM180.173 137.005V140.125H183.013V129.965H178.673C175.733 129.965 174.653 131.805 174.653 133.345C174.653 134.885 175.473 135.945 176.873 136.385L174.193 140.125H177.353L179.613 137.005H180.173Z" fill="white"/>
<path d="M114 191.125H189C200.598 191.125 210 200.527 210 212.125C210 223.723 200.598 233.125 189 233.125H144C127.431 233.125 114 219.694 114 203.125V191.125Z" fill="#FF59A3"/>
<path d="M142.14 216.125H144.72L148.04 210.385H148.18V216.125H151V205.965H148.4L145.12 211.685H144.96V205.965H142.14V216.125ZM155.873 213.645C156.733 212.445 156.973 209.785 156.993 208.465H159.093V213.645H155.873ZM155.013 216.125H160.773L160.973 218.765H163.493V213.645H161.933V205.965H154.713C154.653 209.605 154.333 212.425 153.133 213.645H152.273V218.765H154.813L155.013 216.125ZM169.498 216.325C170.878 216.325 172.098 216.025 172.798 215.565V213.145C171.958 213.685 170.858 213.885 169.738 213.885C168.178 213.885 167.398 213.085 167.298 211.565H173.018C173.098 211.305 173.218 210.665 173.218 209.945C173.218 207.125 171.458 205.765 168.938 205.765C166.038 205.765 164.218 207.785 164.218 211.085C164.218 214.605 166.158 216.325 169.498 216.325ZM167.178 209.885C167.298 208.745 167.798 207.965 168.858 207.965C169.878 207.965 170.458 208.645 170.518 209.885H167.178ZM179.113 210.945C178.073 210.945 177.573 210.285 177.573 209.565C177.573 208.885 178.073 208.185 179.113 208.185H180.173V210.945H179.113ZM180.173 213.005V216.125H183.013V205.965H178.673C175.733 205.965 174.653 207.805 174.653 209.345C174.653 210.885 175.473 211.945 176.873 212.385L174.193 216.125H177.353L179.613 213.005H180.173Z" fill="white"/>
<path d="M274.871 159.813C274.917 159.865 274.945 159.931 274.953 160C274.947 159.964 274.947 159.926 274.953 159.89L274.871 159.813ZM274.871 159.813C274.917 159.865 274.945 159.931 274.953 160C274.947 159.964 274.947 159.926 274.953 159.89L274.871 159.813ZM274.794 159.725L274.827 159.769C274.838 159.786 274.853 159.801 274.871 159.813L274.794 159.725ZM274.871 159.813V159.813C274.917 159.865 274.945 159.931 274.953 160C274.947 159.964 274.947 159.926 274.953 159.89L274.871 159.813ZM274.821 162.26L274.953 162.194L274.821 162.26ZM274.821 159.725L274.854 159.769C274.866 159.786 274.881 159.801 274.898 159.813L274.821 159.725ZM272.203 156.859V157.25C272.203 157.121 272.235 156.994 272.296 156.881L272.203 156.859ZM274.871 159.813V159.813C274.917 159.865 274.945 159.931 274.953 160C274.947 159.964 274.947 159.926 274.953 159.89L274.871 159.813Z" fill="white"/>
<path d="M276.559 168.081H276.603L276.602 167.701C276.603 167.829 276.589 167.957 276.559 168.081Z" fill="white"/>
<path d="M289.803 145.568C289.806 145.552 289.806 145.535 289.803 145.518C289.577 143.319 285.282 142.125 281.003 142.125C276.724 142.125 272.45 143.291 272.202 145.518H272.203C272.2 145.535 272.2 145.552 272.203 145.568C272.199 145.612 272.199 145.656 272.203 145.7V156.859H272.296H272.296C272.234 156.972 272.202 157.099 272.203 157.228V156.837C270.754 156.549 269.279 156.411 267.802 156.425C263.545 156.425 259.25 157.591 259.002 159.818C258.999 159.835 258.999 159.851 259.002 159.868C258.999 159.912 258.999 159.956 259.002 160V171.55C259.002 173.898 263.402 175.125 267.802 175.125C271.933 175.125 276.113 174.025 276.564 171.93C278.024 172.232 279.512 172.381 281.002 172.375C285.26 172.375 289.555 171.209 289.803 168.981C289.808 168.921 289.808 168.86 289.803 168.8V145.7C289.805 145.656 289.805 145.612 289.803 145.568L289.803 145.568ZM267.802 158.075C269.487 158.053 271.166 158.268 272.791 158.713L273.061 158.801H273.132V158.801C273.745 158.965 274.31 159.273 274.782 159.698L274.859 159.786L274.953 159.868C274.947 159.904 274.947 159.942 274.953 159.978C274.953 160.193 274.463 160.699 273.149 161.15L272.791 161.265V161.265C271.167 161.718 269.488 161.94 267.803 161.925C263.084 161.925 260.652 160.578 260.652 160C260.652 159.423 263.084 158.075 267.803 158.075L267.802 158.075ZM274.953 171.55C274.953 172.1 272.521 173.475 267.802 173.475C263.083 173.475 260.652 172.128 260.652 171.55V169.9C260.773 169.966 260.9 170.032 261.032 170.093L261.329 170.225C261.687 170.375 262.054 170.502 262.429 170.604L262.731 170.692C263.089 170.791 263.468 170.873 263.831 170.95C264.073 170.995 264.321 171.038 264.574 171.071L264.964 171.126V171.126C265.906 171.235 266.854 171.284 267.802 171.275C269.796 171.308 271.783 171.024 273.687 170.433L274.045 170.301C274.276 170.213 274.49 170.12 274.683 170.026L274.82 169.955L274.952 169.883L274.953 171.55ZM274.953 167.7C274.953 167.915 274.463 168.421 273.149 168.872L273.148 168.871C271.417 169.403 269.613 169.657 267.802 169.625C263.084 169.625 260.652 168.278 260.652 167.7V166.05C260.773 166.116 260.9 166.182 261.032 166.242L261.329 166.374C261.687 166.525 262.054 166.652 262.429 166.754L262.731 166.842C263.089 166.941 263.468 167.023 263.831 167.1C264.073 167.145 264.321 167.188 264.574 167.221L264.964 167.276V167.277C265.906 167.385 266.854 167.434 267.802 167.425C269.641 167.446 271.474 167.209 273.247 166.721C273.396 166.682 273.543 166.637 273.687 166.583L274.045 166.451C274.276 166.363 274.49 166.27 274.683 166.176L274.82 166.105L274.952 166.033V167.023H274.953C274.944 167.08 274.944 167.137 274.953 167.194C274.966 167.25 274.984 167.306 275.008 167.359C274.964 167.467 274.945 167.583 274.953 167.7L274.953 167.7ZM274.953 163.85C274.953 164.065 274.463 164.571 273.149 165.022L272.791 165.137V165.137C271.166 165.582 269.487 165.797 267.803 165.775C263.084 165.775 260.652 164.428 260.652 163.85V162.2C260.773 162.266 260.9 162.332 261.032 162.392L261.329 162.524C261.687 162.673 262.055 162.8 262.429 162.904L262.731 162.991C263.089 163.085 263.468 163.173 263.831 163.25C264.073 163.294 264.321 163.338 264.574 163.371L264.964 163.426V163.426C265.906 163.535 266.854 163.584 267.802 163.575C269.641 163.596 271.474 163.359 273.247 162.871C273.396 162.832 273.543 162.787 273.687 162.733L274.045 162.601C274.281 162.513 274.49 162.42 274.683 162.326L274.82 162.255L274.952 162.183V163.173H274.953C274.944 163.23 274.944 163.287 274.953 163.344C274.966 163.4 274.984 163.456 275.008 163.509C274.964 163.617 274.945 163.733 274.953 163.85L274.953 163.85ZM288.153 168.8C288.153 169.35 285.722 170.725 281.003 170.725V170.725C279.523 170.739 278.046 170.578 276.603 170.246V168.09H276.558H276.559C276.59 167.963 276.604 167.831 276.603 167.7V168.09C278.05 168.386 279.525 168.532 281.003 168.525C283.753 168.525 286.47 168.047 288.153 167.122V168.8ZM288.153 164.95C288.153 165.5 285.722 166.875 281.003 166.875V166.875C279.523 166.889 278.046 166.728 276.603 166.396V164.24H276.558H276.559C276.59 164.113 276.604 163.981 276.603 163.85V164.24C278.05 164.536 279.525 164.682 281.003 164.675C283.753 164.675 286.47 164.197 288.153 163.272V164.95ZM288.153 161.1C288.153 161.65 285.722 163.025 281.003 163.025V163.025C279.523 163.039 278.046 162.878 276.603 162.546V160.39H276.558H276.559C276.59 160.263 276.604 160.131 276.603 160V160.39C278.05 160.689 279.525 160.835 281.003 160.825C283.753 160.825 286.47 160.346 288.153 159.422V161.1ZM288.153 157.25C288.153 157.8 285.722 159.175 281.003 159.175V159.175C279.284 159.198 277.571 158.974 275.915 158.509C275.32 157.974 274.617 157.575 273.853 157.338C273.856 157.312 273.856 157.286 273.853 157.261V155.611C275.536 156.496 278.253 156.975 281.003 156.975C283.753 156.975 286.47 156.496 288.153 155.572V157.25ZM288.153 153.4C288.153 153.95 285.722 155.325 281.003 155.325C276.284 155.325 273.853 153.978 273.853 153.4V151.75C275.536 152.646 278.253 153.125 281.003 153.125C283.753 153.125 286.47 152.646 288.153 151.722V153.4ZM288.153 149.55C288.153 150.1 285.722 151.475 281.003 151.475C276.284 151.475 273.853 150.128 273.853 149.55V147.9C275.536 148.796 278.253 149.275 281.003 149.275C283.753 149.275 286.47 148.796 288.153 147.872V149.55ZM281.003 147.625C276.284 147.625 273.853 146.277 273.853 145.699C273.853 145.122 276.284 143.775 281.003 143.775C285.722 143.775 288.153 145.122 288.153 145.7C288.153 146.277 285.722 147.625 281.003 147.625Z" fill="white"/>
<path d="M274.951 167.196C274.942 167.139 274.942 167.082 274.951 167.025V167.702C274.95 167.584 274.977 167.467 275.027 167.361C274.997 167.308 274.971 167.253 274.951 167.196V167.196ZM274.951 167.196C274.942 167.139 274.942 167.082 274.951 167.025V167.702C274.95 167.584 274.977 167.467 275.027 167.361C274.997 167.308 274.971 167.253 274.951 167.196V167.196ZM276.535 164.231H276.579L276.579 163.852C276.587 163.979 276.579 164.106 276.557 164.231H276.535ZM274.951 167.196C274.942 167.139 274.942 167.082 274.951 167.025V167.702C274.95 167.584 274.977 167.467 275.027 167.361C274.997 167.308 274.971 167.253 274.951 167.196V167.196ZM274.797 169.946L274.929 169.88L274.797 169.946ZM274.951 167.196C274.942 167.139 274.942 167.082 274.951 167.025V167.702C274.95 167.584 274.977 167.467 275.027 167.361C274.997 167.308 274.971 167.253 274.951 167.196V167.196Z" fill="white"/>
<path d="M274.951 163.344C274.942 163.288 274.942 163.23 274.951 163.174V163.85C274.95 163.732 274.977 163.616 275.027 163.509C274.997 163.457 274.971 163.402 274.951 163.344V163.344ZM274.951 163.344C274.942 163.288 274.942 163.23 274.951 163.174V163.85C274.95 163.732 274.977 163.616 275.027 163.509C274.997 163.457 274.971 163.402 274.951 163.344V163.344ZM276.535 160.379H276.579L276.579 160C276.587 160.127 276.579 160.254 276.557 160.379H276.535ZM274.951 163.344C274.942 163.288 274.942 163.23 274.951 163.174V163.85C274.95 163.732 274.977 163.616 275.027 163.509C274.997 163.457 274.971 163.402 274.951 163.344V163.344ZM274.797 166.094L274.929 166.028L274.797 166.094ZM274.951 163.344C274.942 163.288 274.942 163.23 274.951 163.174V163.85C274.95 163.732 274.977 163.616 275.027 163.509C274.997 163.457 274.971 163.402 274.951 163.344V163.344Z" fill="white"/>
<path d="M273.854 157.338C273.857 157.313 273.857 157.287 273.854 157.262C273.851 157.287 273.851 157.313 273.854 157.338Z" fill="white"/>
<path d="M276.603 160V160.391H276.559H276.559C276.59 160.263 276.605 160.132 276.603 160Z" fill="white"/>
<path d="M272.296 156.881C272.235 156.994 272.203 157.121 272.203 157.25V156.859L272.296 156.881Z" fill="white"/>
<path d="M276.603 167.701V168.092H276.559H276.559C276.59 167.964 276.605 167.833 276.603 167.701Z" fill="white"/>
<path d="M276.603 163.852V164.242H276.559H276.559C276.59 164.114 276.605 163.983 276.603 163.852Z" fill="white"/>
<path d="M308.871 159.813C308.917 159.865 308.945 159.931 308.953 160C308.947 159.964 308.947 159.926 308.953 159.89L308.871 159.813ZM308.871 159.813C308.917 159.865 308.945 159.931 308.953 160C308.947 159.964 308.947 159.926 308.953 159.89L308.871 159.813ZM308.794 159.725L308.827 159.769C308.838 159.786 308.853 159.801 308.871 159.813L308.794 159.725ZM308.871 159.813V159.813C308.917 159.865 308.945 159.931 308.953 160C308.947 159.964 308.947 159.926 308.953 159.89L308.871 159.813ZM308.821 162.26L308.953 162.194L308.821 162.26ZM308.821 159.725L308.854 159.769C308.866 159.786 308.881 159.801 308.898 159.813L308.821 159.725ZM306.203 156.859V157.25C306.203 157.121 306.235 156.994 306.296 156.881L306.203 156.859ZM308.871 159.813V159.813C308.917 159.865 308.945 159.931 308.953 160C308.947 159.964 308.947 159.926 308.953 159.89L308.871 159.813Z" fill="white"/>
<path d="M310.559 168.081H310.603L310.602 167.701C310.603 167.829 310.589 167.957 310.559 168.081Z" fill="white"/>
<path d="M323.803 145.568C323.806 145.552 323.806 145.535 323.803 145.518C323.577 143.319 319.282 142.125 315.003 142.125C310.724 142.125 306.45 143.291 306.202 145.518H306.203C306.2 145.535 306.2 145.552 306.203 145.568C306.199 145.612 306.199 145.656 306.203 145.7V156.859H306.296H306.296C306.234 156.972 306.202 157.099 306.203 157.228V156.837C304.754 156.549 303.279 156.411 301.802 156.425C297.545 156.425 293.25 157.591 293.002 159.818C292.999 159.835 292.999 159.851 293.002 159.868C292.999 159.912 292.999 159.956 293.002 160V171.55C293.002 173.898 297.402 175.125 301.802 175.125C305.933 175.125 310.113 174.025 310.564 171.93C312.024 172.232 313.512 172.381 315.002 172.375C319.26 172.375 323.555 171.209 323.803 168.981C323.808 168.921 323.808 168.86 323.803 168.8V145.7C323.805 145.656 323.805 145.612 323.803 145.568L323.803 145.568ZM301.802 158.075C303.487 158.053 305.166 158.268 306.791 158.713L307.061 158.801H307.132V158.801C307.745 158.965 308.31 159.273 308.782 159.698L308.859 159.786L308.953 159.868C308.947 159.904 308.947 159.942 308.953 159.978C308.953 160.193 308.463 160.699 307.149 161.15L306.791 161.265V161.265C305.167 161.718 303.488 161.94 301.803 161.925C297.084 161.925 294.652 160.578 294.652 160C294.652 159.423 297.084 158.075 301.803 158.075L301.802 158.075ZM308.953 171.55C308.953 172.1 306.521 173.475 301.802 173.475C297.083 173.475 294.652 172.128 294.652 171.55V169.9C294.773 169.966 294.9 170.032 295.032 170.093L295.329 170.225C295.687 170.375 296.054 170.502 296.429 170.604L296.731 170.692C297.089 170.791 297.468 170.873 297.831 170.95C298.073 170.995 298.321 171.038 298.574 171.071L298.964 171.126V171.126C299.906 171.235 300.854 171.284 301.802 171.275C303.796 171.308 305.783 171.024 307.687 170.433L308.045 170.301C308.276 170.213 308.49 170.12 308.683 170.026L308.82 169.955L308.952 169.883L308.953 171.55ZM308.953 167.7C308.953 167.915 308.463 168.421 307.149 168.872L307.148 168.871C305.417 169.403 303.613 169.657 301.802 169.625C297.084 169.625 294.652 168.278 294.652 167.7V166.05C294.773 166.116 294.9 166.182 295.032 166.242L295.329 166.374C295.687 166.525 296.054 166.652 296.429 166.754L296.731 166.842C297.089 166.941 297.468 167.023 297.831 167.1C298.073 167.145 298.321 167.188 298.574 167.221L298.964 167.276V167.277C299.906 167.385 300.854 167.434 301.802 167.425C303.641 167.446 305.474 167.209 307.247 166.721C307.396 166.682 307.543 166.637 307.687 166.583L308.045 166.451C308.276 166.363 308.49 166.27 308.683 166.176L308.82 166.105L308.952 166.033V167.023H308.953C308.944 167.08 308.944 167.137 308.953 167.194C308.966 167.25 308.984 167.306 309.008 167.359C308.964 167.467 308.945 167.583 308.953 167.7L308.953 167.7ZM308.953 163.85C308.953 164.065 308.463 164.571 307.149 165.022L306.791 165.137V165.137C305.166 165.582 303.487 165.797 301.803 165.775C297.084 165.775 294.652 164.428 294.652 163.85V162.2C294.773 162.266 294.9 162.332 295.032 162.392L295.329 162.524C295.687 162.673 296.055 162.8 296.429 162.904L296.731 162.991C297.089 163.085 297.468 163.173 297.831 163.25C298.073 163.294 298.321 163.338 298.574 163.371L298.964 163.426V163.426C299.906 163.535 300.854 163.584 301.802 163.575C303.641 163.596 305.474 163.359 307.247 162.871C307.396 162.832 307.543 162.787 307.687 162.733L308.045 162.601C308.281 162.513 308.49 162.42 308.683 162.326L308.82 162.255L308.952 162.183V163.173H308.953C308.944 163.23 308.944 163.287 308.953 163.344C308.966 163.4 308.984 163.456 309.008 163.509C308.964 163.617 308.945 163.733 308.953 163.85L308.953 163.85ZM322.153 168.8C322.153 169.35 319.722 170.725 315.003 170.725V170.725C313.523 170.739 312.046 170.578 310.603 170.246V168.09H310.558H310.559C310.59 167.963 310.604 167.831 310.603 167.7V168.09C312.05 168.386 313.525 168.532 315.003 168.525C317.753 168.525 320.47 168.047 322.153 167.122V168.8ZM322.153 164.95C322.153 165.5 319.722 166.875 315.003 166.875V166.875C313.523 166.889 312.046 166.728 310.603 166.396V164.24H310.558H310.559C310.59 164.113 310.604 163.981 310.603 163.85V164.24C312.05 164.536 313.525 164.682 315.003 164.675C317.753 164.675 320.47 164.197 322.153 163.272V164.95ZM322.153 161.1C322.153 161.65 319.722 163.025 315.003 163.025V163.025C313.523 163.039 312.046 162.878 310.603 162.546V160.39H310.558H310.559C310.59 160.263 310.604 160.131 310.603 160V160.39C312.05 160.689 313.525 160.835 315.003 160.825C317.753 160.825 320.47 160.346 322.153 159.422V161.1ZM322.153 157.25C322.153 157.8 319.722 159.175 315.003 159.175V159.175C313.284 159.198 311.571 158.974 309.915 158.509C309.32 157.974 308.617 157.575 307.853 157.338C307.856 157.312 307.856 157.286 307.853 157.261V155.611C309.536 156.496 312.253 156.975 315.003 156.975C317.753 156.975 320.47 156.496 322.153 155.572V157.25ZM322.153 153.4C322.153 153.95 319.722 155.325 315.003 155.325C310.284 155.325 307.853 153.978 307.853 153.4V151.75C309.536 152.646 312.253 153.125 315.003 153.125C317.753 153.125 320.47 152.646 322.153 151.722V153.4ZM322.153 149.55C322.153 150.1 319.722 151.475 315.003 151.475C310.284 151.475 307.853 150.128 307.853 149.55V147.9C309.536 148.796 312.253 149.275 315.003 149.275C317.753 149.275 320.47 148.796 322.153 147.872V149.55ZM315.003 147.625C310.284 147.625 307.853 146.277 307.853 145.699C307.853 145.122 310.284 143.775 315.003 143.775C319.722 143.775 322.153 145.122 322.153 145.7C322.153 146.277 319.722 147.625 315.003 147.625Z" fill="white"/>
<path d="M308.951 167.196C308.942 167.139 308.942 167.082 308.951 167.025V167.702C308.95 167.584 308.977 167.467 309.027 167.361C308.997 167.308 308.971 167.253 308.951 167.196V167.196ZM308.951 167.196C308.942 167.139 308.942 167.082 308.951 167.025V167.702C308.95 167.584 308.977 167.467 309.027 167.361C308.997 167.308 308.971 167.253 308.951 167.196V167.196ZM310.535 164.231H310.579L310.579 163.852C310.587 163.979 310.579 164.106 310.557 164.231H310.535ZM308.951 167.196C308.942 167.139 308.942 167.082 308.951 167.025V167.702C308.95 167.584 308.977 167.467 309.027 167.361C308.997 167.308 308.971 167.253 308.951 167.196V167.196ZM308.797 169.946L308.929 169.88L308.797 169.946ZM308.951 167.196C308.942 167.139 308.942 167.082 308.951 167.025V167.702C308.95 167.584 308.977 167.467 309.027 167.361C308.997 167.308 308.971 167.253 308.951 167.196V167.196Z" fill="white"/>
<path d="M308.951 163.344C308.942 163.288 308.942 163.23 308.951 163.174V163.85C308.95 163.732 308.977 163.616 309.027 163.509C308.997 163.457 308.971 163.402 308.951 163.344V163.344ZM308.951 163.344C308.942 163.288 308.942 163.23 308.951 163.174V163.85C308.95 163.732 308.977 163.616 309.027 163.509C308.997 163.457 308.971 163.402 308.951 163.344V163.344ZM310.535 160.379H310.579L310.579 160C310.587 160.127 310.579 160.254 310.557 160.379H310.535ZM308.951 163.344C308.942 163.288 308.942 163.23 308.951 163.174V163.85C308.95 163.732 308.977 163.616 309.027 163.509C308.997 163.457 308.971 163.402 308.951 163.344V163.344ZM308.797 166.094L308.929 166.028L308.797 166.094ZM308.951 163.344C308.942 163.288 308.942 163.23 308.951 163.174V163.85C308.95 163.732 308.977 163.616 309.027 163.509C308.997 163.457 308.971 163.402 308.951 163.344V163.344Z" fill="white"/>
<path d="M307.854 157.338C307.857 157.313 307.857 157.287 307.854 157.262C307.851 157.287 307.851 157.313 307.854 157.338Z" fill="white"/>
<path d="M310.603 160V160.391H310.559H310.559C310.59 160.263 310.605 160.132 310.603 160Z" fill="white"/>
<path d="M306.296 156.881C306.235 156.994 306.203 157.121 306.203 157.25V156.859L306.296 156.881Z" fill="white"/>
<path d="M310.603 167.701V168.092H310.559H310.559C310.59 167.964 310.605 167.833 310.603 167.701Z" fill="white"/>
<path d="M310.603 163.852V164.242H310.559H310.559C310.59 164.114 310.605 163.983 310.603 163.852Z" fill="white"/>
<path d="M274.871 147.813C274.917 147.865 274.945 147.931 274.953 148C274.947 147.964 274.947 147.926 274.953 147.89L274.871 147.813ZM274.871 147.813C274.917 147.865 274.945 147.931 274.953 148C274.947 147.964 274.947 147.926 274.953 147.89L274.871 147.813ZM274.794 147.725L274.827 147.769C274.838 147.786 274.853 147.801 274.871 147.813L274.794 147.725ZM274.871 147.813V147.813C274.917 147.865 274.945 147.931 274.953 148C274.947 147.964 274.947 147.926 274.953 147.89L274.871 147.813ZM274.821 150.26L274.953 150.194L274.821 150.26ZM274.821 147.725L274.854 147.769C274.866 147.786 274.881 147.801 274.898 147.813L274.821 147.725ZM272.203 144.859V145.25C272.203 145.121 272.235 144.994 272.296 144.881L272.203 144.859ZM274.871 147.813V147.813C274.917 147.865 274.945 147.931 274.953 148C274.947 147.964 274.947 147.926 274.953 147.89L274.871 147.813Z" fill="white"/>
<path d="M276.559 156.081H276.603L276.602 155.701C276.603 155.829 276.589 155.957 276.559 156.081Z" fill="white"/>
<path d="M289.803 133.568C289.806 133.552 289.806 133.535 289.803 133.518C289.577 131.319 285.282 130.125 281.003 130.125C276.724 130.125 272.45 131.291 272.202 133.518H272.203C272.2 133.535 272.2 133.552 272.203 133.568C272.199 133.612 272.199 133.656 272.203 133.7V144.859H272.296H272.296C272.234 144.972 272.202 145.099 272.203 145.228V144.837C270.754 144.549 269.279 144.411 267.802 144.425C263.545 144.425 259.25 145.591 259.002 147.818C258.999 147.835 258.999 147.851 259.002 147.868C258.999 147.912 258.999 147.956 259.002 148V159.55C259.002 161.898 263.402 163.125 267.802 163.125C271.933 163.125 276.113 162.025 276.564 159.93C278.024 160.232 279.512 160.381 281.002 160.375C285.26 160.375 289.555 159.209 289.803 156.981C289.808 156.921 289.808 156.86 289.803 156.8V133.7C289.805 133.656 289.805 133.612 289.803 133.568L289.803 133.568ZM267.802 146.075C269.487 146.053 271.166 146.268 272.791 146.713L273.061 146.801H273.132V146.801C273.745 146.965 274.31 147.273 274.782 147.698L274.859 147.786L274.953 147.868C274.947 147.904 274.947 147.942 274.953 147.978C274.953 148.193 274.463 148.699 273.149 149.15L272.791 149.265V149.265C271.167 149.718 269.488 149.94 267.803 149.925C263.084 149.925 260.652 148.578 260.652 148C260.652 147.423 263.084 146.075 267.803 146.075L267.802 146.075ZM274.953 159.55C274.953 160.1 272.521 161.475 267.802 161.475C263.083 161.475 260.652 160.128 260.652 159.55V157.9C260.773 157.966 260.9 158.032 261.032 158.093L261.329 158.225C261.687 158.375 262.054 158.502 262.429 158.604L262.731 158.692C263.089 158.791 263.468 158.873 263.831 158.95C264.073 158.995 264.321 159.038 264.574 159.071L264.964 159.126V159.126C265.906 159.235 266.854 159.284 267.802 159.275C269.796 159.308 271.783 159.024 273.687 158.433L274.045 158.301C274.276 158.213 274.49 158.12 274.683 158.026L274.82 157.955L274.952 157.883L274.953 159.55ZM274.953 155.7C274.953 155.915 274.463 156.421 273.149 156.872L273.148 156.871C271.417 157.403 269.613 157.657 267.802 157.625C263.084 157.625 260.652 156.278 260.652 155.7V154.05C260.773 154.116 260.9 154.182 261.032 154.242L261.329 154.374C261.687 154.525 262.054 154.652 262.429 154.754L262.731 154.842C263.089 154.941 263.468 155.023 263.831 155.1C264.073 155.145 264.321 155.188 264.574 155.221L264.964 155.276V155.277C265.906 155.385 266.854 155.434 267.802 155.425C269.641 155.446 271.474 155.209 273.247 154.721C273.396 154.682 273.543 154.637 273.687 154.583L274.045 154.451C274.276 154.363 274.49 154.27 274.683 154.176L274.82 154.105L274.952 154.033V155.023H274.953C274.944 155.08 274.944 155.137 274.953 155.194C274.966 155.25 274.984 155.306 275.008 155.359C274.964 155.467 274.945 155.583 274.953 155.7L274.953 155.7ZM274.953 151.85C274.953 152.065 274.463 152.571 273.149 153.022L272.791 153.137V153.137C271.166 153.582 269.487 153.797 267.803 153.775C263.084 153.775 260.652 152.428 260.652 151.85V150.2C260.773 150.266 260.9 150.332 261.032 150.392L261.329 150.524C261.687 150.673 262.055 150.8 262.429 150.904L262.731 150.991C263.089 151.085 263.468 151.173 263.831 151.25C264.073 151.294 264.321 151.338 264.574 151.371L264.964 151.426V151.426C265.906 151.535 266.854 151.584 267.802 151.575C269.641 151.596 271.474 151.359 273.247 150.871C273.396 150.832 273.543 150.787 273.687 150.733L274.045 150.601C274.281 150.513 274.49 150.42 274.683 150.326L274.82 150.255L274.952 150.183V151.173H274.953C274.944 151.23 274.944 151.287 274.953 151.344C274.966 151.4 274.984 151.456 275.008 151.509C274.964 151.617 274.945 151.733 274.953 151.85L274.953 151.85ZM288.153 156.8C288.153 157.35 285.722 158.725 281.003 158.725V158.725C279.523 158.739 278.046 158.578 276.603 158.246V156.09H276.558H276.559C276.59 155.963 276.604 155.831 276.603 155.7V156.09C278.05 156.386 279.525 156.532 281.003 156.525C283.753 156.525 286.47 156.047 288.153 155.122V156.8ZM288.153 152.95C288.153 153.5 285.722 154.875 281.003 154.875V154.875C279.523 154.889 278.046 154.728 276.603 154.396V152.24H276.558H276.559C276.59 152.113 276.604 151.981 276.603 151.85V152.24C278.05 152.536 279.525 152.682 281.003 152.675C283.753 152.675 286.47 152.197 288.153 151.272V152.95ZM288.153 149.1C288.153 149.65 285.722 151.025 281.003 151.025V151.025C279.523 151.039 278.046 150.878 276.603 150.546V148.39H276.558H276.559C276.59 148.263 276.604 148.131 276.603 148V148.39C278.05 148.689 279.525 148.835 281.003 148.825C283.753 148.825 286.47 148.346 288.153 147.422V149.1ZM288.153 145.25C288.153 145.8 285.722 147.175 281.003 147.175V147.175C279.284 147.198 277.571 146.974 275.915 146.509C275.32 145.974 274.617 145.575 273.853 145.338C273.856 145.312 273.856 145.286 273.853 145.261V143.611C275.536 144.496 278.253 144.975 281.003 144.975C283.753 144.975 286.47 144.496 288.153 143.572V145.25ZM288.153 141.4C288.153 141.95 285.722 143.325 281.003 143.325C276.284 143.325 273.853 141.978 273.853 141.4V139.75C275.536 140.646 278.253 141.125 281.003 141.125C283.753 141.125 286.47 140.646 288.153 139.722V141.4ZM288.153 137.55C288.153 138.1 285.722 139.475 281.003 139.475C276.284 139.475 273.853 138.128 273.853 137.55V135.9C275.536 136.796 278.253 137.275 281.003 137.275C283.753 137.275 286.47 136.796 288.153 135.872V137.55ZM281.003 135.625C276.284 135.625 273.853 134.277 273.853 133.699C273.853 133.122 276.284 131.775 281.003 131.775C285.722 131.775 288.153 133.122 288.153 133.7C288.153 134.277 285.722 135.625 281.003 135.625Z" fill="white"/>
<path d="M274.951 155.196C274.942 155.139 274.942 155.082 274.951 155.025V155.702C274.95 155.584 274.977 155.467 275.027 155.361C274.997 155.308 274.971 155.253 274.951 155.196V155.196ZM274.951 155.196C274.942 155.139 274.942 155.082 274.951 155.025V155.702C274.95 155.584 274.977 155.467 275.027 155.361C274.997 155.308 274.971 155.253 274.951 155.196V155.196ZM276.535 152.231H276.579L276.579 151.852C276.587 151.979 276.579 152.106 276.557 152.231H276.535ZM274.951 155.196C274.942 155.139 274.942 155.082 274.951 155.025V155.702C274.95 155.584 274.977 155.467 275.027 155.361C274.997 155.308 274.971 155.253 274.951 155.196V155.196ZM274.797 157.946L274.929 157.88L274.797 157.946ZM274.951 155.196C274.942 155.139 274.942 155.082 274.951 155.025V155.702C274.95 155.584 274.977 155.467 275.027 155.361C274.997 155.308 274.971 155.253 274.951 155.196V155.196Z" fill="white"/>
<path d="M274.951 151.344C274.942 151.288 274.942 151.23 274.951 151.174V151.85C274.95 151.732 274.977 151.616 275.027 151.509C274.997 151.457 274.971 151.402 274.951 151.344V151.344ZM274.951 151.344C274.942 151.288 274.942 151.23 274.951 151.174V151.85C274.95 151.732 274.977 151.616 275.027 151.509C274.997 151.457 274.971 151.402 274.951 151.344V151.344ZM276.535 148.379H276.579L276.579 148C276.587 148.127 276.579 148.254 276.557 148.379H276.535ZM274.951 151.344C274.942 151.288 274.942 151.23 274.951 151.174V151.85C274.95 151.732 274.977 151.616 275.027 151.509C274.997 151.457 274.971 151.402 274.951 151.344V151.344ZM274.797 154.094L274.929 154.028L274.797 154.094ZM274.951 151.344C274.942 151.288 274.942 151.23 274.951 151.174V151.85C274.95 151.732 274.977 151.616 275.027 151.509C274.997 151.457 274.971 151.402 274.951 151.344V151.344Z" fill="white"/>
<path d="M273.854 145.338C273.857 145.313 273.857 145.287 273.854 145.262C273.851 145.287 273.851 145.313 273.854 145.338Z" fill="white"/>
<path d="M276.603 148V148.391H276.559H276.559C276.59 148.263 276.605 148.132 276.603 148Z" fill="white"/>
<path d="M272.296 144.881C272.235 144.994 272.203 145.121 272.203 145.25V144.859L272.296 144.881Z" fill="white"/>
<path d="M276.603 155.701V156.092H276.559H276.559C276.59 155.964 276.605 155.833 276.603 155.701Z" fill="white"/>
<path d="M276.603 151.852V152.242H276.559H276.559C276.59 152.114 276.605 151.983 276.603 151.852Z" fill="white"/>
<path d="M308.871 147.813C308.917 147.865 308.945 147.931 308.953 148C308.947 147.964 308.947 147.926 308.953 147.89L308.871 147.813ZM308.871 147.813C308.917 147.865 308.945 147.931 308.953 148C308.947 147.964 308.947 147.926 308.953 147.89L308.871 147.813ZM308.794 147.725L308.827 147.769C308.838 147.786 308.853 147.801 308.871 147.813L308.794 147.725ZM308.871 147.813V147.813C308.917 147.865 308.945 147.931 308.953 148C308.947 147.964 308.947 147.926 308.953 147.89L308.871 147.813ZM308.821 150.26L308.953 150.194L308.821 150.26ZM308.821 147.725L308.854 147.769C308.866 147.786 308.881 147.801 308.898 147.813L308.821 147.725ZM306.203 144.859V145.25C306.203 145.121 306.235 144.994 306.296 144.881L306.203 144.859ZM308.871 147.813V147.813C308.917 147.865 308.945 147.931 308.953 148C308.947 147.964 308.947 147.926 308.953 147.89L308.871 147.813Z" fill="white"/>
<path d="M310.559 156.081H310.603L310.602 155.701C310.603 155.829 310.589 155.957 310.559 156.081Z" fill="white"/>
<path d="M323.803 133.568C323.806 133.552 323.806 133.535 323.803 133.518C323.577 131.319 319.282 130.125 315.003 130.125C310.724 130.125 306.45 131.291 306.202 133.518H306.203C306.2 133.535 306.2 133.552 306.203 133.568C306.199 133.612 306.199 133.656 306.203 133.7V144.859H306.296H306.296C306.234 144.972 306.202 145.099 306.203 145.228V144.837C304.754 144.549 303.279 144.411 301.802 144.425C297.545 144.425 293.25 145.591 293.002 147.818C292.999 147.835 292.999 147.851 293.002 147.868C292.999 147.912 292.999 147.956 293.002 148V159.55C293.002 161.898 297.402 163.125 301.802 163.125C305.933 163.125 310.113 162.025 310.564 159.93C312.024 160.232 313.512 160.381 315.002 160.375C319.26 160.375 323.555 159.209 323.803 156.981C323.808 156.921 323.808 156.86 323.803 156.8V133.7C323.805 133.656 323.805 133.612 323.803 133.568L323.803 133.568ZM301.802 146.075C303.487 146.053 305.166 146.268 306.791 146.713L307.061 146.801H307.132V146.801C307.745 146.965 308.31 147.273 308.782 147.698L308.859 147.786L308.953 147.868C308.947 147.904 308.947 147.942 308.953 147.978C308.953 148.193 308.463 148.699 307.149 149.15L306.791 149.265V149.265C305.167 149.718 303.488 149.94 301.803 149.925C297.084 149.925 294.652 148.578 294.652 148C294.652 147.423 297.084 146.075 301.803 146.075L301.802 146.075ZM308.953 159.55C308.953 160.1 306.521 161.475 301.802 161.475C297.083 161.475 294.652 160.128 294.652 159.55V157.9C294.773 157.966 294.9 158.032 295.032 158.093L295.329 158.225C295.687 158.375 296.054 158.502 296.429 158.604L296.731 158.692C297.089 158.791 297.468 158.873 297.831 158.95C298.073 158.995 298.321 159.038 298.574 159.071L298.964 159.126V159.126C299.906 159.235 300.854 159.284 301.802 159.275C303.796 159.308 305.783 159.024 307.687 158.433L308.045 158.301C308.276 158.213 308.49 158.12 308.683 158.026L308.82 157.955L308.952 157.883L308.953 159.55ZM308.953 155.7C308.953 155.915 308.463 156.421 307.149 156.872L307.148 156.871C305.417 157.403 303.613 157.657 301.802 157.625C297.084 157.625 294.652 156.278 294.652 155.7V154.05C294.773 154.116 294.9 154.182 295.032 154.242L295.329 154.374C295.687 154.525 296.054 154.652 296.429 154.754L296.731 154.842C297.089 154.941 297.468 155.023 297.831 155.1C298.073 155.145 298.321 155.188 298.574 155.221L298.964 155.276V155.277C299.906 155.385 300.854 155.434 301.802 155.425C303.641 155.446 305.474 155.209 307.247 154.721C307.396 154.682 307.543 154.637 307.687 154.583L308.045 154.451C308.276 154.363 308.49 154.27 308.683 154.176L308.82 154.105L308.952 154.033V155.023H308.953C308.944 155.08 308.944 155.137 308.953 155.194C308.966 155.25 308.984 155.306 309.008 155.359C308.964 155.467 308.945 155.583 308.953 155.7L308.953 155.7ZM308.953 151.85C308.953 152.065 308.463 152.571 307.149 153.022L306.791 153.137V153.137C305.166 153.582 303.487 153.797 301.803 153.775C297.084 153.775 294.652 152.428 294.652 151.85V150.2C294.773 150.266 294.9 150.332 295.032 150.392L295.329 150.524C295.687 150.673 296.055 150.8 296.429 150.904L296.731 150.991C297.089 151.085 297.468 151.173 297.831 151.25C298.073 151.294 298.321 151.338 298.574 151.371L298.964 151.426V151.426C299.906 151.535 300.854 151.584 301.802 151.575C303.641 151.596 305.474 151.359 307.247 150.871C307.396 150.832 307.543 150.787 307.687 150.733L308.045 150.601C308.281 150.513 308.49 150.42 308.683 150.326L308.82 150.255L308.952 150.183V151.173H308.953C308.944 151.23 308.944 151.287 308.953 151.344C308.966 151.4 308.984 151.456 309.008 151.509C308.964 151.617 308.945 151.733 308.953 151.85L308.953 151.85ZM322.153 156.8C322.153 157.35 319.722 158.725 315.003 158.725V158.725C313.523 158.739 312.046 158.578 310.603 158.246V156.09H310.558H310.559C310.59 155.963 310.604 155.831 310.603 155.7V156.09C312.05 156.386 313.525 156.532 315.003 156.525C317.753 156.525 320.47 156.047 322.153 155.122V156.8ZM322.153 152.95C322.153 153.5 319.722 154.875 315.003 154.875V154.875C313.523 154.889 312.046 154.728 310.603 154.396V152.24H310.558H310.559C310.59 152.113 310.604 151.981 310.603 151.85V152.24C312.05 152.536 313.525 152.682 315.003 152.675C317.753 152.675 320.47 152.197 322.153 151.272V152.95ZM322.153 149.1C322.153 149.65 319.722 151.025 315.003 151.025V151.025C313.523 151.039 312.046 150.878 310.603 150.546V148.39H310.558H310.559C310.59 148.263 310.604 148.131 310.603 148V148.39C312.05 148.689 313.525 148.835 315.003 148.825C317.753 148.825 320.47 148.346 322.153 147.422V149.1ZM322.153 145.25C322.153 145.8 319.722 147.175 315.003 147.175V147.175C313.284 147.198 311.571 146.974 309.915 146.509C309.32 145.974 308.617 145.575 307.853 145.338C307.856 145.312 307.856 145.286 307.853 145.261V143.611C309.536 144.496 312.253 144.975 315.003 144.975C317.753 144.975 320.47 144.496 322.153 143.572V145.25ZM322.153 141.4C322.153 141.95 319.722 143.325 315.003 143.325C310.284 143.325 307.853 141.978 307.853 141.4V139.75C309.536 140.646 312.253 141.125 315.003 141.125C317.753 141.125 320.47 140.646 322.153 139.722V141.4ZM322.153 137.55C322.153 138.1 319.722 139.475 315.003 139.475C310.284 139.475 307.853 138.128 307.853 137.55V135.9C309.536 136.796 312.253 137.275 315.003 137.275C317.753 137.275 320.47 136.796 322.153 135.872V137.55ZM315.003 135.625C310.284 135.625 307.853 134.277 307.853 133.699C307.853 133.122 310.284 131.775 315.003 131.775C319.722 131.775 322.153 133.122 322.153 133.7C322.153 134.277 319.722 135.625 315.003 135.625Z" fill="white"/>
<path d="M308.951 155.196C308.942 155.139 308.942 155.082 308.951 155.025V155.702C308.95 155.584 308.977 155.467 309.027 155.361C308.997 155.308 308.971 155.253 308.951 155.196V155.196ZM308.951 155.196C308.942 155.139 308.942 155.082 308.951 155.025V155.702C308.95 155.584 308.977 155.467 309.027 155.361C308.997 155.308 308.971 155.253 308.951 155.196V155.196ZM310.535 152.231H310.579L310.579 151.852C310.587 151.979 310.579 152.106 310.557 152.231H310.535ZM308.951 155.196C308.942 155.139 308.942 155.082 308.951 155.025V155.702C308.95 155.584 308.977 155.467 309.027 155.361C308.997 155.308 308.971 155.253 308.951 155.196V155.196ZM308.797 157.946L308.929 157.88L308.797 157.946ZM308.951 155.196C308.942 155.139 308.942 155.082 308.951 155.025V155.702C308.95 155.584 308.977 155.467 309.027 155.361C308.997 155.308 308.971 155.253 308.951 155.196V155.196Z" fill="white"/>
<path d="M308.951 151.344C308.942 151.288 308.942 151.23 308.951 151.174V151.85C308.95 151.732 308.977 151.616 309.027 151.509C308.997 151.457 308.971 151.402 308.951 151.344V151.344ZM308.951 151.344C308.942 151.288 308.942 151.23 308.951 151.174V151.85C308.95 151.732 308.977 151.616 309.027 151.509C308.997 151.457 308.971 151.402 308.951 151.344V151.344ZM310.535 148.379H310.579L310.579 148C310.587 148.127 310.579 148.254 310.557 148.379H310.535ZM308.951 151.344C308.942 151.288 308.942 151.23 308.951 151.174V151.85C308.95 151.732 308.977 151.616 309.027 151.509C308.997 151.457 308.971 151.402 308.951 151.344V151.344ZM308.797 154.094L308.929 154.028L308.797 154.094ZM308.951 151.344C308.942 151.288 308.942 151.23 308.951 151.174V151.85C308.95 151.732 308.977 151.616 309.027 151.509C308.997 151.457 308.971 151.402 308.951 151.344V151.344Z" fill="white"/>
<path d="M307.854 145.338C307.857 145.313 307.857 145.287 307.854 145.262C307.851 145.287 307.851 145.313 307.854 145.338Z" fill="white"/>
<path d="M310.603 148V148.391H310.559H310.559C310.59 148.263 310.605 148.132 310.603 148Z" fill="white"/>
<path d="M306.296 144.881C306.235 144.994 306.203 145.121 306.203 145.25V144.859L306.296 144.881Z" fill="white"/>
<path d="M310.603 155.701V156.092H310.559H310.559C310.59 155.964 310.605 155.833 310.603 155.701Z" fill="white"/>
<path d="M310.603 151.852V152.242H310.559H310.559C310.59 152.114 310.605 151.983 310.603 151.852Z" fill="white"/>
<path d="M274.871 135.813C274.917 135.865 274.945 135.931 274.953 136C274.947 135.964 274.947 135.926 274.953 135.89L274.871 135.813ZM274.871 135.813C274.917 135.865 274.945 135.931 274.953 136C274.947 135.964 274.947 135.926 274.953 135.89L274.871 135.813ZM274.794 135.725L274.827 135.769C274.838 135.786 274.853 135.801 274.871 135.813L274.794 135.725ZM274.871 135.813V135.813C274.917 135.865 274.945 135.931 274.953 136C274.947 135.964 274.947 135.926 274.953 135.89L274.871 135.813ZM274.821 138.26L274.953 138.194L274.821 138.26ZM274.821 135.725L274.854 135.769C274.866 135.786 274.881 135.801 274.898 135.813L274.821 135.725ZM272.203 132.859V133.25C272.203 133.121 272.235 132.994 272.296 132.881L272.203 132.859ZM274.871 135.813V135.813C274.917 135.865 274.945 135.931 274.953 136C274.947 135.964 274.947 135.926 274.953 135.89L274.871 135.813Z" fill="white"/>
<path d="M276.559 144.081H276.603L276.602 143.701C276.603 143.829 276.589 143.957 276.559 144.081Z" fill="white"/>
<path d="M289.803 121.568C289.806 121.552 289.806 121.535 289.803 121.518C289.577 119.319 285.282 118.125 281.003 118.125C276.724 118.125 272.45 119.291 272.202 121.518H272.203C272.2 121.535 272.2 121.552 272.203 121.568C272.199 121.612 272.199 121.656 272.203 121.7V132.859H272.296H272.296C272.234 132.972 272.202 133.099 272.203 133.228V132.837C270.754 132.549 269.279 132.411 267.802 132.425C263.545 132.425 259.25 133.591 259.002 135.818C258.999 135.835 258.999 135.851 259.002 135.868C258.999 135.912 258.999 135.956 259.002 136V147.55C259.002 149.898 263.402 151.125 267.802 151.125C271.933 151.125 276.113 150.025 276.564 147.93C278.024 148.232 279.512 148.381 281.002 148.375C285.26 148.375 289.555 147.209 289.803 144.981C289.808 144.921 289.808 144.86 289.803 144.8V121.7C289.805 121.656 289.805 121.612 289.803 121.568L289.803 121.568ZM267.802 134.075C269.487 134.053 271.166 134.268 272.791 134.713L273.061 134.801H273.132V134.801C273.745 134.965 274.31 135.273 274.782 135.698L274.859 135.786L274.953 135.868C274.947 135.904 274.947 135.942 274.953 135.978C274.953 136.193 274.463 136.699 273.149 137.15L272.791 137.265V137.265C271.167 137.718 269.488 137.94 267.803 137.925C263.084 137.925 260.652 136.578 260.652 136C260.652 135.423 263.084 134.075 267.803 134.075L267.802 134.075ZM274.953 147.55C274.953 148.1 272.521 149.475 267.802 149.475C263.083 149.475 260.652 148.128 260.652 147.55V145.9C260.773 145.966 260.9 146.032 261.032 146.093L261.329 146.225C261.687 146.375 262.054 146.502 262.429 146.604L262.731 146.692C263.089 146.791 263.468 146.873 263.831 146.95C264.073 146.995 264.321 147.038 264.574 147.071L264.964 147.126V147.126C265.906 147.235 266.854 147.284 267.802 147.275C269.796 147.308 271.783 147.024 273.687 146.433L274.045 146.301C274.276 146.213 274.49 146.12 274.683 146.026L274.82 145.955L274.952 145.883L274.953 147.55ZM274.953 143.7C274.953 143.915 274.463 144.421 273.149 144.872L273.148 144.871C271.417 145.403 269.613 145.657 267.802 145.625C263.084 145.625 260.652 144.278 260.652 143.7V142.05C260.773 142.116 260.9 142.182 261.032 142.242L261.329 142.374C261.687 142.525 262.054 142.652 262.429 142.754L262.731 142.842C263.089 142.941 263.468 143.023 263.831 143.1C264.073 143.145 264.321 143.188 264.574 143.221L264.964 143.276V143.277C265.906 143.385 266.854 143.434 267.802 143.425C269.641 143.446 271.474 143.209 273.247 142.721C273.396 142.682 273.543 142.637 273.687 142.583L274.045 142.451C274.276 142.363 274.49 142.27 274.683 142.176L274.82 142.105L274.952 142.033V143.023H274.953C274.944 143.08 274.944 143.137 274.953 143.194C274.966 143.25 274.984 143.306 275.008 143.359C274.964 143.467 274.945 143.583 274.953 143.7L274.953 143.7ZM274.953 139.85C274.953 140.065 274.463 140.571 273.149 141.022L272.791 141.137V141.137C271.166 141.582 269.487 141.797 267.803 141.775C263.084 141.775 260.652 140.428 260.652 139.85V138.2C260.773 138.266 260.9 138.332 261.032 138.392L261.329 138.524C261.687 138.673 262.055 138.8 262.429 138.904L262.731 138.991C263.089 139.085 263.468 139.173 263.831 139.25C264.073 139.294 264.321 139.338 264.574 139.371L264.964 139.426V139.426C265.906 139.535 266.854 139.584 267.802 139.575C269.641 139.596 271.474 139.359 273.247 138.871C273.396 138.832 273.543 138.787 273.687 138.733L274.045 138.601C274.281 138.513 274.49 138.42 274.683 138.326L274.82 138.255L274.952 138.183V139.173H274.953C274.944 139.23 274.944 139.287 274.953 139.344C274.966 139.4 274.984 139.456 275.008 139.509C274.964 139.617 274.945 139.733 274.953 139.85L274.953 139.85ZM288.153 144.8C288.153 145.35 285.722 146.725 281.003 146.725V146.725C279.523 146.739 278.046 146.578 276.603 146.246V144.09H276.558H276.559C276.59 143.963 276.604 143.831 276.603 143.7V144.09C278.05 144.386 279.525 144.532 281.003 144.525C283.753 144.525 286.47 144.047 288.153 143.122V144.8ZM288.153 140.95C288.153 141.5 285.722 142.875 281.003 142.875V142.875C279.523 142.889 278.046 142.728 276.603 142.396V140.24H276.558H276.559C276.59 140.113 276.604 139.981 276.603 139.85V140.24C278.05 140.536 279.525 140.682 281.003 140.675C283.753 140.675 286.47 140.197 288.153 139.272V140.95ZM288.153 137.1C288.153 137.65 285.722 139.025 281.003 139.025V139.025C279.523 139.039 278.046 138.878 276.603 138.546V136.39H276.558H276.559C276.59 136.263 276.604 136.131 276.603 136V136.39C278.05 136.689 279.525 136.835 281.003 136.825C283.753 136.825 286.47 136.346 288.153 135.422V137.1ZM288.153 133.25C288.153 133.8 285.722 135.175 281.003 135.175V135.175C279.284 135.198 277.571 134.974 275.915 134.509C275.32 133.974 274.617 133.575 273.853 133.338C273.856 133.312 273.856 133.286 273.853 133.261V131.611C275.536 132.496 278.253 132.975 281.003 132.975C283.753 132.975 286.47 132.496 288.153 131.572V133.25ZM288.153 129.4C288.153 129.95 285.722 131.325 281.003 131.325C276.284 131.325 273.853 129.978 273.853 129.4V127.75C275.536 128.646 278.253 129.125 281.003 129.125C283.753 129.125 286.47 128.646 288.153 127.722V129.4ZM288.153 125.55C288.153 126.1 285.722 127.475 281.003 127.475C276.284 127.475 273.853 126.128 273.853 125.55V123.9C275.536 124.796 278.253 125.275 281.003 125.275C283.753 125.275 286.47 124.796 288.153 123.872V125.55ZM281.003 123.625C276.284 123.625 273.853 122.277 273.853 121.699C273.853 121.122 276.284 119.775 281.003 119.775C285.722 119.775 288.153 121.122 288.153 121.7C288.153 122.277 285.722 123.625 281.003 123.625Z" fill="white"/>
<path d="M274.951 143.196C274.942 143.139 274.942 143.082 274.951 143.025V143.702C274.95 143.584 274.977 143.467 275.027 143.361C274.997 143.308 274.971 143.253 274.951 143.196V143.196ZM274.951 143.196C274.942 143.139 274.942 143.082 274.951 143.025V143.702C274.95 143.584 274.977 143.467 275.027 143.361C274.997 143.308 274.971 143.253 274.951 143.196V143.196ZM276.535 140.231H276.579L276.579 139.852C276.587 139.979 276.579 140.106 276.557 140.231H276.535ZM274.951 143.196C274.942 143.139 274.942 143.082 274.951 143.025V143.702C274.95 143.584 274.977 143.467 275.027 143.361C274.997 143.308 274.971 143.253 274.951 143.196V143.196ZM274.797 145.946L274.929 145.88L274.797 145.946ZM274.951 143.196C274.942 143.139 274.942 143.082 274.951 143.025V143.702C274.95 143.584 274.977 143.467 275.027 143.361C274.997 143.308 274.971 143.253 274.951 143.196V143.196Z" fill="white"/>
<path d="M274.951 139.344C274.942 139.288 274.942 139.23 274.951 139.174V139.85C274.95 139.732 274.977 139.616 275.027 139.509C274.997 139.457 274.971 139.402 274.951 139.344V139.344ZM274.951 139.344C274.942 139.288 274.942 139.23 274.951 139.174V139.85C274.95 139.732 274.977 139.616 275.027 139.509C274.997 139.457 274.971 139.402 274.951 139.344V139.344ZM276.535 136.379H276.579L276.579 136C276.587 136.127 276.579 136.254 276.557 136.379H276.535ZM274.951 139.344C274.942 139.288 274.942 139.23 274.951 139.174V139.85C274.95 139.732 274.977 139.616 275.027 139.509C274.997 139.457 274.971 139.402 274.951 139.344V139.344ZM274.797 142.094L274.929 142.028L274.797 142.094ZM274.951 139.344C274.942 139.288 274.942 139.23 274.951 139.174V139.85C274.95 139.732 274.977 139.616 275.027 139.509C274.997 139.457 274.971 139.402 274.951 139.344V139.344Z" fill="white"/>
<path d="M273.854 133.338C273.857 133.313 273.857 133.287 273.854 133.262C273.851 133.287 273.851 133.313 273.854 133.338Z" fill="white"/>
<path d="M276.603 136V136.391H276.559H276.559C276.59 136.263 276.605 136.132 276.603 136Z" fill="white"/>
<path d="M272.296 132.881C272.235 132.994 272.203 133.121 272.203 133.25V132.859L272.296 132.881Z" fill="white"/>
<path d="M276.603 143.701V144.092H276.559H276.559C276.59 143.964 276.605 143.833 276.603 143.701Z" fill="white"/>
<path d="M276.603 139.852V140.242H276.559H276.559C276.59 140.114 276.605 139.983 276.603 139.852Z" fill="white"/>
<path d="M308.871 135.813C308.917 135.865 308.945 135.931 308.953 136C308.947 135.964 308.947 135.926 308.953 135.89L308.871 135.813ZM308.871 135.813C308.917 135.865 308.945 135.931 308.953 136C308.947 135.964 308.947 135.926 308.953 135.89L308.871 135.813ZM308.794 135.725L308.827 135.769C308.838 135.786 308.853 135.801 308.871 135.813L308.794 135.725ZM308.871 135.813V135.813C308.917 135.865 308.945 135.931 308.953 136C308.947 135.964 308.947 135.926 308.953 135.89L308.871 135.813ZM308.821 138.26L308.953 138.194L308.821 138.26ZM308.821 135.725L308.854 135.769C308.866 135.786 308.881 135.801 308.898 135.813L308.821 135.725ZM306.203 132.859V133.25C306.203 133.121 306.235 132.994 306.296 132.881L306.203 132.859ZM308.871 135.813V135.813C308.917 135.865 308.945 135.931 308.953 136C308.947 135.964 308.947 135.926 308.953 135.89L308.871 135.813Z" fill="white"/>
<path d="M310.559 144.081H310.603L310.602 143.701C310.603 143.829 310.589 143.957 310.559 144.081Z" fill="white"/>
<path d="M323.803 121.568C323.806 121.552 323.806 121.535 323.803 121.518C323.577 119.319 319.282 118.125 315.003 118.125C310.724 118.125 306.45 119.291 306.202 121.518H306.203C306.2 121.535 306.2 121.552 306.203 121.568C306.199 121.612 306.199 121.656 306.203 121.7V132.859H306.296H306.296C306.234 132.972 306.202 133.099 306.203 133.228V132.837C304.754 132.549 303.279 132.411 301.802 132.425C297.545 132.425 293.25 133.591 293.002 135.818C292.999 135.835 292.999 135.851 293.002 135.868C292.999 135.912 292.999 135.956 293.002 136V147.55C293.002 149.898 297.402 151.125 301.802 151.125C305.933 151.125 310.113 150.025 310.564 147.93C312.024 148.232 313.512 148.381 315.002 148.375C319.26 148.375 323.555 147.209 323.803 144.981C323.808 144.921 323.808 144.86 323.803 144.8V121.7C323.805 121.656 323.805 121.612 323.803 121.568L323.803 121.568ZM301.802 134.075C303.487 134.053 305.166 134.268 306.791 134.713L307.061 134.801H307.132V134.801C307.745 134.965 308.31 135.273 308.782 135.698L308.859 135.786L308.953 135.868C308.947 135.904 308.947 135.942 308.953 135.978C308.953 136.193 308.463 136.699 307.149 137.15L306.791 137.265V137.265C305.167 137.718 303.488 137.94 301.803 137.925C297.084 137.925 294.652 136.578 294.652 136C294.652 135.423 297.084 134.075 301.803 134.075L301.802 134.075ZM308.953 147.55C308.953 148.1 306.521 149.475 301.802 149.475C297.083 149.475 294.652 148.128 294.652 147.55V145.9C294.773 145.966 294.9 146.032 295.032 146.093L295.329 146.225C295.687 146.375 296.054 146.502 296.429 146.604L296.731 146.692C297.089 146.791 297.468 146.873 297.831 146.95C298.073 146.995 298.321 147.038 298.574 147.071L298.964 147.126V147.126C299.906 147.235 300.854 147.284 301.802 147.275C303.796 147.308 305.783 147.024 307.687 146.433L308.045 146.301C308.276 146.213 308.49 146.12 308.683 146.026L308.82 145.955L308.952 145.883L308.953 147.55ZM308.953 143.7C308.953 143.915 308.463 144.421 307.149 144.872L307.148 144.871C305.417 145.403 303.613 145.657 301.802 145.625C297.084 145.625 294.652 144.278 294.652 143.7V142.05C294.773 142.116 294.9 142.182 295.032 142.242L295.329 142.374C295.687 142.525 296.054 142.652 296.429 142.754L296.731 142.842C297.089 142.941 297.468 143.023 297.831 143.1C298.073 143.145 298.321 143.188 298.574 143.221L298.964 143.276V143.277C299.906 143.385 300.854 143.434 301.802 143.425C303.641 143.446 305.474 143.209 307.247 142.721C307.396 142.682 307.543 142.637 307.687 142.583L308.045 142.451C308.276 142.363 308.49 142.27 308.683 142.176L308.82 142.105L308.952 142.033V143.023H308.953C308.944 143.08 308.944 143.137 308.953 143.194C308.966 143.25 308.984 143.306 309.008 143.359C308.964 143.467 308.945 143.583 308.953 143.7L308.953 143.7ZM308.953 139.85C308.953 140.065 308.463 140.571 307.149 141.022L306.791 141.137V141.137C305.166 141.582 303.487 141.797 301.803 141.775C297.084 141.775 294.652 140.428 294.652 139.85V138.2C294.773 138.266 294.9 138.332 295.032 138.392L295.329 138.524C295.687 138.673 296.055 138.8 296.429 138.904L296.731 138.991C297.089 139.085 297.468 139.173 297.831 139.25C298.073 139.294 298.321 139.338 298.574 139.371L298.964 139.426V139.426C299.906 139.535 300.854 139.584 301.802 139.575C303.641 139.596 305.474 139.359 307.247 138.871C307.396 138.832 307.543 138.787 307.687 138.733L308.045 138.601C308.281 138.513 308.49 138.42 308.683 138.326L308.82 138.255L308.952 138.183V139.173H308.953C308.944 139.23 308.944 139.287 308.953 139.344C308.966 139.4 308.984 139.456 309.008 139.509C308.964 139.617 308.945 139.733 308.953 139.85L308.953 139.85ZM322.153 144.8C322.153 145.35 319.722 146.725 315.003 146.725V146.725C313.523 146.739 312.046 146.578 310.603 146.246V144.09H310.558H310.559C310.59 143.963 310.604 143.831 310.603 143.7V144.09C312.05 144.386 313.525 144.532 315.003 144.525C317.753 144.525 320.47 144.047 322.153 143.122V144.8ZM322.153 140.95C322.153 141.5 319.722 142.875 315.003 142.875V142.875C313.523 142.889 312.046 142.728 310.603 142.396V140.24H310.558H310.559C310.59 140.113 310.604 139.981 310.603 139.85V140.24C312.05 140.536 313.525 140.682 315.003 140.675C317.753 140.675 320.47 140.197 322.153 139.272V140.95ZM322.153 137.1C322.153 137.65 319.722 139.025 315.003 139.025V139.025C313.523 139.039 312.046 138.878 310.603 138.546V136.39H310.558H310.559C310.59 136.263 310.604 136.131 310.603 136V136.39C312.05 136.689 313.525 136.835 315.003 136.825C317.753 136.825 320.47 136.346 322.153 135.422V137.1ZM322.153 133.25C322.153 133.8 319.722 135.175 315.003 135.175V135.175C313.284 135.198 311.571 134.974 309.915 134.509C309.32 133.974 308.617 133.575 307.853 133.338C307.856 133.312 307.856 133.286 307.853 133.261V131.611C309.536 132.496 312.253 132.975 315.003 132.975C317.753 132.975 320.47 132.496 322.153 131.572V133.25ZM322.153 129.4C322.153 129.95 319.722 131.325 315.003 131.325C310.284 131.325 307.853 129.978 307.853 129.4V127.75C309.536 128.646 312.253 129.125 315.003 129.125C317.753 129.125 320.47 128.646 322.153 127.722V129.4ZM322.153 125.55C322.153 126.1 319.722 127.475 315.003 127.475C310.284 127.475 307.853 126.128 307.853 125.55V123.9C309.536 124.796 312.253 125.275 315.003 125.275C317.753 125.275 320.47 124.796 322.153 123.872V125.55ZM315.003 123.625C310.284 123.625 307.853 122.277 307.853 121.699C307.853 121.122 310.284 119.775 315.003 119.775C319.722 119.775 322.153 121.122 322.153 121.7C322.153 122.277 319.722 123.625 315.003 123.625Z" fill="white"/>
<path d="M308.951 143.196C308.942 143.139 308.942 143.082 308.951 143.025V143.702C308.95 143.584 308.977 143.467 309.027 143.361C308.997 143.308 308.971 143.253 308.951 143.196V143.196ZM308.951 143.196C308.942 143.139 308.942 143.082 308.951 143.025V143.702C308.95 143.584 308.977 143.467 309.027 143.361C308.997 143.308 308.971 143.253 308.951 143.196V143.196ZM310.535 140.231H310.579L310.579 139.852C310.587 139.979 310.579 140.106 310.557 140.231H310.535ZM308.951 143.196C308.942 143.139 308.942 143.082 308.951 143.025V143.702C308.95 143.584 308.977 143.467 309.027 143.361C308.997 143.308 308.971 143.253 308.951 143.196V143.196ZM308.797 145.946L308.929 145.88L308.797 145.946ZM308.951 143.196C308.942 143.139 308.942 143.082 308.951 143.025V143.702C308.95 143.584 308.977 143.467 309.027 143.361C308.997 143.308 308.971 143.253 308.951 143.196V143.196Z" fill="white"/>
<path d="M308.951 139.344C308.942 139.288 308.942 139.23 308.951 139.174V139.85C308.95 139.732 308.977 139.616 309.027 139.509C308.997 139.457 308.971 139.402 308.951 139.344V139.344ZM308.951 139.344C308.942 139.288 308.942 139.23 308.951 139.174V139.85C308.95 139.732 308.977 139.616 309.027 139.509C308.997 139.457 308.971 139.402 308.951 139.344V139.344ZM310.535 136.379H310.579L310.579 136C310.587 136.127 310.579 136.254 310.557 136.379H310.535ZM308.951 139.344C308.942 139.288 308.942 139.23 308.951 139.174V139.85C308.95 139.732 308.977 139.616 309.027 139.509C308.997 139.457 308.971 139.402 308.951 139.344V139.344ZM308.797 142.094L308.929 142.028L308.797 142.094ZM308.951 139.344C308.942 139.288 308.942 139.23 308.951 139.174V139.85C308.95 139.732 308.977 139.616 309.027 139.509C308.997 139.457 308.971 139.402 308.951 139.344V139.344Z" fill="white"/>
<path d="M307.854 133.338C307.857 133.313 307.857 133.287 307.854 133.262C307.851 133.287 307.851 133.313 307.854 133.338Z" fill="white"/>
<path d="M310.603 136V136.391H310.559H310.559C310.59 136.263 310.605 136.132 310.603 136Z" fill="white"/>
<path d="M306.296 132.881C306.235 132.994 306.203 133.121 306.203 133.25V132.859L306.296 132.881Z" fill="white"/>
<path d="M310.603 143.701V144.092H310.559H310.559C310.59 143.964 310.605 143.833 310.603 143.701Z" fill="white"/>
<path d="M310.603 139.852V140.242H310.559H310.559C310.59 140.114 310.605 139.983 310.603 139.852Z" fill="white"/>
<path d="M15.8707 24.8131C15.9167 24.8653 15.9455 24.9305 15.9532 25C15.9474 24.9635 15.9474 24.9263 15.9532 24.8898L15.8707 24.8131ZM15.8707 24.8131C15.9167 24.8653 15.9455 24.9305 15.9532 25C15.9474 24.9635 15.9474 24.9263 15.9532 24.8898L15.8707 24.8131ZM15.7936 24.7249L15.8266 24.769C15.8381 24.7863 15.853 24.8012 15.8707 24.8131L15.7936 24.7249ZM15.8707 24.8127V24.8131C15.9167 24.8653 15.9455 24.9305 15.9532 25C15.9474 24.9635 15.9474 24.9263 15.9532 24.8898L15.8707 24.8127ZM15.8212 27.2605L15.9532 27.1945L15.8212 27.2605ZM15.8212 24.7249L15.8542 24.769C15.8657 24.7863 15.8806 24.8013 15.8979 24.8132L15.8212 24.7249ZM13.2031 21.8594V22.2499C13.2027 22.121 13.2346 21.9944 13.2964 21.8812L13.2031 21.8594ZM15.8707 24.8127V24.8131C15.9167 24.8653 15.9455 24.9305 15.9532 25C15.9474 24.9635 15.9474 24.9263 15.9532 24.8898L15.8707 24.8127Z" fill="white"/>
<path d="M17.5586 33.081H17.6027L17.6023 32.7012C17.6035 32.8293 17.5889 32.9567 17.5586 33.081Z" fill="white"/>
<path d="M30.8029 10.568C30.8056 10.5518 30.8056 10.535 30.8029 10.5185C30.5773 8.31862 26.2819 7.125 22.0025 7.125C17.7237 7.125 13.4501 8.29093 13.2022 10.5185H13.2026C13.1999 10.535 13.1999 10.5518 13.2026 10.568C13.1995 10.6121 13.1995 10.6562 13.2026 10.6999V21.8593H13.2962H13.2958C13.234 21.9724 13.2022 22.099 13.2026 22.228V21.8374C11.7539 21.5489 10.2795 21.4108 8.80238 21.425C4.5453 21.425 0.249912 22.5909 0.00201422 24.8184C-0.000671406 24.8349 -0.000671406 24.8514 0.00201422 24.8679C-0.000671406 24.912 -0.000671406 24.9558 0.00201422 24.9999V36.5501C0.00201422 38.8985 4.4022 40.125 8.80238 40.125C12.9329 40.125 17.1131 39.0251 17.564 36.9295C19.0237 37.2322 20.5116 37.3815 22.0024 37.375C26.2595 37.375 30.5549 36.209 30.8028 33.9815C30.8082 33.9209 30.8082 33.8603 30.8028 33.8V10.6996C30.8055 10.6558 30.8055 10.6117 30.8028 10.5676L30.8029 10.568ZM8.80249 23.0748C10.4871 23.0529 12.1664 23.2678 13.7912 23.7128L14.0605 23.8007H14.1319V23.8011C14.7453 23.9653 15.3105 24.2726 15.782 24.6977L15.8591 24.7855L15.9527 24.868C15.947 24.9045 15.947 24.9417 15.9527 24.9781C15.9527 25.1926 15.4632 25.6986 14.1488 26.1498L13.7912 26.2653V26.2649C12.1672 26.718 10.4879 26.9402 8.80253 26.9252C4.08354 26.9252 1.65229 25.5778 1.65229 25C1.65229 24.4226 4.08354 23.0748 8.80253 23.0748L8.80249 23.0748ZM15.9527 36.5501C15.9527 37.1002 13.5215 38.4753 8.80249 38.4753C4.08349 38.4753 1.65225 37.1279 1.65225 36.5501V34.8999C1.77311 34.9659 1.89971 35.0319 2.03169 35.0925L2.32864 35.2245C2.68658 35.3749 3.05413 35.5019 3.42895 35.604L3.73127 35.6918C4.08884 35.7908 4.46828 35.8733 4.83119 35.9504C5.07328 35.9945 5.32074 36.0382 5.57357 36.0712L5.96414 36.1261V36.1265C6.9064 36.2347 7.85401 36.2842 8.80239 36.275C10.7963 36.3083 12.7828 36.0244 14.6873 35.4332L15.0449 35.3012C15.2758 35.2134 15.4903 35.1198 15.6829 35.0262L15.8202 34.9548L15.9522 34.8834L15.9527 36.5501ZM15.9527 32.7001C15.9527 32.9146 15.4632 33.4206 14.1488 33.8718L14.1484 33.8714C12.4173 34.4028 10.613 34.6572 8.80249 34.6249C4.0835 34.6249 1.65226 33.2775 1.65226 32.6997V31.0496C1.77312 31.1156 1.89972 31.1816 2.0317 31.2422L2.32864 31.3741C2.68659 31.5249 3.05414 31.6515 3.42896 31.754L3.73128 31.8418C4.08885 31.9408 4.46828 32.0233 4.8312 32.1004C5.07329 32.1445 5.32075 32.1883 5.57358 32.2213L5.96415 32.2761V32.2765C6.90641 32.3847 7.85402 32.4342 8.8024 32.425C10.6413 32.4457 12.4744 32.209 14.2473 31.721C14.3962 31.6822 14.5431 31.6366 14.6874 31.5832L15.0449 31.4513C15.2759 31.3634 15.4904 31.2698 15.683 31.1762L15.8203 31.1048L15.9523 31.0335V32.0233H15.9527C15.9442 32.0797 15.9442 32.1372 15.9527 32.1936C15.9657 32.2504 15.9841 32.3056 16.0075 32.359C15.9642 32.4672 15.9454 32.5834 15.9527 32.6997L15.9527 32.7001ZM15.9527 28.8501C15.9527 29.0646 15.4632 29.5706 14.1488 30.0218L13.7912 30.1373V30.1369C12.1664 30.5824 10.4871 30.7972 8.80253 30.775C4.08353 30.775 1.65229 29.4275 1.65229 28.8497V27.1996C1.77315 27.2656 1.89975 27.3316 2.03173 27.3922L2.32867 27.5242C2.68739 27.673 3.05493 27.7996 3.42899 27.9036L3.73131 27.9915C4.08888 28.0851 4.46831 28.1729 4.83123 28.25C5.07332 28.2942 5.32078 28.3379 5.57361 28.3709L5.96418 28.4258V28.4261C6.90644 28.5347 7.85405 28.5842 8.80243 28.5746C10.6413 28.5957 12.4744 28.3586 14.2473 27.8706C14.3962 27.8322 14.5431 27.7866 14.6874 27.7333L15.045 27.6013C15.2813 27.5134 15.4904 27.4198 15.683 27.3262L15.8203 27.2548L15.9523 27.1835V28.1733H15.9527C15.9443 28.2297 15.9443 28.2872 15.9527 28.3436C15.9657 28.4004 15.9842 28.4557 16.0076 28.5086C15.9642 28.6168 15.9454 28.7334 15.9527 28.8497L15.9527 28.8501ZM29.153 33.8C29.153 34.3502 26.7217 35.7252 22.0027 35.7252V35.7249C20.5226 35.7387 19.0455 35.5783 17.6026 35.2464V33.0903H17.5584H17.5588C17.5899 32.9625 17.6045 32.8313 17.6026 32.6997V33.0903C19.0505 33.3861 20.5253 33.5315 22.0027 33.525C24.7528 33.525 27.4698 33.0466 29.153 32.1224V33.8ZM29.153 29.95C29.153 30.5002 26.7217 31.8753 22.0027 31.8753V31.8749C20.5226 31.8887 19.0455 31.7279 17.6026 31.3965V29.2403H17.5584H17.5588C17.5899 29.1126 17.6045 28.9814 17.6026 28.8498V29.2403C19.0505 29.5361 20.5253 29.6815 22.0027 29.675C24.7528 29.675 27.4698 29.1966 29.153 28.2724V29.95ZM29.153 26.1001C29.153 26.6502 26.7217 28.0253 22.0027 28.0253V28.0249C20.5226 28.0387 19.0455 27.878 17.6026 27.5465V25.3904H17.5584H17.5588C17.5899 25.2626 17.6045 25.1314 17.6026 24.9998V25.3904C19.0501 25.6888 20.5249 25.8346 22.0027 25.8247C24.7528 25.8247 27.4698 25.3462 29.153 24.422V26.1001ZM29.153 22.2501C29.153 22.8003 26.7217 24.1753 22.0027 24.1753V24.1749C20.284 24.1983 18.5706 23.9739 16.915 23.5093C16.3204 22.9745 15.6167 22.5747 14.8525 22.3376C14.8556 22.3123 14.8556 22.2862 14.8525 22.2608V20.6107C16.5356 21.4962 19.2527 21.9746 22.0027 21.9746C24.7528 21.9746 27.4698 21.4962 29.153 20.572V22.2501ZM29.153 18.4001C29.153 18.9503 26.7217 20.3253 22.0027 20.3253C17.2837 20.3253 14.8525 18.9779 14.8525 18.4001V16.75C16.5356 17.6462 19.2527 18.1246 22.0027 18.1246C24.7528 18.1246 27.4698 17.6462 29.153 16.722V18.4001ZM29.153 14.5501C29.153 15.1003 26.7217 16.4754 22.0027 16.4754C17.2837 16.4754 14.8525 15.1279 14.8525 14.5501V12.9C16.5356 13.7962 19.2527 14.2746 22.0027 14.2746C24.7528 14.2746 27.4698 13.7962 29.153 12.872V14.5501ZM22.0027 12.6246C17.2837 12.6246 14.8525 11.2772 14.8525 10.6994C14.8525 10.122 17.2837 8.77453 22.0027 8.77453C26.7217 8.77453 29.153 10.122 29.153 10.6998C29.153 11.2772 26.7217 12.6246 22.0027 12.6246Z" fill="white"/>
<path d="M15.9507 32.1956C15.9423 32.1392 15.9423 32.0816 15.9507 32.0252V32.7016C15.9503 32.5838 15.9768 32.4672 16.0275 32.3609C15.9968 32.3083 15.9711 32.2531 15.9507 32.1955V32.1956ZM15.9507 32.1956C15.9423 32.1392 15.9423 32.0816 15.9507 32.0252V32.7016C15.9503 32.5838 15.9768 32.4672 16.0275 32.3609C15.9968 32.3083 15.9711 32.2531 15.9507 32.1955V32.1956ZM17.5349 29.231H17.579L17.5786 28.8516C17.587 28.9786 17.5794 29.1059 17.5567 29.231H17.5349ZM15.9507 32.1956C15.9423 32.1392 15.9423 32.0816 15.9507 32.0252V32.7016C15.9503 32.5838 15.9768 32.4672 16.0275 32.3609C15.9968 32.3083 15.9711 32.2531 15.9507 32.1955V32.1956ZM15.7969 34.9456L15.9289 34.8796L15.7969 34.9456ZM15.9507 32.1956C15.9423 32.1392 15.9423 32.0816 15.9507 32.0252V32.7016C15.9503 32.5838 15.9768 32.4672 16.0275 32.3609C15.9968 32.3083 15.9711 32.2531 15.9507 32.1955V32.1956Z" fill="white"/>
<path d="M15.9507 28.344C15.9423 28.2876 15.9423 28.23 15.9507 28.1737V28.85C15.9503 28.7323 15.9768 28.6156 16.0275 28.509C15.9968 28.4568 15.9711 28.4015 15.9507 28.344V28.344ZM15.9507 28.344C15.9423 28.2876 15.9423 28.23 15.9507 28.1737V28.85C15.9503 28.7323 15.9768 28.6156 16.0275 28.509C15.9968 28.4568 15.9711 28.4015 15.9507 28.344V28.344ZM17.5349 25.3794H17.579L17.5786 25C17.587 25.127 17.5794 25.2544 17.5567 25.3794H17.5349ZM15.9507 28.344C15.9423 28.2876 15.9423 28.23 15.9507 28.1737V28.85C15.9503 28.7323 15.9768 28.6156 16.0275 28.509C15.9968 28.4568 15.9711 28.4015 15.9507 28.344V28.344ZM15.7969 31.094L15.9289 31.0281L15.7969 31.094ZM15.9507 28.344C15.9423 28.2876 15.9423 28.23 15.9507 28.1737V28.85C15.9503 28.7323 15.9768 28.6156 16.0275 28.509C15.9968 28.4568 15.9711 28.4015 15.9507 28.344V28.344Z" fill="white"/>
<path d="M14.8539 22.3385C14.8569 22.3131 14.8569 22.287 14.8539 22.2617C14.8508 22.287 14.8508 22.3131 14.8539 22.3385Z" fill="white"/>
<path d="M17.6027 25V25.3906H17.5586H17.559C17.5901 25.2628 17.6046 25.1316 17.6027 25Z" fill="white"/>
<path d="M13.2964 21.8812C13.2346 21.9944 13.2027 22.121 13.2031 22.2499V21.8594L13.2964 21.8812Z" fill="white"/>
<path d="M17.6027 32.7012V33.0917H17.5586H17.559C17.5901 32.964 17.6046 32.8328 17.6027 32.7012Z" fill="white"/>
<path d="M17.6027 28.8516V29.2421H17.5586H17.559C17.5901 29.1144 17.6046 28.9832 17.6027 28.8516Z" fill="white"/>
<path d="M35.8707 40.8131C35.9167 40.8653 35.9455 40.9305 35.9532 41C35.9474 40.9635 35.9474 40.9263 35.9532 40.8898L35.8707 40.8131ZM35.8707 40.8131C35.9167 40.8653 35.9455 40.9305 35.9532 41C35.9474 40.9635 35.9474 40.9263 35.9532 40.8898L35.8707 40.8131ZM35.7936 40.7249L35.8266 40.769C35.8381 40.7863 35.853 40.8012 35.8707 40.8131L35.7936 40.7249ZM35.8707 40.8127V40.8131C35.9167 40.8653 35.9455 40.9305 35.9532 41C35.9474 40.9635 35.9474 40.9263 35.9532 40.8898L35.8707 40.8127ZM35.8212 43.2605L35.9532 43.1945L35.8212 43.2605ZM35.8212 40.7249L35.8542 40.769C35.8657 40.7863 35.8806 40.8013 35.8979 40.8132L35.8212 40.7249ZM33.2031 37.8594V38.2499C33.2027 38.121 33.2346 37.9944 33.2964 37.8812L33.2031 37.8594ZM35.8707 40.8127V40.8131C35.9167 40.8653 35.9455 40.9305 35.9532 41C35.9474 40.9635 35.9474 40.9263 35.9532 40.8898L35.8707 40.8127Z" fill="white"/>
<path d="M37.5586 49.081H37.6027L37.6023 48.7012C37.6035 48.8293 37.5889 48.9567 37.5586 49.081Z" fill="white"/>
<path d="M50.8029 26.568C50.8056 26.5518 50.8056 26.535 50.8029 26.5185C50.5773 24.3186 46.2819 23.125 42.0025 23.125C37.7237 23.125 33.4501 24.2909 33.2022 26.5185H33.2026C33.1999 26.535 33.1999 26.5518 33.2026 26.568C33.1995 26.6121 33.1995 26.6562 33.2026 26.6999V37.8593H33.2962H33.2958C33.234 37.9724 33.2022 38.099 33.2026 38.228V37.8374C31.7539 37.5489 30.2795 37.4108 28.8024 37.425C24.5453 37.425 20.2499 38.5909 20.002 40.8184C19.9993 40.8349 19.9993 40.8514 20.002 40.8679C19.9993 40.912 19.9993 40.9558 20.002 40.9999V52.5501C20.002 54.8985 24.4022 56.125 28.8024 56.125C32.9329 56.125 37.1131 55.0251 37.564 52.9295C39.0237 53.2322 40.5116 53.3815 42.0024 53.375C46.2595 53.375 50.5549 52.209 50.8028 49.9815C50.8082 49.9209 50.8082 49.8603 50.8028 49.8V26.6996C50.8055 26.6558 50.8055 26.6117 50.8028 26.5676L50.8029 26.568ZM28.8025 39.0748C30.4871 39.0529 32.1664 39.2678 33.7912 39.7128L34.0605 39.8007H34.1319V39.8011C34.7453 39.9653 35.3105 40.2726 35.782 40.6977L35.8591 40.7855L35.9527 40.868C35.947 40.9045 35.947 40.9417 35.9527 40.9781C35.9527 41.1926 35.4632 41.6986 34.1488 42.1498L33.7912 42.2653V42.2649C32.1672 42.718 30.4879 42.9402 28.8025 42.9252C24.0835 42.9252 21.6523 41.5778 21.6523 41C21.6523 40.4226 24.0835 39.0748 28.8025 39.0748L28.8025 39.0748ZM35.9527 52.5501C35.9527 53.1002 33.5215 54.4753 28.8025 54.4753C24.0835 54.4753 21.6523 53.1279 21.6523 52.5501V50.8999C21.7731 50.9659 21.8997 51.0319 22.0317 51.0925L22.3286 51.2245C22.6866 51.3749 23.0541 51.5019 23.429 51.604L23.7313 51.6918C24.0888 51.7908 24.4683 51.8733 24.8312 51.9504C25.0733 51.9945 25.3207 52.0382 25.5736 52.0712L25.9641 52.1261V52.1265C26.9064 52.2347 27.854 52.2842 28.8024 52.275C30.7963 52.3083 32.7828 52.0244 34.6873 51.4332L35.0449 51.3012C35.2758 51.2134 35.4903 51.1198 35.6829 51.0262L35.8202 50.9548L35.9522 50.8834L35.9527 52.5501ZM35.9527 48.7001C35.9527 48.9146 35.4632 49.4206 34.1488 49.8718L34.1484 49.8714C32.4173 50.4028 30.613 50.6572 28.8025 50.6249C24.0835 50.6249 21.6523 49.2775 21.6523 48.6997V47.0496C21.7731 47.1156 21.8997 47.1816 22.0317 47.2422L22.3286 47.3741C22.6866 47.5249 23.0541 47.6515 23.429 47.754L23.7313 47.8418C24.0888 47.9408 24.4683 48.0233 24.8312 48.1004C25.0733 48.1445 25.3208 48.1883 25.5736 48.2213L25.9641 48.2761V48.2765C26.9064 48.3847 27.854 48.4342 28.8024 48.425C30.6413 48.4457 32.4744 48.209 34.2473 47.721C34.3962 47.6822 34.5431 47.6366 34.6874 47.5832L35.0449 47.4513C35.2759 47.3634 35.4904 47.2698 35.683 47.1762L35.8203 47.1048L35.9523 47.0335V48.0233H35.9527C35.9442 48.0797 35.9442 48.1372 35.9527 48.1936C35.9657 48.2504 35.9841 48.3056 36.0075 48.359C35.9642 48.4672 35.9454 48.5834 35.9527 48.6997L35.9527 48.7001ZM35.9527 44.8501C35.9527 45.0646 35.4632 45.5706 34.1488 46.0218L33.7912 46.1373V46.1369C32.1664 46.5824 30.4871 46.7972 28.8025 46.775C24.0835 46.775 21.6523 45.4275 21.6523 44.8497V43.1996C21.7731 43.2656 21.8997 43.3316 22.0317 43.3922L22.3287 43.5242C22.6874 43.673 23.0549 43.7996 23.429 43.9036L23.7313 43.9915C24.0889 44.0851 24.4683 44.1729 24.8312 44.25C25.0733 44.2942 25.3208 44.3379 25.5736 44.3709L25.9642 44.4258V44.4261C26.9064 44.5347 27.8541 44.5842 28.8024 44.5746C30.6413 44.5957 32.4744 44.3586 34.2473 43.8706C34.3962 43.8322 34.5431 43.7866 34.6874 43.7333L35.045 43.6013C35.2813 43.5134 35.4904 43.4198 35.683 43.3262L35.8203 43.2548L35.9523 43.1835V44.1733H35.9527C35.9443 44.2297 35.9443 44.2872 35.9527 44.3436C35.9657 44.4004 35.9842 44.4557 36.0076 44.5086C35.9642 44.6168 35.9454 44.7334 35.9527 44.8497L35.9527 44.8501ZM49.153 49.8C49.153 50.3502 46.7217 51.7252 42.0027 51.7252V51.7249C40.5226 51.7387 39.0455 51.5783 37.6026 51.2464V49.0903H37.5584H37.5588C37.5899 48.9625 37.6045 48.8313 37.6026 48.6997V49.0903C39.0505 49.3861 40.5253 49.5315 42.0027 49.525C44.7528 49.525 47.4698 49.0466 49.153 48.1224V49.8ZM49.153 45.95C49.153 46.5002 46.7217 47.8753 42.0027 47.8753V47.8749C40.5226 47.8887 39.0455 47.7279 37.6026 47.3965V45.2403H37.5584H37.5588C37.5899 45.1126 37.6045 44.9814 37.6026 44.8498V45.2403C39.0505 45.5361 40.5253 45.6815 42.0027 45.675C44.7528 45.675 47.4698 45.1966 49.153 44.2724V45.95ZM49.153 42.1001C49.153 42.6502 46.7217 44.0253 42.0027 44.0253V44.0249C40.5226 44.0387 39.0455 43.878 37.6026 43.5465V41.3904H37.5584H37.5588C37.5899 41.2626 37.6045 41.1314 37.6026 40.9998V41.3904C39.0501 41.6888 40.5249 41.8346 42.0027 41.8247C44.7528 41.8247 47.4698 41.3462 49.153 40.422V42.1001ZM49.153 38.2501C49.153 38.8003 46.7217 40.1753 42.0027 40.1753V40.1749C40.284 40.1983 38.5706 39.9739 36.915 39.5093C36.3204 38.9745 35.6167 38.5747 34.8525 38.3376C34.8556 38.3123 34.8556 38.2862 34.8525 38.2608V36.6107C36.5356 37.4962 39.2527 37.9746 42.0027 37.9746C44.7528 37.9746 47.4698 37.4962 49.153 36.572V38.2501ZM49.153 34.4001C49.153 34.9503 46.7217 36.3253 42.0027 36.3253C37.2837 36.3253 34.8525 34.9779 34.8525 34.4001V32.75C36.5356 33.6462 39.2527 34.1246 42.0027 34.1246C44.7528 34.1246 47.4698 33.6462 49.153 32.722V34.4001ZM49.153 30.5501C49.153 31.1003 46.7217 32.4754 42.0027 32.4754C37.2837 32.4754 34.8525 31.1279 34.8525 30.5501V28.9C36.5356 29.7962 39.2527 30.2746 42.0027 30.2746C44.7528 30.2746 47.4698 29.7962 49.153 28.872V30.5501ZM42.0027 28.6246C37.2837 28.6246 34.8525 27.2772 34.8525 26.6994C34.8525 26.122 37.2837 24.7745 42.0027 24.7745C46.7217 24.7745 49.153 26.122 49.153 26.6998C49.153 27.2772 46.7217 28.6246 42.0027 28.6246Z" fill="white"/>
<path d="M35.9507 48.1956C35.9423 48.1392 35.9423 48.0816 35.9507 48.0252V48.7016C35.9503 48.5838 35.9768 48.4672 36.0275 48.3609C35.9968 48.3083 35.9711 48.2531 35.9507 48.1955V48.1956ZM35.9507 48.1956C35.9423 48.1392 35.9423 48.0816 35.9507 48.0252V48.7016C35.9503 48.5838 35.9768 48.4672 36.0275 48.3609C35.9968 48.3083 35.9711 48.2531 35.9507 48.1955V48.1956ZM37.5349 45.231H37.579L37.5786 44.8516C37.587 44.9786 37.5794 45.1059 37.5567 45.231H37.5349ZM35.9507 48.1956C35.9423 48.1392 35.9423 48.0816 35.9507 48.0252V48.7016C35.9503 48.5838 35.9768 48.4672 36.0275 48.3609C35.9968 48.3083 35.9711 48.2531 35.9507 48.1955V48.1956ZM35.7969 50.9456L35.9289 50.8796L35.7969 50.9456ZM35.9507 48.1956C35.9423 48.1392 35.9423 48.0816 35.9507 48.0252V48.7016C35.9503 48.5838 35.9768 48.4672 36.0275 48.3609C35.9968 48.3083 35.9711 48.2531 35.9507 48.1955V48.1956Z" fill="white"/>
<path d="M35.9507 44.344C35.9423 44.2876 35.9423 44.23 35.9507 44.1737V44.85C35.9503 44.7323 35.9768 44.6156 36.0275 44.509C35.9968 44.4568 35.9711 44.4015 35.9507 44.344V44.344ZM35.9507 44.344C35.9423 44.2876 35.9423 44.23 35.9507 44.1737V44.85C35.9503 44.7323 35.9768 44.6156 36.0275 44.509C35.9968 44.4568 35.9711 44.4015 35.9507 44.344V44.344ZM37.5349 41.3794H37.579L37.5786 41C37.587 41.127 37.5794 41.2544 37.5567 41.3794H37.5349ZM35.9507 44.344C35.9423 44.2876 35.9423 44.23 35.9507 44.1737V44.85C35.9503 44.7323 35.9768 44.6156 36.0275 44.509C35.9968 44.4568 35.9711 44.4015 35.9507 44.344V44.344ZM35.7969 47.094L35.9289 47.0281L35.7969 47.094ZM35.9507 44.344C35.9423 44.2876 35.9423 44.23 35.9507 44.1737V44.85C35.9503 44.7323 35.9768 44.6156 36.0275 44.509C35.9968 44.4568 35.9711 44.4015 35.9507 44.344V44.344Z" fill="white"/>
<path d="M34.8539 38.3385C34.8569 38.3131 34.8569 38.287 34.8539 38.2617C34.8508 38.287 34.8508 38.3131 34.8539 38.3385Z" fill="white"/>
<path d="M37.6027 41V41.3906H37.5586H37.559C37.5901 41.2628 37.6046 41.1316 37.6027 41Z" fill="white"/>
<path d="M33.2964 37.8812C33.2346 37.9944 33.2027 38.121 33.2031 38.2499V37.8594L33.2964 37.8812Z" fill="white"/>
<path d="M37.6027 48.7012V49.0917H37.5586H37.559C37.5901 48.964 37.6046 48.8328 37.6027 48.7012Z" fill="white"/>
<path d="M37.6027 44.8516V45.2421H37.5586H37.559C37.5901 45.1144 37.6046 44.9832 37.6027 44.8516Z" fill="white"/>
<path d="M37.8707 179.813C37.9167 179.865 37.9455 179.931 37.9532 180C37.9474 179.964 37.9474 179.926 37.9532 179.89L37.8707 179.813ZM37.8707 179.813C37.9167 179.865 37.9455 179.931 37.9532 180C37.9474 179.964 37.9474 179.926 37.9532 179.89L37.8707 179.813ZM37.7936 179.725L37.8266 179.769C37.8381 179.786 37.853 179.801 37.8707 179.813L37.7936 179.725ZM37.8707 179.813V179.813C37.9167 179.865 37.9455 179.931 37.9532 180C37.9474 179.964 37.9474 179.926 37.9532 179.89L37.8707 179.813ZM37.8212 182.26L37.9532 182.194L37.8212 182.26ZM37.8212 179.725L37.8542 179.769C37.8657 179.786 37.8806 179.801 37.8979 179.813L37.8212 179.725ZM35.2031 176.859V177.25C35.2027 177.121 35.2346 176.994 35.2964 176.881L35.2031 176.859ZM37.8707 179.813V179.813C37.9167 179.865 37.9455 179.931 37.9532 180C37.9474 179.964 37.9474 179.926 37.9532 179.89L37.8707 179.813Z" fill="white"/>
<path d="M39.5586 188.081H39.6027L39.6023 187.701C39.6035 187.829 39.5889 187.957 39.5586 188.081Z" fill="white"/>
<path d="M52.8029 165.568C52.8056 165.552 52.8056 165.535 52.8029 165.518C52.5773 163.319 48.2819 162.125 44.0025 162.125C39.7237 162.125 35.4501 163.291 35.2022 165.518H35.2026C35.1999 165.535 35.1999 165.552 35.2026 165.568C35.1995 165.612 35.1995 165.656 35.2026 165.7V176.859H35.2962H35.2958C35.234 176.972 35.2022 177.099 35.2026 177.228V176.837C33.7539 176.549 32.2795 176.411 30.8024 176.425C26.5453 176.425 22.2499 177.591 22.002 179.818C21.9993 179.835 21.9993 179.851 22.002 179.868C21.9993 179.912 21.9993 179.956 22.002 180V191.55C22.002 193.898 26.4022 195.125 30.8024 195.125C34.9329 195.125 39.1131 194.025 39.564 191.93C41.0237 192.232 42.5116 192.381 44.0024 192.375C48.2595 192.375 52.5549 191.209 52.8028 188.981C52.8082 188.921 52.8082 188.86 52.8028 188.8V165.7C52.8055 165.656 52.8055 165.612 52.8028 165.568L52.8029 165.568ZM30.8025 178.075C32.4871 178.053 34.1664 178.268 35.7912 178.713L36.0605 178.801H36.1319V178.801C36.7453 178.965 37.3105 179.273 37.782 179.698L37.8591 179.786L37.9527 179.868C37.947 179.904 37.947 179.942 37.9527 179.978C37.9527 180.193 37.4632 180.699 36.1488 181.15L35.7912 181.265V181.265C34.1672 181.718 32.4879 181.94 30.8025 181.925C26.0835 181.925 23.6523 180.578 23.6523 180C23.6523 179.423 26.0835 178.075 30.8025 178.075L30.8025 178.075ZM37.9527 191.55C37.9527 192.1 35.5215 193.475 30.8025 193.475C26.0835 193.475 23.6523 192.128 23.6523 191.55V189.9C23.7731 189.966 23.8997 190.032 24.0317 190.093L24.3286 190.225C24.6866 190.375 25.0541 190.502 25.429 190.604L25.7313 190.692C26.0888 190.791 26.4683 190.873 26.8312 190.95C27.0733 190.995 27.3207 191.038 27.5736 191.071L27.9641 191.126V191.126C28.9064 191.235 29.854 191.284 30.8024 191.275C32.7963 191.308 34.7828 191.024 36.6873 190.433L37.0449 190.301C37.2758 190.213 37.4903 190.12 37.6829 190.026L37.8202 189.955L37.9522 189.883L37.9527 191.55ZM37.9527 187.7C37.9527 187.915 37.4632 188.421 36.1488 188.872L36.1484 188.871C34.4173 189.403 32.613 189.657 30.8025 189.625C26.0835 189.625 23.6523 188.278 23.6523 187.7V186.05C23.7731 186.116 23.8997 186.182 24.0317 186.242L24.3286 186.374C24.6866 186.525 25.0541 186.652 25.429 186.754L25.7313 186.842C26.0888 186.941 26.4683 187.023 26.8312 187.1C27.0733 187.145 27.3208 187.188 27.5736 187.221L27.9641 187.276V187.277C28.9064 187.385 29.854 187.434 30.8024 187.425C32.6413 187.446 34.4744 187.209 36.2473 186.721C36.3962 186.682 36.5431 186.637 36.6874 186.583L37.0449 186.451C37.2759 186.363 37.4904 186.27 37.683 186.176L37.8203 186.105L37.9523 186.033V187.023H37.9527C37.9442 187.08 37.9442 187.137 37.9527 187.194C37.9657 187.25 37.9841 187.306 38.0075 187.359C37.9642 187.467 37.9454 187.583 37.9527 187.7L37.9527 187.7ZM37.9527 183.85C37.9527 184.065 37.4632 184.571 36.1488 185.022L35.7912 185.137V185.137C34.1664 185.582 32.4871 185.797 30.8025 185.775C26.0835 185.775 23.6523 184.428 23.6523 183.85V182.2C23.7731 182.266 23.8997 182.332 24.0317 182.392L24.3287 182.524C24.6874 182.673 25.0549 182.8 25.429 182.904L25.7313 182.991C26.0889 183.085 26.4683 183.173 26.8312 183.25C27.0733 183.294 27.3208 183.338 27.5736 183.371L27.9642 183.426V183.426C28.9064 183.535 29.8541 183.584 30.8024 183.575C32.6413 183.596 34.4744 183.359 36.2473 182.871C36.3962 182.832 36.5431 182.787 36.6874 182.733L37.045 182.601C37.2813 182.513 37.4904 182.42 37.683 182.326L37.8203 182.255L37.9523 182.183V183.173H37.9527C37.9443 183.23 37.9443 183.287 37.9527 183.344C37.9657 183.4 37.9842 183.456 38.0076 183.509C37.9642 183.617 37.9454 183.733 37.9527 183.85L37.9527 183.85ZM51.153 188.8C51.153 189.35 48.7217 190.725 44.0027 190.725V190.725C42.5226 190.739 41.0455 190.578 39.6026 190.246V188.09H39.5584H39.5588C39.5899 187.963 39.6045 187.831 39.6026 187.7V188.09C41.0505 188.386 42.5253 188.532 44.0027 188.525C46.7528 188.525 49.4698 188.047 51.153 187.122V188.8ZM51.153 184.95C51.153 185.5 48.7217 186.875 44.0027 186.875V186.875C42.5226 186.889 41.0455 186.728 39.6026 186.396V184.24H39.5584H39.5588C39.5899 184.113 39.6045 183.981 39.6026 183.85V184.24C41.0505 184.536 42.5253 184.682 44.0027 184.675C46.7528 184.675 49.4698 184.197 51.153 183.272V184.95ZM51.153 181.1C51.153 181.65 48.7217 183.025 44.0027 183.025V183.025C42.5226 183.039 41.0455 182.878 39.6026 182.546V180.39H39.5584H39.5588C39.5899 180.263 39.6045 180.131 39.6026 180V180.39C41.0501 180.689 42.5249 180.835 44.0027 180.825C46.7528 180.825 49.4698 180.346 51.153 179.422V181.1ZM51.153 177.25C51.153 177.8 48.7217 179.175 44.0027 179.175V179.175C42.284 179.198 40.5706 178.974 38.915 178.509C38.3204 177.974 37.6167 177.575 36.8525 177.338C36.8556 177.312 36.8556 177.286 36.8525 177.261V175.611C38.5356 176.496 41.2527 176.975 44.0027 176.975C46.7528 176.975 49.4698 176.496 51.153 175.572V177.25ZM51.153 173.4C51.153 173.95 48.7217 175.325 44.0027 175.325C39.2837 175.325 36.8525 173.978 36.8525 173.4V171.75C38.5356 172.646 41.2527 173.125 44.0027 173.125C46.7528 173.125 49.4698 172.646 51.153 171.722V173.4ZM51.153 169.55C51.153 170.1 48.7217 171.475 44.0027 171.475C39.2837 171.475 36.8525 170.128 36.8525 169.55V167.9C38.5356 168.796 41.2527 169.275 44.0027 169.275C46.7528 169.275 49.4698 168.796 51.153 167.872V169.55ZM44.0027 167.625C39.2837 167.625 36.8525 166.277 36.8525 165.699C36.8525 165.122 39.2837 163.775 44.0027 163.775C48.7217 163.775 51.153 165.122 51.153 165.7C51.153 166.277 48.7217 167.625 44.0027 167.625Z" fill="white"/>
<path d="M37.9507 187.196C37.9423 187.139 37.9423 187.082 37.9507 187.025V187.702C37.9503 187.584 37.9768 187.467 38.0275 187.361C37.9968 187.308 37.9711 187.253 37.9507 187.196V187.196ZM37.9507 187.196C37.9423 187.139 37.9423 187.082 37.9507 187.025V187.702C37.9503 187.584 37.9768 187.467 38.0275 187.361C37.9968 187.308 37.9711 187.253 37.9507 187.196V187.196ZM39.5349 184.231H39.579L39.5786 183.852C39.587 183.979 39.5794 184.106 39.5567 184.231H39.5349ZM37.9507 187.196C37.9423 187.139 37.9423 187.082 37.9507 187.025V187.702C37.9503 187.584 37.9768 187.467 38.0275 187.361C37.9968 187.308 37.9711 187.253 37.9507 187.196V187.196ZM37.7969 189.946L37.9289 189.88L37.7969 189.946ZM37.9507 187.196C37.9423 187.139 37.9423 187.082 37.9507 187.025V187.702C37.9503 187.584 37.9768 187.467 38.0275 187.361C37.9968 187.308 37.9711 187.253 37.9507 187.196V187.196Z" fill="white"/>
<path d="M37.9507 183.344C37.9423 183.288 37.9423 183.23 37.9507 183.174V183.85C37.9503 183.732 37.9768 183.616 38.0275 183.509C37.9968 183.457 37.9711 183.402 37.9507 183.344V183.344ZM37.9507 183.344C37.9423 183.288 37.9423 183.23 37.9507 183.174V183.85C37.9503 183.732 37.9768 183.616 38.0275 183.509C37.9968 183.457 37.9711 183.402 37.9507 183.344V183.344ZM39.5349 180.379H39.579L39.5786 180C39.587 180.127 39.5794 180.254 39.5567 180.379H39.5349ZM37.9507 183.344C37.9423 183.288 37.9423 183.23 37.9507 183.174V183.85C37.9503 183.732 37.9768 183.616 38.0275 183.509C37.9968 183.457 37.9711 183.402 37.9507 183.344V183.344ZM37.7969 186.094L37.9289 186.028L37.7969 186.094ZM37.9507 183.344C37.9423 183.288 37.9423 183.23 37.9507 183.174V183.85C37.9503 183.732 37.9768 183.616 38.0275 183.509C37.9968 183.457 37.9711 183.402 37.9507 183.344V183.344Z" fill="white"/>
<path d="M36.8539 177.338C36.8569 177.313 36.8569 177.287 36.8539 177.262C36.8508 177.287 36.8508 177.313 36.8539 177.338Z" fill="white"/>
<path d="M39.6027 180V180.391H39.5586H39.559C39.5901 180.263 39.6046 180.132 39.6027 180Z" fill="white"/>
<path d="M35.2964 176.881C35.2346 176.994 35.2027 177.121 35.2031 177.25V176.859L35.2964 176.881Z" fill="white"/>
<path d="M39.6027 187.701V188.092H39.5586H39.559C39.5901 187.964 39.6046 187.833 39.6027 187.701Z" fill="white"/>
<path d="M39.6027 183.852V184.242H39.5586H39.559C39.5901 184.114 39.6046 183.983 39.6027 183.852Z" fill="white"/>
<path d="M123.963 53.0181H95.5067L109.735 18.0513L123.963 53.0181ZM70.2436 46.6126H41.787L56.0153 11.6458L70.2436 46.6126ZM126.107 53.0181L111.256 16.5194C112.546 15.9857 113.524 14.7982 113.706 13.3121C113.976 11.1183 112.416 9.12018 110.22 8.85144L85.1138 5.77061V3.12806C85.1138 1.46938 83.7694 0.125 82.1114 0.125C80.4534 0.125 79.109 1.46935 79.109 3.12806V5.03254L56.5789 2.26616C54.3824 1.99597 52.387 3.55646 52.1169 5.75154C51.8928 7.58027 52.9406 9.26796 54.5644 9.93737L39.6409 46.6131H38C38 54.1038 46.066 60.1746 56.0157 60.1746C65.9657 60.1746 74.0313 54.1027 74.0313 46.6131H72.3904L57.683 10.4671L79.1098 13.0985V77.1883H64.8987C62.6872 77.1883 60.8948 78.9808 60.8948 81.1911C60.8948 83.4019 62.6872 85.1951 64.8987 85.1951H100.93C103.141 85.1951 104.932 83.4026 104.932 81.1923C104.932 78.9814 103.141 77.1895 100.93 77.1895H85.1156V13.8352L108.155 16.6637L93.3634 53.0172H91.7212C91.7212 60.5072 99.7885 66.578 109.737 66.578C119.687 66.578 127.753 60.5061 127.753 53.0172L126.107 53.0181Z" fill="white"/>
<path d="M271.963 140.018H243.507L257.735 105.051L271.963 140.018ZM218.244 133.613H189.787L204.015 98.6458L218.244 133.613ZM274.107 140.018L259.256 103.519C260.546 102.986 261.524 101.798 261.706 100.312C261.976 98.1183 260.416 96.1202 258.22 95.8514L233.114 92.7706V90.1281C233.114 88.4694 231.769 87.125 230.111 87.125C228.453 87.125 227.109 88.4694 227.109 90.1281V92.0325L204.579 89.2662C202.382 88.996 200.387 90.5565 200.117 92.7515C199.893 94.5803 200.941 96.268 202.564 96.9374L187.641 133.613H186C186 141.104 194.066 147.175 204.016 147.175C213.966 147.175 222.031 141.103 222.031 133.613H220.39L205.683 97.4671L227.11 100.099V164.188H212.899C210.687 164.188 208.895 165.981 208.895 168.191C208.895 170.402 210.687 172.195 212.899 172.195H248.93C251.141 172.195 252.932 170.403 252.932 168.192C252.932 165.981 251.141 164.189 248.93 164.189H233.116V100.835L256.155 103.664L241.363 140.017H239.721C239.721 147.507 247.789 153.578 257.737 153.578C267.687 153.578 275.753 147.506 275.753 140.017L274.107 140.018Z" fill="white"/>
<path d="M123.963 205.018H95.5067L109.735 170.051L123.963 205.018ZM70.2436 198.613H41.787L56.0153 163.646L70.2436 198.613ZM126.107 205.018L111.256 168.519C112.546 167.986 113.524 166.798 113.706 165.312C113.976 163.118 112.416 161.12 110.22 160.851L85.1138 157.771V155.128C85.1138 153.469 83.7694 152.125 82.1114 152.125C80.4534 152.125 79.109 153.469 79.109 155.128V157.033L56.5789 154.266C54.3824 153.996 52.387 155.556 52.1169 157.752C51.8928 159.58 52.9406 161.268 54.5644 161.937L39.6409 198.613H38C38 206.104 46.066 212.175 56.0157 212.175C65.9657 212.175 74.0313 206.103 74.0313 198.613H72.3904L57.683 162.467L79.1098 165.099V229.188H64.8987C62.6872 229.188 60.8948 230.981 60.8948 233.191C60.8948 235.402 62.6872 237.195 64.8987 237.195H100.93C103.141 237.195 104.932 235.403 104.932 233.192C104.932 230.981 103.141 229.189 100.93 229.189H85.1156V165.835L108.155 168.664L93.3634 205.017H91.7212C91.7212 212.507 99.7885 218.578 109.737 218.578C119.687 218.578 127.753 212.506 127.753 205.017L126.107 205.018Z" fill="white"/>
</svg>
