<svg width="341" height="200" viewBox="0 0 341 200" fill="none" xmlns="http://www.w3.org/2000/svg">
<path d="M221.14 162.382C216.542 169.303 210.062 173.228 201.702 174.156C193.342 175.084 186.806 171.623 182.094 163.774C177.382 155.925 177.762 148.752 183.234 142.256C188.706 135.76 195.641 131.603 204.039 129.786C212.438 127.969 218.537 131.217 222.337 139.53C226.137 147.843 225.738 155.461 221.14 162.382Z" fill="#1EE7CA"/>
<path d="M213.851 147.832L214.799 147.131C215.174 146.865 215.63 146.745 216.085 146.792C216.54 146.84 216.963 147.052 217.276 147.39V147.39C217.59 147.737 217.797 148.168 217.873 148.632C217.949 149.095 217.89 149.571 217.703 150.002L216.052 153.842C215.916 154.204 215.699 154.53 215.417 154.793C215.136 155.056 214.797 155.25 214.429 155.358L212.655 155.57L211.65 160.274C211.353 161.666 210.645 162.935 209.619 163.912L206.479 166.888C205.649 167.677 204.554 168.116 203.415 168.117H200.711C199.587 168.105 198.506 167.682 197.666 166.926L192.856 162.587C192.032 161.854 191.402 160.923 191.025 159.88L190.076 157.192L189.44 155.349H187.932C187.316 155.347 186.712 155.178 186.182 154.859C185.653 154.539 185.219 154.082 184.924 153.534L183.378 150.654C183.11 150.155 182.968 149.597 182.965 149.03C182.962 148.462 183.097 147.902 183.359 147.4L183.435 147.218C183.536 147.025 183.675 146.855 183.844 146.72C184.014 146.584 184.209 146.486 184.418 146.431C184.626 146.376 184.844 146.365 185.057 146.4C185.27 146.434 185.474 146.513 185.655 146.632L187.363 147.774L186.186 142.974L189.725 131.358L213.851 133.797L214.951 143.147L213.851 147.832Z" fill="white"/>
<path d="M202.761 146.642V147.16C202.759 147.732 202.801 148.303 202.884 148.869L204.136 157.058C204.156 157.191 204.139 157.327 204.088 157.452C204.037 157.577 203.953 157.685 203.846 157.766C203.739 157.846 203.613 157.896 203.48 157.91C203.348 157.924 203.214 157.902 203.093 157.845L201.461 157.077" stroke="black" stroke-linecap="round" stroke-linejoin="round"/>
<path d="M190.074 157.163L191.023 159.88C191.393 160.932 192.02 161.873 192.844 162.616L197.664 166.926C198.516 167.693 199.617 168.116 200.757 168.117H202.341" stroke="black" stroke-linecap="round" stroke-linejoin="round"/>
<path d="M213.127 153.419L211.666 160.235C211.369 161.628 210.661 162.897 209.636 163.873L206.477 166.888C205.647 167.677 204.551 168.116 203.412 168.117H202.293" stroke="black" stroke-linecap="round" stroke-linejoin="round"/>
<path d="M214.875 129.506L214.088 128.69L214.819 127.24C204.791 121.403 195.986 124.36 195.986 124.36L196.356 121.96C194.302 122.81 192.319 123.828 190.427 125.003C187.615 126.702 185.438 129.295 184.236 132.378C183.035 135.461 182.877 138.86 183.786 142.043L185.038 146.44C185.258 146.469 185.469 146.548 185.655 146.67L187.363 147.813V141.39L191.309 141.458L190.01 133.778C193.023 136.543 196.946 138.076 201.015 138.078H208.177V134.238L209.591 134.882C210.737 135.399 211.717 136.231 212.419 137.283C213.122 138.335 213.519 139.565 213.566 140.834L213.794 146.642L213.87 147.832L214.819 147.131C215.203 146.845 215.684 146.724 216.156 146.795L217.769 141.16C218.351 139.132 218.389 136.984 217.881 134.937C217.372 132.889 216.335 131.014 214.875 129.506V129.506Z" fill="black" stroke="black" stroke-linecap="round" stroke-linejoin="round"/>
<path d="M216.156 146.795L217.769 141.16C218.357 139.136 218.403 136.991 217.903 134.943C217.403 132.896 216.374 131.019 214.923 129.506L214.135 128.69L214.819 127.24C204.791 121.403 195.986 124.36 195.986 124.36L196.356 121.96C194.302 122.81 192.319 123.828 190.427 125.003C187.615 126.702 185.438 129.295 184.236 132.378C183.035 135.461 182.877 138.86 183.786 142.043L185.038 146.44" stroke="white" stroke-linecap="round" stroke-linejoin="round"/>
<path d="M184.676 148.139C185.406 148.139 186.469 149.099 187.569 151.979" stroke="black" stroke-linecap="round" stroke-linejoin="round"/>
<path d="M192.151 147.563L192.246 147.832C192.246 147.832 194.57 144.568 199.836 144.568V142.648C199.836 142.648 194.883 142.456 192.303 146.258C192.178 146.448 192.099 146.665 192.072 146.892C192.046 147.119 192.073 147.349 192.151 147.563V147.563Z" fill="black" stroke="black" stroke-linecap="round" stroke-linejoin="round"/>
<path d="M211.41 146.92C208.659 144.568 203.82 144.606 203.82 144.606V142.686C203.82 142.686 208.564 142.514 211.201 145.509C211.373 145.696 211.483 145.933 211.513 146.186C211.544 146.44 211.495 146.697 211.372 146.92H211.41Z" fill="black" stroke="black" stroke-linecap="round" stroke-linejoin="round"/>
<path d="M196.688 150.952C197.264 150.952 197.732 150.372 197.732 149.656C197.732 148.94 197.264 148.36 196.688 148.36C196.112 148.36 195.645 148.94 195.645 149.656C195.645 150.372 196.112 150.952 196.688 150.952Z" fill="black" stroke="black" stroke-linecap="round" stroke-linejoin="round"/>
<path d="M206.922 150.952C207.499 150.952 207.966 150.372 207.966 149.656C207.966 148.94 207.499 148.36 206.922 148.36C206.346 148.36 205.879 148.94 205.879 149.656C205.879 150.372 206.346 150.952 206.922 150.952Z" fill="black" stroke="black" stroke-linecap="round" stroke-linejoin="round"/>
<path d="M199.125 159.774C199.969 160.463 201.02 160.839 202.104 160.839C203.188 160.839 204.239 160.463 205.083 159.774" stroke="black" stroke-linecap="round" stroke-linejoin="round"/>
<path d="M187.361 147.775L185.654 146.632C185.473 146.514 185.269 146.435 185.056 146.4C184.843 146.365 184.625 146.376 184.416 146.431C184.208 146.486 184.012 146.584 183.843 146.72C183.674 146.855 183.535 147.025 183.434 147.218L183.358 147.4C183.09 147.903 182.949 148.466 182.949 149.037C182.949 149.608 183.09 150.171 183.358 150.674L184.904 153.554C185.199 154.101 185.633 154.559 186.162 154.878C186.691 155.197 187.296 155.366 187.912 155.368H189.401" stroke="black" stroke-linecap="round" stroke-linejoin="round"/>
<path d="M213.852 147.832L214.8 147.131C215.175 146.865 215.631 146.745 216.086 146.792C216.541 146.84 216.964 147.052 217.276 147.39V147.39C217.591 147.737 217.798 148.168 217.874 148.632C217.95 149.095 217.891 149.571 217.703 150.002L216.053 153.842C215.917 154.204 215.699 154.53 215.418 154.793C215.136 155.056 214.798 155.25 214.43 155.358" stroke="black" stroke-linecap="round" stroke-linejoin="round"/>
<path d="M153.541 132.151C149.981 139.918 144.181 143.111 136.141 141.728C128.101 140.345 120.961 136.462 114.721 130.077C108.481 123.692 108.321 117.003 114.241 110.008C120.161 103.013 127.081 99.5363 135.001 99.577C142.921 99.6177 148.881 103.115 152.881 110.069C156.881 117.023 157.101 124.384 153.541 132.151Z" fill="#C882FF"/>
<path d="M131.294 112.355C133.373 113.603 132.363 116.219 130.936 119.257C130.799 119.551 130.665 119.835 130.545 120.103C130.476 120.254 130.474 120.425 130.539 120.577C130.604 120.729 130.729 120.847 130.884 120.902L134.471 122.189C134.532 122.211 134.594 122.222 134.654 122.224C134.903 122.231 135.139 122.079 135.228 121.832C135.338 121.524 135.178 121.186 134.871 121.076L131.892 120.007C131.93 119.926 131.969 119.843 132.008 119.759C133.226 117.163 135.068 113.24 131.904 111.34C129.724 110.031 125.667 109.631 123.332 111.149C123.058 111.327 122.98 111.693 123.158 111.967C123.336 112.241 123.702 112.318 123.977 112.141C125.889 110.896 129.417 111.227 131.294 112.355L131.294 112.355Z" fill="black"/>
<path d="M136.205 111.557C135.95 111.762 135.91 112.135 136.115 112.389C136.321 112.643 136.693 112.682 136.947 112.479C138.454 111.264 141.85 111.573 143.382 112.7C143.482 112.774 143.599 112.812 143.715 112.815C143.902 112.82 144.089 112.737 144.208 112.574C144.402 112.311 144.346 111.941 144.083 111.747C142.174 110.343 138.164 109.978 136.205 111.557L136.205 111.557Z" fill="black"/>
<path d="M138.533 123.813C135.749 124.578 132.478 124.538 128.81 123.695C128.493 123.619 128.174 123.82 128.101 124.139C128.028 124.457 128.227 124.775 128.545 124.848C130.329 125.259 132.028 125.487 133.634 125.533C135.504 125.587 137.246 125.394 138.846 124.953C139.162 124.866 139.346 124.541 139.26 124.226C139.173 123.911 138.849 123.725 138.533 123.813L138.533 123.813Z" fill="black"/>
<path d="M148.162 99.856C147.876 99.5197 147.008 98.8992 146.614 98.6257C146.173 97.428 143.637 91.2048 138.12 89.6767C134.69 88.7257 130.834 88.7789 127.266 89.8248C122.766 91.1433 119.039 95.1878 117.538 100.38C116.057 105.507 117.913 111.008 119.723 115.256C119.558 120.611 120.674 125.003 123.05 128.305C125.301 131.432 128.814 133.2 132.797 133.315C133.811 133.344 134.856 133.266 135.918 133.075C141.268 132.117 145.565 128.458 146.864 123.75C147.424 121.724 147.708 119.534 147.725 117.241C149.049 116.001 149.289 113.269 149.45 111.427C149.473 111.161 149.494 110.921 149.516 110.717C149.562 110.289 149.618 109.85 149.675 109.403C150.078 106.24 150.535 102.655 148.162 99.8563L148.162 99.856ZM145.723 123.435C144.545 127.706 140.613 131.033 135.709 131.911C130.936 132.766 126.562 131.159 124.011 127.613C121.77 124.5 120.725 120.31 120.906 115.158C120.966 113.446 121.093 111.738 121.215 110.086C121.323 108.639 121.425 107.273 121.479 105.959C121.487 105.76 121.507 105.57 121.537 105.39C121.919 103.09 124.063 102.185 126.333 101.226C127.062 100.919 127.817 100.6 128.499 100.233C129.447 99.7221 130.37 99.1998 131.257 98.6701C130.55 99.7477 129.605 101.006 128.923 101.851C128.782 102.028 128.753 102.271 128.85 102.476C128.947 102.681 129.138 102.798 129.38 102.814C131.593 102.829 134.078 101.795 135.67 100.992L134.11 104.252C134.024 104.433 134.035 104.644 134.139 104.815C134.244 104.987 134.427 105.093 134.627 105.099C136.593 105.155 142.481 104.304 144.427 104.012C144.634 105.627 145.334 108.811 145.93 111.383C146.331 113.113 146.545 115.042 146.55 116.963C146.556 119.252 146.278 121.43 145.723 123.435L145.723 123.435Z" fill="black"/>
<path d="M128.56 114.033C128.56 114.584 128.113 115.031 127.561 115.031C127.009 115.031 126.562 114.584 126.562 114.033C126.562 113.481 127.009 113.034 127.561 113.034C128.113 113.034 128.56 113.481 128.56 114.033Z" fill="black"/>
<path d="M140.357 114.372C140.357 114.924 139.909 115.371 139.358 115.371C138.806 115.371 138.359 114.924 138.359 114.372C138.359 113.82 138.806 113.374 139.358 113.374C139.909 113.374 140.357 113.82 140.357 114.372Z" fill="black"/>
<path d="M199.65 101.791C192.902 107.444 185.012 108.834 175.979 105.96C166.946 103.086 162.336 97.3179 162.149 88.6548C161.961 79.9916 164.904 73.2322 170.977 68.3767C177.051 63.5212 185.036 61.5526 194.932 62.4709C204.828 63.3892 209.775 68.759 209.774 78.5803C209.773 88.4016 206.398 96.1387 199.65 101.791Z" fill="#FF59A3"/>
<g clip-path="url(#clip0_1701_112081)">
<path d="M179.314 64.3557C184.194 63.6267 189.172 63.8817 193.95 65.1057C194.815 65.3115 195.653 65.6181 196.446 66.0191C197.373 65.1598 198.192 64.1911 198.883 63.1345C199.514 62.2221 199.915 61.1719 200.051 60.073C200.188 58.9741 200.056 57.8586 199.667 56.8211C199.278 55.7835 198.643 54.8544 197.816 54.1123C196.99 53.3702 195.995 52.8369 194.917 52.5576C191.67 51.7216 188.316 51.3652 184.964 51.4999C183.759 51.5269 182.579 51.8432 181.524 52.4217C180.469 53.0003 179.571 53.824 178.906 54.8225C178.24 55.821 177.828 56.9646 177.704 58.1558C177.58 59.3471 177.747 60.5505 178.192 61.6634L179.314 64.3557Z" fill="#FF57A4"/>
<path d="M181.829 52.2788C180.156 53.1105 178.858 54.537 178.194 56.2753C177.529 58.0137 177.546 59.9368 178.241 61.6634L179.314 64.3557" stroke="black" stroke-linecap="round" stroke-linejoin="round"/>
<path d="M193.951 65.1057C194.816 65.3115 195.654 65.6181 196.447 66.0191C197.375 65.1598 198.193 64.1911 198.885 63.1345C199.516 62.2221 199.916 61.1719 200.053 60.073C200.189 58.9741 200.057 57.8586 199.668 56.8211C199.279 55.7835 198.644 54.8544 197.818 54.1123C196.991 53.3702 195.996 52.8369 194.919 52.5576C191.671 51.7216 188.317 51.3652 184.965 51.4999" stroke="black" stroke-linecap="round" stroke-linejoin="round"/>
<path d="M195.66 55.9805C195.66 55.9805 198.901 58.4612 195.66 63.2497" stroke="black" stroke-linecap="round" stroke-linejoin="round"/>
<path d="M172.562 81.769C172.562 81.769 172.233 87.3363 173.616 90.894C174.999 94.4517 174.1 95.817 177.021 99.2113C178.066 100.42 179.204 101.545 180.426 102.577C181.028 103.078 181.761 103.4 182.539 103.507C183.317 103.615 184.11 103.502 184.827 103.182C187.337 102.105 189.73 100.775 191.966 99.2113C195.835 96.3844 196.803 94.2017 196.803 91.8651V90.4228C196.803 90.4228 198.737 90.7209 200.004 87.8459C201.272 84.9709 202.461 81.394 200.585 81.394C198.708 81.394 197.48 83.4036 197.48 83.4036C197.48 83.4036 190.215 82.7305 191.182 74.0767C188.723 75.0004 186.009 75.0004 183.55 74.0767C179.468 72.5286 178.433 67.9517 178.433 67.9517C177.457 68.4094 176.638 69.1437 176.081 70.0624C175.523 70.9811 175.251 72.0432 175.299 73.1151C175.421 76.2277 174.454 79.2861 172.562 81.769V81.769Z" fill="white"/>
<path d="M173.618 90.8651C173.433 90.3822 173.281 89.8875 173.163 89.3843C172.434 89.2036 171.726 88.9423 171.055 88.6055V88.6055C171.055 88.6055 171.055 90.7209 172.409 91.2016C172.62 91.2806 172.845 91.3146 173.07 91.3013C173.295 91.2881 173.515 91.2279 173.715 91.1247C173.676 91.0382 173.647 90.9516 173.618 90.8651Z" fill="white"/>
<path d="M172.562 81.769C172.562 81.769 172.233 87.3364 173.616 90.894C174.999 94.4517 174.1 95.8171 177.021 99.2113C178.066 100.42 179.204 101.545 180.426 102.577C181.028 103.078 181.761 103.4 182.539 103.508C183.317 103.615 184.11 103.502 184.827 103.183C187.337 102.106 189.73 100.775 191.966 99.2113C195.835 96.3844 196.803 94.2017 196.803 91.8652" stroke="black" stroke-linecap="round" stroke-linejoin="round"/>
<path d="M196.842 90.4228C196.842 90.4228 198.776 90.7209 200.044 87.8459C201.311 84.9709 202.501 81.394 200.624 81.394C198.747 81.394 197.519 83.4036 197.519 83.4036C197.519 83.4036 190.216 82.7305 191.183 74.0767C188.724 75.0004 186.01 75.0004 183.551 74.0767" stroke="black" stroke-linecap="round" stroke-linejoin="round"/>
<path d="M202.239 74.4039L202.394 73.6443C202.981 70.7885 202.429 67.8176 200.853 65.3594C199.277 62.9012 196.802 61.1483 193.949 60.4712C185.437 58.452 179.043 59.3558 174.651 60.8846C172.535 61.6304 170.761 63.1119 169.657 65.0558C168.553 66.9996 168.193 69.2748 168.644 71.4616L169.051 73.3846C169.388 75.077 169.185 76.8318 168.47 78.4039C166.536 82.8462 167.145 87.7885 173.162 89.327C172.631 86.7989 172.43 84.2137 172.562 81.6346C174.454 79.1517 175.422 76.0934 175.299 72.9808C175.249 71.8998 175.524 70.8285 176.089 69.9036C176.654 68.9788 177.484 68.2424 178.472 67.7885C178.472 67.7885 179.507 72.3654 183.589 73.9135C186.017 74.8805 188.715 74.9386 191.183 74.077C190.216 82.7308 197.519 83.4423 197.519 83.4423C197.519 83.4423 198.747 81.4327 200.624 81.4327C201.533 81.4327 201.707 82.2885 201.504 83.5C205.557 78.2404 202.239 74.4039 202.239 74.4039Z" fill="#FF57A4"/>
<path d="M181.829 59.4136C179.383 59.5982 176.971 60.0926 174.651 60.8847C172.535 61.6305 170.761 63.112 169.657 65.0558C168.553 66.9997 168.193 69.2749 168.644 71.4617L169.051 73.3847C169.388 75.0771 169.185 76.8319 168.47 78.404C166.536 82.8463 167.145 87.7886 173.162 89.327C172.631 86.799 172.43 84.2138 172.562 81.6347C174.454 79.1518 175.422 76.0935 175.299 72.9809C175.261 71.6149 175.718 70.2807 176.586 69.2213" stroke="black" stroke-linecap="round" stroke-linejoin="round"/>
<path d="M178.473 67.9135C178.473 67.9135 179.508 72.4904 183.59 74.0385C186.033 74.965 188.731 74.9787 191.183 74.077C190.216 82.7308 197.519 83.4423 197.519 83.4423C197.519 83.4423 198.748 81.4327 200.624 81.4327C201.534 81.4327 201.708 82.2885 201.505 83.5C205.548 78.2404 202.23 74.4039 202.23 74.4039L202.385 73.6443C202.972 70.7885 202.42 67.8176 200.844 65.3594C199.268 62.9012 196.792 61.1483 193.94 60.4712" stroke="black" stroke-linecap="round" stroke-linejoin="round"/>
<path d="M181.307 84.6538C181.307 84.6538 181.897 90.423 180.165 93.9807C180.11 94.0949 180.084 94.2213 180.091 94.348C180.098 94.4747 180.137 94.5976 180.205 94.7052C180.272 94.8128 180.366 94.9015 180.478 94.9632C180.589 95.0248 180.715 95.0573 180.842 95.0577H182.564" stroke="black" stroke-linecap="round" stroke-linejoin="round"/>
<path d="M186.873 87.1858C187.346 87.1046 187.641 86.5211 187.53 85.8827C187.419 85.2443 186.945 84.7926 186.471 84.8738C185.997 84.9551 185.703 85.5386 185.814 86.177C185.925 86.8154 186.399 87.2671 186.873 87.1858Z" fill="black"/>
<path d="M186.873 87.1858C187.346 87.1046 187.641 86.5211 187.53 85.8827C187.419 85.2443 186.945 84.7926 186.471 84.8738C185.997 84.9551 185.703 85.5386 185.814 86.177C185.925 86.8154 186.399 87.2671 186.873 87.1858Z" stroke="black" stroke-linecap="round" stroke-linejoin="round"/>
<path d="M177.841 87.0037C178.315 86.9224 178.609 86.339 178.499 85.7006C178.388 85.0621 177.914 84.6105 177.44 84.6917C176.966 84.773 176.672 85.3564 176.783 85.9949C176.894 86.6333 177.367 87.085 177.841 87.0037Z" fill="black"/>
<path d="M177.841 87.0037C178.315 86.9224 178.609 86.339 178.499 85.7006C178.388 85.0621 177.914 84.6105 177.44 84.6917C176.966 84.773 176.672 85.3564 176.783 85.9949C176.894 86.6333 177.367 87.085 177.841 87.0037Z" stroke="black" stroke-linecap="round" stroke-linejoin="round"/>
<path d="M197.953 86.2017C197.953 86.2017 198.611 83.8652 199.965 83.1729" stroke="black" stroke-linecap="round" stroke-linejoin="round"/>
<path d="M171.055 88.6055C171.055 88.6055 171.055 90.7305 172.409 91.2016" stroke="black" stroke-linecap="round" stroke-linejoin="round"/>
<path d="M174.09 83.942C174.597 82.9932 175.373 82.2137 176.323 81.7008C177.272 81.1878 178.353 80.964 179.429 81.0574V79.9805C178.25 80.059 177.119 80.4747 176.171 81.1776C175.224 81.8804 174.501 82.8404 174.09 83.942V83.942Z" fill="black"/>
<path d="M174.09 83.942C174.597 82.9932 175.373 82.2137 176.323 81.7008C177.272 81.1878 178.353 80.964 179.429 81.0574V79.9805C178.25 80.059 177.119 80.4747 176.171 81.1776C175.224 81.8804 174.501 82.8404 174.09 83.942V83.942Z" stroke="black" stroke-linecap="round" stroke-linejoin="round"/>
<path d="M191.182 82.8172C190.184 82.052 189.041 81.4943 187.821 81.1771C186.601 80.8599 185.33 80.7899 184.082 80.9711V80.0095C184.082 80.0095 188.89 79.6922 191.182 82.8172Z" fill="black"/>
<path d="M191.182 82.8172C190.184 82.052 189.041 81.4943 187.821 81.1771C186.601 80.8599 185.33 80.7899 184.082 80.9711V80.0095C184.082 80.0095 188.89 79.6922 191.182 82.8172Z" stroke="black" stroke-linecap="round" stroke-linejoin="round"/>
<path d="M178.473 67.9132C177.99 66.4305 177.729 64.885 177.699 63.3267" stroke="black" stroke-linecap="round" stroke-linejoin="round"/>
<path d="M181.828 69.269C181.828 69.269 183.25 72.7498 188.435 72.0094" stroke="black" stroke-linecap="round" stroke-linejoin="round"/>
<path d="M172.564 81.769C172.007 82.6379 171.28 83.3867 170.426 83.971" stroke="black" stroke-linecap="round" stroke-linejoin="round"/>
<path d="M180.621 97.1538C180.621 97.1538 182.498 98.5769 185.458 97.1538" stroke="black" stroke-linecap="round" stroke-linejoin="round"/>
</g>
<path d="M245 158H320C331.598 158 341 167.402 341 179C341 190.598 331.598 200 320 200H275C258.431 200 245 186.569 245 170V158Z" fill="#1EE7CA"/>
<path d="M96 127H21C9.40202 127 0 117.598 0 106C0 94.402 9.40202 85 21 85H66C82.5685 85 96 98.4315 96 115V127Z" fill="#C882FF"/>
<path d="M200 42H275C286.598 42 296 32.598 296 21C296 9.40202 286.598 0 275 0H230C213.431 0 200 13.4315 200 30V42Z" fill="#FF59A3"/>
<path d="M273.14 183H275.72L279.04 177.26H279.18V183H282V172.84H279.4L276.12 178.56H275.96V172.84H273.14V183ZM286.873 180.52C287.733 179.32 287.973 176.66 287.993 175.34H290.093V180.52H286.873ZM286.013 183H291.773L291.973 185.64H294.493V180.52H292.933V172.84H285.713C285.653 176.48 285.333 179.3 284.133 180.52H283.273V185.64H285.813L286.013 183ZM300.498 183.2C301.878 183.2 303.098 182.9 303.798 182.44V180.02C302.958 180.56 301.858 180.76 300.738 180.76C299.178 180.76 298.398 179.96 298.298 178.44H304.018C304.098 178.18 304.218 177.54 304.218 176.82C304.218 174 302.458 172.64 299.938 172.64C297.038 172.64 295.218 174.66 295.218 177.96C295.218 181.48 297.158 183.2 300.498 183.2ZM298.178 176.76C298.298 175.62 298.798 174.84 299.858 174.84C300.878 174.84 301.458 175.52 301.518 176.76H298.178ZM310.113 177.82C309.073 177.82 308.573 177.16 308.573 176.44C308.573 175.76 309.073 175.06 310.113 175.06H311.173V177.82H310.113ZM311.173 179.88V183H314.013V172.84H309.673C306.733 172.84 305.653 174.68 305.653 176.22C305.653 177.76 306.473 178.82 307.873 179.26L305.193 183H308.353L310.613 179.88H311.173Z" fill="white"/>
<path d="M27.14 111H29.72L33.04 105.26H33.18V111H36V100.84H33.4L30.12 106.56H29.96V100.84H27.14V111ZM40.8728 108.52C41.7328 107.32 41.9728 104.66 41.9928 103.34H44.0928V108.52H40.8728ZM40.0128 111H45.7728L45.9728 113.64H48.4928V108.52H46.9328V100.84H39.7128C39.6528 104.48 39.3328 107.3 38.1328 108.52H37.2728V113.64H39.8128L40.0128 111ZM54.4981 111.2C55.8781 111.2 57.0981 110.9 57.7981 110.44V108.02C56.9581 108.56 55.8581 108.76 54.7381 108.76C53.1781 108.76 52.3981 107.96 52.2981 106.44H58.0181C58.0981 106.18 58.2181 105.54 58.2181 104.82C58.2181 102 56.4581 100.64 53.9381 100.64C51.0381 100.64 49.2181 102.66 49.2181 105.96C49.2181 109.48 51.1581 111.2 54.4981 111.2ZM52.1781 104.76C52.2981 103.62 52.7981 102.84 53.8581 102.84C54.8781 102.84 55.4581 103.52 55.5181 104.76H52.1781ZM64.1134 105.82C63.0734 105.82 62.5734 105.16 62.5734 104.44C62.5734 103.76 63.0734 103.06 64.1134 103.06H65.1734V105.82H64.1134ZM65.1734 107.88V111H68.0134V100.84H63.6734C60.7334 100.84 59.6534 102.68 59.6534 104.22C59.6534 105.76 60.4734 106.82 61.8734 107.26L59.1934 111H62.3534L64.6134 107.88H65.1734Z" fill="white"/>
<path d="M228.14 27H230.72L234.04 21.26H234.18V27H237V16.84H234.4L231.12 22.56H230.96V16.84H228.14V27ZM241.873 24.52C242.733 23.32 242.973 20.66 242.993 19.34H245.093V24.52H241.873ZM241.013 27H246.773L246.973 29.64H249.493V24.52H247.933V16.84H240.713C240.653 20.48 240.333 23.3 239.133 24.52H238.273V29.64H240.813L241.013 27ZM255.498 27.2C256.878 27.2 258.098 26.9 258.798 26.44V24.02C257.958 24.56 256.858 24.76 255.738 24.76C254.178 24.76 253.398 23.96 253.298 22.44H259.018C259.098 22.18 259.218 21.54 259.218 20.82C259.218 18 257.458 16.64 254.938 16.64C252.038 16.64 250.218 18.66 250.218 21.96C250.218 25.48 252.158 27.2 255.498 27.2ZM253.178 20.76C253.298 19.62 253.798 18.84 254.858 18.84C255.878 18.84 256.458 19.52 256.518 20.76H253.178ZM265.113 21.82C264.073 21.82 263.573 21.16 263.573 20.44C263.573 19.76 264.073 19.06 265.113 19.06H266.173V21.82H265.113ZM266.173 23.88V27H269.013V16.84H264.673C261.733 16.84 260.653 18.68 260.653 20.22C260.653 21.76 261.473 22.82 262.873 23.26L260.193 27H263.353L265.613 23.88H266.173Z" fill="white"/>
<defs>
<clipPath id="clip0_1701_112081">
<rect width="37" height="53" fill="white" transform="translate(167 51)"/>
</clipPath>
</defs>
</svg>
