<svg width="312" height="122" viewBox="0 0 312 122" fill="none" xmlns="http://www.w3.org/2000/svg">
<path d="M0 0H75C86.598 0 96 9.40202 96 21C96 32.598 86.598 42 75 42H30C13.4315 42 0 28.5685 0 12V0Z" fill="#FF59A3"/>
<path d="M28.14 25H30.72L34.04 19.26H34.18V25H37V14.84H34.4L31.12 20.56H30.96V14.84H28.14V25ZM41.8728 22.52C42.7328 21.32 42.9728 18.66 42.9928 17.34H45.0928V22.52H41.8728ZM41.0128 25H46.7728L46.9728 27.64H49.4928V22.52H47.9328V14.84H40.7128C40.6528 18.48 40.3328 21.3 39.1328 22.52H38.2728V27.64H40.8128L41.0128 25ZM55.4981 25.2C56.8781 25.2 58.0981 24.9 58.7981 24.44V22.02C57.9581 22.56 56.8581 22.76 55.7381 22.76C54.1781 22.76 53.3981 21.96 53.2981 20.44H59.0181C59.0981 20.18 59.2181 19.54 59.2181 18.82C59.2181 16 57.4581 14.64 54.9381 14.64C52.0381 14.64 50.2181 16.66 50.2181 19.96C50.2181 23.48 52.1581 25.2 55.4981 25.2ZM53.1781 18.76C53.2981 17.62 53.7981 16.84 54.8581 16.84C55.8781 16.84 56.4581 17.52 56.5181 18.76H53.1781ZM65.1134 19.82C64.0734 19.82 63.5734 19.16 63.5734 18.44C63.5734 17.76 64.0734 17.06 65.1134 17.06H66.1734V19.82H65.1134ZM66.1734 21.88V25H69.0134V14.84H64.6734C61.7334 14.84 60.6534 16.68 60.6534 18.22C60.6534 19.76 61.4734 20.82 62.8734 21.26L60.1934 25H63.3534L65.6134 21.88H66.1734Z" fill="white"/>
<path d="M108 0H183C194.598 0 204 9.40202 204 21C204 32.598 194.598 42 183 42H138C121.431 42 108 28.5685 108 12V0Z" fill="#C882FF"/>
<path d="M136.14 25H138.72L142.04 19.26H142.18V25H145V14.84H142.4L139.12 20.56H138.96V14.84H136.14V25ZM149.873 22.52C150.733 21.32 150.973 18.66 150.993 17.34H153.093V22.52H149.873ZM149.013 25H154.773L154.973 27.64H157.493V22.52H155.933V14.84H148.713C148.653 18.48 148.333 21.3 147.133 22.52H146.273V27.64H148.813L149.013 25ZM163.498 25.2C164.878 25.2 166.098 24.9 166.798 24.44V22.02C165.958 22.56 164.858 22.76 163.738 22.76C162.178 22.76 161.398 21.96 161.298 20.44H167.018C167.098 20.18 167.218 19.54 167.218 18.82C167.218 16 165.458 14.64 162.938 14.64C160.038 14.64 158.218 16.66 158.218 19.96C158.218 23.48 160.158 25.2 163.498 25.2ZM161.178 18.76C161.298 17.62 161.798 16.84 162.858 16.84C163.878 16.84 164.458 17.52 164.518 18.76H161.178ZM173.113 19.82C172.073 19.82 171.573 19.16 171.573 18.44C171.573 17.76 172.073 17.06 173.113 17.06H174.173V19.82H173.113ZM174.173 21.88V25H177.013V14.84H172.673C169.733 14.84 168.653 16.68 168.653 18.22C168.653 19.76 169.473 20.82 170.873 21.26L168.193 25H171.353L173.613 21.88H174.173Z" fill="white"/>
<path d="M216 0H291C302.598 0 312 9.40202 312 21C312 32.598 302.598 42 291 42H246C229.431 42 216 28.5685 216 12V0Z" fill="#1EE7CA"/>
<path d="M244.14 25H246.72L250.04 19.26H250.18V25H253V14.84H250.4L247.12 20.56H246.96V14.84H244.14V25ZM257.873 22.52C258.733 21.32 258.973 18.66 258.993 17.34H261.093V22.52H257.873ZM257.013 25H262.773L262.973 27.64H265.493V22.52H263.933V14.84H256.713C256.653 18.48 256.333 21.3 255.133 22.52H254.273V27.64H256.813L257.013 25ZM271.498 25.2C272.878 25.2 274.098 24.9 274.798 24.44V22.02C273.958 22.56 272.858 22.76 271.738 22.76C270.178 22.76 269.398 21.96 269.298 20.44H275.018C275.098 20.18 275.218 19.54 275.218 18.82C275.218 16 273.458 14.64 270.938 14.64C268.038 14.64 266.218 16.66 266.218 19.96C266.218 23.48 268.158 25.2 271.498 25.2ZM269.178 18.76C269.298 17.62 269.798 16.84 270.858 16.84C271.878 16.84 272.458 17.52 272.518 18.76H269.178ZM281.113 19.82C280.073 19.82 279.573 19.16 279.573 18.44C279.573 17.76 280.073 17.06 281.113 17.06H282.173V19.82H281.113ZM282.173 21.88V25H285.013V14.84H280.673C277.733 14.84 276.653 16.68 276.653 18.22C276.653 19.76 277.473 20.82 278.873 21.26L276.193 25H279.353L281.613 21.88H282.173Z" fill="white"/>
<path d="M48.0131 52C45.0166 52 42.5155 53.8502 41.3691 56.4035H36.2361C35.4544 56.4035 34.7769 57.1073 34.7769 57.8885V59.3478H24.4587C23.6514 59.3478 23 60.1295 23 60.8328V119.665C23 120.421 23.7037 121.124 24.4593 121.124H71.5407C72.2963 121.124 73 120.421 73 119.665V60.8328C73 60.051 72.2963 59.3478 71.5407 59.3478H61.2487V57.8885C61.2487 57.1068 60.545 56.4035 59.7637 56.4035H54.6308C53.4844 53.8502 50.9829 52 48.0125 52H48.0131ZM48.0131 54.9443C50.0716 54.9443 51.7913 56.3251 52.2864 58.227C52.4167 58.8523 53.0419 59.3473 53.6934 59.3473H58.3051V63.7764H37.6959V59.3473H42.3077C42.9591 59.3473 43.5844 58.8523 43.7408 58.227C44.2096 56.3251 45.9295 54.9443 48.014 54.9443H48.0131ZM25.9437 62.292H34.7765V65.2363C34.7765 66.018 35.4541 66.7213 36.2357 66.7213H59.764C60.5457 66.7213 61.249 66.0175 61.249 65.2363V62.292H70.0555V118.181H25.9443L25.9437 62.292ZM34.0209 71.1248C32.4057 71.1248 31.0767 72.4276 31.0767 74.069C31.0767 75.6843 32.4057 77.0133 34.0209 77.0133C35.6623 77.0133 36.9652 75.6843 36.9652 74.069C36.9652 72.4276 35.6623 71.1248 34.0209 71.1248ZM43.583 72.584C42.7751 72.584 42.1237 73.2616 42.1237 74.069C42.1237 74.8769 42.7751 75.5283 43.583 75.5283H63.4372C64.245 75.5283 64.9222 74.8768 64.9222 74.069C64.9222 73.2611 64.2446 72.584 63.4372 72.584H43.583ZM34.0209 82.8755C32.4057 82.8755 31.0767 84.2045 31.0767 85.8197C31.0767 87.4611 32.4057 88.764 34.0209 88.764C35.6623 88.764 36.9652 87.4611 36.9652 85.8197C36.9652 84.2045 35.6623 82.8755 34.0209 82.8755ZM43.583 84.3605C42.7751 84.3605 42.1237 85.0119 42.1237 85.8197C42.1237 86.6533 42.7751 87.3047 43.583 87.3047H63.4372C64.245 87.3047 64.9222 86.6533 64.9222 85.8197C64.9222 85.0119 64.2446 84.3605 63.4372 84.3605H43.583ZM34.0209 94.6525C32.4057 94.6525 31.0767 95.9815 31.0767 97.5968C31.0767 99.212 32.4057 100.541 34.0209 100.541C35.6623 100.541 36.9652 99.212 36.9652 97.5968C36.9652 95.9815 35.6623 94.6525 34.0209 94.6525ZM43.583 96.1118C42.7751 96.1118 42.1237 96.7894 42.1237 97.5968C42.1237 98.4046 42.7751 99.056 43.583 99.056H63.4372C64.245 99.056 64.9222 98.4046 64.9222 97.5968C64.9222 96.7889 64.2446 96.1118 63.4372 96.1118H43.583ZM34.0209 106.43C32.4057 106.43 31.0767 107.733 31.0767 109.348C31.0767 110.989 32.4057 112.292 34.0209 112.292C35.6623 112.292 36.9652 110.989 36.9652 109.348C36.9652 107.733 35.6623 106.43 34.0209 106.43ZM43.583 107.889C42.7751 107.889 42.1237 108.541 42.1237 109.348C42.1237 110.182 42.7751 110.833 43.583 110.833H63.4372C64.245 110.833 64.9222 110.182 64.9222 109.348C64.9222 108.541 64.2446 107.889 63.4372 107.889H43.583Z" fill="white"/>
<path d="M156.013 52C153.017 52 150.516 53.8502 149.369 56.4035H144.236C143.454 56.4035 142.777 57.1073 142.777 57.8885V59.3478H132.459C131.651 59.3478 131 60.1295 131 60.8328V119.665C131 120.421 131.704 121.124 132.459 121.124H179.541C180.296 121.124 181 120.421 181 119.665V60.8328C181 60.051 180.296 59.3478 179.541 59.3478H169.249V57.8885C169.249 57.1068 168.545 56.4035 167.764 56.4035H162.631C161.484 53.8502 158.983 52 156.012 52H156.013ZM156.013 54.9443C158.072 54.9443 159.791 56.3251 160.286 58.227C160.417 58.8523 161.042 59.3473 161.693 59.3473H166.305V63.7764H145.696V59.3473H150.308C150.959 59.3473 151.584 58.8523 151.741 58.227C152.21 56.3251 153.929 54.9443 156.014 54.9443H156.013ZM133.944 62.292H142.776V65.2363C142.776 66.018 143.454 66.7213 144.236 66.7213H167.764C168.546 66.7213 169.249 66.0175 169.249 65.2363V62.292H178.055V118.181H133.944L133.944 62.292ZM142.021 71.1248C140.406 71.1248 139.077 72.4276 139.077 74.069C139.077 75.6843 140.406 77.0133 142.021 77.0133C143.662 77.0133 144.965 75.6843 144.965 74.069C144.965 72.4276 143.662 71.1248 142.021 71.1248ZM151.583 72.584C150.775 72.584 150.124 73.2616 150.124 74.069C150.124 74.8769 150.775 75.5283 151.583 75.5283H171.437C172.245 75.5283 172.922 74.8768 172.922 74.069C172.922 73.2611 172.245 72.584 171.437 72.584H151.583ZM142.021 82.8755C140.406 82.8755 139.077 84.2045 139.077 85.8197C139.077 87.4611 140.406 88.764 142.021 88.764C143.662 88.764 144.965 87.4611 144.965 85.8197C144.965 84.2045 143.662 82.8755 142.021 82.8755ZM151.583 84.3605C150.775 84.3605 150.124 85.0119 150.124 85.8197C150.124 86.6533 150.775 87.3047 151.583 87.3047H171.437C172.245 87.3047 172.922 86.6533 172.922 85.8197C172.922 85.0119 172.245 84.3605 171.437 84.3605H151.583ZM142.021 94.6525C140.406 94.6525 139.077 95.9815 139.077 97.5968C139.077 99.212 140.406 100.541 142.021 100.541C143.662 100.541 144.965 99.212 144.965 97.5968C144.965 95.9815 143.662 94.6525 142.021 94.6525ZM151.583 96.1118C150.775 96.1118 150.124 96.7894 150.124 97.5968C150.124 98.4046 150.775 99.056 151.583 99.056H171.437C172.245 99.056 172.922 98.4046 172.922 97.5968C172.922 96.7889 172.245 96.1118 171.437 96.1118H151.583ZM142.021 106.43C140.406 106.43 139.077 107.733 139.077 109.348C139.077 110.989 140.406 112.292 142.021 112.292C143.662 112.292 144.965 110.989 144.965 109.348C144.965 107.733 143.662 106.43 142.021 106.43ZM151.583 107.889C150.775 107.889 150.124 108.541 150.124 109.348C150.124 110.182 150.775 110.833 151.583 110.833H171.437C172.245 110.833 172.922 110.182 172.922 109.348C172.922 108.541 172.245 107.889 171.437 107.889H151.583Z" fill="white"/>
<path d="M264.013 52C261.017 52 258.516 53.8502 257.369 56.4035H252.236C251.454 56.4035 250.777 57.1073 250.777 57.8885V59.3478H240.459C239.651 59.3478 239 60.1295 239 60.8328V119.665C239 120.421 239.704 121.124 240.459 121.124H287.541C288.296 121.124 289 120.421 289 119.665V60.8328C289 60.051 288.296 59.3478 287.541 59.3478H277.249V57.8885C277.249 57.1068 276.545 56.4035 275.764 56.4035H270.631C269.484 53.8502 266.983 52 264.012 52H264.013ZM264.013 54.9443C266.072 54.9443 267.791 56.3251 268.286 58.227C268.417 58.8523 269.042 59.3473 269.693 59.3473H274.305V63.7764H253.696V59.3473H258.308C258.959 59.3473 259.584 58.8523 259.741 58.227C260.21 56.3251 261.929 54.9443 264.014 54.9443H264.013ZM241.944 62.292H250.776V65.2363C250.776 66.018 251.454 66.7213 252.236 66.7213H275.764C276.546 66.7213 277.249 66.0175 277.249 65.2363V62.292H286.055V118.181H241.944L241.944 62.292ZM250.021 71.1248C248.406 71.1248 247.077 72.4276 247.077 74.069C247.077 75.6843 248.406 77.0133 250.021 77.0133C251.662 77.0133 252.965 75.6843 252.965 74.069C252.965 72.4276 251.662 71.1248 250.021 71.1248ZM259.583 72.584C258.775 72.584 258.124 73.2616 258.124 74.069C258.124 74.8769 258.775 75.5283 259.583 75.5283H279.437C280.245 75.5283 280.922 74.8768 280.922 74.069C280.922 73.2611 280.245 72.584 279.437 72.584H259.583ZM250.021 82.8755C248.406 82.8755 247.077 84.2045 247.077 85.8197C247.077 87.4611 248.406 88.764 250.021 88.764C251.662 88.764 252.965 87.4611 252.965 85.8197C252.965 84.2045 251.662 82.8755 250.021 82.8755ZM259.583 84.3605C258.775 84.3605 258.124 85.0119 258.124 85.8197C258.124 86.6533 258.775 87.3047 259.583 87.3047H279.437C280.245 87.3047 280.922 86.6533 280.922 85.8197C280.922 85.0119 280.245 84.3605 279.437 84.3605H259.583ZM250.021 94.6525C248.406 94.6525 247.077 95.9815 247.077 97.5968C247.077 99.212 248.406 100.541 250.021 100.541C251.662 100.541 252.965 99.212 252.965 97.5968C252.965 95.9815 251.662 94.6525 250.021 94.6525ZM259.583 96.1118C258.775 96.1118 258.124 96.7894 258.124 97.5968C258.124 98.4046 258.775 99.056 259.583 99.056H279.437C280.245 99.056 280.922 98.4046 280.922 97.5968C280.922 96.7889 280.245 96.1118 279.437 96.1118H259.583ZM250.021 106.43C248.406 106.43 247.077 107.733 247.077 109.348C247.077 110.989 248.406 112.292 250.021 112.292C251.662 112.292 252.965 110.989 252.965 109.348C252.965 107.733 251.662 106.43 250.021 106.43ZM259.583 107.889C258.775 107.889 258.124 108.541 258.124 109.348C258.124 110.182 258.775 110.833 259.583 110.833H279.437C280.245 110.833 280.922 110.182 280.922 109.348C280.922 108.541 280.245 107.889 279.437 107.889H259.583Z" fill="white"/>
</svg>
