<svg width="366" height="221" viewBox="0 0 366 221" fill="none" xmlns="http://www.w3.org/2000/svg">
<path d="M104 20.125H141V8.125H200" stroke="white"/>
<path d="M104 48.125H141V60.125H200" stroke="white"/>
<line x1="104" y1="34.625" x2="200" y2="34.625" stroke="white"/>
<circle cx="204" cy="8.125" r="8" fill="#FF59A3"/>
<circle cx="204" cy="34.125" r="8" fill="#FF59A3"/>
<circle cx="204" cy="60.125" r="8" fill="#FF59A3"/>
<path d="M18 13.125H93C104.598 13.125 114 22.527 114 34.125C114 45.723 104.598 55.125 93 55.125H48C31.4315 55.125 18 41.6935 18 25.125V13.125Z" fill="#FF59A3"/>
<path d="M46.14 38.125H48.72L52.04 32.385H52.18V38.125H55V27.965H52.4L49.12 33.685H48.96V27.965H46.14V38.125ZM59.8728 35.645C60.7328 34.445 60.9728 31.785 60.9928 30.465H63.0928V35.645H59.8728ZM59.0128 38.125H64.7728L64.9728 40.765H67.4928V35.645H65.9328V27.965H58.7128C58.6528 31.605 58.3328 34.425 57.1328 35.645H56.2728V40.765H58.8128L59.0128 38.125ZM73.4981 38.325C74.8781 38.325 76.0981 38.025 76.7981 37.565V35.145C75.9581 35.685 74.8581 35.885 73.7381 35.885C72.1781 35.885 71.3981 35.085 71.2981 33.565H77.0181C77.0981 33.305 77.2181 32.665 77.2181 31.945C77.2181 29.125 75.4581 27.765 72.9381 27.765C70.0381 27.765 68.2181 29.785 68.2181 33.085C68.2181 36.605 70.1581 38.325 73.4981 38.325ZM71.1781 31.885C71.2981 30.745 71.7981 29.965 72.8581 29.965C73.8781 29.965 74.4581 30.645 74.5181 31.885H71.1781ZM83.1134 32.945C82.0734 32.945 81.5734 32.285 81.5734 31.565C81.5734 30.885 82.0734 30.185 83.1134 30.185H84.1734V32.945H83.1134ZM84.1734 35.005V38.125H87.0134V27.965H82.6734C79.7334 27.965 78.6534 29.805 78.6534 31.345C78.6534 32.885 79.4734 33.945 80.8734 34.385L78.1934 38.125H81.3534L83.6134 35.005H84.1734Z" fill="white"/>
<path d="M6.464 26.125V24.717H4.432V13.965H3.616L0.528 15.277V16.829L2.816 15.853V24.717H0.736V26.125H6.464Z" fill="white"/>
<path d="M181 96.125H218V84.125H277" stroke="white"/>
<path d="M181 124.125H218V136.125H277" stroke="white"/>
<line x1="181" y1="110.625" x2="277" y2="110.625" stroke="white"/>
<circle cx="281" cy="84.125" r="8" fill="#C882FF"/>
<circle cx="281" cy="110.125" r="8" fill="#C882FF"/>
<circle cx="281" cy="136.125" r="8" fill="#C882FF"/>
<path d="M95 89.125H170C181.598 89.125 191 98.527 191 110.125C191 121.723 181.598 131.125 170 131.125H125C108.431 131.125 95 117.694 95 101.125V89.125Z" fill="#C882FF"/>
<path d="M123.14 114.125H125.72L129.04 108.385H129.18V114.125H132V103.965H129.4L126.12 109.685H125.96V103.965H123.14V114.125ZM136.873 111.645C137.733 110.445 137.973 107.785 137.993 106.465H140.093V111.645H136.873ZM136.013 114.125H141.773L141.973 116.765H144.493V111.645H142.933V103.965H135.713C135.653 107.605 135.333 110.425 134.133 111.645H133.273V116.765H135.813L136.013 114.125ZM150.498 114.325C151.878 114.325 153.098 114.025 153.798 113.565V111.145C152.958 111.685 151.858 111.885 150.738 111.885C149.178 111.885 148.398 111.085 148.298 109.565H154.018C154.098 109.305 154.218 108.665 154.218 107.945C154.218 105.125 152.458 103.765 149.938 103.765C147.038 103.765 145.218 105.785 145.218 109.085C145.218 112.605 147.158 114.325 150.498 114.325ZM148.178 107.885C148.298 106.745 148.798 105.965 149.858 105.965C150.878 105.965 151.458 106.645 151.518 107.885H148.178ZM160.113 108.945C159.073 108.945 158.573 108.285 158.573 107.565C158.573 106.885 159.073 106.185 160.113 106.185H161.173V108.945H160.113ZM161.173 111.005V114.125H164.013V103.965H159.673C156.733 103.965 155.653 105.805 155.653 107.345C155.653 108.885 156.473 109.945 157.873 110.385L155.193 114.125H158.353L160.613 111.005H161.173Z" fill="white"/>
<path d="M84.712 102.125V100.717H79.448C80.296 99.661 81.912 97.693 82.232 97.325C83.4 95.917 84.232 94.733 84.232 93.069C84.232 91.133 83.144 89.917 80.968 89.917C79.832 89.917 78.648 90.189 77.928 90.749V93.277H79.352V91.581C79.784 91.389 80.232 91.325 80.728 91.325C81.96 91.325 82.536 91.981 82.536 93.181C82.536 94.381 81.928 95.405 81.032 96.557C80.68 96.925 77.56 100.829 77.56 100.829V102.125H84.712Z" fill="white"/>
<path d="M258 172.125H295V160.125H354" stroke="white"/>
<path d="M258 200.125H295V212.125H354" stroke="white"/>
<line x1="258" y1="186.625" x2="354" y2="186.625" stroke="white"/>
<circle cx="358" cy="160.125" r="8" fill="#1EE7CA"/>
<circle cx="358" cy="186.125" r="8" fill="#1EE7CA"/>
<circle cx="358" cy="212.125" r="8" fill="#1EE7CA"/>
<path d="M172 165.125H247C258.598 165.125 268 174.527 268 186.125C268 197.723 258.598 207.125 247 207.125H202C185.431 207.125 172 193.694 172 177.125V165.125Z" fill="#1EE7CA"/>
<path d="M200.14 190.125H202.72L206.04 184.385H206.18V190.125H209V179.965H206.4L203.12 185.685H202.96V179.965H200.14V190.125ZM213.873 187.645C214.733 186.445 214.973 183.785 214.993 182.465H217.093V187.645H213.873ZM213.013 190.125H218.773L218.973 192.765H221.493V187.645H219.933V179.965H212.713C212.653 183.605 212.333 186.425 211.133 187.645H210.273V192.765H212.813L213.013 190.125ZM227.498 190.325C228.878 190.325 230.098 190.025 230.798 189.565V187.145C229.958 187.685 228.858 187.885 227.738 187.885C226.178 187.885 225.398 187.085 225.298 185.565H231.018C231.098 185.305 231.218 184.665 231.218 183.945C231.218 181.125 229.458 179.765 226.938 179.765C224.038 179.765 222.218 181.785 222.218 185.085C222.218 188.605 224.158 190.325 227.498 190.325ZM225.178 183.885C225.298 182.745 225.798 181.965 226.858 181.965C227.878 181.965 228.458 182.645 228.518 183.885H225.178ZM237.113 184.945C236.073 184.945 235.573 184.285 235.573 183.565C235.573 182.885 236.073 182.185 237.113 182.185H238.173V184.945H237.113ZM238.173 187.005V190.125H241.013V179.965H236.673C233.733 179.965 232.653 181.805 232.653 183.345C232.653 184.885 233.473 185.945 234.873 186.385L232.193 190.125H235.353L237.613 187.005H238.173Z" fill="white"/>
<path d="M158.096 178.285C160.656 178.285 161.776 176.525 161.776 174.541C161.776 172.909 160.752 171.693 158.992 171.501V171.437C160.144 171.133 161.248 170.221 161.248 168.621C161.248 167.133 160.224 165.917 158.048 165.917C156.864 165.917 155.776 166.253 155.072 166.749V169.277H156.496V167.565C156.896 167.405 157.36 167.309 157.856 167.309C158.88 167.309 159.568 167.885 159.568 168.925C159.568 170.013 158.768 170.909 156.736 171.117V172.461C156.944 172.413 157.376 172.365 157.744 172.365C159.232 172.365 160.08 173.165 160.08 174.557C160.08 176.013 159.184 176.877 158.08 176.877C156.848 176.877 156.224 176.077 156.096 174.957H154.56C154.704 177.357 156.288 178.285 158.096 178.285Z" fill="white"/>
</svg>
