<svg width="345" height="218" viewBox="0 0 345 218" fill="none" xmlns="http://www.w3.org/2000/svg">
<path d="M298.983 32.838C294.796 32.8458 290.63 33.4313 286.603 34.578C283.801 29.4482 279.705 25.1404 274.724 22.0816C269.743 19.0229 264.048 17.3196 258.205 17.1407C252.362 16.9618 246.574 18.3135 241.415 21.0618C236.256 23.81 231.905 27.8593 228.793 32.808C222.814 23.5116 214.724 15.7586 205.182 10.1803C195.64 4.60205 184.915 1.35621 173.881 0.70709C162.847 0.0579695 151.815 2.02392 141.685 6.44486C131.554 10.8658 122.611 17.6167 115.583 26.148C111.139 23.6922 106.161 22.3626 101.085 22.2755C96.0078 22.1884 90.987 23.3464 86.4613 25.6482C81.9355 27.9501 78.0426 31.3256 75.1231 35.4798C72.2035 39.6339 70.3461 44.4401 69.7134 49.478C63.62 45.9756 56.8032 43.9206 49.7893 43.4717C42.7754 43.0228 35.7522 44.1919 29.262 46.8889C22.7718 49.5859 16.9883 53.7385 12.3582 59.026C7.72809 64.3136 4.37522 70.5946 2.55853 77.384C0.741843 84.1734 0.509947 91.2895 1.88075 98.1827C3.25156 105.076 6.18839 111.562 10.4644 117.14C14.7405 122.717 20.2413 127.238 26.5422 130.352C32.843 133.465 39.7752 135.089 46.8034 135.098C47.4334 135.098 48.0734 135.098 48.7034 135.098C53.7535 142.802 60.2815 149.428 67.9094 154.592C75.5374 159.756 84.1139 163.356 93.1424 165.184C102.171 167.011 111.472 167.03 120.508 165.239C129.544 163.447 138.135 159.882 145.783 154.748C150.412 158.775 155.982 161.569 161.977 162.872C167.972 164.174 174.199 163.944 180.081 162.201C185.963 160.458 191.311 157.26 195.629 152.902C199.947 148.543 203.095 143.166 204.783 137.268C210.45 144.784 218.036 150.634 226.746 154.204C235.455 157.774 244.965 158.931 254.276 157.555C263.587 156.179 272.356 152.319 279.66 146.383C286.964 140.446 292.533 132.651 295.783 123.818C296.853 123.888 297.923 123.938 299.003 123.938C311.079 123.938 322.659 119.141 331.198 110.603C339.737 102.064 344.533 90.4833 344.533 78.408C344.533 66.3327 339.737 54.752 331.198 46.2135C322.659 37.6749 311.079 32.878 299.003 32.878L298.983 32.838Z" fill="white" stroke="white" stroke-width="0.75" stroke-linecap="round" stroke-linejoin="round"/>
<path d="M172.683 179.847C171.737 179.854 170.794 179.968 169.873 180.187C169.074 178.548 167.953 177.086 166.578 175.888C165.202 174.691 163.6 173.782 161.866 173.216C160.132 172.649 158.303 172.437 156.485 172.592C154.668 172.747 152.9 173.265 151.287 174.117C149.674 174.968 148.249 176.135 147.096 177.548C145.943 178.961 145.086 180.592 144.575 182.343C144.064 184.094 143.911 185.929 144.124 187.741C144.336 189.552 144.911 191.302 145.813 192.887C144.907 194.111 144.297 195.529 144.033 197.028C143.768 198.528 143.855 200.069 144.288 201.529C144.72 202.99 145.486 204.329 146.525 205.443C147.564 206.557 148.847 207.414 150.274 207.946C151.701 208.479 153.232 208.673 154.746 208.513C156.261 208.353 157.717 207.843 159.001 207.024C160.285 206.205 161.361 205.098 162.144 203.792C162.927 202.486 163.396 201.016 163.513 199.497C164.804 201.057 166.468 202.265 168.351 203.008C170.234 203.752 172.274 204.007 174.282 203.75C176.29 203.493 178.201 202.732 179.836 201.538C181.47 200.344 182.777 198.756 183.633 196.922C184.489 195.087 184.867 193.066 184.732 191.046C184.597 189.026 183.953 187.073 182.86 185.369C181.767 183.665 180.261 182.265 178.482 181.3C176.702 180.334 174.708 179.834 172.683 179.847Z" fill="white" stroke="white" stroke-width="0.75" stroke-linecap="round" stroke-linejoin="round"/>
<path d="M123.944 191.719C121.547 190.898 118.965 190.783 116.504 191.388C114.044 191.992 111.809 193.291 110.064 195.129C109.415 194.71 108.717 194.374 107.984 194.129C106.498 193.618 104.909 193.479 103.356 193.725C101.804 193.971 100.336 194.594 99.0798 195.539C97.8241 196.485 96.8194 197.724 96.1539 199.148C95.4884 200.572 95.1823 202.137 95.2625 203.707C95.3427 205.277 95.8068 206.803 96.614 208.152C97.4212 209.5 98.5469 210.63 99.8924 211.443C101.238 212.255 102.762 212.726 104.332 212.812C105.901 212.898 107.468 212.598 108.894 211.939C110.106 213.633 111.701 215.018 113.549 215.98C115.396 216.942 117.445 217.454 119.529 217.474C121.612 217.494 123.67 217.022 125.536 216.097C127.403 215.171 129.024 213.817 130.268 212.146C131.513 210.476 132.345 208.535 132.697 206.481C133.049 204.428 132.911 202.321 132.295 200.33C131.679 198.34 130.601 196.524 129.15 195.029C127.699 193.535 125.915 192.404 123.944 191.729V191.719Z" fill="white" stroke="white" stroke-width="0.75" stroke-linecap="round" stroke-linejoin="round"/>
<path d="M79.2022 199.697C82.908 199.697 85.9122 196.693 85.9122 192.987C85.9122 189.282 82.908 186.277 79.2022 186.277C75.4964 186.277 72.4922 189.282 72.4922 192.987C72.4922 196.693 75.4964 199.697 79.2022 199.697Z" fill="white" stroke="white" stroke-width="0.75" stroke-linecap="round" stroke-linejoin="round"/>
<path d="M60.6439 180.657C62.7923 180.657 64.5339 178.915 64.5339 176.767C64.5339 174.619 62.7923 172.877 60.6439 172.877C58.4955 172.877 56.7539 174.619 56.7539 176.767C56.7539 178.915 58.4955 180.657 60.6439 180.657Z" fill="white" stroke="white" stroke-width="0.75" stroke-linecap="round" stroke-linejoin="round"/>
</svg>
