<svg width="312" height="236" viewBox="0 0 312 236" fill="none" xmlns="http://www.w3.org/2000/svg">
<path d="M311.262 87.3578C311.252 75.8939 306.867 64.8662 299.002 56.5256C291.137 48.185 280.386 43.1605 268.942 42.4778C269.945 35.7331 268.441 28.8548 264.715 23.1439C260.989 17.4331 255.3 13.2856 248.723 11.4862C242.146 9.68673 235.137 10.36 229.023 13.3787C222.909 16.3973 218.113 21.5521 215.542 27.8678C210.94 26.5385 206.053 26.5514 201.458 27.9048C196.863 29.2583 192.749 31.896 189.602 35.5078C185.876 25.9851 179.523 17.716 171.282 11.6625C163.041 5.60905 153.25 2.01998 143.049 1.31288C132.847 0.605771 122.655 2.80968 113.657 7.66822C104.66 12.5268 97.2263 19.8402 92.2222 28.7578C87.4102 22.2836 81.1258 17.0482 73.889 13.4846C66.6521 9.92104 58.6709 8.13172 50.6053 8.26469C42.5397 8.39766 34.6217 10.4491 27.5063 14.2493C20.3909 18.0495 14.2825 23.4892 9.68647 30.1185C5.09045 36.7478 2.13884 44.3761 1.07588 52.3724C0.0129169 60.3688 0.869146 68.5033 3.57368 76.103C6.27821 83.7028 10.7533 90.5494 16.6289 96.0765C22.5044 101.604 29.6115 105.652 37.3623 107.888C37.9053 110.913 39.0434 113.801 40.7106 116.383C42.3778 118.966 44.541 121.192 47.0747 122.932C49.6084 124.672 52.4623 125.892 55.471 126.522C58.4797 127.151 61.5834 127.177 64.6022 126.598C63.5792 136.498 64.886 146.501 68.4183 155.807C71.9506 165.112 77.6105 173.462 84.9456 180.19C92.2808 186.918 101.088 191.837 110.663 194.554C120.239 197.271 130.317 197.711 140.092 195.838C146.63 201.599 154.563 205.547 163.102 207.29C171.64 209.033 180.486 208.509 188.759 205.772C197.032 203.034 204.444 198.177 210.257 191.685C216.07 185.193 220.081 177.292 221.892 168.768C222.382 168.768 222.892 168.768 223.372 168.768C226.802 168.77 230.186 167.98 233.261 166.461C236.337 164.941 239.02 162.733 241.102 160.008C245.494 165.245 251.709 168.622 258.492 169.456C265.276 170.291 272.124 168.523 277.654 164.507C283.185 160.491 286.987 154.527 288.293 147.819C289.599 141.11 288.312 134.155 284.692 128.358C292.599 124.808 299.312 119.051 304.026 111.778C308.739 104.504 311.252 96.0247 311.262 87.3578Z" fill="white" stroke="white" stroke-width="0.75" stroke-linecap="round" stroke-linejoin="round"/>
<path d="M50.7536 151.357C50.4653 148.751 49.5286 146.259 48.0292 144.109C46.5298 141.958 44.5154 140.218 42.1701 139.046C39.8249 137.875 37.2234 137.31 34.6034 137.402C31.9835 137.495 29.4285 138.243 27.172 139.577C24.9154 140.912 23.0292 142.791 21.6857 145.042C20.3422 147.293 19.5842 149.845 19.4809 152.465C19.3777 155.084 19.9324 157.688 21.0945 160.038C22.2566 162.388 23.9891 164.409 26.1336 165.917C25.5577 166.962 25.1977 168.112 25.075 169.298C24.9524 170.485 25.0696 171.684 25.4196 172.825C25.7696 173.965 26.3454 175.024 27.1126 175.937C27.8799 176.851 28.8229 177.601 29.8858 178.142C30.9486 178.684 32.1095 179.007 33.2995 179.091C34.4895 179.175 35.6843 179.019 36.8129 178.633C37.9415 178.246 38.9808 177.636 39.8691 176.84C40.7573 176.044 41.4764 175.077 41.9836 173.997C44.9795 175.131 48.3022 175.034 51.2275 173.729C54.1527 172.424 56.4435 170.015 57.6006 167.028C58.7576 164.041 58.6872 160.718 57.4047 157.782C56.1222 154.847 53.7315 152.537 50.7536 151.357Z" fill="white" stroke="white" stroke-width="0.75" stroke-linecap="round" stroke-linejoin="round"/>
<path d="M52.1034 203.558C52.2716 202.775 52.3587 201.978 52.3634 201.178C52.3664 199.03 51.75 196.926 50.588 195.12C49.4261 193.313 47.7679 191.88 45.8121 190.992C43.8563 190.104 41.686 189.798 39.5611 190.112C37.4361 190.426 35.4467 191.346 33.8313 192.762C32.2159 194.177 31.043 196.029 30.453 198.094C29.8631 200.16 29.8811 202.351 30.505 204.407C31.1289 206.462 32.3322 208.294 33.9708 209.683C35.6093 211.072 37.6136 211.959 39.7434 212.238C40.2378 213.214 40.9364 214.072 41.7916 214.754C42.6469 215.437 43.639 215.927 44.7005 216.192C45.762 216.458 46.8681 216.491 47.9438 216.292C49.0195 216.092 50.0397 215.663 50.9351 215.034C51.8305 214.405 52.5801 213.591 53.1333 212.647C53.6864 211.703 54.03 210.651 54.1408 209.563C54.2516 208.474 54.1271 207.375 53.7755 206.339C53.424 205.302 52.8537 204.354 52.1034 203.558Z" fill="white" stroke="white" stroke-width="0.75" stroke-linecap="round" stroke-linejoin="round"/>
<path d="M67.3325 235.167C70.9334 235.167 73.8525 232.248 73.8525 228.647C73.8525 225.046 70.9334 222.127 67.3325 222.127C63.7316 222.127 60.8125 225.046 60.8125 228.647C60.8125 232.248 63.7316 235.167 67.3325 235.167Z" fill="white" stroke="white" stroke-width="0.75" stroke-linecap="round" stroke-linejoin="round"/>
</svg>
