<svg width="376" height="232" viewBox="0 0 376 232" fill="none" xmlns="http://www.w3.org/2000/svg">
<path d="M355.704 152.258C360.52 146.956 363.958 140.55 365.712 133.605C367.467 126.661 367.485 119.391 365.766 112.438C364.046 105.484 360.642 99.0613 355.852 93.7351C351.063 88.4089 345.036 84.3435 338.304 81.8976C337.681 76.6119 335.941 71.5191 333.201 66.9563C330.461 62.3936 326.783 58.4651 322.41 55.4311C318.037 52.3971 313.07 50.3268 307.836 49.3573C302.603 48.3878 297.224 48.5413 292.054 49.8076C288.722 37.0603 281.644 25.6047 271.736 16.9197C261.828 8.23474 249.544 2.71914 236.47 1.08503C223.396 -0.54908 210.133 1.77334 198.392 7.75243C186.651 13.7315 176.972 23.0928 170.604 34.6276C166.747 31.3123 162.179 28.9277 157.253 27.6579C152.328 26.3881 147.177 26.2669 142.197 27.3038C137.217 28.3407 132.543 30.508 128.533 33.6382C124.524 36.7685 121.288 40.7781 119.074 45.3576C111.004 46.6842 103.458 50.22 97.2749 55.5731C91.0914 60.9261 86.5112 67.8872 84.0423 75.6843C81.5734 83.4815 81.3122 91.8102 83.2877 99.7467C85.2632 107.683 89.3982 114.918 95.2342 120.648C95.1542 121.498 95.1042 122.368 95.1042 123.238C95.1121 127.453 96.1094 131.607 98.0159 135.367C99.9224 139.126 102.685 142.386 106.081 144.883C109.477 147.38 113.412 149.045 117.568 149.744C121.725 150.443 125.988 150.157 130.014 148.908C130.127 157.788 132.175 166.538 136.016 174.546C139.856 182.555 145.396 189.63 152.25 195.279C159.103 200.927 167.106 205.014 175.701 207.254C184.296 209.494 193.275 209.833 202.014 208.248C205.006 212.97 209.217 216.797 214.203 219.324C219.189 221.852 224.765 222.987 230.342 222.609C235.92 222.231 241.292 220.355 245.891 217.177C250.49 214 254.147 209.64 256.474 204.558C260.131 212.42 265.953 219.077 273.259 223.747C280.565 228.418 289.051 230.909 297.722 230.928C306.393 230.947 314.89 228.493 322.216 223.854C329.542 219.215 335.393 212.584 339.084 204.738C346.044 206.942 353.593 206.291 360.073 202.928C366.552 199.566 371.43 193.767 373.634 186.808C375.838 179.848 375.187 172.299 371.825 165.819C368.462 159.34 362.664 154.462 355.704 152.258Z" fill="white" stroke="white" stroke-width="0.75" stroke-linecap="round" stroke-linejoin="round"/>
<path d="M80.8136 131.097C78.1713 129.881 75.2188 129.507 72.3567 130.026C69.4945 130.545 66.8612 131.931 64.8136 133.997C63.9172 132.825 62.7462 131.891 61.4036 131.277C60.0243 130.643 58.5082 130.363 56.9933 130.465C55.4784 130.566 54.0129 131.045 52.7303 131.857C51.4477 132.67 50.3887 133.79 49.65 135.116C48.9112 136.443 48.516 137.933 48.5005 139.451C48.4849 140.969 48.8495 142.467 49.561 143.809C50.2725 145.15 51.3082 146.292 52.5739 147.13C53.8396 147.969 55.295 148.478 56.8076 148.61C58.3201 148.742 59.8417 148.494 61.2336 147.887C61.8869 150.175 63.1051 152.261 64.7763 153.955C66.4474 155.648 68.5177 156.894 70.7965 157.577C73.0753 158.26 75.4894 158.359 77.8165 157.864C80.1435 157.37 82.3087 156.298 84.1127 154.747C85.9167 153.196 87.3016 151.216 88.1396 148.989C88.9777 146.763 89.2422 144.361 88.9086 142.006C88.575 139.65 87.6541 137.417 86.2308 135.51C84.8074 133.604 82.9273 132.086 80.7636 131.097H80.8136Z" fill="white" stroke="white" stroke-width="0.75" stroke-linecap="round" stroke-linejoin="round"/>
<path d="M33.2747 131.887C38.2287 131.887 42.2447 127.871 42.2447 122.917C42.2447 117.963 38.2287 113.947 33.2747 113.947C28.3207 113.947 24.3047 117.963 24.3047 122.917C24.3047 127.871 28.3207 131.887 33.2747 131.887Z" fill="white" stroke="white" stroke-width="0.75" stroke-linecap="round" stroke-linejoin="round"/>
<path d="M5.77454 111.877C8.33161 111.877 10.4045 109.804 10.4045 107.247C10.4045 104.69 8.33161 102.617 5.77454 102.617C3.21746 102.617 1.14453 104.69 1.14453 107.247C1.14453 109.804 3.21746 111.877 5.77454 111.877Z" fill="white" stroke="white" stroke-width="0.75" stroke-linecap="round" stroke-linejoin="round"/>
</svg>
