<svg width="1278" height="538" viewBox="0 0 1278 538" fill="none" xmlns="http://www.w3.org/2000/svg">
<path d="M1049.24 434.65C1048.24 441.506 1044.62 447.707 1039.14 451.948C1033.66 456.19 1026.75 458.141 1019.87 457.392C1012.98 456.643 1006.65 453.252 1002.21 447.932C997.774 442.612 995.572 435.778 996.069 428.868C996.567 421.958 999.725 415.51 1004.88 410.88C1010.03 406.251 1016.78 403.801 1023.71 404.046C1030.63 404.291 1037.19 407.212 1042 412.194C1046.82 417.177 1049.51 423.832 1049.52 430.76" stroke="#616161" stroke-linecap="round" stroke-linejoin="round"/>
<path d="M1036.48 430.73C1036.48 445.49 1030.4 457.46 1022.91 457.46C1015.42 457.46 1009.33 445.49 1009.33 430.73C1009.33 415.97 1015.4 404 1022.9 404C1029.81 404 1035.52 414.19 1036.36 427.36" stroke="#616161" stroke-linecap="round" stroke-linejoin="round"/>
<path d="M1000.38 430.73H1049.51" stroke="#616161" stroke-linecap="round" stroke-linejoin="round"/>
<path d="M1015.23 416.512H1045.44" stroke="#616161" stroke-linecap="round" stroke-linejoin="round"/>
<path d="M1000.38 444.949H1034.4" stroke="#616161" stroke-linecap="round" stroke-linejoin="round"/>
<path d="M1011.41 416.512H1000.38" stroke="#616161" stroke-linecap="round" stroke-linejoin="round"/>
<path d="M1037.15 444.949H1045.44" stroke="#616161" stroke-linecap="round" stroke-linejoin="round"/>
<path d="M306.601 441.516L311.231 476.127C311.379 477.217 311.089 478.321 310.425 479.197C309.76 480.073 308.775 480.65 307.686 480.801L240.303 489.815C239.762 489.887 239.211 489.852 238.684 489.711C238.156 489.571 237.661 489.328 237.228 488.996C236.794 488.663 236.43 488.249 236.157 487.776C235.884 487.303 235.706 486.781 235.635 486.24L230.553 448.248C230.479 447.707 230.513 447.156 230.652 446.627C230.791 446.099 231.033 445.603 231.364 445.168C231.695 444.733 232.108 444.367 232.58 444.092C233.052 443.816 233.574 443.636 234.116 443.563L301.499 434.549C302.592 434.408 303.696 434.706 304.57 435.378C305.443 436.051 306.015 437.042 306.158 438.135" stroke="#616161" stroke-linecap="round" stroke-linejoin="round"/>
<path d="M234.033 454.357L307.013 444.595L310.367 469.667L234.772 479.78" stroke="#616161" stroke-linecap="round" stroke-linejoin="round"/>
<path d="M292.673 495.82L255.224 500.83C255.012 500.858 254.797 500.845 254.59 500.789C254.383 500.734 254.19 500.639 254.02 500.508C253.851 500.378 253.709 500.215 253.602 500.03C253.496 499.845 253.427 499.64 253.4 499.428V499.428C253.37 499.216 253.383 499.001 253.437 498.794C253.491 498.587 253.585 498.393 253.714 498.222C253.844 498.052 254.005 497.909 254.19 497.801C254.375 497.694 254.579 497.624 254.791 497.595L295.746 492.117C296.173 492.062 296.605 492.179 296.947 492.442C297.289 492.705 297.513 493.092 297.57 493.519V493.519C297.627 493.946 297.513 494.379 297.252 494.722C296.991 495.066 296.605 495.292 296.179 495.351" stroke="#616161" stroke-linecap="round" stroke-linejoin="round"/>
<path d="M263.831 488.993L264.159 491.443C264.331 492.728 263.986 494.027 263.199 495.057C262.412 496.086 261.249 496.761 259.965 496.933L290.567 492.839C289.291 492.995 288.005 492.641 286.988 491.854C285.971 491.067 285.306 489.912 285.135 488.637L284.502 483.902" stroke="#616161" stroke-linecap="round" stroke-linejoin="round"/>
<path d="M268.84 446.862C270.284 446.669 271.298 445.337 271.104 443.888C270.91 442.438 269.582 441.42 268.138 441.613C266.694 441.806 265.681 443.138 265.875 444.587C266.068 446.037 267.396 447.055 268.84 446.862Z" stroke="#616161" stroke-linecap="round" stroke-linejoin="round"/>
<path d="M1217.42 156.005L1174.1 145.49C1173.25 145.281 1172.45 144.908 1171.74 144.391C1171.04 143.874 1170.44 143.223 1169.99 142.476C1169.54 141.729 1169.24 140.9 1169.1 140.037C1168.97 139.173 1169.01 138.292 1169.22 137.443L1177.22 104.481C1177.42 103.631 1177.79 102.83 1178.31 102.124C1178.82 101.417 1179.47 100.818 1180.21 100.362C1180.96 99.9052 1181.79 99.5999 1182.65 99.4633C1183.51 99.3266 1184.39 99.3613 1185.24 99.5653L1231.79 110.863C1232.64 111.07 1233.44 111.442 1234.14 111.959C1234.85 112.476 1235.44 113.127 1235.9 113.874C1236.35 114.622 1236.65 115.451 1236.79 116.315C1236.92 117.18 1236.88 118.061 1236.67 118.911L1228.67 151.873C1228.47 152.723 1228.1 153.525 1227.58 154.232C1227.07 154.939 1226.42 155.538 1225.68 155.994C1224.93 156.451 1224.1 156.756 1223.24 156.892C1222.37 157.028 1221.49 156.992 1220.64 156.787" stroke="#616161" stroke-linecap="round" stroke-linejoin="round"/>
<path d="M1179.05 113.156L1234.79 126.684" stroke="#616161" stroke-linecap="round" stroke-linejoin="round"/>
<path d="M1182.94 108.839C1184.12 109.128 1185.32 108.394 1185.61 107.201C1185.9 106.008 1185.17 104.807 1183.98 104.518C1182.8 104.23 1181.6 104.963 1181.31 106.156C1181.02 107.35 1181.75 108.551 1182.94 108.839Z" stroke="#616161" stroke-linecap="round" stroke-linejoin="round"/>
<path d="M1192.61 107.279C1192.41 106.971 1192.15 106.716 1191.84 106.534C1191.52 106.353 1191.17 106.252 1190.81 106.239C1190.44 106.226 1190.08 106.302 1189.76 106.461C1189.43 106.619 1189.15 106.855 1188.94 107.148C1188.72 107.441 1188.59 107.782 1188.53 108.141C1188.48 108.5 1188.52 108.866 1188.65 109.207C1188.77 109.547 1188.97 109.853 1189.24 110.096C1189.51 110.339 1189.84 110.512 1190.19 110.6C1190.76 110.737 1191.36 110.641 1191.86 110.334C1192.37 110.027 1192.73 109.534 1192.86 108.962" stroke="#616161" stroke-linecap="round" stroke-linejoin="round"/>
<path d="M1197.41 112.353C1198.6 112.641 1199.8 111.908 1200.09 110.715C1200.38 109.522 1199.65 108.321 1198.46 108.032C1197.27 107.744 1196.07 108.477 1195.78 109.67C1195.49 110.863 1196.22 112.064 1197.41 112.353Z" stroke="#616161" stroke-linecap="round" stroke-linejoin="round"/>
<path d="M1171.51 144.213C1171.87 145.389 1172.55 146.447 1173.46 147.278C1174.37 148.108 1175.48 148.681 1176.69 148.938L1222.3 160.009C1223.21 160.228 1224.16 160.265 1225.08 160.119C1226.01 159.972 1226.89 159.645 1227.69 159.155C1228.49 158.666 1229.19 158.024 1229.74 157.266C1230.29 156.508 1230.69 155.648 1230.91 154.737L1238.68 122.707" stroke="#616161" stroke-linecap="round" stroke-linejoin="round"/>
<path d="M1242.77 363.301L1244.91 361.141C1245.99 361.766 1247.15 362.247 1248.35 362.571V365.621H1256.12V362.571C1257.33 362.247 1258.49 361.766 1259.57 361.141L1261.71 363.301L1267.19 357.791L1265.05 355.641C1265.67 354.552 1266.14 353.389 1266.47 352.181H1269.47V344.391H1266.47C1266.14 343.183 1265.67 342.021 1265.05 340.931L1267.19 338.781L1261.71 333.281" stroke="#616161" stroke-linecap="round" stroke-linejoin="round"/>
<path d="M1259.55 335.43C1258.47 334.805 1257.31 334.324 1256.1 334V331H1248.35V334C1247.15 334.324 1245.99 334.805 1244.91 335.43L1242.77 333.28L1237.28 338.78L1239.43 340.93C1238.81 342.019 1238.33 343.181 1238 344.39H1235V352.18H1238C1238.33 353.389 1238.81 354.551 1239.43 355.64L1237.28 357.79L1240.62 361.14" stroke="#616161" stroke-linecap="round" stroke-linejoin="round"/>
<path d="M1246.01 348.291C1246.02 349.835 1246.59 351.322 1247.63 352.465C1248.67 353.607 1250.1 354.323 1251.63 354.473C1253.17 354.624 1254.71 354.198 1255.95 353.279C1257.19 352.36 1258.05 351.013 1258.35 349.5C1258.65 347.986 1258.38 346.413 1257.6 345.086C1256.81 343.759 1255.55 342.773 1254.08 342.319C1252.6 341.864 1251.01 341.974 1249.61 342.627C1248.21 343.279 1247.1 344.428 1246.5 345.851" stroke="#616161" stroke-linecap="round" stroke-linejoin="round"/>
<path d="M1242.71 348.289C1242.71 349.542 1242.96 350.783 1243.43 351.941C1243.91 353.1 1244.61 354.153 1245.49 355.041C1246.38 355.928 1247.43 356.633 1248.59 357.115C1249.74 357.597 1250.98 357.846 1252.23 357.849" stroke="#616161" stroke-linecap="round" stroke-linejoin="round"/>
<path d="M1261.75 348.289C1261.76 345.758 1260.76 343.328 1258.97 341.534C1257.19 339.739 1254.76 338.727 1252.23 338.719" stroke="#616161" stroke-linecap="round" stroke-linejoin="round"/>
<path d="M69.8418 473.943C70.9388 471.853 71.2252 469.432 70.6459 467.145C70.0666 464.857 68.6625 462.864 66.7032 461.549C64.744 460.233 62.3677 459.688 60.031 460.018C57.6943 460.348 55.5618 461.529 54.0433 463.336C52.5247 465.142 51.7272 467.446 51.8038 469.805C51.8805 472.163 52.8259 474.411 54.4585 476.115C56.091 477.819 58.2957 478.859 60.6489 479.037C63.0021 479.214 65.3379 478.516 67.2077 477.076" stroke="#616161" stroke-linecap="round" stroke-linejoin="round"/>
<path d="M35.6221 475.076C37.6204 477.663 41.3453 478.136 43.9418 476.13C46.5382 474.125 47.023 470.402 45.0247 467.814C43.0263 465.227 39.3014 464.754 36.7049 466.76C34.1085 468.765 33.6237 472.488 35.6221 475.076Z" stroke="#616161" stroke-linecap="round" stroke-linejoin="round"/>
<path d="M49.2314 492.705C51.2298 495.292 54.9547 495.765 57.5511 493.759C60.1476 491.754 60.6324 488.031 58.634 485.443C56.6356 482.856 52.9108 482.383 50.3143 484.388C47.7179 486.394 47.233 490.117 49.2314 492.705Z" stroke="#616161" stroke-linecap="round" stroke-linejoin="round"/>
<path d="M57.9766 478.482L56.0515 483.532" stroke="#616161" stroke-linecap="round" stroke-linejoin="round"/>
<path d="M48.4548 470.69L51.8668 470.38" stroke="#616161" stroke-linecap="round" stroke-linejoin="round"/>
<path d="M57.3914 95.2959L39.3761 85.517C36.9622 84.2024 34.1362 83.8632 31.4798 84.5691C28.8234 85.275 26.5386 86.9724 25.0959 89.3119L22.5643 93.4214C21.1321 95.7568 20.6535 98.5538 21.2278 101.233C21.802 103.911 23.385 106.266 25.6487 107.809L44.6162 120.642C45.8533 121.483 47.248 122.064 48.7159 122.35C50.1838 122.637 51.6945 122.623 53.1568 122.309C54.6192 121.996 56.0028 121.389 57.2242 120.526C58.4456 119.663 59.4795 118.561 60.2633 117.287L63.6539 111.828C64.4336 110.558 64.946 109.142 65.1597 107.667C65.3734 106.193 65.284 104.69 64.8969 103.25C64.5097 101.811 63.8331 100.466 62.9082 99.2979C61.9834 98.1293 60.8299 97.1617 59.5182 96.4543" stroke="#616161" stroke-linecap="round" stroke-linejoin="round"/>
<path d="M33.7148 111.576L47.1794 89.7229" stroke="#616161" stroke-linecap="round" stroke-linejoin="round"/>
<path d="M28.7243 96.8895L33.2491 99.6504C33.4206 99.7573 33.6116 99.829 33.811 99.8614C34.0104 99.8938 34.2143 99.8862 34.4108 99.8391C34.6073 99.7919 34.7924 99.7062 34.9554 99.5868C35.1184 99.4675 35.2561 99.3169 35.3603 99.1438L36.0585 98.0048C36.1632 97.8342 36.2333 97.6445 36.2647 97.4468C36.2961 97.249 36.2882 97.047 36.2415 96.8523C36.1948 96.6576 36.1101 96.474 35.9924 96.3121C35.8747 96.1501 35.7262 96.0129 35.5554 95.9084L31.0288 93.1401C30.8574 93.0332 30.6664 92.9615 30.4669 92.9291C30.2675 92.8967 30.0636 92.9043 29.8671 92.9514C29.6707 92.9986 29.4855 93.0843 29.3225 93.2037C29.1595 93.323 29.0219 93.4736 28.9176 93.6467L28.2212 94.7931" stroke="#616161" stroke-linecap="round" stroke-linejoin="round"/>
<path d="M35.7096 98.5708L38.6104 100.343" stroke="#616161" stroke-linecap="round" stroke-linejoin="round"/>
<path d="M28.5693 94.2191L23.8498 91.3326" stroke="#616161" stroke-linecap="round" stroke-linejoin="round"/>
<path d="M46.6466 117.327C48.3846 118.382 50.469 118.708 52.446 118.233C54.4231 117.759 56.1327 116.523 57.2027 114.794" stroke="#616161" stroke-linecap="round" stroke-linejoin="round"/>
<path d="M515.516 163.732L515.991 175.432L534.469 150.488L503.519 153.977L515.429 161.443" stroke="#616161" stroke-linecap="round" stroke-linejoin="round"/>
<path d="M515.429 161.446L531.66 152.107" stroke="#616161" stroke-linecap="round" stroke-linejoin="round"/>
<path d="M1159.19 281.762C1159.36 282.258 1159.64 282.714 1159.99 283.105C1160.34 283.496 1160.77 283.813 1161.24 284.039C1161.72 284.266 1162.23 284.396 1162.76 284.423C1163.28 284.451 1163.81 284.374 1164.3 284.198L1189.37 275.241C1189.86 275.062 1190.32 274.788 1190.71 274.434C1191.1 274.08 1191.41 273.653 1191.64 273.177C1191.86 272.701 1191.99 272.185 1192.01 271.66C1192.04 271.134 1191.96 270.609 1191.78 270.114L1185.95 253.791C1185.59 252.789 1184.85 251.969 1183.89 251.51C1182.93 251.052 1181.83 250.993 1180.83 251.346L1155.76 260.303C1154.76 260.666 1153.95 261.41 1153.5 262.373C1153.05 263.336 1152.99 264.438 1153.35 265.439L1158.03 278.515" stroke="#616161" stroke-linecap="round" stroke-linejoin="round"/>
<path d="M1173.82 271.259C1175.17 270.775 1175.88 269.283 1175.39 267.926C1174.91 266.569 1173.42 265.86 1172.07 266.344C1170.71 266.827 1170.01 268.319 1170.5 269.676C1170.98 271.034 1172.47 271.742 1173.82 271.259Z" stroke="#616161" stroke-linecap="round" stroke-linejoin="round"/>
<path d="M1153.34 265.402L1168.7 269.251C1169.27 269.383 1169.86 269.451 1170.45 269.454" stroke="#616161" stroke-linecap="round" stroke-linejoin="round"/>
<path d="M1175.31 267.719C1175.77 267.346 1176.18 266.921 1176.54 266.453L1183.71 256.731" stroke="#616161" stroke-linecap="round" stroke-linejoin="round"/>
<path d="M587.036 230.638C586.899 231.146 586.864 231.676 586.932 232.198C587 232.72 587.17 233.223 587.433 233.679C587.695 234.135 588.045 234.534 588.462 234.855C588.879 235.176 589.355 235.411 589.863 235.548L615.582 242.406C616.09 242.54 616.621 242.573 617.142 242.502C617.663 242.432 618.166 242.259 618.62 241.995C619.075 241.73 619.473 241.378 619.792 240.96C620.11 240.541 620.344 240.064 620.478 239.555L624.944 222.807C625.22 221.78 625.078 220.685 624.549 219.763C624.019 218.841 623.146 218.166 622.119 217.887L596.401 211.03C595.372 210.761 594.278 210.911 593.36 211.447C592.442 211.983 591.773 212.861 591.502 213.889L587.924 227.307" stroke="#616161" stroke-linecap="round" stroke-linejoin="round"/>
<path d="M605.046 230.301C606.434 230.671 607.86 229.842 608.231 228.449C608.603 227.057 607.779 225.628 606.391 225.258C605.004 224.888 603.578 225.717 603.207 227.11C602.835 228.502 603.659 229.931 605.046 230.301Z" stroke="#616161" stroke-linecap="round" stroke-linejoin="round"/>
<path d="M591.512 213.854L601.966 225.741C602.364 226.175 602.808 226.564 603.291 226.901" stroke="#616161" stroke-linecap="round" stroke-linejoin="round"/>
<path d="M608.281 228.232C608.868 228.184 609.448 228.068 610.008 227.885L621.431 223.955" stroke="#616161" stroke-linecap="round" stroke-linejoin="round"/>
<path d="M192.474 34.495C192.706 34.967 193.029 35.3888 193.424 35.736C193.819 36.0833 194.279 36.3493 194.777 36.5189C195.275 36.6885 195.802 36.7584 196.327 36.7245C196.852 36.6906 197.365 36.5537 197.837 36.3215L221.693 24.5155C222.164 24.281 222.584 23.956 222.929 23.5592C223.275 23.1623 223.538 22.7013 223.706 22.2025C223.873 21.7037 223.94 21.1769 223.904 20.652C223.867 20.1272 223.728 19.6147 223.493 19.1437L215.805 3.60804C215.336 2.65385 214.507 1.92478 213.501 1.58076C212.495 1.23673 211.393 1.30585 210.438 1.77293L186.582 13.5789C185.631 14.0552 184.908 14.889 184.571 15.8977C184.234 16.9063 184.311 18.0074 184.785 18.9593L190.945 31.4051" stroke="#616161" stroke-linecap="round" stroke-linejoin="round"/>
<path d="M205.79 22.3606C207.077 21.7237 207.602 20.1602 206.963 18.8684C206.323 17.5766 204.762 17.0458 203.475 17.6827C202.188 18.3196 201.663 19.8831 202.302 21.1749C202.941 22.4667 204.503 22.9976 205.79 22.3606Z" stroke="#616161" stroke-linecap="round" stroke-linejoin="round"/>
<path d="M184.77 18.9238L200.468 20.9649C201.053 21.0291 201.644 21.0286 202.229 20.9635" stroke="#616161" stroke-linecap="round" stroke-linejoin="round"/>
<path d="M206.863 18.6704C207.273 18.2474 207.632 17.7776 207.933 17.2708L213.928 6.78272" stroke="#616161" stroke-linecap="round" stroke-linejoin="round"/>
<path d="M1152.91 461.182L1172.84 454.629C1173.32 454.474 1173.75 454.226 1174.13 453.901C1174.51 453.576 1174.82 453.18 1175.04 452.735C1175.26 452.29 1175.4 451.805 1175.43 451.309C1175.47 450.812 1175.41 450.313 1175.25 449.841L1161.69 408.606C1161.54 408.132 1161.29 407.694 1160.97 407.316C1160.64 406.937 1160.25 406.626 1159.8 406.401C1159.36 406.176 1158.88 406.041 1158.38 406.003C1157.88 405.965 1157.38 406.026 1156.91 406.181L1133.6 413.847C1133.13 414.004 1132.69 414.252 1132.31 414.577C1131.93 414.902 1131.63 415.298 1131.4 415.743C1131.18 416.187 1131.04 416.672 1131.01 417.168C1130.97 417.665 1131.03 418.163 1131.19 418.636L1144.75 459.871C1144.9 460.344 1145.15 460.782 1145.47 461.16C1145.8 461.537 1146.19 461.848 1146.64 462.073C1147.08 462.298 1147.56 462.434 1148.06 462.472C1148.56 462.51 1149.06 462.45 1149.53 462.295" stroke="#616161" stroke-linecap="round" stroke-linejoin="round"/>
<path d="M1170.57 446.359L1158.9 410.86C1158.83 410.649 1158.72 410.454 1158.58 410.285C1158.43 410.116 1158.26 409.978 1158.06 409.878C1157.86 409.777 1157.65 409.717 1157.42 409.7C1157.2 409.683 1156.98 409.71 1156.77 409.78L1154.08 410.664C1153.87 410.734 1153.68 410.844 1153.51 410.989C1153.34 411.134 1153.21 411.311 1153.11 411.509C1153.01 411.706 1152.95 411.922 1152.93 412.142C1152.92 412.363 1152.95 412.585 1153.02 412.795V412.795C1153.09 413.004 1153.11 413.225 1153.1 413.446C1153.08 413.666 1153.02 413.881 1152.92 414.078C1152.82 414.276 1152.69 414.452 1152.52 414.596C1152.35 414.74 1152.16 414.85 1151.95 414.919L1142.78 417.932C1142.57 418.002 1142.35 418.03 1142.13 418.014C1141.91 417.998 1141.69 417.938 1141.5 417.838C1141.3 417.738 1141.12 417.6 1140.98 417.432C1140.83 417.264 1140.73 417.069 1140.66 416.858V416.858" stroke="#616161" stroke-linecap="round" stroke-linejoin="round"/>
<path d="M1138.55 415.789L1135.86 416.673C1135.43 416.814 1135.08 417.115 1134.88 417.512C1134.68 417.909 1134.65 418.368 1134.79 418.791L1147.55 457.607C1147.62 457.818 1147.73 458.013 1147.87 458.181C1148.01 458.349 1148.19 458.488 1148.39 458.588C1148.58 458.688 1148.8 458.749 1149.02 458.767C1149.24 458.784 1149.46 458.758 1149.67 458.69L1170.6 451.809C1170.81 451.739 1171 451.629 1171.17 451.484C1171.34 451.34 1171.48 451.163 1171.58 450.965C1171.68 450.767 1171.74 450.551 1171.75 450.33C1171.77 450.109 1171.74 449.887 1171.67 449.676" stroke="#616161" stroke-linecap="round" stroke-linejoin="round"/>
<path d="M1153.01 454.432L1165.37 450.368" stroke="#616161" stroke-linecap="round" stroke-linejoin="round"/>
<path d="M1144.08 415.819C1144.99 415.517 1145.49 414.525 1145.19 413.604C1144.89 412.683 1143.9 412.181 1142.98 412.483C1142.06 412.785 1141.56 413.776 1141.86 414.697C1142.17 415.618 1143.16 416.12 1144.08 415.819Z" stroke="#616161" stroke-linecap="round" stroke-linejoin="round"/>
<path d="M5.48485 274.497L21.1415 284.301C21.5131 284.533 21.9271 284.69 22.3595 284.763C22.792 284.835 23.2345 284.822 23.6617 284.723C24.0889 284.624 24.4923 284.441 24.8489 284.186C25.2054 283.931 25.5081 283.608 25.7395 283.235L46.0253 250.839C46.2593 250.468 46.4178 250.055 46.4917 249.622C46.5656 249.19 46.5534 248.748 46.4559 248.32C46.3584 247.893 46.1775 247.489 45.9235 247.131C45.6695 246.774 45.3474 246.47 44.9758 246.237L26.6597 234.768C26.2879 234.536 25.874 234.38 25.4416 234.308C25.0093 234.236 24.567 234.25 24.1401 234.349C23.7131 234.447 23.3098 234.63 22.9532 234.884C22.5966 235.139 22.2937 235.462 22.0617 235.833L1.77589 268.23C1.54265 268.601 1.38479 269.014 1.31131 269.446C1.23783 269.878 1.25016 270.321 1.34762 270.748C1.44508 271.175 1.62576 271.579 1.87932 271.937C2.13289 272.294 2.45438 272.598 2.82545 272.832" stroke="#616161" stroke-linecap="round" stroke-linejoin="round"/>
<path d="M25.4682 278.109L42.9322 250.219C43.0364 250.054 43.1071 249.869 43.1401 249.677C43.173 249.485 43.1676 249.287 43.1243 249.097C43.0809 248.907 43.0003 248.727 42.8872 248.568C42.7742 248.408 42.6307 248.273 42.4652 248.169L40.3522 246.846C40.1867 246.744 40.0026 246.674 39.8104 246.643C39.6182 246.611 39.4216 246.618 39.232 246.662C39.0423 246.707 38.8632 246.788 38.705 246.901C38.5467 247.015 38.4124 247.159 38.3096 247.324V247.324C38.207 247.489 38.0728 247.633 37.9147 247.746C37.7565 247.859 37.5776 247.94 37.3881 247.984C37.1986 248.028 37.0023 248.034 36.8104 248.002C36.6186 247.97 36.435 247.9 36.2701 247.797L29.0704 243.289C28.9047 243.186 28.761 243.051 28.6476 242.893C28.5342 242.734 28.4533 242.555 28.4097 242.364C28.366 242.174 28.3603 241.978 28.3931 241.785C28.4258 241.593 28.4963 241.409 28.6004 241.244V241.244" stroke="#616161" stroke-linecap="round" stroke-linejoin="round"/>
<path d="M28.1349 239.209L26.0219 237.886C25.6893 237.679 25.2887 237.613 24.9072 237.7C24.5257 237.788 24.1944 238.023 23.9854 238.354L4.88946 268.85C4.78544 269.015 4.71488 269.198 4.68181 269.39C4.64874 269.582 4.65381 269.779 4.69672 269.969C4.73963 270.159 4.81954 270.339 4.9319 270.498C5.04425 270.657 5.18686 270.792 5.35156 270.896L21.7915 281.191C21.957 281.294 22.1413 281.364 22.3339 281.396C22.5265 281.429 22.7236 281.422 22.9138 281.378C23.104 281.334 23.2837 281.253 23.4424 281.139C23.6012 281.026 23.7359 280.882 23.8389 280.716" stroke="#616161" stroke-linecap="round" stroke-linejoin="round"/>
<path d="M10.1094 270.766L19.8186 276.845" stroke="#616161" stroke-linecap="round" stroke-linejoin="round"/>
<path d="M31.227 242.971C31.948 243.423 32.8999 243.202 33.353 242.479C33.8062 241.755 33.5891 240.802 32.868 240.351C32.147 239.899 31.1951 240.12 30.742 240.844C30.2888 241.567 30.506 242.52 31.227 242.971Z" stroke="#616161" stroke-linecap="round" stroke-linejoin="round"/>
<path d="M759.451 203.228L750.141 163.529" stroke="#616161" stroke-linecap="round" stroke-linejoin="round"/>
<path d="M749.592 161.196C749.442 160.56 749.549 159.892 749.888 159.334C750.228 158.776 750.773 158.374 751.406 158.215L806.876 145.206C807.518 145.055 808.194 145.166 808.755 145.514C809.316 145.862 809.716 146.418 809.866 147.06L819.277 187.187" stroke="#616161" stroke-linecap="round" stroke-linejoin="round"/>
<path d="M781.226 153.683C780.784 153.408 780.261 153.295 779.745 153.363C779.229 153.43 778.753 153.675 778.397 154.055C778.041 154.434 777.828 154.926 777.795 155.445C777.761 155.964 777.908 156.479 778.211 156.902C778.515 157.325 778.956 157.629 779.458 157.763C779.961 157.897 780.495 157.853 780.968 157.637C781.442 157.422 781.826 157.049 782.055 156.582C782.285 156.115 782.345 155.582 782.226 155.076" stroke="#616161" stroke-linecap="round" stroke-linejoin="round"/>
<path d="M752.74 206.216C752.657 205.86 752.718 205.486 752.91 205.176C753.103 204.865 753.411 204.644 753.766 204.561L825.37 187.768C825.545 187.727 825.727 187.721 825.905 187.75C826.083 187.78 826.254 187.844 826.407 187.94C826.56 188.035 826.693 188.16 826.797 188.307C826.902 188.454 826.976 188.62 827.017 188.796L827.64 191.453C827.725 191.808 827.74 192.176 827.682 192.537C827.625 192.898 827.497 193.244 827.305 193.555C827.114 193.865 826.862 194.135 826.566 194.349C826.27 194.563 825.934 194.715 825.579 194.799L756.705 210.951C756.349 211.035 755.98 211.047 755.619 210.988C755.258 210.928 754.913 210.798 754.603 210.605C754.292 210.412 754.023 210.16 753.81 209.862C753.598 209.565 753.446 209.228 753.363 208.872" stroke="#616161" stroke-linecap="round" stroke-linejoin="round"/>
<path d="M808.439 154.269L753.93 167.053L761.516 199.403L816.025 186.619L808.439 154.269Z" stroke="#616161" stroke-linecap="round" stroke-linejoin="round"/>
<path d="M779.277 198.578L779.537 199.684C779.594 199.935 779.701 200.172 779.85 200.381C779.999 200.591 780.188 200.768 780.406 200.905C780.624 201.041 780.866 201.133 781.12 201.176C781.373 201.219 781.633 201.211 781.883 201.153L798.664 197.218C799.17 197.097 799.607 196.781 799.88 196.338C800.153 195.896 800.24 195.363 800.121 194.857" stroke="#616161" stroke-linecap="round" stroke-linejoin="round"/>
<path d="M758.799 173.672L757.812 169.465L762.004 168.482" stroke="#616161" stroke-linecap="round" stroke-linejoin="round"/>
<path d="M811.16 179.992L812.147 184.199L807.955 185.182" stroke="#616161" stroke-linecap="round" stroke-linejoin="round"/>
<path d="M927.058 530.631C928.188 530.631 929.104 529.712 929.104 528.577C929.104 527.443 928.188 526.523 927.058 526.523C925.928 526.523 925.012 527.443 925.012 528.577C925.012 529.712 925.928 530.631 927.058 530.631Z" stroke="#616161" stroke-linecap="round" stroke-linejoin="round"/>
<path d="M914.043 515.183C911.659 517.587 910.32 520.835 910.32 524.221C910.32 527.606 911.659 530.855 914.043 533.258C915.222 534.444 916.624 535.385 918.168 536.027C919.712 536.669 921.367 536.999 923.039 536.999C924.711 536.999 926.367 536.669 927.911 536.027C929.454 535.385 930.856 534.444 932.035 533.258C934.424 530.857 935.764 527.608 935.764 524.221C935.764 520.834 934.424 517.585 932.035 515.183C930.033 513.169 927.414 511.885 924.596 511.536C921.778 511.187 918.924 511.793 916.491 513.258" stroke="#616161" stroke-linecap="round" stroke-linejoin="round"/>
<path d="M915.762 531.492L932.033 515.145" stroke="#616161" stroke-linecap="round" stroke-linejoin="round"/>
<path d="M917.102 518.217L899.027 500.066" stroke="#616161" stroke-linecap="round" stroke-linejoin="round"/>
<path d="M890 512.395L908.53 519.572" stroke="#616161" stroke-linecap="round" stroke-linejoin="round"/>
<path d="M911.305 491L919.346 511.955" stroke="#616161" stroke-linecap="round" stroke-linejoin="round"/>
<path d="M172.357 349.419C174.476 350.074 176.727 348.88 177.384 346.752C178.041 344.625 176.856 342.37 174.737 341.715C172.618 341.06 170.368 342.254 169.71 344.381C169.053 346.509 170.238 348.764 172.357 349.419Z" stroke="#616161" stroke-linecap="round" stroke-linejoin="round"/>
<path d="M138.653 339.769C138.531 339.494 138.351 339.249 138.126 339.049C137.902 338.849 137.637 338.7 137.349 338.61C136.943 338.482 136.508 338.476 136.099 338.595C135.69 338.714 135.325 338.952 135.051 339.278C134.778 339.605 134.607 340.005 134.561 340.429C134.515 340.852 134.596 341.28 134.794 341.658C134.991 342.035 135.296 342.346 135.67 342.549C136.045 342.753 136.471 342.841 136.895 342.802C137.319 342.764 137.723 342.6 138.054 342.331C138.385 342.063 138.628 341.703 138.754 341.296" stroke="#616161" stroke-linecap="round" stroke-linejoin="round"/>
<path d="M167.715 343.64L134.729 333.448C133.46 333.056 132.114 333.767 131.722 335.036L129.393 342.573C129.001 343.842 129.712 345.189 130.981 345.581L163.966 355.772C165.235 356.165 166.581 355.454 166.974 354.185L169.302 346.647C169.694 345.378 168.984 344.032 167.715 343.64Z" stroke="#616161" stroke-linecap="round" stroke-linejoin="round"/>
<path d="M162.824 359.482C163.427 359.668 163.932 360.087 164.227 360.645C164.522 361.203 164.582 361.856 164.396 362.459L162.053 370.042C161.867 370.646 161.448 371.15 160.89 371.445C160.331 371.74 159.679 371.801 159.075 371.614L126.067 361.416C125.464 361.229 124.959 360.811 124.665 360.252C124.37 359.694 124.309 359.041 124.495 358.438L126.838 350.855C127.025 350.252 127.443 349.747 128.001 349.452C128.56 349.157 129.213 349.097 129.816 349.283L159.965 358.598" stroke="#616161" stroke-linecap="round" stroke-linejoin="round"/>
<path d="M157.926 375.329L124.94 365.138C123.671 364.746 122.325 365.456 121.933 366.725L119.604 374.263C119.212 375.532 119.923 376.878 121.192 377.27L154.177 387.462C155.446 387.854 156.792 387.143 157.184 385.874L159.513 378.337C159.905 377.068 159.195 375.721 157.926 375.329Z" stroke="#616161" stroke-linecap="round" stroke-linejoin="round"/>
<path d="M114.702 390.125L117.045 382.542C117.232 381.939 117.65 381.435 118.208 381.14C118.767 380.845 119.42 380.784 120.023 380.97L153.031 391.169C153.634 391.356 154.139 391.774 154.434 392.332C154.729 392.891 154.79 393.544 154.603 394.147L152.26 401.73C152.074 402.333 151.655 402.838 151.097 403.133C150.538 403.427 149.886 403.488 149.282 403.302L116.274 393.103" stroke="#616161" stroke-linecap="round" stroke-linejoin="round"/>
<path d="M148.498 355.054L149.644 351.346L145.307 350.006L144.733 351.864" stroke="#616161" stroke-linecap="round" stroke-linejoin="round"/>
<path d="M138.703 386.751L139.851 383.035L135.514 381.695L134.94 383.553" stroke="#616161" stroke-linecap="round" stroke-linejoin="round"/>
<path d="M143.604 370.904L144.749 367.196L140.412 365.855L139.84 367.706" stroke="#616161" stroke-linecap="round" stroke-linejoin="round"/>
<path d="M144.182 342.98L162.995 348.793" stroke="#616161" stroke-linecap="round" stroke-linejoin="round"/>
<path d="M131.162 358.602C132.293 358.951 133.494 358.314 133.845 357.179C134.195 356.045 133.563 354.841 132.432 354.492C131.301 354.143 130.101 354.779 129.75 355.914C129.399 357.049 130.032 358.252 131.162 358.602Z" stroke="#616161" stroke-linecap="round" stroke-linejoin="round"/>
<path d="M139.268 358.887L158.081 364.7" stroke="#616161" stroke-linecap="round" stroke-linejoin="round"/>
<path d="M126.27 374.443C126.744 374.589 127.253 374.566 127.712 374.378C128.171 374.191 128.551 373.85 128.786 373.414C129.022 372.977 129.099 372.473 129.005 371.986C128.91 371.5 128.65 371.061 128.268 370.745C127.886 370.428 127.407 370.254 126.911 370.252C126.415 370.25 125.934 370.419 125.549 370.732C125.165 371.045 124.9 371.481 124.801 371.967C124.702 372.453 124.775 372.958 125.007 373.396" stroke="#616161" stroke-linecap="round" stroke-linejoin="round"/>
<path d="M134.373 374.738L153.186 380.551" stroke="#616161" stroke-linecap="round" stroke-linejoin="round"/>
<path d="M121.369 390.291C122.5 390.641 123.701 390.004 124.052 388.869C124.402 387.734 123.77 386.531 122.639 386.181C121.508 385.832 120.308 386.469 119.957 387.604C119.606 388.739 120.239 389.942 121.369 390.291Z" stroke="#616161" stroke-linecap="round" stroke-linejoin="round"/>
<path d="M129.475 390.578L148.288 396.391" stroke="#616161" stroke-linecap="round" stroke-linejoin="round"/>
<path d="M604 152L607.89 155.92" stroke="#616161" stroke-linecap="round" stroke-linejoin="round"/>
<path d="M607.89 152L604 155.92" stroke="#616161" stroke-linecap="round" stroke-linejoin="round"/>
<path d="M1037 530L1040.89 533.92" stroke="#616161" stroke-linecap="round" stroke-linejoin="round"/>
<path d="M1040.89 530L1037 533.92" stroke="#616161" stroke-linecap="round" stroke-linejoin="round"/>
<path d="M52 178L55.89 181.92" stroke="#616161" stroke-linecap="round" stroke-linejoin="round"/>
<path d="M55.89 178L52 181.92" stroke="#616161" stroke-linecap="round" stroke-linejoin="round"/>
<path d="M694.06 202.16C696.855 202.16 699.12 199.886 699.12 197.08C699.12 194.274 696.855 192 694.06 192C691.265 192 689 194.274 689 197.08C689 199.886 691.265 202.16 694.06 202.16Z" stroke="#616161" stroke-linecap="round" stroke-linejoin="round"/>
<path d="M380.06 483.16C382.855 483.16 385.12 480.886 385.12 478.08C385.12 475.274 382.855 473 380.06 473C377.265 473 375 475.274 375 478.08C375 480.886 377.265 483.16 380.06 483.16Z" stroke="#616161" stroke-linecap="round" stroke-linejoin="round"/>
<path d="M1101.06 351.16C1103.85 351.16 1106.12 348.886 1106.12 346.08C1106.12 343.274 1103.85 341 1101.06 341C1098.27 341 1096 343.274 1096 346.08C1096 348.886 1098.27 351.16 1101.06 351.16Z" stroke="#616161" stroke-linecap="round" stroke-linejoin="round"/>
<path d="M906.58 130.32L899.29 137.64L892 130.32L899.29 123L906.58 130.32Z" stroke="#616161" stroke-linecap="round" stroke-linejoin="round"/>
<path d="M906.58 130.32L899.29 137.64L892 130.32L899.29 123L906.58 130.32Z" stroke="#616161" stroke-linecap="round" stroke-linejoin="round"/>
<path d="M29.58 350.32L22.29 357.64L15 350.32L22.29 343L29.58 350.32Z" stroke="#616161" stroke-linecap="round" stroke-linejoin="round"/>
<path d="M29.58 350.32L22.29 357.64L15 350.32L22.29 343L29.58 350.32Z" stroke="#616161" stroke-linecap="round" stroke-linejoin="round"/>
<path d="M1276.58 209.32L1269.29 216.64L1262 209.32L1269.29 202L1276.58 209.32Z" stroke="#616161" stroke-linecap="round" stroke-linejoin="round"/>
<path d="M1276.58 209.32L1269.29 216.64L1262 209.32L1269.29 202L1276.58 209.32Z" stroke="#616161" stroke-linecap="round" stroke-linejoin="round"/>
<path d="M161.58 93.32L154.29 100.64L147 93.32L154.29 86L161.58 93.32Z" stroke="#616161" stroke-linecap="round" stroke-linejoin="round"/>
<path d="M161.58 93.32L154.29 100.64L147 93.32L154.29 86L161.58 93.32Z" stroke="#616161" stroke-linecap="round" stroke-linejoin="round"/>
<path d="M871.422 208V212.87" stroke="#616161" stroke-linecap="round" stroke-linejoin="round"/>
<path d="M873.85 210.441H869" stroke="#616161" stroke-linecap="round" stroke-linejoin="round"/>
<path d="M1098.42 43V47.87" stroke="#616161" stroke-linecap="round" stroke-linejoin="round"/>
<path d="M1100.85 45.4414H1096" stroke="#616161" stroke-linecap="round" stroke-linejoin="round"/>
<path d="M304.422 43V47.87" stroke="#616161" stroke-linecap="round" stroke-linejoin="round"/>
<path d="M306.85 45.4414H302" stroke="#616161" stroke-linecap="round" stroke-linejoin="round"/>
<path d="M152.422 448V452.87" stroke="#616161" stroke-linecap="round" stroke-linejoin="round"/>
<path d="M154.85 450.441H150" stroke="#616161" stroke-linecap="round" stroke-linejoin="round"/>
</svg>
