<svg width="204" height="228" viewBox="0 0 204 228" fill="none" xmlns="http://www.w3.org/2000/svg">
<path d="M202.754 100.238C202.754 96.8926 201.772 93.621 199.931 90.8284C198.089 88.0358 195.468 85.8451 192.393 84.5278C195.557 80.5932 197.604 75.8799 198.32 70.882C199.035 65.8842 198.393 60.7859 196.46 56.1217C194.527 51.4575 191.375 47.3992 187.335 44.3723C183.294 41.3454 178.513 39.4614 173.493 38.9178C170.024 29.7528 164.315 21.6022 156.888 15.2095C149.46 8.81682 140.55 4.38537 130.971 2.31935C121.391 0.253327 111.447 0.618485 102.045 3.38152C92.6429 6.14455 84.0821 11.2175 77.1435 18.1378C72.8956 16.334 68.3178 15.4374 63.7033 15.5054C59.0888 15.5733 54.5394 16.6043 50.3464 18.5323C46.1534 20.4602 42.4094 23.2427 39.354 26.7014C36.2987 30.1602 33.9994 34.219 32.6035 38.6178C23.7866 42.0848 16.1197 47.9565 10.4747 55.5652C4.82971 63.1738 1.43325 72.2139 0.671659 81.6573C-0.0899367 91.1006 1.81388 100.568 6.16659 108.983C10.5193 117.398 17.1462 124.423 25.2935 129.258C24.106 133.899 23.9954 138.751 24.97 143.441C25.9446 148.132 27.9787 152.538 30.9168 156.322C33.8549 160.107 37.6192 163.169 41.9221 165.276C46.225 167.383 50.9525 168.478 55.7435 168.478C57.7163 168.478 59.6849 168.294 61.6235 167.928C66.2806 173.144 72.0249 177.275 78.4516 180.03C84.8783 182.785 91.8311 184.098 98.8199 183.874C105.809 183.651 112.664 181.898 118.902 178.739C125.139 175.579 130.609 171.09 134.923 165.588C142.339 167.092 149.996 166.931 157.342 165.116C164.687 163.302 171.539 159.879 177.401 155.096C183.264 150.313 187.991 144.287 191.243 137.455C194.494 130.623 196.189 123.154 196.203 115.588C196.203 114.978 196.203 114.368 196.153 113.758C198.217 112.162 199.886 110.112 201.03 107.768C202.175 105.423 202.765 102.847 202.754 100.238Z" fill="white" stroke="white" stroke-width="0.75" stroke-linecap="round" stroke-linejoin="round"/>
<path d="M134.653 180.947C131.97 180.957 129.382 181.948 127.379 183.733C125.375 185.517 124.092 187.973 123.773 190.637C122.828 189.859 121.653 189.414 120.43 189.373C119.207 189.331 118.004 189.696 117.009 190.409C116.014 191.122 115.283 192.144 114.929 193.315C114.576 194.487 114.619 195.743 115.053 196.887C113.344 198.056 111.996 199.678 111.159 201.572C110.323 203.466 110.031 205.555 110.318 207.605C110.605 209.655 111.458 211.585 112.782 213.176C114.105 214.768 115.847 215.958 117.811 216.614C119.774 217.269 121.882 217.363 123.896 216.886C125.91 216.408 127.751 215.378 129.212 213.911C130.672 212.444 131.694 210.598 132.163 208.581C132.631 206.565 132.527 204.458 131.863 202.497C132.772 202.745 133.71 202.873 134.653 202.877C137.41 202.657 139.982 201.406 141.858 199.374C143.734 197.342 144.776 194.678 144.776 191.912C144.776 189.147 143.734 186.483 141.858 184.451C139.982 182.419 137.41 181.168 134.653 180.947Z" fill="white" stroke="white" stroke-width="0.75" stroke-linecap="round" stroke-linejoin="round"/>
<path d="M89.3642 202.708C87.4347 202.706 85.5317 203.158 83.8087 204.026C82.0856 204.894 80.5907 206.155 79.4442 207.708C78.954 207.607 78.4547 207.556 77.9542 207.558C76.9509 207.521 75.9504 207.687 75.0127 208.045C74.0749 208.404 73.2191 208.948 72.4963 209.645C71.7735 210.342 71.1986 211.177 70.806 212.101C70.4133 213.025 70.2109 214.019 70.2109 215.023C70.2109 216.027 70.4133 217.02 70.806 217.944C71.1986 218.868 71.7735 219.704 72.4963 220.4C73.2191 221.097 74.0749 221.641 75.0127 222C75.9504 222.358 76.9509 222.524 77.9542 222.488C78.4547 222.489 78.954 222.438 79.4442 222.338C80.6937 224.037 82.358 225.388 84.2781 226.261C86.1983 227.134 88.3102 227.5 90.4122 227.325C92.5142 227.149 94.5361 226.438 96.285 225.259C98.0338 224.08 99.4512 222.472 100.402 220.589C101.352 218.706 101.804 216.61 101.715 214.503C101.625 212.396 100.997 210.346 99.8898 208.551C98.7827 206.756 97.2339 205.274 95.3912 204.247C93.5485 203.221 91.4735 202.684 89.3642 202.688V202.708Z" fill="white" stroke="white" stroke-width="0.75" stroke-linecap="round" stroke-linejoin="round"/>
<path d="M53.8936 217.328C57.7375 217.328 60.8536 214.212 60.8536 210.368C60.8536 206.524 57.7375 203.408 53.8936 203.408C50.0497 203.408 46.9336 206.524 46.9336 210.368C46.9336 214.212 50.0497 217.328 53.8936 217.328Z" fill="white" stroke="white" stroke-width="0.75" stroke-linecap="round" stroke-linejoin="round"/>
<path d="M32.3832 204.169C34.8298 204.169 36.8132 202.185 36.8132 199.739C36.8132 197.292 34.8298 195.309 32.3832 195.309C29.9366 195.309 27.9531 197.292 27.9531 199.739C27.9531 202.185 29.9366 204.169 32.3832 204.169Z" fill="white" stroke="white" stroke-width="0.75" stroke-linecap="round" stroke-linejoin="round"/>
</svg>
