<svg width="1440" height="161" viewBox="0 0 1440 161" fill="none" xmlns="http://www.w3.org/2000/svg">
<path d="M1440 128.288L1392 112.288C1344 96.2882 1248 64.2882 1152 37.5882C1056 11.2882 960 -10.7118 864 5.58817C768 21.2882 672 75.2882 576 90.9882C480 107.288 384 85.2882 288 90.9882C192 96.2882 96 128.288 48 144.288L0 160.288H48C96 160.288 192 160.288 288 160.288C384 160.288 480 160.288 576 160.288C672 160.288 768 160.288 864 160.288C960 160.288 1056 160.288 1152 160.288C1248 160.288 1344 160.288 1392 160.288H1440V128.288Z" fill="#00B5EF"/>
</svg>
