<svg width="93" height="267" viewBox="0 0 93 267" fill="none" xmlns="http://www.w3.org/2000/svg">
<path d="M92.9208 266.802V240.342C59.1108 240.342 58.8658 225.642 58.8658 183.747V163.902C58.8658 150.917 57.8858 136.217 39.2658 132.052V130.827C58.3758 126.417 58.6208 112.697 58.6208 95.5466V69.0866C58.6208 34.2966 59.1108 27.4366 92.9208 27.4366V0.976562C39.7558 0.976562 22.8508 11.2666 22.8508 52.1816V86.2366C22.8508 103.632 19.6658 112.697 0.800781 116.617V146.262C19.9108 147.977 23.0958 163.902 23.0958 173.457V203.102C23.0958 254.797 40.0008 266.802 92.9208 266.802Z" fill="white"/>
</svg>
