<svg width="93" height="266" viewBox="0 0 93 266" fill="none" xmlns="http://www.w3.org/2000/svg">
<path d="M0.078125 0L0.0781273 26.46C33.8881 26.46 34.1331 41.16 34.1331 83.055V102.9C34.1331 115.885 35.1131 130.585 53.7331 134.75V135.975C34.6231 140.385 34.3781 154.105 34.3781 171.255L34.3781 197.715C34.3781 232.505 33.8881 239.365 0.0781459 239.365L0.0781482 265.825C53.2431 265.825 70.1481 255.535 70.1481 214.62V180.565C70.1481 163.17 73.3331 154.105 92.1981 150.185L92.1981 120.54C73.0881 118.825 69.9031 102.9 69.9031 93.345V63.7C69.9031 12.005 52.9981 -4.62641e-06 0.078125 0Z" fill="white"/>
</svg>
