<svg width="42" height="49" viewBox="0 0 42 49" fill="none" xmlns="http://www.w3.org/2000/svg">
<path d="M20.4594 13.5296C17.7998 13.6339 15.2801 14.748 13.4132 16.645C11.5463 18.542 10.4727 21.0792 10.411 23.7401C10.3812 26.0615 11.137 28.3248 12.5555 30.1626C14.0821 32.0707 15.0069 34.3897 15.2123 36.8247L15.2638 37.5948C15.2956 38.0697 15.4432 38.5295 15.6937 38.9342C15.9443 39.3388 16.29 39.676 16.7009 39.9162H24.8074C24.9447 39.836 25.0753 39.7448 25.198 39.6435C25.4422 39.4434 25.6503 39.2028 25.8133 38.9324C26.0636 38.5282 26.2115 38.0691 26.2444 37.5948L26.296 36.8247C26.5085 34.3814 27.4393 32.0557 28.9712 30.1405C30.1565 28.5885 30.878 26.7325 31.0523 24.7874C31.2266 22.8423 30.8464 20.8877 29.9558 19.1497C29.0652 17.4117 27.7006 15.9615 26.02 14.9668C24.3394 13.9722 22.4114 13.4739 20.4594 13.5296V13.5296Z" stroke="white" stroke-width="1.3" stroke-linecap="round" stroke-linejoin="round"/>
<path d="M24.1273 44.5723C24.0976 45.4912 23.7117 46.3625 23.0512 47.002C22.3907 47.6415 21.5074 47.9991 20.588 47.9991C19.6687 47.9991 18.7853 47.6415 18.1248 47.002C17.4644 46.3625 17.0785 45.4912 17.0488 44.5723" stroke="white" stroke-width="1.3" stroke-linecap="round" stroke-linejoin="round"/>
<path d="M16.4242 42.2448C16.1153 42.2448 15.8192 42.1221 15.6008 41.9037C15.3824 41.6854 15.2598 41.3892 15.2598 41.0804C15.2607 40.7719 15.3837 40.4763 15.6019 40.2581C15.82 40.04 16.1156 39.917 16.4242 39.916H24.7591C25.0679 39.916 25.3641 40.0387 25.5824 40.2571C25.8008 40.4754 25.9235 40.7716 25.9235 41.0804C25.924 41.2334 25.8942 41.3851 25.8358 41.5266C25.7775 41.6681 25.6917 41.7966 25.5835 41.9048C25.4753 42.0131 25.3467 42.0988 25.2053 42.1571C25.0638 42.2155 24.9121 42.2453 24.7591 42.2448" stroke="white" stroke-width="1.3" stroke-linecap="round" stroke-linejoin="round"/>
<path d="M18.0565 44.571H16.4242C16.1153 44.571 15.8192 44.4483 15.6008 44.2299C15.3824 44.0116 15.2598 43.7154 15.2598 43.4066V43.4066C15.2607 43.0981 15.3837 42.8025 15.6019 42.5843C15.82 42.3661 16.1156 42.2432 16.4242 42.2422H22.9241" stroke="white" stroke-width="1.3" stroke-linecap="round" stroke-linejoin="round"/>
<path d="M24.7591 42.2422C25.0679 42.2422 25.364 42.3649 25.5824 42.5832C25.8008 42.8016 25.9235 43.0978 25.9235 43.4066V43.4066C25.9239 43.5596 25.8942 43.7113 25.8358 43.8527C25.7775 43.9942 25.6917 44.1228 25.5835 44.231C25.4753 44.3392 25.3467 44.425 25.2052 44.4833C25.0637 44.5417 24.9121 44.5714 24.7591 44.571H19.7109" stroke="white" stroke-width="1.3" stroke-linecap="round" stroke-linejoin="round"/>
<path d="M15.6022 17.9844C14.8436 18.6909 14.2392 19.5465 13.8271 20.4977C13.4149 21.4488 13.2038 22.4749 13.2071 23.5115" stroke="white" stroke-width="1.3" stroke-linecap="round" stroke-linejoin="round"/>
<path d="M20.7507 15.9512C19.6423 15.9487 18.5472 16.1928 17.5449 16.666" stroke="white" stroke-width="1.3" stroke-linecap="round" stroke-linejoin="round"/>
<path d="M20.75 7.44097V1" stroke="white" stroke-width="1.3" stroke-linecap="round" stroke-linejoin="round"/>
<path d="M7.50195 7.18555L11.3783 11.0619" stroke="white" stroke-width="1.3" stroke-linecap="round" stroke-linejoin="round"/>
<path d="M33.9975 7.72461L30.1211 11.601" stroke="white" stroke-width="1.3" stroke-linecap="round" stroke-linejoin="round"/>
<path d="M1 23.4961H6.6119" stroke="white" stroke-width="1.3" stroke-linecap="round" stroke-linejoin="round"/>
<path d="M34.8887 23.4961H40.5006" stroke="white" stroke-width="1.3" stroke-linecap="round" stroke-linejoin="round"/>
</svg>
