<svg width="1038" height="494" viewBox="0 0 1038 494" fill="none" xmlns="http://www.w3.org/2000/svg">
<g clip-path="url(#clip0_2001_153041)">
<path d="M774.232 37.5693C772.127 37.5694 770.046 38.0194 768.128 38.8892C766.21 39.7589 764.501 41.0283 763.114 42.6124C761.727 44.1965 760.694 46.0586 760.085 48.0742C759.476 50.0898 759.305 52.2122 759.582 54.2993L765.792 100.839H785.672L791.882 54.2993C792.16 52.2122 791.989 50.0898 791.38 48.0742C790.771 46.0586 789.738 44.1965 788.351 42.6124C786.964 41.0283 785.254 39.7589 783.337 38.8892C781.419 38.0194 779.338 37.5694 777.232 37.5693H774.232Z" fill="black"/>
<path d="M765.792 100.839H785.672L791.882 54.2993C792.16 52.2122 791.989 50.0898 791.38 48.0742C790.771 46.0586 789.738 44.1965 788.351 42.6124C786.964 41.0283 785.254 39.7589 783.337 38.8892C781.419 38.0194 779.338 37.5694 777.232 37.5693H774.232C772.127 37.5694 770.046 38.0194 768.128 38.8892C766.21 39.7589 764.501 41.0283 763.114 42.6124C761.727 44.1965 760.694 46.0586 760.085 48.0742C759.476 50.0898 759.305 52.2122 759.582 54.2993" stroke="white" stroke-width="1.3" stroke-linecap="round" stroke-linejoin="round"/>
<path d="M763.233 56.5693C761.18 56.5752 759.152 57.0329 757.295 57.9099C755.438 58.7868 753.797 60.0616 752.487 61.6439C751.178 63.2261 750.233 65.077 749.719 67.0654C749.205 69.0537 749.135 71.1308 749.513 73.1493L754.793 100.839H771.673L777.003 73.1493C777.382 71.1308 777.311 69.0537 776.797 67.0654C776.283 65.077 775.338 63.2261 774.029 61.6439C772.72 60.0616 771.078 58.7868 769.221 57.9099C767.364 57.0329 765.337 56.5752 763.283 56.5693H763.233Z" fill="black"/>
<path d="M772.79 94.9993L777 73.1493C777.379 71.1308 777.308 69.0537 776.794 67.0654C776.28 65.077 775.335 63.2261 774.026 61.6439C772.717 60.0616 771.075 58.7868 769.218 57.9099C767.361 57.0329 765.334 56.5752 763.28 56.5693V56.5693C761.226 56.5752 759.199 57.0329 757.342 57.9099C755.485 58.7868 753.844 60.0616 752.534 61.6439C751.225 63.2261 750.28 65.077 749.766 67.0654C749.252 69.0537 749.182 71.1308 749.56 73.1493" stroke="white" stroke-width="1.3" stroke-linecap="round" stroke-linejoin="round"/>
<path d="M750.359 77.5996L754.789 100.84H763.229H771.669" stroke="white" stroke-width="1.3" stroke-linecap="round" stroke-linejoin="round"/>
<path d="M768.974 99.8398H743.234L752.444 137.97H768.974H785.494L794.714 99.8398H768.974Z" fill="#FF57A4"/>
<path d="M768.974 99.8398H743.234L752.444 137.97H768.974H785.494L794.714 99.8398H768.974Z" stroke="black" stroke-width="1.3" stroke-linecap="round" stroke-linejoin="round"/>
<path d="M980.011 416.939L989.901 452.939H975.321L949.281 416.939H980.011Z" fill="black"/>
<path d="M980.011 416.939L989.901 452.939H975.321L949.281 416.939H980.011Z" stroke="white" stroke-width="1.3" stroke-linecap="round" stroke-linejoin="round"/>
<path d="M614.736 416.899L604.836 452.899H619.416L645.456 416.899H614.736Z" fill="black"/>
<path d="M614.736 416.899L604.836 452.899H619.416L645.456 416.899H614.736Z" stroke="white" stroke-width="1.3" stroke-linecap="round" stroke-linejoin="round"/>
<path d="M642.585 416.899L632.695 452.899H647.275L673.315 416.899H642.585Z" fill="#FF57A4"/>
<path d="M642.585 416.899L632.695 452.899H647.275L673.315 416.899H642.585Z" stroke="black" stroke-width="1.3" stroke-linecap="round" stroke-linejoin="round"/>
<path d="M1007.87 416.939L1017.76 452.939H1003.18L977.141 416.939H1007.87Z" fill="#FF57A4"/>
<path d="M1007.87 416.939L1017.76 452.939H1003.18L977.141 416.939H1007.87Z" stroke="black" stroke-width="1.3" stroke-linecap="round" stroke-linejoin="round"/>
<path d="M1017.73 416.9H660.445V137.97H864.295H871.865H1017.73V416.9Z" fill="black"/>
<path d="M660.446 137.97H604.836V416.9H660.446V137.97Z" fill="black"/>
<path d="M660.446 296.39V137.97H604.836V411.74" stroke="white" stroke-width="1.3" stroke-linecap="round" stroke-linejoin="round"/>
<path d="M660.445 412.48V302.91" stroke="white" stroke-width="1.3" stroke-linecap="round" stroke-linejoin="round"/>
<path d="M604.836 416.899H660.446" stroke="white" stroke-width="1.3" stroke-linecap="round" stroke-linejoin="round"/>
<path d="M1012.42 416.899H660.445" stroke="white" stroke-width="1.3" stroke-linecap="round" stroke-linejoin="round"/>
<path d="M1009.52 137.97H1017.73V416.9" stroke="white" stroke-width="1.3" stroke-linecap="round" stroke-linejoin="round"/>
<path d="M871.859 137.97H1001.16" stroke="white" stroke-width="1.3" stroke-linecap="round" stroke-linejoin="round"/>
<path d="M660.445 137.97H866.265" stroke="white" stroke-width="1.3" stroke-linecap="round" stroke-linejoin="round"/>
<path d="M985.898 319.149H1007.72" stroke="white" stroke-width="1.3" stroke-linecap="round" stroke-linejoin="round"/>
<path d="M849.523 319.149H978.543" stroke="white" stroke-width="1.3" stroke-linecap="round" stroke-linejoin="round"/>
<path d="M849.523 333.779H1007.72" stroke="white" stroke-width="1.3" stroke-linecap="round" stroke-linejoin="round"/>
<path d="M952.891 348.399H1007.72" stroke="white" stroke-width="1.3" stroke-linecap="round" stroke-linejoin="round"/>
<path d="M849.523 348.399H945.123" stroke="white" stroke-width="1.3" stroke-linecap="round" stroke-linejoin="round"/>
<path d="M877.516 363.029H1007.73" stroke="white" stroke-width="1.3" stroke-linecap="round" stroke-linejoin="round"/>
<path d="M849.523 363.029H871.443" stroke="white" stroke-width="1.3" stroke-linecap="round" stroke-linejoin="round"/>
<path d="M849.523 377.649H1007.72" stroke="white" stroke-width="1.3" stroke-linecap="round" stroke-linejoin="round"/>
<path d="M891.031 392.279H1007.72" stroke="white" stroke-width="1.3" stroke-linecap="round" stroke-linejoin="round"/>
<path d="M849.523 392.279H881.293" stroke="white" stroke-width="1.3" stroke-linecap="round" stroke-linejoin="round"/>
<path d="M989.898 406.899H1007.72" stroke="white" stroke-width="1.3" stroke-linecap="round" stroke-linejoin="round"/>
<path d="M849.523 406.899H982.223" stroke="white" stroke-width="1.3" stroke-linecap="round" stroke-linejoin="round"/>
<path d="M716.191 154.489H691.961V217.879H716.191V154.489Z" stroke="white" stroke-width="1.3" stroke-linecap="round" stroke-linejoin="round"/>
<path d="M691.962 154.489H683.742" stroke="white" stroke-width="1.3" stroke-linecap="round" stroke-linejoin="round"/>
<path d="M700.158 166.67C699.254 167.575 698.691 168.765 698.566 170.038C698.44 171.311 698.76 172.589 699.471 173.652C700.182 174.716 701.24 175.501 702.464 175.872C703.689 176.243 705.004 176.178 706.186 175.689C707.368 175.199 708.343 174.315 708.946 173.186C709.549 172.058 709.742 170.755 709.493 169.5C709.243 168.246 708.566 167.116 707.577 166.305C706.588 165.493 705.348 165.05 704.068 165.05" stroke="white" stroke-width="1.3" stroke-linecap="round" stroke-linejoin="round"/>
<path d="M748.644 154.489H724.414V217.879H748.644V154.489Z" stroke="white" stroke-width="1.3" stroke-linecap="round" stroke-linejoin="round"/>
<path d="M724.412 154.489H719.172" stroke="white" stroke-width="1.3" stroke-linecap="round" stroke-linejoin="round"/>
<path d="M740.433 174.49C741.337 173.585 741.9 172.395 742.026 171.121C742.151 169.848 741.831 168.571 741.12 167.507C740.409 166.443 739.351 165.659 738.127 165.288C736.903 164.917 735.587 164.981 734.405 165.471C733.224 165.961 732.248 166.845 731.645 167.973C731.042 169.102 730.849 170.404 731.099 171.659C731.348 172.914 732.025 174.043 733.014 174.855C734.004 175.666 735.243 176.11 736.523 176.11" stroke="white" stroke-width="1.3" stroke-linecap="round" stroke-linejoin="round"/>
<path d="M781.082 154.489H756.852V217.879H781.082V154.489Z" fill="#FF57A4"/>
<path d="M781.082 154.489H756.852V217.879H781.082V154.489Z" stroke="black" stroke-width="1.3" stroke-linecap="round" stroke-linejoin="round"/>
<path d="M766.161 165.81C765.003 166.488 764.131 167.564 763.706 168.837C763.282 170.11 763.334 171.494 763.853 172.732C764.372 173.97 765.323 174.977 766.528 175.567C767.734 176.156 769.113 176.288 770.408 175.938C771.704 175.587 772.828 174.778 773.572 173.662C774.316 172.545 774.63 171.195 774.454 169.865C774.279 168.534 773.626 167.313 772.618 166.427C771.609 165.542 770.313 165.052 768.971 165.05" stroke="black" stroke-width="1.3" stroke-linecap="round" stroke-linejoin="round"/>
<path d="M813.535 160.149V217.879H789.305V154.489H813.535" stroke="white" stroke-width="1.3" stroke-linecap="round" stroke-linejoin="round"/>
<path d="M789.303 154.489H783.812" stroke="white" stroke-width="1.3" stroke-linecap="round" stroke-linejoin="round"/>
<path d="M801.413 176.11C804.467 176.11 806.943 173.634 806.943 170.58C806.943 167.526 804.467 165.05 801.413 165.05C798.359 165.05 795.883 167.526 795.883 170.58C795.883 173.634 798.359 176.11 801.413 176.11Z" stroke="white" stroke-width="1.3" stroke-linecap="round" stroke-linejoin="round"/>
<path d="M813.523 193.65V217.88H876.913V193.65H813.523Z" stroke="white" stroke-width="1.3" stroke-linecap="round" stroke-linejoin="round"/>
<path d="M829.616 211.299C832.67 211.299 835.146 208.823 835.146 205.769C835.146 202.715 832.67 200.239 829.616 200.239C826.562 200.239 824.086 202.715 824.086 205.769C824.086 208.823 826.562 211.299 829.616 211.299Z" stroke="white" stroke-width="1.3" stroke-linecap="round" stroke-linejoin="round"/>
<path d="M830.336 169.43H893.736V193.66H830.336V176.01" stroke="white" stroke-width="1.3" stroke-linecap="round" stroke-linejoin="round"/>
<path d="M846.421 187.07C849.475 187.07 851.951 184.594 851.951 181.54C851.951 178.486 849.475 176.01 846.421 176.01C843.366 176.01 840.891 178.486 840.891 181.54C840.891 184.594 843.366 187.07 846.421 187.07Z" stroke="white" stroke-width="1.3" stroke-linecap="round" stroke-linejoin="round"/>
<path d="M682.236 235.83H674.266" stroke="white" stroke-width="1.3" stroke-linecap="round" stroke-linejoin="round"/>
<path d="M736.524 235.83C736.571 237.462 736.29 239.087 735.698 240.609C735.105 242.13 734.214 243.518 733.076 244.689C731.938 245.86 730.577 246.791 729.073 247.426C727.568 248.062 725.952 248.389 724.319 248.389C722.687 248.389 721.07 248.062 719.566 247.426C718.062 246.791 716.701 245.86 715.563 244.689C714.425 243.518 713.533 242.13 712.941 240.609C712.349 239.087 712.068 237.462 712.114 235.83H682.234V308.48H766.404V235.83H736.524Z" stroke="white" stroke-width="1.3" stroke-linecap="round" stroke-linejoin="round"/>
<path d="M736.525 235.83H716.195" stroke="white" stroke-width="1.3" stroke-linecap="round" stroke-linejoin="round"/>
<path d="M775.293 235.83H769.953" stroke="white" stroke-width="1.3" stroke-linecap="round" stroke-linejoin="round"/>
<path d="M828.999 239.5C828.119 242.278 826.275 244.649 823.8 246.186C821.325 247.723 818.382 248.324 815.502 247.881C812.622 247.438 809.996 245.98 808.098 243.77C806.199 241.56 805.153 238.744 805.149 235.83H775.289V308.48H859.449V235.83H829.579" stroke="white" stroke-width="1.3" stroke-linecap="round" stroke-linejoin="round"/>
<path d="M829.58 235.83H809.25" stroke="white" stroke-width="1.3" stroke-linecap="round" stroke-linejoin="round"/>
<path d="M829.665 318.479H676.405C673.114 318.479 670.445 321.148 670.445 324.439V400.939C670.445 404.231 673.114 406.899 676.405 406.899H829.665C832.957 406.899 835.625 404.231 835.625 400.939V324.439C835.625 321.148 832.957 318.479 829.665 318.479Z" fill="#FF57A4"/>
<path d="M1007.73 147.97H670.445V217.88H1007.73V147.97Z" stroke="white" stroke-width="1.3" stroke-linecap="round" stroke-linejoin="round"/>
<path d="M670.445 308.49H1007.73V227.88H960.155" stroke="white" stroke-width="1.3" stroke-linecap="round" stroke-linejoin="round"/>
<path d="M716.195 227.88H670.445V302.91" stroke="white" stroke-width="1.3" stroke-linecap="round" stroke-linejoin="round"/>
<path d="M950.462 227.88H724.312" stroke="white" stroke-width="1.3" stroke-linecap="round" stroke-linejoin="round"/>
<path d="M753.38 342.66H752.69C748.344 342.66 744.82 346.184 744.82 350.53V374.86C744.82 379.207 748.344 382.73 752.69 382.73H753.38C757.727 382.73 761.25 379.207 761.25 374.86V350.53C761.25 346.184 757.727 342.66 753.38 342.66Z" fill="black"/>
<path d="M753 382.729H753.35C755.437 382.729 757.439 381.9 758.915 380.424C760.391 378.948 761.22 376.947 761.22 374.859V350.529C761.219 349 760.773 347.504 759.937 346.224C759.101 344.944 757.91 343.935 756.51 343.319" stroke="white" stroke-width="1.3" stroke-linecap="round" stroke-linejoin="round"/>
<path d="M752.999 342.66H752.649C751.616 342.66 750.593 342.864 749.639 343.259C748.685 343.655 747.818 344.235 747.088 344.966C746.358 345.697 745.779 346.564 745.385 347.519C744.99 348.474 744.788 349.497 744.789 350.53V374.86C744.789 376.553 745.334 378.201 746.345 379.559C747.356 380.918 748.777 381.914 750.399 382.4" stroke="white" stroke-width="1.3" stroke-linecap="round" stroke-linejoin="round"/>
<path d="M753.031 318.479V406.899" stroke="white" stroke-width="1.3" stroke-linecap="round" stroke-linejoin="round"/>
<path d="M962.9 477.73C961.46 474.12 959.17 468.83 958.45 465.1C957.73 461.37 959.17 457.28 959.17 454.51C959.17 451.74 956.04 448.44 956.17 441.51C956.3 434.58 953.71 410.02 951.77 396.76C951.77 396.76 951.11 397.19 946.77 400.76C942.43 404.33 940.53 405.56 934.77 405.32C931.4 405.18 927.04 404.63 924 404.19C927.54 415.41 936.56 439.52 939 447.88C941.44 456.24 938.18 454.6 940.8 460.67C943.42 466.74 941.29 467.73 939.65 474.29C938.01 480.85 935.92 483.19 934.12 486.56C932.32 489.93 932.12 492.94 937.37 493.66C942.62 494.38 946.15 493.9 952.37 493.66C958.59 493.42 960.91 491.86 962.83 489.66C964.75 487.46 964.34 481.34 962.9 477.73Z" fill="white"/>
<path d="M953.604 411.12C954.824 420.93 930.094 422 927.734 415.29C927.734 415.29 929.674 420.81 931.894 427.09C934.114 433.37 955.844 431.77 954.784 421.99L953.604 411.12Z" fill="#FF57A4"/>
<path d="M922.878 439.71C922.628 431.71 924.228 413.07 924.008 404.26C921.868 403.96 920.378 403.71 920.378 403.71L919.178 398.43C916.27 400.674 913.031 402.455 909.578 403.71C905.516 403.332 901.511 402.493 897.638 401.21C899.298 415.37 900.558 420.1 903.148 432.56C905.738 445.02 906.598 446.25 905.678 451.43C904.996 456.302 903.013 460.899 899.938 464.74C896.865 469.116 892.513 472.435 887.478 474.24C882.798 475.84 882.798 477.69 884.028 479.79C885.258 481.89 885.878 482.5 888.588 483.98C891.298 485.46 896.728 484.6 902.528 481.15C908.328 477.7 916.088 474.73 922.848 472.51C929.608 470.29 928.798 465.85 925.848 457.1C922.898 448.35 923.118 447.73 922.878 439.71Z" fill="white"/>
<path d="M924.003 406.39C917.493 414.83 899.193 412.7 898.383 407.2C898.383 407.2 899.063 412.59 900.033 417.53C901.003 422.47 918.323 423.58 923.763 415.34L924.003 406.39Z" fill="#FF57A4"/>
<path d="M897.638 401.21C899.298 415.37 900.558 420.1 903.148 432.56C905.738 445.02 906.598 446.25 905.678 451.43C904.996 456.302 903.013 460.9 899.938 464.74C896.865 469.117 892.513 472.435 887.478 474.24C882.798 475.84 882.798 477.69 884.028 479.79C885.258 481.89 885.878 482.5 888.588 483.98C891.298 485.46 896.728 484.6 902.528 481.15C908.328 477.7 916.088 474.73 922.848 472.51C929.608 470.29 928.798 465.85 925.848 457.1C922.898 448.35 923.128 447.73 922.848 439.71C922.568 431.69 924.198 413.07 923.978 404.26" stroke="black" stroke-width="1.3" stroke-linecap="round" stroke-linejoin="round"/>
<path d="M924 404.26C927.54 415.48 936.56 439.59 939 447.95C941.44 456.31 938.18 454.67 940.8 460.74C943.42 466.81 941.29 467.8 939.65 474.36C938.01 480.92 935.92 483.26 934.12 486.63C932.32 490 932.12 493.01 937.37 493.73C942.62 494.45 946.15 493.97 952.37 493.73C958.59 493.49 960.91 491.93 962.83 489.73C964.75 487.53 964.27 481.31 962.83 477.73C961.39 474.15 959.1 468.83 958.38 465.1C957.66 461.37 959.1 457.28 959.1 454.51C959.1 451.74 955.97 448.44 956.1 441.51C956.23 434.58 953.64 410.02 951.7 396.76" stroke="black" stroke-width="1.3" stroke-linecap="round" stroke-linejoin="round"/>
<path d="M945.914 468.33C948.264 467.617 950.774 467.617 953.124 468.33" stroke="black" stroke-width="1.3" stroke-linecap="round" stroke-linejoin="round"/>
<path d="M931.852 418.519C931.852 418.519 940.082 422.109 950.322 416.899" stroke="black" stroke-width="1.3" stroke-linecap="round" stroke-linejoin="round"/>
<path d="M906.516 411.81C906.516 411.81 917.336 414.37 924.016 406.39" stroke="black" stroke-width="1.3" stroke-linecap="round" stroke-linejoin="round"/>
<path d="M886.379 48.1597C886.159 43.7297 886.489 36.9197 892.249 31.4397C892.689 31.0197 893.189 30.5997 893.709 30.1797C892.709 30.9697 889.839 31.3497 887.219 31.5497C885.652 31.6616 884.128 32.1077 882.748 32.858C881.368 33.6083 880.165 34.6455 879.219 35.8997C872.789 44.4197 876.219 52.2897 886.879 52.8997H886.999C886.674 51.3374 886.467 49.753 886.379 48.1597Z" fill="#FF57A4"/>
<path d="M893.709 30.1797C892.709 30.9697 889.839 31.3497 887.219 31.5497C885.652 31.6616 884.128 32.1077 882.748 32.858C881.368 33.6083 880.165 34.6455 879.219 35.8997V35.8997C872.789 44.4197 876.219 52.2897 886.879 52.8997H886.999" stroke="black" stroke-width="1.3" stroke-linecap="round" stroke-linejoin="round"/>
<path d="M884.193 204.499C883.043 206.499 881.853 208.639 880.673 210.809C872.527 225.79 869.298 242.953 871.443 259.869C874.469 283.56 878.701 307.08 884.123 330.339C885.725 337.221 886.474 344.274 886.353 351.339L885.583 395.029C885.583 395.029 894.223 402.229 909.583 403.669C913.036 402.415 916.274 400.634 919.183 398.389L920.383 403.669C920.383 403.669 929.023 405.109 934.783 405.349C940.543 405.589 942.463 404.349 946.783 400.789C951.103 397.229 951.783 396.789 951.783 396.789C951.783 396.789 949.633 378.049 945.483 363.859C941.333 349.669 937.483 340.289 939.993 326.769C941.923 316.539 948.743 286.619 953.633 261.999C957.019 245.355 955.869 228.107 950.303 212.059C948.942 208.001 947.165 204.094 945.003 200.399H886.573L884.193 204.499Z" fill="black"/>
<path d="M953.616 261.999C957.002 245.355 955.852 228.107 950.286 212.059C948.931 208.002 947.162 204.094 945.006 200.399H886.576L884.196 204.499C883.046 206.499 881.856 208.639 880.676 210.809C874.592 221.991 871.221 234.446 870.836 247.169" stroke="white" stroke-width="1.3" stroke-linecap="round" stroke-linejoin="round"/>
<path d="M945.46 363.869C941.31 349.669 937.46 340.299 939.97 326.779C941.58 318.229 946.62 295.919 951.08 274.439" stroke="white" stroke-width="1.3" stroke-linecap="round" stroke-linejoin="round"/>
<path d="M885.586 395.07C885.586 395.07 894.226 402.27 909.586 403.71C913.039 402.456 916.277 400.675 919.186 398.43L920.386 403.71C920.386 403.71 929.026 405.15 934.786 405.39C940.546 405.63 942.466 404.39 946.786 400.83C951.106 397.27 951.786 396.83 951.786 396.83C950.699 387.88 949.15 378.991 947.146 370.2" stroke="white" stroke-width="1.3" stroke-linecap="round" stroke-linejoin="round"/>
<path d="M871.445 259.87C874.471 283.56 878.704 307.081 884.125 330.34C885.728 337.222 886.477 344.275 886.355 351.34L885.665 390.26" stroke="white" stroke-width="1.3" stroke-linecap="round" stroke-linejoin="round"/>
<path d="M933.261 33.91C935.033 37.0964 935.892 40.709 935.746 44.3516C935.599 47.9942 934.453 51.5261 932.431 54.56L923.431 68.06C923.431 68.06 924.961 77.06 933.581 85.69C933.581 85.69 926.111 94.31 909.051 98.34C908.64 95.6712 909.096 92.9407 910.351 90.55L903.931 79C900.354 80.149 896.668 80.9265 892.931 81.32C892.357 81.3721 891.782 81.2188 891.31 80.8875C890.838 80.5561 890.498 80.0681 890.351 79.51L889.611 76.73C889.387 76.1832 889.091 75.6687 888.731 75.2C888.031 74.42 888.241 73.08 889.331 73.08C889.785 73.0641 890.236 73.014 890.681 72.93C890.681 72.93 889.221 72.35 888.291 72.03H888.191C887.828 71.8779 887.53 71.6039 887.347 71.2552C887.165 70.9065 887.11 70.505 887.191 70.12C887.273 69.773 887.303 69.4159 887.281 69.06C887.254 68.7851 887.125 68.5303 886.92 68.3453C886.715 68.1604 886.448 68.0587 886.171 68.06H884.321C884.195 68.0595 884.072 68.0281 883.961 67.9685C883.85 67.909 883.755 67.8232 883.685 67.7186C883.615 67.6139 883.572 67.4937 883.559 67.3685C883.546 67.2432 883.564 67.1167 883.611 67C884.511 64.81 886.531 59.82 887.151 57.64C887.961 54.82 886.661 52.7 886.441 48.28C886.221 43.86 886.551 37.04 892.311 31.56C895.261 28.75 899.871 26.14 905.661 23.91C910.696 21.9883 916.254 21.9411 921.321 23.7769C926.388 25.6127 930.626 29.2092 933.261 33.91Z" fill="white"/>
<path d="M933.265 33.9097C930.647 29.1738 926.407 25.5422 921.326 23.6828C916.244 21.8235 910.661 21.8615 905.605 23.7897C899.815 26.0197 895.205 28.6297 892.255 31.4397C891.985 31.6997 891.745 31.9497 891.505 32.2097C885.005 39.3697 893.075 46.3197 902.555 43.6897C902.555 43.6897 902.825 52.0897 912.465 53.5797C912.465 53.5797 913.635 51.8697 915.115 51.8697H916.315C916.542 51.864 916.768 51.9051 916.978 51.9905C917.188 52.0759 917.379 52.2038 917.537 52.3662C917.696 52.5286 917.819 52.7219 917.9 52.9342C917.98 53.1464 918.016 53.373 918.005 53.5997C917.931 55.8214 917.596 58.0267 917.005 60.1697C916.777 60.9021 916.321 61.5429 915.705 61.9997L915.795 62.3197C915.822 62.462 915.859 62.6023 915.905 62.7397C915.905 62.8897 916.005 63.0197 916.055 63.1597C916.105 63.2997 916.125 63.3697 916.165 63.4797L916.385 63.9297C916.385 64.0097 916.455 64.0897 916.505 64.1697C916.595 64.342 916.696 64.5089 916.805 64.6697C916.835 64.7252 916.868 64.7787 916.905 64.8297C917.019 65.0117 917.146 65.1855 917.285 65.3497L917.355 65.4397C917.505 65.6197 917.665 65.7997 917.825 65.9597C918.006 66.1401 918.196 66.3104 918.395 66.4697C919.81 67.6588 921.597 68.3135 923.445 68.3197H923.505C924.847 68.325 926.169 67.9925 927.349 67.3529C928.529 66.7133 929.529 65.7871 930.257 64.6596C930.985 63.5322 931.418 62.2396 931.515 60.901C931.613 59.5624 931.372 58.2208 930.815 56.9997L932.435 54.5797C934.46 51.5436 935.609 48.008 935.756 44.3614C935.902 40.7148 935.04 37.0984 933.265 33.9097Z" fill="#FF57A4"/>
<path d="M902.555 43.6895C902.555 43.6895 902.825 52.0895 912.465 53.5795C912.465 53.5795 913.635 51.8695 915.115 51.8695H916.315C916.542 51.8637 916.767 51.9048 916.978 51.9902C917.188 52.0756 917.378 52.2035 917.537 52.3659C917.696 52.5283 917.819 52.7217 917.899 52.9339C917.98 53.1462 918.016 53.3727 918.005 53.5995C917.931 55.8212 917.595 58.0264 917.005 60.1695C916.776 60.9018 916.321 61.5426 915.705 61.9995" stroke="black" stroke-width="1.3" stroke-linecap="round" stroke-linejoin="round"/>
<path d="M892.69 59.9697C893.379 59.7321 893.625 58.6337 893.24 57.5163C892.855 56.399 891.984 55.6857 891.295 55.9233C890.606 56.1609 890.359 57.2593 890.744 58.3767C891.129 59.494 892 60.2072 892.69 59.9697Z" fill="black" stroke="black" stroke-width="1.3" stroke-linecap="round" stroke-linejoin="round"/>
<path d="M897.174 53.9999C897.174 53.9999 894.224 51.4099 888.734 51.9999V50.1699C888.734 50.1699 895.064 50.2699 897.174 53.9999Z" fill="black" stroke="black" stroke-width="1.3" stroke-linecap="round" stroke-linejoin="round"/>
<path d="M946.47 17.8497C939.91 12.6297 931.69 12.0597 928.11 16.5597C925.86 19.3997 925.99 23.5597 928.03 27.5597C930.15 29.3274 931.924 31.4739 933.26 33.8897C935.031 37.076 935.891 40.6886 935.744 44.3312C935.598 47.9738 934.451 51.5058 932.43 54.5397L930.81 56.9997C931.248 57.9416 931.492 58.9617 931.53 59.9997C931.689 60.075 931.853 60.1417 932.02 60.1997C937.75 61.9997 944.47 56.9997 947 48.9997C948.074 45.7757 948.267 42.3234 947.56 38.9997C947.507 38.7851 947.534 38.5584 947.638 38.3629C947.741 38.1674 947.912 38.0167 948.12 37.9397C949.579 37.487 950.871 36.6097 951.83 35.4197C955.44 30.9397 953 23.0597 946.47 17.8497Z" fill="#FF57A4"/>
<path d="M931.528 59.9997C931.688 60.075 931.852 60.1418 932.018 60.1997C937.748 61.9997 944.468 56.9997 946.998 48.9997C948.072 45.7757 948.266 42.3235 947.558 38.9997C947.505 38.7851 947.533 38.5584 947.636 38.3629C947.74 38.1674 947.911 38.0168 948.118 37.9397C949.578 37.487 950.87 36.6097 951.828 35.4197C955.408 30.9197 952.999 23.0397 946.439 17.8297C939.879 12.6197 931.658 12.0397 928.078 16.5397C925.828 19.3797 925.958 23.5397 927.998 27.5397C930.119 29.3075 931.892 31.4539 933.229 33.8697" stroke="black" stroke-width="1.3" stroke-linecap="round" stroke-linejoin="round"/>
<path d="M889.154 122.429C889.154 122.429 891.154 117.849 892.054 115.379C892.954 112.909 891.814 111.669 889.834 108.379C887.854 105.089 885.504 102.689 886.304 99.6493C887.104 96.6093 885.664 96.1293 886.784 94.3793L887.904 92.6193C887.904 92.6193 885.984 89.6193 884.224 86.1493C882.464 82.6793 882.704 80.2293 882.784 77.1493C882.784 75.8993 882.784 74.9793 882.784 74.3293C882.78 74.1547 882.811 73.9811 882.875 73.8187C882.939 73.6563 883.035 73.5083 883.157 73.3835C883.279 73.2587 883.425 73.1595 883.586 73.0918C883.747 73.0241 883.919 72.9892 884.094 72.9893V72.9893C884.415 72.989 884.725 73.1056 884.966 73.3173C885.207 73.5289 885.363 73.8211 885.404 74.1393C885.628 75.7706 885.762 77.4131 885.804 79.0593C885.804 81.4593 886.444 82.1793 888.364 84.8993C890.284 87.6193 891.714 89.7693 891.714 89.7693C891.714 89.7693 893.174 88.6693 894.594 87.6393C896.014 86.6093 897.364 86.9993 899.234 88.4193C900.914 89.6993 902.504 91.3493 905.114 91.9893C905.351 92.0399 905.566 92.1654 905.726 92.3473C905.886 92.5291 905.984 92.7577 906.004 92.9993V92.9993C906.004 93.2958 905.89 93.581 905.685 93.7952C905.48 94.0095 905.2 94.1364 904.904 94.1493C903.64 94.2381 902.372 94.0715 901.174 93.6593C901.174 93.6593 903.354 96.6593 905.984 97.6593C906.251 97.7568 906.482 97.9334 906.647 98.1657C906.811 98.3979 906.901 98.6748 906.904 98.9593C906.904 99.1536 906.863 99.3457 906.783 99.5228C906.703 99.7 906.586 99.8581 906.441 99.9867C906.295 100.115 906.124 100.212 905.938 100.269C905.753 100.326 905.557 100.343 905.364 100.319C904.573 100.224 903.807 99.983 903.104 99.6093C903.104 99.6093 904.904 102.249 906.194 104.309C907.484 106.369 906.004 111.309 904.264 114.989C902.524 118.669 895.324 137.999 895.324 137.999C895.324 137.999 886.904 127.749 889.154 122.429Z" stroke="black" stroke-width="1.3" stroke-linecap="round" stroke-linejoin="round"/>
<path d="M994.114 172.15L975.744 130.71C975.137 129.342 974.661 127.919 974.324 126.46L971.614 114.66C970.843 111.324 969.104 108.29 966.614 105.94C961.874 101.47 953.474 94.0501 945.504 89.5101C943.74 87.4847 942.382 85.1387 941.504 82.6001C941.11 81.4653 940.412 80.4606 939.487 79.6952C938.561 78.9299 937.443 78.4335 936.254 78.2601C933.292 77.8088 930.3 77.5882 927.304 77.6001C929.043 80.5515 931.15 83.2699 933.574 85.6901C933.574 85.6901 926.104 94.3101 909.044 98.3401C908.633 95.6712 909.088 92.9408 910.344 90.5501L906.524 83.6401C902.264 86.7601 900.854 88.6401 901.174 93.6401C901.174 93.6401 895.174 95.6401 889.174 97.0601C883.174 98.4801 877.624 99.0601 875.174 113.06C872.724 127.06 870.424 136.52 865.674 143.72C860.924 150.92 859.484 154.66 860.924 163.43C861.924 169.61 863.734 174.73 866.564 177.91C867.575 179.004 868.908 179.747 870.37 180.031C871.832 180.316 873.347 180.126 874.694 179.49C878.614 177.69 884.994 173.6 891.864 164.44C891.864 164.44 885.604 181.92 882.044 189.16C878.484 196.4 878.804 202.01 884.204 204.49L886.584 200.39H946.334C947.276 200.39 948.207 200.193 949.068 199.813C949.93 199.433 950.703 198.878 951.338 198.183C951.973 197.487 952.456 196.668 952.757 195.775C953.057 194.883 953.169 193.938 953.084 193L949.854 157.09L953.744 146.18L963.444 170.25C964.001 171.61 964.828 172.843 965.874 173.874C966.921 174.905 968.166 175.714 969.534 176.25L970.164 176.49L969.684 177.66C969.342 178.5 969.254 179.421 969.432 180.311C969.61 181.2 970.045 182.017 970.684 182.66C966.256 190.418 960.881 197.597 954.684 204.03C954.193 204.537 953.809 205.137 953.553 205.795C953.297 206.452 953.175 207.155 953.194 207.86L953.244 209.69C953.244 209.69 947.584 214.23 942.844 216.05C938.104 217.87 936.684 219.88 933.664 223.31C931.905 225.271 929.985 227.081 927.924 228.72C927.682 228.916 927.504 229.179 927.414 229.477C927.323 229.775 927.323 230.093 927.414 230.39C927.475 230.6 927.579 230.796 927.721 230.963C927.862 231.13 928.037 231.265 928.235 231.359C928.432 231.454 928.647 231.505 928.866 231.511C929.085 231.516 929.302 231.475 929.504 231.39C932.582 230.056 935.42 228.225 937.904 225.97L948.004 240.69C948.004 240.69 951.834 232.69 953.754 229C955.674 225.31 956.754 224.45 956.754 224.45C957.563 227.705 959.448 230.592 962.104 232.64C962.726 233.124 963.446 233.465 964.214 233.64C964.982 233.815 965.779 233.819 966.548 233.652C967.318 233.485 968.042 233.151 968.668 232.674C969.295 232.197 969.809 231.588 970.174 230.89C973.807 223.968 977.851 217.269 982.284 210.83C986.722 204.21 990.621 197.244 993.944 190C995.245 187.209 995.933 184.172 995.962 181.093C995.992 178.015 995.361 174.965 994.114 172.15Z" fill="white"/>
<path d="M916.564 109.56C924.514 106.66 937.494 100.56 945.514 89.5599C943.75 87.5345 942.392 85.1885 941.514 82.6499C941.12 81.5151 940.422 80.5104 939.497 79.745C938.571 78.9797 937.453 78.4833 936.264 78.3099C933.302 77.8586 930.31 77.638 927.314 77.6499C929.053 80.6013 931.16 83.3197 933.584 85.7399C933.584 85.7399 926.114 94.3599 909.054 98.3899C908.643 95.721 909.099 92.9906 910.354 90.5999L906.534 83.6899C902.274 86.8099 900.864 88.6899 901.184 93.6899C901.21 97.5988 902.178 101.444 904.004 104.9C905.183 107.062 907.103 108.724 909.412 109.581C911.72 110.437 914.261 110.43 916.564 109.56Z" fill="#FF57A4"/>
<path d="M889.561 121.49C887.381 120.49 886.561 121.33 885.261 125.03C884.106 128.46 882.681 131.794 881.001 135C879.591 137.44 882.581 145.45 888.701 152.13C894.821 158.81 896.561 158.5 899.081 154.73C900.081 153.22 901.311 151.09 902.431 149.07C903.414 147.289 903.895 145.275 903.822 143.243C903.75 141.211 903.127 139.236 902.021 137.53C900.771 135.61 899.291 133.46 897.751 131.53C893.661 126.36 889.561 121.49 889.561 121.49Z" fill="#FF57A4"/>
<path d="M951.542 175.999L949.842 157.149C927.022 150.149 895.462 159.579 895.462 159.579C895.462 159.579 893.712 161.979 891.852 164.499C891.852 164.499 889.682 170.559 887.172 177.019C924.002 170.789 951.542 175.999 951.542 175.999Z" fill="#FF57A4"/>
<path d="M968.271 211.88C966.751 204.36 962.451 196.98 957.841 200.71C956.841 201.836 955.797 202.953 954.711 204.06C954.22 204.567 953.835 205.167 953.579 205.825C953.324 206.482 953.202 207.184 953.221 207.89L953.271 209.72C954.901 208.57 955.511 208.09 955.511 208.09C957.899 211.982 959.909 216.094 961.511 220.37C959.778 221.518 958.204 222.89 956.831 224.45C957.639 227.705 959.525 230.591 962.181 232.64C962.802 233.123 963.522 233.465 964.29 233.64C965.058 233.814 965.855 233.819 966.625 233.652C967.395 233.485 968.118 233.151 968.745 232.674C969.371 232.196 969.885 231.588 970.251 230.89C970.941 229.57 971.781 228.03 972.731 226.33C974.571 223 969.781 219.39 968.271 211.88Z" fill="#FF57A4"/>
<path d="M906.532 83.6393C902.272 86.7593 900.862 88.6393 901.182 93.6393C901.182 93.6393 895.182 95.6393 889.182 97.0593C883.182 98.4793 877.632 99.0593 875.182 113.059C872.732 127.059 870.432 136.519 865.682 143.719C860.932 150.919 859.492 154.659 860.932 163.429C861.932 169.609 863.742 174.729 866.572 177.909C867.583 179.003 868.916 179.747 870.378 180.031C871.84 180.315 873.355 180.125 874.702 179.489C878.622 177.689 885.002 173.599 891.872 164.439C891.872 164.439 885.612 181.919 882.052 189.159C878.492 196.399 878.812 202.009 884.212 204.489L886.592 200.389H946.342C947.283 200.389 948.215 200.193 949.076 199.812C949.938 199.432 950.71 198.877 951.345 198.182C951.98 197.487 952.464 196.667 952.764 195.774C953.065 194.882 953.177 193.937 953.092 192.999L949.862 157.089L953.752 146.179L963.452 170.249C964.009 171.609 964.836 172.842 965.882 173.873C966.929 174.904 968.174 175.713 969.542 176.249L970.172 176.489L969.692 177.659C969.35 178.499 969.262 179.421 969.44 180.31C969.617 181.199 970.053 182.016 970.692 182.659V182.659C966.264 190.418 960.889 197.596 954.692 204.029C954.201 204.536 953.816 205.136 953.561 205.794C953.305 206.452 953.183 207.154 953.202 207.859L953.252 209.689C953.252 209.689 947.592 214.229 942.852 216.049C938.112 217.869 936.692 219.879 933.672 223.309C931.913 225.27 929.993 227.08 927.932 228.719C927.69 228.915 927.512 229.179 927.421 229.476C927.33 229.774 927.331 230.092 927.422 230.389C927.482 230.6 927.587 230.795 927.728 230.962C927.87 231.129 928.045 231.264 928.242 231.359C928.44 231.453 928.655 231.505 928.874 231.51C929.093 231.515 929.31 231.474 929.512 231.389C932.59 230.055 935.428 228.224 937.912 225.969L948.002 240.689C948.002 240.689 951.832 232.689 953.752 228.999C955.672 225.309 956.752 224.449 956.752 224.449C957.561 227.705 959.446 230.591 962.102 232.639C962.723 233.123 963.444 233.464 964.212 233.639C964.979 233.814 965.776 233.818 966.546 233.651C967.316 233.484 968.039 233.15 968.666 232.673C969.292 232.196 969.807 231.587 970.172 230.889C973.805 223.967 977.849 217.268 982.282 210.829C986.72 204.209 990.619 197.244 993.942 189.999C995.244 187.207 995.933 184.168 995.962 181.088C995.992 178.007 995.361 174.956 994.112 172.139L975.742 130.699C975.135 129.331 974.659 127.908 974.322 126.449L971.612 114.649C970.841 111.313 969.102 108.28 966.612 105.929C961.872 101.459 953.472 94.0393 945.502 89.4993C943.738 87.474 942.379 85.128 941.502 82.5893C941.108 81.4546 940.41 80.4498 939.484 79.6845C938.559 78.9192 937.44 78.4228 936.252 78.2493C933.29 77.7981 930.298 77.5774 927.302 77.5893" stroke="black" stroke-width="1.3" stroke-linecap="round" stroke-linejoin="round"/>
<path d="M889.154 122.429C889.154 122.429 891.154 117.849 892.054 115.379C892.954 112.909 891.814 111.669 889.834 108.379C887.854 105.089 885.504 102.689 886.304 99.6493C887.104 96.6093 885.664 96.1293 886.784 94.3793L887.904 92.6193C887.904 92.6193 885.984 89.6193 884.224 86.1493C882.464 82.6793 882.704 80.2293 882.784 77.1493C882.784 75.8993 882.784 74.9793 882.784 74.3293C882.78 74.1547 882.811 73.9811 882.875 73.8187C882.939 73.6563 883.035 73.5083 883.157 73.3835C883.279 73.2587 883.425 73.1595 883.586 73.0918C883.747 73.0241 883.919 72.9892 884.094 72.9893C884.415 72.989 884.725 73.1056 884.966 73.3173C885.207 73.5289 885.363 73.8211 885.404 74.1393C885.628 75.7706 885.762 77.4131 885.804 79.0593C885.804 81.4593 886.444 82.1793 888.364 84.8993C890.284 87.6193 891.714 89.7693 891.714 89.7693C891.714 89.7693 893.174 88.6693 894.594 87.6393C896.014 86.6093 897.364 86.9993 899.234 88.4193C900.914 89.6993 902.504 91.3493 905.114 91.9893C905.351 92.0399 905.566 92.1654 905.726 92.3473C905.886 92.5291 905.984 92.7577 906.004 92.9993C906.004 93.2958 905.89 93.581 905.685 93.7952C905.48 94.0095 905.2 94.1364 904.904 94.1493C903.64 94.2381 902.372 94.0715 901.174 93.6593C901.174 93.6593 903.354 96.6593 905.984 97.6593C906.251 97.7568 906.482 97.9334 906.647 98.1657C906.811 98.3979 906.901 98.6748 906.904 98.9593C906.904 99.1536 906.863 99.3457 906.783 99.5228C906.703 99.7 906.586 99.8581 906.441 99.9867C906.295 100.115 906.124 100.212 905.938 100.269C905.753 100.326 905.557 100.343 905.364 100.319C904.573 100.224 903.807 99.983 903.104 99.6093C903.104 99.6093 904.904 102.249 906.194 104.309C907.484 106.369 906.004 111.309 904.264 114.989C902.524 118.669 895.324 137.999 895.324 137.999C895.324 137.999 886.904 127.749 889.154 122.429Z" fill="white"/>
<path d="M904.276 115.05C902.536 118.72 895.326 137.97 895.326 137.97C895.326 137.97 886.906 127.75 889.156 122.43C889.156 122.43 890.156 120.16 891.066 117.96" stroke="black" stroke-width="1.3" stroke-linecap="round" stroke-linejoin="round"/>
<path d="M892.054 115.379C892.924 112.909 891.814 111.669 889.834 108.379C887.854 105.089 885.504 102.689 886.304 99.6493C887.104 96.6093 885.664 96.1293 886.784 94.3793L887.904 92.6193C887.904 92.6193 885.984 89.6193 884.224 86.1493C882.464 82.6793 882.704 80.2293 882.784 77.1493C882.784 75.8993 882.784 74.9793 882.784 74.3293C882.78 74.1547 882.811 73.9811 882.875 73.8187C882.939 73.6563 883.035 73.5083 883.157 73.3835C883.279 73.2587 883.425 73.1595 883.586 73.0918C883.747 73.0241 883.919 72.9892 884.094 72.9893V72.9893C884.415 72.989 884.725 73.1056 884.966 73.3173C885.207 73.5289 885.363 73.8211 885.404 74.1393C885.628 75.7706 885.762 77.4131 885.804 79.0593C885.804 81.4593 886.444 82.1793 888.364 84.8993C890.284 87.6193 891.714 89.7693 891.714 89.7693C891.714 89.7693 893.174 88.6693 894.594 87.6393C896.014 86.6093 897.364 86.9993 899.234 88.4193C900.914 89.6993 902.504 91.3493 905.114 91.9893C905.351 92.0399 905.566 92.1654 905.726 92.3473C905.886 92.5291 905.984 92.7577 906.004 92.9993V92.9993C906.004 93.2958 905.89 93.581 905.685 93.7952C905.48 94.0095 905.2 94.1364 904.904 94.1493C903.64 94.2381 902.372 94.0715 901.174 93.6593C901.174 93.6593 903.354 96.6593 905.984 97.6593C906.251 97.7568 906.482 97.9334 906.647 98.1657C906.811 98.3979 906.901 98.6748 906.904 98.9593C906.904 99.1536 906.863 99.3457 906.783 99.5228C906.703 99.7 906.586 99.8581 906.441 99.9867C906.295 100.115 906.124 100.212 905.938 100.269C905.753 100.326 905.557 100.343 905.364 100.319C904.573 100.224 903.807 99.983 903.104 99.6093C903.104 99.6093 904.904 102.249 906.194 104.309C907.194 105.939 906.494 109.409 905.284 112.599" stroke="black" stroke-width="1.3" stroke-linecap="round" stroke-linejoin="round"/>
<path d="M891.729 89.6895L889.469 91.4494" stroke="black" stroke-width="1.3" stroke-linecap="round" stroke-linejoin="round"/>
<path d="M901.184 93.6802C899.484 91.7702 898.184 89.1402 895.234 90.5702" stroke="black" stroke-width="1.3" stroke-linecap="round" stroke-linejoin="round"/>
<path d="M894.114 95.5498C895.615 95.7615 897.097 96.0959 898.544 96.5498C899.634 97.0098 900.144 99.7198 902.304 102.06C902.506 102.287 902.618 102.581 902.618 102.885C902.618 103.189 902.506 103.483 902.304 103.71V103.71C902.091 103.958 901.788 104.112 901.463 104.138C901.137 104.164 900.814 104.061 900.564 103.85C899.904 103.29 899.004 102.49 898.174 101.69C896.644 100.19 896.224 99.6898 894.594 99.6898H890.594" stroke="black" stroke-width="1.3" stroke-linecap="round" stroke-linejoin="round"/>
<path d="M903.112 99.6694C902.594 99.4424 902.089 99.1853 901.602 98.8994" stroke="black" stroke-width="1.3" stroke-linecap="round" stroke-linejoin="round"/>
<path d="M895.32 138C898.09 141.59 899.93 142.65 899.93 142.65" stroke="black" stroke-width="1.3" stroke-linecap="round" stroke-linejoin="round"/>
<path d="M864.289 150.839C864.289 150.839 867.559 151.049 870.619 147.669C873.679 144.289 876.379 140.529 879.439 137.359" stroke="black" stroke-width="1.3" stroke-linecap="round" stroke-linejoin="round"/>
<path d="M891.852 164.449C894.692 160.589 897.852 156.759 899.092 154.729" stroke="black" stroke-width="1.3" stroke-linecap="round" stroke-linejoin="round"/>
<path d="M910.945 148.55C910.945 148.55 922.415 141.37 930.145 141.37" stroke="black" stroke-width="1.3" stroke-linecap="round" stroke-linejoin="round"/>
<path d="M916.562 109.56C922.513 107.277 928.21 104.381 933.562 100.92" stroke="black" stroke-width="1.3" stroke-linecap="round" stroke-linejoin="round"/>
<path d="M953.729 146.19C950.279 137.66 946.539 128.26 946.539 128.26" stroke="black" stroke-width="1.3" stroke-linecap="round" stroke-linejoin="round"/>
<path d="M970.148 176.53C972.008 172.37 977.378 168.92 977.378 168.92" stroke="black" stroke-width="1.3" stroke-linecap="round" stroke-linejoin="round"/>
<path d="M971.57 181.41C971.57 181.41 973.63 177.96 976.86 176.97" stroke="black" stroke-width="1.3" stroke-linecap="round" stroke-linejoin="round"/>
<path d="M953.266 209.72L955.506 208.09C955.506 208.09 961.296 217.18 963.176 226.32" stroke="black" stroke-width="1.3" stroke-linecap="round" stroke-linejoin="round"/>
<path d="M956.789 224.45C957.826 223.318 958.95 222.268 960.149 221.31" stroke="black" stroke-width="1.3" stroke-linecap="round" stroke-linejoin="round"/>
<path d="M910.351 90.5494L903.931 78.9994C900.354 80.1484 896.668 80.9258 892.931 81.3194C892.357 81.3715 891.782 81.2182 891.31 80.8868C890.838 80.5555 890.498 80.0674 890.351 79.5094L889.611 76.7294C889.387 76.1826 889.091 75.668 888.731 75.1994C888.031 74.4194 888.241 73.0794 889.331 73.0794C889.785 73.0635 890.236 73.0133 890.681 72.9294C890.681 72.9294 889.221 72.3494 888.291 72.0294H888.191C887.828 71.8773 887.53 71.6033 887.347 71.2546C887.165 70.9059 887.11 70.5044 887.191 70.1194C887.273 69.7724 887.303 69.4152 887.281 69.0594C887.254 68.7845 887.125 68.5296 886.92 68.3447C886.715 68.1598 886.448 68.0581 886.171 68.0594H884.321C884.195 68.0589 884.072 68.0275 883.961 67.9679C883.85 67.9084 883.755 67.8226 883.685 67.7179C883.615 67.6133 883.572 67.4931 883.559 67.3678C883.546 67.2426 883.564 67.1161 883.611 66.9994C884.511 64.8094 886.531 59.8194 887.151 57.6394C887.961 54.8194 886.661 52.6994 886.441 48.2794C886.235 45.3735 886.533 42.4539 887.321 39.6494" stroke="black" stroke-width="1.3" stroke-linecap="round" stroke-linejoin="round"/>
<path d="M933.581 85.6895C933.581 85.6895 926.111 94.3094 909.051 98.3394C908.755 96.4667 908.892 94.5511 909.451 92.7394" stroke="black" stroke-width="1.3" stroke-linecap="round" stroke-linejoin="round"/>
<path d="M923.484 68.3193C923.484 68.3193 924.654 75.3193 931.094 82.9593" stroke="black" stroke-width="1.3" stroke-linecap="round" stroke-linejoin="round"/>
<path d="M903.93 79C908.13 77.67 912.04 75.68 912.04 72.21" stroke="black" stroke-width="1.3" stroke-linecap="round" stroke-linejoin="round"/>
<path d="M910.352 90.5498C911.682 92.7598 912.452 93.8998 912.452 93.8998" stroke="black" stroke-width="1.3" stroke-linecap="round" stroke-linejoin="round"/>
<path d="M933.586 85.6894C934.552 84.6593 935.294 83.4404 935.766 82.1094" stroke="black" stroke-width="1.3" stroke-linecap="round" stroke-linejoin="round"/>
<path d="M933.265 33.9097C930.647 29.1738 926.407 25.5422 921.325 23.6828C916.243 21.8235 910.661 21.8615 905.605 23.7897C899.815 26.0197 895.205 28.6297 892.255 31.4397C891.985 31.6997 891.745 31.9497 891.505 32.2097C888.305 35.7397 888.635 39.2097 890.935 41.5197" stroke="black" stroke-width="1.3" stroke-linecap="round" stroke-linejoin="round"/>
<path d="M918.43 66.47C919.844 67.6591 921.632 68.3138 923.48 68.32H923.54C924.878 68.3186 926.195 67.9812 927.37 67.3388C928.545 66.6964 929.539 65.7695 930.262 64.6431C930.986 63.5166 931.415 62.2266 931.511 60.8913C931.606 59.556 931.365 58.218 930.81 57" stroke="black" stroke-width="1.3" stroke-linecap="round" stroke-linejoin="round"/>
<path d="M919.18 398.43C915.81 384.48 911.18 359.92 911.18 359.92" stroke="white" stroke-width="1.3" stroke-linecap="round" stroke-linejoin="round"/>
<path d="M896.82 235.83C896.82 235.83 901.73 239.05 904.57 240.69C907.41 242.33 909.38 242.53 913.15 240.69C916.92 238.85 921.15 236.63 921.15 236.63" stroke="white" stroke-width="1.3" stroke-linecap="round" stroke-linejoin="round"/>
<path d="M909.006 339.509C909.006 339.509 908.006 337.509 907.236 323.069C906.466 308.629 908.116 241.989 908.116 241.989" stroke="white" stroke-width="1.3" stroke-linecap="round" stroke-linejoin="round"/>
<path d="M685.409 63.2701C684.654 61.3388 683.769 59.4611 682.759 57.6501C683.447 54.1849 683.548 50.6289 683.059 47.1301C683.032 46.9112 682.95 46.7027 682.82 46.5243C682.69 46.3459 682.517 46.2035 682.317 46.1105C682.117 46.0174 681.896 45.9769 681.676 45.9925C681.456 46.0082 681.244 46.0797 681.059 46.2001C678.21 47.988 675.814 50.4113 674.059 53.2801C672.356 52.8403 670.608 52.5987 668.849 52.5601C667.094 52.5992 665.349 52.8408 663.649 53.2801C661.89 50.4142 659.495 47.9917 656.649 46.2001C656.464 46.0797 656.252 46.0082 656.032 45.9925C655.812 45.9769 655.591 46.0174 655.391 46.1105C655.191 46.2035 655.018 46.3459 654.888 46.5243C654.758 46.7027 654.676 46.9112 654.649 47.1301C654.177 50.6317 654.295 54.1877 654.999 57.6501C653.994 59.4636 653.109 61.3409 652.349 63.2701C651.911 64.4037 651.733 65.6211 651.828 66.8326C651.923 68.0442 652.289 69.2189 652.899 70.2701C653.295 70.9717 653.746 71.6405 654.249 72.2701L650.709 81.3801C648.724 86.4989 645.149 90.8454 640.509 93.7801L639.509 94.4301C634.965 97.2888 631.203 101.232 628.56 105.904C625.918 110.577 624.477 115.833 624.369 121.2L624.299 124.34C624.291 125.314 623.899 126.244 623.208 126.93C622.517 127.616 621.583 128 620.609 128H619.609C616.795 127.999 614.018 128.652 611.499 129.906C608.979 131.16 606.785 132.981 605.089 135.227C603.393 137.473 602.241 140.082 601.724 142.848C601.207 145.615 601.339 148.463 602.109 151.17L603.189 154.95C603.568 156.383 604.392 157.658 605.542 158.593C606.692 159.527 608.109 160.072 609.589 160.15C610.625 160.184 611.656 159.98 612.601 159.555C613.547 159.129 614.382 158.493 615.044 157.695C615.706 156.897 616.177 155.958 616.421 154.95C616.664 153.943 616.674 152.892 616.449 151.88L615.539 147.76C615.28 146.601 615.284 145.398 615.553 144.241C615.821 143.083 616.346 142.001 617.09 141.075C617.833 140.148 618.775 139.4 619.847 138.887C620.918 138.374 622.091 138.108 623.279 138.11H675.359C675.668 138.112 675.973 138.048 676.256 137.924C676.539 137.8 676.793 137.618 677.001 137.39C677.209 137.162 677.367 136.893 677.465 136.6C677.563 136.308 677.598 135.997 677.569 135.69C677.448 134.339 676.921 133.056 676.057 132.01C675.193 130.964 674.033 130.204 672.729 129.83L672.159 129.67L675.539 102.45C680.151 97.2161 682.691 90.4763 682.679 83.5001V73.2301C683.515 72.3371 684.249 71.3544 684.869 70.3001C685.482 69.2443 685.848 68.0639 685.942 66.8468C686.035 65.6297 685.853 64.4071 685.409 63.2701Z" fill="white"/>
<path d="M652.859 70.2998C653.782 71.8808 654.961 73.2969 656.349 74.4898" stroke="black" stroke-width="1.3" stroke-linecap="round" stroke-linejoin="round"/>
<path d="M661.398 77.39C663.797 78.219 666.321 78.6251 668.858 78.59C671.489 78.6308 674.106 78.1902 676.578 77.29" stroke="black" stroke-width="1.3" stroke-linecap="round" stroke-linejoin="round"/>
<path d="M662.369 66.5793C663.694 66.5793 664.769 65.5048 664.769 64.1793C664.769 62.8538 663.694 61.7793 662.369 61.7793C661.043 61.7793 659.969 62.8538 659.969 64.1793C659.969 65.5048 661.043 66.5793 662.369 66.5793Z" fill="black" stroke="black" stroke-width="1.3" stroke-linecap="round" stroke-linejoin="round"/>
<path d="M676.142 66.5793C677.468 66.5793 678.542 65.5048 678.542 64.1793C678.542 62.8538 677.468 61.7793 676.142 61.7793C674.817 61.7793 673.742 62.8538 673.742 64.1793C673.742 65.5048 674.817 66.5793 676.142 66.5793Z" fill="black" stroke="black" stroke-width="1.3" stroke-linecap="round" stroke-linejoin="round"/>
<path d="M670.805 69.4099C670.891 69.3381 670.956 69.2443 670.993 69.1385C671.03 69.0327 671.037 68.9189 671.015 68.8091C670.992 68.6993 670.94 68.5978 670.865 68.5151C670.789 68.4325 670.692 68.3719 670.585 68.3399C670.157 68.2063 669.713 68.1355 669.265 68.1299C668.814 68.1355 668.366 68.2063 667.935 68.3399C667.827 68.3719 667.731 68.4325 667.655 68.5151C667.579 68.5978 667.527 68.6993 667.505 68.8091C667.482 68.9189 667.49 69.0327 667.527 69.1385C667.564 69.2443 667.629 69.3381 667.715 69.4099L669.265 70.7399L670.805 69.4099Z" fill="#FF57A4"/>
<path d="M670.805 69.4099C670.891 69.3381 670.956 69.2443 670.993 69.1385C671.03 69.0327 671.037 68.9189 671.015 68.8091C670.992 68.6993 670.94 68.5978 670.865 68.5151C670.789 68.4325 670.692 68.3719 670.585 68.3399C670.157 68.2063 669.713 68.1355 669.265 68.1299V68.1299C668.814 68.1355 668.366 68.2063 667.935 68.3399C667.827 68.3719 667.731 68.4325 667.655 68.5151C667.579 68.5978 667.527 68.6993 667.505 68.8091C667.482 68.9189 667.49 69.0327 667.527 69.1385C667.564 69.2443 667.629 69.3381 667.715 69.4099L669.265 70.7399L670.805 69.4099Z" stroke="#FF57A4" stroke-width="1.3" stroke-linecap="round" stroke-linejoin="round"/>
<path d="M672.164 129.629L675.544 102.409C680.147 97.1856 682.686 90.4617 682.684 83.4993V73.2293C683.52 72.3362 684.254 71.3536 684.874 70.2993C685.482 69.2473 685.846 68.0722 685.94 66.8607C686.033 65.6492 685.854 64.4321 685.414 63.2993C684.659 61.368 683.774 59.4903 682.764 57.6793C683.452 54.2141 683.553 50.658 683.064 47.1593C683.035 46.9417 682.951 46.7349 682.82 46.5581C682.69 46.3813 682.517 46.2401 682.318 46.1475C682.119 46.0549 681.9 46.0139 681.681 46.0282C681.462 46.0425 681.25 46.1116 681.064 46.2293C679.39 47.2865 677.857 48.5534 676.504 49.9993C675.94 50.6332 675.416 51.3011 674.934 51.9993L674.074 53.2293C675.701 53.7262 677.27 54.3967 678.754 55.2293" stroke="black" stroke-width="1.3" stroke-linecap="round" stroke-linejoin="round"/>
<path d="M672.162 129.63L672.732 129.79C674.036 130.164 675.196 130.924 676.06 131.97C676.924 133.016 677.451 134.299 677.572 135.65V135.65C677.601 135.957 677.566 136.268 677.468 136.56C677.37 136.853 677.212 137.122 677.004 137.35C676.796 137.578 676.542 137.76 676.259 137.884C675.976 138.008 675.671 138.072 675.362 138.07H623.252C622.064 138.068 620.891 138.334 619.82 138.847C618.748 139.36 617.806 140.108 617.063 141.035C616.319 141.961 615.794 143.043 615.526 144.201C615.257 145.358 615.253 146.561 615.512 147.72L616.422 151.84C616.647 152.852 616.637 153.903 616.394 154.91C616.15 155.918 615.679 156.857 615.017 157.655C614.355 158.453 613.52 159.089 612.574 159.515C611.629 159.94 610.598 160.144 609.562 160.11C608.082 160.032 606.665 159.487 605.515 158.553C604.365 157.618 603.541 156.343 603.162 154.91L602.082 151.13C601.319 148.426 601.193 145.581 601.713 142.82C602.234 140.059 603.387 137.456 605.082 135.215C606.778 132.974 608.969 131.157 611.485 129.905C614.001 128.653 616.772 128.001 619.582 128H620.582C621.549 128 622.477 127.621 623.167 126.944C623.857 126.267 624.254 125.347 624.272 124.38L624.342 121.24C624.441 115.869 625.873 110.607 628.511 105.927C631.148 101.247 634.908 97.296 639.452 94.4301L640.452 93.7801C645.092 90.8454 648.667 86.4989 650.652 81.3801L654.192 72.2701C653.689 71.6405 653.238 70.9717 652.842 70.2701C652.232 69.2189 651.867 68.0442 651.771 66.8326C651.676 65.6211 651.854 64.4037 652.292 63.2701C653.071 61.3394 653.976 59.462 655.002 57.6501C654.318 54.1843 654.22 50.6283 654.712 47.1301C654.739 46.9112 654.821 46.7027 654.951 46.5243C655.081 46.3459 655.254 46.2035 655.454 46.1105C655.654 46.0174 655.875 45.9769 656.095 45.9925C656.315 46.0082 656.527 46.0797 656.712 46.2001C659.558 47.9917 661.953 50.4142 663.712 53.2801C665.412 52.8408 667.157 52.5992 668.912 52.5601C670.671 52.5987 672.419 52.8403 674.122 53.2801" stroke="black" stroke-width="1.3" stroke-linecap="round" stroke-linejoin="round"/>
<path d="M672.162 129.629L667.302 128.629C666.934 128.556 666.593 128.387 666.312 128.139C666.031 127.891 665.821 127.573 665.703 127.217C665.585 126.861 665.564 126.481 665.641 126.114C665.718 125.747 665.891 125.407 666.142 125.129L667.142 124.039C669.036 121.949 670.302 119.367 670.795 116.589C671.288 113.812 670.988 110.952 669.929 108.337C668.871 105.723 667.096 103.46 664.809 101.808C662.523 100.156 659.817 99.1828 657.002 98.9993C653.279 98.7784 649.545 99.1154 645.922 99.9993" stroke="black" stroke-width="1.3" stroke-linecap="round" stroke-linejoin="round"/>
<path d="M641.603 138.07C635.603 138.07 636.213 132.93 636.213 132.93" stroke="black" stroke-width="1.3" stroke-linecap="round" stroke-linejoin="round"/>
</g>
<path d="M468.845 206.089L469.005 206.089C469.445 201.352 471.393 196.882 474.559 193.343C477.724 189.804 481.94 187.384 486.582 186.44C491.224 185.496 496.045 186.08 500.331 188.103C504.618 190.127 508.141 193.484 510.38 197.677C512.62 201.87 513.455 206.676 512.764 211.383C512.072 216.091 509.89 220.449 506.541 223.813C503.192 227.178 498.853 229.369 494.168 230.062C489.482 230.756 484.699 229.915 480.527 227.664C479.212 229.69 477.397 231.338 475.258 232.447C473.119 233.555 470.73 234.087 468.326 233.988C465.921 233.89 463.583 233.166 461.54 231.886C459.498 230.607 457.822 228.816 456.676 226.69C455.53 224.564 454.953 222.174 455.003 219.757C455.053 217.339 455.727 214.976 456.959 212.899C458.191 210.822 459.94 209.102 462.033 207.908C464.126 206.715 466.492 206.088 468.899 206.089L468.845 206.089Z" fill="black"/>
<path d="M527.286 155.848C526.607 157.912 525.276 159.701 523.495 160.946C521.713 162.191 519.575 162.824 517.403 162.752C515.231 162.679 513.141 161.903 511.446 160.542C509.752 159.181 508.545 157.306 508.005 155.201C505.496 153.94 503.4 151.985 501.969 149.569C500.537 147.152 499.829 144.376 499.929 141.569C500.029 138.762 500.933 136.043 502.533 133.734C504.133 131.426 506.362 129.625 508.955 128.546C511.548 127.467 514.397 127.155 517.162 127.647C519.927 128.14 522.493 129.416 524.554 131.323C526.616 133.231 528.087 135.69 528.792 138.409C529.496 141.128 529.406 143.992 528.531 146.661C528.202 147.655 527.77 148.612 527.241 149.516C527.945 151.566 527.961 153.789 527.286 155.848Z" fill="black"/>
<path d="M559.149 112.3C554.096 112.3 549.999 108.203 549.999 103.15C549.999 98.0966 554.096 94 559.149 94C564.203 94 568.299 98.0966 568.299 103.15C568.299 108.203 564.203 112.3 559.149 112.3Z" fill="black"/>
<path d="M566.024 107.358C562.336 107.358 559.345 104.367 559.345 100.679C559.345 96.9902 562.336 94 566.024 94C569.713 94 572.703 96.9902 572.703 100.679C572.703 104.367 569.713 107.358 566.024 107.358Z" fill="black"/>
<path d="M88.1106 230.776C90.6016 230.776 93.0591 230.91 95.4943 231.111C101.846 213.702 112.7 198.279 126.956 186.406C141.212 174.533 158.362 166.633 176.667 163.506C194.971 160.38 213.779 162.139 231.183 168.605C248.586 175.07 263.965 186.013 275.761 200.322C280.542 198.853 285.634 198.714 290.488 199.92C295.342 201.125 299.774 203.63 303.307 207.164C312.854 194.492 326.119 185.1 341.261 180.292C356.403 175.484 372.67 175.499 387.803 180.335C402.936 185.171 416.184 194.587 425.708 207.277C435.231 219.966 440.558 235.299 440.947 251.146C454.232 252.701 466.564 258.804 475.841 268.416C485.118 278.028 490.766 290.553 491.82 303.854C492.874 317.156 489.271 330.41 481.623 341.357C473.975 352.304 462.758 360.265 449.883 363.883C449.866 373.154 447.647 382.288 443.408 390.538C439.17 398.789 433.032 405.92 425.498 411.347C417.964 416.774 409.247 420.344 400.064 421.763C390.88 423.182 381.49 422.41 372.663 419.51C367.611 431.944 359.538 442.928 349.17 451.474C338.802 460.019 326.466 465.857 313.273 468.462C300.08 471.066 286.444 470.355 273.595 466.393C260.746 462.43 249.087 455.341 239.669 445.764C232.545 451.587 224.072 455.539 215.025 457.259C205.977 458.98 196.641 458.414 187.869 455.614C179.096 452.813 171.166 447.867 164.8 441.226C158.435 434.586 153.836 426.461 151.424 417.593C144.753 419.737 137.515 419.276 131.171 416.305C124.827 413.333 119.85 408.071 117.243 401.581C105.143 405.812 92.2628 407.357 79.5022 406.109C66.7416 404.86 54.408 400.848 43.3623 394.353C32.3168 387.858 22.8255 379.036 15.5511 368.503C8.27681 357.97 3.39485 345.98 1.24605 333.37C-0.902754 320.76 -0.266584 307.834 3.11019 295.495C6.48693 283.156 12.5229 271.701 20.7966 261.929C29.0702 252.158 39.3823 244.306 51.0126 238.921C62.6429 233.537 75.3112 230.749 88.133 230.754L88.1106 230.776Z" fill="black"/>
<path d="M610 84C612.761 84 615 81.7614 615 79C615 76.2386 612.761 74 610 74C607.239 74 605 76.2386 605 79C605 81.7614 607.239 84 610 84Z" fill="black"/>
<defs>
<clipPath id="clip0_2001_153041">
<rect width="437" height="494" fill="white" transform="translate(601)"/>
</clipPath>
</defs>
</svg>
