<svg width="77" height="29" viewBox="0 0 77 29" fill="none" xmlns="http://www.w3.org/2000/svg">
<path d="M67.0523 6.18126C67.0523 4.13942 67.0523 2.13961 67.0523 0.12179C68.0563 -0.034351 69.0541 -0.0403565 70.0457 0.103774C72.0786 0.392034 73.8015 1.22078 75.0906 2.80021C76.324 4.31358 76.826 6.04314 76.6648 7.95887C76.4293 10.8595 75.1712 13.3517 73.3987 15.6398C71.9112 17.5555 70.2007 19.2791 68.4405 20.9546C68.3724 21.0147 68.267 21.0687 68.1802 21.0747C65.0876 21.1768 61.995 21.2789 58.9023 21.375C58.8837 21.375 58.8589 21.369 58.7598 21.2909C58.8465 21.2369 58.9519 21.1948 59.0263 21.1288C61.5611 18.7626 64.1022 16.4085 66.6184 14.0183C67.5853 13.0995 68.4901 12.1206 69.1285 10.9496C69.5313 10.2109 69.835 9.4362 69.8474 8.58343C69.8598 7.14814 68.9178 6.21129 67.4303 6.18126C67.3064 6.17526 67.1948 6.18126 67.0523 6.18126Z" fill="white"/>
<path d="M46.2841 28.1488C44.3815 28.1488 42.5036 28.1488 40.6133 28.1488C40.6133 20.2277 40.6133 12.3185 40.6133 4.37333C42.4974 4.1151 44.3815 3.85687 46.2841 3.59863C46.2841 11.79 46.2841 19.9574 46.2841 28.1488Z" fill="white"/>
<path d="M76.999 21.8193C76.999 23.9575 76.999 26.0417 76.999 28.1498C70.5287 28.1498 64.0707 28.1498 57.5879 28.1498C57.5879 26.2459 57.5879 24.3419 57.5879 22.3899C64.0459 22.1977 70.5101 22.0115 76.999 21.8193Z" fill="white"/>
<path d="M30.9135 28.1498C29.2587 28.1498 27.6349 28.1498 25.9863 28.1498C25.9863 20.8952 25.9863 13.6587 25.9863 6.38013C27.6225 6.15793 29.2587 5.92972 30.9135 5.70752C30.9135 13.1963 30.9135 20.655 30.9135 28.1498Z" fill="white"/>
<path d="M12.8359 8.1691C14.2676 7.97092 15.7055 7.77875 17.1619 7.58057C17.1619 14.4508 17.1619 21.291 17.1619 28.1432C15.7179 28.1432 14.2924 28.1432 12.8359 28.1432C12.8359 21.4951 12.8359 14.8471 12.8359 8.1691Z" fill="white"/>
<path d="M65.9191 0.253906C65.9191 0.710318 65.9191 1.10668 65.9191 1.50904C65.9191 3.05844 65.9253 4.61384 65.9129 6.16324C65.9129 6.27134 65.8509 6.43949 65.7704 6.47553C64.537 7.01001 64.0164 8.00691 63.8801 9.23202C63.7995 9.97669 63.7995 10.7274 63.7623 11.5141C61.8163 11.6822 59.833 11.8504 57.7754 12.0305C57.7754 11.6702 57.7754 11.3399 57.7754 11.0156C57.7878 9.17196 58.0171 7.36433 58.767 5.64678C59.988 2.85426 62.2067 1.20276 65.1754 0.422058C65.4109 0.368009 65.6402 0.319966 65.9191 0.253906Z" fill="white"/>
<path d="M7.70409 28.1486C6.3282 28.1486 4.97711 28.1486 3.60742 28.1486C3.60742 23.5124 3.60742 18.8883 3.60742 14.228C4.96471 14.0959 6.32201 13.9638 7.70409 13.8257C7.70409 18.612 7.70409 23.3683 7.70409 28.1486Z" fill="white"/>
<path d="M11.2674 12.7757C7.4992 13.1782 3.7558 13.5806 0 13.983C0 12.6376 0 11.2982 0 9.92283C3.7434 9.4123 7.4868 8.90178 11.2674 8.38525C11.2674 9.86277 11.2674 11.3102 11.2674 12.7757Z" fill="white"/>
<path d="M55.6854 22.4497C55.6854 24.3657 55.6854 26.2396 55.6854 28.1435C52.9274 28.1435 50.1695 28.1435 47.3867 28.1435C47.3867 26.3417 47.3867 24.5398 47.3867 22.696C50.1571 22.6119 52.9151 22.5278 55.6854 22.4497Z" fill="white"/>
<path d="M55.693 2.33203C55.693 4.24199 55.693 6.12191 55.693 8.03187C52.9288 8.32617 50.1708 8.62047 47.3881 8.91477C47.3819 8.78263 47.3695 8.69254 47.3695 8.60846C47.3695 6.9868 47.3757 5.36514 47.3633 3.74348C47.3633 3.52125 47.4191 3.44317 47.6608 3.40713C50.2204 3.06478 52.7863 2.71042 55.3459 2.35606C55.4513 2.34404 55.5504 2.34404 55.693 2.33203Z" fill="white"/>
<path d="M31.8867 23.1467C34.2604 23.0747 36.6403 23.0086 39.0388 22.9365C39.0388 24.6783 39.0388 26.3961 39.0388 28.1378C36.6651 28.1378 34.2914 28.1378 31.8867 28.1378C31.8867 26.4922 31.8867 24.8405 31.8867 23.1467Z" fill="white"/>
<path d="M52.8051 18.3191C50.9954 18.4152 49.2105 18.5113 47.3945 18.6074C47.3945 16.7515 47.3945 14.9076 47.3945 13.0397C49.1981 12.8895 50.9892 12.7454 52.8051 12.5952C52.8051 14.5112 52.8051 16.3911 52.8051 18.3191Z" fill="white"/>
<path d="M18.0039 28.1377C18.0039 26.6061 18.0039 25.0986 18.0039 23.549C20.0863 23.4889 22.1626 23.4229 24.2636 23.3628C24.2636 24.9604 24.2636 26.534 24.2636 28.1317C22.1873 28.1377 20.1111 28.1377 18.0039 28.1377Z" fill="white"/>
<path d="M24.2694 11.3943C22.1622 11.6166 20.0984 11.8388 18.0098 12.055C18.0098 10.5234 18.0098 9.00388 18.0098 7.46029C20.0922 7.17801 22.1684 6.89572 24.2694 6.60742C24.2694 8.21707 24.2694 9.79068 24.2694 11.3943Z" fill="white"/>
<path d="M22.1019 19.9462C20.7384 20.0183 19.3935 20.0904 18.0176 20.1685C18.0176 18.6129 18.0176 17.0633 18.0176 15.4897C19.3687 15.3755 20.7198 15.2674 22.1019 15.1533C22.1019 16.751 22.1019 18.3246 22.1019 19.9462Z" fill="white"/>
</svg>
