<svg width="77" height="29" viewBox="0 0 77 29" fill="none" xmlns="http://www.w3.org/2000/svg">
<path d="M67.0527 6.18126C67.0527 4.13942 67.0527 2.13961 67.0527 0.12179C68.0568 -0.034351 69.0546 -0.0403565 70.0462 0.103774C72.0791 0.392034 73.802 1.22078 75.0911 2.80021C76.3245 4.31358 76.8265 6.04314 76.6653 7.95887C76.4298 10.8595 75.1717 13.3517 73.3992 15.6398C71.9117 17.5555 70.2012 19.2791 68.441 20.9546C68.3728 21.0147 68.2675 21.0687 68.1807 21.0747C65.0881 21.1768 61.9954 21.2789 58.9028 21.375C58.8842 21.375 58.8594 21.369 58.7603 21.2909C58.847 21.2369 58.9524 21.1948 59.0268 21.1288C61.5616 18.7626 64.1027 16.4085 66.6189 14.0183C67.5857 13.0995 68.4906 12.1206 69.129 10.9496C69.5318 10.2109 69.8355 9.4362 69.8479 8.58343C69.8603 7.14814 68.9182 6.21129 67.4308 6.18126C67.3068 6.17526 67.1953 6.18126 67.0527 6.18126Z" fill="black"/>
<path d="M46.2841 28.149C44.3815 28.149 42.5036 28.149 40.6133 28.149C40.6133 20.2278 40.6133 12.3187 40.6133 4.37352C42.4974 4.11528 44.3815 3.85705 46.2841 3.59882C46.2841 11.7902 46.2841 19.9576 46.2841 28.149Z" fill="black"/>
<path d="M77 21.8192C77 23.9573 77 26.0415 77 28.1496C70.5296 28.1496 64.0716 28.1496 57.5889 28.1496C57.5889 26.2457 57.5889 24.3417 57.5889 22.3897C64.0469 22.1975 70.511 22.0113 77 21.8192Z" fill="black"/>
<path d="M30.914 28.1496C29.2592 28.1496 27.6354 28.1496 25.9868 28.1496C25.9868 20.895 25.9868 13.6585 25.9868 6.37988C27.623 6.15768 29.2592 5.92948 30.914 5.70728C30.914 13.196 30.914 20.6548 30.914 28.1496Z" fill="black"/>
<path d="M12.8354 8.16904C14.2671 7.97086 15.705 7.77868 17.1614 7.58051C17.1614 14.4507 17.1614 21.2909 17.1614 28.1431C15.7174 28.1431 14.2919 28.1431 12.8354 28.1431C12.8354 21.4951 12.8354 14.8471 12.8354 8.16904Z" fill="black"/>
<path d="M65.9186 0.254028C65.9186 0.710441 65.9186 1.1068 65.9186 1.50916C65.9186 3.05856 65.9248 4.61397 65.9124 6.16337C65.9124 6.27146 65.8505 6.43962 65.7699 6.47565C64.5365 7.01013 64.0159 8.00703 63.8796 9.23214C63.799 9.97681 63.799 10.7275 63.7618 11.5142C61.8158 11.6824 59.8325 11.8505 57.7749 12.0307C57.7749 11.6703 57.7749 11.34 57.7749 11.0157C57.7873 9.17208 58.0166 7.36445 58.7665 5.6469C59.9875 2.85438 62.2062 1.20289 65.1749 0.42218C65.4104 0.368131 65.6397 0.320088 65.9186 0.254028Z" fill="black"/>
<path d="M7.7036 28.1488C6.32771 28.1488 4.97662 28.1488 3.60693 28.1488C3.60693 23.5126 3.60693 18.8884 3.60693 14.2282C4.96423 14.0961 6.32152 13.964 7.7036 13.8259C7.7036 18.6122 7.7036 23.3685 7.7036 28.1488Z" fill="black"/>
<path d="M11.2674 12.7756C7.4992 13.178 3.7558 13.5804 0 13.9828C0 12.6374 0 11.2981 0 9.92264C3.7434 9.41212 7.4868 8.9016 11.2674 8.38507C11.2674 9.86258 11.2674 11.3101 11.2674 12.7756Z" fill="black"/>
<path d="M55.6864 22.4499C55.6864 24.3659 55.6864 26.2398 55.6864 28.1437C52.9284 28.1437 50.1705 28.1437 47.3877 28.1437C47.3877 26.3419 47.3877 24.54 47.3877 22.6961C50.1581 22.6121 52.916 22.528 55.6864 22.4499Z" fill="black"/>
<path d="M55.6925 2.33185C55.6925 4.2418 55.6925 6.12173 55.6925 8.03168C52.9283 8.32598 50.1703 8.62028 47.3876 8.91459C47.3814 8.78245 47.369 8.69236 47.369 8.60827C47.369 6.98661 47.3752 5.36495 47.3628 3.74329C47.3628 3.52107 47.4186 3.44299 47.6603 3.40695C50.2199 3.0646 52.7858 2.71024 55.3454 2.35587C55.4508 2.34386 55.5499 2.34386 55.6925 2.33185Z" fill="black"/>
<path d="M31.8872 23.1468C34.2609 23.0747 36.6408 23.0087 39.0393 22.9366C39.0393 24.6784 39.0393 26.3961 39.0393 28.1379C36.6656 28.1379 34.2919 28.1379 31.8872 28.1379C31.8872 26.4922 31.8872 24.8405 31.8872 23.1468Z" fill="black"/>
<path d="M52.8041 18.3189C50.9944 18.415 49.2095 18.5111 47.3936 18.6072C47.3936 16.7513 47.3936 14.9075 47.3936 13.0395C49.1971 12.8894 50.9882 12.7452 52.8041 12.5951C52.8041 14.5111 52.8041 16.391 52.8041 18.3189Z" fill="black"/>
<path d="M18.0044 28.1376C18.0044 26.606 18.0044 25.0984 18.0044 23.5489C20.0868 23.4888 22.163 23.4227 24.2641 23.3627C24.2641 24.9603 24.2641 26.5339 24.2641 28.1316C22.1878 28.1376 20.1116 28.1376 18.0044 28.1376Z" fill="black"/>
<path d="M24.2699 11.3945C22.1627 11.6167 20.0989 11.839 18.0103 12.0552C18.0103 10.5236 18.0103 9.00406 18.0103 7.46048C20.0927 7.17819 22.1689 6.8959 24.2699 6.6076C24.2699 8.21725 24.2699 9.79086 24.2699 11.3945Z" fill="black"/>
<path d="M22.1009 19.9464C20.7374 20.0184 19.3925 20.0905 18.0166 20.1686C18.0166 18.613 18.0166 17.0634 18.0166 15.4898C19.3677 15.3757 20.7188 15.2676 22.1009 15.1534C22.1009 16.7511 22.1009 18.3247 22.1009 19.9464Z" fill="black"/>
</svg>
