<svg width="100" height="69" viewBox="0 0 100 69" fill="none" xmlns="http://www.w3.org/2000/svg">
<path d="M10.1992 59.2127V7.22855" stroke="white" stroke-width="1.5" stroke-linecap="round" stroke-linejoin="round"/>
<path d="M10.1992 4.17235C10.1991 3.34007 10.5261 2.5411 11.1096 1.94766C11.6931 1.35423 12.4865 1.01387 13.3187 1H85.9548C86.7962 1 87.6031 1.33427 88.198 1.9292C88.793 2.52413 89.1272 3.33099 89.1272 4.17235V56.717" stroke="white" stroke-width="1.5" stroke-linecap="round" stroke-linejoin="round"/>
<path d="M51.6519 4.05629C51.1837 3.58632 50.567 3.29333 49.907 3.22725C49.2469 3.16118 48.5844 3.3261 48.0324 3.69395C47.4804 4.06181 47.0731 4.60982 46.88 5.24444C46.6869 5.87905 46.7199 6.56099 46.9734 7.17397C47.227 7.78695 47.6853 8.29297 48.2703 8.60576C48.8552 8.91855 49.5306 9.01871 50.1812 8.88916C50.8318 8.75961 51.4172 8.40843 51.8378 7.89542C52.2583 7.3824 52.4878 6.73933 52.4872 6.07599" stroke="white" stroke-width="1.5" stroke-linecap="round" stroke-linejoin="round"/>
<path d="M1.00002 60.968C1.00002 60.5024 1.18496 60.0559 1.51415 59.7267C1.84335 59.3975 2.28983 59.2126 2.75538 59.2126H96.5194C96.7494 59.2126 96.9771 59.2581 97.1895 59.3465C97.4019 59.4348 97.5947 59.5642 97.7569 59.7274C97.919 59.8905 98.0473 60.0841 98.1344 60.297C98.2214 60.5099 98.2655 60.738 98.2641 60.968V64.447C98.2669 64.9126 98.1776 65.3741 98.0014 65.8051C97.8251 66.236 97.5654 66.6279 97.2372 66.9581C96.9089 67.2883 96.5187 67.5504 96.0888 67.7292C95.6589 67.908 95.1979 68 94.7323 68H4.54248C4.07638 68 3.61486 67.9081 3.18438 67.7294C2.7539 67.5507 2.36292 67.2888 2.03383 66.9587C1.70475 66.6287 1.44403 66.2369 1.26663 65.8059C1.08923 65.3749 0.998624 64.9131 1.00002 64.447" stroke="white" stroke-width="1.5" stroke-linecap="round" stroke-linejoin="round"/>
<path d="M85.2572 12.706H13.8794V55.0674H85.2572V12.706Z" stroke="white" stroke-width="1.5" stroke-linecap="round" stroke-linejoin="round"/>
<path d="M36.1602 59.2126V60.6614C36.1588 60.9891 36.222 61.3139 36.3461 61.6172C36.4702 61.9205 36.6529 62.1964 36.8836 62.4291C37.1144 62.6618 37.3887 62.8468 37.691 62.9735C37.9932 63.1002 38.3175 63.1661 38.6452 63.1675H60.619C61.2818 63.1647 61.9166 62.8994 62.3843 62.4297C62.852 61.96 63.1146 61.3242 63.1146 60.6614" stroke="white" stroke-width="1.5" stroke-linecap="round" stroke-linejoin="round"/>
<path d="M17.9932 22.3395V16.8302H23.4813" stroke="white" stroke-width="1.5" stroke-linecap="round" stroke-linejoin="round"/>
<path d="M81.1434 45.4237V50.933H75.6553" stroke="white" stroke-width="1.5" stroke-linecap="round" stroke-linejoin="round"/>
</svg>
