<svg width="375" height="107" viewBox="0 0 375 107" fill="none" xmlns="http://www.w3.org/2000/svg">
<path d="M-103 90.0275L-77.5 75.8661C-52 61.9168 -0.999994 33.2757 50 16.4623C101 -0.669286 152 -5.97319 203 7.97609C254 22.1375 305 56.0826 356 58.8936C407 61.9169 458 33.2758 509 36.299C560 39.1101 611 73.0551 636.5 90.0276L662 107L636.5 107C611 107 560 107 509 107C458 107 407 107 356 107C305 107 254 107 203 107C152 107 101 107 50 107C-1 107 -52 107 -77.5 107L-103 107L-103 90.0275Z" fill="black"/>
</svg>
