<svg width="343" height="536" viewBox="0 0 343 536" fill="none" xmlns="http://www.w3.org/2000/svg">
<path d="M108.507 193.794C105.327 195.114 101.977 194.404 100.867 192.104C99.7574 189.804 101.437 186.434 104.747 184.844L104.957 184.754C97.2874 167.884 88.1774 162.494 88.1774 162.494C88.1774 162.494 61.4174 178.694 61.7074 241.494C61.9974 304.294 88.9274 323.174 88.9274 323.174C88.9274 323.174 115.687 303.994 115.387 241.244C115.297 220.804 112.387 205.354 108.507 193.794Z" fill="black" stroke="black" stroke-width="1.3" stroke-linecap="round" stroke-linejoin="round"/>
<path d="M80.6182 239.294L80.0181 237.564C79.0871 237.782 78.1343 237.893 77.1782 237.894C71.5382 237.894 66.9682 234.304 66.9682 229.894C66.9682 226.354 69.9081 223.354 73.9682 222.304C67.3782 207.574 60.2281 197.194 53.6482 189.924C52.6261 190.88 51.2762 191.406 49.877 191.396C48.4779 191.385 47.1363 190.837 46.1291 189.866C45.1219 188.895 44.5261 187.574 44.4645 186.176C44.4029 184.778 44.8803 183.41 45.7981 182.354C36.5981 174.694 29.8881 173.244 29.8881 173.244C29.8881 173.244 9.63815 197.084 29.7782 256.494C30.0582 257.314 30.3382 258.134 30.6182 258.934C31.3782 258.777 32.1521 258.697 32.9282 258.694C37.7182 258.694 41.5981 261.594 41.5981 265.174C41.5981 268.094 39.0182 270.564 35.4682 271.374C55.3382 317.544 81.4682 325.374 81.4682 325.374C81.4682 325.374 100.748 298.734 80.6182 239.294Z" fill="#33E6CA"/>
<path d="M47.5078 232.314C52.0978 253.984 60.7678 282.794 76.1178 298.254" stroke="black" stroke-width="1.3" stroke-linecap="round" stroke-linejoin="round"/>
<path d="M42.998 204.244C42.998 204.244 43.908 213.684 46.458 226.904" stroke="black" stroke-width="1.3" stroke-linecap="round" stroke-linejoin="round"/>
<path d="M117.428 312.545H53.1777C53.1777 321.955 60.1777 330.125 70.3577 334.235V339.435H100.238V334.235C110.458 330.125 117.428 321.955 117.428 312.545Z" fill="white"/>
<path d="M117.428 312.545H53.1777C53.1777 321.955 60.1777 330.125 70.3577 334.235V339.435H100.238V334.235C110.458 330.125 117.428 321.955 117.428 312.545Z" stroke="black" stroke-width="1.3" stroke-linecap="round" stroke-linejoin="round"/>
<path d="M100.238 334.234H74.5176" stroke="black" stroke-width="1.3" stroke-linecap="round" stroke-linejoin="round"/>
<path d="M87.3773 179.965C85.4367 191.921 84.7397 204.045 85.2973 216.145" stroke="white" stroke-width="1.3" stroke-linecap="round" stroke-linejoin="round"/>
<path d="M72.6588 350.215L46.4688 478.575H52.7188L89.4388 350.215H72.6588Z" fill="#33E6CA"/>
<path d="M32.0084 350.215L5.81836 478.575H12.0684L48.7984 350.215H32.0084Z" fill="#33E6CA"/>
<path d="M244.968 350.215L271.148 478.575H264.898L228.178 350.215H244.968Z" fill="#33E6CA"/>
<path d="M285.618 350.215L311.798 478.575H305.548L268.828 350.215H285.618Z" fill="#33E6CA"/>
<path d="M65.1882 339.436H14.6582V350.226H65.1882V339.436Z" fill="white"/>
<path d="M289.327 339.436H65.1875V350.226H289.327V339.436Z" fill="white"/>
<path d="M113.697 350.215H65.1875" stroke="black" stroke-width="1.3" stroke-linecap="round" stroke-linejoin="round"/>
<path d="M203.528 339.436H289.328V350.216H118.838" stroke="black" stroke-width="1.3" stroke-linecap="round" stroke-linejoin="round"/>
<path d="M65.1875 347.906V339.436H194.327" stroke="black" stroke-width="1.3" stroke-linecap="round" stroke-linejoin="round"/>
<path d="M65.1882 350.216H14.6582V339.436H65.1882" stroke="black" stroke-width="1.3" stroke-linecap="round" stroke-linejoin="round"/>
<path d="M120.048 317.215L114.768 334.785H151.918V339.435H113.588C113.023 339.434 112.467 339.301 111.962 339.047C111.458 338.793 111.02 338.424 110.684 337.97C110.348 337.516 110.122 336.99 110.026 336.433C109.929 335.877 109.964 335.305 110.128 334.765L115.408 317.215" fill="white"/>
<path d="M143.438 334.785L148.728 317.215H120.048L114.768 334.785H143.438Z" fill="white"/>
<path d="M180.588 334.785H151.918V339.425H180.588V334.785Z" fill="white"/>
<path d="M205.058 317.215H111.658C109.339 317.216 107.07 316.541 105.129 315.273C103.188 314.004 101.658 312.198 100.728 310.075L68.7875 237.145C68.442 236.357 68.2982 235.495 68.3692 234.637C68.4402 233.78 68.7237 232.953 69.1942 232.233C69.6646 231.512 70.3071 230.92 71.0637 230.51C71.8202 230.1 72.667 229.885 73.5275 229.885H166.928C169.247 229.886 171.516 230.563 173.457 231.833C175.398 233.103 176.927 234.91 177.858 237.035L209.808 309.965C210.151 310.753 210.293 311.615 210.221 312.472C210.148 313.329 209.863 314.154 209.392 314.874C208.921 315.593 208.278 316.184 207.521 316.592C206.764 317.001 205.918 317.215 205.058 317.215Z" fill="white"/>
<path d="M100.729 310.075L68.7887 237.145C68.4431 236.357 68.2994 235.495 68.3704 234.637C68.4414 233.78 68.7249 232.953 69.1953 232.233C69.6657 231.512 70.3083 230.92 71.0648 230.51C71.8214 230.1 72.6682 229.885 73.5287 229.885H65.8387C64.9791 229.888 64.1338 230.105 63.3786 230.515C62.6235 230.926 61.9821 231.518 61.5122 232.237C61.0423 232.957 60.7585 233.782 60.6863 234.639C60.6141 235.495 60.7558 236.357 61.0987 237.145L92.9987 310.075C93.9344 312.209 95.4747 314.023 97.4296 315.292C99.3845 316.561 101.668 317.229 103.999 317.215H111.689C109.365 317.221 107.09 316.549 105.143 315.281C103.196 314.012 101.662 312.203 100.729 310.075Z" fill="white"/>
<path d="M73.5287 229.885H65.8387C64.9791 229.888 64.1338 230.105 63.3786 230.515C62.6235 230.926 61.9821 231.518 61.5122 232.237C61.0423 232.957 60.7585 233.782 60.6863 234.639C60.6141 235.495 60.7558 236.357 61.0987 237.145L92.9987 310.075C93.9344 312.209 95.4747 314.023 97.4296 315.292C99.3845 316.561 101.668 317.229 103.999 317.215H111.689C109.37 317.216 107.101 316.541 105.16 315.273C103.219 314.004 101.69 312.198 100.759 310.075L68.7887 237.145" stroke="black" stroke-width="1.3" stroke-linecap="round" stroke-linejoin="round"/>
<path d="M193.368 272.434L209.808 309.964C210.151 310.753 210.293 311.614 210.221 312.471C210.148 313.328 209.864 314.154 209.392 314.873C208.921 315.593 208.278 316.183 207.521 316.592C206.764 317.001 205.918 317.215 205.058 317.214H111.658C109.339 317.215 107.071 316.54 105.129 315.272C103.188 314.004 101.659 312.198 100.728 310.074L68.7878 237.144C68.4453 236.372 68.299 235.527 68.3618 234.684C68.4247 233.842 68.6946 233.028 69.1478 232.314" stroke="black" stroke-width="1.3" stroke-linecap="round" stroke-linejoin="round"/>
<path d="M73.5273 229.885H166.927C169.247 229.886 171.516 230.563 173.457 231.833C175.398 233.103 176.927 234.91 177.857 237.035L190.777 266.495" stroke="black" stroke-width="1.3" stroke-linecap="round" stroke-linejoin="round"/>
<path d="M196.337 297.195H102.987L76.1172 235.875H169.467L196.337 297.195Z" fill="#33E6CA"/>
<path d="M202.558 304.035H98.0879" stroke="black" stroke-width="1.3" stroke-linecap="round" stroke-linejoin="round"/>
<path d="M158.177 307.494C157.638 307.551 157.129 307.773 156.72 308.129C156.311 308.486 156.022 308.96 155.891 309.486C155.761 310.013 155.797 310.567 155.993 311.073C156.189 311.579 156.536 312.012 156.986 312.314C157.437 312.615 157.97 312.771 158.513 312.759C159.055 312.747 159.58 312.568 160.018 312.247C160.455 311.926 160.782 311.478 160.956 310.964C161.129 310.45 161.14 309.895 160.987 309.374" stroke="black" stroke-width="1.3" stroke-linecap="round" stroke-linejoin="round"/>
<path d="M95.5884 304.035H90.3984" stroke="black" stroke-width="1.3" stroke-linecap="round" stroke-linejoin="round"/>
<path d="M101.148 235.875H169.468L196.338 297.195" stroke="black" stroke-width="1.3" stroke-linecap="round" stroke-linejoin="round"/>
<path d="M151.918 339.435H113.588C113.023 339.434 112.467 339.301 111.962 339.047C111.458 338.793 111.02 338.424 110.684 337.97C110.348 337.516 110.122 336.99 110.026 336.433C109.929 335.877 109.964 335.305 110.128 334.765L115.408 317.215" stroke="black" stroke-width="1.3" stroke-linecap="round" stroke-linejoin="round"/>
<path d="M120.048 317.215L114.768 334.785H151.918" stroke="black" stroke-width="1.3" stroke-linecap="round" stroke-linejoin="round"/>
<path d="M144.398 331.615L148.728 317.215H120.048L114.768 334.785" stroke="black" stroke-width="1.3" stroke-linecap="round" stroke-linejoin="round"/>
<path d="M151.918 339.435H180.588V334.785H151.918V337.105" stroke="black" stroke-width="1.3" stroke-linecap="round" stroke-linejoin="round"/>
<path d="M222.998 91.2851C222.997 83.5782 220.168 76.1396 215.048 70.3796C209.928 64.6196 202.872 60.9388 195.218 60.0351C195.218 60.0351 195.218 59.9651 195.218 59.9251C195.205 57.4178 194.199 55.0178 192.42 53.2505C190.642 51.4832 188.235 50.4924 185.728 50.4951C184.145 50.4901 182.587 50.8857 181.198 51.6451C179.47 45.6857 175.49 40.633 170.101 37.5569C164.713 34.4809 158.338 33.623 152.328 35.1651C149.832 26.1398 144.67 18.0778 137.518 12.0336C130.366 5.98935 121.556 2.24425 112.241 1.2881C102.926 0.331954 93.539 2.20927 85.3081 6.67451C77.0772 11.1397 70.3854 17.985 66.108 26.3151C64.8794 26.1019 63.6348 25.9948 62.388 25.9951C56.9018 25.9957 51.6118 28.0358 47.546 31.7191C43.4802 35.4024 40.9289 40.4657 40.388 45.9251C36.3704 44.7549 32.1563 44.4161 28.0034 44.9295C23.8504 45.443 19.8458 46.7978 16.2342 48.9113C12.6225 51.0248 9.47977 53.8525 6.99794 57.2216C4.51611 60.5908 2.74732 64.4306 1.79967 68.5064C0.852023 72.5823 0.745409 76.8086 1.48635 80.927C2.22729 85.0454 3.80021 88.9696 6.10901 92.4596C8.41781 95.9496 11.414 98.9321 14.9145 101.225C18.4149 103.518 22.3462 105.073 26.468 105.795C26.8461 112.133 28.7678 118.282 32.0656 123.707C35.3634 129.132 39.9374 133.669 45.3893 136.922C50.8412 140.176 57.0057 142.047 63.3462 142.373C69.6866 142.7 76.0108 141.471 81.768 138.795C82.5296 141.098 83.9402 143.132 85.8302 144.652C87.7202 146.172 90.0091 147.114 92.4217 147.364C94.8343 147.615 97.2678 147.163 99.4297 146.063C101.592 144.963 103.39 143.263 104.608 141.165C109.176 145.447 114.66 148.632 120.642 150.478C126.625 152.325 132.95 152.783 139.137 151.819C145.324 150.855 151.209 148.494 156.347 144.915C161.485 141.337 165.739 136.634 168.788 131.165C173.065 133.1 177.927 133.297 182.347 131.715C186.768 130.133 190.4 126.895 192.478 122.685C200.647 122.441 208.401 119.027 214.097 113.166C219.794 107.306 222.986 99.4581 222.998 91.2851Z" fill="white"/>
<path d="M27.1074 110.924C28.2466 116.723 30.6888 122.187 34.2493 126.903C37.8099 131.62 42.3958 135.466 47.6605 138.15C52.9253 140.834 58.7313 142.287 64.6399 142.399C70.5484 142.51 76.4051 141.278 81.7674 138.794C82.5291 141.097 83.9397 143.13 85.8297 144.651C87.7197 146.171 90.0086 147.113 92.4212 147.363C94.8338 147.614 97.2673 147.162 99.4292 146.062C101.591 144.962 103.389 143.261 104.607 141.164C108.323 144.653 112.652 147.423 117.377 149.334" stroke="black" stroke-width="1.3" stroke-linecap="round" stroke-linejoin="round"/>
<path d="M66.1079 26.2653C64.8794 26.0521 63.6348 25.945 62.3879 25.9453C56.9017 25.9459 51.6118 27.986 47.5459 31.6693C43.4801 35.3526 40.9288 40.4159 40.3879 45.8753C36.3933 44.786 32.22 44.5138 28.1178 45.075C24.0155 45.6362 20.0687 47.0193 16.5135 49.1415C12.9582 51.2636 9.86772 54.0813 7.42689 57.4258C4.98605 60.7703 3.24507 64.5729 2.30816 68.6059C1.37124 72.6389 1.25764 76.8196 1.97417 80.8975C2.69069 84.9755 4.22261 88.867 6.47822 92.3391C8.73384 95.8112 11.6668 98.7926 15.1015 101.105C18.5363 103.417 22.4022 105.012 26.4679 105.795" stroke="black" stroke-width="1.3" stroke-linecap="round" stroke-linejoin="round"/>
<path d="M179.229 46.7948C176.681 42.1349 172.653 38.4567 167.782 36.3415C162.91 34.2263 157.473 33.7947 152.329 35.1148C149.989 26.6596 145.307 19.0382 138.821 13.1303C132.336 7.22233 124.312 3.26861 115.676 1.72541C107.04 0.182208 98.1437 1.11244 90.0137 4.40873C81.8837 7.70503 74.8514 13.233 69.7285 20.3548" stroke="black" stroke-width="1.3" stroke-linecap="round" stroke-linejoin="round"/>
<path d="M176.248 132.814C179.626 132.816 182.937 131.872 185.805 130.089C188.674 128.305 190.985 125.754 192.478 122.724C200.417 122.485 207.972 119.251 213.626 113.672C219.28 108.094 222.615 100.583 222.96 92.6472C223.306 84.7117 220.637 76.9393 215.489 70.8901C210.342 64.8409 203.097 60.9628 195.208 60.0342C195.208 60.0342 195.208 59.9642 195.208 59.9242C195.195 57.4186 194.19 55.0202 192.414 53.2531C190.637 51.4861 188.234 50.4942 185.728 50.4942C184.145 50.4892 182.587 50.8848 181.198 51.6442" stroke="black" stroke-width="1.3" stroke-linecap="round" stroke-linejoin="round"/>
<path d="M123.867 151.345C132.525 153.267 141.572 152.345 149.664 148.717C157.756 145.089 164.463 138.948 168.787 131.205" stroke="black" stroke-width="1.3" stroke-linecap="round" stroke-linejoin="round"/>
<path d="M298.258 344.455H288.038C286.271 344.455 284.838 345.888 284.838 347.655V351.445C284.838 353.212 286.271 354.645 288.038 354.645H298.258C300.025 354.645 301.458 353.212 301.458 351.445V347.655C301.458 345.888 300.025 344.455 298.258 344.455Z" fill="#33E6CA"/>
<path d="M230.318 401.295H215.928V434.275H230.318V401.295Z" fill="#33E6CA"/>
<path d="M298.258 344.455H288.038C286.271 344.455 284.838 345.888 284.838 347.655V351.445C284.838 353.212 286.271 354.645 288.038 354.645H298.258C300.025 354.645 301.458 353.212 301.458 351.445V347.655C301.458 345.888 300.025 344.455 298.258 344.455Z" stroke="black" stroke-width="1.3" stroke-linecap="round" stroke-linejoin="round"/>
<path d="M167.879 354.645L171.239 373.725C171.313 374.141 171.296 374.569 171.187 374.978C171.078 375.387 170.881 375.767 170.609 376.091C170.337 376.415 169.997 376.676 169.614 376.855C169.23 377.033 168.812 377.125 168.389 377.125H154.389V374.055H167.779L164.509 354.645H167.879Z" stroke="black" stroke-width="1.3" stroke-linecap="round" stroke-linejoin="round"/>
<path d="M178.249 373.725L174.879 354.645H167.879L171.239 373.725C171.314 374.141 171.296 374.569 171.187 374.978C171.078 375.387 170.881 375.767 170.609 376.091C170.337 376.415 169.997 376.676 169.614 376.855C169.23 377.033 168.812 377.125 168.389 377.125H175.389C175.812 377.125 176.231 377.033 176.615 376.854C176.999 376.676 177.339 376.415 177.612 376.091C177.884 375.767 178.082 375.387 178.193 374.979C178.303 374.57 178.322 374.142 178.249 373.725V373.725Z" stroke="black" stroke-width="1.3" stroke-linecap="round" stroke-linejoin="round"/>
<path d="M241.707 381.074H204.537L209.597 398.074C209.875 399.004 210.445 399.82 211.223 400.4C212.002 400.98 212.946 401.294 213.917 401.294H232.327C233.298 401.294 234.243 400.98 235.021 400.4C235.799 399.82 236.369 399.004 236.647 398.074L241.707 381.074Z" stroke="black" stroke-width="1.3" stroke-linecap="round" stroke-linejoin="round"/>
<path d="M221.738 434.275H224.518C226.059 434.275 227.536 434.888 228.626 435.977C229.716 437.067 230.328 438.544 230.328 440.085V462.495H215.928V440.095C215.926 439.332 216.076 438.575 216.367 437.869C216.659 437.163 217.086 436.521 217.626 435.981C218.166 435.44 218.806 435.011 219.512 434.719C220.218 434.426 220.974 434.275 221.738 434.275V434.275Z" stroke="black" stroke-width="1.3" stroke-linecap="round" stroke-linejoin="round"/>
<path d="M165.997 481.704C168.93 481.704 171.307 477.402 171.307 472.094C171.307 466.787 168.93 462.484 165.997 462.484C163.065 462.484 160.688 466.787 160.688 472.094C160.688 477.402 163.065 481.704 165.997 481.704Z" stroke="black" stroke-width="1.3" stroke-linecap="round" stroke-linejoin="round"/>
<path d="M171.998 462.494H165.998C168.938 462.494 171.308 466.794 171.308 472.104C171.308 477.414 168.938 481.704 165.998 481.704H171.998C174.928 481.704 177.308 477.404 177.308 472.104C177.308 466.804 174.998 462.494 171.998 462.494Z" stroke="black" stroke-width="1.3" stroke-linecap="round" stroke-linejoin="round"/>
<path d="M274.529 481.704C277.461 481.704 279.839 477.402 279.839 472.094C279.839 466.787 277.461 462.484 274.529 462.484C271.596 462.484 269.219 466.787 269.219 472.094C269.219 477.402 271.596 481.704 274.529 481.704Z" stroke="black" stroke-width="1.3" stroke-linecap="round" stroke-linejoin="round"/>
<path d="M280.549 462.494H274.549C277.479 462.494 279.859 466.794 279.859 472.104C279.859 477.414 277.479 481.704 274.549 481.704H280.549C283.479 481.704 285.859 477.404 285.859 472.104C285.859 466.804 283.479 462.494 280.549 462.494Z" stroke="black" stroke-width="1.3" stroke-linecap="round" stroke-linejoin="round"/>
<path d="M226.087 462.484H220.157C218.71 462.484 217.537 463.657 217.537 465.104V477.714C217.537 479.161 218.71 480.334 220.157 480.334H226.087C227.534 480.334 228.707 479.161 228.707 477.714V465.104C228.707 463.657 227.534 462.484 226.087 462.484Z" stroke="black" stroke-width="1.3" stroke-linecap="round" stroke-linejoin="round"/>
<path d="M279.158 254.225H201.308C202.507 254.224 203.692 254.485 204.78 254.989C205.868 255.493 206.833 256.228 207.609 257.142C208.384 258.057 208.951 259.129 209.271 260.285C209.59 261.44 209.654 262.652 209.458 263.835L191.458 372.065C191.041 374.58 189.744 376.865 187.799 378.513C185.854 380.162 183.387 381.066 180.838 381.065H278.068C280.841 381.062 283.5 379.965 285.469 378.012C287.437 376.059 288.554 373.407 288.578 370.635L289.418 264.575C289.427 263.22 289.169 261.878 288.657 260.624C288.146 259.37 287.392 258.229 286.439 257.267C285.485 256.306 284.351 255.542 283.102 255.02C281.852 254.497 280.512 254.227 279.158 254.225Z" fill="white"/>
<path d="M148.787 381.074H180.857C183.407 381.076 185.874 380.171 187.819 378.523C189.764 376.875 191.06 374.589 191.477 372.074L209.477 263.844C209.673 262.661 209.609 261.45 209.29 260.294C208.97 259.139 208.403 258.066 207.628 257.152C206.852 256.237 205.887 255.503 204.799 254.999C203.711 254.495 202.526 254.234 201.327 254.234C199.31 254.236 197.363 254.975 195.853 256.312C194.343 257.65 193.373 259.492 193.127 261.494L179.997 368.544H148.787C147.988 368.56 147.226 368.888 146.666 369.458C146.105 370.028 145.79 370.795 145.787 371.594V378.024C145.79 378.824 146.105 379.591 146.666 380.161C147.226 380.731 147.988 381.059 148.787 381.074Z" fill="white"/>
<path d="M148.787 368.544C147.988 368.56 147.226 368.888 146.666 369.458C146.105 370.028 145.79 370.795 145.787 371.594V378.024C145.79 378.824 146.105 379.591 146.666 380.161C147.226 380.731 147.988 381.059 148.787 381.074H180.857C183.407 381.076 185.874 380.171 187.819 378.523C189.764 376.875 191.06 374.59 191.477 372.074L209.477 263.844C209.814 261.838 209.394 259.778 208.297 258.064" stroke="black" stroke-width="1.3" stroke-linecap="round" stroke-linejoin="round"/>
<path d="M201.308 254.225C199.291 254.227 197.344 254.966 195.834 256.303C194.324 257.64 193.355 259.483 193.108 261.485L179.998 368.545H152.408" stroke="black" stroke-width="1.3" stroke-linecap="round" stroke-linejoin="round"/>
<path d="M289.439 264.585C289.449 263.228 289.191 261.883 288.679 260.626C288.167 259.37 287.412 258.227 286.456 257.264C285.5 256.301 284.364 255.536 283.111 255.015C281.859 254.493 280.515 254.225 279.159 254.225H201.309" stroke="black" stroke-width="1.3" stroke-linecap="round" stroke-linejoin="round"/>
<path d="M278.088 381.074C280.861 381.072 283.52 379.975 285.489 378.022C287.457 376.068 288.574 373.417 288.598 370.644L289.398 269.814" stroke="black" stroke-width="1.3" stroke-linecap="round" stroke-linejoin="round"/>
<path d="M209.458 263.834L191.458 372.064C191.041 374.579 189.744 376.864 187.799 378.513C185.854 380.161 183.387 381.065 180.838 381.064H271.548" stroke="black" stroke-width="1.3" stroke-linecap="round" stroke-linejoin="round"/>
<path d="M187.207 344.455H176.987C175.22 344.455 173.787 345.888 173.787 347.655V351.445C173.787 353.212 175.22 354.645 176.987 354.645H187.207C188.974 354.645 190.407 353.212 190.407 351.445V347.655C190.407 345.888 188.974 344.455 187.207 344.455Z" fill="#33E6CA"/>
<path d="M173.787 351.434V347.664C173.798 346.82 174.14 346.014 174.741 345.42C175.342 344.827 176.153 344.494 176.997 344.494H148.997C148.146 344.494 147.329 344.832 146.727 345.434C146.125 346.036 145.787 346.853 145.787 347.704V351.474C145.787 352.325 146.125 353.142 146.727 353.744C147.329 354.346 148.146 354.684 148.997 354.684H176.997C176.572 354.684 176.151 354.6 175.759 354.436C175.367 354.272 175.012 354.032 174.713 353.73C174.414 353.428 174.179 353.069 174.02 352.675C173.861 352.281 173.782 351.859 173.787 351.434Z" fill="#33E6CA"/>
<path d="M145.738 351.434C145.738 352.285 146.076 353.102 146.678 353.704C147.28 354.306 148.097 354.644 148.948 354.644H176.998C176.147 354.644 175.33 354.306 174.728 353.704C174.126 353.102 173.788 352.285 173.788 351.434V347.664" stroke="black" stroke-width="1.3" stroke-linecap="round" stroke-linejoin="round"/>
<path d="M167.879 354.645L171.239 373.725C171.313 374.141 171.296 374.569 171.187 374.978C171.078 375.387 170.881 375.767 170.609 376.091C170.337 376.415 169.997 376.676 169.614 376.855C169.23 377.033 168.812 377.125 168.389 377.125H154.389V374.055H167.779L164.509 354.645H167.879Z" fill="black" stroke="black" stroke-width="1.3" stroke-linecap="round" stroke-linejoin="round"/>
<path d="M178.249 373.725L174.879 354.645H167.879L171.239 373.725C171.314 374.141 171.296 374.569 171.187 374.978C171.078 375.387 170.881 375.767 170.609 376.091C170.337 376.415 169.997 376.676 169.614 376.855C169.23 377.033 168.812 377.125 168.389 377.125H175.389C175.812 377.125 176.231 377.033 176.615 376.854C176.999 376.676 177.339 376.415 177.612 376.091C177.884 375.767 178.082 375.387 178.193 374.979C178.303 374.57 178.322 374.142 178.249 373.725Z" fill="black" stroke="black" stroke-width="1.3" stroke-linecap="round" stroke-linejoin="round"/>
<path d="M178.249 373.725L174.879 354.645H167.879L171.239 373.725C171.314 374.141 171.296 374.569 171.187 374.978C171.078 375.387 170.881 375.767 170.609 376.091C170.337 376.415 169.997 376.676 169.614 376.855C169.23 377.033 168.812 377.125 168.389 377.125H175.389C175.812 377.125 176.231 377.033 176.615 376.854C176.999 376.676 177.339 376.415 177.612 376.091C177.884 375.767 178.082 375.387 178.193 374.979C178.303 374.57 178.322 374.142 178.249 373.725V373.725Z" stroke="black" stroke-width="1.3" stroke-linecap="round" stroke-linejoin="round"/>
<path d="M241.707 381.074H204.537L209.597 398.074C209.875 399.004 210.445 399.82 211.223 400.4C212.002 400.98 212.946 401.294 213.917 401.294H232.327C233.298 401.294 234.243 400.98 235.021 400.4C235.799 399.82 236.369 399.004 236.647 398.074L241.707 381.074Z" fill="black" stroke="black" stroke-width="1.3" stroke-linecap="round" stroke-linejoin="round"/>
<path d="M241.707 381.074H204.537L209.597 398.074C209.875 399.004 210.445 399.82 211.223 400.4C212.002 400.98 212.946 401.294 213.917 401.294H232.327C233.298 401.294 234.243 400.98 235.021 400.4C235.799 399.82 236.369 399.004 236.647 398.074L241.707 381.074Z" stroke="black" stroke-width="1.3" stroke-linecap="round" stroke-linejoin="round"/>
<path d="M231.078 434.275H215.178C212.791 434.279 210.423 434.695 208.178 435.505L167.178 450.305C165.488 450.919 164.028 452.038 162.995 453.511C161.963 454.983 161.409 456.737 161.408 458.535V462.495H173.088L223.088 455.495L273.468 462.495H284.798V458.495C284.797 456.697 284.243 454.943 283.211 453.471C282.179 451.998 280.718 450.879 279.028 450.265L238.028 435.465C235.797 434.674 233.446 434.271 231.078 434.275Z" fill="white"/>
<path d="M238.078 435.496C235.833 434.685 233.465 434.269 231.078 434.266H215.178C212.791 434.269 210.423 434.685 208.178 435.496L167.178 450.296C165.488 450.909 164.028 452.028 162.995 453.501C161.963 454.973 161.409 456.727 161.408 458.526V462.496H173.088L212.088 457.016" stroke="black" stroke-width="1.3" stroke-linecap="round" stroke-linejoin="round"/>
<path d="M284.839 458.496C284.838 456.697 284.284 454.943 283.251 453.471C282.219 451.998 280.759 450.879 279.069 450.266L242.979 437.266" stroke="black" stroke-width="1.3" stroke-linecap="round" stroke-linejoin="round"/>
<path d="M223.129 455.465L273.509 462.485H284.839" stroke="black" stroke-width="1.3" stroke-linecap="round" stroke-linejoin="round"/>
<path d="M221.738 434.275H224.518C226.059 434.275 227.536 434.888 228.626 435.977C229.716 437.067 230.328 438.544 230.328 440.085V462.495H215.928V440.095C215.926 439.332 216.076 438.575 216.367 437.869C216.659 437.163 217.086 436.521 217.626 435.981C218.166 435.44 218.806 435.011 219.512 434.719C220.218 434.426 220.974 434.275 221.738 434.275Z" fill="white"/>
<path d="M215.928 445.805V462.495H230.318V440.105C230.318 438.561 229.705 437.08 228.614 435.986C227.523 434.893 226.042 434.278 224.498 434.275H221.758C220.212 434.275 218.729 434.89 217.635 435.983C216.542 437.076 215.928 438.559 215.928 440.105" stroke="black" stroke-width="1.3" stroke-linecap="round" stroke-linejoin="round"/>
<path d="M165.997 481.704C168.93 481.704 171.307 477.402 171.307 472.094C171.307 466.787 168.93 462.484 165.997 462.484C163.065 462.484 160.688 466.787 160.688 472.094C160.688 477.402 163.065 481.704 165.997 481.704Z" fill="white"/>
<path d="M165.997 481.704C168.93 481.704 171.307 477.402 171.307 472.094C171.307 466.787 168.93 462.484 165.997 462.484C163.065 462.484 160.688 466.787 160.688 472.094C160.688 477.402 163.065 481.704 165.997 481.704Z" stroke="black" stroke-width="1.3" stroke-linecap="round" stroke-linejoin="round"/>
<path d="M171.998 462.494H165.998C168.938 462.494 171.308 466.794 171.308 472.104C171.308 477.414 168.938 481.704 165.998 481.704H171.998C174.928 481.704 177.308 477.404 177.308 472.104C177.308 466.804 174.998 462.494 171.998 462.494Z" stroke="black" stroke-width="1.3" stroke-linecap="round" stroke-linejoin="round"/>
<path d="M171.998 462.494H165.998C168.938 462.494 171.308 466.794 171.308 472.104C171.308 477.414 168.938 481.704 165.998 481.704H171.998C174.928 481.704 177.308 477.404 177.308 472.104C177.308 466.804 174.998 462.494 171.998 462.494Z" fill="black" stroke="black" stroke-width="1.3" stroke-linecap="round" stroke-linejoin="round"/>
<path d="M274.529 481.704C277.461 481.704 279.839 477.402 279.839 472.094C279.839 466.787 277.461 462.484 274.529 462.484C271.596 462.484 269.219 466.787 269.219 472.094C269.219 477.402 271.596 481.704 274.529 481.704Z" fill="white"/>
<path d="M274.529 481.704C277.461 481.704 279.839 477.402 279.839 472.094C279.839 466.787 277.461 462.484 274.529 462.484C271.596 462.484 269.219 466.787 269.219 472.094C269.219 477.402 271.596 481.704 274.529 481.704Z" stroke="black" stroke-width="1.3" stroke-linecap="round" stroke-linejoin="round"/>
<path d="M280.549 462.494H274.549C277.479 462.494 279.859 466.794 279.859 472.104C279.859 477.414 277.479 481.704 274.549 481.704H280.549C283.479 481.704 285.859 477.404 285.859 472.104C285.859 466.804 283.479 462.494 280.549 462.494Z" fill="black" stroke="black" stroke-width="1.3" stroke-linecap="round" stroke-linejoin="round"/>
<path d="M226.087 462.484H220.157C218.71 462.484 217.537 463.657 217.537 465.104V477.714C217.537 479.161 218.71 480.334 220.157 480.334H226.087C227.534 480.334 228.707 479.161 228.707 477.714V465.104C228.707 463.657 227.534 462.484 226.087 462.484Z" stroke="black" stroke-width="1.3" stroke-linecap="round" stroke-linejoin="round"/>
<path d="M226.087 462.484H220.157C218.71 462.484 217.537 463.657 217.537 465.104V477.714C217.537 479.161 218.71 480.334 220.157 480.334H226.087C227.534 480.334 228.707 479.161 228.707 477.714V465.104C228.707 463.657 227.534 462.484 226.087 462.484Z" fill="black" stroke="black" stroke-width="1.3" stroke-linecap="round" stroke-linejoin="round"/>
<path d="M215.928 401.295V419.895" stroke="black" stroke-width="1.3" stroke-linecap="round" stroke-linejoin="round"/>
<path d="M215.928 419.895V434.275" stroke="black" stroke-width="1.3" stroke-linecap="round" stroke-linejoin="round"/>
<path d="M230.318 405.305V434.275" stroke="black" stroke-width="1.3" stroke-linecap="round" stroke-linejoin="round"/>
<path d="M176.997 344.494H187.197C188.048 344.494 188.865 344.832 189.467 345.434C190.069 346.036 190.407 346.853 190.407 347.704V351.474C190.407 352.325 190.069 353.142 189.467 353.744C188.865 354.346 188.048 354.684 187.197 354.684H176.997C176.146 354.684 175.329 354.346 174.727 353.744C174.125 353.142 173.787 352.325 173.787 351.474V347.704" stroke="black" stroke-width="1.3" stroke-linecap="round" stroke-linejoin="round"/>
<path d="M173.787 344.494H148.997C148.146 344.494 147.329 344.832 146.727 345.434C146.125 346.036 145.787 346.853 145.787 347.704V347.704" stroke="black" stroke-width="1.3" stroke-linecap="round" stroke-linejoin="round"/>
<path d="M190.598 141.894C189.228 140.18 187.389 138.901 185.305 138.211C183.222 137.521 180.983 137.451 178.86 138.009C176.738 138.567 174.822 139.729 173.347 141.353C171.872 142.978 170.899 144.996 170.548 147.163C170.197 149.329 170.482 151.551 171.369 153.559C172.256 155.566 173.706 157.273 175.544 158.473C177.382 159.672 179.528 160.313 181.723 160.317C183.918 160.32 186.066 159.687 187.908 158.494C188.875 159.247 190.002 159.766 191.203 160.01C192.404 160.254 193.645 160.215 194.828 159.898C196.012 159.581 197.106 158.994 198.024 158.182C198.942 157.371 199.659 156.357 200.119 155.222C200.579 154.086 200.769 152.859 200.675 151.638C200.58 150.416 200.204 149.233 199.575 148.182C198.946 147.13 198.081 146.239 197.049 145.578C196.018 144.918 194.847 144.505 193.628 144.374C193.119 144.329 192.607 144.329 192.098 144.374" fill="white"/>
<path d="M190.598 141.894C189.228 140.18 187.389 138.901 185.305 138.211C183.222 137.521 180.983 137.451 178.86 138.009C176.738 138.567 174.822 139.729 173.347 141.353C171.872 142.978 170.899 144.996 170.548 147.163C170.197 149.329 170.482 151.551 171.369 153.559C172.256 155.566 173.706 157.273 175.544 158.473C177.382 159.672 179.528 160.313 181.723 160.317C183.918 160.32 186.066 159.687 187.908 158.494C188.875 159.247 190.002 159.766 191.203 160.01C192.404 160.254 193.645 160.215 194.828 159.898C196.012 159.581 197.106 158.994 198.024 158.182C198.942 157.371 199.659 156.357 200.119 155.222C200.579 154.086 200.769 152.859 200.675 151.638C200.58 150.416 200.204 149.233 199.575 148.182C198.946 147.13 198.081 146.239 197.049 145.578C196.018 144.918 194.847 144.505 193.628 144.374C193.119 144.329 192.607 144.329 192.098 144.374" stroke="black" stroke-width="1.3" stroke-linecap="round" stroke-linejoin="round"/>
<path d="M232.519 123.635C231.558 122.932 230.37 122.61 229.186 122.732C228.001 122.855 226.904 123.412 226.107 124.296C225.31 125.18 224.869 126.329 224.869 127.519C224.87 128.71 225.312 129.858 226.11 130.742C226.908 131.625 228.006 132.181 229.19 132.302C230.375 132.423 231.562 132.101 232.522 131.397C233.483 130.693 234.148 129.658 234.389 128.492C234.631 127.326 234.431 126.112 233.829 125.085" fill="white"/>
<path d="M232.519 123.635C231.558 122.932 230.37 122.61 229.186 122.732C228.001 122.855 226.904 123.412 226.107 124.296C225.31 125.18 224.869 126.329 224.869 127.519C224.87 128.71 225.312 129.858 226.11 130.742C226.908 131.625 228.006 132.181 229.19 132.302C230.375 132.423 231.562 132.101 232.522 131.397C233.483 130.693 234.148 129.658 234.389 128.492C234.631 127.326 234.431 126.112 233.829 125.085" stroke="black" stroke-width="1.3" stroke-linecap="round" stroke-linejoin="round"/>
<path d="M222.307 141.025C221.58 139.288 220.234 137.884 218.53 137.083C216.826 136.282 214.885 136.142 213.084 136.691C211.283 137.239 209.75 138.436 208.781 140.05C207.812 141.664 207.477 143.581 207.84 145.428C208.203 147.275 209.239 148.922 210.747 150.049C212.255 151.176 214.128 151.703 216.002 151.529C217.877 151.354 219.62 150.49 220.894 149.103C222.167 147.717 222.881 145.907 222.897 144.025" fill="white"/>
<path d="M222.307 141.025C221.58 139.288 220.234 137.884 218.53 137.083C216.826 136.282 214.885 136.142 213.084 136.691C211.283 137.239 209.75 138.436 208.781 140.05C207.812 141.664 207.477 143.581 207.84 145.428C208.203 147.275 209.239 148.922 210.747 150.049C212.255 151.176 214.128 151.703 216.002 151.529C217.877 151.354 219.62 150.49 220.894 149.103C222.167 147.717 222.881 145.907 222.897 144.025" stroke="black" stroke-width="1.3" stroke-linecap="round" stroke-linejoin="round"/>
<path d="M329.648 181.715C325.408 172.125 321.788 164.425 318.648 156.505L316.398 150.505C313.198 140.715 310.948 132.435 301.908 129.605C292.868 126.775 285.908 125.225 285.908 125.225L289.708 124.945C290.595 124.815 291.421 124.421 292.081 123.814C292.741 123.208 293.203 122.418 293.408 121.545C294.608 116.545 297.028 106.365 297.528 104.115C297.782 102.994 297.765 101.829 297.478 100.715C297.115 99.3217 297.181 97.8508 297.668 96.4954C298.305 94.9105 298.508 93.1849 298.258 91.4954C297.968 88.6254 297.718 86.9954 297.718 86.9954L297.258 84.3454L301.078 86.4454C301.978 73.4454 289.448 70.0454 289.448 70.0454L291.268 66.7454C273.268 63.2054 261.838 69.6354 261.838 69.6354V66.1954C256.784 69.1786 252.721 73.5856 250.158 78.8654C248.692 81.9452 248.002 85.337 248.149 88.7447C248.295 92.1525 249.274 95.4726 250.998 98.4154C253.088 102.035 255.318 105.415 257.218 108.415C254.372 108.522 251.544 108.917 248.778 109.595C247.766 109.836 246.818 110.295 246.002 110.941C245.185 111.587 244.52 112.403 244.054 113.333C243.587 114.263 243.329 115.285 243.299 116.325C243.268 117.365 243.466 118.4 243.878 119.355C244.078 119.805 244.308 120.265 244.558 120.725L242.878 122.095C237.878 126.615 240.518 133.095 240.518 133.095C236.248 135.215 230.288 139.185 227.778 145.615C225.909 150.078 224.271 154.634 222.868 159.265C218.75 170.972 213.614 182.296 207.518 193.105L205.838 196.465C199.408 210.375 198.248 227.515 207.518 239.825C209.993 243.189 213.125 246.016 216.724 248.133C220.324 250.251 224.316 251.616 228.458 252.145L231.248 252.345C231.248 252.345 231.108 254.425 231.068 256.765C230.608 261.185 227.068 269.375 228.458 284.655C228.628 286.455 228.888 289.055 229.228 292.245V292.335C229.228 292.795 229.318 293.255 229.368 293.735V293.965V294.085C229.508 295.455 229.668 296.915 229.828 298.445V298.595V298.735C229.888 299.305 229.958 299.865 230.018 300.445C230.018 300.595 230.018 300.745 230.018 300.895C230.068 301.425 230.128 301.955 230.188 302.495V302.695C230.258 303.305 230.318 303.915 230.388 304.545L230.448 305.055L230.628 306.785V307.015C230.698 307.675 230.768 308.345 230.848 309.015V309.405C231.158 312.285 231.488 315.275 231.848 318.325L231.898 318.835C232.068 320.315 232.228 321.835 232.398 323.315V323.455L233.398 332.845C233.398 333.015 233.398 333.185 233.448 333.355L233.698 335.535V335.825C235.128 348.655 236.478 360.635 237.258 367.585C237.698 371.464 237.758 375.375 237.438 379.265C237.348 380.425 237.248 381.745 237.158 383.205C237.158 383.565 237.108 383.935 237.088 384.315C236.978 386.215 236.878 388.315 236.808 390.555C236.668 395.045 236.648 400.115 236.888 405.375C236.888 406.375 236.988 407.485 237.058 408.555C237.367 413.874 238.035 419.166 239.058 424.395C243.608 446.775 248.338 467.885 248.338 467.885C249.658 473.775 248.878 476.885 251.648 477.555C251.886 477.606 252.126 477.643 252.368 477.665C253.258 483.015 250.368 484.785 251.658 488.325C251.958 489.195 252.268 490.055 252.568 490.875L251.328 492.675C250.235 494.123 249.601 495.864 249.508 497.675C249.508 497.905 249.508 498.125 249.458 498.345C249.458 498.405 249.458 498.465 249.458 498.525C249.458 498.585 249.458 498.835 249.458 498.995C249.458 499.155 249.458 499.115 249.458 499.175C249.458 499.235 249.458 499.515 249.408 499.675C249.403 499.715 249.403 499.755 249.408 499.795C249.408 500.005 249.358 500.215 249.328 500.425C249.328 500.625 249.328 500.815 249.248 501.015V501.155C249.248 501.335 249.248 501.505 249.168 501.685V501.815C249.098 502.275 249.018 502.745 248.928 503.265V503.435C248.718 504.635 248.468 506.045 248.158 507.865C247.268 513.115 251.728 516.375 256.278 518.065C260.828 519.755 264.198 522.315 269.938 527.165C275.678 532.015 281.218 534.885 288.348 534.885C295.478 534.885 301.218 531.555 301.218 527.955V527.165C301.213 526.354 301.036 525.553 300.698 524.815C300.522 524.409 300.297 524.027 300.028 523.675C299.909 523.519 299.783 523.369 299.648 523.225L299.588 523.155C299.431 522.995 299.264 522.845 299.088 522.705C297.269 521.223 295.336 519.886 293.308 518.705C292.918 518.475 292.558 518.205 292.188 517.945C295.718 518.885 299.078 520.015 299.078 520.015C301.335 520.427 303.624 520.631 305.918 520.625C314.458 520.625 318.718 518.705 318.718 516.845C318.835 515.586 318.599 514.319 318.038 513.185L317.978 513.085C317.888 512.955 317.798 512.815 317.698 512.685L317.618 512.585C317.479 512.419 317.328 512.262 317.168 512.115C317.005 511.966 316.831 511.829 316.648 511.705C316.592 511.656 316.532 511.613 316.468 511.575L315.978 511.275L315.768 511.155C315.518 511.025 315.248 510.895 314.958 510.775L312.168 509.495L307.358 507.365C306.116 506.807 304.98 506.039 303.998 505.095C303.67 504.779 303.36 504.445 303.068 504.095C302.408 503.305 301.728 502.525 301.068 501.755C300.068 500.595 299.068 499.485 298.068 498.435L297.118 497.435C296.508 496.775 295.918 496.155 295.368 495.575C293.188 493.295 291.658 491.795 291.658 491.795C291.398 485.225 290.308 480.795 284.988 481.445C285.44 479.239 285.598 476.983 285.458 474.735C285.368 473.735 285.318 473.105 285.268 472.625C286.407 472.61 287.539 472.452 288.638 472.155C291.638 471.315 292.548 466.525 293.888 462.155C295.228 457.785 291.358 457.545 291.358 457.545L289.438 457.255L302.998 394.495L303.998 389.785C304.218 388.785 304.408 387.785 304.558 386.785C305.035 383.773 305.252 380.725 305.208 377.675C305.208 377.275 305.208 376.845 305.208 376.415V376.015C305.208 375.685 305.208 375.355 305.208 375.015C305.208 374.865 305.208 374.715 305.208 374.555C305.208 374.065 305.208 373.555 305.208 373.035C305.208 372.515 305.208 371.965 305.208 371.405C305.208 371.255 305.208 371.095 305.208 370.945C305.208 370.515 305.208 370.065 305.208 369.615C305.208 369.435 305.208 369.255 305.208 369.075C305.208 367.845 305.118 366.545 305.068 365.175C305.068 364.995 305.068 364.805 305.068 364.615C305.068 364.085 305.068 363.555 304.998 363.005C304.998 362.795 304.998 362.595 304.998 362.385C304.938 360.925 304.868 359.385 304.788 357.785V357.095C304.788 356.485 304.718 355.855 304.688 355.225V354.525C304.688 353.685 304.598 352.845 304.548 351.975C304.398 349.415 304.238 346.695 304.048 343.845V343.495V343.035C303.998 342.395 303.958 341.735 303.908 341.035C303.908 340.525 303.848 340.035 303.808 339.515C303.758 338.795 303.708 338.055 303.648 337.325C303.648 336.855 303.588 336.385 303.548 335.895C303.488 335.025 303.418 334.125 303.348 333.235C303.348 332.865 303.348 332.515 303.268 332.145C303.168 330.885 303.068 329.585 302.958 328.275C302.958 327.985 302.908 327.675 302.888 327.375C302.808 326.375 302.718 325.375 302.628 324.285C302.628 323.775 302.538 323.285 302.498 322.745C302.428 321.885 302.348 321.025 302.268 320.145C302.218 319.575 302.168 318.985 302.118 318.395C302.038 317.575 301.968 316.745 301.888 315.905L301.708 314.005L301.468 311.505C301.408 310.855 301.338 310.205 301.278 309.555C301.198 308.705 301.108 307.855 301.028 306.995L300.818 304.995C300.725 304.142 300.635 303.282 300.548 302.415C300.478 301.715 300.398 301.005 300.318 300.285C300.228 299.405 300.138 298.525 300.038 297.635L299.798 295.505C299.698 294.575 299.598 293.645 299.488 292.705L299.248 290.565C299.138 289.565 299.018 288.635 298.908 287.665C298.828 286.955 298.738 286.245 298.658 285.525C298.538 284.525 298.408 283.455 298.278 282.415C298.198 281.725 298.118 281.055 298.028 280.365C297.888 279.215 297.738 278.035 297.598 276.865C297.518 276.275 297.448 275.695 297.368 275.095C297.148 273.315 296.908 271.525 296.668 269.715C296.535 268.681 296.472 267.638 296.478 266.595C296.478 266.225 296.478 265.805 296.478 265.335C296.478 263.935 296.538 262.085 296.638 259.955C296.738 257.245 296.848 255.075 296.848 255.075C298.726 253.904 300.278 252.276 301.358 250.344C302.438 248.413 303.013 246.239 303.028 244.025C306.548 244.185 314.678 240.745 314.678 240.745C314.678 240.745 325.828 242.185 331.878 237.115C334.826 234.58 337.094 231.349 338.478 227.715L340.548 221.415C341.377 217.941 341.78 214.378 341.748 210.805C341.348 199.905 334.938 193.685 329.648 181.715ZM311.868 214.985C310.954 216.125 310.103 217.313 309.318 218.545C309.118 218.845 308.908 219.115 308.708 219.365C308.347 219.83 307.946 220.262 307.508 220.655L303.508 223.065C302.916 223.462 302.22 223.674 301.508 223.675L299.758 214.555C299.183 211.574 299.262 208.503 299.988 205.555C300.598 203.055 301.388 199.645 302.188 195.765C303.708 199.585 304.108 202.165 305.588 208.055C307.068 213.945 309.588 213.665 309.588 213.665C309.588 213.665 310.118 213.875 311.698 213.185V213.305C311.655 213.879 311.699 214.455 311.828 215.015L311.868 214.985Z" fill="white"/>
<path d="M318.837 514.714C318.577 513.284 317.767 511.784 315.177 510.714C312.857 509.714 309.697 508.364 307.497 507.374C305.838 506.618 304.372 505.497 303.207 504.094C297.927 497.774 291.817 491.784 291.817 491.784C291.817 491.784 291.767 490.784 291.507 487.954C291.507 487.734 291.447 487.504 291.407 487.294C290.897 484.754 288.587 483.294 283.627 484.234C278.287 485.284 276.857 490.934 276.857 490.934C277.682 492.402 278.219 494.015 278.437 495.684L279.127 499.994C282.399 504.151 285.386 508.524 288.067 513.084C288.237 513.374 288.437 513.634 288.617 513.904C289.137 514.124 297.727 517.664 304.237 517.664C310.937 517.694 318.997 516.804 318.837 514.714Z" fill="#33E6CA"/>
<path d="M285.429 472.615C282.07 472.752 278.757 471.806 275.979 469.915L276.059 469.855C274.86 470.644 273.614 471.359 272.328 471.995C272.274 473.436 272.402 474.877 272.708 476.285C273.238 479.385 274.358 479.825 274.358 483.185C274.399 484.858 274.292 486.531 274.039 488.185C273.669 488.085 273.319 488.005 272.969 487.925C273.726 488.155 274.439 488.51 275.078 488.975C275.078 488.975 275.579 482.125 285.149 481.455C285.601 479.249 285.759 476.993 285.619 474.745C285.529 473.765 285.469 473.095 285.429 472.615Z" fill="black" stroke="black" stroke-width="1.3" stroke-linecap="round" stroke-linejoin="round"/>
<path d="M270.998 472.624L272.288 471.994C271.908 472.204 271.488 472.414 270.998 472.624Z" fill="black" stroke="black" stroke-width="1.3" stroke-linecap="round" stroke-linejoin="round"/>
<path d="M263.518 492.014C260.268 494.484 261.158 500.084 261.158 500.084L258.238 501.084L257.998 497.494C257.998 497.494 255.998 497.944 255.258 496.494C254.828 495.634 253.678 492.624 252.968 490.714L251.728 492.514C250.635 493.962 250.001 495.703 249.908 497.514C249.784 499.4 249.55 501.276 249.208 503.134V503.304C249.118 503.934 249.058 506.384 252.118 510.384C255.708 515.064 261.678 515.854 265.908 518.844C270.138 521.834 275.958 527.204 280.978 529.344C285.173 531.22 289.89 531.574 294.318 530.344C298.318 529.344 301.438 526.344 300.978 524.644C300.607 523.818 300.049 523.088 299.348 522.514C297.529 521.032 295.596 519.695 293.568 518.514C291.292 517.17 289.403 515.258 288.088 512.964C285.407 508.404 282.42 504.031 279.148 499.874L278.458 495.564C277.428 488.774 266.768 489.554 263.518 492.014Z" fill="#33E6CA"/>
<path d="M272.327 471.994C271.917 472.204 271.497 472.414 271.047 472.624C263.047 476.454 255.997 477.884 252.787 477.574C253.677 482.924 250.787 484.694 252.077 488.234C253.367 491.774 254.567 495.144 255.277 496.564C255.987 497.984 258.017 497.564 258.017 497.564C257.842 495.186 258.607 492.834 260.147 491.014C262.717 488.094 267.147 486.324 274.057 488.184C274.311 486.53 274.418 484.857 274.377 483.184C274.377 479.824 273.257 479.384 272.727 476.284C272.414 474.877 272.28 473.435 272.327 471.994Z" fill="black" stroke="black" stroke-width="1.3" stroke-linecap="round" stroke-linejoin="round"/>
<path d="M273.997 488.155C274.251 486.501 274.358 484.828 274.317 483.155C274.317 479.795 273.197 479.355 272.667 476.255C272.361 474.847 272.233 473.405 272.287 471.965V471.965" stroke="white" stroke-width="1.3" stroke-linecap="round" stroke-linejoin="round"/>
<path d="M296.477 269.684C296.344 268.649 296.281 267.607 296.287 266.564C296.287 265.104 296.287 262.764 296.457 259.924C296.347 262.634 288.757 265.924 279.867 268.054C270.977 270.184 262.087 269.684 252.327 266.214C242.567 262.744 231.137 260.064 231.187 256.674C230.727 261.094 227.187 269.284 228.577 284.564C229.747 297.144 235.577 349.374 237.667 367.494C238.102 371.372 238.162 375.284 237.847 379.174C237.097 388.464 236.137 407.944 239.467 424.304C244.017 446.684 248.747 467.794 248.747 467.794C248.747 467.794 258.027 469.614 274.747 458.334L274.287 454.114C274.287 454.114 279.637 452.994 279.977 459.724C282.806 460.687 285.794 461.098 288.777 460.934L304.137 389.784C305 385.806 305.406 381.743 305.347 377.674C305.137 363.324 303.827 325.344 296.477 269.684ZM269.377 395.364L268.837 385.874C270.276 381.441 271.199 376.858 271.587 372.214C271.878 373.557 272.266 374.877 272.747 376.164C273.575 378.424 273.575 380.904 272.747 383.164C271.261 387.121 270.133 391.204 269.377 395.364Z" fill="#33E6CA"/>
<path d="M303.887 343.495C302.657 324.685 300.447 299.775 296.477 269.705C296.344 268.671 296.281 267.628 296.287 266.585C296.287 265.125 296.287 262.785 296.457 259.945C296.347 262.655 288.757 265.945 279.867 268.075C270.977 270.205 262.087 269.705 252.327 266.235C242.567 262.765 231.137 260.085 231.187 256.695C230.727 261.115 227.187 269.305 228.577 284.585" stroke="black" stroke-width="1.3" stroke-linecap="round" stroke-linejoin="round"/>
<path d="M304.158 389.785C305.021 385.808 305.427 381.745 305.368 377.675C305.278 372.305 305.048 363.625 304.368 351.945" stroke="black" stroke-width="1.3" stroke-linecap="round" stroke-linejoin="round"/>
<path d="M278.049 454.994C279.049 455.784 279.869 457.204 279.999 459.724C282.828 460.687 285.815 461.098 288.799 460.934L303.149 394.494" stroke="black" stroke-width="1.3" stroke-linecap="round" stroke-linejoin="round"/>
<path d="M229.348 292.154C229.398 292.714 229.458 293.284 229.528 293.874C229.678 295.324 229.838 296.874 230.018 298.504C232.238 319.214 236.088 353.504 237.668 367.504C238.102 371.383 238.163 375.294 237.848 379.184C237.098 388.474 236.138 407.954 239.468 424.314C244.018 446.694 248.748 467.804 248.748 467.804C248.748 467.804 258.028 469.624 274.748 458.344L274.288 454.124C272.928 442.244 270.118 408.464 269.148 392.014" stroke="black" stroke-width="1.3" stroke-linecap="round" stroke-linejoin="round"/>
<path d="M297.839 87.0645C297.839 87.0645 298.089 88.6945 298.379 91.5645C298.629 93.254 298.425 94.9796 297.789 96.5645C297.302 97.9199 297.236 99.3908 297.599 100.784C297.869 101.902 297.869 103.067 297.599 104.184C297.099 106.434 294.679 116.614 293.479 121.614C293.274 122.487 292.812 123.277 292.152 123.884C291.492 124.49 290.665 124.884 289.779 125.014C287.912 125.404 285.985 125.404 284.119 125.014C279.929 124.014 272.379 120.674 272.379 120.674" stroke="black" stroke-width="1.3" stroke-linecap="round" stroke-linejoin="round"/>
<path d="M289.169 99.3555C289.199 100.942 289.503 102.512 290.069 103.995L292.659 110.185C292.749 110.393 292.781 110.622 292.75 110.846C292.72 111.07 292.629 111.282 292.486 111.458C292.344 111.634 292.156 111.768 291.944 111.845C291.731 111.922 291.501 111.94 291.279 111.895C290.319 111.741 289.378 111.489 288.469 111.145" stroke="black" stroke-width="1.3" stroke-linecap="round" stroke-linejoin="round"/>
<path d="M291.938 81.4057V85.6557L270.378 84.6557L272.428 91.1357L266.708 93.1357L265.258 100.576C264.384 99.5963 263.182 98.9703 261.878 98.8157C259.618 98.4957 257.828 99.5957 258.198 102.646C258.568 105.696 260.248 109.436 262.508 110.536C263.066 110.871 263.696 111.07 264.346 111.117C264.996 111.164 265.647 111.057 266.248 110.806C266.248 110.806 265.558 115.956 262.088 116.806C262.088 116.806 261.938 115.226 258.728 110.336C256.588 107.086 253.728 102.836 251.128 98.3357C249.404 95.3929 248.426 92.0734 248.278 88.6661C248.129 85.2588 248.816 81.867 250.278 78.7857C252.865 73.5299 256.941 69.1515 261.998 66.1957V69.7057C261.998 69.7057 273.458 63.2757 291.428 66.8157L289.608 70.1157C289.608 70.1157 302.098 73.4957 301.188 86.4957L291.938 81.4057Z" fill="black" stroke="black" stroke-width="1.3" stroke-linecap="round" stroke-linejoin="round"/>
<path d="M260.148 74.4043C260.148 74.4043 250.668 79.7543 253.798 92.4043" stroke="white" stroke-width="1.3" stroke-linecap="round" stroke-linejoin="round"/>
<path d="M276.078 97.7954C278.694 95.5959 281.955 94.3076 285.368 94.1254V92.0254C285.368 92.0254 278.848 92.3254 276.078 97.7954Z" fill="black" stroke="black" stroke-width="1.3" stroke-linecap="round" stroke-linejoin="round"/>
<path d="M291.938 92.0254V94.0254C294.05 94.194 296.045 95.0633 297.607 96.4954C297.607 96.4954 296.997 93.0754 291.938 92.0254Z" fill="black" stroke="black" stroke-width="1.3" stroke-linecap="round" stroke-linejoin="round"/>
<path d="M283.198 101.112C283.309 100.079 282.923 99.1912 282.335 99.128C281.748 99.0648 281.181 99.8504 281.07 100.883C280.959 101.915 281.345 102.803 281.933 102.866C282.521 102.93 283.087 102.144 283.198 101.112Z" fill="black" stroke="black" stroke-width="1.3" stroke-linecap="round" stroke-linejoin="round"/>
<path d="M294.091 100.495C294.198 99.4954 293.827 98.6359 293.261 98.575C292.695 98.5142 292.15 99.275 292.042 100.274C291.935 101.274 292.306 102.133 292.872 102.194C293.437 102.255 293.983 101.494 294.091 100.495Z" fill="black" stroke="black" stroke-width="1.3" stroke-linecap="round" stroke-linejoin="round"/>
<path d="M289.998 114.324C289.7 114.677 289.485 115.091 289.367 115.538C289.25 115.984 289.233 116.451 289.318 116.904H285.998C285.998 116.904 287.598 114.324 289.998 114.324Z" fill="black" stroke="black" stroke-width="1.3" stroke-linecap="round" stroke-linejoin="round"/>
<path d="M260.998 101.734C260.998 101.734 263.358 102.444 264.298 106.154" stroke="black" stroke-width="1.3" stroke-linecap="round" stroke-linejoin="round"/>
<path d="M262.088 116.904C262.438 118.354 261.088 122.074 258.748 125.114" stroke="black" stroke-width="1.3" stroke-linecap="round" stroke-linejoin="round"/>
<path d="M252.088 113.494C254.172 119.323 257.626 124.567 262.158 128.784C269.938 136.244 275.498 140.344 282.008 140.344" stroke="black" stroke-width="1.3" stroke-linecap="round" stroke-linejoin="round"/>
<path d="M284.167 124.936L283.597 128.766C283.348 130.441 282.622 132.01 281.507 133.286L278.117 137.176" stroke="black" stroke-width="1.3" stroke-linecap="round" stroke-linejoin="round"/>
<path d="M285.997 125.244C286.916 129.264 287.517 133.35 287.797 137.464C287.909 138.876 287.683 140.294 287.139 141.601C286.595 142.908 285.748 144.067 284.667 144.982C283.587 145.898 282.304 146.543 280.926 146.865C279.547 147.187 278.111 147.176 276.737 146.834C268.847 144.834 257.557 140.504 245.347 131.054C245.347 131.054 231.967 135.054 227.867 145.524C223.767 155.994 224.317 154.944 222.957 159.174C221.597 163.404 236.607 176.234 251.077 175.174C251.077 175.174 245.427 191.614 241.827 202.234C238.227 212.854 243.627 211.054 242.977 218.234L242.317 225.104C242.317 225.104 250.677 225.484 256.317 224.454C262.667 223.294 263.227 225.664 263.227 225.664L272.897 220.304C274.145 219.617 275.612 219.442 276.987 219.814C277.723 220.011 278.5 219.994 279.227 219.764L280.227 219.444C280.972 219.204 281.771 219.183 282.528 219.383C283.285 219.583 283.968 219.997 284.497 220.574L287.337 223.694L289.587 223.574C290.655 223.518 291.711 223.821 292.587 224.434C293.848 225.33 295.251 226.006 296.737 226.434C297.231 225.584 297.943 224.881 298.799 224.398C299.655 223.915 300.624 223.668 301.607 223.684L299.857 214.564C299.285 211.583 299.36 208.514 300.077 205.564C301.947 197.954 305.507 181.954 305.777 169.774C305.777 169.774 319.707 160.364 316.507 150.574C313.307 140.784 311.097 132.494 302.057 129.634C293.017 126.774 285.997 125.244 285.997 125.244Z" fill="black" stroke="black" stroke-width="1.3" stroke-linecap="round" stroke-linejoin="round"/>
<path d="M245.378 131.054C244.406 130.387 243.593 129.512 242.998 128.494" stroke="black" stroke-width="1.3" stroke-linecap="round" stroke-linejoin="round"/>
<path d="M257.358 108.365C254.512 108.471 251.684 108.867 248.918 109.545C247.906 109.786 246.958 110.245 246.142 110.891C245.325 111.536 244.66 112.353 244.194 113.283C243.727 114.213 243.469 115.234 243.439 116.275C243.408 117.315 243.606 118.349 244.018 119.305C245.692 123.122 248.513 126.323 252.088 128.465" stroke="black" stroke-width="1.3" stroke-linecap="round" stroke-linejoin="round"/>
<path d="M240.637 133.004C240.637 133.004 237.997 126.554 242.987 122.004" stroke="black" stroke-width="1.3" stroke-linecap="round" stroke-linejoin="round"/>
<path d="M231.367 252.254C238.492 252.361 245.463 250.181 251.257 246.034H258.107C259.079 246.026 260.033 245.77 260.878 245.291C261.723 244.811 262.432 244.124 262.937 243.294C262.937 243.294 267.617 245.534 269.167 246.294C270.029 246.745 270.977 247.007 271.947 247.064C272.169 247.92 272.667 248.679 273.366 249.222C274.064 249.765 274.923 250.061 275.807 250.064H285.657C286.628 250.065 287.583 249.824 288.437 249.364L300.437 243.004C300.744 243.334 301.12 243.59 301.539 243.755C301.958 243.919 302.409 243.987 302.857 243.954C302.842 246.167 302.268 248.341 301.187 250.273C300.107 252.205 298.555 253.832 296.677 255.004C296.677 255.004 296.567 257.174 296.467 259.884C296.367 262.594 288.767 265.884 279.877 268.014C270.987 270.144 262.097 269.644 252.337 266.174C242.577 262.704 231.147 260.024 231.197 256.634C231.227 254.334 231.367 252.254 231.367 252.254Z" fill="black" stroke="black" stroke-width="1.3" stroke-linecap="round" stroke-linejoin="round"/>
<path d="M205.998 196.375C199.568 210.285 198.408 227.425 207.678 239.735C210.153 243.099 213.285 245.925 216.884 248.043C220.484 250.161 224.476 251.526 228.618 252.055" stroke="black" stroke-width="1.3" stroke-linecap="round" stroke-linejoin="round"/>
<path d="M222.998 159.174C218.881 170.881 213.744 182.204 207.648 193.014" stroke="black" stroke-width="1.3" stroke-linecap="round" stroke-linejoin="round"/>
<path d="M242.348 225.084C238.6 225.028 234.865 224.636 231.188 223.914" stroke="black" stroke-width="1.3" stroke-linecap="round" stroke-linejoin="round"/>
<path d="M217.148 231.884C222.558 225.237 230.253 220.847 238.728 219.574" stroke="black" stroke-width="1.3" stroke-linecap="round" stroke-linejoin="round"/>
<path d="M340.367 221.384C341.196 217.909 341.599 214.346 341.567 210.774C341.487 199.904 335.077 193.684 329.787 181.714C325.547 172.124 321.927 164.424 318.787 156.504" stroke="black" stroke-width="1.3" stroke-linecap="round" stroke-linejoin="round"/>
<path d="M302.848 243.996C306.368 244.156 314.498 240.716 314.498 240.716C314.498 240.716 325.648 242.156 331.698 237.086C334.645 234.55 336.913 231.319 338.298 227.686" stroke="black" stroke-width="1.3" stroke-linecap="round" stroke-linejoin="round"/>
<path d="M303.658 223.065C306.074 222.309 308.134 220.703 309.458 218.545C311.458 215.695 315.188 208.445 327.848 208.445" stroke="black" stroke-width="1.3" stroke-linecap="round" stroke-linejoin="round"/>
<path d="M318.799 201.195C318.799 201.195 310.599 209.495 311.999 214.985" stroke="black" stroke-width="1.3" stroke-linecap="round" stroke-linejoin="round"/>
<path d="M309.757 213.634C309.757 213.634 307.197 213.924 305.757 208.024C304.317 202.124 303.877 199.554 302.357 195.734" stroke="black" stroke-width="1.3" stroke-linecap="round" stroke-linejoin="round"/>
<path d="M310.148 223.494C310.148 223.494 317.588 228.064 315.328 238.164" stroke="black" stroke-width="1.3" stroke-linecap="round" stroke-linejoin="round"/>
<path d="M300.427 243.046C303.347 241.246 305.238 240.826 305.188 238.146C305.137 235.466 303.727 229.806 299.188 227.686" stroke="black" stroke-width="1.3" stroke-linecap="round" stroke-linejoin="round"/>
<path d="M253.848 224.785C250.168 225.065 246.058 232.655 250.248 243.995" stroke="black" stroke-width="1.3" stroke-linecap="round" stroke-linejoin="round"/>
<path d="M271.998 247.074C275.208 247.524 282.558 247.074 282.558 247.074" stroke="black" stroke-width="1.3" stroke-linecap="round" stroke-linejoin="round"/>
<path d="M262.938 243.295L262.798 243.235C262.447 243.075 262.168 242.793 262.011 242.441C261.855 242.089 261.832 241.693 261.948 241.325L262.118 240.775" stroke="black" stroke-width="1.3" stroke-linecap="round" stroke-linejoin="round"/>
<path d="M285.218 224.285C283.848 224.535 282.438 224.735 281.408 224.875C280.97 224.933 280.568 225.149 280.277 225.482C279.986 225.815 279.827 226.243 279.828 226.685V226.685C279.826 227.096 279.963 227.496 280.218 227.819C280.472 228.143 280.828 228.37 281.228 228.465C282.784 228.819 284.373 229.007 285.968 229.025C287.523 228.98 289.078 229.067 290.618 229.285C290.618 229.285 291.848 229.335 292.618 231.215C293.338 233.264 294.291 235.223 295.458 237.055C295.684 237.356 295.784 237.733 295.737 238.106C295.691 238.479 295.501 238.819 295.208 239.055L295.128 239.115C294.879 239.304 294.576 239.406 294.263 239.406C293.951 239.406 293.647 239.304 293.398 239.115C291.067 237.163 289.184 234.731 287.878 231.985" stroke="black" stroke-width="1.3" stroke-linecap="round" stroke-linejoin="round"/>
<path d="M263.269 225.645C258.419 228.505 255.199 234.885 260.159 241.085" stroke="black" stroke-width="1.3" stroke-linecap="round" stroke-linejoin="round"/>
<path d="M276.367 243.625H272.597C271.121 243.624 269.656 243.367 268.267 242.865L261.957 240.565C261.708 240.473 261.493 240.307 261.341 240.089C261.189 239.871 261.107 239.611 261.107 239.345V239.345C261.108 239.152 261.151 238.961 261.235 238.786C261.318 238.612 261.439 238.458 261.59 238.336C261.74 238.214 261.916 238.128 262.104 238.083C262.292 238.038 262.488 238.035 262.677 238.075L267.387 239.075C268.426 239.295 269.485 239.405 270.547 239.405V239.405C269.485 239.405 268.426 239.295 267.387 239.075L262.767 238.075C262.418 238.003 262.105 237.813 261.88 237.535C261.656 237.258 261.535 236.912 261.537 236.555V236.555C261.538 236.341 261.583 236.129 261.67 235.934C261.756 235.738 261.882 235.562 262.04 235.417C262.198 235.272 262.384 235.162 262.587 235.093C262.789 235.024 263.004 234.997 263.217 235.015L267.887 235.415H269.797" stroke="black" stroke-width="1.3" stroke-linecap="round" stroke-linejoin="round"/>
<path d="M283.889 228.906L284.569 229.906C285.566 231.372 286.344 232.975 286.879 234.666C287.461 236.504 288.19 238.294 289.059 240.016C289.19 240.261 289.264 240.533 289.275 240.812C289.287 241.09 289.234 241.367 289.123 241.622C289.011 241.877 288.843 242.104 288.631 242.285C288.419 242.465 288.168 242.596 287.899 242.666V242.666C287.487 242.774 287.051 242.74 286.66 242.57C286.27 242.399 285.949 242.102 285.749 241.726L281.659 234.046C281.16 233.103 280.545 232.226 279.829 231.436L275.299 226.436" stroke="black" stroke-width="1.3" stroke-linecap="round" stroke-linejoin="round"/>
<path d="M284.428 239.325L285.228 240.925C285.339 241.142 285.402 241.381 285.411 241.626C285.42 241.87 285.375 242.113 285.28 242.338C285.184 242.563 285.041 242.765 284.859 242.928C284.677 243.092 284.462 243.213 284.228 243.285C283.889 243.384 283.528 243.374 283.196 243.255C282.863 243.137 282.577 242.916 282.378 242.625L277.298 235.165C276.875 234.546 276.378 233.981 275.818 233.485L271.758 229.895" stroke="black" stroke-width="1.3" stroke-linecap="round" stroke-linejoin="round"/>
<path d="M267.418 232.715L270.418 234.455C271.454 235.063 272.391 235.825 273.198 236.715L278.088 242.175C278.316 242.429 278.618 242.605 278.951 242.681C279.284 242.756 279.633 242.726 279.948 242.595C280.174 242.501 280.376 242.357 280.54 242.176C280.703 241.994 280.824 241.778 280.894 241.543C280.964 241.309 280.981 241.061 280.944 240.82C280.906 240.578 280.815 240.347 280.678 240.145L280.118 239.325" stroke="black" stroke-width="1.3" stroke-linecap="round" stroke-linejoin="round"/>
<path d="M265.188 284.795C265.188 284.795 270.608 349.045 271.378 359.885C272.148 370.725 272.107 377.105 266.807 392.005" stroke="black" stroke-width="1.3" stroke-linecap="round" stroke-linejoin="round"/>
<path d="M271.588 372.215C273.998 381.485 278.048 384.385 278.048 384.385" stroke="black" stroke-width="1.3" stroke-linecap="round" stroke-linejoin="round"/>
<path d="M243.248 401.234C243.309 410.116 244.061 418.98 245.498 427.744C247.758 439.884 251.138 456.624 251.138 456.624" stroke="black" stroke-width="1.3" stroke-linecap="round" stroke-linejoin="round"/>
<path d="M273.857 279.105L279.577 276.805" stroke="black" stroke-width="1.3" stroke-linecap="round" stroke-linejoin="round"/>
<path d="M250.398 276.805L259.398 280.335C263.123 281.785 267.259 281.764 270.968 280.275" stroke="black" stroke-width="1.3" stroke-linecap="round" stroke-linejoin="round"/>
<path d="M248.748 467.795C250.068 473.685 249.288 476.795 252.058 477.465C254.828 478.135 262.388 476.765 271.058 472.625C279.728 468.485 280.778 466.195 280.058 459.725" stroke="black" stroke-width="1.3" stroke-linecap="round" stroke-linejoin="round"/>
<path d="M288.799 460.935C289.794 460.915 290.783 460.784 291.749 460.545" stroke="black" stroke-width="1.3" stroke-linecap="round" stroke-linejoin="round"/>
<path d="M274.768 458.334C276.508 457.264 277.198 456.754 277.198 456.754" stroke="black" stroke-width="1.3" stroke-linecap="round" stroke-linejoin="round"/>
<path d="M291.518 457.545C291.518 457.545 295.378 457.795 294.048 462.155C292.718 466.515 291.758 471.305 288.798 472.155C286.626 472.693 284.366 472.771 282.162 472.385C279.958 472 277.858 471.158 275.998 469.915" stroke="black" stroke-width="1.3" stroke-linecap="round" stroke-linejoin="round"/>
<path d="M272.998 487.885C276.118 488.885 277.808 491.405 278.488 495.715L279.178 500.025C282.449 504.181 285.436 508.555 288.118 513.115C289.433 515.408 291.321 517.32 293.598 518.665C295.626 519.845 297.558 521.182 299.378 522.665C300.046 523.205 300.586 523.887 300.958 524.662C301.33 525.437 301.524 526.285 301.528 527.145V527.935C301.528 531.535 295.778 534.865 288.658 534.865C281.538 534.865 275.988 531.995 270.248 527.145C264.508 522.295 261.138 519.725 256.588 518.045C252.038 516.365 247.588 513.095 248.468 507.845C249.157 504.469 249.654 501.057 249.958 497.625C250.051 495.814 250.685 494.072 251.778 492.625" stroke="black" stroke-width="1.3" stroke-linecap="round" stroke-linejoin="round"/>
<path d="M257.998 497.494L258.238 501.004" stroke="black" stroke-width="1.3" stroke-linecap="round" stroke-linejoin="round"/>
<path d="M279.129 500.024C279.129 500.024 272.759 499.234 264.469 502.924" stroke="black" stroke-width="1.3" stroke-linecap="round" stroke-linejoin="round"/>
<path d="M282.769 504.904C282.769 504.904 273.479 504.994 268.309 507.504" stroke="black" stroke-width="1.3" stroke-linecap="round" stroke-linejoin="round"/>
<path d="M286.189 510.016C286.189 510.016 277.789 510.316 272.309 513.016" stroke="black" stroke-width="1.3" stroke-linecap="round" stroke-linejoin="round"/>
<path d="M289.148 514.735C284.645 514.566 280.159 515.375 275.998 517.105" stroke="black" stroke-width="1.3" stroke-linecap="round" stroke-linejoin="round"/>
<path d="M285.148 481.435C290.468 480.825 291.558 485.215 291.818 491.785C291.818 491.785 297.928 497.785 303.208 504.095C304.373 505.498 305.839 506.619 307.498 507.375C309.698 508.375 312.858 509.765 315.178 510.715C319.098 512.325 318.958 514.945 318.958 516.805C318.958 518.665 314.698 520.585 306.158 520.585C303.865 520.591 301.575 520.387 299.318 519.975" stroke="black" stroke-width="1.3" stroke-linecap="round" stroke-linejoin="round"/>
<path d="M282.568 495.025C282.568 495.025 284.708 493.145 289.478 492.025" stroke="black" stroke-width="1.3" stroke-linecap="round" stroke-linejoin="round"/>
</svg>
