<svg width="130" height="124" viewBox="0 0 130 124" fill="none" xmlns="http://www.w3.org/2000/svg">
<path d="M2.19861 33.7093C1.1504 34.3693 0.40464 35.416 0.123093 36.6222C-0.158447 37.8285 0.0469284 39.0971 0.694664 40.153C4.88239 46.9726 9.1544 53.4811 13.4199 59.6395C35.3504 91.2226 56.9892 113.108 65.5851 121.334C66.6402 122.345 68.028 122.935 69.4879 122.995C70.9477 123.055 72.3791 122.579 73.5132 121.658L124.849 79.9494C124.849 79.9494 74.1874 33.1388 55.8094 0L24.6931 19.5644L2.19861 33.7093Z" fill="white"/>
<path d="M11.8481 43.2815C9.75479 37.7651 16.5268 30.0795 26.9738 26.1152C37.4208 22.151 47.5867 23.4092 49.68 28.9256C51.7733 34.442 45.0012 42.1276 34.5543 46.0919C24.1073 50.0561 13.9413 48.7979 11.8481 43.2815Z" fill="#C882FF"/>
<path d="M21.6136 21.4897L51.6992 2.59302C52.2278 2.26212 52.817 2.0396 53.4324 1.93838C54.0478 1.83717 54.6772 1.85928 55.284 2.00344C55.8908 2.1476 56.4629 2.41092 56.967 2.77812C57.4712 3.14531 57.8973 3.60904 58.2206 4.14236C73.8825 29.7679 105.848 61.7269 118.995 74.4003L117.355 85.9458L72.5925 121.768C71.7133 122.473 70.6099 122.838 69.484 122.796C68.3581 122.754 67.2847 122.309 66.46 121.541C58.5448 114.164 36.1475 92.1885 13.4391 59.6006" stroke="black" stroke-linecap="round" stroke-linejoin="round"/>
<path d="M18.8993 38.901L19.3339 40.0681L22.3527 38.5454L21.8784 37.2815L18.8993 38.901Z" fill="black"/>
<path d="M20.3659 39.7645L21.8632 43.764L23.0164 43.3338L21.4753 39.2144L20.3659 39.7645Z" fill="black"/>
<path d="M22.2855 37.0593L24.4325 42.8025L25.6503 42.3458L23.4327 36.4365L22.2855 37.0593Z" fill="black"/>
<path d="M23.6458 36.3205L24.1466 37.6399L25.8248 36.792L25.3065 35.4173L23.6458 36.3205Z" fill="black"/>
<path d="M24.5106 38.6227L25.0156 39.9651L26.1424 39.4703L25.6241 38.0956L24.5106 38.6227Z" fill="black"/>
<path d="M25.3755 40.9336L25.8717 42.2575L27.6292 41.6035L27.1064 40.2241L25.3755 40.9336Z" fill="black"/>
<path d="M29.6038 33.0816L32.1639 39.9043L33.7508 39.307L31.1119 32.2629L29.6038 33.0816Z" fill="black"/>
<path d="M31.3939 32.1071L31.9824 33.6756L34.206 32.5524L33.5913 30.9102L31.3939 32.1071Z" fill="black"/>
<path d="M32.4218 34.8563L33.0234 36.457L34.5105 35.8031L33.8957 34.1608L32.4218 34.8563Z" fill="black"/>
<path d="M33.4579 37.6242L34.0508 39.1973L36.3666 38.3278L35.7519 36.6855L33.4579 37.6242Z" fill="black"/>
<path d="M25.7508 35.1769L28.0911 41.4275L29.475 40.9094L27.0645 34.4651L25.7508 35.1769Z" fill="black"/>
<path d="M29.1931 39.3691L29.7331 40.813L31.7398 40.0622L31.1778 38.5584L29.1931 39.3691Z" fill="black"/>
<path d="M38.769 28.8776C38.4024 28.7406 38.0095 28.6884 37.6199 28.7248C37.2303 28.7612 36.8539 28.8854 36.5191 29.088L37.1688 30.8316C37.3007 30.7563 37.4528 30.7242 37.6039 30.7398C37.755 30.7555 37.8973 30.8181 38.0109 30.9189C38.3264 31.245 38.3663 31.8829 38.1344 32.6034C37.745 33.6927 36.5183 36.0793 36.5183 36.0793L39.1311 34.9855C40.1624 32.779 40.3743 31.6089 40.0468 30.3382C39.9603 30.0129 39.8001 29.712 39.5784 29.4587C39.3568 29.2054 39.0798 29.0065 38.769 28.8776Z" fill="black"/>
<path d="M36.2642 36.4786L36.8832 38.1347L42.2989 36.1061L41.6184 34.284L36.2642 36.4786Z" fill="black"/>
<path d="M36.2092 29.2526C34.7635 30.1823 34.4233 31.6299 35.2225 33.4815L36.8444 32.706C36.3666 31.662 36.5973 31.2945 36.8768 31.024L36.2092 29.2526Z" fill="black"/>
<path d="M66.9332 106.314L82.057 94.7815C82.2039 94.6698 82.3253 94.528 82.413 94.3656C82.5008 94.2033 82.5528 94.024 82.5657 93.8399C82.5786 93.6558 82.552 93.4711 82.4878 93.2981C82.4235 93.1251 82.3231 92.9678 82.1932 92.8367L74.7253 84.4677C74.4717 84.1766 74.1189 83.9902 73.7355 83.9446C73.3522 83.8991 72.9655 83.9978 72.6508 84.2214L57.5335 95.7539C57.3866 95.8656 57.2652 96.0073 57.1775 96.1697C57.0898 96.3321 57.0378 96.5113 57.0249 96.6954C57.012 96.8795 57.0385 97.0642 57.1028 97.2372C57.167 97.4103 57.2675 97.5676 57.3974 97.6986L64.8588 106.074C65.1141 106.363 65.4671 106.547 65.8501 106.592C66.233 106.636 66.6188 106.537 66.9332 106.314Z" fill="#FF59A3"/>
<path d="M67.2576 103.922L82.3749 92.3894C82.5218 92.2777 82.6432 92.136 82.7309 91.9736C82.8186 91.8112 82.8707 91.632 82.8836 91.4479C82.8964 91.2638 82.8699 91.0791 82.8056 90.9061C82.7414 90.733 82.641 90.5757 82.511 90.4447L75.0496 82.0692C74.7944 81.7803 74.4413 81.596 74.0584 81.5518C73.6754 81.5075 73.2896 81.6064 72.9752 81.8293L57.8514 93.3618C57.7045 93.4735 57.5831 93.6153 57.4954 93.7777C57.4077 93.94 57.3556 94.1193 57.3427 94.3034C57.3299 94.4875 57.3564 94.6722 57.4207 94.8452C57.4849 95.0182 57.5853 95.1755 57.7153 95.3066L65.1832 103.682C65.4384 103.971 65.7915 104.155 66.1744 104.199C66.5573 104.244 66.9431 104.145 67.2576 103.922V103.922Z" stroke="black" stroke-linecap="round" stroke-linejoin="round"/>
<path d="M75.3021 104.979L82.3228 99.0859L77.9989 95.7344L72.3461 100.039L75.3021 104.979Z" stroke="black" stroke-linecap="round" stroke-linejoin="round"/>
<path d="M85.5254 96.642L72.3464 107.39" stroke="black" stroke-linecap="round" stroke-linejoin="round"/>
<path d="M52.6002 37.9943C53.3682 36.8731 54.5457 36.0982 55.8793 35.8363C57.2129 35.5745 58.596 35.8465 59.731 36.594L61.6757 37.8906L62.9723 35.9458C63.3511 35.3797 63.8377 34.8937 64.4043 34.5157C64.971 34.1376 65.6065 33.8749 66.2747 33.7424C66.9429 33.61 67.6306 33.6105 68.2986 33.7438C68.9666 33.8772 69.6018 34.1408 70.1679 34.5196C70.734 34.8985 71.22 35.3851 71.598 35.9517C71.9761 36.5183 72.2388 37.1539 72.3712 37.8221C72.5037 38.4903 72.5032 39.178 72.3699 39.846C72.2365 40.514 71.9729 41.1491 71.5941 41.7153L64.5216 52.23L54.0004 45.1575C52.8702 44.389 52.089 43.2053 51.8268 41.8639C51.5646 40.5225 51.8425 39.1318 52.6002 37.9943Z" fill="#57D6FF"/>
<path d="M53.2551 35.6541C54.0165 34.5246 55.1946 33.7431 56.5312 33.4806C57.8678 33.2182 59.254 33.4962 60.3859 34.2538L62.3307 35.5504L63.6272 33.6056C64.4242 32.5497 65.5945 31.8383 66.8988 31.6169C68.203 31.3955 69.5426 31.681 70.6433 32.4148C71.744 33.1486 72.5227 34.2753 72.82 35.5644C73.1173 36.8534 72.9107 38.2074 72.2425 39.3491L65.1701 49.8703L54.6554 42.7849C53.5259 42.0235 52.7444 40.8454 52.4819 39.5088C52.2194 38.1722 52.4975 36.7861 53.2551 35.6541V35.6541Z" stroke="black" stroke-linecap="round" stroke-linejoin="round"/>
<path d="M86.8413 78.3871C81.335 78.3871 76.8712 73.9233 76.8712 68.4169C76.8712 62.9105 81.335 58.4467 86.8413 58.4467C92.3477 58.4467 96.8115 62.9105 96.8115 68.4169C96.8115 73.9233 92.3477 78.3871 86.8413 78.3871Z" fill="#C882FF"/>
<path d="M92.5264 79.8457L84.501 65.7461L84.9872 81.9655" stroke="black" stroke-linecap="round" stroke-linejoin="round"/>
<path d="M85.2722 80.8116L90.9639 77.1036L84.786 75.256L88.5135 72.7991L84.6693 71.5545" stroke="black" stroke-linecap="round" stroke-linejoin="round"/>
<path d="M83.6128 64.0671C82.7965 64.0671 82.1348 63.4054 82.1348 62.5891C82.1348 61.7728 82.7965 61.1111 83.6128 61.1111C84.4291 61.1111 85.0908 61.7728 85.0908 62.5891C85.0908 63.4054 84.4291 64.0671 83.6128 64.0671Z" stroke="black" stroke-linecap="round" stroke-linejoin="round"/>
<path d="M73.7919 59.4386C72.7489 61.299 72.4874 63.4974 73.0648 65.5506C73.6422 67.6037 75.0113 69.3436 76.8711 70.3876" stroke="black" stroke-linecap="round" stroke-linejoin="round"/>
<path d="M76.3397 60.1971C75.9512 60.8883 75.7028 61.6492 75.6086 62.4365C75.5143 63.2237 75.5761 64.0218 75.7905 64.7852C76.0048 65.5485 76.3674 66.2622 76.8576 66.8853C77.3478 67.5085 77.956 68.0289 78.6475 68.4169" stroke="black" stroke-linecap="round" stroke-linejoin="round"/>
<path d="M79.0559 62.3881C78.7945 62.8534 78.7282 63.4033 78.8716 63.9173C79.015 64.4313 79.3564 64.8675 79.8208 65.1303" stroke="black" stroke-linecap="round" stroke-linejoin="round"/>
<path d="M79.0559 62.3881C78.7945 62.8534 78.7282 63.4033 78.8716 63.9173C79.015 64.4313 79.3564 64.8675 79.8208 65.1303" stroke="black" stroke-linecap="round" stroke-linejoin="round"/>
<path d="M93.4277 65.7396C93.9452 64.8182 94.276 63.8038 94.4013 62.7544C94.5266 61.7051 94.4439 60.6413 94.1579 59.6239C93.872 58.6065 93.3884 57.6555 92.7347 56.825C92.0811 55.9946 91.2703 55.3011 90.3485 54.7841" stroke="black" stroke-linecap="round" stroke-linejoin="round"/>
<path d="M90.8866 64.9747C91.669 63.5793 91.8654 61.9304 91.4327 60.3903C91 58.8502 89.9735 57.5449 88.5788 56.7613" stroke="black" stroke-linecap="round" stroke-linejoin="round"/>
<path d="M88.1639 62.7836C88.425 62.3193 88.4911 61.7704 88.3476 61.2575C88.2042 60.7445 87.863 60.3095 87.399 60.0479" stroke="black" stroke-linecap="round" stroke-linejoin="round"/>
<path d="M88.1639 62.7836C88.425 62.3193 88.4911 61.7704 88.3476 61.2575C88.2042 60.7445 87.863 60.3095 87.399 60.0479" stroke="black" stroke-linecap="round" stroke-linejoin="round"/>
<path d="M42.2901 56.0713L51.6905 52.5041C52.5574 52.1752 53.5269 52.6113 53.8559 53.4782L61.7859 74.3761C62.1149 75.243 61.6788 76.2126 60.8118 76.5415L51.4114 80.1087C50.5445 80.4376 49.575 80.0015 49.246 79.1346L41.316 58.2367C40.987 57.3697 41.4231 56.4002 42.2901 56.0713Z" stroke="black" stroke-linecap="round" stroke-linejoin="round"/>
<path d="M41.9171 59.821L54.457 55.0626L60.5954 71.239L48.0555 75.9975L41.9171 59.821Z" stroke="black" stroke-linecap="round" stroke-linejoin="round"/>
<path d="M56.1401 75.5089L54.325 76.2284" stroke="black" stroke-linecap="round" stroke-linejoin="round"/>
<path d="M35.7201 65.422C34.6768 67.2834 34.4151 69.4828 34.9925 71.537C35.5699 73.5912 36.9391 75.3322 38.7993 76.3775" stroke="black" stroke-linecap="round" stroke-linejoin="round"/>
<path d="M38.2674 66.1869C37.8791 66.8776 37.6308 67.6381 37.5367 68.4249C37.4425 69.2116 37.5044 70.0092 37.7187 70.772C37.933 71.5349 38.2957 72.2479 38.7858 72.8705C39.2759 73.4931 39.884 74.0129 40.5752 74.4003" stroke="black" stroke-linecap="round" stroke-linejoin="round"/>
<path d="M40.9835 68.378C40.8553 68.6095 40.774 68.8639 40.7444 69.1269C40.7148 69.3898 40.7373 69.6559 40.8108 69.9101C40.8843 70.1643 41.0072 70.4014 41.1726 70.608C41.338 70.8145 41.5425 70.9864 41.7744 71.1137" stroke="black" stroke-linecap="round" stroke-linejoin="round"/>
<path d="M40.9835 68.378C40.8553 68.6095 40.774 68.8639 40.7444 69.1269C40.7148 69.3898 40.7373 69.6559 40.8108 69.9101C40.8843 70.1643 41.0072 70.4014 41.1726 70.608C41.338 70.8145 41.5425 70.9864 41.7744 71.1137" stroke="black" stroke-linecap="round" stroke-linejoin="round"/>
<path d="M114.431 50.564H114.548C114.713 50.554 114.868 50.4814 114.981 50.3609C115.094 50.2404 115.157 50.0811 115.157 49.9157C115.187 47.3701 116.177 44.9296 117.927 43.0814C119.678 41.2333 122.062 40.1134 124.602 39.9455C124.774 39.9344 124.934 39.8553 125.048 39.7259C125.162 39.5964 125.219 39.4271 125.208 39.2551C125.197 39.0832 125.118 38.9228 124.988 38.8091C124.859 38.6954 124.69 38.6378 124.518 38.649C123.2 38.7366 121.878 38.5625 120.628 38.1369C119.373 37.7177 118.213 37.0571 117.212 36.1921C116.206 35.3195 115.384 34.255 114.794 33.061C114.206 31.8699 113.858 30.5747 113.77 29.2493C113.768 29.1619 113.749 29.0757 113.713 28.9959C113.677 28.9162 113.626 28.8444 113.562 28.7851C113.497 28.7258 113.422 28.68 113.339 28.6506C113.257 28.6212 113.17 28.6088 113.082 28.614C112.919 28.6255 112.765 28.6989 112.653 28.8192C112.541 28.9396 112.479 29.0979 112.48 29.2623V29.3076C112.561 30.6255 112.385 31.9467 111.961 33.1972C111.32 35.0922 110.132 36.7546 108.547 37.9743C106.961 39.194 105.05 39.9161 103.054 40.0492C102.882 40.0604 102.722 40.1394 102.608 40.2689C102.494 40.3984 102.437 40.5677 102.448 40.7396C102.459 40.9116 102.538 41.072 102.668 41.1857C102.797 41.2994 102.966 41.3569 103.138 41.3458C105.682 41.1823 108.194 41.9869 110.169 43.598C112.145 45.2091 113.438 47.5076 113.789 50.0324C113.817 50.1823 113.896 50.3177 114.013 50.415C114.131 50.5122 114.278 50.5649 114.431 50.564ZM120.777 39.5436C119.213 40.2223 117.819 41.2412 116.697 42.5263C115.576 43.8114 114.755 45.3304 114.295 46.9726C113.627 45.3975 112.613 43.9932 111.328 42.8641C110.043 41.735 108.52 40.9102 106.872 40.4512C107.06 40.3734 107.242 40.2826 107.423 40.1983C108.769 39.5349 109.971 38.6143 110.963 37.4886C111.952 36.3628 112.708 35.0517 113.186 33.6315C113.258 33.437 113.316 33.2426 113.374 33.0416C113.452 33.2296 113.536 33.4176 113.627 33.5991C114.972 36.317 117.341 38.3898 120.213 39.3621C120.382 39.4269 120.583 39.4917 120.777 39.5436Z" fill="black"/>
<path d="M95.2426 32.6915C93.7246 32.6915 92.494 31.461 92.494 29.9429C92.494 28.4249 93.7246 27.1943 95.2426 27.1943C96.7606 27.1943 97.9912 28.4249 97.9912 29.9429C97.9912 31.461 96.7606 32.6915 95.2426 32.6915Z" stroke="black" stroke-linecap="round" stroke-linejoin="round"/>
<path d="M117.05 64.2486C115.559 62.7771 114.14 61.2926 112.927 59.9053" stroke="black" stroke-linecap="round" stroke-linejoin="round"/>
<path d="M129.289 75.3209C129.289 75.3209 126.164 72.7278 122.372 69.2791" stroke="black" stroke-linecap="round" stroke-linejoin="round"/>
<path d="M115.066 77.3564L118.995 74.4003L117.355 85.9458L114.865 83.813C114.394 83.41 114.02 82.9064 113.769 82.3393C113.519 81.7722 113.398 81.1562 113.418 80.5365C113.437 79.9169 113.595 79.3095 113.88 78.7591C114.166 78.2087 114.571 77.7293 115.066 77.3564V77.3564Z" stroke="black" stroke-linecap="round" stroke-linejoin="round"/>
</svg>
