<svg width="37" height="111" viewBox="0 0 37 111" fill="none" xmlns="http://www.w3.org/2000/svg">
<path d="M37 1.16011e-06L37 11.0488C23.4202 11.0488 23.3218 17.1871 23.3218 34.6811L23.3218 42.9677C23.3218 48.3899 22.9282 54.5281 15.4495 56.2673L15.4495 56.7788C23.125 58.6203 23.2234 64.3493 23.2234 71.5106L23.2234 82.5594C23.2234 97.0866 23.4202 99.9512 37 99.9511L37 111C15.6463 111 8.85639 106.703 8.85638 89.6184L8.85638 75.3981C8.85638 68.1346 7.57712 64.3493 -8.44287e-06 62.7124L-1.06072e-05 50.3336C7.67553 49.6175 8.95478 42.9677 8.95478 38.9779L8.95478 26.5991C8.95477 5.0129 15.7447 4.87651e-06 37 1.16011e-06Z" fill="#00B5EF"/>
</svg>
