<svg width="28" height="84" viewBox="0 0 28 84" fill="none" xmlns="http://www.w3.org/2000/svg">
<path d="M2.85881e-07 84L1.01685e-06 75.6387C10.2766 75.6387 10.3511 70.9936 10.3511 57.7548L10.3511 51.4839C10.3511 47.3806 10.6489 42.7355 16.3085 41.4194L16.3085 41.0323C10.5 39.6387 10.4255 35.3032 10.4255 29.8839L10.4255 21.5226C10.4255 10.529 10.2766 8.36129 6.89843e-06 8.36129L7.62939e-06 -2.44784e-06C16.1596 -1.03512e-06 21.2979 3.25161 21.2979 16.1806L21.2979 26.9419C21.2979 32.4387 22.266 35.3032 28 36.5419L28 45.9097C22.1915 46.4516 21.2234 51.4839 21.2234 54.5032L21.2234 63.871C21.2234 80.2065 16.0851 84 2.85881e-07 84Z" fill="#00B5EF"/>
</svg>
