<svg width="37" height="111" viewBox="0 0 37 111" fill="none" xmlns="http://www.w3.org/2000/svg">
<path d="M-9.36956e-06 111L-1.03355e-05 99.9512C13.5798 99.9512 13.6782 93.8129 13.6782 76.3189L13.6782 68.0323C13.6782 62.6101 14.0718 56.4719 21.5505 54.7327L21.5505 54.2212C13.875 52.3797 13.7766 46.6507 13.7766 39.4894L13.7766 28.4406C13.7766 13.9134 13.5798 11.0488 -1.81076e-05 11.0488L-1.90735e-05 3.23464e-06C21.3537 1.36784e-06 28.1436 4.29677 28.1436 21.3816L28.1436 35.6018C28.1436 42.8654 29.4229 46.6507 37 48.2876L37 60.6664C29.3245 61.3825 28.0452 68.0323 28.0452 72.0221L28.0452 84.4009C28.0452 105.987 21.2553 111 -9.36956e-06 111Z" fill="#00B5EF"/>
</svg>
