<svg width="496" height="497" viewBox="0 0 496 497" fill="none" xmlns="http://www.w3.org/2000/svg">
<path d="M27.1439 76.2979V76.6842L26.8046 76.8689C20.9286 80.067 15.754 84.4006 11.5844 89.6153C7.41489 94.83 4.33438 100.821 2.52344 107.236C0.712524 113.651 0.207672 120.361 1.03848 126.973C1.86932 133.584 4.01907 139.965 7.36176 145.739C10.7045 151.513 15.1728 156.565 20.5046 160.597C25.8365 164.63 31.9243 167.563 38.4111 169.223C44.8978 170.883 51.6525 171.237 58.2787 170.265C64.9049 169.292 71.269 167.013 76.9974 163.56L77.7228 163.122L77.9575 163.936C78.7715 166.759 80.2155 169.362 82.1821 171.552C84.1486 173.742 86.5869 175.462 89.3153 176.584C92.0438 177.706 94.9917 178.201 97.9392 178.031C100.887 177.861 103.758 177.032 106.338 175.604L107.15 175.154L107.294 176.072C108.209 181.888 110.485 187.41 113.939 192.191C117.393 196.972 121.928 200.879 127.178 203.596C132.429 206.313 138.248 207.764 144.166 207.833C150.084 207.901 155.935 206.584 161.248 203.989L161.583 203.825L161.893 204.032C169.214 208.901 177.501 212.15 186.194 213.556C194.886 214.963 203.781 214.496 212.276 212.186C220.771 209.876 228.668 205.777 235.433 200.167C242.197 194.558 247.672 187.568 251.486 179.671L251.682 179.265L252.131 179.306C253.733 179.454 255.333 179.536 256.982 179.536C268.665 179.537 280.003 175.593 289.141 168.35C298.279 161.108 304.676 150.995 307.288 139.666L307.366 139.328L307.691 139.205C317.082 135.645 324.921 128.922 329.844 120.206C334.766 111.49 336.461 101.332 334.634 91.5015C332.806 81.6708 327.572 72.7881 319.842 66.4C312.111 60.0118 302.373 56.5228 292.323 56.5409H292.322C291.941 56.5409 291.56 56.5569 291.164 56.5736L291.155 56.574C290.767 56.5904 290.364 56.6074 289.959 56.6074H289.364L289.311 56.0148C288.458 46.3984 284.501 37.3144 278.029 30.1208C271.557 22.9272 262.919 18.0103 253.405 16.1058C243.892 14.2013 234.014 15.4116 225.249 19.5557C216.485 23.6997 209.304 30.5546 204.78 39.0952L203.837 40.8754L203.561 38.8797C203.177 36.0945 202.061 33.4593 200.324 31.2407C198.588 29.022 196.293 27.2986 193.672 26.245C191.051 25.1914 188.197 24.8451 185.398 25.2413C182.599 25.6375 179.955 26.7621 177.733 28.501L177.18 28.9343L176.791 28.3484C169.817 17.8358 159.775 9.69956 148.015 5.03461C136.255 0.369646 123.34 -0.600102 111.009 2.25591C98.6784 5.11192 87.5226 11.6566 79.0422 21.009C70.5619 30.3615 65.1635 42.0731 63.5728 54.5688L63.4536 55.505L62.6214 55.0598C58.9539 53.0981 54.8375 52.1162 50.6744 52.2101C46.5112 52.3041 42.4438 53.4707 38.8695 55.5958C35.2952 57.7209 32.3362 60.7317 30.2812 64.334C28.2262 67.9362 27.1454 72.0069 27.1439 76.1484V76.2979Z" fill="white" stroke="black" stroke-width="1.3"/>
<path d="M353.066 295.266H405.916L435.836 237.686C436.224 236.959 436.416 236.144 436.395 235.32C436.373 234.497 436.138 233.693 435.713 232.988C435.288 232.283 434.687 231.7 433.969 231.296C433.251 230.892 432.44 230.682 431.616 230.686H390.076C389.031 230.686 388.005 230.974 387.111 231.517C386.217 232.06 385.489 232.838 385.006 233.766" fill="white"/>
<path d="M383.747 236.245L353.067 295.245H310.067C309.392 295.238 308.738 295.016 308.198 294.611C307.659 294.207 307.262 293.64 307.067 292.995L306.547 291.285H349.547L379.427 233.785C379.909 232.857 380.637 232.079 381.531 231.536C382.425 230.993 383.451 230.706 384.497 230.705H390.137C389.091 230.706 388.065 230.993 387.171 231.536C386.277 232.079 385.549 232.857 385.067 233.785" fill="white"/>
<path d="M353.066 295.266H405.916L435.836 237.686C436.224 236.959 436.416 236.144 436.395 235.32C436.373 234.497 436.138 233.693 435.713 232.988C435.288 232.283 434.687 231.7 433.969 231.296C433.251 230.892 432.44 230.682 431.616 230.686H390.076C389.031 230.686 388.005 230.974 387.111 231.517C386.217 232.06 385.489 232.838 385.006 233.766" stroke="black" stroke-width="1.3" stroke-linecap="round" stroke-linejoin="round"/>
<path d="M383.747 236.245L353.067 295.245H310.067C309.392 295.238 308.738 295.016 308.198 294.611C307.659 294.207 307.262 293.64 307.067 292.995L306.547 291.285H349.547L379.427 233.785C379.909 232.857 380.637 232.079 381.531 231.536C382.425 230.993 383.451 230.706 384.497 230.705H390.137C389.091 230.706 388.065 230.993 387.171 231.536C386.277 232.079 385.549 232.857 385.067 233.785" stroke="black" stroke-width="1.3" stroke-linecap="round" stroke-linejoin="round"/>
<path d="M402.117 257.035C403.427 259.095 403.297 262.725 401.587 266.205C399.387 270.675 395.407 273.205 392.707 271.885C390.477 270.785 389.807 267.435 390.847 263.795" stroke="black" stroke-width="1.3" stroke-linecap="round" stroke-linejoin="round"/>
<path d="M391.776 261.385C393.976 256.915 397.956 254.385 400.666 255.705" stroke="black" stroke-width="1.3" stroke-linecap="round" stroke-linejoin="round"/>
<path d="M286.396 470.075C281.923 470.075 278.296 466.449 278.296 461.975C278.296 457.501 281.923 453.875 286.396 453.875C290.87 453.875 294.496 457.501 294.496 461.975C294.496 466.449 290.87 470.075 286.396 470.075Z" fill="black"/>
<path d="M286.396 470.075C281.923 470.075 278.296 466.449 278.296 461.975C278.296 457.501 281.923 453.875 286.396 453.875C290.87 453.875 294.496 457.501 294.496 461.975C294.496 466.449 290.87 470.075 286.396 470.075Z" stroke="white" stroke-width="1.3" stroke-linecap="round" stroke-linejoin="round"/>
<path d="M331.726 464.366C327.253 464.366 323.626 460.74 323.626 456.266C323.626 451.793 327.253 448.166 331.726 448.166C336.2 448.166 339.826 451.793 339.826 456.266C339.826 460.74 336.2 464.366 331.726 464.366Z" fill="black"/>
<path d="M327.968 463.445C326.208 462.527 324.845 460.997 324.136 459.143C323.428 457.289 323.423 455.24 324.123 453.382C324.823 451.525 326.179 449.988 327.934 449.062C329.69 448.137 331.724 447.886 333.652 448.358C335.58 448.829 337.268 449.991 338.398 451.623C339.528 453.254 340.021 455.244 339.784 457.214C339.547 459.185 338.596 461 337.112 462.318C335.628 463.635 333.712 464.364 331.728 464.365" stroke="white" stroke-width="1.3" stroke-linecap="round" stroke-linejoin="round"/>
<path d="M240.707 464.366C236.233 464.366 232.607 460.74 232.607 456.266C232.607 451.793 236.233 448.166 240.707 448.166C245.18 448.166 248.807 451.793 248.807 456.266C248.807 460.74 245.18 464.366 240.707 464.366Z" fill="black"/>
<path d="M248.816 456.264C248.816 457.868 248.341 459.436 247.45 460.77C246.559 462.104 245.292 463.143 243.81 463.757C242.328 464.371 240.697 464.531 239.124 464.218C237.551 463.906 236.106 463.133 234.972 461.999C233.838 460.865 233.065 459.42 232.752 457.846C232.439 456.273 232.6 454.643 233.214 453.161C233.828 451.679 234.867 450.412 236.201 449.521C237.534 448.63 239.102 448.154 240.706 448.154" stroke="white" stroke-width="1.3" stroke-linecap="round" stroke-linejoin="round"/>
<path d="M281.646 396.365H291.146V426.155H281.646V396.365Z" fill="black"/>
<path d="M291.146 422.075V396.365H281.646V426.155H291.146" stroke="white" stroke-width="1.3" stroke-linecap="round" stroke-linejoin="round"/>
<path d="M238.868 387.555H333.928V396.495H238.868V387.555Z" fill="#02B9F6"/>
<path d="M238.868 387.555H333.928V396.495H238.868V387.555Z" stroke="black" stroke-width="1.3" stroke-linecap="round" stroke-linejoin="round"/>
<path d="M274.438 249.895H207.508C206.322 249.894 205.153 250.171 204.094 250.703C203.034 251.236 202.114 252.008 201.407 252.959C200.699 253.911 200.224 255.014 200.02 256.182C199.815 257.35 199.886 258.549 200.228 259.685L238.868 387.575H333.928V371.025C333.928 368.306 332.848 365.699 330.926 363.777C329.003 361.854 326.396 360.775 323.678 360.775H298.968L286.908 260.955C286.539 257.906 285.067 255.098 282.77 253.06C280.472 251.023 277.508 249.897 274.438 249.895Z" fill="black"/>
<path d="M216.608 314.035L238.868 387.575H333.928V371.025C333.928 368.306 332.848 365.699 330.926 363.777C329.003 361.854 326.396 360.775 323.678 360.775H298.968L286.908 260.955C286.539 257.906 285.067 255.098 282.77 253.06C280.472 251.023 277.508 249.897 274.438 249.895H207.508C206.322 249.894 205.153 250.171 204.094 250.703C203.034 251.236 202.114 252.008 201.407 252.959C200.699 253.911 200.224 255.014 200.02 256.182C199.815 257.35 199.886 258.549 200.228 259.685L215.278 309.475" stroke="white" stroke-width="1.3" stroke-linecap="round" stroke-linejoin="round"/>
<path d="M298.967 360.775H256.917C248.687 360.775 244.627 365.865 244.627 371.995" stroke="white" stroke-width="1.3" stroke-linecap="round" stroke-linejoin="round"/>
<path d="M263.607 363.574C263.607 363.574 260.027 365.874 260.027 372.004V387.574" stroke="white" stroke-width="1.3" stroke-linecap="round" stroke-linejoin="round"/>
<path d="M238.867 339.575C238.867 339.575 217.037 264.635 214.957 258.725C212.877 252.815 211.767 249.895 207.507 249.895" stroke="white" stroke-width="1.3" stroke-linecap="round" stroke-linejoin="round"/>
<path d="M232.357 448.396C233.288 446.211 234.789 444.315 236.703 442.908C238.617 441.501 240.873 440.633 243.237 440.396L271.517 437.536L276.907 426.176H295.907L301.297 437.536L329.577 440.396C331.94 440.633 334.197 441.501 336.11 442.908C338.024 444.315 339.525 446.211 340.457 448.396L341.807 451.576H230.987L232.357 448.396Z" fill="#02B9F6"/>
<path d="M232.357 448.396C233.288 446.211 234.789 444.315 236.703 442.908C238.617 441.501 240.873 440.633 243.237 440.396L271.517 437.536L276.907 426.176H295.907L301.297 437.536L329.577 440.396C331.94 440.633 334.197 441.501 336.11 442.908C338.024 444.315 339.525 446.211 340.457 448.396L341.807 451.576H230.987L232.357 448.396Z" stroke="black" stroke-width="1.3" stroke-linecap="round" stroke-linejoin="round"/>
<path d="M301.277 437.516L295.877 437.096" stroke="black" stroke-width="1.3" stroke-linecap="round" stroke-linejoin="round"/>
<path d="M286.397 439.336C287.928 439.336 289.409 439.876 290.581 440.859C291.754 441.843 292.542 443.209 292.807 444.716L294.857 456.266H277.937L279.987 444.716C280.253 443.209 281.041 441.843 282.213 440.859C283.386 439.876 284.867 439.336 286.397 439.336Z" fill="#02B9F6"/>
<path d="M279.987 444.716C280.253 443.209 281.041 441.843 282.213 440.859C283.386 439.876 284.867 439.336 286.397 439.336V439.336C287.928 439.336 289.409 439.876 290.581 440.859C291.754 441.843 292.542 443.209 292.807 444.716L294.857 456.266H277.937L279.437 447.796" stroke="black" stroke-width="1.3" stroke-linecap="round" stroke-linejoin="round"/>
<path d="M178.056 173.185C177.279 172.148 176.151 171.427 174.883 171.157C173.614 170.887 172.291 171.085 171.158 171.717C170.025 172.348 169.159 173.368 168.721 174.589C168.283 175.81 168.303 177.148 168.776 178.355L122.086 223.025C121.319 222.574 120.458 222.305 119.57 222.241C118.681 222.176 117.79 222.317 116.966 222.653C116.141 222.989 115.405 223.51 114.815 224.177C114.224 224.844 113.796 225.638 113.562 226.497C113.329 227.356 113.297 228.258 113.468 229.131C113.64 230.005 114.011 230.828 114.552 231.535C115.093 232.242 115.79 232.814 116.589 233.208C117.387 233.602 118.266 233.806 119.156 233.805C120.504 233.808 121.81 233.338 122.846 232.475L171.846 266.305C172.107 266.489 172.418 266.586 172.736 266.585C173.073 266.586 173.402 266.479 173.673 266.279C173.945 266.08 174.146 265.798 174.246 265.477C174.347 265.155 174.342 264.81 174.232 264.491C174.122 264.172 173.914 263.897 173.636 263.705L124.636 229.885C124.891 229.138 124.99 228.346 124.928 227.558C124.866 226.771 124.644 226.004 124.276 225.305L174.216 177.515L175.436 176.605L177.176 175.315C177.71 174.913 178.291 174.578 178.906 174.315L178.056 173.185Z" fill="white"/>
<path d="M178.056 173.185C177.279 172.148 176.151 171.427 174.883 171.157C173.614 170.887 172.291 171.085 171.158 171.717C170.025 172.348 169.159 173.368 168.721 174.589C168.283 175.81 168.303 177.148 168.776 178.355L122.086 223.025C121.319 222.574 120.458 222.305 119.57 222.241C118.681 222.176 117.79 222.317 116.966 222.653C116.141 222.989 115.405 223.51 114.815 224.177C114.224 224.844 113.796 225.638 113.562 226.497C113.329 227.356 113.297 228.258 113.468 229.131C113.64 230.005 114.011 230.828 114.552 231.535C115.093 232.242 115.79 232.814 116.589 233.208C117.387 233.602 118.266 233.806 119.156 233.805C120.504 233.808 121.81 233.338 122.846 232.475L171.846 266.305C172.107 266.489 172.418 266.586 172.736 266.585C173.073 266.586 173.402 266.479 173.673 266.279C173.945 266.08 174.146 265.798 174.246 265.477C174.347 265.155 174.342 264.81 174.232 264.491C174.122 264.172 173.914 263.897 173.636 263.705L124.636 229.885C124.891 229.138 124.99 228.346 124.928 227.558C124.866 226.771 124.644 226.004 124.276 225.305L174.216 177.515L175.436 176.605L177.176 175.315C177.71 174.913 178.291 174.578 178.906 174.315L178.056 173.185Z" stroke="black" stroke-width="1.3" stroke-linecap="round" stroke-linejoin="round"/>
<path d="M194.796 278.916H182.046V270.386C182.046 268.959 181.479 267.591 180.47 266.582C179.461 265.573 178.093 265.006 176.666 265.006H168.886C167.459 265.006 166.091 265.573 165.082 266.582C164.073 267.591 163.506 268.959 163.506 270.386V278.916H150.766L143.766 295.266H201.746L194.796 278.916Z" fill="#02B9F6"/>
<path d="M194.796 278.916H182.046V270.386C182.046 268.959 181.479 267.591 180.47 266.582C179.461 265.573 178.093 265.006 176.666 265.006H168.886C167.459 265.006 166.091 265.573 165.082 266.582C164.073 267.591 163.506 268.959 163.506 270.386V278.916H150.766L143.766 295.266H201.746L194.796 278.916Z" stroke="black" stroke-width="1.3" stroke-linecap="round" stroke-linejoin="round"/>
<path d="M182.047 278.916H175.237" stroke="black" stroke-width="1.3" stroke-linecap="round" stroke-linejoin="round"/>
<path d="M199.686 176.196C195.294 177.205 190.687 176.62 186.686 174.546C185.187 173.785 183.507 173.454 181.832 173.59C180.157 173.726 178.553 174.323 177.196 175.316L175.456 176.606L173.456 178.066L171.716 179.366C170.375 180.377 169.339 181.74 168.725 183.304C168.111 184.868 167.942 186.571 168.236 188.226C169.066 192.662 168.29 197.249 166.046 201.166L171.896 216.286L191.196 201.956L193.196 200.496L212.496 186.166L199.686 176.196Z" fill="#02B9F6"/>
<path d="M209.607 183.956L199.657 176.196C195.265 177.205 190.657 176.62 186.657 174.546C185.158 173.785 183.478 173.454 181.803 173.59C180.128 173.726 178.523 174.323 177.167 175.316L175.427 176.606L173.427 178.066L171.687 179.366C170.345 180.377 169.31 181.74 168.696 183.304C168.082 184.868 167.912 186.571 168.207 188.226C169.037 192.662 168.261 197.249 166.017 201.166L171.867 216.286L191.167 201.956L193.167 200.496L212.467 186.166" stroke="black" stroke-width="1.3" stroke-linecap="round" stroke-linejoin="round"/>
<path d="M154.857 309.855L131.857 473.715H136.747L164.727 309.855H154.857Z" fill="black"/>
<path d="M447.006 309.855L469.996 473.715H465.116L437.136 309.855H447.006Z" fill="black"/>
<path d="M119.738 295.266H482.268V300.896H119.738V295.266Z" fill="black"/>
<path d="M129.738 300.895H472.268V309.845H129.738V300.895Z" fill="black"/>
<path d="M468.267 309.855L494.377 495.875H488.827L457.067 309.855H468.267Z" fill="black"/>
<path d="M133.716 309.855L107.606 495.875H113.156L144.916 309.855H133.716Z" fill="black"/>
<path d="M142.258 399.645L131.858 473.715H136.748L164.008 314.035" stroke="white" stroke-width="1.3" stroke-linecap="round" stroke-linejoin="round"/>
<path d="M164.727 309.855H154.857L143.027 394.135" stroke="white" stroke-width="1.3" stroke-linecap="round" stroke-linejoin="round"/>
<path d="M447.706 314.885L469.996 473.715H465.116L437.136 309.855H447.006" stroke="white" stroke-width="1.3" stroke-linecap="round" stroke-linejoin="round"/>
<path d="M449.607 465.045C444.469 464.836 439.384 463.918 434.497 462.315C429.787 460.715 424.007 459.575 421.427 458.515C419.35 457.444 417.451 456.057 415.797 454.405C421.297 454.325 425.607 456.745 434.037 457.215C442.467 457.685 451.607 453.215 450.357 448.545C449.517 445.375 446.767 444.275 443.537 443.775C451.687 444.775 458.887 444.495 464.937 446.775C470.987 449.055 471.937 451.545 468.997 455.775C466.057 460.005 456.147 465.075 456.147 465.075C456.147 465.075 453.887 465.125 449.607 465.045Z" stroke="black" stroke-width="1.3" stroke-linecap="round" stroke-linejoin="round"/>
<path d="M422.607 473.784C431.877 474.784 439.167 474.084 446.387 471.884C453.607 469.684 456.187 465.044 456.187 465.044C459.414 464.385 462.594 463.513 465.707 462.434C471.647 460.434 473.707 459.094 476.217 460.434C476.895 460.729 477.463 461.229 477.842 461.864C478.221 462.499 478.39 463.237 478.327 463.974C478.327 463.974 468.247 475.394 456.187 479.654C448.423 482.321 440.403 484.174 432.257 485.184L434.327 489.914L418.197 495.914C418.197 495.914 416.197 493.034 413.027 488.304C409.857 483.574 411.647 480.304 408.937 475.644C408.917 475.574 413.317 472.794 422.607 473.784Z" stroke="black" stroke-width="1.3" stroke-linecap="round" stroke-linejoin="round"/>
<path d="M449.607 465.045C444.469 464.836 439.384 463.918 434.497 462.315C429.787 460.715 424.007 459.575 421.427 458.515C419.35 457.444 417.451 456.057 415.797 454.405C421.297 454.325 425.607 456.745 434.037 457.215C442.467 457.685 451.607 453.215 450.357 448.545C449.517 445.375 446.767 444.275 443.537 443.775C451.687 444.775 458.887 444.495 464.937 446.775C470.987 449.055 471.937 451.545 468.997 455.775C466.057 460.005 456.147 465.075 456.147 465.075C456.147 465.075 453.887 465.125 449.607 465.045Z" fill="black"/>
<path d="M422.607 473.784C431.877 474.784 439.167 474.084 446.387 471.884C453.607 469.684 456.187 465.044 456.187 465.044C459.414 464.385 462.594 463.513 465.707 462.434C471.647 460.434 473.707 459.094 476.217 460.434C476.895 460.729 477.463 461.229 477.842 461.864C478.221 462.499 478.39 463.237 478.327 463.974C478.327 463.974 468.247 475.394 456.187 479.654C448.423 482.321 440.403 484.174 432.257 485.184L434.327 489.914L418.197 495.914C418.197 495.914 416.197 493.034 413.027 488.304C409.857 483.574 411.647 480.304 408.937 475.644C408.917 475.574 413.317 472.794 422.607 473.784Z" fill="black"/>
<path d="M443.557 443.775C451.707 444.775 458.907 444.495 464.957 446.775C471.007 449.055 471.957 451.545 469.017 455.775C467.367 458.135 463.477 460.775 460.407 462.675" stroke="white" stroke-width="1.3" stroke-linecap="round" stroke-linejoin="round"/>
<path d="M432.237 485.155L434.307 489.885L418.177 495.885C418.177 495.885 416.177 493.005 413.007 488.275C409.837 483.545 411.627 480.275 408.917 475.615" stroke="white" stroke-width="1.3" stroke-linecap="round" stroke-linejoin="round"/>
<path d="M456.167 465.044C459.395 464.385 462.575 463.513 465.687 462.434C471.627 460.434 473.687 459.094 476.197 460.434C476.875 460.729 477.444 461.229 477.823 461.864C478.201 462.499 478.371 463.237 478.307 463.974C478.307 463.974 468.227 475.394 456.167 479.654C449.477 481.939 442.597 483.623 435.607 484.684" stroke="white" stroke-width="1.3" stroke-linecap="round" stroke-linejoin="round"/>
<path d="M285.727 203.575C286.874 203.842 287.982 204.251 289.027 204.795C291.657 205.965 291.287 207.905 291.287 207.905C293.757 208.756 296.184 209.731 298.557 210.825C303.027 212.825 303.807 218.525 307.837 225.125C311.867 231.725 321.477 242.905 324.047 245.865C324.816 246.855 325.38 247.989 325.706 249.199C326.032 250.41 326.114 251.673 325.947 252.915L332.317 255.985C332.317 255.985 333.217 252.515 334.887 246.925C336.557 241.335 339.827 224.335 340.657 220.815C341.487 217.295 340.417 215.685 339.347 212.465C338.277 209.245 337.797 207.095 338.807 205.245C339.883 203.013 340.782 200.699 341.497 198.325C341.837 197.016 341.854 195.643 341.547 194.325C341.517 194.169 341.519 194.008 341.554 193.853C341.589 193.698 341.655 193.551 341.749 193.423C341.843 193.294 341.962 193.187 342.099 193.106C342.236 193.026 342.389 192.974 342.547 192.955C342.783 192.926 343.022 192.971 343.232 193.084C343.441 193.197 343.611 193.372 343.717 193.585C344.37 194.848 344.784 196.221 344.937 197.635C345.117 200.085 343.087 201.335 343.327 204.735C343.567 208.135 345.887 207.415 346.967 206.285C348.047 205.155 348.457 203.365 350.127 200.385C350.796 199.089 351.281 197.706 351.567 196.275L338.077 186.575L337.027 183.895L339.907 184.015L352.097 192.735C352.167 191.885 352.197 191.125 352.197 190.545C352.167 187.692 352.565 184.851 353.377 182.115C354.377 179.275 355.547 178.025 356.377 178.265C357.207 178.505 357.027 179.465 357.027 179.465C357.937 179.465 358.227 179.895 358.087 180.745C357.741 183.185 357.764 185.663 358.157 188.095C358.51 190.599 358.651 193.128 358.577 195.655C358.577 195.655 359.427 194.235 359.707 190.355C359.95 187.901 360.432 185.476 361.147 183.115C361.251 182.796 361.471 182.527 361.763 182.362C362.056 182.197 362.4 182.148 362.727 182.225C363.054 182.302 363.341 182.498 363.529 182.776C363.718 183.054 363.796 183.393 363.747 183.725L363.597 184.625C363.357 186.358 363.237 188.106 363.237 189.855C363.607 189.131 364.042 188.441 364.537 187.795C364.7 187.582 364.935 187.436 365.199 187.385C365.462 187.333 365.735 187.379 365.967 187.515C366.175 187.637 366.337 187.826 366.426 188.051C366.515 188.275 366.526 188.524 366.457 188.755C366.297 189.335 366.037 190.215 365.717 191.415C364.985 194.711 364.474 198.052 364.187 201.415L371.877 206.915C372.185 207.171 372.385 207.533 372.436 207.931C372.487 208.328 372.386 208.729 372.152 209.055C371.919 209.38 371.57 209.604 371.177 209.682C370.785 209.76 370.377 209.686 370.037 209.475L363.927 205.105C363.757 207.305 363.507 208.815 362.627 210.015C361.507 211.545 357.727 217.675 355.367 220.845C353.007 224.015 351.587 226.365 350.977 230.955C350.367 235.545 350.387 251.815 350.387 251.815C354.537 256.045 360.517 265.075 359.017 267.445C357.517 269.815 348.677 282.885 346.117 286.085C343.557 289.285 342.807 291.335 338.977 291.335C335.147 291.335 327.557 284.385 321.807 279.025C316.057 273.665 316.687 271.695 311.677 266.355C306.667 261.015 298.297 251.815 298.297 251.815C298.297 251.815 299.427 255.125 297.487 260.185C295.547 265.245 294.487 269.185 294.487 269.185H294.417H293.177C293.387 267.59 293.701 266.01 294.117 264.455C296.027 257.565 290.037 246.855 287.997 238.455C285.957 230.055 285.227 212.805 285.727 203.575Z" fill="white"/>
<path d="M293.148 269.254H292.508C290.334 269.211 288.223 269.99 286.598 271.434C284.808 272.884 276.288 279.034 274.398 280.154C273.928 275.664 274.158 274.154 275.338 269.724C276.518 265.294 279.338 255.114 276.338 247.134C273.338 239.154 258.508 204.934 257.028 201.574C256.507 200.398 256.095 199.176 255.798 197.924L255.498 196.094C255.308 194.504 255.498 190.764 262.718 192.204C269.938 193.644 286.238 194.294 285.718 203.574C285.198 212.854 285.918 230.134 287.958 238.574C289.998 247.014 295.958 257.694 294.078 264.574C293.662 266.112 293.351 267.675 293.148 269.254Z" fill="black"/>
<path d="M293.148 269.254H292.508C290.334 269.211 288.223 269.99 286.598 271.434C284.808 272.884 276.288 279.034 274.398 280.154C273.928 275.664 274.158 274.154 275.338 269.724C276.518 265.294 279.338 255.114 276.338 247.134C273.338 239.154 258.508 204.934 257.028 201.574C256.507 200.398 256.095 199.176 255.798 197.924L255.498 196.094C255.308 194.504 255.498 190.764 262.718 192.204C269.938 193.644 286.238 194.294 285.718 203.574C285.198 212.854 285.918 230.134 287.958 238.574C289.998 247.014 295.958 257.694 294.078 264.574C293.662 266.112 293.351 267.675 293.148 269.254V269.254Z" stroke="black" stroke-width="1.3" stroke-linecap="round" stroke-linejoin="round"/>
<path d="M291.826 282.385C292.056 282.385 292.306 282.385 292.566 282.385C292.566 282.985 292.616 283.585 292.656 284.195C291.709 283.955 290.819 283.53 290.036 282.945C289.306 282.245 290.606 282.295 291.826 282.385Z" fill="black"/>
<path d="M291.826 282.385C292.056 282.385 292.306 282.385 292.566 282.385C292.566 282.985 292.616 283.585 292.656 284.195C291.709 283.955 290.819 283.53 290.036 282.945C289.306 282.245 290.606 282.295 291.826 282.385Z" stroke="black" stroke-width="1.3" stroke-linecap="round" stroke-linejoin="round"/>
<path d="M292.607 282.404C292.607 283.004 292.657 283.604 292.697 284.214" stroke="white" stroke-width="1.3" stroke-linecap="round" stroke-linejoin="round"/>
<path d="M272.928 293.224C277.098 293.224 278.548 292.134 281.628 290.144C284.708 288.154 286.228 287.304 289.438 287.384C291.198 287.384 292.068 287.284 292.908 287.384C293.148 290.028 293.542 292.656 294.088 295.254H271.698C272.05 294.608 272.36 293.94 272.628 293.254L272.928 293.224Z" fill="black"/>
<path d="M272.928 293.224C277.098 293.224 278.548 292.134 281.628 290.144C284.708 288.154 286.228 287.304 289.438 287.384C291.198 287.384 292.068 287.284 292.908 287.384C293.148 290.028 293.542 292.656 294.088 295.254H271.698C272.05 294.608 272.36 293.94 272.628 293.254L272.928 293.224Z" stroke="black" stroke-width="1.3" stroke-linecap="round" stroke-linejoin="round"/>
<path d="M292.908 287.395C293.148 290.039 293.542 292.666 294.088 295.265" stroke="white" stroke-width="1.3" stroke-linecap="round" stroke-linejoin="round"/>
<path d="M285.607 201.815C285.607 201.815 285.367 198.815 281.437 196.705" stroke="white" stroke-width="1.3" stroke-linecap="round" stroke-linejoin="round"/>
<path d="M291.367 160.324C293.897 164.914 302.307 170.434 302.307 170.434C302.307 170.434 298.307 177.954 290.627 180.094L291.367 160.324Z" fill="black"/>
<path d="M295.437 165.094C297.601 167.03 299.896 168.815 302.307 170.434C302.307 170.434 298.307 177.954 290.627 180.094L291.367 160.324" stroke="white" stroke-width="1.3" stroke-linecap="round" stroke-linejoin="round"/>
<path d="M291.367 160.324C290.937 157.074 289.897 152.754 289.897 152.754L291.897 152.674C291.897 152.674 291.836 152.294 291.666 151.674C290.399 146.7 287.456 142.314 283.331 139.257C279.207 136.201 274.155 134.66 269.027 134.894L261.207 135.224C254.839 135.461 248.731 137.812 243.846 141.904C242.866 142.733 241.928 143.611 241.036 144.534C238.162 147.577 236.229 151.387 235.472 155.503C234.714 159.62 235.164 163.868 236.767 167.734C238.427 171.843 238.718 176.377 237.596 180.664L236.107 186.304C239.198 188.684 242.709 190.461 246.457 191.544C247.204 189.774 247.767 187.931 248.137 186.044C248.536 188.068 248.757 190.122 248.797 192.184C252.238 193.117 255.806 193.492 259.367 193.294L259.096 195.534C259.096 195.534 273.247 202.774 281.017 201.414L282.297 188.794C282.297 188.794 289.706 187.914 292.196 186.304C292.196 186.304 294.577 184.484 294.337 178.944L293.827 166.944C293.697 164.744 291.787 163.574 291.367 160.324Z" fill="white"/>
<path d="M291.367 160.324C290.937 157.074 289.897 152.754 289.897 152.754L291.897 152.674C291.897 152.674 291.836 152.294 291.666 151.674C290.399 146.7 287.456 142.314 283.331 139.257C279.207 136.201 274.155 134.66 269.027 134.894L261.207 135.224C254.839 135.461 248.731 137.812 243.846 141.904C242.866 142.733 241.928 143.611 241.036 144.534C238.162 147.577 236.229 151.387 235.472 155.503C234.714 159.62 235.164 163.868 236.767 167.734V167.734C238.427 171.843 238.718 176.377 237.596 180.664L236.107 186.304C239.198 188.684 242.709 190.461 246.457 191.544C247.204 189.774 247.767 187.931 248.137 186.044C248.536 188.068 248.757 190.122 248.797 192.184C252.238 193.117 255.806 193.492 259.367 193.294L259.096 195.534C259.096 195.534 272.857 202.774 281.017 201.414L282.297 188.794C282.297 188.794 289.686 188.564 292.196 186.304C292.196 186.304 294.577 184.484 294.337 178.944L293.827 166.944C293.697 164.744 291.787 163.574 291.367 160.324Z" stroke="black" stroke-width="1.3" stroke-linecap="round" stroke-linejoin="round"/>
<path d="M268.988 134.846L261.168 135.176C254.8 135.413 248.692 137.763 243.808 141.856C242.827 142.684 241.889 143.562 240.998 144.486C238.123 147.528 236.191 151.338 235.433 155.454C234.675 159.571 235.125 163.819 236.728 167.686C238.388 171.794 238.679 176.329 237.558 180.616L236.068 186.256C239.159 188.635 242.67 190.412 246.418 191.496C247.165 189.725 247.728 187.882 248.098 185.996C248.497 188.019 248.718 190.074 248.758 192.136C252.633 193.081 256.624 193.465 260.608 193.276C267.828 193.106 272.048 190.466 272.048 190.466C272.048 190.466 263.158 185.006 261.938 156.466L264.318 161.466C267.689 161.532 271.033 160.849 274.108 159.466C279.038 157.146 284.298 153.056 289.928 152.816L291.928 152.736C291.928 152.736 291.868 152.356 291.698 151.736C290.45 146.728 287.505 142.308 283.364 139.229C279.223 136.149 274.142 134.6 268.988 134.846Z" fill="black"/>
<path d="M268.988 134.846L261.168 135.176C254.8 135.413 248.692 137.763 243.808 141.856C242.827 142.684 241.889 143.562 240.998 144.486C238.123 147.528 236.191 151.338 235.433 155.454C234.675 159.571 235.125 163.819 236.728 167.686C238.388 171.794 238.679 176.329 237.558 180.616L236.068 186.256C239.159 188.635 242.67 190.412 246.418 191.496C247.165 189.725 247.728 187.882 248.098 185.996C248.497 188.019 248.718 190.074 248.758 192.136C252.633 193.081 256.624 193.465 260.608 193.276C267.828 193.106 272.048 190.466 272.048 190.466C272.048 190.466 263.158 185.006 261.938 156.466L264.318 161.466C267.689 161.532 271.033 160.849 274.108 159.466C279.038 157.146 284.298 153.056 289.928 152.816L291.928 152.736C291.928 152.736 291.868 152.356 291.698 151.736C290.45 146.728 287.505 142.308 283.364 139.229C279.223 136.149 274.142 134.6 268.988 134.846V134.846Z" stroke="black" stroke-width="1.3" stroke-linecap="round" stroke-linejoin="round"/>
<path d="M259.906 180.035C259.281 177.062 258.817 174.058 258.516 171.035L256.846 171.105C256.371 171.123 255.905 171.249 255.486 171.473C255.066 171.698 254.703 172.015 254.423 172.4C254.144 172.785 253.956 173.229 253.873 173.698C253.791 174.166 253.816 174.648 253.946 175.105C254.666 177.505 256.276 180.185 259.906 180.035Z" fill="white"/>
<path d="M270.466 164.735C273.076 163.15 275.97 162.09 278.986 161.615L278.886 159.275C278.886 159.275 272.376 160.275 270.466 164.735Z" stroke="black" stroke-width="1.3" stroke-linecap="round" stroke-linejoin="round"/>
<path d="M263.158 169.354L270.028 166.954L279.958 164.324C279.958 164.324 282.298 161.784 283.668 164.164C285.055 166.307 286.561 168.37 288.178 170.344C288.445 170.678 288.621 171.076 288.687 171.498C288.753 171.92 288.708 172.353 288.555 172.752C288.403 173.152 288.148 173.504 287.817 173.775C287.486 174.045 287.09 174.224 286.668 174.294C286.298 174.344 285.898 174.384 285.458 174.404" stroke="black" stroke-width="1.3" stroke-linecap="round" stroke-linejoin="round"/>
<path d="M279.957 164.324L280.877 169.054C281.047 169.929 280.888 170.835 280.43 171.6C279.972 172.364 279.248 172.932 278.397 173.194L275.247 174.194C274.564 174.406 273.825 174.341 273.189 174.014C272.553 173.687 272.071 173.123 271.847 172.444L270.027 166.984" stroke="black" stroke-width="1.3" stroke-linecap="round" stroke-linejoin="round"/>
<path d="M282.817 163.295L292.737 160.475L294.337 166.635C294.403 166.884 294.417 167.144 294.381 167.4C294.344 167.655 294.256 167.901 294.123 168.122C293.99 168.343 293.813 168.535 293.604 168.686C293.396 168.838 293.159 168.946 292.907 169.005L288.017 170.145" stroke="black" stroke-width="1.3" stroke-linecap="round" stroke-linejoin="round"/>
<path d="M282.608 159.506L282.698 161.566C283.993 161.482 285.244 161.061 286.328 160.346C287.495 159.646 288.818 159.244 290.178 159.176C290.178 159.176 288.608 156.746 282.608 159.506Z" stroke="black" stroke-width="1.3" stroke-linecap="round" stroke-linejoin="round"/>
<path d="M270.466 164.735C273.076 163.15 275.97 162.09 278.986 161.615L278.886 159.275C278.886 159.275 272.376 160.275 270.466 164.735Z" fill="black"/>
<path d="M282.608 159.506L282.698 161.566C283.993 161.482 285.244 161.061 286.328 160.346C287.496 159.646 288.818 159.244 290.178 159.176C290.178 159.176 288.608 156.746 282.608 159.506Z" fill="black"/>
<path d="M274.947 168.234C275.367 169.814 276.617 170.844 277.727 170.544C278.837 170.244 279.407 168.724 278.987 167.154L274.947 168.234Z" stroke="black" stroke-width="1.3" stroke-linecap="round" stroke-linejoin="round"/>
<path d="M286.388 164.925C286.758 166.305 287.728 167.245 288.548 167.025C289.368 166.805 289.748 165.505 289.378 164.125L286.388 164.925Z" stroke="black" stroke-width="1.3" stroke-linecap="round" stroke-linejoin="round"/>
<path d="M274.947 168.234C275.367 169.814 276.617 170.844 277.727 170.544C278.837 170.244 279.407 168.724 278.987 167.154L274.947 168.234Z" fill="black"/>
<path d="M286.388 164.925C286.758 166.305 287.728 167.245 288.548 167.025C289.368 166.805 289.748 165.505 289.378 164.125L286.388 164.925Z" fill="black"/>
<path d="M284.896 188.516C282.291 188.765 279.674 188.879 277.056 188.856" stroke="black" stroke-width="1.3" stroke-linecap="round" stroke-linejoin="round"/>
<path d="M284.937 179.316C285.312 178.807 285.807 178.399 286.377 178.127C286.947 177.855 287.576 177.728 288.207 177.756" stroke="black" stroke-width="1.3" stroke-linecap="round" stroke-linejoin="round"/>
<path d="M289.896 152.754L291.896 152.674C291.896 152.674 291.836 152.294 291.666 151.674C290.399 146.7 287.455 142.314 283.331 139.257C279.207 136.201 274.155 134.66 269.026 134.894L261.206 135.224C254.839 135.461 248.731 137.812 243.846 141.904C242.866 142.733 241.928 143.611 241.036 144.534C238.162 147.577 236.229 151.387 235.472 155.503C234.714 159.62 235.164 163.868 236.766 167.734C238.427 171.843 238.718 176.377 237.596 180.664L236.106 186.304C239.198 188.684 242.709 190.461 246.456 191.544C247.204 189.774 247.767 187.931 248.136 186.044C248.536 188.068 248.757 190.122 248.796 192.184C251.214 192.778 253.681 193.15 256.166 193.294C255.862 193.688 255.648 194.144 255.539 194.629C255.43 195.115 255.429 195.618 255.536 196.104" stroke="white" stroke-width="1.3" stroke-linecap="round" stroke-linejoin="round"/>
<path d="M254.607 293.224H272.907C277.077 293.224 278.527 292.134 281.607 290.144C284.687 288.154 286.207 287.304 289.417 287.384C292.627 287.464 292.857 286.924 295.417 288.454C297.239 289.483 299.138 290.369 301.097 291.104C301.287 291.177 301.497 291.183 301.692 291.122C301.886 291.06 302.054 290.934 302.167 290.764C302.238 290.666 302.288 290.553 302.315 290.435C302.341 290.316 302.343 290.193 302.321 290.073C302.298 289.953 302.252 289.84 302.184 289.738C302.117 289.637 302.029 289.551 301.927 289.484C300.857 288.784 298.927 287.484 297.997 286.744C296.931 285.817 295.675 285.134 294.317 284.744C292.867 284.304 290.777 283.744 290.057 282.994C289.337 282.244 290.587 282.324 291.847 282.414C293.107 282.504 294.797 282.124 296.587 282.994C298.377 283.864 303.487 286.874 307.007 287.864C307.258 287.935 307.526 287.911 307.76 287.797C307.995 287.683 308.179 287.486 308.277 287.244C308.379 287.01 308.393 286.748 308.318 286.504C308.243 286.26 308.083 286.051 307.867 285.914C307.337 285.584 306.577 285.084 305.747 284.454C306.481 284.666 307.225 284.839 307.977 284.974C308.169 285.005 308.367 284.979 308.544 284.899C308.722 284.819 308.872 284.689 308.977 284.524C309.056 284.407 309.11 284.275 309.134 284.135C309.159 283.996 309.153 283.853 309.118 283.716C309.083 283.579 309.02 283.451 308.931 283.34C308.843 283.23 308.733 283.139 308.607 283.074C307.645 282.574 306.768 281.926 306.007 281.154C304.357 279.464 303.287 278.354 302.277 277.334C301.383 276.339 300.225 275.617 298.937 275.254C296.997 274.524 294.187 273.554 294.187 273.554C294.187 273.554 295.597 273.124 296.897 272.784C298.197 272.444 299.947 271.624 301.547 272.784C303.255 274.048 305.088 275.134 307.017 276.024C307.569 276.227 308.134 276.394 308.707 276.524C308.951 276.569 309.203 276.52 309.414 276.389C309.625 276.258 309.779 276.053 309.847 275.814C309.878 275.622 309.851 275.425 309.771 275.247C309.691 275.07 309.561 274.919 309.397 274.814C308.26 274.182 307.158 273.488 306.097 272.734C305.227 272.094 304.097 271.084 303.097 270.264C302.16 269.428 300.932 268.994 299.677 269.054C297.507 269.164 294.117 269.314 292.457 269.344C290.283 269.301 288.172 270.08 286.547 271.524C284.757 272.974 276.237 279.124 274.347 280.244C272.457 281.364 271.687 281.294 268.927 281.134C266.167 280.974 264.367 280.774 262.097 280.624C259.827 280.474 257.377 285.714 254.607 293.224Z" fill="white"/>
<path d="M254.607 293.224H272.907C277.077 293.224 278.527 292.134 281.607 290.144C284.687 288.154 286.207 287.304 289.417 287.384C292.627 287.464 292.857 286.924 295.417 288.454C297.239 289.483 299.138 290.369 301.097 291.104C301.287 291.177 301.497 291.183 301.692 291.122C301.886 291.06 302.054 290.934 302.167 290.764V290.764C302.238 290.666 302.288 290.553 302.315 290.435C302.341 290.316 302.343 290.193 302.321 290.073C302.298 289.953 302.252 289.84 302.184 289.738C302.117 289.637 302.029 289.551 301.927 289.484C300.857 288.784 298.927 287.484 297.997 286.744C296.931 285.817 295.675 285.134 294.317 284.744C292.867 284.304 290.777 283.744 290.057 282.994C289.337 282.244 290.587 282.324 291.847 282.414C293.107 282.504 294.797 282.124 296.587 282.994C298.377 283.864 303.487 286.874 307.007 287.864C307.258 287.935 307.526 287.911 307.76 287.797C307.995 287.683 308.179 287.486 308.277 287.244V287.244C308.379 287.01 308.393 286.748 308.318 286.504C308.243 286.26 308.083 286.051 307.867 285.914C307.337 285.584 306.577 285.084 305.747 284.454C306.481 284.666 307.225 284.839 307.977 284.974C308.169 285.005 308.367 284.979 308.544 284.899C308.722 284.819 308.872 284.689 308.977 284.524V284.524C309.056 284.407 309.11 284.275 309.134 284.135C309.159 283.996 309.153 283.853 309.118 283.716C309.083 283.579 309.02 283.451 308.931 283.34C308.843 283.23 308.733 283.139 308.607 283.074C307.645 282.574 306.768 281.926 306.007 281.154C304.357 279.464 303.287 278.354 302.277 277.334C301.383 276.339 300.225 275.617 298.937 275.254C296.997 274.524 294.187 273.554 294.187 273.554C294.187 273.554 295.597 273.124 296.897 272.784C298.197 272.444 299.947 271.624 301.547 272.784C303.255 274.048 305.088 275.134 307.017 276.024C307.569 276.227 308.134 276.394 308.707 276.524C308.951 276.569 309.203 276.52 309.414 276.389C309.625 276.258 309.779 276.053 309.847 275.814C309.878 275.622 309.851 275.425 309.771 275.247C309.691 275.07 309.561 274.919 309.397 274.814C308.26 274.182 307.158 273.488 306.097 272.734C305.227 272.094 304.097 271.084 303.097 270.264C302.16 269.428 300.932 268.994 299.677 269.054C297.507 269.164 294.117 269.314 292.457 269.344C290.283 269.301 288.172 270.08 286.547 271.524C284.757 272.974 276.237 279.124 274.347 280.244C272.457 281.364 271.687 281.294 268.927 281.134C266.167 280.974 264.367 280.774 262.097 280.624C259.827 280.474 257.377 285.714 254.607 293.224Z" stroke="black" stroke-width="1.3" stroke-linecap="round" stroke-linejoin="round"/>
<path d="M305.727 284.426C303.722 282.968 301.793 281.409 299.947 279.756C298.947 278.906 297.697 278.546 294.947 277.996C292.197 277.446 290.877 277.086 290.877 277.086" stroke="black" stroke-width="1.3" stroke-linecap="round" stroke-linejoin="round"/>
<path d="M223.427 203.304C223.667 199.394 229.607 196.624 233.027 194.914C236.447 193.204 238.077 194.104 241.337 195.914C244.597 197.724 247.607 199.074 247.607 199.074C249.131 198.684 250.548 197.959 251.757 196.954C252.259 196.505 252.864 196.188 253.519 196.031C254.173 195.874 254.857 195.882 255.507 196.054C255.692 197.956 256.21 199.811 257.037 201.534C258.517 204.934 273.427 239.174 276.377 247.144C279.327 255.114 276.527 265.304 275.377 269.734C274.227 274.164 273.967 275.674 274.437 280.164C272.547 281.274 271.777 281.214 269.017 281.054C266.257 280.894 264.467 280.694 262.187 280.544C259.907 280.394 257.417 285.714 254.667 293.224H272.607C272.34 293.91 272.029 294.578 271.677 295.224H236.317C231.157 295.224 230.747 274.824 229.657 264.904C228.567 254.984 225.447 252.534 224.897 241.904C224.347 231.274 223.177 207.214 223.427 203.304Z" fill="white"/>
<path d="M223.427 203.304C223.667 199.394 229.607 196.624 233.027 194.914C236.447 193.204 238.077 194.104 241.337 195.914C244.597 197.724 247.607 199.074 247.607 199.074C249.131 198.684 250.548 197.959 251.757 196.954C252.259 196.505 252.864 196.188 253.519 196.031C254.173 195.874 254.857 195.882 255.507 196.054C255.692 197.956 256.21 199.811 257.037 201.534C258.517 204.934 273.427 239.174 276.377 247.144C279.327 255.114 276.527 265.304 275.377 269.734C274.227 274.164 273.967 275.674 274.437 280.164C272.547 281.274 271.777 281.214 269.017 281.054C266.257 280.894 264.467 280.694 262.187 280.544C259.907 280.394 257.417 285.714 254.667 293.224H272.607C272.34 293.91 272.029 294.578 271.677 295.224H236.317C231.157 295.224 230.747 274.824 229.657 264.904C228.567 254.984 225.447 252.534 224.897 241.904C224.347 231.274 223.177 207.214 223.427 203.304Z" stroke="black" stroke-width="1.3" stroke-linecap="round" stroke-linejoin="round"/>
<path d="M262.146 280.575C255.446 279.995 246.876 276.465 246.876 276.465" stroke="black" stroke-width="1.3" stroke-linecap="round" stroke-linejoin="round"/>
<path d="M241.417 267.445C241.417 267.445 246.877 271.565 250.537 274.085C254.197 276.605 254.537 279.025 254.537 279.025" stroke="black" stroke-width="1.3" stroke-linecap="round" stroke-linejoin="round"/>
<path d="M248.308 252.875C248.308 252.875 249.648 254.925 251.168 257.025C252.688 259.125 253.098 260.555 253.008 265.345C252.918 270.135 253.008 273.235 253.008 273.235" stroke="black" stroke-width="1.3" stroke-linecap="round" stroke-linejoin="round"/>
<path d="M247.127 212.634C243.717 203.334 242.067 199.824 242.067 199.824" stroke="black" stroke-width="1.3" stroke-linecap="round" stroke-linejoin="round"/>
<path d="M249.607 260.815C248.439 256.216 247.99 251.462 248.277 246.725C248.687 239.855 250.087 226.025 248.147 216.445" stroke="black" stroke-width="1.3" stroke-linecap="round" stroke-linejoin="round"/>
<path d="M250.537 264.386C250.537 264.386 243.537 259.636 238.867 245.176" stroke="black" stroke-width="1.3" stroke-linecap="round" stroke-linejoin="round"/>
<path d="M254.627 293.225L253.747 295.265" stroke="black" stroke-width="1.3" stroke-linecap="round" stroke-linejoin="round"/>
<path d="M268.357 245.825C268.357 245.825 260.357 226.125 255.457 217.635C252.497 212.497 249.991 207.11 247.967 201.535" stroke="black" stroke-width="1.3" stroke-linecap="round" stroke-linejoin="round"/>
<path d="M281.447 214.704C281.447 214.704 278.317 215.594 273.147 213.814C267.977 212.034 263.467 210.814 263.467 210.814" stroke="white" stroke-width="1.3" stroke-linecap="round" stroke-linejoin="round"/>
<path d="M285.727 203.575C286.874 203.842 287.982 204.251 289.027 204.795C291.657 205.965 291.287 207.905 291.287 207.905C293.757 208.756 296.184 209.731 298.557 210.825C303.027 212.825 303.807 218.525 307.837 225.125C311.867 231.725 321.477 242.905 324.047 245.865C324.816 246.855 325.38 247.989 325.706 249.199C326.032 250.41 326.114 251.673 325.947 252.915L332.317 255.985C332.317 255.985 333.217 252.515 334.887 246.925C336.557 241.335 339.827 224.335 340.657 220.815C341.487 217.295 340.417 215.685 339.347 212.465C338.277 209.245 337.797 207.095 338.807 205.245C339.883 203.013 340.782 200.699 341.497 198.325C341.837 197.016 341.854 195.643 341.547 194.325C341.517 194.169 341.519 194.008 341.554 193.853C341.589 193.698 341.655 193.551 341.749 193.423C341.843 193.294 341.962 193.187 342.099 193.106C342.236 193.026 342.389 192.974 342.547 192.955C342.783 192.926 343.022 192.971 343.232 193.084C343.441 193.197 343.611 193.372 343.717 193.585C344.37 194.848 344.784 196.221 344.937 197.635C345.117 200.085 343.087 201.335 343.327 204.735C343.567 208.135 345.887 207.415 346.967 206.285C348.047 205.155 348.457 203.365 350.127 200.385C350.796 199.089 351.281 197.706 351.567 196.275L338.077 186.575L337.027 183.895L339.907 184.015L352.097 192.735C352.167 191.885 352.197 191.125 352.197 190.545C352.167 187.692 352.565 184.851 353.377 182.115C354.377 179.275 355.547 178.025 356.377 178.265C357.207 178.505 357.027 179.465 357.027 179.465C357.937 179.465 358.227 179.895 358.087 180.745C357.741 183.185 357.764 185.663 358.157 188.095C358.51 190.599 358.651 193.128 358.577 195.655C358.577 195.655 359.427 194.235 359.707 190.355C359.95 187.901 360.432 185.476 361.147 183.115C361.251 182.796 361.471 182.527 361.763 182.362C362.056 182.197 362.4 182.148 362.727 182.225C363.054 182.302 363.341 182.498 363.529 182.776C363.718 183.054 363.796 183.393 363.747 183.725L363.597 184.625C363.357 186.358 363.237 188.106 363.237 189.855C363.607 189.131 364.042 188.441 364.537 187.795C364.7 187.582 364.935 187.436 365.199 187.385C365.462 187.333 365.735 187.379 365.967 187.515C366.175 187.637 366.337 187.826 366.426 188.051C366.515 188.275 366.526 188.524 366.457 188.755C366.297 189.335 366.037 190.215 365.717 191.415C364.985 194.711 364.474 198.052 364.187 201.415L371.877 206.915C372.185 207.171 372.385 207.533 372.436 207.931C372.487 208.328 372.386 208.729 372.152 209.055C371.919 209.38 371.57 209.604 371.177 209.682C370.785 209.76 370.377 209.686 370.037 209.475L363.927 205.105C363.757 207.305 363.507 208.815 362.627 210.015C361.507 211.545 357.727 217.675 355.367 220.845C353.007 224.015 351.587 226.365 350.977 230.955C350.367 235.545 350.387 251.815 350.387 251.815C354.537 256.045 360.517 265.075 359.017 267.445C357.517 269.815 348.677 282.885 346.117 286.085C343.557 289.285 342.807 291.335 338.977 291.335C335.147 291.335 327.557 284.385 321.807 279.025C316.057 273.665 316.687 271.695 311.677 266.355C306.667 261.015 298.297 251.815 298.297 251.815C298.297 251.815 299.427 255.125 297.487 260.185C295.547 265.245 294.487 269.185 294.487 269.185H294.417H293.177C293.387 267.59 293.701 266.01 294.117 264.455C296.027 257.565 290.037 246.855 287.997 238.455C285.957 230.055 285.227 212.805 285.727 203.575Z" stroke="black" stroke-width="1.3" stroke-linecap="round" stroke-linejoin="round"/>
<path d="M358.607 195.686C358.418 197.787 358.033 199.866 357.457 201.896" stroke="black" stroke-width="1.3" stroke-linecap="round" stroke-linejoin="round"/>
<path d="M354.087 199.914C355.011 197.33 355.382 194.581 355.177 191.844C354.687 188.024 354.427 183.844 355.177 182.244C355.927 180.644 356.087 179.614 357.037 179.494" stroke="black" stroke-width="1.3" stroke-linecap="round" stroke-linejoin="round"/>
<path d="M363.246 189.885C362.096 191.705 361.616 194.755 361.126 197.745C360.636 200.735 360.296 203.745 360.296 203.745" stroke="black" stroke-width="1.3" stroke-linecap="round" stroke-linejoin="round"/>
<path d="M360.916 199.075L358.426 197.295" stroke="black" stroke-width="1.3" stroke-linecap="round" stroke-linejoin="round"/>
<path d="M360.297 202.496L357.747 200.676" stroke="black" stroke-width="1.3" stroke-linecap="round" stroke-linejoin="round"/>
<path d="M354.557 198.396L351.587 196.266" stroke="black" stroke-width="1.3" stroke-linecap="round" stroke-linejoin="round"/>
<path d="M355.197 194.976L352.097 192.766" stroke="black" stroke-width="1.3" stroke-linecap="round" stroke-linejoin="round"/>
<path d="M345.907 208.865C347.92 211.049 349.059 213.896 349.107 216.865" stroke="black" stroke-width="1.3" stroke-linecap="round" stroke-linejoin="round"/>
<path d="M364.197 201.416C364.007 202.886 363.937 205.106 363.937 205.106" stroke="black" stroke-width="1.3" stroke-linecap="round" stroke-linejoin="round"/>
<path d="M349.608 201.416C348.838 203.006 351.318 205.536 353.098 206.726" stroke="black" stroke-width="1.3" stroke-linecap="round" stroke-linejoin="round"/>
<path d="M350.396 251.814C350.396 255.884 350.026 259.574 350.026 259.574" stroke="black" stroke-width="1.3" stroke-linecap="round" stroke-linejoin="round"/>
<path d="M359.027 267.445C358.097 268.865 340.537 257.295 336.027 249.895" stroke="black" stroke-width="1.3" stroke-linecap="round" stroke-linejoin="round"/>
<path d="M332.316 255.945C331.026 260.385 329.056 271.645 329.056 271.645" stroke="black" stroke-width="1.3" stroke-linecap="round" stroke-linejoin="round"/>
<path d="M329.057 261.775C327.152 263.413 325.551 265.373 324.327 267.565" stroke="black" stroke-width="1.3" stroke-linecap="round" stroke-linejoin="round"/>
<path d="M325.947 252.874C323.304 251.582 320.586 250.45 317.807 249.484" stroke="black" stroke-width="1.3" stroke-linecap="round" stroke-linejoin="round"/>
<path d="M298.307 251.816C297.547 245.416 293.567 236.816 294.307 227.426" stroke="black" stroke-width="1.3" stroke-linecap="round" stroke-linejoin="round"/>
<path d="M298.967 224.574C298.667 227.608 297.748 230.549 296.267 233.214" stroke="black" stroke-width="1.3" stroke-linecap="round" stroke-linejoin="round"/>
<path d="M291.857 221.625C291.857 221.625 291.417 213.395 291.287 207.865" stroke="black" stroke-width="1.3" stroke-linecap="round" stroke-linejoin="round"/>
<path d="M265.758 309.855H245.858C246.917 314.519 246.917 319.361 245.858 324.025C244.068 331.475 240.598 346.895 244.448 350.745C248.298 354.595 253.748 353.575 253.748 353.575C251.375 349.199 249.711 344.473 248.818 339.575C248.818 339.575 254.088 332.635 258.198 327.105C262.308 321.575 265.758 309.855 265.758 309.855Z" fill="white"/>
<path d="M265.758 309.855H245.858C246.917 314.519 246.917 319.361 245.858 324.025C244.068 331.475 240.598 346.895 244.448 350.745C248.298 354.595 253.748 353.575 253.748 353.575C251.375 349.199 249.711 344.473 248.818 339.575C248.818 339.575 254.088 332.635 258.198 327.105C262.308 321.575 265.758 309.855 265.758 309.855Z" stroke="black" stroke-width="1.3" stroke-linecap="round" stroke-linejoin="round"/>
<path d="M248.816 339.574C245.346 343.934 244.086 346.184 244.816 348.944" stroke="black" stroke-width="1.3" stroke-linecap="round" stroke-linejoin="round"/>
<path d="M265.758 309.855H289.508C289.508 309.855 280.698 311.155 274.098 315.565C267.498 319.975 262.098 319.925 262.098 319.925C263.499 316.637 264.721 313.276 265.758 309.855Z" stroke="black" stroke-width="1.3" stroke-linecap="round" stroke-linejoin="round"/>
<path d="M265.758 309.855H289.508C289.508 309.855 280.698 311.155 274.098 315.565C267.498 319.975 262.098 319.925 262.098 319.925C263.499 316.637 264.721 313.276 265.758 309.855Z" fill="black"/>
<path d="M248.817 339.575C248.817 339.575 254.087 332.635 258.197 327.105C259.768 324.831 261.09 322.394 262.137 319.835C262.133 319.865 262.133 319.896 262.137 319.925C262.137 319.925 267.537 319.925 274.137 315.565C280.737 311.205 289.547 309.855 289.547 309.855H298.347C298.347 309.855 299.907 312.425 300.497 313.475C301.087 314.525 302.127 314.875 306.447 318.025C310.767 321.175 331.447 333.555 344.037 343.475C356.627 353.395 359.217 355.845 361.317 357.135C363.417 358.425 364.317 359.465 365.317 362.605C366.317 365.745 365.517 366.605 366.517 369.955C367.517 373.305 369.117 378.035 369.117 378.035C376.382 384.546 383.176 391.563 389.447 399.035C401.227 412.745 413.317 427.685 415.817 430.555C418.317 433.425 418.497 435.555 418.817 438.695C419.137 441.835 419.647 445.455 417.337 445.545C415.027 445.635 405.957 445.545 405.957 445.545L408.177 447.395L402.627 452.295C400.217 454.425 398.927 454.985 395.407 455.355C391.887 455.725 389.117 456.355 387.817 454.245C386.517 452.135 380.977 440.825 373.947 432.405C366.917 423.985 353.867 407.005 349.657 399.975C347.231 395.995 345.083 391.852 343.227 387.575C341.454 385.232 339.398 383.116 337.107 381.275C333.187 378.075 328.347 376.165 322.107 374.335C315.867 372.505 305.847 370.335 296.357 367.485C286.867 364.635 281.927 361.645 272.607 361.645C263.287 361.645 258.007 361.645 253.717 353.595C253.667 353.515 253.627 353.435 253.587 353.355C251.28 349.043 249.67 344.392 248.817 339.575Z" fill="#02B9F6"/>
<path d="M263.878 315.455L263.938 315.275L263.878 315.455Z" fill="#02B9F6"/>
<path d="M262.456 319.074C262.456 318.984 262.526 318.904 262.566 318.814C262.526 318.904 262.486 318.984 262.456 319.074Z" fill="#02B9F6"/>
<path d="M263.606 316.285L263.666 316.105L263.606 316.285Z" fill="#02B9F6"/>
<path d="M262.816 318.195L262.916 317.945L262.816 318.195Z" fill="#02B9F6"/>
<path d="M264.486 313.755V313.695V313.755Z" stroke="black" stroke-width="1.3" stroke-linecap="round" stroke-linejoin="round"/>
<path d="M264.727 313.045V312.955V313.045Z" stroke="black" stroke-width="1.3" stroke-linecap="round" stroke-linejoin="round"/>
<path d="M248.817 339.575C248.817 339.575 254.087 332.635 258.197 327.105C259.768 324.831 261.09 322.394 262.137 319.835C262.133 319.865 262.133 319.896 262.137 319.925C262.137 319.925 267.537 319.925 274.137 315.565C280.737 311.205 289.547 309.855 289.547 309.855H298.347C298.347 309.855 299.907 312.425 300.497 313.475C301.087 314.525 302.127 314.875 306.447 318.025C310.767 321.175 331.447 333.555 344.037 343.475C356.627 353.395 359.217 355.845 361.317 357.135C363.417 358.425 364.317 359.465 365.317 362.605C366.317 365.745 365.517 366.605 366.517 369.955C367.517 373.305 369.117 378.035 369.117 378.035C376.382 384.546 383.176 391.563 389.447 399.035C401.227 412.745 413.317 427.685 415.817 430.555C418.317 433.425 418.497 435.555 418.817 438.695C419.137 441.835 419.647 445.455 417.337 445.545C415.027 445.635 405.957 445.545 405.957 445.545L408.177 447.395L402.627 452.295C400.217 454.425 398.927 454.985 395.407 455.355C391.887 455.725 389.117 456.355 387.817 454.245C386.517 452.135 380.977 440.825 373.947 432.405C366.917 423.985 353.867 407.005 349.657 399.975C347.231 395.995 345.083 391.852 343.227 387.575C341.454 385.232 339.398 383.116 337.107 381.275C333.187 378.075 328.347 376.165 322.107 374.335C315.867 372.505 305.847 370.335 296.357 367.485C286.867 364.635 281.927 361.645 272.607 361.645C263.287 361.645 258.007 361.645 253.717 353.595C253.667 353.515 253.627 353.435 253.587 353.355C251.28 349.043 249.67 344.392 248.817 339.575V339.575Z" stroke="black" stroke-width="1.3" stroke-linecap="round" stroke-linejoin="round"/>
<path d="M263.878 315.455L263.938 315.275L263.878 315.455Z" stroke="black" stroke-width="1.3" stroke-linecap="round" stroke-linejoin="round"/>
<path d="M262.456 319.074C262.456 318.984 262.526 318.904 262.566 318.814C262.526 318.904 262.486 318.984 262.456 319.074Z" stroke="black" stroke-width="1.3" stroke-linecap="round" stroke-linejoin="round"/>
<path d="M263.606 316.285L263.666 316.105L263.606 316.285Z" stroke="black" stroke-width="1.3" stroke-linecap="round" stroke-linejoin="round"/>
<path d="M262.816 318.195L262.916 317.945L262.816 318.195Z" stroke="black" stroke-width="1.3" stroke-linecap="round" stroke-linejoin="round"/>
<path d="M318.076 341.926C303.886 335.036 285.836 325.926 270.826 322.496" stroke="black" stroke-width="1.3" stroke-linecap="round" stroke-linejoin="round"/>
<path d="M369.117 378.036C362.207 371.686 358.367 367.476 356.627 364.246C354.887 361.016 352.157 357.176 347.817 355.316C343.817 353.596 333.997 349.526 321.377 343.516" stroke="black" stroke-width="1.3" stroke-linecap="round" stroke-linejoin="round"/>
<path d="M295.607 318.814C295.607 318.814 288.607 322.464 285.607 327.144" stroke="black" stroke-width="1.3" stroke-linecap="round" stroke-linejoin="round"/>
<path d="M343.226 387.574C349.046 394.804 361.436 410.284 373.966 420.964C381.876 427.616 389.317 434.807 396.236 442.484C398.436 444.944 399.666 445.124 401.506 445.294C403.346 445.464 405.916 445.564 405.916 445.564" stroke="black" stroke-width="1.3" stroke-linecap="round" stroke-linejoin="round"/>
<path d="M375.066 394.256C373.636 392.456 372.356 390.786 371.296 389.256" stroke="black" stroke-width="1.3" stroke-linecap="round" stroke-linejoin="round"/>
<path d="M413.008 436.266C413.008 436.266 390.008 412.546 376.878 396.496" stroke="black" stroke-width="1.3" stroke-linecap="round" stroke-linejoin="round"/>
<path d="M395.367 455.355C398.887 454.985 400.176 454.425 402.586 452.295L408.136 447.395L405.916 445.545C405.916 445.545 414.976 445.635 417.296 445.545C419.616 445.455 419.056 441.845 418.776 438.695C418.496 435.545 418.316 433.425 415.776 430.555C419.156 434.455 423.006 433.945 426.286 437.845C429.566 441.745 433.706 442.925 438.706 443.315C443.706 443.705 449.086 443.855 450.336 448.545C451.586 453.235 442.446 457.685 434.016 457.215C425.586 456.745 421.276 454.325 415.776 454.405C417.43 456.056 419.329 457.443 421.406 458.515C423.986 459.575 429.766 460.715 434.476 462.315C439.37 463.919 444.461 464.837 449.606 465.045C453.866 465.125 456.146 465.045 456.146 465.045C456.146 465.045 453.556 469.685 446.346 471.885C439.136 474.085 431.836 474.775 422.566 473.785C413.296 472.795 408.916 475.575 408.916 475.575C408.916 475.575 403.617 465.745 398.807 460.575L393.997 455.445L395.367 455.355Z" fill="white"/>
<path d="M395.367 455.355C398.887 454.985 400.176 454.425 402.586 452.295L408.136 447.395L405.916 445.545C405.916 445.545 414.976 445.635 417.296 445.545C419.616 445.455 419.056 441.845 418.776 438.695C418.496 435.545 418.316 433.425 415.776 430.555C419.156 434.455 423.006 433.945 426.286 437.845C429.566 441.745 433.706 442.925 438.706 443.315C443.706 443.705 449.086 443.855 450.336 448.545C451.586 453.235 442.446 457.685 434.016 457.215C425.586 456.745 421.276 454.325 415.776 454.405C417.43 456.056 419.329 457.443 421.406 458.515C423.986 459.575 429.766 460.715 434.476 462.315C439.37 463.919 444.461 464.837 449.606 465.045C453.866 465.125 456.146 465.045 456.146 465.045C456.146 465.045 453.556 469.685 446.346 471.885C439.136 474.085 431.836 474.775 422.566 473.785C413.296 472.795 408.916 475.575 408.916 475.575C408.916 475.575 403.617 465.745 398.807 460.575L393.997 455.445L395.367 455.355Z" stroke="black" stroke-width="1.3" stroke-linecap="round" stroke-linejoin="round"/>
<path d="M415.816 454.404C413.391 451.927 410.827 449.59 408.136 447.404" stroke="black" stroke-width="1.3" stroke-linecap="round" stroke-linejoin="round"/>
<path d="M439.758 295.266H119.748V300.896H482.268V295.266H445.678" stroke="white" stroke-width="1.3" stroke-linecap="round" stroke-linejoin="round"/>
<path d="M424.558 309.855H472.268V300.895H129.748" stroke="white" stroke-width="1.3" stroke-linecap="round" stroke-linejoin="round"/>
<path d="M225.857 309.855H419.037" stroke="white" stroke-width="1.3" stroke-linecap="round" stroke-linejoin="round"/>
<path d="M129.748 304.055V309.855H220.938" stroke="white" stroke-width="1.3" stroke-linecap="round" stroke-linejoin="round"/>
<path d="M480.236 445.545L457.066 309.855H468.266L470.046 322.495" stroke="white" stroke-width="1.3" stroke-linecap="round" stroke-linejoin="round"/>
<path d="M470.617 326.564L494.377 495.874H488.827L481.147 450.894" stroke="white" stroke-width="1.3" stroke-linecap="round" stroke-linejoin="round"/>
<path d="M113.846 491.815L144.916 309.855H133.716" stroke="white" stroke-width="1.3" stroke-linecap="round" stroke-linejoin="round"/>
<path d="M133.127 314.035L107.607 495.875H113.157" stroke="white" stroke-width="1.3" stroke-linecap="round" stroke-linejoin="round"/>
<path d="M375.066 451.605H348.286" stroke="black" stroke-width="1.3" stroke-linecap="round" stroke-linejoin="round"/>
<path d="M211.557 451.605H197.387" stroke="black" stroke-width="1.3" stroke-linecap="round" stroke-linejoin="round"/>
<path d="M187.717 451.605H144.917" stroke="black" stroke-width="1.3" stroke-linecap="round" stroke-linejoin="round"/>
</svg>
