<svg width="394" height="555" viewBox="0 0 394 555" fill="none" xmlns="http://www.w3.org/2000/svg">
<path d="M246.261 69.4551H100.201V336.315H246.261V69.4551Z" fill="white"/>
<path d="M254.21 59.0137H92.25V69.4537H254.21V59.0137Z" fill="white"/>
<path d="M254.21 346.764H141.82H135.64H92.25V336.324H254.21V346.764Z" fill="#02B9F6"/>
<path d="M246.261 177.515V69.4551H100.201V137.555" stroke="black" stroke-width="1.3" stroke-linecap="round" stroke-linejoin="round"/>
<path d="M107.271 336.325H246.261V184.225" stroke="black" stroke-width="1.3" stroke-linecap="round" stroke-linejoin="round"/>
<path d="M100.201 144.014V336.324" stroke="black" stroke-width="1.3" stroke-linecap="round" stroke-linejoin="round"/>
<path d="M145.291 131.684V144.014H168.261V79.4043H145.291V127.744" stroke="black" stroke-width="1.3" stroke-linecap="round" stroke-linejoin="round"/>
<path d="M236.311 118.024V79.4043H211.131" stroke="black" stroke-width="1.3" stroke-linecap="round" stroke-linejoin="round"/>
<path d="M211.131 82.9941V144.014H236.311V122.444" stroke="black" stroke-width="1.3" stroke-linecap="round" stroke-linejoin="round"/>
<path d="M136.23 234.654H110.15V164.514" stroke="black" stroke-width="1.3" stroke-linecap="round" stroke-linejoin="round"/>
<path d="M116.53 153.975H110.15V159.595" stroke="black" stroke-width="1.3" stroke-linecap="round" stroke-linejoin="round"/>
<path d="M140.73 234.655H168.26V153.975H131.43H122.75" stroke="black" stroke-width="1.3" stroke-linecap="round" stroke-linejoin="round"/>
<path d="M201.171 140.774V79.4043H178.211V101.844" stroke="black" stroke-width="1.3" stroke-linecap="round" stroke-linejoin="round"/>
<path d="M178.211 105.523V144.013H201.171" stroke="black" stroke-width="1.3" stroke-linecap="round" stroke-linejoin="round"/>
<path d="M236.31 325.604V244.604H216.73" stroke="black" stroke-width="1.3" stroke-linecap="round" stroke-linejoin="round"/>
<path d="M212.691 244.604H178.211V325.604H233.011" stroke="black" stroke-width="1.3" stroke-linecap="round" stroke-linejoin="round"/>
<path d="M164.46 244.604H110.15V325.604" stroke="black" stroke-width="1.3" stroke-linecap="round" stroke-linejoin="round"/>
<path d="M168.262 305.594V244.604" stroke="black" stroke-width="1.3" stroke-linecap="round" stroke-linejoin="round"/>
<path d="M119.48 325.604H168.26V310.094" stroke="black" stroke-width="1.3" stroke-linecap="round" stroke-linejoin="round"/>
<path d="M178.211 206.865V234.655H236.311V153.975H226.521" stroke="black" stroke-width="1.3" stroke-linecap="round" stroke-linejoin="round"/>
<path d="M221.371 153.975H178.211V182.335" stroke="black" stroke-width="1.3" stroke-linecap="round" stroke-linejoin="round"/>
<path d="M121.98 144.014H135.34V123.354" stroke="black" stroke-width="1.3" stroke-linecap="round" stroke-linejoin="round"/>
<path d="M135.34 119.004V79.4043H110.15V144.014H118.61" stroke="black" stroke-width="1.3" stroke-linecap="round" stroke-linejoin="round"/>
<path d="M186.34 59.0137H254.21V69.4537H92.25V59.0137H180.04" stroke="black" stroke-width="1.3" stroke-linecap="round" stroke-linejoin="round"/>
<path d="M51.7404 261.624C51.1527 260.829 50.2968 260.273 49.3312 260.061C48.3656 259.848 47.3557 259.992 46.4883 260.467C45.6209 260.941 44.9547 261.714 44.6132 262.642C44.2716 263.57 44.2777 264.59 44.6304 265.514L9.01041 299.624C8.33691 299.219 7.56616 299.005 6.78041 299.004C6.07308 299.01 5.37755 299.186 4.75224 299.516C4.12693 299.847 3.59012 300.323 3.1869 300.904C2.78368 301.485 2.52583 302.155 2.43502 302.856C2.3442 303.558 2.42308 304.271 2.66502 304.935C2.90695 305.6 3.30489 306.197 3.82538 306.676C4.34587 307.155 4.97372 307.502 5.65618 307.688C6.33864 307.874 7.05578 307.894 7.74733 307.745C8.43889 307.596 9.08467 307.284 9.63041 306.834L47.0304 332.624C47.228 332.767 47.4661 332.844 47.7104 332.844C47.9066 332.844 48.1 332.797 48.2741 332.706C48.4481 332.616 48.5978 332.484 48.7104 332.324C48.8916 332.06 48.9606 331.735 48.9025 331.42C48.8444 331.105 48.6639 330.826 48.4004 330.644L10.9604 304.854C11.1168 304.393 11.1979 303.91 11.2004 303.424C11.1992 302.702 11.0206 301.991 10.6804 301.354L48.8004 264.874L49.7404 264.184L51.0704 263.184C51.4791 262.882 51.9222 262.631 52.3904 262.434L51.7404 261.624Z" fill="white"/>
<path d="M42.6304 267.494L9.01041 299.624C8.33691 299.219 7.56616 299.005 6.78041 299.004C6.07308 299.01 5.37755 299.186 4.75224 299.517C4.12693 299.847 3.59012 300.323 3.1869 300.904C2.78368 301.486 2.52583 302.155 2.43502 302.857C2.3442 303.558 2.42308 304.271 2.66502 304.936C2.90695 305.6 3.30489 306.197 3.82538 306.676C4.34587 307.155 4.97372 307.502 5.65618 307.688C6.33864 307.874 7.05578 307.894 7.74733 307.745C8.43889 307.597 9.08467 307.284 9.63041 306.834L47.0304 332.624C47.228 332.768 47.4661 332.845 47.7104 332.844" stroke="black" stroke-width="1.3" stroke-linecap="round" stroke-linejoin="round"/>
<path d="M10.9616 304.855C11.1181 304.394 11.1991 303.911 11.2016 303.425C11.2004 302.702 11.0218 301.992 10.6816 301.355L48.8016 264.875L49.7416 264.185L51.0716 263.185C51.4804 262.883 51.9235 262.631 52.3916 262.435L51.7416 261.565C51.1603 260.739 50.2944 260.158 49.3105 259.933C48.3265 259.708 47.2941 259.855 46.4117 260.345C45.5294 260.835 44.8595 261.634 44.5308 262.589C44.2022 263.543 44.2381 264.585 44.6316 265.515" stroke="black" stroke-width="1.3" stroke-linecap="round" stroke-linejoin="round"/>
<path d="M48.3902 330.673L12.9102 306.193" stroke="black" stroke-width="1.3" stroke-linecap="round" stroke-linejoin="round"/>
<path d="M64.5209 342.285H54.7909V335.775C54.7961 335.232 54.6937 334.693 54.4896 334.19C54.2854 333.687 53.9835 333.229 53.6013 332.843C53.2191 332.457 52.7643 332.151 52.263 331.942C51.7617 331.733 51.224 331.625 50.6809 331.625H44.7409C44.1977 331.625 43.66 331.733 43.1587 331.942C42.6575 332.151 42.2026 332.457 41.8204 332.843C41.4382 333.229 41.1363 333.687 40.9322 334.19C40.728 334.693 40.6256 335.232 40.6309 335.775V342.285H30.9009L25.6309 354.765H69.8309L64.5209 342.285Z" fill="#02B9F6"/>
<path d="M64.5201 342.283H49.5801" stroke="black" stroke-width="1.3" stroke-linecap="round" stroke-linejoin="round"/>
<path d="M68.2509 262.864C64.8956 263.647 61.3709 263.207 58.3109 261.624C57.1686 261.041 55.887 260.787 54.6088 260.889C53.3306 260.992 52.1058 261.447 51.0709 262.204L49.7409 263.204L48.2309 264.314L46.9009 265.314C45.8815 266.091 45.0953 267.134 44.628 268.328C44.1607 269.522 44.0303 270.821 44.2509 272.084C44.8954 275.455 44.3213 278.946 42.6309 281.934L47.0909 293.474L61.8309 282.534L63.3309 281.414L78.0609 270.474L68.2509 262.864Z" fill="#02B9F6"/>
<path d="M47.041 293.475L78.011 270.475" stroke="black" stroke-width="1.3" stroke-linecap="round" stroke-linejoin="round"/>
<path d="M79.9015 482.624H66.7515C65.0965 482.624 63.5094 481.967 62.3391 480.796C61.1689 479.626 60.5115 478.039 60.5115 476.384V362.914H51.8115V476.374C51.8128 477.194 51.6524 478.007 51.3394 478.765C51.0264 479.523 50.5669 480.212 49.9874 480.793C49.4078 481.373 48.7195 481.834 47.9617 482.148C47.204 482.462 46.3918 482.624 45.5715 482.624H32.4215C30.5829 482.624 28.7818 483.144 27.2251 484.122C25.6684 485.1 24.4194 486.498 23.6215 488.154L22.2715 490.974H90.0515L88.7015 488.154C87.9036 486.498 86.6545 485.1 85.0978 484.122C83.5411 483.144 81.74 482.624 79.9015 482.624Z" fill="black"/>
<path d="M287.312 482.624H274.162C273.343 482.624 272.532 482.463 271.775 482.149C271.019 481.835 270.331 481.375 269.753 480.796C269.174 480.216 268.715 479.528 268.403 478.771C268.09 478.014 267.93 477.203 267.932 476.384V362.914H259.222V476.374C259.222 478.029 258.564 479.616 257.394 480.786C256.224 481.957 254.637 482.614 252.982 482.614H239.842C238.002 482.614 236.199 483.132 234.64 484.111C233.082 485.089 231.831 486.487 231.032 488.144L229.682 490.964H297.462L296.112 488.144C295.313 486.489 294.064 485.093 292.507 484.116C290.95 483.139 289.149 482.622 287.312 482.624Z" fill="black"/>
<path d="M320.312 354.764H1.01172V362.914H320.312V354.764Z" fill="white"/>
<path d="M315.332 362.914H1.01172V354.764H232.212" stroke="black" stroke-width="1.3" stroke-linecap="round" stroke-linejoin="round"/>
<path d="M240.07 354.764H320.31V362.914" stroke="black" stroke-width="1.3" stroke-linecap="round" stroke-linejoin="round"/>
<path d="M76.7109 357.064V362.914" stroke="black" stroke-width="1.3" stroke-linecap="round" stroke-linejoin="round"/>
<path d="M309.241 99.4941C309.235 91.4377 307.287 83.5015 303.563 76.3574C299.839 69.2132 294.449 63.0717 287.848 58.4527C281.247 53.8337 273.63 50.8733 265.643 49.8222C257.655 48.771 249.532 49.6601 241.961 52.4141C237.5 40.6869 228.587 31.1969 217.162 26.0107C205.737 20.8245 192.725 20.3621 180.961 24.7241C172.743 15.1815 162.046 8.0974 150.053 4.25529C138.06 0.413188 125.238 -0.0372653 113.005 2.95374C100.772 5.94475 89.6043 12.2607 80.737 21.2031C71.8698 30.1456 65.6485 41.3662 62.7609 53.6241C58.6058 51.9205 54.1126 51.2023 49.6335 51.5259C45.1543 51.8495 40.811 53.2061 36.9439 55.4893C33.0769 57.7725 29.7912 60.9204 27.3443 64.6861C24.8975 68.4518 23.3561 72.733 22.8409 77.1941C16.3575 79.8248 10.8113 84.3382 6.91822 90.1519C3.02515 95.9655 0.963881 102.813 1.00048 109.809C1.03708 116.806 3.16986 123.631 7.12354 129.404C11.0772 135.176 16.6703 139.632 23.1809 142.194C23.1809 142.574 23.1809 142.954 23.1809 143.334C23.1796 146.478 23.7976 149.59 24.9996 152.495C26.2016 155.399 27.9641 158.039 30.1863 160.262C32.4085 162.485 35.047 164.248 37.951 165.452C40.855 166.655 43.9675 167.274 47.1109 167.274C48.2251 167.27 49.3377 167.19 50.4409 167.034C51.4592 175.858 54.7439 184.267 59.9755 191.445C65.2071 198.623 72.2074 204.324 80.2954 207.994C88.3834 211.665 97.2838 213.18 106.131 212.391C114.978 211.602 123.47 208.537 130.781 203.494C133.212 205.743 136.106 207.433 139.259 208.443C142.413 209.453 145.75 209.76 149.035 209.341C152.321 208.923 155.474 207.789 158.274 206.021C161.074 204.252 163.452 201.891 165.241 199.104C177.668 205.517 192.029 207.102 205.555 203.553C219.081 200.003 230.814 191.572 238.491 179.884C243.513 181.756 248.914 182.385 254.232 181.717C259.55 181.048 264.628 179.103 269.03 176.046C273.433 172.989 277.031 168.912 279.516 164.163C282.001 159.414 283.3 154.134 283.301 148.774C283.3 147.05 283.166 145.328 282.901 143.624C290.868 139.334 297.524 132.965 302.162 125.195C306.8 117.425 309.246 108.543 309.241 99.4941Z" fill="white"/>
<path d="M306.022 81.7841C301.348 69.4512 292.006 59.4547 280.017 53.958C268.028 48.4614 254.357 47.9067 241.962 52.4141C237.501 40.6869 228.587 31.1969 217.162 26.0107C205.737 20.8245 192.726 20.3621 180.962 24.7241C172.744 15.1815 162.047 8.0974 150.054 4.25529C138.061 0.413188 125.239 -0.0372653 113.006 2.95374C100.773 5.94475 89.6051 12.2607 80.7378 21.2031C71.8706 30.1456 65.6493 41.3662 62.7617 53.6241" stroke="black" stroke-width="1.3" stroke-linecap="round" stroke-linejoin="round"/>
<path d="M165.211 199.105C177.638 205.518 191.999 207.102 205.525 203.553C219.051 200.004 230.784 191.573 238.461 179.885C243.483 181.757 248.884 182.386 254.202 181.718C259.52 181.049 264.598 179.104 269 176.047C273.403 172.99 277.001 168.913 279.486 164.164C281.971 159.415 283.27 154.135 283.271 148.775C283.27 147.051 283.136 145.329 282.871 143.625C292.48 138.444 300.138 130.272 304.683 120.347C309.229 110.421 310.415 99.2848 308.061 88.625" stroke="black" stroke-width="1.3" stroke-linecap="round" stroke-linejoin="round"/>
<path d="M50.4102 167.033C51.4285 175.857 54.7132 184.266 59.9448 191.444C65.1763 198.622 72.1766 204.323 80.2647 207.994C88.3527 211.664 97.253 213.179 106.1 212.39C114.947 211.601 123.439 208.536 130.75 203.493C132.985 205.56 135.614 207.155 138.479 208.184C141.345 209.212 144.388 209.652 147.428 209.477C150.467 209.303 153.44 208.517 156.169 207.168C158.898 205.818 161.326 203.932 163.31 201.623" stroke="black" stroke-width="1.3" stroke-linecap="round" stroke-linejoin="round"/>
<path d="M57.7509 52.0436C53.7879 51.2053 49.6934 51.2042 45.73 52.0404C41.7665 52.8766 38.0215 54.5316 34.7348 56.8994C31.4482 59.2672 28.6925 62.2954 26.6443 65.7902C24.5961 69.2849 23.3007 73.169 22.8409 77.1936C16.3575 79.8242 10.8113 84.3376 6.91822 90.1513C3.02515 95.9649 0.963881 102.812 1.00048 109.809C1.03708 116.805 3.16986 123.63 7.12354 129.403C11.0772 135.176 16.6703 139.631 23.1809 142.194C23.1809 142.574 23.1809 142.954 23.1809 143.334C23.1796 146.477 23.7976 149.59 24.9996 152.494C26.2016 155.399 27.9641 158.038 30.1863 160.261C32.4085 162.484 35.047 164.248 37.951 165.451C40.855 166.654 43.9675 167.274 47.1109 167.274" stroke="black" stroke-width="1.3" stroke-linecap="round" stroke-linejoin="round"/>
<path d="M345.042 71.2048C344.3 69.7778 343.196 68.5706 341.842 67.7037C340.487 66.8368 338.928 66.3407 337.322 66.2648C337.021 63.9705 336.034 61.8206 334.491 60.0964C332.948 58.3723 330.92 57.1543 328.673 56.6018C326.426 56.0494 324.064 56.1882 321.897 57.0002C319.731 57.8122 317.86 59.2595 316.529 61.1526C315.198 63.0457 314.47 65.2965 314.44 67.6102C314.41 69.924 315.08 72.1929 316.36 74.1199C317.641 76.047 319.474 77.5424 321.619 78.4104C323.764 79.2785 326.121 79.4786 328.382 78.9848C328.482 79.2348 328.592 79.4748 328.712 79.7148C329.875 81.8178 331.814 83.3831 334.115 84.0763C336.416 84.7696 338.897 84.536 341.028 83.4253C343.159 82.3147 344.772 80.4151 345.522 78.1319C346.272 75.8487 346.099 73.3628 345.042 71.2048Z" fill="white"/>
<path d="M336.871 64.3737C336.143 62.2255 334.809 60.3339 333.029 58.9272C331.25 57.5206 329.102 56.6589 326.844 56.4463C324.586 56.2337 322.314 56.6791 320.304 57.729C318.293 58.7788 316.629 60.3881 315.513 62.3626C314.397 64.3372 313.876 66.5925 314.014 68.8565C314.151 71.1205 314.941 73.2963 316.288 75.1213C317.634 76.9463 319.481 78.3426 321.603 79.1415C323.726 79.9404 326.035 80.1079 328.251 79.6237C328.35 79.8767 328.463 80.1238 328.591 80.3637C329.352 81.8279 330.485 83.0661 331.876 83.9542C333.267 84.8422 334.867 85.3489 336.515 85.4233C338.164 85.4977 339.803 85.1372 341.269 84.378C342.734 83.6188 343.974 82.4876 344.864 81.0979C345.754 79.7083 346.263 78.1089 346.339 76.4604C346.416 74.8119 346.058 73.1723 345.301 71.7059C344.544 70.2395 343.414 68.998 342.026 68.106C340.638 67.214 339.039 66.7028 337.391 66.6237" stroke="black" stroke-width="1.3" stroke-linecap="round" stroke-linejoin="round"/>
<path d="M341.361 100.443C341.499 102.347 342.238 104.157 343.471 105.613C343.106 106.105 342.856 106.674 342.74 107.276C342.625 107.878 342.647 108.498 342.805 109.091C342.963 109.683 343.253 110.232 343.653 110.697C344.053 111.161 344.553 111.53 345.115 111.774C345.678 112.019 346.288 112.133 346.9 112.108C347.513 112.084 348.112 111.921 348.653 111.633C349.194 111.344 349.663 110.937 350.024 110.442C350.386 109.947 350.631 109.376 350.741 108.773H350.931C352.71 108.656 354.414 108.013 355.826 106.926C357.239 105.839 358.297 104.357 358.866 102.668C359.436 100.979 359.491 99.1586 359.024 97.4382C358.558 95.7178 357.591 94.1747 356.247 93.0044C354.902 91.8342 353.241 91.0895 351.472 90.8648C349.704 90.6401 347.909 90.9455 346.315 91.7423C344.72 92.5391 343.398 93.7915 342.516 95.3405C341.635 96.8896 341.233 98.6656 341.361 100.443Z" fill="white"/>
<path d="M354.032 107.984C355.752 107.206 357.183 105.906 358.124 104.269C359.064 102.633 359.466 100.741 359.273 98.8635C359.08 96.9855 358.301 95.216 357.046 93.8051C355.792 92.3943 354.126 91.4136 352.283 91.0018C350.441 90.5901 348.516 90.7681 346.78 91.5107C345.044 92.2534 343.586 93.523 342.612 95.1399C341.637 96.7569 341.196 98.6393 341.35 100.521C341.505 102.402 342.247 104.188 343.472 105.624C343.106 106.116 342.856 106.685 342.741 107.287C342.625 107.889 342.648 108.509 342.806 109.102C342.964 109.694 343.253 110.243 343.653 110.708C344.053 111.172 344.553 111.541 345.116 111.785C345.678 112.029 346.288 112.144 346.901 112.119C347.513 112.095 348.112 111.932 348.653 111.644C349.194 111.355 349.663 110.948 350.025 110.453C350.386 109.958 350.631 109.387 350.742 108.784H350.932" stroke="black" stroke-width="1.3" stroke-linecap="round" stroke-linejoin="round"/>
<path d="M331.641 127.215C334.308 127.215 336.471 125.052 336.471 122.385C336.471 119.717 334.308 117.555 331.641 117.555C328.973 117.555 326.811 119.717 326.811 122.385C326.811 125.052 328.973 127.215 331.641 127.215Z" fill="white"/>
<path d="M331.641 127.215C334.308 127.215 336.471 125.052 336.471 122.385C336.471 119.717 334.308 117.555 331.641 117.555C328.973 117.555 326.811 119.717 326.811 122.385C326.811 125.052 328.973 127.215 331.641 127.215Z" stroke="black" stroke-width="1.3" stroke-linecap="round" stroke-linejoin="round"/>
<path d="M298.841 511.454C298.041 511.884 297.201 512.344 296.291 512.814C286.081 518.214 283.191 517.054 281.291 514.934C279.391 512.814 277.931 511.174 277.931 511.174C277.931 517.764 277.121 521.174 273.881 525.984C270.641 530.794 268.331 533.244 262.221 537.984C256.111 542.724 251.321 545.054 251.701 549.834C252.081 554.614 257.071 555.374 264.801 554.614C272.531 553.854 281.141 552.124 290.701 539.894V543.334C290.701 543.334 297.581 541.614 301.021 538.744C304.461 535.874 303.891 534.544 304.081 529.574C304.271 524.604 302.161 520.014 298.921 515.574L298.841 511.454Z" fill="white"/>
<path d="M374.472 525.214C366.042 524.214 357.852 523.824 350.922 517.214C343.992 510.604 342.412 508.544 342.342 506.134C341.072 505.734 339.642 505.194 337.972 504.584C333.035 502.764 328.222 500.626 323.562 498.184C323.452 504.184 324.002 507.994 322.342 510.074C320.682 512.154 318.142 514.344 318.492 521.074C318.842 527.804 317.492 531.464 322.342 532.164C327.192 532.864 333.502 533.064 333.502 533.064L335.232 528.924C335.232 528.924 338.122 533.314 349.662 534.124C361.202 534.934 381.982 533.064 381.982 533.064C381.982 533.064 382.902 526.254 374.472 525.214Z" fill="white"/>
<path d="M298.882 515.625V511.425C298.082 511.855 297.242 512.315 296.332 512.785C286.122 518.185 283.232 517.025 281.332 514.905C279.432 512.785 277.972 511.145 277.972 511.145C277.972 517.735 277.162 521.145 273.922 525.955C270.682 530.765 268.372 533.215 262.262 537.955" stroke="black" stroke-width="1.3" stroke-linecap="round" stroke-linejoin="round"/>
<path d="M350.922 517.245C343.992 510.665 342.412 508.575 342.342 506.165C341.072 505.765 339.642 505.225 337.972 504.615C333.035 502.795 328.222 500.657 323.562 498.215C323.452 504.215 324.002 508.025 322.342 510.105" stroke="black" stroke-width="1.3" stroke-linecap="round" stroke-linejoin="round"/>
<path d="M291.812 524.803C289.002 529.893 284.972 536.203 275.502 539.013C266.032 541.823 263.922 537.953 269.872 531.143C267.52 533.663 264.946 535.965 262.182 538.023C256.062 542.803 251.282 545.093 251.662 549.873C252.042 554.653 257.032 555.413 264.762 554.653C272.492 553.893 281.102 552.163 290.662 539.933V543.373C290.662 543.373 297.542 541.653 300.982 538.783C304.422 535.913 303.852 534.583 304.042 529.613C304.232 524.643 302.122 520.053 298.882 515.613C298.902 518.083 294.632 519.713 291.812 524.803Z" fill="black"/>
<path d="M318.48 521.055C318.83 527.755 317.48 531.445 322.33 532.145C327.18 532.845 333.49 533.045 333.49 533.045L335.22 528.905C335.22 528.905 338.11 533.295 349.65 534.105C361.19 534.915 381.97 533.045 381.97 533.045C381.97 533.045 382.9 526.255 374.47 525.215C368.77 524.515 363.17 524.115 358 521.905C355.09 522.825 350.19 522.135 345 520.905C337 519.055 335.07 513.635 329.76 513.395C324.45 513.155 320.56 512.225 322.3 510.055C320.63 512.165 318.13 514.365 318.48 521.055Z" fill="black"/>
<path d="M339.63 265.243C334.27 269.843 326.63 271.643 307.74 274.003C301.073 284.014 293.894 293.674 286.23 302.943L284.86 325.423H284.63C282.5 354.333 282.5 385.273 279.44 414.983L277.91 511.173C277.91 511.173 279.33 512.813 281.27 514.933C283.21 517.053 286.09 518.213 296.27 512.813C301.181 510.334 305.942 507.569 310.53 504.533C310.53 504.533 308.99 474.993 310.53 460.043C312.07 445.093 311.39 428.043 310.53 417.623C310.53 417.623 312.34 406.953 315.27 393.623C318.2 380.293 320.61 367.743 322.48 355.193C322.48 355.193 323.54 372.273 324.34 384.543C325.14 396.813 326.21 398.693 324.34 408.833C322.47 418.973 320.15 429.103 321.34 449.923C322.53 470.743 323.57 480.603 323.57 498.213C328.23 500.656 333.044 502.793 337.98 504.613C345.98 507.553 348.65 508.883 353.46 500.883C353.46 500.883 353.72 440.883 354.52 427.503C355.32 414.123 357.19 412.563 357.19 400.823C357.19 389.083 357.46 369.873 359.33 351.463C360.53 339.633 364.04 311.033 366.4 292.103C367.829 280.708 365.433 269.161 359.59 259.273C357.88 256.393 356.33 253.683 355.37 251.773C355.35 251.763 345 260.623 339.63 265.243Z" fill="#02B9F6"/>
<path d="M310.131 270.295V270.225V270.295Z" stroke="black" stroke-width="1.3" stroke-linecap="round" stroke-linejoin="round"/>
<path d="M339.63 265.243C334.27 269.843 326.63 271.643 307.74 274.003C301.073 284.014 293.894 293.674 286.23 302.943L284.86 325.423H284.63C282.5 354.333 282.5 385.273 279.44 414.983L277.91 511.173C277.91 511.173 279.33 512.813 281.27 514.933C283.21 517.053 286.09 518.213 296.27 512.813C301.181 510.334 305.942 507.569 310.53 504.533C310.53 504.533 308.99 474.993 310.53 460.043C312.07 445.093 311.39 428.043 310.53 417.623C310.53 417.623 312.34 406.953 315.27 393.623C318.2 380.293 320.61 367.743 322.48 355.193C322.48 355.193 323.54 372.273 324.34 384.543C325.14 396.813 326.21 398.693 324.34 408.833C322.47 418.973 320.15 429.103 321.34 449.923C322.53 470.743 323.57 480.603 323.57 498.213C328.23 500.656 333.044 502.793 337.98 504.613C345.98 507.553 348.65 508.883 353.46 500.883C353.46 500.883 353.72 440.883 354.52 427.503C355.32 414.123 357.19 412.563 357.19 400.823C357.19 389.083 357.46 369.873 359.33 351.463C360.53 339.633 364.04 311.033 366.4 292.103C367.829 280.708 365.433 269.161 359.59 259.273C357.88 256.393 356.33 253.683 355.37 251.773C355.35 251.763 345 260.623 339.63 265.243Z" stroke="black" stroke-width="1.3" stroke-linecap="round" stroke-linejoin="round"/>
<path d="M294.022 170.444C297.972 178.554 303.232 189.554 305.912 195.184C307.059 197.593 308.725 199.717 310.792 201.404L315.992 205.654C317.299 206.727 318.369 208.059 319.133 209.567C319.897 211.076 320.34 212.726 320.432 214.414L320.712 219.844L336.472 219.564C334.332 214.444 333.772 204.854 333.652 198.864C333.582 195.366 332.494 191.964 330.522 189.074C328.072 185.504 324.402 180.074 320.292 173.844C315.453 166.159 311.571 157.911 308.732 149.284C308.732 149.284 307.842 147.614 308.732 143.464C309.622 139.314 308.382 138.234 304.962 138.204C301.542 138.174 285.492 137.874 280.472 138.204C275.452 138.534 276.892 140.844 277.472 144.444C277.442 144.444 288.482 159.084 294.022 170.444Z" fill="black"/>
<path d="M348.831 240.474C348.264 240.26 347.775 239.878 347.428 239.38C347.082 238.882 346.895 238.291 346.891 237.684V236.864C343.711 235.334 344.891 233.684 342.441 234.194C339.991 234.704 327.071 237.114 327.071 237.114L325.071 240.294L320.431 240.344V244.424C320.446 249.464 319.22 254.43 316.861 258.884C314.181 263.884 311.031 269.074 307.771 274.004C326.631 271.624 334.271 269.844 339.631 265.244C344.991 260.644 355.351 251.764 355.351 251.764L349.861 240.874C349.501 240.724 349.151 240.624 348.831 240.474Z" fill="black"/>
<path d="M308.731 149.285C308.424 148.517 308.29 147.691 308.341 146.865C308.346 145.721 308.477 144.581 308.731 143.465C309.621 139.315 308.381 138.235 304.961 138.205" stroke="white" stroke-width="1.3" stroke-linecap="round" stroke-linejoin="round"/>
<path d="M276.87 140.094C276.67 141.164 277.17 142.644 277.44 144.444" stroke="white" stroke-width="1.3" stroke-linecap="round" stroke-linejoin="round"/>
<path d="M355.351 251.765L349.861 240.875" stroke="white" stroke-width="1.3" stroke-linecap="round" stroke-linejoin="round"/>
<path d="M336.471 219.564C334.331 214.444 333.771 204.854 333.651 198.864C333.581 195.366 332.493 191.964 330.521 189.074C328.071 185.504 324.401 180.074 320.291 173.844C315.452 166.158 311.57 157.911 308.731 149.284C311.231 149.004 317.161 153.974 320.141 155.394C323.121 156.814 323.551 158.804 323.551 158.804C327.314 159.391 331.106 159.768 334.911 159.934C338.911 159.934 341.581 161.074 342.291 165.934C343.001 170.794 344.851 176.724 347.121 184.254C348.877 189.42 351.409 194.289 354.631 198.694C354.631 198.694 359.891 176.544 361.201 168.554C362.511 160.564 362.781 155.294 365.941 152.554C369.101 149.814 372.351 146.844 372.351 146.844H371.631C371.471 146.844 371.313 146.812 371.166 146.749C371.019 146.686 370.887 146.593 370.778 146.477C370.668 146.361 370.583 146.223 370.529 146.073C370.474 145.923 370.451 145.763 370.461 145.604L370.561 143.774C370.741 140.704 371.441 140.434 373.021 138.334C374.601 136.234 374.691 135.334 376.531 135.334H384.871C387.421 135.334 387.331 137.004 387.331 137.004L389.531 136.744C391.721 136.474 391.731 137.644 392.301 140.744C392.871 143.844 394.161 147.014 390.031 149.864C385.901 152.714 380.771 157.554 377.031 160.544C373.291 163.534 374.331 166.094 373.901 176.064C373.471 186.034 372.331 208.824 372.331 208.824H375.181C373.505 214.633 371.501 220.342 369.181 225.924C365.901 233.464 363.781 234.264 363.781 234.264C364.781 236.424 363.651 238.074 360.091 240.264C356.531 242.454 355.641 243.444 352.981 242.174C351.601 241.514 349.981 240.894 348.821 240.444C348.253 240.23 347.764 239.848 347.418 239.35C347.071 238.852 346.884 238.261 346.881 237.654V236.834C343.701 235.304 344.881 233.654 342.431 234.164C339.981 234.674 327.061 237.084 327.061 237.084L325.061 240.264L320.421 240.314V244.394C320.435 249.434 319.209 254.4 316.851 258.854C305.691 279.854 286.251 302.914 286.251 302.914L284.881 325.394H284.631C283.242 325.355 281.881 324.995 280.655 324.342C279.428 323.689 278.37 322.761 277.562 321.63C276.754 320.5 276.219 319.198 275.999 317.826C275.778 316.455 275.878 315.051 276.291 313.724C277.711 309.054 279.881 301.914 282.351 293.724C286.701 279.284 291.291 257.954 291.291 257.954L286.761 240.744C285.211 240.744 283.761 240.664 282.581 240.544C281.006 240.384 279.506 239.794 278.245 238.838C276.984 237.882 276.01 236.597 275.431 235.124C272.861 228.524 271.611 221.514 265.121 207.194C257.121 189.624 252.431 176.194 250.661 169.744C248.891 163.294 249.771 161.554 252.981 158.564C256.191 155.574 257.301 154.804 261.831 154.804C264.77 154.769 267.699 154.434 270.571 153.804C270.571 153.804 270.461 152.144 272.901 150.374C275.341 148.604 277.461 144.374 277.461 144.374C277.461 144.374 288.461 159.014 294.041 170.374C297.991 178.484 303.251 189.484 305.931 195.114C307.078 197.522 308.744 199.647 310.811 201.334L316.011 205.584C317.318 206.656 318.388 207.989 319.152 209.497C319.916 211.005 320.359 212.656 320.451 214.344L320.731 219.774L336.471 219.564Z" fill="white"/>
<path d="M336.471 219.564C334.331 214.444 333.771 204.854 333.651 198.864C333.581 195.366 332.493 191.964 330.521 189.074C328.071 185.504 324.401 180.074 320.291 173.844C315.452 166.158 311.57 157.911 308.731 149.284C311.231 149.004 317.161 153.974 320.141 155.394C323.121 156.814 323.551 158.804 323.551 158.804C327.314 159.391 331.106 159.768 334.911 159.934C338.911 159.934 341.581 161.074 342.291 165.934C343.001 170.794 344.851 176.724 347.121 184.254C348.877 189.42 351.409 194.289 354.631 198.694C354.631 198.694 359.891 176.544 361.201 168.554C362.511 160.564 362.781 155.294 365.941 152.554C369.101 149.814 372.351 146.844 372.351 146.844H371.631C371.471 146.844 371.313 146.812 371.166 146.749C371.019 146.686 370.887 146.593 370.778 146.477C370.668 146.361 370.583 146.223 370.529 146.073C370.474 145.923 370.451 145.763 370.461 145.604L370.561 143.774C370.741 140.704 371.441 140.434 373.021 138.334C374.601 136.234 374.691 135.334 376.531 135.334H384.871C387.421 135.334 387.331 137.004 387.331 137.004L389.531 136.744C391.721 136.474 391.731 137.644 392.301 140.744C392.871 143.844 394.161 147.014 390.031 149.864C385.901 152.714 380.771 157.554 377.031 160.544C373.291 163.534 374.331 166.094 373.901 176.064C373.471 186.034 372.331 208.824 372.331 208.824H375.181C373.505 214.633 371.501 220.342 369.181 225.924C365.901 233.464 363.781 234.264 363.781 234.264C364.781 236.424 363.651 238.074 360.091 240.264C356.531 242.454 355.641 243.444 352.981 242.174C351.601 241.514 349.981 240.894 348.821 240.444C348.253 240.23 347.764 239.848 347.418 239.35C347.071 238.852 346.884 238.261 346.881 237.654V236.834C343.701 235.304 344.881 233.654 342.431 234.164C339.981 234.674 327.061 237.084 327.061 237.084L325.061 240.264L320.421 240.314V244.394C320.435 249.434 319.209 254.4 316.851 258.854C305.691 279.854 286.251 302.914 286.251 302.914L284.881 325.394H284.631C283.242 325.355 281.881 324.995 280.655 324.342C279.428 323.689 278.37 322.761 277.562 321.63C276.754 320.5 276.219 319.198 275.999 317.826C275.778 316.455 275.878 315.051 276.291 313.724C277.711 309.054 279.881 301.914 282.351 293.724C286.701 279.284 291.291 257.954 291.291 257.954L286.761 240.744C285.211 240.744 283.761 240.664 282.581 240.544C281.006 240.384 279.506 239.794 278.245 238.838C276.984 237.881 276.01 236.597 275.431 235.124C272.861 228.524 271.611 221.514 265.121 207.194C257.121 189.624 252.431 176.194 250.661 169.744C248.891 163.294 249.771 161.554 252.981 158.564C256.191 155.574 257.301 154.804 261.831 154.804C264.77 154.769 267.699 154.434 270.571 153.804C270.571 153.804 270.461 152.144 272.901 150.374C275.341 148.604 277.461 144.374 277.461 144.374C277.461 144.374 288.461 159.014 294.041 170.374C297.991 178.484 303.251 189.484 305.931 195.114C307.078 197.522 308.744 199.647 310.811 201.334L316.011 205.584C317.318 206.656 318.388 207.989 319.152 209.497C319.916 211.005 320.359 212.656 320.451 214.344L320.731 219.774L336.471 219.564Z" stroke="black" stroke-width="1.3" stroke-linecap="round" stroke-linejoin="round"/>
<path d="M372.361 146.864C374.421 145.064 374.261 141.104 374.261 141.104" stroke="black" stroke-width="1.3" stroke-linecap="round" stroke-linejoin="round"/>
<path d="M376.49 135.363C378.71 135.363 378.71 136.363 378.71 139.293V142.213" stroke="black" stroke-width="1.3" stroke-linecap="round" stroke-linejoin="round"/>
<path d="M380.842 135.363C383.322 135.363 383.142 137.693 383.142 139.553V142.213" stroke="black" stroke-width="1.3" stroke-linecap="round" stroke-linejoin="round"/>
<path d="M387.291 137.033C387.661 139.293 388.101 142.213 388.101 142.213" stroke="black" stroke-width="1.3" stroke-linecap="round" stroke-linejoin="round"/>
<path d="M323.551 158.805C325.251 162.415 327.261 166.435 327.261 166.435" stroke="black" stroke-width="1.3" stroke-linecap="round" stroke-linejoin="round"/>
<path d="M330.5 173.125C332.461 176.668 334.621 180.096 336.97 183.395C339.31 186.295 338.53 189.195 338.2 195.665C337.87 202.135 337.86 212.965 337.86 212.965" stroke="black" stroke-width="1.3" stroke-linecap="round" stroke-linejoin="round"/>
<path d="M337.861 216.564C337.861 216.564 340.641 227.484 353.711 234.834C354.994 235.579 356.436 236.008 357.917 236.087C359.398 236.165 360.877 235.89 362.231 235.284C362.791 235.017 363.315 234.681 363.791 234.284" stroke="black" stroke-width="1.3" stroke-linecap="round" stroke-linejoin="round"/>
<path d="M354.631 198.693C353.291 203.833 348.431 213.693 349.281 219.193" stroke="black" stroke-width="1.3" stroke-linecap="round" stroke-linejoin="round"/>
<path d="M341.852 212.965C341.852 212.965 343.852 207.075 349.772 206.885" stroke="black" stroke-width="1.3" stroke-linecap="round" stroke-linejoin="round"/>
<path d="M372.321 208.885H369.051C366.761 208.885 363.991 207.265 360.941 204.975C359.116 203.608 357.422 202.074 355.881 200.395" stroke="black" stroke-width="1.3" stroke-linecap="round" stroke-linejoin="round"/>
<path d="M357.031 206.885C357.031 206.885 360.271 209.555 363.031 211.565C365.791 213.575 370.091 212.965 370.091 212.965" stroke="black" stroke-width="1.3" stroke-linecap="round" stroke-linejoin="round"/>
<path d="M346.891 236.863C349.37 237.787 351.995 238.254 354.641 238.243" stroke="black" stroke-width="1.3" stroke-linecap="round" stroke-linejoin="round"/>
<path d="M322.932 222.084C322.932 222.084 325.442 225.524 327.522 227.824C329.602 230.124 329.842 232.634 327.072 237.114" stroke="black" stroke-width="1.3" stroke-linecap="round" stroke-linejoin="round"/>
<path d="M319.631 225.113C319.631 225.113 321.721 228.033 322.971 229.603C324.221 231.173 323.101 233.733 321.361 236.103" stroke="black" stroke-width="1.3" stroke-linecap="round" stroke-linejoin="round"/>
<path d="M320.71 219.844H315.94C312.773 219.869 309.625 219.355 306.63 218.324C304.13 217.384 302.56 217.324 298.8 220.724C295.04 224.125 293.48 225.634 293.48 225.634" stroke="black" stroke-width="1.3" stroke-linecap="round" stroke-linejoin="round"/>
<path d="M286.74 240.794C292.03 240.794 296.74 241.624 303.46 241.324C310.18 241.024 313.95 240.324 320.39 240.324" stroke="black" stroke-width="1.3" stroke-linecap="round" stroke-linejoin="round"/>
<path d="M291.271 258.004C292.201 260.864 292.701 262.464 292.701 262.464" stroke="black" stroke-width="1.3" stroke-linecap="round" stroke-linejoin="round"/>
<path d="M296.801 248.484C296.801 248.484 296.721 261.614 291.271 271.354" stroke="black" stroke-width="1.3" stroke-linecap="round" stroke-linejoin="round"/>
<path d="M286.221 302.943C280.221 310.033 275.441 311.453 275.931 317.423" stroke="black" stroke-width="1.3" stroke-linecap="round" stroke-linejoin="round"/>
<path d="M272.451 153.844C272.451 153.844 280.871 159.454 284.861 166.434" stroke="black" stroke-width="1.3" stroke-linecap="round" stroke-linejoin="round"/>
<path d="M262.842 159.465C262.842 159.465 272.572 166.145 277.022 169.075C281.472 172.005 282.642 174.465 284.282 182.195C285.922 189.925 287.092 198.835 291.902 203.045C293.274 204.17 294.384 205.582 295.153 207.182C295.922 208.782 296.331 210.53 296.352 212.305" stroke="black" stroke-width="1.3" stroke-linecap="round" stroke-linejoin="round"/>
<path d="M294.241 210.783C291.231 215.972 287.612 220.783 283.461 225.113" stroke="black" stroke-width="1.3" stroke-linecap="round" stroke-linejoin="round"/>
<path d="M300.632 219.195C300.632 219.195 300.042 214.735 292.852 213.045" stroke="black" stroke-width="1.3" stroke-linecap="round" stroke-linejoin="round"/>
<path d="M286.461 170.545C286.65 172.874 286.65 175.215 286.461 177.545C286.198 179.261 285.441 180.863 284.281 182.155" stroke="black" stroke-width="1.3" stroke-linecap="round" stroke-linejoin="round"/>
<path d="M292.881 183.994C292.881 183.994 297.351 195.604 298.931 199.884C300.511 204.164 301.651 204.724 307.111 208.214C312.571 211.704 315.821 213.504 315.821 213.504" stroke="black" stroke-width="1.3" stroke-linecap="round" stroke-linejoin="round"/>
<path d="M334.551 179.903V172.273" stroke="black" stroke-width="1.3" stroke-linecap="round" stroke-linejoin="round"/>
<path d="M322.49 355.185C326.72 323.975 329.12 298.555 329.12 298.555" stroke="black" stroke-width="1.3" stroke-linecap="round" stroke-linejoin="round"/>
<path d="M320.391 290.124C320.391 290.124 323.791 292.224 326.281 293.404C328.771 294.584 330.421 295.774 334.211 293.404C337.005 291.557 339.656 289.501 342.141 287.254" stroke="black" stroke-width="1.3" stroke-linecap="round" stroke-linejoin="round"/>
<path d="M285.201 443.094C285.201 443.094 286.101 485.694 285.201 501.164" stroke="black" stroke-width="1.3" stroke-linecap="round" stroke-linejoin="round"/>
<path d="M346.891 496.743V451.533" stroke="black" stroke-width="1.3" stroke-linecap="round" stroke-linejoin="round"/>
<path d="M346.891 446.315V438.475" stroke="black" stroke-width="1.3" stroke-linecap="round" stroke-linejoin="round"/>
<path d="M315.161 178.943C313.422 183.428 312.737 188.252 313.161 193.043" stroke="white" stroke-width="1.3" stroke-linecap="round" stroke-linejoin="round"/>
<path d="M312.631 106.625C314.961 111.315 323.131 117.185 323.131 117.185C323.131 117.185 318.801 124.535 311.051 126.345L312.631 106.625Z" fill="black"/>
<path d="M312.631 106.624C312.341 103.354 311.481 98.9943 311.481 98.9943H313.481C313.481 98.9943 313.431 98.6143 313.291 97.9943C312.24 92.9689 309.487 88.46 305.497 85.2283C301.508 81.9966 296.526 80.2398 291.391 80.2543H283.531C277.158 80.2211 270.955 82.311 265.901 86.1943C264.886 86.9526 263.911 87.7638 262.981 88.6243C259.976 91.54 257.88 95.2639 256.947 99.3457C256.013 103.427 256.282 107.692 257.721 111.624C259.224 115.812 259.322 120.375 258.001 124.624L256.281 130.194C259.264 132.707 262.694 134.634 266.391 135.874C267.211 134.138 267.851 132.321 268.301 130.454C268.621 132.491 268.755 134.553 268.701 136.614C272.527 137.719 276.49 138.275 280.471 138.264V141.624C280.471 141.624 294.471 147.214 304.961 142.554V134.454C304.961 134.454 309.761 134.004 312.311 132.454C312.311 132.454 314.771 130.734 314.771 125.184V113.184C314.771 111.104 312.911 109.864 312.631 106.624Z" fill="white"/>
<path d="M312.631 106.624C312.341 103.354 311.481 98.9943 311.481 98.9943H313.481C313.481 98.9943 313.431 98.6143 313.291 97.9943C312.24 92.9689 309.487 88.46 305.497 85.2283C301.508 81.9966 296.526 80.2398 291.391 80.2543H283.531C277.158 80.2211 270.955 82.311 265.901 86.1943C264.886 86.9526 263.911 87.7638 262.981 88.6243C259.976 91.54 257.88 95.2639 256.947 99.3457C256.013 103.427 256.282 107.692 257.721 111.624V111.624C259.224 115.812 259.322 120.375 258.001 124.624L256.281 130.194C259.264 132.707 262.694 134.634 266.391 135.874C267.211 134.138 267.851 132.321 268.301 130.454C268.621 132.491 268.755 134.553 268.701 136.614C272.527 137.719 276.49 138.275 280.471 138.264V141.624C280.471 141.624 294.471 147.214 304.961 142.554V134.454C304.961 134.454 309.761 134.004 312.311 132.454C312.311 132.454 314.771 130.734 314.771 125.184V113.184C314.771 111.104 312.911 109.864 312.631 106.624Z" stroke="black" stroke-width="1.3" stroke-linecap="round" stroke-linejoin="round"/>
<path d="M291.361 80.1742H283.531C277.158 80.141 270.955 82.2309 265.901 86.1142C264.884 86.8985 263.909 87.7364 262.981 88.6242C259.976 91.5399 257.88 95.2638 256.947 99.3456C256.013 103.427 256.282 107.692 257.721 111.624C259.224 115.812 259.322 120.375 258.001 124.624L256.281 130.194C259.264 132.707 262.694 134.634 266.391 135.874C267.211 134.137 267.851 132.321 268.301 130.454C268.621 132.491 268.755 134.553 268.701 136.614C272.527 137.719 276.49 138.275 280.471 138.264C287.691 138.394 292.011 135.944 292.011 135.944C292.011 135.944 283.371 130.104 283.371 101.484L285.521 106.624C288.895 106.821 292.27 106.264 295.401 104.994C300.401 102.894 305.851 98.9942 311.481 98.9942H313.481C313.481 98.9942 313.431 98.6142 313.291 97.9942C312.255 92.949 309.504 88.4178 305.507 85.1697C301.51 81.9216 296.512 80.1566 291.361 80.1742Z" fill="black"/>
<path d="M291.361 80.1742H283.531C277.158 80.141 270.955 82.2309 265.901 86.1142C264.884 86.8985 263.909 87.7364 262.981 88.6242C259.976 91.5399 257.88 95.2638 256.947 99.3456C256.013 103.427 256.282 107.692 257.721 111.624C259.224 115.812 259.322 120.375 258.001 124.624L256.281 130.194C259.264 132.707 262.694 134.634 266.391 135.874C267.211 134.137 267.851 132.321 268.301 130.454C268.621 132.491 268.755 134.553 268.701 136.614C272.527 137.719 276.49 138.275 280.471 138.264C287.691 138.394 292.011 135.944 292.011 135.944C292.011 135.944 283.371 130.104 283.371 101.484L285.521 106.624C288.895 106.821 292.27 106.264 295.401 104.994C300.401 102.894 305.851 98.9942 311.481 98.9942H313.481C313.481 98.9942 313.431 98.6142 313.291 97.9942C312.255 92.949 309.504 88.4178 305.507 85.1697C301.51 81.9216 296.512 80.1566 291.361 80.1742V80.1742Z" stroke="black" stroke-width="1.3" stroke-linecap="round" stroke-linejoin="round"/>
<path d="M280.361 124.935C279.866 121.935 279.533 118.911 279.361 115.875H277.681C277.208 115.874 276.742 115.981 276.316 116.186C275.89 116.392 275.517 116.691 275.223 117.061C274.93 117.432 274.724 117.864 274.622 118.325C274.519 118.787 274.522 119.265 274.631 119.725C275.231 122.195 276.731 124.935 280.361 124.935Z" fill="white"/>
<path d="M291.561 110.104C294.234 108.631 297.168 107.693 300.201 107.344V105.004C300.201 105.004 293.631 105.734 291.561 110.104Z" stroke="black" stroke-width="1.3" stroke-linecap="round" stroke-linejoin="round"/>
<path d="M284.061 114.405L291.061 112.305L301.061 110.105C301.061 110.105 303.501 107.655 304.771 110.105C306.066 112.301 307.482 114.424 309.011 116.465C309.263 116.809 309.421 117.214 309.469 117.639C309.517 118.064 309.452 118.494 309.283 118.886C309.113 119.278 308.843 119.619 308.501 119.875C308.158 120.131 307.755 120.293 307.331 120.345C306.925 120.386 306.518 120.406 306.111 120.405" stroke="black" stroke-width="1.3" stroke-linecap="round" stroke-linejoin="round"/>
<path d="M301.071 110.104L301.781 114.864C301.906 115.74 301.704 116.633 301.213 117.37C300.723 118.108 299.978 118.639 299.121 118.864L295.941 119.694C295.249 119.876 294.514 119.78 293.891 119.427C293.269 119.074 292.81 118.491 292.611 117.804L291.031 112.274" stroke="black" stroke-width="1.3" stroke-linecap="round" stroke-linejoin="round"/>
<path d="M303.961 109.195L313.961 106.795L315.291 113.015C315.346 113.267 315.35 113.528 315.303 113.782C315.255 114.036 315.157 114.278 315.015 114.494C314.872 114.709 314.688 114.894 314.472 115.036C314.257 115.179 314.015 115.277 313.761 115.325L308.831 116.255" stroke="black" stroke-width="1.3" stroke-linecap="round" stroke-linejoin="round"/>
<path d="M303.961 105.394V107.464C305.263 107.434 306.535 107.065 307.651 106.394C308.849 105.745 310.188 105.402 311.551 105.394C311.551 105.394 310.041 102.894 303.961 105.394Z" stroke="black" stroke-width="1.3" stroke-linecap="round" stroke-linejoin="round"/>
<path d="M291.561 110.104C294.234 108.631 297.168 107.693 300.201 107.344V105.004C300.201 105.004 293.631 105.734 291.561 110.104Z" fill="black"/>
<path d="M303.961 105.394V107.464C305.263 107.434 306.535 107.065 307.651 106.394C308.849 105.745 310.188 105.402 311.551 105.394C311.551 105.394 310.041 102.894 303.961 105.394Z" fill="black"/>
<path d="M295.891 113.795C296.241 115.385 297.441 116.475 298.571 116.225C299.701 115.975 300.321 114.475 299.971 112.885L295.891 113.795Z" stroke="black" stroke-width="1.3" stroke-linecap="round" stroke-linejoin="round"/>
<path d="M307.461 110.975C307.771 112.375 308.701 113.355 309.531 113.165C310.361 112.975 310.791 111.695 310.531 110.305L307.461 110.975Z" stroke="black" stroke-width="1.3" stroke-linecap="round" stroke-linejoin="round"/>
<path d="M295.891 113.795C296.241 115.385 297.441 116.475 298.571 116.225C299.701 115.975 300.321 114.475 299.971 112.885L295.891 113.795Z" fill="black"/>
<path d="M307.461 110.975C307.771 112.375 308.701 113.355 309.531 113.165C310.361 112.975 310.791 111.695 310.531 110.305L307.461 110.975Z" fill="black"/>
<path d="M304.961 134.484C302.349 134.616 299.733 134.616 297.121 134.484" stroke="black" stroke-width="1.3" stroke-linecap="round" stroke-linejoin="round"/>
<path d="M305.4 125.284C305.796 124.792 306.307 124.406 306.888 124.158C307.469 123.911 308.101 123.81 308.73 123.864" stroke="black" stroke-width="1.3" stroke-linecap="round" stroke-linejoin="round"/>
</svg>
