<svg width="28" height="84" viewBox="0 0 28 84" fill="none" xmlns="http://www.w3.org/2000/svg">
<path d="M28 -4.89567e-06L28 8.36128C17.7234 8.36128 17.6489 13.0064 17.6489 26.2452L17.6489 32.5161C17.6489 36.6194 17.3511 41.2645 11.6915 42.5806L11.6915 42.9677C17.5 44.3613 17.5745 48.6968 17.5745 54.1161L17.5745 62.4774C17.5745 73.471 17.7234 75.6387 28 75.6387L28 84C11.8404 84 6.70212 80.7484 6.70212 67.8194L6.70212 57.0581C6.70212 51.5613 5.73404 48.6968 -6.3892e-06 47.4581L-8.0271e-06 38.0903C5.8085 37.5484 6.77659 32.5161 6.77658 29.4968L6.77658 20.129C6.77658 3.79354 11.9149 -2.08327e-06 28 -4.89567e-06Z" fill="#1EE7CA"/>
</svg>
