<svg width="201" height="191" viewBox="0 0 201 191" fill="none" xmlns="http://www.w3.org/2000/svg">
<path d="M197.05 52C198.667 53.0181 199.817 54.6327 200.251 56.4935C200.686 58.3543 200.369 60.3113 199.37 61.94C192.91 72.46 186.32 82.5 179.74 92C145.91 140.72 112.53 174.48 99.2696 187.17C97.6419 188.729 95.5011 189.64 93.2491 189.732C90.9972 189.824 88.7891 189.091 87.0396 187.67L7.84961 123.33C7.84961 123.33 85.9996 51.12 114.35 0L162.35 30.18L197.05 52Z" fill="white"/>
<path d="M182.165 66.7667C185.394 58.2571 174.948 46.4013 158.832 40.2861C142.717 34.1708 127.035 36.1117 123.806 44.6213C120.577 53.1309 131.023 64.9867 147.139 71.102C163.254 77.2173 178.936 75.2763 182.165 66.7667Z" fill="#C882FF"/>
<path d="M167.101 33.1506L120.691 4.00063C119.875 3.49018 118.967 3.14691 118.017 2.99077C117.068 2.83464 116.097 2.86875 115.161 3.09113C114.225 3.31351 113.342 3.71972 112.565 4.28615C111.787 4.85258 111.13 5.56793 110.631 6.39063C86.4709 45.9206 37.1609 95.2206 16.8809 114.771L19.4109 132.581L88.4609 187.841C89.8171 188.927 91.5191 189.49 93.256 189.426C94.9928 189.362 96.6486 188.675 97.9209 187.491C110.131 176.111 144.681 142.211 179.711 91.9406" stroke="black" stroke-width="2" stroke-linecap="round" stroke-linejoin="round"/>
<path d="M134.219 44.6406L133.449 46.4006L138.429 47.9506L139.259 46.0406L134.219 44.6406Z" fill="black"/>
<path d="M134.919 47.1699L132.289 53.2099L134.029 53.9699L136.739 47.7499L134.919 47.1699Z" fill="black"/>
<path d="M139.95 46.2305L136.17 54.9005L138.01 55.7005L141.89 46.7705L139.95 46.2305Z" fill="black"/>
<path d="M142.251 46.8691L141.391 48.8691L144.161 49.7291L145.061 47.6491L142.251 46.8691Z" fill="black"/>
<path d="M140.739 50.3496L139.859 52.3796L141.639 53.0396L142.539 50.9596L140.739 50.3496Z" fill="black"/>
<path d="M139.22 53.8398L138.35 55.8398L141 56.9998L141.9 54.9098L139.22 53.8398Z" fill="black"/>
<path d="M152.33 49.6699L147.85 59.9799L150.25 61.0199L154.88 50.3799L152.33 49.6699Z" fill="black"/>
<path d="M155.36 50.5098L154.33 52.8798L158 54.0198L159.08 51.5398L155.36 50.5098Z" fill="black"/>
<path d="M153.55 54.6602L152.5 57.0802L154.85 57.9502L155.93 55.4702L153.55 54.6602Z" fill="black"/>
<path d="M151.729 58.8398L150.699 61.2198L154.199 62.7398L155.279 60.2598L151.729 58.8398Z" fill="black"/>
<path d="M145.809 47.8594L141.699 57.2994L143.789 58.2094L148.029 48.4794L145.809 47.8594Z" fill="black"/>
<path d="M145.13 56.1992L144.18 58.3792L147.21 59.6992L148.2 57.4292L145.13 56.1992Z" fill="black"/>
<path d="M166.999 54.8402C166.74 54.2951 166.36 53.8158 165.889 53.4383C165.418 53.0607 164.868 52.7947 164.279 52.6602L163.129 55.2902C163.356 55.348 163.559 55.4757 163.71 55.6551C163.861 55.8344 163.951 56.0566 163.969 56.2902C163.969 56.9902 163.329 57.7402 162.299 58.2902C160.699 59.0802 156.779 60.4102 156.779 60.4102L160.849 62.0002C164.359 60.6602 165.849 59.5902 166.849 57.8302C167.102 57.3768 167.247 56.8712 167.273 56.3527C167.299 55.8341 167.206 55.3166 166.999 54.8402Z" fill="black"/>
<path d="M156.07 60.5801L154.98 63.0801L163.16 66.6401L164.36 63.8901L156.07 60.5801Z" fill="black"/>
<path d="M163.761 52.5101C161.161 51.9901 159.231 53.2301 158.131 56.1401L160.761 57.0201C161.351 55.3501 162.001 55.1901 162.601 55.1901L163.761 52.5101Z" fill="black"/>
<path d="M97.1898 164L73.8598 146.21C73.6332 146.038 73.446 145.819 73.3107 145.569C73.1754 145.318 73.0951 145.042 73.0752 144.758C73.0553 144.474 73.0963 144.189 73.1954 143.922C73.2945 143.655 73.4494 143.412 73.6498 143.21L85.1698 130.3C85.561 129.851 86.1052 129.564 86.6966 129.493C87.288 129.423 87.8844 129.575 88.3698 129.92L111.69 147.71C111.916 147.883 112.104 148.101 112.239 148.352C112.374 148.602 112.455 148.879 112.474 149.163C112.494 149.447 112.453 149.732 112.354 149.999C112.255 150.265 112.1 150.508 111.9 150.71L100.39 163.63C99.9961 164.076 99.4515 164.36 98.8607 164.428C98.27 164.497 97.6749 164.344 97.1898 164Z" fill="#FF59A3"/>
<path d="M96.6896 160.309L73.3696 142.519C73.143 142.347 72.9557 142.128 72.8204 141.878C72.6851 141.627 72.6048 141.351 72.585 141.067C72.5651 140.783 72.6061 140.498 72.7052 140.231C72.8043 139.964 72.9592 139.722 73.1596 139.519L84.6696 126.599C85.0634 126.154 85.608 125.869 86.1987 125.801C86.7894 125.733 87.3845 125.885 87.8696 126.229L111.2 144.019C111.426 144.192 111.613 144.41 111.749 144.661C111.884 144.911 111.964 145.188 111.984 145.472C112.004 145.756 111.963 146.041 111.864 146.308C111.765 146.574 111.61 146.817 111.41 147.019L99.8896 159.939C99.4958 160.385 98.9512 160.669 98.3605 160.737C97.7698 160.806 97.1747 160.653 96.6896 160.309V160.309Z" stroke="black" stroke-width="2" stroke-linecap="round" stroke-linejoin="round"/>
<path d="M84.2792 161.94L73.4492 152.85L80.1192 147.68L88.8392 154.32L84.2792 161.94Z" stroke="black" stroke-width="2" stroke-linecap="round" stroke-linejoin="round"/>
<path d="M68.5098 149.08L88.8398 165.66" stroke="black" stroke-width="2" stroke-linecap="round" stroke-linejoin="round"/>
<path d="M119.3 58.61C118.115 56.8805 116.299 55.6851 114.242 55.2812C112.184 54.8772 110.051 55.2969 108.3 56.45L105.3 58.45L103.3 55.45C102.716 54.5767 101.965 53.8271 101.091 53.2439C100.217 52.6607 99.2364 52.2554 98.2056 52.0511C97.1749 51.8468 96.114 51.8476 95.0836 52.0533C94.0531 52.259 93.0733 52.6656 92.2 53.25C91.3267 53.8344 90.5771 54.585 89.9939 55.4591C89.4107 56.3332 89.0054 57.3136 88.8011 58.3444C88.5968 59.3751 88.5976 60.436 88.8033 61.4664C89.009 62.4969 89.4156 63.4767 90 64.35L100.91 80.57L117.14 69.66C118.883 68.4744 120.088 66.6485 120.493 64.5793C120.897 62.5101 120.469 60.3648 119.3 58.61Z" fill="#57D6FF"/>
<path d="M118.29 55.0007C117.115 53.2585 115.298 52.0528 113.236 51.6479C111.174 51.2431 109.036 51.672 107.29 52.8407L104.29 54.8407L102.29 51.8407C101.06 50.2119 99.2549 49.1145 97.243 48.773C95.2311 48.4315 93.1647 48.8718 91.4667 50.0038C89.7687 51.1358 88.5676 52.8738 88.1089 54.8623C87.6503 56.8509 87.969 58.9394 88.9997 60.7007L99.9097 76.9307L116.13 66.0007C117.872 64.8262 119.078 63.0089 119.482 60.947C119.887 58.8852 119.458 56.7469 118.29 55.0007V55.0007Z" stroke="black" stroke-width="2" stroke-linecap="round" stroke-linejoin="round"/>
<path d="M66.4796 120.92C74.9738 120.92 81.8596 114.034 81.8596 105.54C81.8596 97.046 74.9738 90.1602 66.4796 90.1602C57.9855 90.1602 51.0996 97.046 51.0996 105.54C51.0996 114.034 57.9855 120.92 66.4796 120.92Z" fill="#C882FF"/>
<path d="M57.7109 123.17L70.0909 101.42L69.3409 126.44" stroke="black" stroke-width="2" stroke-linecap="round" stroke-linejoin="round"/>
<path d="M68.8991 124.661L60.1191 118.941L69.6491 116.091L63.8991 112.301L69.8291 110.381" stroke="black" stroke-width="2" stroke-linecap="round" stroke-linejoin="round"/>
<path d="M71.4597 98.8295C72.7189 98.8295 73.7397 97.8087 73.7397 96.5495C73.7397 95.2903 72.7189 94.2695 71.4597 94.2695C70.2005 94.2695 69.1797 95.2903 69.1797 96.5495C69.1797 97.8087 70.2005 98.8295 71.4597 98.8295Z" stroke="black" stroke-width="2" stroke-linecap="round" stroke-linejoin="round"/>
<path d="M86.6094 91.6895C88.2182 94.5593 88.6217 97.9506 87.7309 101.118C86.8402 104.285 84.7283 106.969 81.8594 108.579" stroke="black" stroke-width="2" stroke-linecap="round" stroke-linejoin="round"/>
<path d="M82.6791 92.8594C83.2783 93.9256 83.6616 95.0995 83.8069 96.3139C83.9523 97.5283 83.857 98.7594 83.5264 99.937C83.1958 101.115 82.6364 102.215 81.8802 103.177C81.1239 104.138 80.1857 104.941 79.1191 105.539" stroke="black" stroke-width="2" stroke-linecap="round" stroke-linejoin="round"/>
<path d="M78.4905 96.2402C78.8937 96.9579 78.9959 97.8062 78.7747 98.5991C78.5535 99.392 78.027 100.065 77.3105 100.47" stroke="black" stroke-width="2" stroke-linecap="round" stroke-linejoin="round"/>
<path d="M78.4905 96.2402C78.8937 96.9579 78.9959 97.8062 78.7747 98.5991C78.5535 99.392 78.027 100.065 77.3105 100.47" stroke="black" stroke-width="2" stroke-linecap="round" stroke-linejoin="round"/>
<path d="M56.3198 101.41C55.5216 99.9883 55.0112 98.4235 54.818 96.8048C54.6247 95.186 54.7523 93.5451 55.1934 91.9757C55.6345 90.4062 56.3805 88.9391 57.3888 87.6581C58.3971 86.377 59.6479 85.3072 61.0698 84.5098" stroke="black" stroke-width="2" stroke-linecap="round" stroke-linejoin="round"/>
<path d="M60.2403 100.231C59.0334 98.0781 58.7303 95.5345 59.3979 93.1587C60.0654 90.7829 61.6489 88.7694 63.8003 87.5605" stroke="black" stroke-width="2" stroke-linecap="round" stroke-linejoin="round"/>
<path d="M64.4409 96.8509C64.0382 96.1347 63.9362 95.2879 64.1575 94.4967C64.3788 93.7054 64.9051 93.0343 65.6209 92.6309" stroke="black" stroke-width="2" stroke-linecap="round" stroke-linejoin="round"/>
<path d="M64.4409 96.8509C64.0382 96.1347 63.9362 95.2879 64.1575 94.4967C64.3788 93.7054 64.9051 93.0343 65.6209 92.6309" stroke="black" stroke-width="2" stroke-linecap="round" stroke-linejoin="round"/>
<path d="M135.204 86.4957L120.703 80.9931C119.365 80.4856 117.87 81.1584 117.362 82.4957L105.13 114.733C104.622 116.07 105.295 117.566 106.632 118.073L121.133 123.576C122.471 124.083 123.966 123.411 124.474 122.073L136.706 89.8362C137.214 88.4988 136.541 87.0032 135.204 86.4957Z" stroke="black" stroke-width="2" stroke-linecap="round" stroke-linejoin="round"/>
<path d="M135.78 92.2799L116.436 84.9395L106.966 109.893L126.311 117.234L135.78 92.2799Z" stroke="black" stroke-width="2" stroke-linecap="round" stroke-linejoin="round"/>
<path d="M113.84 116.48L116.64 117.59" stroke="black" stroke-width="2" stroke-linecap="round" stroke-linejoin="round"/>
<path d="M145.34 100.92C146.949 103.791 147.353 107.184 146.462 110.353C145.572 113.522 143.459 116.207 140.59 117.82" stroke="black" stroke-width="2" stroke-linecap="round" stroke-linejoin="round"/>
<path d="M141.41 102.1C142.009 103.165 142.392 104.338 142.537 105.552C142.682 106.765 142.587 107.996 142.256 109.173C141.925 110.349 141.366 111.449 140.61 112.41C139.854 113.37 138.916 114.172 137.85 114.77" stroke="black" stroke-width="2" stroke-linecap="round" stroke-linejoin="round"/>
<path d="M137.22 105.48C137.418 105.837 137.543 106.23 137.589 106.636C137.635 107.041 137.6 107.452 137.486 107.844C137.373 108.236 137.183 108.602 136.928 108.92C136.673 109.239 136.358 109.504 136 109.7" stroke="black" stroke-width="2" stroke-linecap="round" stroke-linejoin="round"/>
<path d="M137.22 105.48C137.418 105.837 137.543 106.23 137.589 106.636C137.635 107.041 137.6 107.452 137.486 107.844C137.373 108.236 137.183 108.602 136.928 108.92C136.673 109.239 136.358 109.504 136 109.7" stroke="black" stroke-width="2" stroke-linecap="round" stroke-linejoin="round"/>
<path d="M23.9201 78.0005H23.7401C23.4854 77.9852 23.2462 77.8731 23.0715 77.6872C22.8967 77.5013 22.7996 77.2556 22.8001 77.0005C22.7532 73.0736 21.2271 69.3089 18.5262 66.4579C15.8254 63.6069 12.1487 61.8795 8.23008 61.6205C7.96486 61.6032 7.71736 61.4814 7.54201 61.2816C7.36667 61.0819 7.27784 60.8207 7.29508 60.5555C7.31232 60.2903 7.43421 60.0428 7.63394 59.8674C7.83366 59.6921 8.09486 59.6032 8.36008 59.6205C10.3926 59.7555 12.4318 59.487 14.3601 58.8305C16.2956 58.1839 18.086 57.1647 19.6301 55.8305C21.182 54.4843 22.45 52.8423 23.3601 51.0005C24.2671 49.163 24.804 47.1651 24.9401 45.1205C24.9425 44.9856 24.9722 44.8527 25.0274 44.7296C25.0826 44.6066 25.162 44.4959 25.2611 44.4044C25.3601 44.3129 25.4766 44.2423 25.6036 44.1969C25.7306 44.1516 25.8655 44.1324 26.0001 44.1405C26.253 44.1582 26.4897 44.2714 26.6624 44.457C26.835 44.6427 26.9307 44.887 26.9301 45.1405V45.2105C26.804 47.2435 27.0757 49.2815 27.7301 51.2105C28.7182 54.1337 30.551 56.6982 32.9967 58.5797C35.4425 60.4612 38.3912 61.5751 41.4701 61.7805C41.7353 61.7977 41.9828 61.9196 42.1581 62.1193C42.3335 62.3191 42.4223 62.5803 42.4051 62.8455C42.3878 63.1107 42.2659 63.3582 42.0662 63.5336C41.8665 63.7089 41.6053 63.7977 41.3401 63.7805C37.4159 63.5284 33.5416 64.7695 30.4943 67.2548C27.447 69.7401 25.4522 73.2858 24.9101 77.1805C24.8678 77.4117 24.7453 77.6207 24.5643 77.7706C24.3833 77.9206 24.1552 78.002 23.9201 78.0005ZM14.1301 61.0005C16.5439 62.0474 18.6939 63.6192 20.4238 65.6016C22.1536 67.584 23.4198 69.9271 24.1301 72.4605C25.1595 70.0307 26.7236 67.8644 28.706 66.1226C30.6884 64.3809 33.038 63.1086 35.5801 62.4005C35.2901 62.2805 35.0101 62.1405 34.7301 62.0105C32.6546 60.987 30.7997 59.567 29.2701 57.8305C27.7441 56.0938 26.5782 54.0713 25.8401 51.8805C25.7301 51.5805 25.6401 51.2805 25.5501 50.9705C25.4301 51.2605 25.3001 51.5505 25.1601 51.8305C23.0853 56.0231 19.431 59.2206 15.0001 60.7205C14.7401 60.8205 14.4301 60.9205 14.1301 61.0005Z" fill="black"/>
<path d="M53.5193 50.4292C55.861 50.4292 57.7593 48.5309 57.7593 46.1892C57.7593 43.8475 55.861 41.9492 53.5193 41.9492C51.1776 41.9492 49.2793 43.8475 49.2793 46.1892C49.2793 48.5309 51.1776 50.4292 53.5193 50.4292Z" stroke="black" stroke-width="2" stroke-linecap="round" stroke-linejoin="round"/>
<path d="M19.8809 99.1102C22.1809 96.8402 24.3709 94.5502 26.2409 92.4102" stroke="black" stroke-width="2" stroke-linecap="round" stroke-linejoin="round"/>
<path d="M1 116.189C1 116.189 5.82 112.189 11.67 106.869" stroke="black" stroke-width="2" stroke-linecap="round" stroke-linejoin="round"/>
<path d="M22.9409 119.33L16.8809 114.77L19.4109 132.58L23.2509 129.29C23.9775 128.668 24.5554 127.891 24.9419 127.016C25.3283 126.141 25.5135 125.191 25.4837 124.235C25.454 123.279 25.2101 122.342 24.77 121.493C24.3299 120.644 23.7048 119.905 22.9409 119.33V119.33Z" stroke="black" stroke-width="2" stroke-linecap="round" stroke-linejoin="round"/>
</svg>
