<?xml version="1.0" standalone="no"?>
<!DOCTYPE svg PUBLIC "-//W3C//DTD SVG 20010904//EN"
 "http://www.w3.org/TR/2001/REC-SVG-20010904/DTD/svg10.dtd">
<svg version="1.0" xmlns="http://www.w3.org/2000/svg"
 width="1392.000000pt" height="1392.000000pt" viewBox="0 0 1392.000000 1392.000000"
 preserveAspectRatio="xMidYMid meet">
<metadata>
Created by potrace 1.14, written by Peter Selinger 2001-2017
</metadata>
<g transform="translate(0.000000,1392.000000) scale(0.100000,-0.100000)"
fill="#000000" stroke="none">
<path d="M10397 11434 c-1 -1 -40 -5 -87 -8 -47 -4 -101 -9 -120 -12 -19 -3
-53 -7 -75 -9 -22 -2 -40 -4 -40 -5 0 -2 -27 -7 -80 -14 -27 -3 -66 -10 -85
-16 -19 -6 -51 -13 -70 -16 -41 -6 -109 -22 -130 -31 -8 -3 -19 -7 -25 -8 -5
-2 -30 -9 -55 -16 -25 -7 -47 -13 -50 -14 -33 -9 -88 -28 -145 -50 -38 -15
-74 -28 -80 -29 -23 -5 -286 -127 -295 -136 -5 -5 -32 -20 -125 -71 -51 -28
-265 -174 -293 -199 -12 -11 -24 -20 -27 -20 -3 0 -13 -8 -23 -17 -10 -10 -42
-38 -71 -62 -30 -25 -93 -83 -141 -130 -146 -144 -258 -279 -370 -446 -29 -44
-58 -83 -64 -87 -6 -4 -7 -8 -3 -8 5 0 -1 -13 -12 -29 -47 -66 -207 -382 -215
-425 -2 -6 -10 -29 -20 -50 -13 -31 -53 -152 -61 -186 -1 -3 -5 -12 -8 -20
-18 -43 -67 -257 -82 -355 -3 -22 -8 -51 -10 -65 -14 -78 -17 -188 -20 -587
-2 -401 -1 -443 14 -444 9 -1 25 -3 36 -4 11 -1 52 -6 90 -10 39 -4 86 -9 105
-12 19 -2 53 -5 75 -7 22 -3 58 -7 80 -10 22 -4 67 -9 100 -11 33 -3 69 -7 80
-9 11 -2 49 -7 85 -10 36 -4 76 -9 90 -11 14 -3 54 -8 90 -11 36 -3 79 -7 95
-10 17 -2 57 -6 90 -9 60 -5 81 -8 167 -20 26 -4 62 -9 80 -10 48 -5 148 -15
188 -20 64 -9 155 -18 180 -19 14 -1 30 -4 35 -6 19 -10 80 -5 78 6 -1 6 -5
92 -8 190 -4 98 -8 222 -10 274 -5 140 -6 440 -1 480 11 92 19 139 30 180 8
25 14 50 15 55 19 117 135 352 248 505 65 87 238 261 303 305 25 16 47 32 50
35 27 28 261 151 315 166 6 1 36 12 69 23 32 11 62 18 67 15 5 -3 9 -1 9 4 0
5 6 9 13 9 13 1 63 10 117 21 l35 8 0 739 0 740 -63 0 c-35 1 -64 0 -65 -1z"/>
<path d="M10907 11432 c-6 -12 -2 -1470 4 -1476 3 -3 19 -8 35 -10 97 -15 172
-39 314 -104 41 -19 163 -91 170 -101 3 -4 25 -21 50 -38 99 -68 275 -267 357
-403 38 -63 93 -173 93 -186 0 -7 3 -14 8 -16 7 -3 40 -87 47 -121 2 -9 7 -22
10 -27 14 -23 54 -213 59 -282 3 -32 7 -62 10 -67 4 -5 2 -12 -4 -16 -7 -4 -7
-12 0 -24 5 -10 8 -20 6 -22 -2 -2 -7 -62 -11 -134 -8 -175 -15 -225 -42 -345
-8 -36 -16 -72 -18 -80 -2 -8 -15 -49 -30 -90 -15 -41 -33 -90 -39 -107 -6
-18 -14 -33 -18 -33 -3 0 -9 -13 -13 -30 -4 -16 -10 -30 -15 -30 -4 0 -10 -10
-13 -22 -6 -21 -150 -246 -165 -258 -4 -3 -23 -25 -42 -50 -19 -25 -44 -56
-56 -70 -96 -107 -131 -145 -216 -230 -53 -53 -136 -132 -184 -176 -48 -43
-98 -89 -111 -101 -13 -11 -42 -36 -65 -55 -23 -18 -49 -40 -57 -49 -9 -8 -52
-44 -96 -80 -44 -35 -87 -71 -95 -79 -20 -19 -70 -59 -107 -85 -15 -11 -38
-30 -51 -42 -13 -13 -26 -23 -31 -23 -4 0 -20 -13 -36 -30 -16 -16 -32 -30
-37 -30 -8 0 -27 -16 -73 -60 -12 -11 -26 -20 -32 -20 -6 0 -13 -4 -15 -8 -1
-4 -21 -21 -43 -37 -22 -17 -46 -35 -55 -42 -114 -91 -252 -193 -260 -193 -6
0 -10 -4 -10 -8 0 -5 -30 -30 -67 -57 -38 -27 -70 -52 -73 -55 -6 -6 -552
-418 -583 -440 -35 -24 -101 -74 -117 -88 -8 -7 -114 -87 -235 -178 -121 -91
-230 -173 -242 -182 -12 -9 -34 -26 -49 -37 -36 -26 -296 -222 -309 -233 -12
-10 -94 -70 -131 -97 -15 -11 -32 -25 -38 -30 -6 -6 -47 -37 -91 -70 -44 -32
-84 -63 -90 -67 -5 -5 -82 -63 -170 -129 -171 -127 -198 -148 -218 -164 -6 -6
-28 -22 -47 -35 -66 -46 -73 -55 -68 -99 2 -23 0 -41 -5 -41 -4 0 -5 -5 -2
-11 10 -16 11 -149 1 -149 -5 0 -3 -6 3 -13 6 -8 9 -16 6 -18 -2 -3 -4 -63 -4
-134 -1 -72 -1 -177 -1 -235 -1 -118 -1 -102 3 -273 1 -70 -2 -127 -6 -127 -5
0 -5 -5 -2 -11 10 -16 11 -149 1 -149 -5 0 -3 -6 3 -13 6 -8 9 -16 6 -18 -3
-4 -5 -147 -4 -291 0 -17 19 -18 258 -18 l258 0 39 30 c22 16 54 42 73 57 19
16 39 30 45 32 6 2 13 7 16 11 3 3 23 19 45 36 22 16 45 34 52 39 6 6 36 28
67 50 31 22 56 42 56 45 0 3 14 14 32 25 29 17 233 170 286 215 13 11 27 20
32 20 5 0 10 3 12 8 2 4 57 47 123 96 66 50 125 94 130 98 6 5 28 22 50 38 22
16 45 33 50 38 6 4 28 21 50 37 22 17 46 35 55 42 38 30 130 99 150 113 12 8
28 20 34 25 6 6 29 23 51 39 22 17 42 33 45 36 3 3 27 22 54 41 28 18 57 41
67 49 9 8 39 31 67 50 28 19 51 38 52 43 0 4 5 7 10 7 6 0 18 8 28 17 11 10
32 27 47 38 16 11 34 26 41 33 7 6 17 12 22 12 6 0 12 3 14 8 2 4 41 36 88 72
47 35 87 68 88 72 2 4 8 8 12 8 7 0 283 206 380 283 8 7 49 37 90 67 41 30 77
57 80 60 3 3 68 52 145 110 77 58 151 115 165 128 14 12 29 22 33 22 5 0 14 6
21 13 7 6 28 23 46 37 19 14 46 35 61 48 15 12 32 22 38 22 6 0 11 4 11 8 0 5
30 30 68 57 37 27 69 53 70 57 2 5 8 8 14 8 5 0 15 6 22 12 7 7 25 22 40 33
16 11 33 25 40 30 6 6 36 28 66 50 30 22 63 48 72 58 9 10 18 17 20 15 2 -2
10 3 18 10 8 7 89 69 180 138 91 68 172 130 180 137 8 7 44 35 80 62 72 56
107 84 126 103 7 6 15 12 18 12 3 0 14 8 24 18 10 9 32 28 51 42 18 14 51 41
74 62 23 20 78 67 122 105 219 187 490 453 635 623 21 25 47 55 57 66 10 12
29 36 43 54 14 18 30 38 35 44 26 28 128 169 179 246 31 47 61 92 67 101 7 10
10 19 8 22 -2 3 4 14 15 25 21 25 68 108 98 175 11 26 25 47 29 47 5 0 9 9 9
19 0 11 5 23 10 26 6 4 8 11 5 16 -4 5 -2 9 3 9 5 0 15 19 22 43 8 23 18 45
22 48 5 3 10 14 13 25 2 10 16 48 30 84 14 36 28 74 30 84 5 22 24 84 32 106
8 18 4 6 31 120 40 171 49 217 48 249 -1 17 2 31 5 31 3 0 6 6 6 13 0 6 4 55
9 107 8 92 8 459 0 550 -11 119 -20 188 -36 275 -5 28 -12 66 -15 85 -3 19
-12 60 -20 91 -8 30 -16 64 -18 75 -9 46 -76 258 -102 319 -50 120 -103 237
-125 275 -14 25 -34 61 -43 80 -10 19 -36 62 -57 95 -22 33 -43 67 -47 75 -3
8 -9 17 -13 20 -3 3 -22 28 -40 55 -103 151 -298 356 -480 505 -30 25 -56 48
-58 53 -2 4 -9 7 -16 7 -7 0 -21 8 -32 18 -28 27 -141 102 -153 102 -5 0 -11
4 -13 9 -4 12 -55 40 -228 128 -74 37 -138 73 -142 78 -4 6 -8 7 -8 3 0 -6
-33 5 -95 32 -24 10 -58 23 -65 24 -3 1 -9 4 -15 8 -10 6 -196 67 -225 73 -8
2 -37 11 -65 19 -27 8 -51 13 -54 11 -2 -3 -10 0 -17 5 -6 6 -16 10 -20 9 -5
-1 -16 1 -24 4 -17 7 -196 44 -256 52 -22 4 -52 9 -69 12 -16 3 -41 6 -55 8
-14 1 -47 5 -75 8 -179 21 -303 29 -308 19z"/>
<path d="M0 10404 l0 -810 1040 0 c726 0 1040 3 1041 10 4 35 3 1606 -1 1607
-3 1 -472 2 -1042 3 l-1038 1 0 -811z"/>
<path d="M2465 11210 c-1 -3 -3 -1968 -3 -4367 l0 -4363 917 0 917 0 -1 4367
0 4368 -913 0 c-503 0 -915 -2 -917 -5z"/>
<path d="M4680 11210 c-4 -3 -7 -367 -6 -810 l1 -805 1042 -1 1041 0 5 22 c2
13 1 21 -3 19 -9 -6 -6 67 3 82 4 7 4 14 0 16 -5 3 -7 45 -5 94 1 48 2 104 1
123 -4 176 -3 228 3 248 4 12 4 22 0 22 -9 0 -7 293 2 309 4 6 4 11 -1 11 -10
0 -9 252 1 268 4 7 4 12 -1 12 -4 0 -7 35 -5 77 1 43 2 87 2 98 -1 11 -1 26
-1 33 1 19 1 42 0 117 l-1 70 -1035 0 c-569 0 -1038 -2 -1043 -5z"/>
<path d="M10480 3859 c-124 -93 -233 -176 -243 -184 -9 -8 -20 -15 -23 -15 -3
0 -11 -6 -18 -12 -7 -7 -25 -22 -40 -33 -75 -54 -121 -91 -124 -97 -2 -5 -10
-8 -18 -8 -8 0 -14 -4 -14 -8 0 -4 -12 -15 -27 -24 -16 -10 -40 -27 -55 -40
-15 -13 -55 -43 -89 -68 -34 -24 -67 -49 -73 -55 -6 -6 -27 -22 -46 -35 -19
-13 -40 -29 -46 -35 -7 -5 -22 -18 -35 -27 -97 -69 -165 -121 -167 -129 -2 -5
-8 -9 -13 -9 -5 0 -17 -7 -26 -15 -10 -8 -74 -56 -143 -107 -69 -51 -136 -103
-150 -115 -14 -13 -28 -23 -33 -23 -4 0 -19 -11 -33 -25 -14 -14 -28 -25 -33
-25 -4 0 -16 -8 -27 -18 -10 -10 -35 -28 -54 -42 -19 -13 -37 -27 -40 -30 -12
-13 -129 -100 -135 -100 -3 0 -17 -11 -31 -25 -14 -14 -38 -32 -54 -40 -17 -9
-30 -20 -30 -25 0 -7 930 -10 2630 -10 l2630 0 0 774 0 774 -1608 -1 -1607 0
-225 -168z"/>
</g>
</svg>
