<svg width="322" height="275" viewBox="0 0 322 275" fill="none" xmlns="http://www.w3.org/2000/svg">
<path d="M24.5508 250V243.679H10.2918C12.2028 241.474 14.5058 238.828 16.1718 237.015C20.3858 232.262 23.2278 228.293 23.2278 222.707C23.2278 216.435 19.5038 212.368 12.6438 212.368C8.4298 212.368 4.5588 213.299 2.2068 214.916V224.128H8.2338V219.375C9.2138 218.885 10.2428 218.689 11.3208 218.689C14.6528 218.689 15.8288 220.698 15.8288 223.393C15.8288 226.627 14.1628 229.469 11.1738 232.997C8.6258 235.839 1.7168 243.826 1.7168 243.826V250H24.5508Z" fill="black"/>
<path d="M40.6852 250.49C48.7702 250.49 53.6212 244.708 53.6212 231.478C53.6212 218.15 48.7702 212.368 40.6852 212.368C32.6002 212.368 27.7982 218.199 27.7982 231.527C27.7982 244.757 32.6002 250.49 40.6852 250.49ZM40.6852 244.169C36.7162 244.169 35.2462 239.955 35.2462 231.527C35.2462 223.099 36.7162 218.689 40.6852 218.689C44.6052 218.689 46.2222 223.05 46.2222 231.478C46.2222 239.906 44.6052 244.169 40.6852 244.169Z" fill="black"/>
<path d="M170.806 250V243.679H164.779V212.76H160.075L150.863 216.778V223.638L157.625 220.698V243.679H151.255V250H170.806Z" fill="black"/>
<path d="M186.957 250.49C195.042 250.49 199.893 244.708 199.893 231.478C199.893 218.15 195.042 212.368 186.957 212.368C178.872 212.368 174.07 218.199 174.07 231.527C174.07 244.757 178.872 250.49 186.957 250.49ZM186.957 244.169C182.988 244.169 181.518 239.955 181.518 231.527C181.518 223.099 182.988 218.689 186.957 218.689C190.877 218.689 192.494 223.05 192.494 231.478C192.494 239.906 190.877 244.169 186.957 244.169Z" fill="black"/>
<path d="M216.434 250.49C224.519 250.49 229.37 244.708 229.37 231.478C229.37 218.15 224.519 212.368 216.434 212.368C208.349 212.368 203.547 218.199 203.547 231.527C203.547 244.757 208.349 250.49 216.434 250.49ZM216.434 244.169C212.465 244.169 210.995 239.955 210.995 231.527C210.995 223.099 212.465 218.689 216.434 218.689C220.354 218.689 221.971 223.05 221.971 231.478C221.971 239.906 220.354 244.169 216.434 244.169Z" fill="black"/>
<path d="M3.121 272.16C5.665 272.16 6.353 271.008 6.353 269.76C6.353 268.8 5.809 268.048 4.401 267.792V267.68C5.633 267.392 6.065 266.688 6.065 265.856C6.065 264.768 5.297 263.792 3.057 263.792C2.289 263.792 1.425 263.968 0.785 264.256V265.632C1.441 265.232 2.113 265.04 2.913 265.04C3.985 265.04 4.497 265.424 4.497 266.112C4.497 266.784 4.049 267.264 3.041 267.264H1.809V268.496H3.041C3.969 268.496 4.785 268.736 4.785 269.664C4.785 270.432 4.289 270.912 3.137 270.912C2.289 270.912 1.425 270.688 0.625 270.192V271.6C1.329 272 2.337 272.16 3.121 272.16Z" fill="black"/>
<path d="M10.7454 270.896C9.73738 270.896 9.35338 270.384 9.35338 269.712C9.35338 268.592 10.2494 268.208 12.7134 268.208V268.64C12.7134 270.16 11.7374 270.896 10.7454 270.896ZM10.1694 272.16C11.5134 272.16 12.1694 271.616 12.6814 270.736H12.7934V272H14.2494V266.864C14.2494 264.944 13.2254 263.792 10.9694 263.792C10.0734 263.792 8.98538 263.936 8.23338 264.384V265.824C9.03338 265.296 9.86538 265.104 10.7614 265.104C12.0254 265.104 12.7134 265.696 12.7134 266.848V267.216C9.14538 267.216 7.73738 268.032 7.73738 269.888C7.73738 271.2 8.55338 272.16 10.1694 272.16Z" fill="black"/>
<path d="M19.5702 267.952C18.3862 267.952 17.7463 267.424 17.7463 266.576C17.7463 265.776 18.3862 265.2 19.5702 265.2H20.6583V267.952H19.5702ZM20.6583 269.136V272H22.1943V263.952H19.3463C16.9943 263.952 16.1302 265.296 16.1302 266.528C16.1302 267.696 16.8503 268.544 18.1143 268.848L15.7943 272H17.5702L19.6982 269.136H20.6583Z" fill="black"/>
<path d="M24.4651 272H27.4411C29.9371 272 30.7851 270.944 30.7851 269.664C30.7851 268.752 30.1291 268.016 28.8331 267.824V267.712C29.8571 267.52 30.4331 266.944 30.4331 265.952C30.4331 264.848 29.6651 263.952 26.9931 263.952H24.4651V272ZM26.0011 267.344V265.12H27.0411C28.2731 265.12 28.8171 265.52 28.8171 266.144C28.8171 266.88 28.3691 267.344 27.0411 267.344H26.0011ZM26.0011 270.848V268.448H27.3771C28.4971 268.448 29.1691 268.816 29.1691 269.664C29.1691 270.4 28.5291 270.848 27.3771 270.848H26.0011Z" fill="black"/>
<path d="M35.6499 272.16C37.7939 272.16 39.4099 270.64 39.4099 267.984C39.4099 265.344 37.7619 263.792 35.6499 263.792C33.4899 263.792 31.8899 265.36 31.8899 268C31.8899 270.656 33.4899 272.16 35.6499 272.16ZM35.6499 270.816C34.4499 270.816 33.5059 269.984 33.5059 268C33.5059 266 34.4499 265.136 35.6499 265.136C36.7859 265.136 37.7939 266 37.7939 267.984C37.7939 269.968 36.8179 270.816 35.6499 270.816Z" fill="black"/>
<path d="M42.673 268.672L43.329 268.496L45.793 272H47.665L44.609 267.616L47.393 263.952H45.873L43.329 267.28L42.673 267.424V263.952H41.137V272H42.673V268.672Z" fill="black"/>
<path d="M52.6839 272H55.6599C58.1559 272 59.0039 270.944 59.0039 269.664C59.0039 268.752 58.3479 268.016 57.0519 267.824V267.712C58.0759 267.52 58.6519 266.944 58.6519 265.952C58.6519 264.848 57.8839 263.952 55.2119 263.952H52.6839V272ZM54.2199 267.344V265.12H55.2599C56.4919 265.12 57.0359 265.52 57.0359 266.144C57.0359 266.88 56.5879 267.344 55.2599 267.344H54.2199ZM54.2199 270.848V268.448H55.5959C56.7159 268.448 57.3879 268.816 57.3879 269.664C57.3879 270.4 56.7479 270.848 55.5959 270.848H54.2199Z" fill="black"/>
<path d="M65.7775 270.672C66.5615 269.536 66.7695 267.36 66.7855 265.28H69.2815V270.672H65.7775ZM64.9615 272H70.7375L70.8975 274.112H72.1935V270.672H70.8335V263.952H65.5215C65.5055 267.872 65.1055 269.632 64.2895 270.672H63.5055V274.112H64.8015L64.9615 272Z" fill="black"/>
<path d="M76.8743 272.16C78.0423 272.16 79.0502 271.888 79.5782 271.472V270.048C78.9062 270.608 78.0263 270.816 77.0663 270.816C75.4823 270.816 74.5223 269.904 74.5383 268.08H79.7542C79.8022 267.92 79.8503 267.504 79.8503 267.088C79.8503 264.848 78.4263 263.792 76.5383 263.792C74.3783 263.792 72.8743 265.36 72.8743 268C72.8743 270.816 74.3783 272.16 76.8743 272.16ZM74.5222 267.024C74.7142 265.648 75.4503 265.024 76.4583 265.024C77.4023 265.024 78.2342 265.52 78.3142 267.024H74.5222Z" fill="black"/>
<path d="M86.5505 272H88.0865V263.952H86.5505V267.184H83.1105V263.952H81.5745V272H83.1105V268.512H86.5505V272Z" fill="black"/>
<path d="M90.3401 272H92.9481C95.6361 272 96.4521 270.656 96.4521 269.28C96.4521 267.936 95.6361 266.64 92.9481 266.64H91.8761V263.952H90.3401V272ZM91.8761 270.752V267.904H93.0921C94.2601 267.904 94.8361 268.448 94.8361 269.296C94.8361 270.176 94.2601 270.752 93.0921 270.752H91.8761Z" fill="black"/>
<path d="M152.121 272.16C154.665 272.16 155.353 271.008 155.353 269.76C155.353 268.8 154.809 268.048 153.401 267.792V267.68C154.633 267.392 155.065 266.688 155.065 265.856C155.065 264.768 154.297 263.792 152.057 263.792C151.289 263.792 150.425 263.968 149.785 264.256V265.632C150.441 265.232 151.113 265.04 151.913 265.04C152.985 265.04 153.497 265.424 153.497 266.112C153.497 266.784 153.049 267.264 152.041 267.264H150.809V268.496H152.041C152.969 268.496 153.785 268.736 153.785 269.664C153.785 270.432 153.289 270.912 152.137 270.912C151.289 270.912 150.425 270.688 149.625 270.192V271.6C150.329 272 151.337 272.16 152.121 272.16Z" fill="black"/>
<path d="M159.745 270.896C158.737 270.896 158.353 270.384 158.353 269.712C158.353 268.592 159.249 268.208 161.713 268.208V268.64C161.713 270.16 160.737 270.896 159.745 270.896ZM159.169 272.16C160.513 272.16 161.169 271.616 161.681 270.736H161.793V272H163.249V266.864C163.249 264.944 162.225 263.792 159.969 263.792C159.073 263.792 157.985 263.936 157.233 264.384V265.824C158.033 265.296 158.865 265.104 159.761 265.104C161.025 265.104 161.713 265.696 161.713 266.848V267.216C158.145 267.216 156.737 268.032 156.737 269.888C156.737 271.2 157.553 272.16 159.169 272.16Z" fill="black"/>
<path d="M168.57 267.952C167.386 267.952 166.746 267.424 166.746 266.576C166.746 265.776 167.386 265.2 168.57 265.2H169.658V267.952H168.57ZM169.658 269.136V272H171.194V263.952H168.346C165.994 263.952 165.13 265.296 165.13 266.528C165.13 267.696 165.85 268.544 167.114 268.848L164.794 272H166.57L168.698 269.136H169.658Z" fill="black"/>
<path d="M173.465 272H176.441C178.937 272 179.785 270.944 179.785 269.664C179.785 268.752 179.129 268.016 177.833 267.824V267.712C178.857 267.52 179.433 266.944 179.433 265.952C179.433 264.848 178.665 263.952 175.993 263.952H173.465V272ZM175.001 267.344V265.12H176.041C177.273 265.12 177.817 265.52 177.817 266.144C177.817 266.88 177.369 267.344 176.041 267.344H175.001ZM175.001 270.848V268.448H176.377C177.497 268.448 178.169 268.816 178.169 269.664C178.169 270.4 177.529 270.848 176.377 270.848H175.001Z" fill="black"/>
<path d="M184.65 272.16C186.794 272.16 188.41 270.64 188.41 267.984C188.41 265.344 186.762 263.792 184.65 263.792C182.49 263.792 180.89 265.36 180.89 268C180.89 270.656 182.49 272.16 184.65 272.16ZM184.65 270.816C183.45 270.816 182.506 269.984 182.506 268C182.506 266 183.45 265.136 184.65 265.136C185.786 265.136 186.794 266 186.794 267.984C186.794 269.968 185.818 270.816 184.65 270.816Z" fill="black"/>
<path d="M191.673 268.672L192.329 268.496L194.793 272H196.665L193.609 267.616L196.393 263.952H194.873L192.329 267.28L191.673 267.424V263.952H190.137V272H191.673V268.672Z" fill="black"/>
<path d="M201.684 272H204.66C207.156 272 208.004 270.944 208.004 269.664C208.004 268.752 207.348 268.016 206.052 267.824V267.712C207.076 267.52 207.652 266.944 207.652 265.952C207.652 264.848 206.884 263.952 204.212 263.952H201.684V272ZM203.22 267.344V265.12H204.26C205.492 265.12 206.036 265.52 206.036 266.144C206.036 266.88 205.588 267.344 204.26 267.344H203.22ZM203.22 270.848V268.448H204.596C205.716 268.448 206.388 268.816 206.388 269.664C206.388 270.4 205.748 270.848 204.596 270.848H203.22Z" fill="black"/>
<path d="M218.425 272H219.962V263.952H218.425V267.184H214.985V263.952H213.45V272H214.985V268.512H218.425V272Z" fill="black"/>
<path d="M225.671 272.16C226.839 272.16 227.847 271.888 228.375 271.472V270.048C227.703 270.608 226.823 270.816 225.863 270.816C224.279 270.816 223.319 269.904 223.335 268.08H228.551C228.599 267.92 228.647 267.504 228.647 267.088C228.647 264.848 227.223 263.792 225.335 263.792C223.175 263.792 221.671 265.36 221.671 268C221.671 270.816 223.175 272.16 225.671 272.16ZM223.319 267.024C223.511 265.648 224.247 265.024 225.255 265.024C226.199 265.024 227.031 265.52 227.111 267.024H223.319Z" fill="black"/>
<path d="M231.543 270.672C232.327 269.536 232.535 267.36 232.551 265.28H235.047V270.672H231.543ZM230.727 272H236.503L236.663 274.112H237.959V270.672H236.599V263.952H231.287C231.271 267.872 230.871 269.632 230.055 270.672H229.271V274.112H230.567L230.727 272Z" fill="black"/>
<path d="M242.64 272.16C243.808 272.16 244.816 271.888 245.344 271.472V270.048C244.672 270.608 243.792 270.816 242.832 270.816C241.248 270.816 240.288 269.904 240.304 268.08H245.52C245.568 267.92 245.616 267.504 245.616 267.088C245.616 264.848 244.192 263.792 242.304 263.792C240.144 263.792 238.64 265.36 238.64 268C238.64 270.816 240.144 272.16 242.64 272.16ZM240.288 267.024C240.48 265.648 241.216 265.024 242.224 265.024C243.168 265.024 244 265.52 244.08 267.024H240.288Z" fill="black"/>
<path d="M246.912 272.112C249.168 272.112 249.488 268.816 249.504 265.28H251.904V272H253.44V263.952H248.192C248.192 267.68 248.048 270.656 246.704 270.656C246.544 270.656 246.352 270.608 246.352 270.608V272.048C246.352 272.048 246.576 272.112 246.912 272.112Z" fill="black"/>
<path d="M262.1 272.16C264.164 272.16 265.731 270.64 265.731 267.984C265.731 265.344 264.148 263.792 262.1 263.792C260.244 263.792 258.82 265.04 258.532 267.184H257.235V263.952H255.7V272H257.235V268.512H258.499C258.691 270.848 260.164 272.16 262.1 272.16ZM262.1 270.816C260.98 270.816 260.1 269.984 260.1 268C260.1 266 260.98 265.136 262.1 265.136C263.172 265.136 264.116 266 264.116 267.984C264.116 269.968 263.204 270.816 262.1 270.816Z" fill="black"/>
<circle cx="10.002" cy="5" r="5" fill="#BBBBBB"/>
<circle cx="28.002" cy="5" r="5" fill="#BBBBBB"/>
<circle cx="10.002" cy="23" r="5" fill="#BBBBBB"/>
<circle cx="28.002" cy="23" r="5" fill="#BBBBBB"/>
<circle cx="10.002" cy="41" r="5" fill="#BBBBBB"/>
<circle cx="28.002" cy="41" r="5" fill="#BBBBBB"/>
<circle cx="10.002" cy="59" r="5" fill="#BBBBBB"/>
<circle cx="28.002" cy="59" r="5" fill="#BBBBBB"/>
<circle cx="10.002" cy="77" r="5" fill="#BBBBBB"/>
<circle cx="28.002" cy="77" r="5" fill="#BBBBBB"/>
<circle cx="10.002" cy="95" r="5" fill="#BBBBBB"/>
<circle cx="28.002" cy="95" r="5" fill="#BBBBBB"/>
<circle cx="10.002" cy="113" r="5" fill="#BBBBBB"/>
<circle cx="28.002" cy="113" r="5" fill="#BBBBBB"/>
<circle cx="10.002" cy="131" r="5" fill="#BBBBBB"/>
<circle cx="28.002" cy="131" r="5" fill="#BBBBBB"/>
<circle cx="10.002" cy="149" r="5" fill="#BBBBBB"/>
<circle cx="28.002" cy="149" r="5" fill="#BBBBBB"/>
<circle cx="10.002" cy="167" r="5" fill="#BBBBBB"/>
<circle cx="28.002" cy="167" r="5" fill="#BBBBBB"/>
<circle cx="154.002" cy="5" r="5" fill="#BBBBBB"/>
<circle cx="172.002" cy="5" r="5" fill="#BBBBBB"/>
<circle cx="154.002" cy="23" r="5" fill="#BBBBBB"/>
<circle cx="172.002" cy="23" r="5" fill="#BBBBBB"/>
<circle cx="154.002" cy="41" r="5" fill="#BBBBBB"/>
<circle cx="172.002" cy="41" r="5" fill="#BBBBBB"/>
<circle cx="154.002" cy="59" r="5" fill="#BBBBBB"/>
<circle cx="172.002" cy="59" r="5" fill="#BBBBBB"/>
<circle cx="154.002" cy="77" r="5" fill="#BBBBBB"/>
<circle cx="172.002" cy="77" r="5" fill="#BBBBBB"/>
<circle cx="154.002" cy="95" r="5" fill="#BBBBBB"/>
<circle cx="172.002" cy="95" r="5" fill="#BBBBBB"/>
<circle cx="154.002" cy="113" r="5" fill="#BBBBBB"/>
<circle cx="172.002" cy="113" r="5" fill="#BBBBBB"/>
<circle cx="154.002" cy="131" r="5" fill="#BBBBBB"/>
<circle cx="172.002" cy="131" r="5" fill="#BBBBBB"/>
<circle cx="154.002" cy="149" r="5" fill="#BBBBBB"/>
<circle cx="172.002" cy="149" r="5" fill="#BBBBBB"/>
<circle cx="154.002" cy="167" r="5" fill="#BBBBBB"/>
<circle cx="172.002" cy="167" r="5" fill="#BBBBBB"/>
<circle cx="190.002" cy="5" r="5" fill="#BBBBBB"/>
<circle cx="208.002" cy="5" r="5" fill="#BBBBBB"/>
<circle cx="190.002" cy="23" r="5" fill="#BBBBBB"/>
<circle cx="208.002" cy="23" r="5" fill="#BBBBBB"/>
<circle cx="190.002" cy="41" r="5" fill="#BBBBBB"/>
<circle cx="208.002" cy="41" r="5" fill="#BBBBBB"/>
<circle cx="190.002" cy="59" r="5" fill="#BBBBBB"/>
<circle cx="208.002" cy="59" r="5" fill="#BBBBBB"/>
<circle cx="190.002" cy="77" r="5" fill="#BBBBBB"/>
<circle cx="208.002" cy="77" r="5" fill="#BBBBBB"/>
<circle cx="190.002" cy="95" r="5" fill="#BBBBBB"/>
<circle cx="208.002" cy="95" r="5" fill="#BBBBBB"/>
<circle cx="190.002" cy="113" r="5" fill="#BBBBBB"/>
<circle cx="208.002" cy="113" r="5" fill="#BBBBBB"/>
<circle cx="190.002" cy="131" r="5" fill="#BBBBBB"/>
<circle cx="208.002" cy="131" r="5" fill="#BBBBBB"/>
<circle cx="190.002" cy="149" r="5" fill="#BBBBBB"/>
<circle cx="208.002" cy="149" r="5" fill="#BBBBBB"/>
<circle cx="190.002" cy="167" r="5" fill="#BBBBBB"/>
<circle cx="208.002" cy="167" r="5" fill="#BBBBBB"/>
<circle cx="226.002" cy="5" r="5" fill="#BBBBBB"/>
<circle cx="244.002" cy="5" r="5" fill="#BBBBBB"/>
<circle cx="226.002" cy="23" r="5" fill="#BBBBBB"/>
<circle cx="244.002" cy="23" r="5" fill="#BBBBBB"/>
<circle cx="226.002" cy="41" r="5" fill="#BBBBBB"/>
<circle cx="244.002" cy="41" r="5" fill="#BBBBBB"/>
<circle cx="226.002" cy="59" r="5" fill="#BBBBBB"/>
<circle cx="244.002" cy="59" r="5" fill="#BBBBBB"/>
<circle cx="226.002" cy="77" r="5" fill="#BBBBBB"/>
<circle cx="244.002" cy="77" r="5" fill="#BBBBBB"/>
<circle cx="226.002" cy="95" r="5" fill="#BBBBBB"/>
<circle cx="244.002" cy="95" r="5" fill="#BBBBBB"/>
<circle cx="226.002" cy="113" r="5" fill="#BBBBBB"/>
<circle cx="244.002" cy="113" r="5" fill="#BBBBBB"/>
<circle cx="226.002" cy="131" r="5" fill="#BBBBBB"/>
<circle cx="244.002" cy="131" r="5" fill="#BBBBBB"/>
<circle cx="226.002" cy="149" r="5" fill="#BBBBBB"/>
<circle cx="244.002" cy="149" r="5" fill="#BBBBBB"/>
<circle cx="226.002" cy="167" r="5" fill="#BBBBBB"/>
<circle cx="244.002" cy="167" r="5" fill="#BBBBBB"/>
<circle cx="262.002" cy="5" r="5" fill="#BBBBBB"/>
<circle cx="280.002" cy="5" r="5" fill="#BBBBBB"/>
<circle cx="262.002" cy="23" r="5" fill="#BBBBBB"/>
<circle cx="280.002" cy="23" r="5" fill="#BBBBBB"/>
<circle cx="262.002" cy="41" r="5" fill="#BBBBBB"/>
<circle cx="280.002" cy="41" r="5" fill="#BBBBBB"/>
<circle cx="262.002" cy="59" r="5" fill="#BBBBBB"/>
<circle cx="280.002" cy="59" r="5" fill="#BBBBBB"/>
<circle cx="262.002" cy="77" r="5" fill="#BBBBBB"/>
<circle cx="280.002" cy="77" r="5" fill="#BBBBBB"/>
<circle cx="262.002" cy="95" r="5" fill="#BBBBBB"/>
<circle cx="280.002" cy="95" r="5" fill="#BBBBBB"/>
<circle cx="262.002" cy="113" r="5" fill="#BBBBBB"/>
<circle cx="280.002" cy="113" r="5" fill="#BBBBBB"/>
<circle cx="262.002" cy="131" r="5" fill="#BBBBBB"/>
<circle cx="280.002" cy="131" r="5" fill="#BBBBBB"/>
<circle cx="262.002" cy="149" r="5" fill="#BBBBBB"/>
<circle cx="280.002" cy="149" r="5" fill="#BBBBBB"/>
<circle cx="262.002" cy="167" r="5" fill="#BBBBBB"/>
<circle cx="280.002" cy="167" r="5" fill="#BBBBBB"/>
<circle cx="298.002" cy="5" r="5" fill="#BBBBBB"/>
<circle cx="316.002" cy="5" r="5" fill="#BBBBBB"/>
<circle cx="298.002" cy="23" r="5" fill="#BBBBBB"/>
<circle cx="316.002" cy="23" r="5" fill="#BBBBBB"/>
<circle cx="298.002" cy="41" r="5" fill="#BBBBBB"/>
<circle cx="316.002" cy="41" r="5" fill="#BBBBBB"/>
<circle cx="298.002" cy="59" r="5" fill="#BBBBBB"/>
<circle cx="316.002" cy="59" r="5" fill="#BBBBBB"/>
<circle cx="298.002" cy="77" r="5" fill="#BBBBBB"/>
<circle cx="316.002" cy="77" r="5" fill="#BBBBBB"/>
<circle cx="298.002" cy="95" r="5" fill="#BBBBBB"/>
<circle cx="316.002" cy="95" r="5" fill="#BBBBBB"/>
<circle cx="298.002" cy="113" r="5" fill="#BBBBBB"/>
<circle cx="316.002" cy="113" r="5" fill="#BBBBBB"/>
<circle cx="298.002" cy="131" r="5" fill="#BBBBBB"/>
<circle cx="316.002" cy="131" r="5" fill="#BBBBBB"/>
<circle cx="298.002" cy="149" r="5" fill="#BBBBBB"/>
<circle cx="316.002" cy="149" r="5" fill="#BBBBBB"/>
<circle cx="298.002" cy="167" r="5" fill="#BBBBBB"/>
<circle cx="316.002" cy="167" r="5" fill="#BBBBBB"/>
<path d="M72.002 1L81.002 0.999998C86.5248 0.999997 91.002 5.47715 91.002 11L91.002 77C91.002 82.5228 95.4791 87 101.002 87L110.002 87" stroke="#D9D9D9" stroke-width="2"/>
<path d="M72.002 172L81.002 172C86.5248 172 91.002 167.523 91.002 162L91.0019 97C91.0019 91.4772 95.4791 87 101.002 87L110.002 87" stroke="#D9D9D9" stroke-width="2"/>
</svg>
