<svg width="295" height="421" viewBox="0 0 295 421" fill="none" xmlns="http://www.w3.org/2000/svg">
<path d="M122.831 390.916C128.764 390.916 133.574 386.106 133.574 380.173C133.574 374.24 128.764 369.43 122.831 369.43C116.898 369.43 112.088 374.24 112.088 380.173C112.088 386.106 116.898 390.916 122.831 390.916Z" fill="black"/>
<path d="M122.831 390.916C128.764 390.916 133.574 386.106 133.574 380.173C133.574 374.24 128.764 369.43 122.831 369.43C116.898 369.43 112.088 374.24 112.088 380.173C112.088 386.106 116.898 390.916 122.831 390.916Z" stroke="white" stroke-width="1.3" stroke-linecap="round" stroke-linejoin="round"/>
<path d="M182.911 383.34C188.844 383.34 193.654 378.53 193.654 372.597C193.654 366.663 188.844 361.854 182.911 361.854C176.978 361.854 172.168 366.663 172.168 372.597C172.168 378.53 176.978 383.34 182.911 383.34Z" fill="black"/>
<path d="M177.927 382.11C175.605 380.89 173.809 378.861 172.881 376.408C171.952 373.954 171.954 371.245 172.886 368.793C173.819 366.341 175.617 364.315 177.942 363.099C180.266 361.882 182.956 361.559 185.502 362.191C188.049 362.822 190.276 364.364 191.762 366.526C193.249 368.688 193.892 371.319 193.571 373.923C193.25 376.527 191.986 378.923 190.018 380.658C188.05 382.393 185.515 383.348 182.892 383.341" stroke="white" stroke-width="1.3" stroke-linecap="round" stroke-linejoin="round"/>
<path d="M62.2743 383.34C68.2075 383.34 73.0174 378.53 73.0174 372.597C73.0174 366.663 68.2075 361.854 62.2743 361.854C56.3411 361.854 51.5312 366.663 51.5312 372.597C51.5312 378.53 56.3411 383.34 62.2743 383.34Z" fill="black"/>
<path d="M73.0174 372.597C73.0174 374.721 72.3873 376.798 71.2068 378.565C70.0264 380.332 68.3485 381.709 66.3855 382.522C64.4225 383.335 62.2624 383.548 60.1784 383.133C58.0945 382.719 56.1803 381.695 54.6778 380.193C53.1754 378.691 52.1522 376.776 51.7377 374.692C51.3232 372.608 51.5359 370.448 52.349 368.485C53.1621 366.522 54.5391 364.844 56.3058 363.664C58.0725 362.484 60.1495 361.854 62.2743 361.854" stroke="white" stroke-width="1.3" stroke-linecap="round" stroke-linejoin="round"/>
<path d="M116.537 332.684H129.127V293.206H116.537V332.684Z" fill="black"/>
<path d="M129.125 327.281V293.215H116.535V332.692H129.125" stroke="white" stroke-width="1.3" stroke-linecap="round" stroke-linejoin="round"/>
<path d="M59.8325 293.375H185.83V281.53H59.8325V293.375Z" fill="#02B9F6"/>
<path d="M59.8325 293.375H185.83V281.53H59.8325V293.375Z" stroke="black" stroke-width="1.3" stroke-linecap="round" stroke-linejoin="round"/>
<path d="M106.974 99.0859H18.2592C16.6882 99.085 15.1388 99.4521 13.7352 100.158C12.3316 100.863 11.1129 101.888 10.1766 103.15C9.24034 104.411 8.61261 105.875 8.34372 107.422C8.07484 108.97 8.17228 110.56 8.62823 112.063L59.8315 281.539H185.829V259.626C185.829 257.842 185.477 256.074 184.794 254.426C184.111 252.777 183.11 251.28 181.847 250.018C180.585 248.757 179.086 247.756 177.437 247.074C175.788 246.392 174.021 246.042 172.236 246.043H139.471L123.486 113.741C122.998 109.703 121.05 105.983 118.008 103.283C114.966 100.584 111.041 99.0906 106.974 99.0859Z" fill="white"/>
<path d="M30.3923 184.097L59.8315 281.539H185.829V259.626C185.829 257.842 185.477 256.074 184.794 254.426C184.111 252.777 183.11 251.28 181.847 250.018C180.585 248.757 179.086 247.756 177.437 247.074C175.788 246.392 174.021 246.042 172.236 246.043H139.471L123.486 113.741C122.998 109.7 121.046 105.977 118 103.277C114.954 100.577 111.025 99.0857 106.954 99.0859H18.2592C16.6882 99.085 15.1388 99.4521 13.7352 100.158C12.3316 100.863 11.1129 101.888 10.1766 103.15C9.24034 104.411 8.61261 105.875 8.34372 107.422C8.07484 108.97 8.17228 110.56 8.62823 112.063L28.5654 178.05" stroke="black" stroke-width="1.3" stroke-linecap="round" stroke-linejoin="round"/>
<path d="M139.491 246.043H83.7601C72.8383 246.043 67.4668 252.785 67.4668 260.936" stroke="black" stroke-width="1.3" stroke-linecap="round" stroke-linejoin="round"/>
<path d="M92.5663 249.736C92.5663 249.736 87.8203 252.785 87.8203 260.906V281.539" stroke="black" stroke-width="1.3" stroke-linecap="round" stroke-linejoin="round"/>
<path d="M59.832 217.936C59.832 217.936 30.8992 118.617 28.139 110.843C25.3788 103.069 23.9192 99.1367 18.2598 99.1367" stroke="black" stroke-width="1.3" stroke-linecap="round" stroke-linejoin="round"/>
<path d="M51.2037 362.172C52.4338 359.272 54.421 356.755 56.9573 354.886C59.4936 353.017 62.4857 351.864 65.6204 351.548L103.102 347.755L110.251 332.693H135.401L142.549 347.755L180.031 351.548C183.166 351.866 186.159 353.019 188.697 354.888C191.235 356.756 193.224 359.272 194.458 362.172L196.265 366.432H49.3867L51.2037 362.172Z" fill="#02B9F6"/>
<path d="M51.2037 362.172C52.4338 359.272 54.421 356.755 56.9573 354.886C59.4936 353.017 62.4857 351.864 65.6204 351.548L103.102 347.755L110.251 332.693H135.401L142.549 347.755L180.031 351.548C183.166 351.866 186.159 353.019 188.697 354.888C191.235 356.756 193.224 359.272 194.458 362.172L196.265 366.432H49.3867L51.2037 362.172Z" stroke="black" stroke-width="1.3" stroke-linecap="round" stroke-linejoin="round"/>
<path d="M142.549 347.755L135.4 347.189" stroke="black" stroke-width="1.3" stroke-linecap="round" stroke-linejoin="round"/>
<path d="M122.831 350.129C124.859 350.13 126.822 350.845 128.376 352.149C129.93 353.452 130.976 355.261 131.33 357.258L134.041 372.598H111.611L114.332 357.298C114.676 355.292 115.718 353.473 117.273 352.162C118.828 350.85 120.797 350.13 122.831 350.129Z" fill="#02B9F6"/>
<path d="M114.332 357.297C114.684 355.299 115.73 353.489 117.284 352.186C118.838 350.882 120.802 350.167 122.831 350.168V350.168C124.859 350.169 126.822 350.884 128.376 352.188C129.93 353.491 130.976 355.3 131.33 357.297L134.041 372.597H111.611L113.597 361.378" stroke="black" stroke-width="1.3" stroke-linecap="round" stroke-linejoin="round"/>
<path d="M174.83 207.033L201.896 399.922H196.147L163.213 207.033H174.83Z" fill="white"/>
<path d="M0.00134277 196.488L216.342 196.488V189.856L0.00134277 189.856V196.488Z" fill="white"/>
<path d="M-0.000335693 207.033L204.564 207.033V196.499L-0.000335693 196.499V207.033Z" fill="white"/>
<path d="M199.86 207.033L217.225 330.817L208.309 333.775L186.664 207.033H199.86Z" fill="white"/>
<path d="M175.654 212.961L201.896 399.922H196.147L163.213 207.033H174.83" stroke="black" stroke-width="1.3" stroke-linecap="round" stroke-linejoin="round"/>
<path d="M104.134 81.879C105.482 82.2038 106.785 82.6905 108.016 83.3286C111.104 84.6988 110.667 86.9824 110.667 86.9824C113.578 87.9773 116.435 89.124 119.226 90.4178C124.488 92.8008 125.412 99.4829 130.148 107.247C134.884 115.012 146.203 128.177 149.231 131.692C152.259 135.207 151.465 140.003 151.465 140.003L158.971 143.607C158.971 143.607 160.024 139.526 161.95 132.943C163.876 126.36 167.758 106.344 168.741 102.164C169.724 97.9837 168.463 96.1269 167.192 92.3341C165.921 88.5413 165.365 86.0193 166.567 83.835C167.829 81.2072 168.885 78.4851 169.724 75.6933C170.12 74.162 170.14 72.5577 169.784 71.0168C169.733 70.6944 169.798 70.3643 169.967 70.0852C170.137 69.8062 170.399 69.5962 170.709 69.4926C171.019 69.389 171.355 69.3985 171.658 69.5194C171.961 69.6403 172.212 69.8648 172.365 70.153C173.133 71.6392 173.618 73.2553 173.795 74.9189C174.004 77.7982 171.621 79.2776 171.899 83.279C172.177 87.2803 174.877 86.4364 176.188 85.1059C177.499 83.7754 177.935 81.6606 179.901 78.1557C180.732 76.6431 181.337 75.0175 181.698 73.3302L165.812 61.9617L164.581 58.8043L167.967 58.9532L182.314 69.2097C182.393 68.2169 182.423 67.3133 182.423 66.6382C182.39 63.2771 182.862 59.9302 183.823 56.7093C184.935 53.3632 186.375 51.8938 187.368 52.1718C188.361 52.4498 188.122 53.5916 188.122 53.5916C189.205 53.5916 189.532 54.0881 189.373 55.0909C188.972 57.9616 188.999 60.876 189.453 63.7389C189.874 66.6979 190.04 69.6875 189.949 72.6749C189.949 72.6749 190.942 71.0069 191.28 66.4297C191.571 63.5461 192.136 60.6968 192.968 57.9206C193.015 57.7185 193.101 57.5276 193.222 57.3589C193.342 57.1901 193.495 57.0468 193.671 56.9371C193.847 56.8274 194.043 56.7534 194.248 56.7194C194.453 56.6855 194.662 56.6921 194.864 56.7391C195.066 56.786 195.257 56.8723 195.426 56.993C195.595 57.1137 195.738 57.2665 195.848 57.4426C195.957 57.6187 196.031 57.8147 196.065 58.0193C196.099 58.224 196.093 58.4334 196.046 58.6355L195.857 59.6979C195.58 61.7381 195.441 63.7948 195.44 65.8538C195.873 64.9972 196.385 64.1828 196.969 63.4212C197.161 63.1688 197.439 62.9958 197.751 62.9354C198.062 62.875 198.384 62.9313 198.657 63.0936C198.902 63.2373 199.093 63.4592 199.197 63.7238C199.301 63.9885 199.314 64.2805 199.233 64.5531C199.034 65.2283 198.736 66.2708 198.359 67.6807C197.494 71.5511 196.891 75.4752 196.552 79.4266L205.528 85.8704C205.76 85.9967 205.962 86.171 206.121 86.3817C206.281 86.5925 206.393 86.8348 206.451 87.0924C206.51 87.3501 206.512 87.6172 206.459 87.8759C206.405 88.1347 206.298 88.379 206.142 88.5927C205.987 88.8064 205.788 88.9845 205.558 89.1151C205.329 89.2458 205.074 89.3259 204.811 89.3501C204.548 89.3744 204.283 89.3423 204.033 89.2558C203.783 89.1694 203.555 89.0308 203.363 88.8491L196.165 83.696C195.966 86.2974 195.668 88.0746 194.636 89.4845C193.315 91.2817 188.867 98.5 186.097 102.233C183.327 105.966 181.649 108.727 180.924 114.148C180.199 119.569 180.229 138.702 180.229 138.702C185.124 143.666 192.144 154.31 190.396 157.09C188.649 159.87 178.223 175.27 175.205 179.043C172.187 182.816 171.313 185.209 166.795 185.209C162.278 185.209 153.361 177.028 146.59 170.733C139.818 164.438 140.563 162.094 134.675 155.839C128.787 149.584 118.928 138.722 118.928 138.722C118.928 138.722 120.258 142.614 117.935 148.571C115.612 154.529 114.351 159.185 114.351 159.185H114.271H112.812C113.056 157.306 113.424 155.445 113.914 153.615C116.168 145.513 109.108 132.904 106.716 122.995C104.323 113.085 103.538 92.8008 104.134 81.879Z" fill="white"/>
<path d="M112.852 159.246H112.108C109.55 159.191 107.067 160.106 105.157 161.808C103.043 163.516 93.0144 170.744 90.7904 172.064C90.2443 166.782 90.5024 165.005 91.8925 159.792C93.2825 154.58 96.5888 142.586 93.1137 133.203C89.6386 123.82 72.0843 83.5385 70.3468 79.5371C69.7311 78.1522 69.2458 76.7129 68.8972 75.2379L68.5099 73.1131C68.2816 71.2465 68.5099 66.8381 77.0091 68.5359C85.5082 70.2338 104.691 70.9883 104.105 81.9101C103.519 92.8319 104.333 113.176 106.736 123.075C109.139 132.974 116.188 145.594 113.935 153.696C113.456 155.521 113.094 157.375 112.852 159.246Z" fill="black"/>
<path d="M112.852 159.246H112.108C109.55 159.191 107.067 160.106 105.157 161.808C103.043 163.516 93.0144 170.744 90.7904 172.064C90.2443 166.782 90.5024 165.005 91.8925 159.792C93.2825 154.58 96.5888 142.586 93.1137 133.203C89.6386 123.82 72.0843 83.5385 70.3468 79.5371C69.7311 78.1522 69.2458 76.7129 68.8972 75.2379L68.5099 73.1131C68.2816 71.2465 68.5099 66.8381 77.0091 68.5359C85.5082 70.2338 104.691 70.9883 104.105 81.9101C103.519 92.8319 104.333 113.176 106.736 123.075C109.139 132.974 116.188 145.594 113.935 153.696C113.456 155.521 113.094 157.375 112.852 159.246V159.246Z" stroke="black" stroke-width="1.3" stroke-linecap="round" stroke-linejoin="round"/>
<path d="M111.313 174.704C111.581 174.704 111.879 174.704 112.177 174.704C112.177 175.409 112.246 176.114 112.286 176.829C111.179 176.55 110.137 176.058 109.218 175.38C108.344 174.536 109.824 174.595 111.313 174.704Z" fill="black"/>
<path d="M111.313 174.704C111.581 174.704 111.879 174.704 112.177 174.704C112.177 175.409 112.246 176.114 112.286 176.829C111.179 176.55 110.137 176.058 109.218 175.38C108.344 174.536 109.824 174.595 111.313 174.704Z" stroke="black" stroke-width="1.3" stroke-linecap="round" stroke-linejoin="round"/>
<path d="M112.197 174.725C112.197 175.43 112.267 176.135 112.306 176.849" stroke="white" stroke-width="1.3" stroke-linecap="round" stroke-linejoin="round"/>
<path d="M89.0629 187.463C93.9678 187.463 95.6755 186.182 99.2996 183.839C102.924 181.496 104.711 180.493 108.494 180.582C110.569 180.582 111.582 180.463 112.574 180.582C112.866 183.694 113.33 186.786 113.965 189.846H87.6133C88.0308 189.069 88.3989 188.266 88.7154 187.443L89.0629 187.463Z" fill="black"/>
<path d="M89.0629 187.463C93.9678 187.463 95.6755 186.182 99.2996 183.839C102.924 181.496 104.711 180.493 108.494 180.582C110.569 180.582 111.582 180.463 112.574 180.582C112.866 183.694 113.33 186.786 113.965 189.846H87.6133C88.0308 189.069 88.3989 188.266 88.7154 187.443L89.0629 187.463Z" stroke="black" stroke-width="1.3" stroke-linecap="round" stroke-linejoin="round"/>
<path d="M112.576 180.602C112.867 183.713 113.331 186.806 113.966 189.865" stroke="white" stroke-width="1.3" stroke-linecap="round" stroke-linejoin="round"/>
<path d="M103.997 79.8646C103.997 79.8646 103.719 76.3597 99.0918 73.8477" stroke="white" stroke-width="1.3" stroke-linecap="round" stroke-linejoin="round"/>
<path d="M110.768 31.0234C113.746 36.4247 123.675 42.9381 123.675 42.9381C123.675 42.9381 118.959 51.7947 109.934 54.3166L110.768 31.0234Z" fill="black"/>
<path d="M115.562 36.6333C118.105 38.9153 120.806 41.0155 123.644 42.9182C123.644 42.9182 118.928 51.7748 109.902 54.2967L110.766 31.0234" stroke="white" stroke-width="1.3" stroke-linecap="round" stroke-linejoin="round"/>
<path d="M110.767 31.0239C110.261 27.2012 109.039 22.0879 109.039 22.0879L111.343 21.9886C111.343 21.9886 111.273 21.5418 111.075 20.7574C109.576 14.9018 106.104 9.7421 101.244 6.14826C96.3841 2.55442 90.4336 0.746284 84.3958 1.02871L75.2116 1.41594C67.7173 1.701 60.5299 4.467 54.7779 9.27961C53.6858 10.2129 52.5737 11.2654 51.4716 12.3774C48.0878 15.9579 45.8128 20.4414 44.9213 25.2866C44.0298 30.1317 44.5599 35.1314 46.4476 39.6819C48.413 44.5153 48.7614 49.855 47.4405 54.9028L45.6732 61.5453C49.3064 64.3485 53.4364 66.4404 57.846 67.7111C58.735 65.6295 59.4006 63.4595 59.8317 61.2375C60.2867 63.6242 60.5326 66.0461 60.5665 68.4756C64.6215 69.567 68.8243 70.006 73.0173 69.7763L72.6996 72.4174C72.6996 72.4174 89.3503 80.9264 98.5147 79.3676L100.024 64.4743C100.024 64.4743 108.751 63.4814 111.67 61.5453C111.67 61.5453 114.48 59.4006 114.202 52.8773L113.597 38.7585C113.507 36.2266 111.263 34.8564 110.767 31.0239Z" fill="white"/>
<path d="M110.767 31.0239C110.261 27.2012 109.039 22.0879 109.039 22.0879L111.343 21.9886C111.343 21.9886 111.273 21.5418 111.075 20.7574C109.576 14.9018 106.104 9.7421 101.244 6.14826C96.3841 2.55442 90.4336 0.746284 84.3958 1.02871L75.2116 1.41594C67.7173 1.701 60.5299 4.467 54.7779 9.27961C53.6858 10.2129 52.5737 11.2654 51.4716 12.3774C48.0878 15.9579 45.8128 20.4414 44.9213 25.2866C44.0298 30.1317 44.5599 35.1314 46.4476 39.6819V39.6819C48.413 44.5153 48.7614 49.855 47.4405 54.9028L45.6732 61.5453C49.3064 64.3485 53.4364 66.4404 57.846 67.7111C58.735 65.6295 59.4006 63.4595 59.8318 61.2375C60.2867 63.6242 60.5326 66.0461 60.5665 68.4756C64.6215 69.567 68.8243 70.006 73.0173 69.7763L72.6996 72.4174C72.6996 72.4174 88.8936 80.9264 98.5147 79.3676L100.024 64.4743C100.024 64.4743 108.722 64.2062 111.67 61.5453C111.67 61.5453 114.48 59.4006 114.202 52.8773L113.597 38.7585C113.507 36.2266 111.263 34.8564 110.767 31.0239Z" stroke="black" stroke-width="1.3" stroke-linecap="round" stroke-linejoin="round"/>
<path d="M84.3958 1.02778L75.2116 1.41501C67.7173 1.70007 60.5299 4.46607 54.7779 9.27869C53.6858 10.212 52.5737 11.2645 51.4716 12.3765C48.0878 15.957 45.8128 20.4405 44.9213 25.2857C44.0298 30.1308 44.5599 35.1305 46.4476 39.6809C48.413 44.5144 48.7614 49.8541 47.4405 54.9019L45.6732 61.5443C49.3064 64.3476 53.4364 66.4395 57.846 67.7102C58.735 65.6286 59.4006 63.4586 59.8317 61.2365C60.2867 63.6233 60.5326 66.0452 60.5665 68.4747C65.1139 69.5726 69.7935 70.0239 74.4669 69.8151C82.966 69.6066 87.9206 66.5088 87.9206 66.5088C87.9206 66.5088 77.525 60.0749 76.0953 26.4457L78.8853 32.4031C82.8591 32.4632 86.7966 31.6391 90.4127 29.9903C96.2211 27.2599 102.407 22.4444 109.039 22.1664L111.343 22.0671C111.343 22.0671 111.273 21.6203 111.075 20.8359C109.591 14.9656 106.126 9.78774 101.265 6.17832C96.4032 2.56891 90.4442 0.749469 84.3958 1.02778Z" fill="black"/>
<path d="M84.3958 1.02778L75.2116 1.41501C67.7173 1.70007 60.5299 4.46607 54.7779 9.27869C53.6858 10.212 52.5737 11.2645 51.4716 12.3765C48.0878 15.957 45.8128 20.4405 44.9213 25.2857C44.0298 30.1308 44.5599 35.1305 46.4476 39.6809C48.413 44.5144 48.7614 49.8541 47.4405 54.9019L45.6732 61.5443C49.3064 64.3476 53.4364 66.4395 57.846 67.7102C58.735 65.6286 59.4006 63.4586 59.8317 61.2365C60.2867 63.6233 60.5326 66.0452 60.5665 68.4747C65.1139 69.5726 69.7935 70.0239 74.4669 69.8151C82.966 69.6066 87.9206 66.5088 87.9206 66.5088C87.9206 66.5088 77.525 60.0749 76.0953 26.4457L78.8853 32.4031C82.8591 32.4632 86.7966 31.6391 90.4127 29.9903C96.2211 27.2599 102.407 22.4444 109.039 22.1664L111.343 22.0671C111.343 22.0671 111.273 21.6203 111.075 20.8359C109.591 14.9656 106.126 9.78774 101.265 6.17832C96.4032 2.56891 90.4443 0.749469 84.3958 1.02778V1.02778Z" stroke="black" stroke-width="1.3" stroke-linecap="round" stroke-linejoin="round"/>
<path d="M73.7327 54.2486C73.0015 50.7454 72.4579 47.2057 72.1044 43.6445L70.1186 43.724C69.5618 43.7468 69.0173 43.8953 68.5261 44.1584C68.0348 44.4214 67.6094 44.7923 67.2818 45.2431C66.9542 45.6939 66.7328 46.213 66.6343 46.7615C66.5358 47.3101 66.5627 47.8738 66.713 48.4104C67.5669 51.2699 69.503 54.3975 73.7327 54.2486Z" fill="white"/>
<path d="M86.1621 36.2072C89.2354 34.3468 92.6415 33.1024 96.1903 32.5434L96.0711 29.7832C96.0711 29.7832 88.416 30.9647 86.1621 36.2072Z" stroke="black" stroke-width="1.3" stroke-linecap="round" stroke-linejoin="round"/>
<path d="M77.5645 41.6476L85.6466 38.8278L97.3031 35.73C97.3031 35.73 100.053 32.7513 101.662 35.5513C103.301 38.0644 105.074 40.4873 106.974 42.8093C107.288 43.1991 107.496 43.6639 107.577 44.1582C107.658 44.6525 107.609 45.1594 107.434 45.629C107.26 46.0985 106.967 46.5148 106.583 46.8368C106.2 47.1589 105.739 47.3757 105.246 47.4659C104.772 47.5331 104.295 47.5762 103.816 47.595" stroke="black" stroke-width="1.3" stroke-linecap="round" stroke-linejoin="round"/>
<path d="M97.3025 35.7305L98.4245 41.3403C98.6204 42.3708 98.4301 43.4374 97.8899 44.3365C97.3496 45.2357 96.4973 45.9045 95.4954 46.2154L91.792 47.2976C90.9914 47.5339 90.1304 47.4507 89.3899 47.0656C88.6493 46.6806 88.0868 46.0235 87.8204 45.2324L85.6758 38.8084" stroke="black" stroke-width="1.3" stroke-linecap="round" stroke-linejoin="round"/>
<path d="M100.699 34.5195L112.386 31.1934L114.262 38.4514C114.34 38.7456 114.358 39.0525 114.315 39.3539C114.272 39.6552 114.169 39.9448 114.011 40.2053C113.854 40.4657 113.645 40.6917 113.398 40.8698C113.151 41.0478 112.871 41.1742 112.574 41.2414L106.825 42.5818" stroke="black" stroke-width="1.3" stroke-linecap="round" stroke-linejoin="round"/>
<path d="M100.512 30.0512L100.621 32.4838C102.145 32.3854 103.618 31.889 104.89 31.0441C106.268 30.2241 107.826 29.7536 109.428 29.6739C109.428 29.6739 107.531 26.8144 100.512 30.0512Z" stroke="black" stroke-width="1.3" stroke-linecap="round" stroke-linejoin="round"/>
<path d="M86.1621 36.2072C89.2354 34.3468 92.6415 33.1024 96.1903 32.5434L96.0711 29.7832C96.0711 29.7832 88.416 30.9647 86.1621 36.2072Z" fill="black"/>
<path d="M100.512 30.0512L100.621 32.4838C102.145 32.3854 103.618 31.889 104.89 31.0441C106.268 30.2241 107.826 29.7536 109.428 29.6739C109.428 29.6739 107.531 26.8144 100.512 30.0512Z" fill="black"/>
<path d="M91.4355 40.3467C91.932 42.2034 93.4213 43.4148 94.7121 43.0673C96.0028 42.7197 96.6979 40.9226 96.1915 39.0957L91.4355 40.3467Z" stroke="black" stroke-width="1.3" stroke-linecap="round" stroke-linejoin="round"/>
<path d="M104.9 36.4354C105.337 38.0638 106.479 39.1758 107.452 38.9177C108.425 38.6595 108.862 37.1205 108.445 35.4922L104.9 36.4354Z" stroke="black" stroke-width="1.3" stroke-linecap="round" stroke-linejoin="round"/>
<path d="M91.4355 40.3467C91.932 42.2034 93.4213 43.4148 94.7121 43.0673C96.0028 42.7197 96.6979 40.9226 96.1915 39.0957L91.4355 40.3467Z" fill="black"/>
<path d="M104.9 36.4354C105.337 38.0638 106.479 39.1758 107.452 38.9177C108.425 38.6595 108.862 37.1205 108.445 35.4922L104.9 36.4354Z" fill="black"/>
<path d="M103.152 64.1758C100.086 64.4655 97.0071 64.5981 93.9277 64.5729" stroke="black" stroke-width="1.3" stroke-linecap="round" stroke-linejoin="round"/>
<path d="M103.201 53.3746C103.641 52.7761 104.222 52.2954 104.892 51.975C105.563 51.6546 106.302 51.5044 107.044 51.5378" stroke="black" stroke-width="1.3" stroke-linecap="round" stroke-linejoin="round"/>
<path d="M109.039 22.1173L111.343 22.018C111.343 22.018 111.273 21.5712 111.075 20.7868C109.582 14.9257 106.112 9.75921 101.252 6.15954C96.3912 2.55986 90.4376 0.74748 84.3958 1.02836L75.2116 1.41559C67.7173 1.70065 60.5299 4.46665 54.7779 9.27926C53.6858 10.2126 52.5737 11.265 51.4716 12.3771C48.0878 15.9576 45.8128 20.4411 44.9213 25.2862C44.0298 30.1314 44.5599 35.131 46.4476 39.6815C48.413 44.5149 48.7614 49.8547 47.4405 54.9025L45.6732 61.5449C49.3064 64.3481 53.4364 66.4401 57.846 67.7107C58.735 65.6292 59.4006 63.4591 59.8317 61.2371C60.2867 63.6239 60.5326 66.0458 60.5665 68.4753C63.4146 69.1665 66.3187 69.6018 69.2443 69.7759C68.8814 70.2423 68.6271 70.7838 68.4999 71.361C68.3728 71.9381 68.3761 72.5363 68.5096 73.1121" stroke="white" stroke-width="1.3" stroke-linecap="round" stroke-linejoin="round"/>
<path d="M67.5176 187.464H89.0633C93.9681 187.464 95.6759 186.183 99.2999 183.84C102.924 181.497 104.711 180.494 108.494 180.583C112.277 180.672 112.545 180.047 115.514 181.844C117.656 183.06 119.89 184.106 122.196 184.972C122.42 185.058 122.667 185.065 122.896 184.993C123.125 184.921 123.323 184.773 123.457 184.574C123.54 184.458 123.599 184.325 123.63 184.185C123.661 184.044 123.663 183.899 123.636 183.758C123.609 183.617 123.554 183.483 123.473 183.364C123.393 183.245 123.29 183.143 123.169 183.065C121.918 182.231 119.694 180.742 118.552 179.838C117.3 178.731 115.818 177.914 114.213 177.446C112.505 176.929 110.053 176.244 109.249 175.39C108.444 174.536 109.874 174.596 111.364 174.705C112.853 174.814 114.839 174.368 116.944 175.39C118.929 176.383 125.065 179.948 129.206 181.119C129.501 181.199 129.815 181.17 130.091 181.037C130.366 180.903 130.584 180.675 130.705 180.394C130.824 180.117 130.839 179.806 130.748 179.518C130.657 179.23 130.465 178.984 130.209 178.826C129.593 178.438 128.699 177.833 127.716 177.098C128.582 177.351 129.46 177.556 130.348 177.714C130.579 177.754 130.817 177.725 131.032 177.632C131.247 177.538 131.43 177.384 131.559 177.187C131.652 177.049 131.714 176.893 131.743 176.729C131.771 176.565 131.764 176.397 131.723 176.236C131.682 176.074 131.607 175.924 131.503 175.793C131.4 175.663 131.27 175.556 131.122 175.48C129.988 174.894 128.952 174.133 128.054 173.226C126.118 171.24 124.867 169.919 123.665 168.718C122.601 167.542 121.223 166.695 119.694 166.276C117.42 165.422 114.114 164.29 114.114 164.29C114.114 164.29 115.762 163.773 117.301 163.376C118.84 162.979 120.895 162.006 122.772 163.376C124.782 164.867 126.942 166.144 129.216 167.189C129.864 167.427 130.528 167.622 131.201 167.775C131.344 167.809 131.492 167.814 131.637 167.79C131.782 167.767 131.921 167.714 132.045 167.637C132.17 167.559 132.278 167.458 132.363 167.338C132.448 167.219 132.509 167.084 132.542 166.941C132.602 166.705 132.583 166.456 132.488 166.231C132.393 166.007 132.227 165.82 132.016 165.7C130.674 164.964 129.377 164.148 128.133 163.257C127.141 162.513 125.721 161.271 124.638 160.348C123.548 159.38 122.124 158.871 120.667 158.928C118.115 159.057 114.134 159.236 112.168 159.276C109.611 159.22 107.127 160.136 105.218 161.837C103.103 163.545 93.0745 170.773 90.8505 172.094C88.6264 173.414 87.7129 173.345 84.4662 173.146C81.2194 172.948 79.1145 172.719 76.4337 172.551C73.7529 172.382 70.7643 178.627 67.5176 187.464Z" fill="white"/>
<path d="M67.5176 187.464H89.0633C93.9681 187.464 95.6759 186.183 99.2999 183.84C102.924 181.497 104.711 180.494 108.494 180.583C112.277 180.672 112.545 180.047 115.514 181.844C117.656 183.06 119.89 184.106 122.196 184.972C122.42 185.058 122.667 185.065 122.896 184.993C123.125 184.921 123.323 184.773 123.457 184.574V184.574C123.54 184.458 123.599 184.325 123.63 184.185C123.661 184.044 123.663 183.899 123.636 183.758C123.609 183.617 123.554 183.483 123.473 183.364C123.393 183.245 123.29 183.143 123.169 183.065C121.918 182.231 119.694 180.742 118.552 179.838C117.3 178.731 115.818 177.914 114.213 177.446C112.505 176.929 110.053 176.244 109.249 175.39C108.444 174.536 109.874 174.596 111.364 174.705C112.853 174.814 114.839 174.368 116.944 175.39C118.929 176.383 125.065 179.948 129.206 181.119C129.501 181.199 129.815 181.17 130.091 181.037C130.366 180.903 130.584 180.675 130.705 180.394C130.824 180.117 130.839 179.806 130.748 179.518C130.657 179.23 130.465 178.984 130.209 178.826C129.593 178.438 128.699 177.833 127.716 177.098C128.582 177.351 129.46 177.556 130.348 177.714C130.579 177.754 130.817 177.725 131.032 177.632C131.247 177.538 131.43 177.384 131.559 177.187C131.652 177.049 131.714 176.893 131.743 176.729C131.771 176.565 131.764 176.397 131.723 176.236C131.682 176.074 131.607 175.924 131.503 175.793C131.4 175.663 131.27 175.556 131.122 175.48C129.988 174.894 128.952 174.133 128.054 173.226C126.118 171.24 124.867 169.919 123.665 168.718C122.601 167.542 121.223 166.695 119.694 166.276C117.42 165.422 114.114 164.29 114.114 164.29C114.114 164.29 115.762 163.773 117.301 163.376C118.84 162.979 120.895 162.006 122.772 163.376C124.782 164.867 126.942 166.144 129.216 167.189C129.864 167.427 130.528 167.622 131.201 167.775C131.344 167.809 131.492 167.814 131.637 167.79C131.782 167.767 131.921 167.714 132.045 167.637C132.17 167.559 132.278 167.458 132.363 167.338C132.448 167.219 132.509 167.084 132.542 166.941C132.602 166.705 132.583 166.456 132.488 166.231C132.393 166.007 132.227 165.82 132.016 165.7C130.674 164.964 129.377 164.148 128.133 163.257C127.141 162.512 125.721 161.271 124.638 160.348C123.548 159.38 122.124 158.871 120.667 158.928C118.115 159.057 114.134 159.236 112.168 159.276C109.611 159.22 107.127 160.136 105.218 161.837C103.103 163.545 93.0745 170.773 90.8505 172.094C88.6264 173.414 87.7129 173.345 84.4662 173.146C81.2194 172.948 79.1145 172.719 76.4337 172.551C73.7529 172.382 70.7643 178.627 67.5176 187.464Z" stroke="black" stroke-width="1.3" stroke-linecap="round" stroke-linejoin="round"/>
<path d="M127.666 177.098C125.307 175.384 123.037 173.552 120.865 171.607C119.643 170.614 118.214 170.177 114.997 169.532C111.78 168.886 110.211 168.43 110.211 168.43" stroke="black" stroke-width="1.3" stroke-linecap="round" stroke-linejoin="round"/>
<path d="M30.782 81.6127C31.0699 77.0157 38.0698 73.759 42.091 71.7434C46.1121 69.7279 48.0483 70.7505 51.861 72.925C55.6737 75.0994 59.2381 76.6284 59.2381 76.6284C61.0377 76.164 62.7103 75.3022 64.1331 74.1065C64.7252 73.594 65.4344 73.2353 66.1982 73.0621C66.9619 72.889 67.7565 72.9067 68.5117 73.1136C68.7379 75.3529 69.3492 77.5363 70.3188 79.5674C72.0563 83.539 89.6106 123.87 93.0857 133.253C96.5608 142.636 93.2545 154.63 91.8644 159.842C90.4744 165.055 90.2163 166.793 90.7623 172.115C88.5383 173.425 87.6248 173.366 84.3781 173.167C81.1313 172.968 79.0264 172.74 76.3456 172.571C73.6648 172.402 70.7358 178.658 67.499 187.465H88.717C88.4005 188.288 88.0324 189.09 87.6149 189.867H45.993C39.9165 189.867 39.43 165.859 38.1492 154.123C36.8684 142.387 33.1847 139.558 32.5493 127.077C31.9138 114.597 30.5039 86.2098 30.782 81.6127Z" fill="white"/>
<path d="M30.782 81.6127C31.0699 77.0157 38.0698 73.759 42.091 71.7434C46.1121 69.7279 48.0483 70.7505 51.861 72.925C55.6737 75.0994 59.2381 76.6285 59.2381 76.6285C61.0377 76.164 62.7103 75.3022 64.1331 74.1065C64.7252 73.594 65.4344 73.2353 66.1982 73.0621C66.9619 72.889 67.7565 72.9067 68.5117 73.1136C68.7379 75.3529 69.3492 77.5363 70.3188 79.5674C72.0563 83.539 89.6106 123.87 93.0857 133.253C96.5608 142.636 93.2545 154.63 91.8644 159.842C90.4744 165.055 90.2163 166.793 90.7623 172.115C88.5383 173.425 87.6248 173.366 84.3781 173.167C81.1313 172.968 79.0264 172.74 76.3456 172.571C73.6648 172.402 70.7358 178.658 67.499 187.465H88.717C88.4005 188.288 88.0324 189.09 87.6149 189.867H45.993C39.9165 189.867 39.43 165.859 38.1492 154.123C36.8684 142.387 33.1847 139.558 32.5493 127.077C31.9138 114.596 30.5039 86.2098 30.782 81.6127Z" stroke="black" stroke-width="1.3" stroke-linecap="round" stroke-linejoin="round"/>
<path d="M76.3736 172.541C68.4901 171.846 58.4023 167.695 58.4023 167.695" stroke="black" stroke-width="1.3" stroke-linecap="round" stroke-linejoin="round"/>
<path d="M51.9688 157.111C51.9688 157.111 58.4027 161.957 62.7019 164.925C67.0011 167.894 67.3883 170.754 67.3883 170.754" stroke="black" stroke-width="1.3" stroke-linecap="round" stroke-linejoin="round"/>
<path d="M60.0801 139.973C60.0801 139.973 61.6588 142.375 63.446 144.848C65.2332 147.32 65.7197 149.008 65.6204 154.638C65.5211 160.267 65.6204 163.931 65.6204 163.931" stroke="black" stroke-width="1.3" stroke-linecap="round" stroke-linejoin="round"/>
<path d="M58.6898 92.6035C54.7182 81.6817 52.7324 77.5215 52.7324 77.5215" stroke="black" stroke-width="1.3" stroke-linecap="round" stroke-linejoin="round"/>
<path d="M61.6493 149.317C60.2738 143.887 59.7446 138.277 60.0806 132.686C60.5671 124.594 62.2153 108.32 59.9316 97.041" stroke="black" stroke-width="1.3" stroke-linecap="round" stroke-linejoin="round"/>
<path d="M62.7024 153.536C62.7024 153.536 54.4415 147.936 48.9707 130.918" stroke="black" stroke-width="1.3" stroke-linecap="round" stroke-linejoin="round"/>
<path d="M67.5289 187.463L66.4863 189.866" stroke="black" stroke-width="1.3" stroke-linecap="round" stroke-linejoin="round"/>
<path d="M83.6819 131.692C83.6819 131.692 74.2693 108.478 68.5105 98.4795C65.0201 92.4334 62.0634 86.0947 59.6738 79.5352" stroke="black" stroke-width="1.3" stroke-linecap="round" stroke-linejoin="round"/>
<path d="M99.0894 95.0352C99.0894 95.0352 95.4058 96.0877 89.3591 93.9629C83.3124 91.8381 77.9707 90.3984 77.9707 90.3984" stroke="white" stroke-width="1.3" stroke-linecap="round" stroke-linejoin="round"/>
<path d="M104.134 81.879C105.482 82.2038 106.785 82.6905 108.016 83.3286C111.104 84.6988 110.667 86.9824 110.667 86.9824C113.578 87.9773 116.435 89.124 119.226 90.4178C124.488 92.8008 125.412 99.4829 130.148 107.247C134.884 115.012 146.203 128.177 149.231 131.692C152.259 135.207 151.465 140.003 151.465 140.003L158.971 143.607C158.971 143.607 160.024 139.526 161.95 132.943C163.876 126.36 167.758 106.344 168.741 102.164C169.724 97.9837 168.463 96.1269 167.192 92.3341C165.921 88.5413 165.365 86.0193 166.567 83.835C167.829 81.2072 168.885 78.4851 169.724 75.6933C170.12 74.162 170.14 72.5577 169.784 71.0168C169.733 70.6944 169.798 70.3643 169.967 70.0852C170.137 69.8062 170.399 69.5962 170.709 69.4926C171.019 69.389 171.355 69.3985 171.658 69.5194C171.961 69.6403 172.212 69.8648 172.365 70.153C173.133 71.6392 173.618 73.2553 173.795 74.9189C174.004 77.7982 171.621 79.2776 171.899 83.279C172.177 87.2803 174.877 86.4364 176.188 85.1059C177.499 83.7754 177.935 81.6606 179.901 78.1557C180.732 76.6431 181.337 75.0175 181.698 73.3302L165.812 61.9617L164.581 58.8043L167.967 58.9532L182.314 69.2097C182.393 68.2169 182.423 67.3133 182.423 66.6382C182.39 63.2771 182.862 59.9302 183.823 56.7093C184.935 53.3632 186.375 51.8938 187.368 52.1718C188.361 52.4498 188.122 53.5916 188.122 53.5916C189.205 53.5916 189.532 54.0881 189.373 55.0909C188.972 57.9616 188.999 60.876 189.453 63.7389C189.874 66.6979 190.04 69.6875 189.949 72.6749C189.949 72.6749 190.942 71.0069 191.28 66.4297C191.571 63.5461 192.136 60.6968 192.968 57.9206C193.015 57.7185 193.101 57.5276 193.222 57.3589C193.342 57.1901 193.495 57.0468 193.671 56.9371C193.847 56.8274 194.043 56.7534 194.248 56.7194C194.453 56.6855 194.662 56.6921 194.864 56.7391C195.066 56.786 195.257 56.8723 195.426 56.993C195.595 57.1137 195.738 57.2665 195.848 57.4426C195.957 57.6187 196.031 57.8147 196.065 58.0193C196.099 58.224 196.093 58.4334 196.046 58.6355L195.857 59.6979C195.58 61.7381 195.441 63.7948 195.44 65.8538C195.873 64.9972 196.385 64.1828 196.969 63.4212C197.161 63.1688 197.439 62.9958 197.751 62.9354C198.062 62.875 198.385 62.9313 198.657 63.0936C198.902 63.2373 199.093 63.4592 199.197 63.7238C199.301 63.9885 199.314 64.2805 199.233 64.5531C199.034 65.2283 198.736 66.2708 198.359 67.6807C197.494 71.5511 196.891 75.4752 196.552 79.4266L205.528 85.8704C205.76 85.9967 205.962 86.171 206.121 86.3817C206.281 86.5925 206.393 86.8348 206.451 87.0924C206.51 87.3501 206.512 87.6172 206.459 87.8759C206.405 88.1347 206.298 88.379 206.142 88.5927C205.987 88.8064 205.788 88.9845 205.558 89.1151C205.329 89.2458 205.074 89.3259 204.811 89.3501C204.548 89.3744 204.283 89.3422 204.033 89.2558C203.783 89.1694 203.555 89.0308 203.363 88.8491L196.165 83.696C195.966 86.2974 195.668 88.0746 194.636 89.4845C193.315 91.2817 188.867 98.5 186.097 102.233C183.327 105.966 181.649 108.727 180.924 114.148C180.199 119.569 180.229 138.702 180.229 138.702C185.124 143.666 192.144 154.31 190.396 157.09C188.649 159.87 178.223 175.27 175.205 179.043C172.187 182.816 171.313 185.209 166.795 185.209C162.278 185.209 153.361 177.028 146.59 170.733C139.818 164.438 140.563 162.094 134.675 155.839C128.787 149.584 118.928 138.722 118.928 138.722C118.928 138.722 120.258 142.614 117.935 148.571C115.612 154.529 114.351 159.185 114.351 159.185H114.271H112.812C113.056 157.306 113.424 155.445 113.914 153.615C116.168 145.513 109.108 132.904 106.716 122.995C104.323 113.085 103.538 92.8008 104.134 81.879Z" stroke="black" stroke-width="1.3" stroke-linecap="round" stroke-linejoin="round"/>
<path d="M189.892 72.6465C189.668 75.1196 189.213 77.5663 188.531 79.9541" stroke="black" stroke-width="1.3" stroke-linecap="round" stroke-linejoin="round"/>
<path d="M184.598 77.6213C185.679 74.5875 186.115 71.3613 185.878 68.1492C185.303 63.6514 185.005 58.7763 185.878 56.8501C186.752 54.9239 186.951 53.7523 188.063 53.6133" stroke="black" stroke-width="1.3" stroke-linecap="round" stroke-linejoin="round"/>
<path d="M195.382 65.8242C194.031 67.9589 193.455 71.5532 192.889 75.068C192.323 78.5828 191.896 82.0877 191.896 82.0877" stroke="black" stroke-width="1.3" stroke-linecap="round" stroke-linejoin="round"/>
<path d="M192.642 76.638L189.713 74.543" stroke="black" stroke-width="1.3" stroke-linecap="round" stroke-linejoin="round"/>
<path d="M191.907 80.6681L188.908 78.5234" stroke="black" stroke-width="1.3" stroke-linecap="round" stroke-linejoin="round"/>
<path d="M185.153 75.8322L181.648 73.3301" stroke="black" stroke-width="1.3" stroke-linecap="round" stroke-linejoin="round"/>
<path d="M185.9 71.8123L182.256 69.2109" stroke="black" stroke-width="1.3" stroke-linecap="round" stroke-linejoin="round"/>
<path d="M174.969 88.1641C177.334 90.7312 178.677 94.0765 178.742 97.5667" stroke="black" stroke-width="1.3" stroke-linecap="round" stroke-linejoin="round"/>
<path d="M196.493 79.3984C196.275 81.1161 196.186 83.7274 196.186 83.7274" stroke="black" stroke-width="1.3" stroke-linecap="round" stroke-linejoin="round"/>
<path d="M179.296 79.3984C178.383 81.2651 181.282 84.2437 183.397 85.6437" stroke="black" stroke-width="1.3" stroke-linecap="round" stroke-linejoin="round"/>
<path d="M180.249 138.723C180.249 143.508 179.812 147.857 179.812 147.857" stroke="black" stroke-width="1.3" stroke-linecap="round" stroke-linejoin="round"/>
<path d="M190.416 157.111C189.324 158.789 168.652 145.196 163.35 136.459" stroke="black" stroke-width="1.3" stroke-linecap="round" stroke-linejoin="round"/>
<path d="M158.971 143.607C157.452 148.83 155.129 162.085 155.129 162.085" stroke="black" stroke-width="1.3" stroke-linecap="round" stroke-linejoin="round"/>
<path d="M155.131 150.447C152.888 152.372 151.002 154.678 149.561 157.258" stroke="black" stroke-width="1.3" stroke-linecap="round" stroke-linejoin="round"/>
<path d="M151.466 139.974C148.359 138.457 145.163 137.131 141.895 136.002" stroke="black" stroke-width="1.3" stroke-linecap="round" stroke-linejoin="round"/>
<path d="M118.94 138.722C118.046 131.176 113.359 121.009 114.243 110.008" stroke="black" stroke-width="1.3" stroke-linecap="round" stroke-linejoin="round"/>
<path d="M119.712 106.662C119.712 106.662 119.196 112.619 116.535 116.829" stroke="black" stroke-width="1.3" stroke-linecap="round" stroke-linejoin="round"/>
<path d="M111.345 103.176C111.345 103.176 110.819 93.4958 110.67 86.9824" stroke="black" stroke-width="1.3" stroke-linecap="round" stroke-linejoin="round"/>
<path d="M80.622 207.033H57.1898C58.4338 212.527 58.4338 218.23 57.1898 223.724C55.0849 232.491 51.0041 250.641 55.5416 255.178C60.0791 259.716 66.4634 258.505 66.4634 258.505C66.4634 258.505 61.8663 250.333 60.655 242.013C60.655 242.013 66.8606 233.851 71.6959 227.348C76.5313 220.844 80.622 207.033 80.622 207.033Z" fill="white"/>
<path d="M80.622 207.033H57.1898C58.4338 212.527 58.4338 218.23 57.1898 223.724C55.0849 232.491 51.0041 250.641 55.5416 255.178C60.0791 259.716 66.4634 258.505 66.4634 258.505C66.4634 258.505 61.8663 250.333 60.655 242.013C60.655 242.013 66.8606 233.851 71.6959 227.348C76.5313 220.844 80.622 207.033 80.622 207.033Z" stroke="black" stroke-width="1.3" stroke-linecap="round" stroke-linejoin="round"/>
<path d="M60.6762 242.014C56.5955 247.157 55.1161 249.808 55.9898 253.055" stroke="black" stroke-width="1.3" stroke-linecap="round" stroke-linejoin="round"/>
<path d="M80.6236 207.033H108.583C108.583 207.033 98.2076 208.572 90.4333 213.755C82.659 218.938 76.3343 218.888 76.3145 218.888C77.9623 215.017 79.4007 211.059 80.6236 207.033V207.033Z" stroke="black" stroke-width="1.3" stroke-linecap="round" stroke-linejoin="round"/>
<path d="M80.6236 207.033H108.583C108.583 207.033 98.2076 208.572 90.4333 213.755C82.659 218.938 76.3343 218.888 76.3145 218.888C77.9623 215.017 79.4007 211.059 80.6236 207.033Z" fill="black"/>
<path d="M199.224 277.776C198.052 273.805 199.075 272.812 197.814 269.128C196.553 265.445 195.531 264.164 193.058 262.695C190.586 261.225 187.568 258.296 172.724 246.61C157.88 234.923 133.554 220.368 128.471 216.654C123.387 212.941 122.146 212.534 121.461 211.293C120.776 210.052 118.939 207.033 118.939 207.033H108.573C108.573 207.033 98.2076 208.572 90.4333 213.755C82.659 218.938 76.3343 218.888 76.3144 218.888C76.2946 218.888 76.3144 218.819 76.3144 218.779C75.0858 221.796 73.531 224.669 71.6776 227.348C66.8423 233.851 60.6367 242.013 60.6367 242.013C61.7289 249.459 65.5019 256.767 66.2863 258.217L66.4451 258.505C71.4989 267.947 77.7243 267.977 88.6858 267.977C99.6473 267.977 105.456 271.521 116.636 274.847C127.816 278.174 139.631 280.805 146.949 282.91C154.266 285.015 159.955 287.318 164.572 291.081C167.271 293.247 169.693 295.738 171.781 298.498C173.946 303.541 176.457 308.428 179.297 313.123L202.252 287.308C202.252 287.308 200.406 281.708 199.224 277.776Z" fill="#02B9F6"/>
<path d="M78.4395 213.626C78.4702 213.559 78.4968 213.489 78.5189 213.418C78.4968 213.489 78.4702 213.559 78.4395 213.626Z" fill="#02B9F6"/>
<path d="M76.7305 217.886C76.7305 217.787 76.82 217.687 76.8599 217.588C76.82 217.687 76.7802 217.787 76.7305 217.886Z" fill="#02B9F6"/>
<path d="M78.041 214.61C78.041 214.53 78.0908 214.461 78.1206 214.391C78.1505 214.321 78.0709 214.53 78.041 214.61Z" fill="#02B9F6"/>
<path d="M77.1582 216.853L77.2776 216.564L77.1582 216.853Z" fill="#02B9F6"/>
<path d="M79.123 211.621V211.561V211.621Z" stroke="black" stroke-width="1.3" stroke-linecap="round" stroke-linejoin="round"/>
<path d="M79.4316 210.798V210.688V210.798Z" stroke="black" stroke-width="1.3" stroke-linecap="round" stroke-linejoin="round"/>
<path d="M171.82 298.498C169.732 295.738 167.31 293.247 164.611 291.081C159.994 287.318 154.295 285.064 146.988 282.91C139.68 280.755 127.855 278.184 116.675 274.847C105.495 271.511 99.6864 267.977 88.7249 267.977C77.7634 267.977 71.538 267.977 66.4842 258.505L66.3253 258.217C65.5409 256.767 61.768 249.459 60.6758 242.013C60.6758 242.013 66.8813 233.851 71.7167 227.348C73.57 224.669 75.1249 221.796 76.3535 218.779C76.3535 218.779 76.3535 218.849 76.3535 218.888C76.3535 218.928 82.708 218.888 90.4724 213.755C98.2367 208.622 108.622 207.033 108.622 207.033H118.978C118.978 207.033 120.815 210.062 121.5 211.293C122.185 212.524 123.426 212.941 128.51 216.654C133.593 220.368 157.87 234.953 172.763 246.61C187.656 258.266 190.635 261.175 193.097 262.695C195.56 264.214 196.592 265.435 197.853 269.128C199.114 272.822 198.092 273.845 199.263 277.777C200.435 281.708 202.331 287.298 202.331 287.298" stroke="black" stroke-width="1.3" stroke-linecap="round" stroke-linejoin="round"/>
<path d="M78.4395 213.626C78.4702 213.559 78.4968 213.489 78.5189 213.418C78.4968 213.489 78.4702 213.559 78.4395 213.626V213.626Z" stroke="black" stroke-width="1.3" stroke-linecap="round" stroke-linejoin="round"/>
<path d="M76.7305 217.886C76.7305 217.787 76.82 217.687 76.8599 217.588C76.82 217.687 76.7802 217.787 76.7305 217.886Z" stroke="black" stroke-width="1.3" stroke-linecap="round" stroke-linejoin="round"/>
<path d="M78.041 214.61C78.041 214.53 78.0908 214.461 78.1206 214.391C78.1505 214.321 78.0709 214.53 78.041 214.61Z" stroke="black" stroke-width="1.3" stroke-linecap="round" stroke-linejoin="round"/>
<path d="M77.1582 216.853L77.2776 216.564L77.1582 216.853Z" stroke="black" stroke-width="1.3" stroke-linecap="round" stroke-linejoin="round"/>
<path d="M142.213 244.793C125.513 236.682 104.265 225.978 86.6113 221.957" stroke="black" stroke-width="1.3" stroke-linecap="round" stroke-linejoin="round"/>
<path d="M202.293 287.299C194.161 279.823 189.634 274.858 187.588 271.066C185.543 267.273 182.326 262.735 177.213 260.551C172.507 258.565 160.949 253.74 146.096 246.65" stroke="black" stroke-width="1.3" stroke-linecap="round" stroke-linejoin="round"/>
<path d="M115.771 217.588C115.771 217.588 107.49 221.887 103.945 227.388" stroke="black" stroke-width="1.3" stroke-linecap="round" stroke-linejoin="round"/>
<path d="M173.27 189.865H216.341V196.498H207.415" stroke="black" stroke-width="1.3" stroke-linecap="round" stroke-linejoin="round"/>
<path d="M166.299 189.865H12.9375" stroke="black" stroke-width="1.3" stroke-linecap="round" stroke-linejoin="round"/>
<path d="M148.397 207.033H204.565V196.498H3.80273" stroke="black" stroke-width="1.3" stroke-linecap="round" stroke-linejoin="round"/>
<path d="M12.9375 207.033H141.904" stroke="black" stroke-width="1.3" stroke-linecap="round" stroke-linejoin="round"/>
<path d="M213.939 366.759L186.664 207.033H199.86L201.945 221.927" stroke="black" stroke-width="1.3" stroke-linecap="round" stroke-linejoin="round"/>
<path d="M202.619 226.713L217.225 330.817L208.308 333.776" stroke="black" stroke-width="1.3" stroke-linecap="round" stroke-linejoin="round"/>
<path d="M234.103 184.177C231.558 186.823 229.834 190.151 229.143 193.757C228.451 197.363 228.82 201.092 230.206 204.493C231.592 207.893 233.935 210.818 236.95 212.914C239.966 215.009 243.524 216.184 247.194 216.297C250.865 216.409 254.489 215.455 257.627 213.548C260.765 211.642 263.283 208.866 264.875 205.557C266.467 202.249 267.065 198.549 266.595 194.907C266.126 191.265 264.61 187.838 262.232 185.04C263.276 183.274 263.895 181.288 264.041 179.241C264.187 177.194 263.856 175.141 263.073 173.244C262.291 171.347 261.079 169.657 259.532 168.308C257.985 166.96 256.147 165.988 254.161 165.471C252.175 164.954 250.096 164.905 248.088 165.328C246.079 165.751 244.197 166.634 242.588 167.908C240.98 169.183 239.689 170.813 238.818 172.672C237.947 174.53 237.519 176.565 237.568 178.616C237.59 179.468 237.693 180.316 237.876 181.148" fill="white"/>
<path d="M237.876 181.149C237.509 179.355 237.519 177.503 237.903 175.712C238.288 173.921 239.04 172.229 240.111 170.743C241.183 169.257 242.55 168.009 244.128 167.078C245.706 166.148 247.46 165.554 249.279 165.335C251.098 165.116 252.942 165.277 254.696 165.807C256.449 166.336 258.074 167.224 259.468 168.413C260.861 169.602 261.993 171.068 262.792 172.716C263.59 174.365 264.039 176.161 264.108 177.992C264.167 180.469 263.527 182.912 262.261 185.042C264.233 187.357 265.62 190.112 266.305 193.074C266.991 196.037 266.955 199.121 266.2 202.067C265.446 205.013 263.996 207.734 261.971 210.003C259.946 212.272 257.406 214.021 254.564 215.104C251.723 216.187 248.663 216.572 245.642 216.227C242.62 215.881 239.726 214.815 237.203 213.119C234.679 211.422 232.6 209.144 231.139 206.477C229.679 203.809 228.881 200.83 228.811 197.79C228.719 195.278 229.144 192.773 230.06 190.432C230.975 188.09 232.362 185.962 234.133 184.178C235.307 183.08 236.558 182.068 237.876 181.149V181.149Z" stroke="black" stroke-width="1.3" stroke-linecap="round" stroke-linejoin="round" stroke-dasharray="5 5"/>
<path d="M230.768 131.564C233.53 131.202 236.329 131.881 238.62 133.466C240.911 135.052 242.532 137.432 243.167 140.145C243.803 142.858 243.408 145.711 242.059 148.149C240.71 150.587 238.504 152.437 235.868 153.341C233.232 154.244 230.354 154.136 227.794 153.038C225.233 151.94 223.171 149.929 222.009 147.397C220.847 144.864 220.666 141.99 221.503 139.333C222.34 136.675 224.134 134.423 226.538 133.013C227.849 132.278 229.282 131.787 230.768 131.564Z" fill="white"/>
<path d="M230.768 131.564C233.53 131.202 236.329 131.881 238.62 133.466C240.911 135.052 242.532 137.432 243.167 140.145C243.803 142.858 243.408 145.711 242.059 148.149C240.71 150.587 238.504 152.437 235.868 153.341C233.232 154.244 230.354 154.136 227.794 153.038C225.233 151.94 223.171 149.929 222.009 147.397C220.847 144.864 220.666 141.99 221.503 139.333C222.34 136.675 224.134 134.423 226.538 133.013C227.849 132.278 229.282 131.787 230.768 131.564V131.564Z" stroke="black" stroke-width="1.3" stroke-linecap="round" stroke-linejoin="round" stroke-dasharray="5 5"/>
<path d="M292.784 266.725C295.288 276.428 294.144 286.712 289.568 295.627C284.993 304.541 277.305 311.467 267.962 315.089C267.983 315.134 267.999 315.18 268.011 315.228C268.545 317.294 268.533 319.463 267.977 321.523C267.42 323.583 266.339 325.463 264.837 326.979C263.336 328.496 261.467 329.596 259.412 330.173C257.358 330.75 255.189 330.783 253.118 330.27C252.886 338.337 249.518 345.996 243.73 351.621C237.943 357.245 230.191 360.393 222.12 360.394C221.913 372.567 218.038 384.394 211 394.328C203.962 404.262 194.09 411.841 182.675 416.073C171.259 420.305 158.833 420.993 147.02 418.048C135.207 415.102 124.559 408.66 116.467 399.564C114.988 400.224 113.457 400.762 111.89 401.172C104.985 402.942 97.6701 402.088 91.3591 398.776C85.0481 395.463 80.1899 389.928 77.7243 383.241C73.0543 385.833 67.9124 387.465 62.6019 388.039C57.2914 388.613 51.9197 388.118 46.8036 386.583C41.6874 385.048 36.9304 382.504 32.813 379.101C28.6956 375.698 25.3011 371.506 22.8297 366.771C20.3583 362.035 18.86 356.853 18.4231 351.53C17.9863 346.206 18.6197 340.849 20.2861 335.774C21.9524 330.699 24.618 326.009 28.1257 321.981C31.6333 317.953 35.912 314.667 40.7094 312.319C39.114 304.214 39.5258 295.841 41.9088 287.932C44.2918 280.022 48.5736 272.816 54.3809 266.941C60.1883 261.066 67.3447 256.701 75.2261 254.227C83.1075 251.753 91.4746 251.244 99.5976 252.745C99.8062 249.598 100.92 246.579 102.805 244.05C104.689 241.521 107.265 239.59 110.221 238.491C113.177 237.391 116.388 237.17 119.468 237.853C122.547 238.536 125.363 240.094 127.577 242.34C131.937 235.47 137.803 229.682 144.731 225.415C151.659 221.148 159.468 218.514 167.565 217.712C175.662 216.91 183.835 217.962 191.465 220.787C199.096 223.613 205.983 228.138 211.605 234.02C216.36 230.186 222.42 228.354 228.502 228.91C234.584 229.466 240.211 232.367 244.192 236.998C254.567 234.666 265.442 236.465 274.513 242.014C283.583 247.563 290.137 256.427 292.784 266.725Z" fill="white"/>
<path d="M270.256 314.105C269.502 314.443 268.747 314.771 267.963 315.098C267.984 315.143 268 315.19 268.013 315.237C268.207 315.992 268.33 316.763 268.38 317.541" stroke="black" stroke-width="1.3" stroke-linecap="round" stroke-linejoin="round"/>
<path d="M267.952 321.613C267.373 323.702 266.254 325.602 264.708 327.122C263.162 328.642 261.244 329.728 259.145 330.271C258.628 330.4 258.104 330.5 257.576 330.569" stroke="black" stroke-width="1.3" stroke-linecap="round" stroke-linejoin="round" stroke-dasharray="4.17 4.17"/>
<path d="M255.531 330.609C254.704 330.571 253.883 330.451 253.079 330.252C253.079 331.086 253 331.91 252.91 332.724" stroke="black" stroke-width="1.3" stroke-linecap="round" stroke-linejoin="round"/>
<path d="M252.036 337.398C250.619 342.7 247.819 347.53 243.921 351.393C240.023 355.255 235.169 358.012 229.855 359.381C228.862 359.639 227.869 359.838 226.936 359.997" stroke="black" stroke-width="1.3" stroke-linecap="round" stroke-linejoin="round" stroke-dasharray="4.8 4.8"/>
<path d="M224.562 360.275C223.738 360.345 222.904 360.375 222.08 360.375C222.08 361.209 222.08 362.033 221.99 362.857" stroke="black" stroke-width="1.3" stroke-linecap="round" stroke-linejoin="round"/>
<path d="M221.514 367.662C219.984 378.692 215.438 389.085 208.377 397.696C201.317 406.306 192.016 412.8 181.499 416.461C170.983 420.122 159.66 420.807 148.779 418.443C137.897 416.078 127.88 410.754 119.832 403.059" stroke="black" stroke-width="1.3" stroke-linecap="round" stroke-linejoin="round" stroke-dasharray="4.86 4.86"/>
<path d="M118.156 401.362C117.58 400.766 117.014 400.161 116.458 399.545C115.713 399.873 114.939 400.18 114.154 400.458" stroke="black" stroke-width="1.3" stroke-linecap="round" stroke-linejoin="round"/>
<path d="M109.595 401.639C103.774 402.646 97.7839 401.838 92.4377 399.325C87.0914 396.811 82.6476 392.715 79.709 387.59" stroke="black" stroke-width="1.3" stroke-linecap="round" stroke-linejoin="round" stroke-dasharray="4.72 4.72"/>
<path d="M78.6383 385.514C78.2875 384.773 77.9566 384.008 77.6455 383.221C76.9306 383.628 76.1958 384.015 75.4512 384.382" stroke="black" stroke-width="1.3" stroke-linecap="round" stroke-linejoin="round"/>
<path d="M70.9222 386.29C69.9293 386.637 68.8768 386.955 67.8244 387.223C58.6058 389.59 48.8454 388.593 40.2956 384.411C31.7457 380.23 24.9663 373.138 21.1743 364.408C17.3823 355.679 16.8262 345.884 19.6057 336.781C22.3852 327.678 28.3183 319.864 36.3399 314.742" stroke="black" stroke-width="1.3" stroke-linecap="round" stroke-linejoin="round" stroke-dasharray="4.99 4.99"/>
<path d="M38.4648 313.442C39.1897 313.044 39.9244 312.667 40.679 312.32C40.5201 311.496 40.3811 310.681 40.262 309.867" stroke="black" stroke-width="1.3" stroke-linecap="round" stroke-linejoin="round"/>
<path d="M39.7863 304.961C39.4478 297.757 40.6521 290.564 43.3186 283.863C45.9851 277.161 50.0524 271.107 55.2481 266.105C60.4438 261.103 66.648 257.269 73.4455 254.859C80.2431 252.448 87.477 251.518 94.6632 252.13" stroke="black" stroke-width="1.3" stroke-linecap="round" stroke-linejoin="round" stroke-dasharray="4.96 4.96"/>
<path d="M97.1152 252.399C97.9393 252.508 98.7535 252.637 99.5677 252.796C99.6255 251.971 99.745 251.151 99.9251 250.344" stroke="black" stroke-width="1.3" stroke-linecap="round" stroke-linejoin="round"/>
<path d="M101.562 245.994C103.645 242.202 107.145 239.389 111.297 238.172C115.449 236.955 119.914 237.433 123.714 239.501" stroke="black" stroke-width="1.3" stroke-linecap="round" stroke-linejoin="round" stroke-dasharray="4.69 4.69"/>
<path d="M125.68 240.761C126.343 241.255 126.967 241.8 127.546 242.389C127.993 241.684 128.45 240.999 128.926 240.324" stroke="black" stroke-width="1.3" stroke-linecap="round" stroke-linejoin="round"/>
<path d="M131.887 236.473C136.476 231.05 142.098 226.594 148.425 223.362C154.751 220.13 161.657 218.188 168.741 217.649C175.825 217.109 182.945 217.983 189.689 220.219C196.432 222.455 202.664 226.009 208.021 230.675" stroke="black" stroke-width="1.3" stroke-linecap="round" stroke-linejoin="round" stroke-dasharray="4.89 4.89"/>
<path d="M209.818 232.322C210.414 232.888 211 233.474 211.576 234.07C212.211 233.551 212.874 233.067 213.562 232.62" stroke="black" stroke-width="1.3" stroke-linecap="round" stroke-linejoin="round"/>
<path d="M217.533 230.575C218.48 230.182 219.452 229.85 220.442 229.582C223.922 228.683 227.561 228.593 231.081 229.319C234.601 230.046 237.908 231.569 240.747 233.772" stroke="black" stroke-width="1.3" stroke-linecap="round" stroke-linejoin="round" stroke-dasharray="4.49 4.49"/>
<path d="M242.443 235.25C243.046 235.82 243.619 236.419 244.161 237.047C244.975 236.858 245.779 236.7 246.594 236.571" stroke="black" stroke-width="1.3" stroke-linecap="round" stroke-linejoin="round"/>
<path d="M251.678 236.056C260.909 235.722 269.982 238.523 277.419 244.002C284.857 249.482 290.22 257.317 292.637 266.232C295.055 275.148 294.383 284.62 290.732 293.105C287.08 301.591 280.664 308.59 272.528 312.965" stroke="black" stroke-width="1.3" stroke-linecap="round" stroke-linejoin="round" stroke-dasharray="5.14 5.14"/>
<path d="M201.806 127.393C205.321 127.393 208.17 124.543 208.17 121.028C208.17 117.514 205.321 114.664 201.806 114.664C198.291 114.664 195.441 117.514 195.441 121.028C195.441 124.543 198.291 127.393 201.806 127.393Z" fill="white"/>
<path d="M201.806 127.393C205.321 127.393 208.17 124.543 208.17 121.028C208.17 117.514 205.321 114.664 201.806 114.664C198.291 114.664 195.441 117.514 195.441 121.028C195.441 124.543 198.291 127.393 201.806 127.393Z" stroke="black" stroke-width="1.3" stroke-linecap="round" stroke-linejoin="round" stroke-dasharray="5 5"/>
</svg>
