<svg width="266" height="412" viewBox="0 0 266 412" fill="none" xmlns="http://www.w3.org/2000/svg">
<path d="M135.945 210.36C134.165 206.97 132.545 203.77 131.555 201.53C131.555 201.53 119.195 211.09 112.785 216.03C106.375 220.97 97.5151 222.58 75.7851 224.17C67.5716 235.231 58.7933 245.862 49.4851 256.02L46.6051 281.63C46.5151 281.63 38.5451 355.88 38.4551 355.88L124.905 372.13C125.585 358.7 127.025 336.74 130.235 315.79C132.305 302.33 137.995 269.79 141.805 248.3C144.106 235.353 142.045 222.009 135.945 210.36Z" fill="#02B9F6"/>
<path d="M77.4043 361.43C81.5443 346.34 85.0243 332.14 87.9043 317.91C87.9043 317.91 88.1143 337.5 88.3143 351.59" fill="#02B9F6"/>
<path d="M78.7539 220.07V220V220.07Z" stroke="black" stroke-width="1.3" stroke-linecap="round" stroke-linejoin="round"/>
<path d="M124.904 372.13C125.584 358.7 127.024 336.74 130.234 315.79C132.304 302.33 137.994 269.79 141.804 248.3C144.105 235.353 142.044 222.009 135.944 210.36C134.164 206.97 132.544 203.77 131.554 201.53C131.554 201.53 119.194 211.09 112.784 216.03C106.374 220.97 97.514 222.58 75.784 224.17C67.5706 235.231 58.7922 245.862 49.484 256.02L46.604 281.63H46.334" stroke="black" stroke-width="1.3" stroke-linecap="round" stroke-linejoin="round"/>
<path d="M66.1746 104.91C70.2246 114.42 75.5846 127.31 78.3246 133.91C79.4918 136.735 81.2752 139.263 83.5446 141.31L89.2346 146.48C90.6671 147.786 91.8129 149.374 92.5996 151.145C93.3862 152.917 93.7966 154.832 93.8046 156.77V162.99L111.805 163.59C109.655 157.59 109.585 146.59 109.805 139.75C109.936 135.745 108.893 131.79 106.805 128.37C104.215 124.14 100.335 117.74 95.9946 110.37C88.2346 97.0902 84.2446 81.6302 84.2446 81.6302C84.2446 81.6302 83.3246 79.6302 84.5846 74.9702C85.8446 70.3102 84.4946 68.9702 80.5846 68.7402C76.6746 68.5102 58.3246 67.2102 52.5846 67.2902C46.8446 67.3702 48.3346 70.1102 48.7646 74.2902C48.7446 74.2002 60.5046 91.6302 66.1746 104.91Z" fill="black"/>
<path d="M124.754 188.24C124.115 187.964 123.577 187.498 123.21 186.906C122.844 186.315 122.667 185.625 122.704 184.93L122.754 183.99C119.204 182.06 120.614 180.24 117.824 180.68C115.034 181.12 100.064 183.12 100.064 183.12L97.604 186.63L92.284 186.42L92.054 191.09C91.7707 196.855 90.0779 202.462 87.124 207.42C83.764 213.02 79.844 218.73 75.834 224.17C97.554 222.58 106.424 220.98 112.834 216.03C119.244 211.08 131.604 201.53 131.604 201.53L125.974 188.75L124.754 188.24Z" fill="black"/>
<path d="M84.2455 81.6299C83.9408 80.7335 83.835 79.7814 83.9355 78.8399C84.0157 77.5128 84.2404 76.1984 84.6055 74.9199C85.8655 70.2199 84.5155 68.9199 80.6055 68.6899" stroke="white" stroke-width="1.3" stroke-linecap="round" stroke-linejoin="round"/>
<path d="M48.3355 69.2002C48.0455 70.4102 48.5355 72.1302 48.7455 74.2002" stroke="white" stroke-width="1.3" stroke-linecap="round" stroke-linejoin="round"/>
<path d="M131.554 201.53L125.924 188.75" stroke="white" stroke-width="1.3" stroke-linecap="round" stroke-linejoin="round"/>
<path d="M111.855 163.63C109.705 157.63 109.635 146.63 109.855 139.79C109.986 135.785 108.943 131.829 106.855 128.41C104.265 124.18 100.385 117.78 96.0446 110.41C88.2346 97.0898 84.2446 81.6298 84.2446 81.6298C87.1146 81.4498 93.6146 87.4798 96.9446 89.2798C100.275 91.0798 100.605 93.3298 100.605 93.3298C104.874 94.2371 109.191 94.9048 113.535 95.3298C118.075 95.5697 121.095 97.0198 121.625 102.59C122.155 108.16 123.915 115.08 126.075 123.82C128.235 132.56 133.835 140.82 133.835 140.82C133.835 140.82 141.135 115.82 143.115 106.73C145.095 97.6398 145.705 91.6498 149.475 88.7298C153.245 85.8098 157.145 82.5698 157.145 82.5698H156.255C156.072 82.5599 155.893 82.513 155.729 82.4318C155.564 82.3506 155.418 82.2368 155.3 82.0974C155.181 81.958 155.092 81.7959 155.037 81.621C154.983 81.446 154.965 81.2619 154.985 81.0798L155.215 78.9898C155.595 75.4898 156.415 75.2298 158.345 72.9098C160.275 70.5898 160.455 69.5198 162.605 69.6298L172.145 70.1198C175.065 70.2698 174.865 72.1698 174.865 72.1698L177.385 71.9998C179.915 71.8298 179.865 73.1598 180.335 76.7798C180.805 80.3998 182.085 84.0498 177.185 87.0698C172.285 90.0898 166.185 95.3198 161.735 98.5298C157.285 101.74 158.315 104.72 157.245 116.1C156.175 127.48 153.525 153.48 153.525 153.48L156.785 153.65C154.534 160.192 151.916 166.602 148.945 172.85C144.755 181.29 142.275 182.08 142.275 182.08C143.275 184.61 141.905 186.43 137.705 188.69C133.505 190.95 132.435 192.06 129.455 190.45C127.915 189.62 126.155 188.82 124.795 188.24C124.156 187.963 123.617 187.498 123.251 186.906C122.884 186.314 122.708 185.625 122.745 184.93L122.795 183.99C119.245 182.06 120.655 180.24 117.865 180.68C115.075 181.12 100.105 183.12 100.105 183.12L97.6046 186.63L92.2846 186.42L92.0546 191.09C91.7713 196.854 90.0785 202.461 87.1246 207.42C73.1246 230.74 49.5346 256.02 49.5346 256.02L46.6046 281.63H46.3346C44.7499 281.501 43.2162 281.009 41.8533 280.19C40.4904 279.372 39.335 278.249 38.4774 276.91C37.6197 275.572 37.083 274.053 36.9091 272.473C36.7351 270.892 36.9286 269.293 37.4746 267.8C39.3746 262.54 42.2746 254.5 45.5746 245.3C51.4046 229.03 57.9046 204.91 57.9046 204.91L53.7346 184.96C51.9546 184.87 50.3546 184.69 48.9646 184.48C47.1732 184.207 45.4917 183.446 44.1049 182.28C42.7182 181.114 41.68 179.588 41.1046 177.87C38.5446 170.17 37.5346 162.08 30.9546 145.31C22.8646 124.75 18.2346 109.07 16.6046 101.63C14.9746 94.1898 16.0646 92.2098 19.9146 88.9798C23.7646 85.7498 25.0746 84.9798 30.2646 85.1998C33.6273 85.3323 36.9947 85.1212 40.3146 84.5698C40.3146 84.5698 40.3146 82.6698 43.1746 80.7798C46.0346 78.8898 48.7546 74.1998 48.7546 74.1998C48.7546 74.1998 60.5046 91.6298 66.1746 104.91C70.2246 114.42 75.5846 127.31 78.3246 133.91C79.4918 136.734 81.2752 139.263 83.5446 141.31L89.2346 146.48C90.6671 147.785 91.8129 149.374 92.5996 151.145C93.3863 152.916 93.7966 154.832 93.8046 156.77V162.99L111.855 163.63Z" fill="white"/>
<path d="M53.7246 184.96C51.9446 184.87 50.3446 184.69 48.9546 184.48C47.1632 184.208 45.4817 183.446 44.0949 182.28C42.7082 181.114 41.67 179.588 41.0946 177.87C38.5346 170.17 37.5246 162.08 30.9446 145.31C22.8646 124.75 18.2346 109.07 16.6046 101.63C14.9746 94.1898 16.0646 92.2098 19.9146 88.9798C23.7646 85.7498 25.0746 84.9798 30.2646 85.1998C32.4325 85.2963 34.6046 85.2395 36.7646 85.0298" stroke="black" stroke-width="1.3" stroke-linecap="round" stroke-linejoin="round"/>
<path d="M104.395 94.05C107.44 94.6303 110.515 95.0443 113.605 95.29C118.145 95.53 121.165 96.98 121.695 102.55C122.225 108.12 123.985 115.04 126.145 123.78C128.305 132.52 133.905 140.78 133.905 140.78C133.905 140.78 141.205 115.78 143.185 106.69C145.165 97.6 145.775 91.61 149.545 88.69C153.315 85.77 157.215 82.53 157.215 82.53H156.325C156.142 82.5202 155.963 82.4732 155.799 82.392C155.635 82.3108 155.489 82.1971 155.37 82.0577C155.251 81.9183 155.162 81.7562 155.108 81.5812C155.054 81.4063 155.036 81.2222 155.055 81.04L155.285 78.95C155.665 75.45 156.485 75.19 158.415 72.87C160.345 70.55 160.455 69.52 162.605 69.63L172.145 70.12C175.065 70.27 174.865 72.17 174.865 72.17L177.385 72C179.915 71.83 179.865 73.16 180.335 76.78C180.805 80.4 182.085 84.05 177.185 87.07C172.285 90.09 166.185 95.32 161.735 98.53C157.285 101.74 158.315 104.72 157.245 116.1C156.175 127.48 153.525 153.48 153.525 153.48L156.785 153.65C154.534 160.192 151.917 166.602 148.945 172.85C144.755 181.29 142.275 182.08 142.275 182.08C143.275 184.61 141.905 186.43 137.705 188.69C133.505 190.95 132.435 192.06 129.455 190.45C127.915 189.62 126.155 188.82 124.795 188.24C124.156 187.963 123.618 187.498 123.251 186.906C122.885 186.315 122.708 185.625 122.745 184.93L122.795 183.99C119.245 182.06 120.655 180.24 117.865 180.68C115.075 181.12 100.105 183.12 100.105 183.12L97.6051 186.63L92.2851 186.42L92.0551 191.09C91.7719 196.855 90.0791 202.462 87.1251 207.42C73.1251 230.74 49.5351 256.02 49.5351 256.02L46.6051 281.63H46.3351C44.7504 281.502 43.2168 281.009 41.8539 280.19C40.4909 279.372 39.3356 278.249 38.4779 276.911C37.6203 275.572 37.0836 274.053 36.9096 272.473C36.7357 270.892 36.9292 269.293 37.4751 267.8C39.3751 262.54 42.2751 254.5 45.5751 245.3C51.4051 229.03 57.9051 204.91 57.9051 204.91L54.4851 188.63" stroke="black" stroke-width="1.3" stroke-linecap="round" stroke-linejoin="round"/>
<path d="M40.3047 84.5702C40.3047 84.5702 40.3047 82.6702 43.1647 80.7802C46.0247 78.8902 48.7447 74.2002 48.7447 74.2002C48.7447 74.2002 60.5047 91.6302 66.1747 104.91C70.2247 114.42 75.5847 127.31 78.3247 133.91C79.4919 136.735 81.2753 139.263 83.5447 141.31L89.2347 146.48C90.6672 147.786 91.813 149.374 92.5997 151.146C93.3864 152.917 93.7967 154.832 93.8047 156.77V162.99L111.805 163.59C109.655 157.59 109.585 146.59 109.805 139.75C109.936 135.745 108.893 131.79 106.805 128.37C104.215 124.14 100.335 117.74 95.9947 110.37C88.2347 97.0902 84.2447 81.6302 84.2447 81.6302C87.1147 81.4502 93.6147 87.4802 96.9447 89.2802C100.275 91.0802 100.605 93.3302 100.605 93.3302" stroke="black" stroke-width="1.3" stroke-linecap="round" stroke-linejoin="round"/>
<path d="M157.174 82.5401C159.624 80.6001 159.684 76.0601 159.684 76.0601" stroke="black" stroke-width="1.3" stroke-linecap="round" stroke-linejoin="round"/>
<path d="M162.605 69.6299C165.145 69.7599 165.095 70.9099 164.915 74.2499L164.705 77.6299" stroke="black" stroke-width="1.3" stroke-linecap="round" stroke-linejoin="round"/>
<path d="M167.545 69.8799C170.375 70.0299 170.035 72.6899 169.925 74.8099C169.815 76.9299 169.775 77.8099 169.775 77.8099" stroke="black" stroke-width="1.3" stroke-linecap="round" stroke-linejoin="round"/>
<path d="M174.824 72.1699C175.114 74.7699 175.444 78.1699 175.444 78.1699" stroke="black" stroke-width="1.3" stroke-linecap="round" stroke-linejoin="round"/>
<path d="M100.605 93.3301C102.345 97.5601 104.405 102.33 104.405 102.33" stroke="black" stroke-width="1.3" stroke-linecap="round" stroke-linejoin="round"/>
<path d="M107.744 110.13C107.744 110.13 112.034 118.79 114.544 122.25C117.054 125.71 115.994 128.98 115.224 136.36C114.454 143.74 113.834 156.13 113.834 156.13" stroke="black" stroke-width="1.3" stroke-linecap="round" stroke-linejoin="round"/>
<path d="M113.605 160.24C113.605 160.24 116.135 172.89 130.605 182.07C132.03 182.995 133.655 183.568 135.345 183.742C137.035 183.915 138.742 183.685 140.325 183.07C140.978 182.814 141.596 182.479 142.165 182.07" stroke="black" stroke-width="1.3" stroke-linecap="round" stroke-linejoin="round"/>
<path d="M133.864 140.79C132.024 146.58 125.864 157.54 126.544 163.93" stroke="black" stroke-width="1.3" stroke-linecap="round" stroke-linejoin="round"/>
<path d="M118.395 156.36C118.395 156.36 121.025 149.74 127.815 149.87" stroke="black" stroke-width="1.3" stroke-linecap="round" stroke-linejoin="round"/>
<path d="M153.485 153.48L149.745 153.29C147.125 153.16 144.055 151.14 140.745 148.34C138.735 146.67 136.887 144.815 135.225 142.8" stroke="black" stroke-width="1.3" stroke-linecap="round" stroke-linejoin="round"/>
<path d="M136.105 150.29C136.105 150.29 139.665 153.54 142.715 156C145.765 158.46 150.715 158 150.715 158" stroke="black" stroke-width="1.3" stroke-linecap="round" stroke-linejoin="round"/>
<path d="M122.754 183.99C125.54 185.179 128.518 185.857 131.544 185.99" stroke="black" stroke-width="1.3" stroke-linecap="round" stroke-linejoin="round"/>
<path d="M96.2148 165.68C96.2148 165.68 98.8748 169.77 101.135 172.51C103.395 175.25 103.505 178.16 100.065 183.12" stroke="black" stroke-width="1.3" stroke-linecap="round" stroke-linejoin="round"/>
<path d="M92.2148 168.95C92.2148 168.95 94.4348 172.42 95.7748 174.28C97.1148 176.14 95.6748 179.02 93.5548 181.62" stroke="black" stroke-width="1.3" stroke-linecap="round" stroke-linejoin="round"/>
<path d="M93.8037 162.99L88.3438 162.71C84.7297 162.554 81.1687 161.783 77.8138 160.43C75.0038 159.21 73.2238 159 68.7238 162.71C64.2238 166.42 62.3438 168.01 62.3438 168.01" stroke="black" stroke-width="1.3" stroke-linecap="round" stroke-linejoin="round"/>
<path d="M53.7246 184.96C59.7246 185.32 65.0846 186.49 72.8246 186.55C80.5646 186.61 84.8246 186.04 92.2346 186.42" stroke="black" stroke-width="1.3" stroke-linecap="round" stroke-linejoin="round"/>
<path d="M57.8945 204.91C58.7945 208.24 59.2745 210.1 59.2745 210.1" stroke="black" stroke-width="1.3" stroke-linecap="round" stroke-linejoin="round"/>
<path d="M64.7755 194.34C64.7755 194.34 63.9155 209.34 57.1055 220.18" stroke="black" stroke-width="1.3" stroke-linecap="round" stroke-linejoin="round"/>
<path d="M49.4851 256.02C42.2051 263.78 36.6551 265.12 36.8651 272.02" stroke="black" stroke-width="1.3" stroke-linecap="round" stroke-linejoin="round"/>
<path d="M42.4746 84.6299C42.4746 84.6299 51.7846 91.6299 55.9346 99.7899" stroke="black" stroke-width="1.3" stroke-linecap="round" stroke-linejoin="round"/>
<path d="M31.1543 90.5298C31.1543 90.5298 41.8843 98.7398 46.8043 102.35C51.7243 105.96 52.9243 108.84 54.3443 117.79C55.7643 126.74 56.5843 136.98 61.8343 142.08C67.0843 147.18 66.3843 152.93 66.3843 152.93" stroke="black" stroke-width="1.3" stroke-linecap="round" stroke-linejoin="round"/>
<path d="M64.0645 151.07C60.3184 156.829 55.8971 162.12 50.8945 166.83" stroke="black" stroke-width="1.3" stroke-linecap="round" stroke-linejoin="round"/>
<path d="M70.9152 161.07C70.9152 161.07 70.4952 155.93 62.3652 153.58" stroke="black" stroke-width="1.3" stroke-linecap="round" stroke-linejoin="round"/>
<path d="M57.5137 104.63C57.5987 107.303 57.4616 109.979 57.1037 112.63C56.7056 114.579 55.7463 116.369 54.3438 117.78" stroke="black" stroke-width="1.3" stroke-linecap="round" stroke-linejoin="round"/>
<path d="M64.0742 120.35C64.0742 120.35 68.5142 133.89 70.0742 138.87C71.6342 143.85 72.9042 144.57 78.9342 148.87C84.9642 153.17 88.6042 155.45 88.6042 155.45" stroke="black" stroke-width="1.3" stroke-linecap="round" stroke-linejoin="round"/>
<path d="M111.975 118.12L112.425 109.39" stroke="black" stroke-width="1.3" stroke-linecap="round" stroke-linejoin="round"/>
<path d="M87.9043 317.91C94.5743 282.45 98.8043 253.51 98.8043 253.51" stroke="black" stroke-width="1.3" stroke-linecap="round" stroke-linejoin="round"/>
<path d="M89.3242 243.36C89.3242 243.36 93.0842 245.96 95.8642 247.46C98.6442 248.96 100.464 250.41 104.934 247.92C108.24 245.973 111.393 243.777 114.364 241.35" stroke="black" stroke-width="1.3" stroke-linecap="round" stroke-linejoin="round"/>
<path d="M89.864 115.89C87.5991 120.91 86.5278 126.387 86.734 131.89" stroke="white" stroke-width="1.3" stroke-linecap="round" stroke-linejoin="round"/>
<path d="M91.2041 32.9697C93.6041 38.4697 102.604 45.6297 102.604 45.6297C102.604 45.6297 97.2241 53.7797 88.2441 55.3897L91.2041 32.9697Z" fill="black"/>
<path d="M91.2052 32.97C91.0752 29.22 90.3452 24.18 90.3452 24.18L92.5852 24.3C92.5852 24.3 92.5852 23.86 92.4452 23.08C91.5322 17.2708 88.6449 11.9539 84.2697 8.02495C79.8945 4.09599 74.2987 1.79511 68.4252 1.50996L59.4252 1.04996C52.1536 0.648928 44.9544 2.67118 38.9552 6.79996C37.8052 7.62996 36.6052 8.49996 35.4752 9.49996C31.8661 12.6584 29.2494 16.7948 27.9414 21.409C26.6335 26.0231 26.6904 30.9174 28.1052 35.5C29.5726 40.3633 29.4181 45.572 27.6652 50.34L25.3652 56.63C28.636 59.6649 32.4491 62.0566 36.6052 63.68C37.6466 61.7556 38.4844 59.728 39.1052 57.63C39.3447 59.9558 39.3782 62.2982 39.2052 64.63C43.5243 66.1355 48.0368 67.0145 52.6052 67.24L52.4052 71.24C52.4052 71.24 68.0852 78.45 80.4052 73.7299L80.8852 64.46C80.8852 64.46 86.3952 64.23 89.4052 62.66C89.4052 62.66 92.3152 60.84 92.6452 54.49L93.3452 40.76C93.3952 38.26 91.3352 36.73 91.2052 32.97Z" fill="white"/>
<path d="M91.2052 32.97C91.0752 29.22 90.3452 24.18 90.3452 24.18L92.5852 24.3C92.5852 24.3 92.5852 23.86 92.4452 23.08C91.5323 17.2708 88.6449 11.9539 84.2697 8.02495C79.8945 4.09599 74.2987 1.79511 68.4252 1.50996L59.4252 1.04996C52.1536 0.648928 44.9544 2.67118 38.9552 6.79996C37.8052 7.62996 36.6052 8.49996 35.4752 9.49996C31.8661 12.6584 29.2494 16.7948 27.9414 21.409C26.6335 26.0231 26.6904 30.9174 28.1052 35.5C29.5726 40.3633 29.4181 45.572 27.6652 50.34L25.3652 56.63C28.636 59.6649 32.4491 62.0566 36.6052 63.68C37.6466 61.7556 38.4844 59.728 39.1052 57.63C39.3447 59.9558 39.3782 62.2982 39.2052 64.63C43.5243 66.1355 48.0368 67.0145 52.6052 67.24L52.4052 71.24C52.4052 71.24 68.0852 78.4499 80.4052 73.7299L80.8852 64.46C80.8852 64.46 86.3952 64.23 89.4052 62.66C89.4052 62.66 92.3152 60.84 92.6452 54.49L93.3452 40.76C93.3952 38.26 91.3352 36.73 91.2052 32.97Z" stroke="black" stroke-width="1.3" stroke-linecap="round" stroke-linejoin="round"/>
<path d="M68.4252 1.50996L59.4252 1.04996C52.1536 0.648928 44.9544 2.67118 38.9552 6.79996C37.8052 7.62996 36.6052 8.49996 35.4752 9.49996C31.8661 12.6584 29.2494 16.7948 27.9414 21.409C26.6335 26.0231 26.6904 30.9174 28.1052 35.5C29.5726 40.3633 29.4181 45.572 27.6652 50.34L25.3652 56.63C28.636 59.6649 32.4491 62.0566 36.6052 63.68C37.6466 61.7556 38.4844 59.728 39.1052 57.63C39.3447 59.9558 39.3782 62.2982 39.2052 64.63C43.5243 66.1355 48.0368 67.0145 52.6052 67.24C60.8552 67.82 65.9452 65.24 65.9452 65.24C65.9452 65.24 56.4052 58.06 58.0852 25.33L60.2452 31.33C64.0792 31.7526 67.9592 31.3188 71.6052 30.06C77.4752 27.95 83.9152 23.85 90.3552 24.18L92.5952 24.3C92.5952 24.3 92.5952 23.86 92.4552 23.08C91.5419 17.2692 88.6531 11.9511 84.2758 8.0219C79.8986 4.09274 74.3005 1.79287 68.4252 1.50996Z" fill="black"/>
<path d="M68.4252 1.50996L59.4252 1.04996C52.1536 0.648928 44.9544 2.67118 38.9552 6.79996C37.8052 7.62996 36.6052 8.49996 35.4752 9.49996C31.8661 12.6584 29.2494 16.7948 27.9414 21.409C26.6335 26.0231 26.6904 30.9174 28.1052 35.5C29.5726 40.3633 29.4181 45.572 27.6652 50.34L25.3652 56.63C28.636 59.6649 32.4491 62.0566 36.6052 63.68C37.6466 61.7556 38.4844 59.728 39.1052 57.63C39.3447 59.9558 39.3782 62.2982 39.2052 64.63C43.5243 66.1355 48.0368 67.0145 52.6052 67.24C60.8552 67.82 65.9452 65.24 65.9452 65.24C65.9452 65.24 56.4052 58.06 58.0852 25.33L60.2452 31.33C64.0792 31.7526 67.9592 31.3188 71.6052 30.06C77.4752 27.95 83.9152 23.85 90.3552 24.18L92.5952 24.3C92.5952 24.3 92.5952 23.86 92.4552 23.08C91.5419 17.2692 88.6531 11.9511 84.2758 8.0219C79.8986 4.09274 74.3005 1.79287 68.4252 1.50996V1.50996Z" stroke="black" stroke-width="1.3" stroke-linecap="round" stroke-linejoin="round"/>
<path d="M53.2148 52.06C52.8276 48.5966 52.6239 45.115 52.6048 41.63L50.6848 41.53C50.1431 41.4996 49.6015 41.5928 49.101 41.8024C48.6006 42.0121 48.1543 42.3328 47.796 42.7402C47.4377 43.1477 47.1766 43.6313 47.0326 44.1544C46.8887 44.6776 46.8655 45.2266 46.9648 45.76C47.5148 48.63 49.0648 51.85 53.2148 52.06Z" fill="white"/>
<path d="M66.9043 35.7502C70.0364 34.234 73.432 33.3376 76.9043 33.1102L77.0343 30.4302C77.0343 30.4302 69.6043 30.8802 66.9043 35.7502Z" stroke="black" stroke-width="1.3" stroke-linecap="round" stroke-linejoin="round"/>
<path d="M58.0742 40.2301L66.1642 38.2301L77.7742 36.3001C77.7742 36.3001 80.7142 33.6501 82.0142 36.5101C83.3733 39.0976 84.8687 41.6111 86.4942 44.0401C86.7616 44.4489 86.9178 44.9204 86.9473 45.4081C86.9769 45.8957 86.8788 46.3826 86.6627 46.8208C86.4467 47.2589 86.1201 47.6332 85.7153 47.9066C85.3105 48.1801 84.8414 48.3433 84.3542 48.3801C83.8879 48.4051 83.4205 48.4051 82.9542 48.3801" stroke="black" stroke-width="1.3" stroke-linecap="round" stroke-linejoin="round"/>
<path d="M77.7741 36.3101L78.3141 41.8001C78.414 42.816 78.1341 43.833 77.5284 44.6548C76.9227 45.4765 76.0341 46.0449 75.0341 46.2501L71.3441 47.0201C70.5383 47.1866 69.6994 47.0293 69.0088 46.582C68.3182 46.1347 67.8316 45.4335 67.6541 44.6301L66.1641 38.2101" stroke="black" stroke-width="1.3" stroke-linecap="round" stroke-linejoin="round"/>
<path d="M81.1445 35.4398L92.7545 33.2798L93.9245 40.4798C93.9712 40.7717 93.9591 41.0701 93.889 41.3573C93.8188 41.6445 93.692 41.9148 93.5159 42.1523C93.3399 42.3899 93.1181 42.5899 92.8638 42.7405C92.6094 42.8912 92.3274 42.9895 92.0345 43.0298L86.3345 43.7998" stroke="black" stroke-width="1.3" stroke-linecap="round" stroke-linejoin="round"/>
<path d="M81.3641 31.0898L81.2441 33.4598C82.73 33.5011 84.2011 33.1565 85.5141 32.4598C86.9224 31.7864 88.4748 31.4705 90.0341 31.5398C90.0341 31.5398 88.4541 28.6298 81.3641 31.0898Z" stroke="black" stroke-width="1.3" stroke-linecap="round" stroke-linejoin="round"/>
<path d="M66.9043 35.7502C70.0364 34.234 73.432 33.3376 76.9043 33.1102L77.0343 30.4302C77.0343 30.4302 69.6043 30.8802 66.9043 35.7502Z" fill="black"/>
<path d="M81.3641 31.0898L81.2441 33.4598C82.73 33.5011 84.2011 33.1565 85.5141 32.4598C86.9224 31.7864 88.4748 31.4705 90.0341 31.5398C90.0341 31.5398 88.4541 28.6298 81.3641 31.0898Z" fill="black"/>
<path d="M71.6055 40.2302C71.9155 42.0702 73.2255 43.3802 74.5355 43.1602C75.8455 42.9402 76.6355 41.2702 76.3255 39.4302L71.6055 40.2302Z" stroke="black" stroke-width="1.3" stroke-linecap="round" stroke-linejoin="round"/>
<path d="M85.0352 37.6798C85.3052 39.2998 86.3152 40.4698 87.2752 40.3098C88.2352 40.1498 88.8052 38.6998 88.5352 37.0898L85.0352 37.6798Z" stroke="black" stroke-width="1.3" stroke-linecap="round" stroke-linejoin="round"/>
<path d="M71.6055 40.2302C71.9155 42.0702 73.2255 43.3802 74.5355 43.1602C75.8455 42.9402 76.6355 41.2702 76.3255 39.4302L71.6055 40.2302Z" fill="black"/>
<path d="M85.0352 37.6798C85.3052 39.2998 86.3152 40.4698 87.2752 40.3098C88.2352 40.1498 88.8052 38.6998 88.5352 37.0898L85.0352 37.6798Z" fill="black"/>
<path d="M80.8047 64.42C77.7987 64.4235 74.7946 64.27 71.8047 63.96" stroke="black" stroke-width="1.3" stroke-linecap="round" stroke-linejoin="round"/>
<path d="M81.8438 53.9298C82.3253 53.3909 82.932 52.9787 83.6103 52.7293C84.2886 52.48 85.0178 52.4011 85.7337 52.4998" stroke="black" stroke-width="1.3" stroke-linecap="round" stroke-linejoin="round"/>
<path d="M263.394 264.94C265.78 274.195 264.688 284.003 260.324 292.506C255.96 301.008 248.628 307.614 239.718 311.071C239.718 311.071 239.718 311.156 239.718 311.204C240.221 313.173 240.205 315.24 239.672 317.202C239.14 319.164 238.108 320.955 236.677 322.4C235.247 323.845 233.466 324.894 231.51 325.447C229.553 325.999 227.487 326.035 225.512 325.551C225.29 333.244 222.079 340.548 216.561 345.913C211.042 351.277 203.651 354.281 195.954 354.285C195.753 365.893 192.054 377.169 185.341 386.641C178.628 396.113 169.213 403.339 158.328 407.374C147.442 411.409 135.592 412.066 124.327 409.258C113.062 406.45 102.907 400.309 95.1884 391.636C93.7755 392.272 92.312 392.788 90.8131 393.18C84.2264 394.868 77.2479 394.052 71.2281 390.89C65.2083 387.729 60.5751 382.447 58.2251 376.067C53.7653 378.635 48.8322 380.275 43.7225 380.888C38.6128 381.501 33.4319 381.074 28.4912 379.634C23.5505 378.193 18.952 375.769 14.9722 372.506C10.9923 369.243 7.7133 365.21 5.33214 360.647C2.95097 356.085 1.51686 351.088 1.11599 345.958C0.715124 340.827 1.35578 335.668 2.99945 330.791C4.64313 325.914 7.25588 321.42 10.6807 317.579C14.1055 313.738 18.2716 310.628 22.9286 308.438C21.4159 300.711 21.8154 292.73 24.0924 285.193C26.3694 277.655 30.4548 270.788 35.9927 265.19C41.5307 259.592 48.3533 255.434 55.8663 253.076C63.3792 250.718 71.3547 250.233 79.0981 251.663C79.301 248.662 80.3662 245.783 82.1657 243.373C83.9652 240.963 86.4224 239.124 89.242 238.076C92.0617 237.029 95.1237 236.818 98.0602 237.47C100.997 238.121 103.683 239.606 105.795 241.747C109.954 235.196 115.549 229.677 122.156 225.608C128.764 221.539 136.21 219.027 143.932 218.262C151.654 217.497 159.449 218.5 166.726 221.194C174.003 223.888 180.572 228.202 185.935 233.811C190.471 230.157 196.25 228.41 202.051 228.941C207.851 229.471 213.218 232.236 217.017 236.652C226.907 234.416 237.28 236.119 245.937 241.4C254.594 246.68 260.855 255.123 263.394 264.94Z" fill="white"/>
<path d="M241.905 310.143C241.194 310.475 240.465 310.778 239.727 311.09C239.727 311.09 239.727 311.175 239.727 311.223C239.912 311.942 240.03 312.678 240.077 313.42" stroke="black" stroke-width="1.3" stroke-linecap="round" stroke-linejoin="round"/>
<path d="M239.709 317.302C239.063 319.525 237.783 321.51 236.025 323.016C234.267 324.522 232.108 325.482 229.812 325.778" stroke="black" stroke-width="1.3" stroke-linecap="round" stroke-linejoin="round" stroke-dasharray="4.17 4.17"/>
<path d="M227.86 325.893C227.071 325.856 226.287 325.742 225.52 325.552C225.52 326.347 225.445 327.133 225.359 327.91" stroke="black" stroke-width="1.3" stroke-linecap="round" stroke-linejoin="round"/>
<path d="M224.527 332.408C223.175 337.464 220.504 342.07 216.786 345.755C213.069 349.439 208.439 352.069 203.37 353.375C202.423 353.612 201.476 353.811 200.586 353.953" stroke="black" stroke-width="1.3" stroke-linecap="round" stroke-linejoin="round" stroke-dasharray="4.8 4.8"/>
<path d="M198.322 354.19C197.536 354.256 196.74 354.285 195.964 354.285C195.964 355.071 195.964 355.866 195.869 356.652" stroke="black" stroke-width="1.3" stroke-linecap="round" stroke-linejoin="round"/>
<path d="M195.424 361.236C193.963 371.756 189.626 381.669 182.89 389.882C176.155 398.094 167.282 404.288 157.251 407.779C147.22 411.271 136.419 411.925 126.04 409.67C115.661 407.415 106.105 402.338 98.4277 394.998" stroke="black" stroke-width="1.3" stroke-linecap="round" stroke-linejoin="round" stroke-dasharray="4.86 4.86"/>
<path d="M96.799 393.369C96.2497 392.811 95.7099 392.233 95.189 391.636C94.4693 391.958 93.7401 392.252 92.9824 392.517" stroke="black" stroke-width="1.3" stroke-linecap="round" stroke-linejoin="round"/>
<path d="M88.6995 393.644C83.1472 394.605 77.4338 393.834 72.3344 391.437C67.235 389.04 62.9963 385.132 60.1934 380.244" stroke="black" stroke-width="1.3" stroke-linecap="round" stroke-linejoin="round" stroke-dasharray="4.72 4.72"/>
<path d="M59.1338 378.255C58.7992 377.547 58.4835 376.818 58.1867 376.067C57.5049 376.465 56.804 376.834 56.0938 377.184" stroke="black" stroke-width="1.3" stroke-linecap="round" stroke-linejoin="round"/>
<path d="M51.7651 379.003C50.818 379.334 49.8142 379.628 48.8103 379.893C40.0214 382.135 30.7215 381.174 22.5765 377.183C14.4316 373.192 7.97378 366.431 4.36002 358.112C0.746262 349.792 0.212671 340.458 2.85484 331.781C5.49701 323.104 11.1423 315.652 18.7794 310.758" stroke="black" stroke-width="1.3" stroke-linecap="round" stroke-linejoin="round" stroke-dasharray="4.99 4.99"/>
<path d="M20.8164 309.518C21.5078 309.139 22.2086 308.779 22.9283 308.438C22.7768 307.662 22.6442 306.885 22.5306 306.108" stroke="black" stroke-width="1.3" stroke-linecap="round" stroke-linejoin="round"/>
<path d="M22.0767 301.43C21.7537 294.558 22.9026 287.695 25.4466 281.303C27.9906 274.911 31.8709 269.135 36.8278 264.364C41.7846 259.593 47.7037 255.936 54.1885 253.637C60.6734 251.339 67.5744 250.453 74.4296 251.038" stroke="black" stroke-width="1.3" stroke-linecap="round" stroke-linejoin="round" stroke-dasharray="4.96 4.96"/>
<path d="M76.7578 251.293C77.5439 251.397 78.3204 251.52 79.097 251.662C79.1535 250.875 79.2675 250.094 79.438 249.323" stroke="black" stroke-width="1.3" stroke-linecap="round" stroke-linejoin="round"/>
<path d="M81.002 245.185C82.988 241.567 86.3267 238.885 90.2869 237.724C94.247 236.563 98.5058 237.019 102.131 238.991" stroke="black" stroke-width="1.3" stroke-linecap="round" stroke-linejoin="round" stroke-dasharray="4.69 4.69"/>
<path d="M104.006 240.194C104.644 240.662 105.242 241.181 105.796 241.747C106.212 241.074 106.648 240.421 107.103 239.777" stroke="black" stroke-width="1.3" stroke-linecap="round" stroke-linejoin="round"/>
<path d="M109.926 236.103C114.303 230.93 119.665 226.679 125.7 223.597C131.735 220.515 138.322 218.662 145.079 218.148C151.836 217.633 158.627 218.466 165.059 220.599C171.491 222.732 177.435 226.122 182.545 230.572" stroke="black" stroke-width="1.3" stroke-linecap="round" stroke-linejoin="round" stroke-dasharray="4.89 4.89"/>
<path d="M184.258 232.134C184.826 232.684 185.385 233.242 185.934 233.811C186.54 233.316 187.172 232.854 187.828 232.428" stroke="black" stroke-width="1.3" stroke-linecap="round" stroke-linejoin="round"/>
<path d="M191.627 230.467C192.53 230.091 193.457 229.774 194.402 229.52C197.719 228.663 201.189 228.578 204.545 229.271C207.9 229.964 211.053 231.416 213.759 233.517" stroke="black" stroke-width="1.3" stroke-linecap="round" stroke-linejoin="round" stroke-dasharray="4.49 4.49"/>
<path d="M215.379 234.938C215.956 235.478 216.503 236.051 217.017 236.652C217.794 236.472 218.57 236.32 219.338 236.197" stroke="black" stroke-width="1.3" stroke-linecap="round" stroke-linejoin="round"/>
<path d="M224.186 235.705C232.991 235.387 241.645 238.058 248.739 243.285C255.833 248.511 260.949 255.984 263.254 264.488C265.56 272.993 264.919 282.027 261.436 290.12C257.954 298.214 251.834 304.891 244.074 309.064" stroke="black" stroke-width="1.3" stroke-linecap="round" stroke-linejoin="round" stroke-dasharray="5.14 5.14"/>
<path d="M215.965 185.27C213.401 187.935 211.666 191.287 210.969 194.919C210.272 198.551 210.645 202.307 212.04 205.731C213.436 209.156 215.796 212.102 218.833 214.212C221.87 216.323 225.454 217.506 229.15 217.62C232.847 217.733 236.497 216.772 239.658 214.852C242.819 212.932 245.354 210.136 246.958 206.804C248.561 203.471 249.163 199.745 248.69 196.077C248.218 192.409 246.691 188.957 244.295 186.14C245.346 184.362 245.97 182.364 246.118 180.304C246.266 178.244 245.934 176.178 245.148 174.268C244.362 172.358 243.144 170.656 241.589 169.297C240.034 167.937 238.185 166.957 236.187 166.434C234.189 165.91 232.097 165.857 230.075 166.279C228.053 166.701 226.157 167.586 224.535 168.865C222.914 170.144 221.611 171.782 220.729 173.65C219.848 175.518 219.412 177.565 219.455 179.63C219.477 180.491 219.581 181.348 219.765 182.19" fill="white"/>
<path d="M219.764 182.22C219.368 180.403 219.357 178.524 219.729 176.702C220.102 174.88 220.852 173.157 221.929 171.642C223.007 170.127 224.389 168.853 225.988 167.903C227.586 166.953 229.365 166.348 231.211 166.125C233.057 165.903 234.929 166.068 236.707 166.611C238.486 167.155 240.131 168.063 241.538 169.279C242.944 170.495 244.082 171.991 244.877 173.672C245.672 175.353 246.107 177.181 246.154 179.04C246.213 181.534 245.568 183.995 244.294 186.14C246.274 188.472 247.665 191.245 248.351 194.226C249.038 197.207 248.998 200.31 248.237 203.273C247.476 206.236 246.014 208.973 243.976 211.254C241.938 213.535 239.382 215.294 236.523 216.383C233.664 217.471 230.586 217.858 227.546 217.511C224.507 217.163 221.596 216.091 219.056 214.385C216.517 212.679 214.424 210.389 212.953 207.707C211.482 205.024 210.677 202.028 210.604 198.97C210.512 196.441 210.941 193.92 211.863 191.564C212.785 189.207 214.181 187.065 215.964 185.27C217.156 184.163 218.426 183.144 219.764 182.22Z" stroke="black" stroke-width="1.3" stroke-linecap="round" stroke-linejoin="round" stroke-dasharray="5 5"/>
<path d="M212.604 132.28C214.08 132.073 215.582 132.162 217.023 132.542C218.464 132.922 219.814 133.587 220.995 134.496C222.176 135.405 223.164 136.54 223.9 137.835C224.637 139.131 225.107 140.56 225.284 142.04C225.547 144.067 225.254 146.128 224.439 148.002C223.624 149.877 222.316 151.495 220.654 152.685C218.992 153.876 217.039 154.593 215.001 154.762C212.964 154.931 210.919 154.544 209.084 153.644C207.249 152.743 205.693 151.362 204.58 149.647C203.467 147.932 202.84 145.948 202.765 143.905C202.691 141.862 203.171 139.837 204.155 138.046C205.139 136.254 206.59 134.763 208.354 133.73C209.673 132.996 211.112 132.505 212.604 132.28Z" fill="white"/>
<path d="M212.604 132.28C214.08 132.073 215.582 132.162 217.023 132.542C218.464 132.922 219.814 133.587 220.995 134.496C222.176 135.405 223.164 136.54 223.9 137.835C224.637 139.131 225.107 140.56 225.284 142.04C225.547 144.067 225.254 146.128 224.439 148.002C223.624 149.877 222.316 151.495 220.654 152.685C218.992 153.876 217.039 154.593 215.001 154.762C212.964 154.931 210.919 154.544 209.084 153.644C207.249 152.743 205.693 151.362 204.58 149.647C203.467 147.932 202.84 145.948 202.765 143.905C202.691 141.862 203.171 139.837 204.155 138.046C205.139 136.254 206.59 134.763 208.354 133.73C209.673 132.996 211.112 132.505 212.604 132.28V132.28Z" stroke="black" stroke-width="1.3" stroke-linecap="round" stroke-linejoin="round" stroke-dasharray="5 5"/>
<path d="M183.445 128.08C186.985 128.08 189.855 125.21 189.855 121.67C189.855 118.13 186.985 115.26 183.445 115.26C179.905 115.26 177.035 118.13 177.035 121.67C177.035 125.21 179.905 128.08 183.445 128.08Z" fill="white"/>
<path d="M183.445 128.08C186.985 128.08 189.855 125.21 189.855 121.67C189.855 118.13 186.985 115.26 183.445 115.26C179.905 115.26 177.035 118.13 177.035 121.67C177.035 125.21 179.905 128.08 183.445 128.08Z" stroke="black" stroke-width="1.3" stroke-linecap="round" stroke-linejoin="round" stroke-dasharray="5 5"/>
</svg>
