<svg width="256" height="407" viewBox="0 0 256 407" fill="none" xmlns="http://www.w3.org/2000/svg">
<path d="M35.9804 236.849L39.5192 237.114C39.5192 237.114 39.3284 239.731 39.2861 242.698C38.7033 248.281 34.1792 258.59 35.9804 277.969C36.1923 280.236 36.5313 283.521 36.9445 287.557V287.674C36.9975 288.246 37.0611 288.839 37.1247 289.443V289.74V289.888C37.3048 291.615 37.4955 293.459 37.7074 295.398V295.578V295.769L37.9299 297.888L37.9935 298.449L38.216 300.483V300.727C38.3007 301.501 38.3855 302.274 38.4702 303.069L38.5444 303.715C38.6186 304.435 38.7033 305.167 38.7775 305.898V306.194C38.8729 307.031 38.9682 307.868 39.053 308.727C39.053 308.885 39.053 309.055 39.106 309.214C39.5086 312.848 39.9218 316.63 40.3456 320.487C40.3456 320.71 40.3986 320.921 40.4197 321.133C40.6211 323.009 40.833 324.905 41.0449 326.802V326.971C41.4793 330.923 41.9243 334.907 42.3587 338.859C42.3587 339.071 42.3587 339.293 42.4328 339.505C42.5388 340.427 42.6341 341.338 42.7401 342.26V342.62C42.7401 343.033 42.8354 343.447 42.8778 343.87H130.383C130.383 343.531 130.383 343.203 130.309 342.811C130.224 341.751 130.139 340.575 130.054 339.442C130.054 338.986 129.991 338.541 129.948 338.075C129.828 336.464 129.701 334.833 129.567 333.18L129.472 332.036C129.366 330.743 129.26 329.451 129.143 328.126C129.143 327.49 129.037 326.834 128.984 326.177C128.889 325.117 128.794 324.005 128.698 322.892C128.624 322.172 128.56 321.419 128.497 320.688L128.211 317.51C128.137 316.715 128.052 315.91 127.978 315.105C127.882 314.045 127.776 312.986 127.681 311.926C127.596 311.11 127.522 310.284 127.437 309.458C127.331 308.398 127.225 307.339 127.119 306.215C127.024 305.357 126.939 304.499 126.855 303.63C126.738 302.571 126.632 301.511 126.516 300.367L126.23 297.676C126.113 296.563 125.986 295.451 125.869 294.328C125.774 293.427 125.668 292.527 125.573 291.626C125.445 290.461 125.308 289.274 125.17 288.087C125.075 287.187 124.969 286.286 124.863 285.385C124.725 284.167 124.587 282.949 124.439 281.72L124.121 279.007L123.644 275.066C123.538 274.208 123.443 273.36 123.326 272.481C123.146 271.029 122.966 269.546 122.776 268.062C122.68 267.31 122.595 266.579 122.5 265.816C122.217 263.57 121.921 261.303 121.61 259.014C121.507 257.731 121.489 256.443 121.557 255.158C121.557 254.702 121.557 254.172 121.557 253.579C121.557 251.799 121.642 249.468 121.758 246.777C121.896 243.344 122.034 240.6 122.034 240.6C124.406 239.116 126.366 237.057 127.731 234.614C129.096 232.171 129.822 229.423 129.842 226.625C134.303 226.826 144.57 222.482 144.57 222.482C144.57 222.482 158.682 224.305 166.321 217.895C170.047 214.685 172.916 210.6 174.67 206.007L177.287 198.039C178.334 193.643 178.843 189.135 178.802 184.615C178.707 170.842 170.602 163.012 163.906 147.872C158.555 135.74 153.978 126.003 150.016 116.002L147.176 108.437C143.129 96.0615 140.268 85.583 128.846 82.0124C117.425 78.4419 108.578 76.4712 108.578 76.4712L113.388 76.1109C114.51 75.9559 115.56 75.4683 116.402 74.7111C117.245 73.9538 117.841 72.9615 118.114 71.8623C119.629 65.5052 122.691 52.6746 123.326 49.8245C123.629 48.425 123.604 46.9744 123.252 45.5864C122.805 43.8356 122.89 41.9913 123.496 40.2889C124.295 38.3047 124.555 36.1442 124.248 34.0272C123.877 30.4036 123.56 28.3376 123.56 28.3376L122.987 24.979L127.798 27.6489C128.974 11.0676 113.081 6.78716 113.081 6.78716L115.38 2.62328C92.6748 -1.85845 78.1913 6.268 78.1913 6.268V1.83924C71.8048 5.60242 66.6679 11.1631 63.4217 17.8273C61.5714 21.7239 60.7007 26.0134 60.8853 30.3231C61.07 34.6328 62.3044 38.8322 64.4812 42.5562C67.13 47.1227 69.9483 51.4667 72.3534 55.1326C68.756 55.2657 65.1814 55.7627 61.6841 56.6159C60.402 56.9195 59.2019 57.5003 58.1684 58.3176C57.1349 59.135 56.2931 60.1688 55.7022 61.3465C55.1114 62.5242 54.7858 63.8171 54.7484 65.1342C54.7111 66.4513 54.9628 67.7605 55.486 68.9698C55.7403 69.542 56.0263 70.1247 56.3442 70.7074L54.2252 72.445C47.8681 78.1558 51.2479 86.314 51.2479 86.314C45.855 88.9946 38.3113 94.0167 35.1434 102.143C29.973 115.429 30.6617 114.052 28.9346 119.403C23.7225 134.208 17.2204 148.528 9.50322 162.196L7.3842 166.434C-0.742242 184.022 -2.21496 205.7 9.50322 221.264C12.6314 225.519 16.5911 229.095 21.1424 231.774C25.6938 234.453 30.7418 236.18 35.9804 236.849ZM126.452 178.004C127.225 174.826 128.232 170.524 129.239 165.629C131.167 170.471 131.675 173.724 133.477 181.183C135.278 188.642 138.573 188.26 138.573 188.26C138.573 188.26 139.251 188.536 141.253 187.667V187.826C141.201 188.537 141.258 189.251 141.423 189.945C140.283 191.388 139.222 192.891 138.244 194.448C137.99 194.829 137.725 195.158 137.471 195.507C137.009 196.093 136.499 196.639 135.945 197.139L130.913 200.18C130.161 200.686 129.276 200.955 128.37 200.953L126.166 189.468C125.427 185.671 125.525 181.759 126.452 178.004Z" fill="white"/>
<path d="M131.38 352.452C129.833 328.666 127.036 297.167 122.024 259.141C121.849 257.831 121.764 256.511 121.77 255.189C121.77 253.346 121.77 250.39 121.992 246.809C121.855 250.231 112.255 254.342 101.014 257.086C89.7726 259.83 78.5311 259.141 66.1984 254.755C53.8657 250.369 39.3928 246.978 39.467 242.698C38.8843 248.281 34.3602 258.59 36.1613 277.969" stroke="black" stroke-width="1.3" stroke-linecap="round" stroke-linejoin="round"/>
<path d="M123.74 28.2212C123.74 28.2212 124.047 30.3402 124.418 33.9108C124.728 36.0269 124.472 38.1873 123.676 40.1725C123.065 41.8738 122.98 43.7197 123.432 45.47C123.78 46.8589 123.802 48.3094 123.496 49.7081C122.871 52.5582 119.798 65.4312 118.294 71.7459C118.042 72.8587 117.46 73.8697 116.625 74.6466C115.789 75.4235 114.739 75.9303 113.611 76.1005C111.249 76.5982 108.81 76.5982 106.448 76.1005C101.151 74.8926 91.6152 70.6228 91.6152 70.6228" stroke="black" stroke-width="1.3" stroke-linecap="round" stroke-linejoin="round"/>
<path d="M112.774 43.7642C112.814 45.7642 113.197 47.7426 113.908 49.6127L117.192 57.4318C117.302 57.6962 117.338 57.9854 117.297 58.2687C117.256 58.5521 117.14 58.8191 116.959 59.0416C116.779 59.2641 116.542 59.4338 116.274 59.5328C116.005 59.6317 115.715 59.6563 115.433 59.6038C114.225 59.4052 113.039 59.0858 111.895 58.6503" stroke="black" stroke-width="1.3" stroke-linecap="round" stroke-linejoin="round"/>
<path d="M116.26 21.0588V26.4411L89.009 25.2438L91.6154 33.4338L84.3684 35.9767L82.5354 45.3745C81.4401 44.1408 79.9342 43.3464 78.2974 43.139C75.4367 42.7364 73.18 44.1349 73.6461 47.9915C74.1123 51.8481 76.2419 56.5736 79.1026 57.9721C81.9633 59.3707 83.8174 58.3006 83.8174 58.3006C83.8174 58.3006 82.9592 64.8166 78.5199 65.9502C78.5199 65.9502 78.3292 63.9478 74.2818 57.7708C71.5801 53.6493 67.9989 48.2352 64.6827 42.5668C62.5058 38.8428 61.2714 34.6434 61.0868 30.3337C60.9021 26.024 61.7728 21.7345 63.6232 17.8379C66.8667 11.1759 71.9949 5.61291 78.3716 1.83924V6.268C78.3716 6.268 92.8551 -1.85845 115.582 2.62328L113.282 6.78716C113.282 6.78716 129.175 11.0252 127.978 27.5324L116.26 21.0588Z" fill="black" stroke="black" stroke-width="1.3" stroke-linecap="round" stroke-linejoin="round"/>
<path d="M76.072 12.2119C76.072 12.2119 64.0889 18.9822 68.0515 34.9278" stroke="white" stroke-width="1.3" stroke-linecap="round" stroke-linejoin="round"/>
<path d="M96.4258 41.7932C99.7311 39.0125 103.852 37.3835 108.165 37.1525V34.4932C108.165 34.4932 99.9222 34.8746 96.4258 41.7932Z" fill="black" stroke="black" stroke-width="1.3" stroke-linecap="round" stroke-linejoin="round"/>
<path d="M116.588 34.4932V37.0148C119.264 37.2417 121.786 38.3611 123.75 40.1933C123.75 40.1933 122.934 35.8387 116.588 34.4932Z" fill="black" stroke="black" stroke-width="1.3" stroke-linecap="round" stroke-linejoin="round"/>
<path d="M105.454 45.9965C105.595 44.6875 105.105 43.5614 104.36 43.4813C103.616 43.4012 102.898 44.3974 102.757 45.7064C102.616 47.0155 103.106 48.1416 103.85 48.2217C104.595 48.3018 105.313 47.3056 105.454 45.9965Z" fill="black" stroke="black" stroke-width="1.3" stroke-linecap="round" stroke-linejoin="round"/>
<path d="M119.014 45.2123C119.151 43.944 118.681 42.8534 117.966 42.7764C117.25 42.6994 116.559 43.6652 116.423 44.9335C116.286 46.2018 116.756 47.2924 117.472 47.3694C118.187 47.4463 118.878 46.4806 119.014 45.2123Z" fill="black" stroke="black" stroke-width="1.3" stroke-linecap="round" stroke-linejoin="round"/>
<path d="M113.821 62.6865C113.444 63.1338 113.17 63.6599 113.022 64.2264C112.874 64.7928 112.853 65.3852 112.963 65.9604H108.842C108.842 65.9604 110.791 62.6865 113.821 62.6865Z" fill="black" stroke="black" stroke-width="1.3" stroke-linecap="round" stroke-linejoin="round"/>
<path d="M77.1621 46.7734C77.1621 46.7734 80.1499 47.674 81.3366 52.3571" stroke="black" stroke-width="1.3" stroke-linecap="round" stroke-linejoin="round"/>
<path d="M78.531 65.9609C78.976 67.7939 77.2914 72.4981 74.293 76.3335" stroke="black" stroke-width="1.3" stroke-linecap="round" stroke-linejoin="round"/>
<path d="M65.8809 61.6484C65.8809 61.6484 68.7733 71.5549 78.595 80.9951C88.4166 90.4353 95.4942 95.6058 103.727 95.6058" stroke="black" stroke-width="1.3" stroke-linecap="round" stroke-linejoin="round"/>
<path d="M106.448 76.1001L105.728 80.9527C105.424 83.0821 104.507 85.0773 103.09 86.6952L98.8516 91.6113" stroke="black" stroke-width="1.3" stroke-linecap="round" stroke-linejoin="round"/>
<path d="M108.844 76.5029C109.994 81.5998 110.741 86.7791 111.08 91.993C111.215 93.7736 110.925 95.5608 110.235 97.2077C109.545 98.8546 108.473 100.314 107.109 101.466C105.745 102.619 104.127 103.43 102.387 103.835C100.648 104.24 98.8377 104.227 97.1048 103.796C87.1242 101.285 72.8208 95.7966 57.3943 83.8453C57.3943 83.8453 40.4422 88.8462 35.3035 102.143C30.1649 115.44 30.8112 114.052 29.0948 119.403C27.3784 124.753 46.333 140.974 64.6414 139.597C64.6414 139.597 57.5003 160.384 52.9868 173.819C48.4732 187.254 55.2647 184.976 54.4383 194.066L53.6119 202.744C53.6119 202.744 64.207 203.231 71.3269 201.917C79.3474 200.455 80.0573 203.453 80.0573 203.453L92.284 196.683C93.8606 195.81 95.7152 195.586 97.4544 196.058C98.3835 196.313 99.3666 196.291 100.283 195.995L101.555 195.592C102.496 195.287 103.505 195.26 104.462 195.513C105.418 195.767 106.281 196.291 106.948 197.022L110.539 200.964L113.389 200.815C114.737 200.736 116.072 201.108 117.183 201.875C118.793 203.014 120.584 203.874 122.48 204.418C122.48 204.418 123.953 201.239 128.646 200.932L126.337 189.468C125.615 185.684 125.713 181.789 126.623 178.046C128.985 168.426 133.488 148.2 133.838 132.784C133.838 132.784 151.447 120.886 147.4 108.511C143.352 96.1357 140.502 85.6359 129.07 82.0442C117.638 78.4524 108.844 76.5029 108.844 76.5029Z" fill="#33E6CA"/>
<path d="M147.398 108.468C143.35 96.0933 140.5 85.6147 129.068 82.0442C117.636 78.4736 108.842 76.5029 108.842 76.5029C109.992 81.5998 110.739 86.7791 111.078 91.993C111.213 93.7736 110.923 95.5608 110.233 97.2077C109.542 98.8546 108.471 100.314 107.107 101.466C105.743 102.619 104.124 103.43 102.385 103.835C100.646 104.24 98.8357 104.227 97.1027 103.796C87.1222 101.285 72.8188 95.7966 57.3923 83.8453C53.067 85.2606 48.9805 87.3217 45.2715 89.9587" stroke="black" stroke-width="1.3" stroke-linecap="round" stroke-linejoin="round"/>
<path d="M126.623 178.004C128.986 168.384 133.489 148.158 133.838 132.742" stroke="black" stroke-width="1.3" stroke-linecap="round" stroke-linejoin="round"/>
<path d="M71.2949 201.917C79.3154 200.455 80.0253 203.454 80.0253 203.454L92.252 196.683C93.8287 195.81 95.6833 195.586 97.4225 196.058V196.058C98.3515 196.313 99.3347 196.291 100.251 195.995L101.523 195.592C102.464 195.287 103.473 195.26 104.43 195.513C105.386 195.767 106.249 196.291 106.916 197.022L110.507 200.964L113.357 200.815C114.705 200.736 116.04 201.109 117.151 201.875C118.761 203.014 120.552 203.874 122.448 204.418C122.448 204.418 123.921 201.239 128.614 200.932" stroke="black" stroke-width="1.3" stroke-linecap="round" stroke-linejoin="round"/>
<path d="M32.877 126.724C39.1493 133.166 52.0647 140.551 64.6623 139.597C64.6623 139.597 57.5212 160.385 53.0077 173.819C48.4941 187.254 55.2856 184.976 54.4592 194.067" stroke="black" stroke-width="1.3" stroke-linecap="round" stroke-linejoin="round"/>
<path d="M35.3025 102.143C30.1215 115.429 30.8102 114.052 29.0938 119.402" stroke="black" stroke-width="1.3" stroke-linecap="round" stroke-linejoin="round"/>
<path d="M57.3918 83.8453C56.1568 82.9969 55.1284 81.8817 54.3828 80.582" stroke="black" stroke-width="1.3" stroke-linecap="round" stroke-linejoin="round"/>
<path d="M72.5549 55.1538C68.9541 55.2872 65.3759 55.7842 61.875 56.6371C60.5938 56.9419 59.3949 57.5237 58.3626 58.3415C57.3303 59.1594 56.4898 60.1934 55.9 61.371C55.3102 62.5485 54.9855 63.841 54.9488 65.1574C54.9121 66.4739 55.1642 67.7824 55.6875 68.991C57.802 73.8174 61.3636 77.8678 65.88 80.5821" stroke="black" stroke-width="1.3" stroke-linecap="round" stroke-linejoin="round"/>
<path d="M51.4069 86.3143C51.4069 86.3143 48.0588 78.1561 54.3841 72.4453" stroke="black" stroke-width="1.3" stroke-linecap="round" stroke-linejoin="round"/>
<path d="M39.689 237.146C48.6968 237.262 57.5073 234.504 64.8418 229.274H73.498C74.7264 229.265 75.9322 228.942 77.0005 228.336C78.0688 227.729 78.964 226.86 79.6008 225.809C79.6008 225.809 85.5234 228.638 87.4729 229.613C88.567 230.183 89.7694 230.515 91.0011 230.587C91.2602 231.683 91.8835 232.658 92.7689 233.352C93.6543 234.047 94.7494 234.421 95.8748 234.412H108.335C109.561 234.414 110.768 234.116 111.852 233.543L127.014 225.491C127.399 225.898 127.869 226.214 128.392 226.415C128.914 226.617 129.475 226.699 130.033 226.657C130.013 229.456 129.286 232.205 127.919 234.648C126.552 237.092 124.59 239.15 122.214 240.632C122.214 240.632 122.077 243.376 121.949 246.809C121.822 250.241 112.212 254.342 100.971 257.086C89.7297 259.83 78.4883 259.141 66.1556 254.755C53.8229 250.369 39.3499 246.978 39.4241 242.698C39.5089 239.731 39.689 237.146 39.689 237.146Z" fill="#33E6CA"/>
<path d="M7.55413 166.445C-0.57232 184.033 -2.04504 205.71 9.67315 221.275C12.8026 225.53 16.7643 229.105 21.3176 231.782C25.8709 234.459 30.9209 236.183 36.1609 236.849" stroke="black" stroke-width="1.3" stroke-linecap="round" stroke-linejoin="round"/>
<path d="M29.0938 119.402C23.8839 134.206 17.389 148.525 9.68359 162.196" stroke="black" stroke-width="1.3" stroke-linecap="round" stroke-linejoin="round"/>
<path d="M53.5784 202.744C48.8356 202.674 44.1087 202.178 39.4551 201.26" stroke="black" stroke-width="1.3" stroke-linecap="round" stroke-linejoin="round"/>
<path d="M21.709 211.347C28.5566 202.955 38.289 197.42 49.002 195.825" stroke="black" stroke-width="1.3" stroke-linecap="round" stroke-linejoin="round"/>
<path d="M177.521 198.071C178.563 193.673 179.072 189.166 179.037 184.647C178.931 170.873 170.836 163.043 164.14 147.903C158.779 135.772 153.216 123.534 149.307 113.543" stroke="black" stroke-width="1.3" stroke-linecap="round" stroke-linejoin="round"/>
<path d="M130.033 226.657C134.483 226.858 144.76 222.514 144.76 222.514C144.76 222.514 158.862 224.336 166.512 217.926C170.233 214.716 173.099 210.631 174.851 206.039" stroke="black" stroke-width="1.3" stroke-linecap="round" stroke-linejoin="round"/>
<path d="M131.092 200.19C134.145 199.234 136.749 197.205 138.424 194.479C140.903 190.877 145.66 181.765 161.669 181.765" stroke="black" stroke-width="1.3" stroke-linecap="round" stroke-linejoin="round"/>
<path d="M150.249 172.516C150.249 172.516 139.877 182.973 141.657 189.955" stroke="black" stroke-width="1.3" stroke-linecap="round" stroke-linejoin="round"/>
<path d="M138.807 188.26C138.807 188.26 135.628 188.641 133.711 181.183C131.793 173.724 131.337 170.46 129.473 165.629" stroke="black" stroke-width="1.3" stroke-linecap="round" stroke-linejoin="round"/>
<path d="M139.303 200.72C139.303 200.72 148.711 206.495 145.851 219.262" stroke="black" stroke-width="1.3" stroke-linecap="round" stroke-linejoin="round"/>
<path d="M127.014 225.491C130.701 223.213 133.095 222.683 133.032 219.293C132.968 215.903 131.188 208.698 125.393 206.07" stroke="black" stroke-width="1.3" stroke-linecap="round" stroke-linejoin="round"/>
<path d="M68.1153 202.373C63.4535 202.723 58.2619 212.322 63.5594 226.657" stroke="black" stroke-width="1.3" stroke-linecap="round" stroke-linejoin="round"/>
<path d="M91 230.556C95.0579 231.128 104.36 230.556 104.36 230.556" stroke="black" stroke-width="1.3" stroke-linecap="round" stroke-linejoin="round"/>
<path d="M79.5995 225.778L79.43 225.703C78.9914 225.494 78.643 225.133 78.4484 224.688C78.2539 224.242 78.2262 223.741 78.3705 223.277L78.593 222.588" stroke="black" stroke-width="1.3" stroke-linecap="round" stroke-linejoin="round"/>
<path d="M107.784 201.737C106.047 202.055 104.267 202.309 102.963 202.49C102.409 202.559 101.9 202.83 101.531 203.249C101.162 203.669 100.959 204.209 100.961 204.768V204.768C100.958 205.288 101.132 205.794 101.453 206.204C101.774 206.613 102.224 206.903 102.73 207.024C104.698 207.477 106.709 207.712 108.727 207.724C110.693 207.674 112.66 207.788 114.607 208.063C114.607 208.063 116.165 208.063 117.161 210.499C118.07 213.101 119.275 215.59 120.753 217.916C121.035 218.294 121.16 218.767 121.101 219.236C121.041 219.704 120.803 220.131 120.435 220.427L120.329 220.512C120.015 220.751 119.632 220.88 119.238 220.88C118.843 220.88 118.46 220.751 118.146 220.512C116.663 219.389 113.982 216.825 111.175 211.506" stroke="black" stroke-width="1.3" stroke-linecap="round" stroke-linejoin="round"/>
<path d="M80.0243 203.454C73.8898 207.067 69.8107 215.108 76.083 222.98" stroke="black" stroke-width="1.3" stroke-linecap="round" stroke-linejoin="round"/>
<path d="M96.5957 226.191H91.8173C89.9527 226.19 88.1026 225.864 86.3503 225.227L78.3721 222.313C78.0588 222.194 77.7893 221.982 77.5999 221.706C77.4105 221.429 77.3103 221.101 77.3126 220.766V220.766C77.3096 220.522 77.3611 220.28 77.4634 220.058C77.5657 219.836 77.7163 219.64 77.9041 219.484C78.0919 219.327 78.3122 219.215 78.549 219.155C78.7857 219.094 79.033 219.087 79.2727 219.135L85.2378 220.406C86.551 220.685 87.8896 220.827 89.2321 220.83V220.83C87.8896 220.827 86.551 220.685 85.2378 220.406L79.3893 219.156C78.951 219.061 78.5584 218.819 78.2769 218.47C77.9954 218.121 77.842 217.687 77.8424 217.238V217.238C77.8414 216.967 77.8968 216.699 78.0052 216.451C78.1136 216.202 78.2726 215.979 78.472 215.796C78.6713 215.613 78.9068 215.473 79.1632 215.385C79.4197 215.298 79.6915 215.265 79.9614 215.289L85.8735 215.787H88.2786" stroke="black" stroke-width="1.3" stroke-linecap="round" stroke-linejoin="round"/>
<path d="M106.089 207.575L106.947 208.825C108.222 210.695 109.218 212.74 109.903 214.896C110.641 217.223 111.562 219.487 112.658 221.667C112.823 221.977 112.916 222.32 112.929 222.672C112.943 223.023 112.877 223.372 112.736 223.694C112.596 224.016 112.384 224.302 112.117 224.531C111.851 224.76 111.536 224.925 111.196 225.015H111.132C110.613 225.152 110.062 225.109 109.57 224.894C109.077 224.678 108.672 224.303 108.42 223.828L103.25 214.102C102.613 212.913 101.834 211.806 100.929 210.807L95.1973 204.45" stroke="black" stroke-width="1.3" stroke-linecap="round" stroke-linejoin="round"/>
<path d="M106.776 220.755L107.836 222.779C107.976 223.057 108.052 223.363 108.06 223.675C108.068 223.987 108.007 224.296 107.882 224.582C107.756 224.867 107.569 225.121 107.334 225.326C107.099 225.531 106.822 225.681 106.522 225.767V225.767C106.092 225.891 105.634 225.875 105.214 225.723C104.793 225.571 104.432 225.289 104.181 224.919L97.7495 215.5C97.2173 214.72 96.591 214.008 95.8847 213.381L90.7461 208.846" stroke="black" stroke-width="1.3" stroke-linecap="round" stroke-linejoin="round"/>
<path d="M85.2676 212.406L89.0182 214.589C90.3312 215.36 91.5176 216.328 92.5358 217.46L98.7234 224.358C99.0151 224.674 99.3965 224.895 99.8167 224.99C100.237 225.084 100.676 225.049 101.075 224.887C101.356 224.763 101.607 224.58 101.81 224.35C102.013 224.119 102.164 223.848 102.251 223.553C102.339 223.259 102.362 222.949 102.318 222.646C102.274 222.342 102.165 222.051 101.997 221.794L101.298 220.734" stroke="black" stroke-width="1.3" stroke-linecap="round" stroke-linejoin="round"/>
<path d="M93.418 271.061L100.654 268.158" stroke="black" stroke-width="1.3" stroke-linecap="round" stroke-linejoin="round"/>
<path d="M63.7383 268.158L75.128 272.608C79.839 274.455 85.0784 274.428 89.7705 272.533" stroke="black" stroke-width="1.3" stroke-linecap="round" stroke-linejoin="round"/>
<path d="M43.2918 343.913H130.797C129.155 321.303 126.463 292.792 122.024 259.152C121.849 257.842 121.764 256.522 121.77 255.2C121.77 253.357 121.77 250.401 121.992 246.819C121.855 250.242 112.255 254.353 101.014 257.097C89.7726 259.841 78.5312 259.152 66.1984 254.766C53.8657 250.379 39.3928 246.989 39.467 242.708C38.8843 248.292 34.3602 258.601 36.1613 277.98C37.0937 287.918 40.3464 317.531 43.2918 343.913Z" fill="black" stroke="black" stroke-width="1.3" stroke-linecap="round" stroke-linejoin="round"/>
<path d="M64.6406 139.597L68.1158 129.489" stroke="black" stroke-width="1.3" stroke-linecap="round" stroke-linejoin="round"/>
<path d="M133.836 132.742C134.271 118.788 133.031 112.908 133.031 112.908" stroke="black" stroke-width="1.3" stroke-linecap="round" stroke-linejoin="round"/>
<path d="M215.36 189.92C212.796 192.585 211.06 195.937 210.364 199.569C209.667 203.201 210.039 206.957 211.435 210.382C212.831 213.807 215.19 216.753 218.227 218.863C221.264 220.973 224.848 222.157 228.545 222.27C232.241 222.384 235.891 221.422 239.052 219.502C242.213 217.582 244.749 214.787 246.352 211.454C247.956 208.122 248.557 204.395 248.085 200.727C247.612 197.06 246.086 193.608 243.69 190.79C244.741 189.011 245.365 187.011 245.512 184.95C245.659 182.888 245.326 180.82 244.538 178.909C243.75 176.999 242.529 175.297 240.971 173.938C239.413 172.58 237.561 171.601 235.561 171.08C233.561 170.559 231.467 170.51 229.445 170.936C227.422 171.362 225.526 172.252 223.906 173.535C222.286 174.819 220.986 176.461 220.109 178.333C219.231 180.204 218.8 182.254 218.85 184.32C218.872 185.178 218.976 186.032 219.16 186.87" fill="white"/>
<path d="M211.999 136.93C213.475 136.722 214.977 136.812 216.418 137.192C217.858 137.572 219.209 138.237 220.39 139.145C221.571 140.054 222.558 141.19 223.295 142.485C224.031 143.781 224.502 145.21 224.679 146.69C224.941 148.717 224.649 150.778 223.834 152.652C223.018 154.527 221.71 156.145 220.048 157.335C218.386 158.526 216.433 159.243 214.396 159.412C212.359 159.581 210.314 159.194 208.479 158.294C206.644 157.393 205.087 156.012 203.975 154.297C202.862 152.582 202.235 150.598 202.16 148.555C202.085 146.512 202.565 144.487 203.549 142.696C204.533 140.904 205.985 139.413 207.749 138.38C209.068 137.646 210.507 137.155 211.999 136.93Z" fill="white"/>
<path d="M182.84 132.73C186.38 132.73 189.25 129.86 189.25 126.32C189.25 122.78 186.38 119.91 182.84 119.91C179.3 119.91 176.43 122.78 176.43 126.32C176.43 129.86 179.3 132.73 182.84 132.73Z" fill="white"/>
<path d="M219.158 186.87C218.763 185.053 218.751 183.174 219.124 181.352C219.497 179.531 220.246 177.807 221.324 176.292C222.401 174.777 223.784 173.504 225.382 172.554C226.98 171.604 228.76 170.998 230.606 170.776C232.452 170.553 234.324 170.719 236.102 171.262C237.88 171.805 239.525 172.713 240.932 173.929C242.339 175.145 243.476 176.641 244.271 178.322C245.066 180.003 245.501 181.831 245.548 183.69C245.607 186.185 244.963 188.645 243.688 190.79C245.674 193.122 247.071 195.897 247.762 198.882C248.452 201.866 248.415 204.972 247.655 207.94C246.895 210.907 245.434 213.649 243.394 215.934C241.353 218.218 238.794 219.98 235.932 221.07C233.069 222.16 229.987 222.547 226.944 222.198C223.9 221.849 220.985 220.774 218.444 219.064C215.903 217.354 213.809 215.059 212.339 212.371C210.87 209.684 210.067 206.683 209.998 203.62C209.907 201.091 210.335 198.571 211.257 196.214C212.179 193.858 213.575 191.715 215.358 189.92C216.55 188.814 217.82 187.794 219.158 186.87Z" stroke="black" stroke-width="1.3" stroke-linecap="round" stroke-linejoin="round" stroke-dasharray="5 5"/>
<path d="M211.999 136.93C213.475 136.722 214.977 136.812 216.418 137.192C217.858 137.572 219.209 138.237 220.39 139.145C221.571 140.054 222.558 141.19 223.295 142.485C224.031 143.781 224.502 145.21 224.679 146.69C224.941 148.717 224.649 150.778 223.834 152.652C223.018 154.527 221.71 156.145 220.048 157.335C218.386 158.526 216.433 159.243 214.396 159.412C212.359 159.581 210.314 159.194 208.479 158.294C206.644 157.393 205.087 156.012 203.975 154.297C202.862 152.582 202.235 150.598 202.16 148.555C202.085 146.512 202.565 144.487 203.549 142.696C204.533 140.904 205.985 139.413 207.749 138.38C209.068 137.646 210.507 137.155 211.999 136.93V136.93Z" stroke="black" stroke-width="1.3" stroke-linecap="round" stroke-linejoin="round" stroke-dasharray="5 5"/>
<path d="M182.84 132.73C186.38 132.73 189.25 129.86 189.25 126.32C189.25 122.78 186.38 119.91 182.84 119.91C179.3 119.91 176.43 122.78 176.43 126.32C176.43 129.86 179.3 132.73 182.84 132.73Z" stroke="black" stroke-width="1.3" stroke-linecap="round" stroke-linejoin="round" stroke-dasharray="5 5"/>
<path d="M253.539 275.157C255.676 283.446 254.698 292.231 250.789 299.846C246.881 307.462 240.313 313.379 232.333 316.475C232.333 316.517 232.333 316.551 232.333 316.594C232.789 318.359 232.779 320.212 232.303 321.972C231.828 323.731 230.904 325.338 229.621 326.633C228.339 327.929 226.742 328.869 224.987 329.362C223.231 329.854 221.379 329.883 219.609 329.445C219.41 336.335 216.535 342.877 211.592 347.682C206.649 352.487 200.029 355.177 193.135 355.18C192.962 365.58 189.654 375.685 183.643 384.174C177.633 392.663 169.201 399.14 159.449 402.758C149.698 406.377 139.081 406.968 128.989 404.454C118.896 401.94 109.797 396.439 102.882 388.669C101.616 389.239 100.305 389.701 98.9627 390.052C93.0643 391.564 86.8147 390.834 81.423 388.004C76.0314 385.175 71.8809 380.446 69.7745 374.733C65.7813 377.029 61.3652 378.494 56.7914 379.041C52.2176 379.588 47.5805 379.205 43.1585 377.915C38.7365 376.625 34.6209 374.454 31.0588 371.533C27.4967 368.613 24.5617 365.002 22.4299 360.919C20.2981 356.835 19.0136 352.363 18.6535 347.771C18.2933 343.179 18.8651 338.561 20.3343 334.195C21.8035 329.83 24.1399 325.806 27.2032 322.366C30.2665 318.925 33.9934 316.14 38.1603 314.176C36.7973 307.252 37.1491 300.099 39.1849 293.342C41.2208 286.584 44.8789 280.428 49.8402 275.409C54.8015 270.39 60.9154 266.661 67.6487 264.547C74.3819 262.433 81.5301 261.998 88.4699 263.281C88.6501 260.593 89.6031 258.013 91.2143 255.853C92.8255 253.693 95.0263 252.045 97.552 251.106C100.078 250.167 102.821 249.977 105.452 250.56C108.083 251.143 110.489 252.474 112.382 254.392C116.107 248.524 121.118 243.58 127.036 239.936C132.954 236.292 139.624 234.042 146.54 233.357C153.457 232.672 160.438 233.57 166.956 235.983C173.474 238.395 179.357 242.26 184.161 247.283C188.224 244.011 193.4 242.446 198.596 242.921C203.791 243.396 208.598 245.873 212 249.828C220.858 247.826 230.147 249.35 237.901 254.077C245.654 258.805 251.263 266.365 253.539 275.157Z" fill="white"/>
<path d="M90.1758 257.496C91.9547 254.256 94.9451 251.853 98.4921 250.813C102.039 249.773 105.854 250.182 109.1 251.949" stroke="black" stroke-width="1.3" stroke-linecap="round" stroke-linejoin="round" stroke-dasharray="4.69 4.69"/>
<path d="M116.08 249.362C120.001 244.729 124.804 240.921 130.209 238.16C135.614 235.4 141.514 233.741 147.566 233.28C153.618 232.819 159.701 233.565 165.462 235.476C171.223 237.386 176.546 240.422 181.124 244.408" stroke="black" stroke-width="1.3" stroke-linecap="round" stroke-linejoin="round" stroke-dasharray="4.89 4.89"/>
<path d="M218.422 249.005C226.309 248.72 234.06 251.112 240.414 255.793C246.767 260.474 251.35 267.168 253.415 274.785C255.48 282.402 254.906 290.494 251.786 297.743C248.667 304.993 243.186 310.973 236.235 314.71" stroke="black" stroke-width="1.3" stroke-linecap="round" stroke-linejoin="round" stroke-dasharray="5.14 5.14"/>
<path d="M232.326 322.099C231.827 323.876 230.87 325.491 229.551 326.783C228.232 328.075 226.598 328.999 224.81 329.461C224.371 329.571 223.927 329.656 223.479 329.716" stroke="black" stroke-width="1.3" stroke-linecap="round" stroke-linejoin="round" stroke-dasharray="4.17 4.17"/>
<path d="M218.727 335.586C217.517 340.115 215.124 344.241 211.794 347.541C208.465 350.842 204.317 353.197 199.777 354.366C198.956 354.583 198.123 354.756 197.283 354.884" stroke="black" stroke-width="1.3" stroke-linecap="round" stroke-linejoin="round" stroke-dasharray="4.8 4.8"/>
<path d="M192.661 361.44C191.352 370.863 187.467 379.742 181.434 387.098C175.401 394.454 167.454 400.001 158.47 403.128C149.485 406.256 139.811 406.842 130.515 404.822C121.218 402.802 112.66 398.254 105.783 391.68" stroke="black" stroke-width="1.3" stroke-linecap="round" stroke-linejoin="round" stroke-dasharray="4.86 4.86"/>
<path d="M97.0713 390.468C92.0982 391.328 86.9809 390.637 82.4135 388.49C77.8461 386.343 74.0496 382.843 71.5391 378.465" stroke="black" stroke-width="1.3" stroke-linecap="round" stroke-linejoin="round" stroke-dasharray="4.72 4.72"/>
<path d="M63.9898 377.353C63.1416 377.65 62.2424 377.922 61.3433 378.151C53.4713 380.159 45.1416 379.298 37.8464 375.723C30.5511 372.149 24.767 366.093 21.5303 358.642C18.2935 351.19 17.8156 342.83 20.1821 335.058C22.5486 327.287 27.605 320.611 34.4453 316.229" stroke="black" stroke-width="1.3" stroke-linecap="round" stroke-linejoin="round" stroke-dasharray="4.99 4.99"/>
<path d="M37.3973 307.873C37.108 301.717 38.137 295.571 40.4156 289.846C42.6942 284.12 46.1697 278.947 50.6095 274.674C55.0492 270.4 60.3507 267.125 66.1591 265.066C71.9674 263.008 78.1485 262.214 84.2885 262.738" stroke="black" stroke-width="1.3" stroke-linecap="round" stroke-linejoin="round" stroke-dasharray="4.96 4.96"/>
<path d="M189.26 244.323C190.069 243.986 190.899 243.702 191.745 243.475C194.717 242.707 197.824 242.631 200.83 243.251C203.835 243.872 206.659 245.173 209.083 247.054" stroke="black" stroke-width="1.3" stroke-linecap="round" stroke-linejoin="round" stroke-dasharray="4.49 4.49"/>
<path d="M234.293 315.686C233.657 315.974 233.003 316.254 232.342 316.534C232.342 316.577 232.342 316.611 232.342 316.653C232.508 317.298 232.613 317.957 232.656 318.621" stroke="black" stroke-width="1.3" stroke-linecap="round" stroke-linejoin="round"/>
<path d="M221.712 329.784C221.005 329.751 220.304 329.649 219.617 329.479C219.617 330.191 219.549 330.895 219.473 331.591" stroke="black" stroke-width="1.3" stroke-linecap="round" stroke-linejoin="round"/>
<path d="M195.256 355.129C194.552 355.189 193.839 355.214 193.143 355.214C193.143 355.918 193.143 356.631 193.059 357.335" stroke="black" stroke-width="1.3" stroke-linecap="round" stroke-linejoin="round"/>
<path d="M104.323 390.23C103.831 389.721 103.347 389.203 102.881 388.669C102.236 388.957 101.583 389.22 100.904 389.458" stroke="black" stroke-width="1.3" stroke-linecap="round" stroke-linejoin="round"/>
<path d="M70.5881 376.692C70.2912 376.056 70.0198 375.394 69.7399 374.732C69.1291 375.08 68.5014 375.411 67.8652 375.725" stroke="black" stroke-width="1.3" stroke-linecap="round" stroke-linejoin="round"/>
<path d="M36.2676 315.118C36.8868 314.778 37.5145 314.456 38.1592 314.159C38.0235 313.455 37.9047 312.76 37.8029 312.064" stroke="black" stroke-width="1.3" stroke-linecap="round" stroke-linejoin="round"/>
<path d="M86.373 262.967C87.0771 263.06 87.7727 263.171 88.4682 263.306C88.5181 262.599 88.6202 261.895 88.7736 261.203" stroke="black" stroke-width="1.3" stroke-linecap="round" stroke-linejoin="round"/>
<path d="M110.779 253.026C111.35 253.446 111.887 253.911 112.382 254.417C112.756 253.815 113.146 253.23 113.553 252.653" stroke="black" stroke-width="1.3" stroke-linecap="round" stroke-linejoin="round"/>
<path d="M182.66 245.807C183.169 246.299 183.67 246.799 184.162 247.308C184.704 246.865 185.27 246.451 185.858 246.07" stroke="black" stroke-width="1.3" stroke-linecap="round" stroke-linejoin="round"/>
<path d="M210.533 248.318C211.05 248.802 211.54 249.315 212.001 249.853C212.696 249.692 213.392 249.556 214.079 249.446" stroke="black" stroke-width="1.3" stroke-linecap="round" stroke-linejoin="round"/>
</svg>
