<svg width="79" height="225" viewBox="0 0 79 225" fill="none" xmlns="http://www.w3.org/2000/svg">
<path d="M0.886719 0.319824L0.886721 22.6758C29.4527 22.6758 29.6597 35.0958 29.6597 70.4928V87.2598C29.6597 98.2308 30.4877 110.651 46.2197 114.17V115.205C30.0737 118.931 29.8667 130.523 29.8667 145.013L29.8667 167.369C29.8667 196.763 29.4527 202.559 0.886736 202.559L0.886738 224.915C45.8057 224.915 60.0887 216.221 60.0887 181.652V152.879C60.0887 138.182 62.7797 130.523 78.7187 127.211L78.7187 102.164C62.5727 100.715 59.8817 87.2598 59.8817 79.1868L59.8817 54.1398C59.8817 10.4628 45.5987 0.31982 0.886719 0.319824Z" fill="#1EE7CA"/>
</svg>
