<svg width="79" height="225" viewBox="0 0 79 225" fill="none" xmlns="http://www.w3.org/2000/svg">
<path d="M78.1113 224.68V202.324C49.5453 202.324 49.3383 189.904 49.3383 154.507V137.74C49.3383 126.769 48.5103 114.349 32.7783 110.83V109.795C48.9243 106.069 49.1313 94.477 49.1313 79.987V57.631C49.1313 28.237 49.5453 22.441 78.1113 22.441V0.0849609C33.1923 0.0849609 18.9093 8.77896 18.9093 43.348V72.121C18.9093 86.818 16.2183 94.477 0.279297 97.789V122.836C16.4253 124.285 19.1163 137.74 19.1163 145.813V170.86C19.1163 214.537 33.3993 224.68 78.1113 224.68Z" fill="#1EE7CA"/>
</svg>
