<svg width="50" height="50" viewBox="0 0 50 50" fill="none" xmlns="http://www.w3.org/2000/svg">
<path d="M0 25C0 11.1929 11.1929 0 25 0V0C38.8071 0 50 11.1929 50 25V25C50 38.8071 38.8071 50 25 50V50C11.1929 50 0 38.8071 0 25V25Z" fill="black"/>
<path d="M12.5 23.3333C11.5795 23.3333 10.8333 24.0795 10.8333 25C10.8333 25.9205 11.5795 26.6667 12.5 26.6667L12.5 23.3333ZM38.6785 26.1785C39.3294 25.5276 39.3294 24.4724 38.6785 23.8215L28.0719 13.2149C27.421 12.564 26.3658 12.564 25.7149 13.2149C25.064 13.8658 25.064 14.921 25.7149 15.5719L35.143 25L25.7149 34.4281C25.064 35.079 25.064 36.1342 25.7149 36.7851C26.3658 37.436 27.421 37.436 28.0719 36.7851L38.6785 26.1785ZM12.5 26.6667L37.5 26.6667L37.5 23.3333L12.5 23.3333L12.5 26.6667Z" fill="white"/>
</svg>
