<svg width="375" height="471" viewBox="0 0 375 471" fill="none" xmlns="http://www.w3.org/2000/svg">
<path d="M102.689 109.048C99.5092 110.378 96.1592 109.668 95.0492 107.358C93.9392 105.048 95.6192 101.698 98.9192 100.108L99.1392 100.018C91.4692 83.1483 82.3592 77.7383 82.3592 77.7383C82.3592 77.7383 55.5892 93.9583 55.8892 156.738C56.1892 219.518 83.1092 238.418 83.1092 238.418C83.1092 238.418 109.859 219.238 109.569 156.488C109.469 136.068 106.569 120.638 102.689 109.048Z" fill="black" stroke="black" stroke-width="1.3" stroke-linecap="round" stroke-linejoin="round"/>
<path d="M74.8003 154.559C74.6003 153.969 74.4003 153.409 74.2003 152.829C73.2655 153.044 72.3094 153.151 71.3503 153.149C65.7203 153.149 61.1503 149.569 61.1503 145.149C61.1503 141.609 64.0903 138.599 68.1503 137.549C61.5603 122.829 54.4103 112.449 47.8203 105.169C46.7923 106.061 45.4679 106.535 44.1076 106.5C42.7473 106.465 41.4495 105.921 40.4693 104.978C39.4891 104.034 38.8974 102.757 38.8106 101.399C38.7238 100.041 39.1482 98.7 40.0003 97.6391C30.8003 89.9891 24.0903 88.5391 24.0903 88.5391C24.0903 88.5391 3.8203 112.349 24.0003 171.779C24.2803 172.609 24.5703 173.419 24.8503 174.229C25.6103 174.072 26.3842 173.992 27.1603 173.989C31.9503 173.989 35.8303 176.889 35.8303 180.469C35.8303 183.389 33.2503 185.849 29.7003 186.659C49.5703 232.839 75.7003 240.659 75.7003 240.659C75.7003 240.659 94.9303 213.989 74.8003 154.559Z" fill="#33E6CA"/>
<path d="M41.6797 147.578C46.2797 169.238 54.9997 198.058 70.2997 213.518" stroke="black" stroke-width="1.3" stroke-linecap="round" stroke-linejoin="round"/>
<path d="M37.1328 119.508C37.1328 119.508 38.0428 128.948 40.5928 142.168" stroke="black" stroke-width="1.3" stroke-linecap="round" stroke-linejoin="round"/>
<path d="M111.602 227.799H47.3516C47.3516 237.219 54.3516 245.389 64.5416 249.489V254.689H94.4216V249.489C104.642 245.389 111.602 237.219 111.602 227.799Z" fill="white"/>
<path d="M111.602 227.799H47.3516C47.3516 237.219 54.3516 245.389 64.5416 249.489V254.689H94.4216V249.489C104.642 245.389 111.602 237.219 111.602 227.799Z" stroke="black" stroke-width="1.3" stroke-linecap="round" stroke-linejoin="round"/>
<path d="M94.4192 249.488H68.6992" stroke="black" stroke-width="1.3" stroke-linecap="round" stroke-linejoin="round"/>
<path d="M81.5629 95.2285C79.6223 107.184 78.9252 119.309 79.4829 131.409" stroke="white" stroke-width="1.3" stroke-linecap="round" stroke-linejoin="round"/>
<path d="M66.8284 265.479L40.6484 393.829H46.8984L83.6184 265.479H66.8284Z" fill="#33E6CA"/>
<path d="M26.19 265.479L0 393.829H6.25L42.98 265.479H26.19Z" fill="#33E6CA"/>
<path d="M239.149 265.479L265.329 393.829H259.079L222.359 265.479H239.149Z" fill="#33E6CA"/>
<path d="M279.79 265.479L305.98 393.829H299.73L263 265.479H279.79Z" fill="#33E6CA"/>
<path d="M59.3698 254.688H8.83984V265.477H59.3698V254.688Z" fill="white"/>
<path d="M283.507 254.688H59.3672V265.477H283.507V254.688Z" fill="white"/>
<path d="M107.877 265.479H59.3672" stroke="black" stroke-width="1.3" stroke-linecap="round" stroke-linejoin="round"/>
<path d="M197.71 254.688H283.51V265.477H113.02" stroke="black" stroke-width="1.3" stroke-linecap="round" stroke-linejoin="round"/>
<path d="M59.3672 263.167V254.688H188.507" stroke="black" stroke-width="1.3" stroke-linecap="round" stroke-linejoin="round"/>
<path d="M59.3698 265.477H8.83984V254.688H59.3698" stroke="black" stroke-width="1.3" stroke-linecap="round" stroke-linejoin="round"/>
<path d="M114.229 232.479L108.999 250.049H146.099V254.689H107.769C107.205 254.687 106.65 254.555 106.146 254.301C105.643 254.047 105.206 253.679 104.87 253.227C104.534 252.774 104.308 252.249 104.211 251.694C104.113 251.139 104.147 250.568 104.309 250.029L109.579 232.479" fill="white"/>
<path d="M137.619 250.049L142.899 232.479H114.229L108.949 250.049H137.619Z" fill="white"/>
<path d="M174.772 250.049H146.102V254.689H174.772V250.049Z" fill="white"/>
<path d="M199.239 232.478H105.839C103.521 232.479 101.252 231.804 99.311 230.536C97.3699 229.268 95.8403 227.462 94.9094 225.338L62.9994 152.398C62.6533 151.611 62.5092 150.75 62.5801 149.892C62.651 149.035 62.9346 148.209 63.4053 147.489C63.8759 146.769 64.5188 146.178 65.2756 145.77C66.0324 145.361 66.8792 145.147 67.7394 145.148H161.139C163.447 145.161 165.702 145.843 167.63 147.112C169.558 148.382 171.076 150.183 171.999 152.298L203.999 225.228C204.346 226.017 204.49 226.881 204.418 227.739C204.346 228.598 204.061 229.426 203.588 230.146C203.115 230.866 202.469 231.457 201.71 231.865C200.95 232.272 200.101 232.483 199.239 232.478Z" fill="white"/>
<path d="M94.9072 225.338L62.9972 152.398C62.6511 151.611 62.507 150.75 62.5779 149.892C62.6488 149.035 62.9324 148.209 63.4031 147.489C63.8738 146.769 64.5166 146.178 65.2734 145.77C66.0302 145.361 66.8771 145.147 67.7372 145.148H59.9972C59.1371 145.147 58.2902 145.361 57.5334 145.77C56.7766 146.178 56.1338 146.769 55.6631 147.489C55.1924 148.209 54.9088 149.035 54.8379 149.892C54.767 150.75 54.9111 151.611 55.2572 152.398L87.2172 225.338C88.1481 227.462 89.6777 229.268 91.6188 230.536C93.56 231.804 95.8286 232.479 98.1472 232.478H105.837C103.519 232.479 101.25 231.804 99.3088 230.536C97.3677 229.268 95.8381 227.462 94.9072 225.338Z" fill="white"/>
<path d="M67.7072 145.148H59.9972C59.1371 145.147 58.2902 145.361 57.5334 145.77C56.7766 146.178 56.1338 146.769 55.6631 147.489C55.1924 148.209 54.9088 149.035 54.8379 149.892C54.767 150.75 54.9111 151.611 55.2572 152.398L87.2172 225.338C88.1481 227.462 89.6777 229.268 91.6188 230.536C93.56 231.804 95.8286 232.479 98.1472 232.478H105.837C103.519 232.479 101.25 231.804 99.3088 230.536C97.3677 229.268 95.8381 227.462 94.9072 225.338L62.9972 152.398" stroke="black" stroke-width="1.3" stroke-linecap="round" stroke-linejoin="round"/>
<path d="M187.539 187.688L203.999 225.228C204.345 226.016 204.489 226.877 204.418 227.734C204.347 228.591 204.064 229.417 203.593 230.137C203.122 230.857 202.479 231.448 201.723 231.857C200.966 232.266 200.119 232.479 199.259 232.478H105.859C103.54 232.479 101.272 231.804 99.3306 230.536C97.3894 229.268 95.8599 227.462 94.9289 225.338L62.9989 152.398C62.655 151.628 62.507 150.785 62.5681 149.944C62.6292 149.103 62.8974 148.29 63.3489 147.578" stroke="black" stroke-width="1.3" stroke-linecap="round" stroke-linejoin="round"/>
<path d="M67.7109 145.148H161.111C163.424 145.155 165.685 145.835 167.619 147.104C169.553 148.374 171.075 150.179 172.001 152.298L185.001 181.798" stroke="black" stroke-width="1.3" stroke-linecap="round" stroke-linejoin="round"/>
<path d="M190.521 212.459H97.1708L70.3008 151.139H163.651L190.521 212.459Z" fill="#33E6CA"/>
<path d="M196.738 219.299H92.2578" stroke="black" stroke-width="1.3" stroke-linecap="round" stroke-linejoin="round"/>
<path d="M152.35 222.748C151.811 222.808 151.303 223.032 150.896 223.39C150.489 223.748 150.202 224.223 150.074 224.75C149.947 225.277 149.984 225.831 150.182 226.336C150.38 226.841 150.729 227.273 151.181 227.572C151.633 227.872 152.166 228.025 152.709 228.011C153.251 227.997 153.775 227.816 154.211 227.494C154.647 227.171 154.973 226.722 155.144 226.207C155.316 225.693 155.325 225.138 155.17 224.618" stroke="black" stroke-width="1.3" stroke-linecap="round" stroke-linejoin="round"/>
<path d="M89.7681 219.299H84.5781" stroke="black" stroke-width="1.3" stroke-linecap="round" stroke-linejoin="round"/>
<path d="M95.3281 151.139H163.648L190.518 212.459" stroke="black" stroke-width="1.3" stroke-linecap="round" stroke-linejoin="round"/>
<path d="M146.099 254.689H107.769C107.205 254.687 106.65 254.555 106.146 254.301C105.643 254.047 105.206 253.679 104.87 253.227C104.534 252.774 104.308 252.249 104.211 251.694C104.113 251.139 104.147 250.568 104.309 250.029L109.579 232.479" stroke="black" stroke-width="1.3" stroke-linecap="round" stroke-linejoin="round"/>
<path d="M114.229 232.479L108.949 250.049H146.099" stroke="black" stroke-width="1.3" stroke-linecap="round" stroke-linejoin="round"/>
<path d="M138.579 246.879L142.899 232.479H114.229L108.949 250.049" stroke="black" stroke-width="1.3" stroke-linecap="round" stroke-linejoin="round"/>
<path d="M146.102 254.689H174.772V250.049H146.102V252.369" stroke="black" stroke-width="1.3" stroke-linecap="round" stroke-linejoin="round"/>
<path d="M292.44 259.719H282.22C280.452 259.719 279.02 261.151 279.02 262.919V266.709C279.02 268.476 280.452 269.909 282.22 269.909H292.44C294.207 269.909 295.64 268.476 295.64 266.709V262.919C295.64 261.151 294.207 259.719 292.44 259.719Z" fill="#33E6CA"/>
<path d="M224.499 316.559H210.109V349.539H224.499V316.559Z" fill="#33E6CA"/>
<path d="M292.44 259.719H282.22C280.452 259.719 279.02 261.151 279.02 262.919V266.709C279.02 268.476 280.452 269.909 282.22 269.909H292.44C294.207 269.909 295.64 268.476 295.64 266.709V262.919C295.64 261.151 294.207 259.719 292.44 259.719Z" stroke="black" stroke-width="1.3" stroke-linecap="round" stroke-linejoin="round"/>
<path d="M162.062 269.898L165.423 288.988C165.496 289.406 165.476 289.834 165.366 290.242C165.256 290.651 165.058 291.031 164.785 291.355C164.513 291.679 164.172 291.94 163.788 292.118C163.404 292.297 162.986 292.389 162.562 292.388H148.562V289.318H161.952L158.682 269.898H162.062Z" stroke="black" stroke-width="1.3" stroke-linecap="round" stroke-linejoin="round"/>
<path d="M172.432 288.988L169.062 269.898H162.062L165.423 288.988C165.496 289.406 165.476 289.834 165.366 290.242C165.256 290.651 165.058 291.031 164.785 291.355C164.513 291.679 164.172 291.94 163.788 292.118C163.404 292.297 162.986 292.389 162.562 292.388H169.562C169.986 292.389 170.405 292.296 170.789 292.118C171.174 291.94 171.514 291.679 171.788 291.355C172.061 291.032 172.26 290.652 172.372 290.243C172.483 289.834 172.504 289.406 172.432 288.988V288.988Z" stroke="black" stroke-width="1.3" stroke-linecap="round" stroke-linejoin="round"/>
<path d="M235.889 296.338H198.719L203.779 313.338C204.055 314.27 204.624 315.088 205.403 315.67C206.181 316.252 207.127 316.567 208.099 316.568H226.509C227.481 316.567 228.426 316.252 229.205 315.67C229.983 315.088 230.553 314.27 230.829 313.338L235.889 296.338Z" stroke="black" stroke-width="1.3" stroke-linecap="round" stroke-linejoin="round"/>
<path d="M215.919 349.539H218.699C220.24 349.539 221.718 350.151 222.808 351.241C223.897 352.33 224.509 353.808 224.509 355.349V377.749H210.109V355.349C210.109 353.808 210.721 352.33 211.811 351.241C212.901 350.151 214.378 349.539 215.919 349.539V349.539Z" stroke="black" stroke-width="1.3" stroke-linecap="round" stroke-linejoin="round"/>
<path d="M160.177 396.958C163.11 396.958 165.487 392.656 165.487 387.348C165.487 382.041 163.11 377.738 160.177 377.738C157.245 377.738 154.867 382.041 154.867 387.348C154.867 392.656 157.245 396.958 160.177 396.958Z" stroke="black" stroke-width="1.3" stroke-linecap="round" stroke-linejoin="round"/>
<path d="M166.199 377.748H160.199C163.129 377.748 165.509 382.048 165.509 387.348C165.509 392.648 163.129 396.958 160.199 396.958H166.199C169.129 396.958 171.509 392.658 171.509 387.348C171.509 382.038 169.129 377.748 166.199 377.748Z" stroke="black" stroke-width="1.3" stroke-linecap="round" stroke-linejoin="round"/>
<path d="M268.708 396.958C271.641 396.958 274.018 392.656 274.018 387.348C274.018 382.041 271.641 377.738 268.708 377.738C265.776 377.738 263.398 382.041 263.398 387.348C263.398 392.656 265.776 396.958 268.708 396.958Z" stroke="black" stroke-width="1.3" stroke-linecap="round" stroke-linejoin="round"/>
<path d="M274.73 377.748H268.73C271.66 377.748 274.04 382.048 274.04 387.348C274.04 392.648 271.66 396.958 268.73 396.958H274.73C277.66 396.958 280.04 392.658 280.04 387.348C280.04 382.038 277.66 377.748 274.73 377.748Z" stroke="black" stroke-width="1.3" stroke-linecap="round" stroke-linejoin="round"/>
<path d="M220.269 377.748H214.339C212.892 377.748 211.719 378.921 211.719 380.368V392.978C211.719 394.425 212.892 395.598 214.339 395.598H220.269C221.716 395.598 222.889 394.425 222.889 392.978V380.368C222.889 378.921 221.716 377.748 220.269 377.748Z" stroke="black" stroke-width="1.3" stroke-linecap="round" stroke-linejoin="round"/>
<path d="M273.34 169.488H195.49C196.689 169.488 197.873 169.749 198.961 170.253C200.049 170.757 201.015 171.491 201.79 172.406C202.566 173.32 203.133 174.393 203.452 175.548C203.772 176.704 203.835 177.915 203.64 179.098L185.64 287.328C185.223 289.843 183.926 292.129 181.981 293.777C180.036 295.425 177.569 296.329 175.02 296.328H272.25C275.022 296.326 277.682 295.229 279.65 293.275C281.618 291.322 282.736 288.671 282.76 285.898L283.6 179.838C283.609 178.484 283.35 177.141 282.839 175.887C282.328 174.633 281.574 173.493 280.62 172.531C279.667 171.569 278.533 170.805 277.284 170.283C276.034 169.761 274.694 169.491 273.34 169.488Z" fill="white"/>
<path d="M143 296.338H175C177.549 296.339 180.016 295.435 181.961 293.787C183.906 292.139 185.203 289.853 185.62 287.338L203.62 179.108C203.816 177.925 203.752 176.714 203.432 175.558C203.113 174.402 202.546 173.33 201.77 172.416C200.995 171.501 200.029 170.766 198.941 170.263C197.853 169.759 196.669 169.498 195.47 169.498C193.452 169.498 191.504 170.236 189.993 171.574C188.483 172.911 187.514 174.755 187.27 176.758L174.21 283.808H143C142.597 283.801 142.198 283.876 141.825 284.026C141.451 284.177 141.112 284.402 140.828 284.686C140.543 284.971 140.319 285.31 140.168 285.683C140.017 286.056 139.943 286.456 139.95 286.858V293.278C139.95 294.088 140.271 294.865 140.842 295.438C141.414 296.012 142.19 296.335 143 296.338Z" fill="white"/>
<path d="M143 283.808C142.597 283.801 142.198 283.876 141.825 284.027C141.451 284.177 141.112 284.402 140.828 284.686C140.543 284.971 140.319 285.31 140.168 285.683C140.017 286.056 139.943 286.456 139.95 286.858V293.278C139.95 294.088 140.271 294.865 140.842 295.438C141.414 296.012 142.19 296.335 143 296.338H175C177.549 296.339 180.016 295.435 181.961 293.787C183.906 292.139 185.203 289.853 185.62 287.338L203.62 179.108C203.958 177.102 203.537 175.041 202.44 173.328" stroke="black" stroke-width="1.3" stroke-linecap="round" stroke-linejoin="round"/>
<path d="M195.49 169.488C193.472 169.488 191.524 170.226 190.014 171.564C188.503 172.901 187.534 174.745 187.29 176.748L174.21 283.808H146.59" stroke="black" stroke-width="1.3" stroke-linecap="round" stroke-linejoin="round"/>
<path d="M283.622 179.848C283.633 178.492 283.375 177.146 282.863 175.89C282.351 174.633 281.595 173.491 280.64 172.527C279.684 171.564 278.547 170.8 277.295 170.278C276.042 169.757 274.699 169.488 273.342 169.488H195.492" stroke="black" stroke-width="1.3" stroke-linecap="round" stroke-linejoin="round"/>
<path d="M272.27 296.338C275.042 296.336 277.702 295.239 279.67 293.285C281.638 291.332 282.756 288.681 282.78 285.908L283.58 185.068" stroke="black" stroke-width="1.3" stroke-linecap="round" stroke-linejoin="round"/>
<path d="M203.64 179.098L185.64 287.328C185.223 289.843 183.926 292.128 181.981 293.776C180.036 295.425 177.569 296.329 175.02 296.328H265.73" stroke="black" stroke-width="1.3" stroke-linecap="round" stroke-linejoin="round"/>
<path d="M181.389 259.719H171.169C169.401 259.719 167.969 261.151 167.969 262.919V266.709C167.969 268.476 169.401 269.909 171.169 269.909H181.389C183.156 269.909 184.589 268.476 184.589 266.709V262.919C184.589 261.151 183.156 259.719 181.389 259.719Z" fill="#33E6CA"/>
<path d="M168.002 266.699V262.929C168.001 262.507 168.083 262.089 168.244 261.699C168.404 261.309 168.641 260.954 168.939 260.656C169.237 260.358 169.592 260.121 169.982 259.96C170.372 259.8 170.79 259.717 171.212 259.719H143.132C142.281 259.719 141.464 260.057 140.862 260.659C140.26 261.261 139.922 262.077 139.922 262.929V266.699C139.925 267.548 140.264 268.362 140.866 268.962C141.467 269.562 142.282 269.899 143.132 269.899H171.182C170.337 269.894 169.528 269.554 168.932 268.954C168.336 268.355 168.002 267.544 168.002 266.699Z" fill="#33E6CA"/>
<path d="M139.922 266.698C139.925 267.547 140.264 268.361 140.866 268.961C141.467 269.561 142.282 269.898 143.132 269.898H171.182C170.761 269.899 170.344 269.817 169.954 269.657C169.565 269.497 169.211 269.261 168.913 268.964C168.614 268.667 168.378 268.314 168.216 267.925C168.055 267.536 167.972 267.119 167.972 266.698V262.928" stroke="black" stroke-width="1.3" stroke-linecap="round" stroke-linejoin="round"/>
<path d="M162.062 269.898L165.423 288.988C165.496 289.406 165.476 289.834 165.366 290.242C165.256 290.651 165.058 291.031 164.785 291.355C164.513 291.679 164.172 291.94 163.788 292.118C163.404 292.297 162.986 292.389 162.562 292.388H148.562V289.318H161.952L158.682 269.898H162.062Z" fill="black" stroke="black" stroke-width="1.3" stroke-linecap="round" stroke-linejoin="round"/>
<path d="M172.432 288.988L169.062 269.898H162.062L165.423 288.988C165.496 289.406 165.476 289.834 165.366 290.242C165.256 290.651 165.058 291.031 164.785 291.355C164.513 291.679 164.172 291.94 163.788 292.118C163.404 292.297 162.986 292.389 162.562 292.388H169.562C169.986 292.389 170.405 292.296 170.789 292.118C171.174 291.94 171.514 291.679 171.788 291.355C172.061 291.032 172.26 290.652 172.372 290.243C172.483 289.834 172.504 289.406 172.432 288.988Z" fill="black" stroke="black" stroke-width="1.3" stroke-linecap="round" stroke-linejoin="round"/>
<path d="M172.432 288.988L169.062 269.898H162.062L165.423 288.988C165.496 289.406 165.476 289.834 165.366 290.242C165.256 290.651 165.058 291.031 164.785 291.355C164.513 291.679 164.172 291.94 163.788 292.118C163.404 292.297 162.986 292.389 162.562 292.388H169.562C169.986 292.389 170.405 292.296 170.789 292.118C171.174 291.94 171.514 291.679 171.788 291.355C172.061 291.032 172.26 290.652 172.372 290.243C172.483 289.834 172.504 289.406 172.432 288.988V288.988Z" stroke="black" stroke-width="1.3" stroke-linecap="round" stroke-linejoin="round"/>
<path d="M235.889 296.338H198.719L203.779 313.338C204.055 314.27 204.624 315.088 205.403 315.67C206.181 316.252 207.127 316.567 208.099 316.568H226.509C227.481 316.567 228.426 316.252 229.205 315.67C229.983 315.088 230.553 314.27 230.829 313.338L235.889 296.338Z" fill="black" stroke="black" stroke-width="1.3" stroke-linecap="round" stroke-linejoin="round"/>
<path d="M235.889 296.338H198.719L203.779 313.338C204.055 314.27 204.624 315.088 205.403 315.67C206.181 316.252 207.127 316.567 208.099 316.568H226.509C227.481 316.567 228.426 316.252 229.205 315.67C229.983 315.088 230.553 314.27 230.829 313.338L235.889 296.338Z" stroke="black" stroke-width="1.3" stroke-linecap="round" stroke-linejoin="round"/>
<path d="M225.248 349.539H209.348C206.961 349.542 204.593 349.958 202.348 350.769L161.348 365.569C159.658 366.18 158.197 367.297 157.165 368.768C156.132 370.239 155.578 371.992 155.578 373.789V377.789H167.248L217.248 370.789L267.638 377.789H278.998V373.789C278.998 371.992 278.444 370.239 277.412 368.768C276.379 367.297 274.918 366.18 273.228 365.569L232.228 350.769C229.99 349.961 227.628 349.545 225.248 349.539Z" fill="white"/>
<path d="M232.26 350.769C230.015 349.958 227.647 349.542 225.26 349.539H209.36C206.973 349.542 204.605 349.958 202.36 350.769L161.36 365.569C159.67 366.18 158.209 367.297 157.176 368.768C156.144 370.238 155.59 371.992 155.59 373.789V377.789H167.26L206.26 372.309" stroke="black" stroke-width="1.3" stroke-linecap="round" stroke-linejoin="round"/>
<path d="M279.001 373.788C279.001 371.991 278.447 370.238 277.414 368.767C276.382 367.296 274.921 366.179 273.231 365.568L237.141 352.568" stroke="black" stroke-width="1.3" stroke-linecap="round" stroke-linejoin="round"/>
<path d="M217.301 370.719L267.691 377.749H279.021" stroke="black" stroke-width="1.3" stroke-linecap="round" stroke-linejoin="round"/>
<path d="M215.919 349.539H218.699C220.24 349.539 221.718 350.151 222.808 351.241C223.897 352.33 224.509 353.808 224.509 355.349V377.749H210.109V355.349C210.109 353.808 210.721 352.33 211.811 351.241C212.901 350.151 214.378 349.539 215.919 349.539Z" fill="white"/>
<path d="M210.109 361.069V377.749H224.499V355.359C224.497 353.815 223.881 352.334 222.788 351.243C221.695 350.152 220.214 349.539 218.669 349.539H215.929C214.387 349.542 212.908 350.156 211.817 351.247C210.726 352.338 210.112 353.816 210.109 355.359" stroke="black" stroke-width="1.3" stroke-linecap="round" stroke-linejoin="round"/>
<path d="M160.177 396.958C163.11 396.958 165.487 392.656 165.487 387.348C165.487 382.041 163.11 377.738 160.177 377.738C157.245 377.738 154.867 382.041 154.867 387.348C154.867 392.656 157.245 396.958 160.177 396.958Z" fill="white"/>
<path d="M160.177 396.958C163.11 396.958 165.487 392.656 165.487 387.348C165.487 382.041 163.11 377.738 160.177 377.738C157.245 377.738 154.867 382.041 154.867 387.348C154.867 392.656 157.245 396.958 160.177 396.958Z" stroke="black" stroke-width="1.3" stroke-linecap="round" stroke-linejoin="round"/>
<path d="M166.199 377.748H160.199C163.129 377.748 165.509 382.048 165.509 387.348C165.509 392.648 163.129 396.958 160.199 396.958H166.199C169.129 396.958 171.509 392.658 171.509 387.348C171.509 382.038 169.129 377.748 166.199 377.748Z" stroke="black" stroke-width="1.3" stroke-linecap="round" stroke-linejoin="round"/>
<path d="M166.199 377.748H160.199C163.129 377.748 165.509 382.048 165.509 387.348C165.509 392.648 163.129 396.958 160.199 396.958H166.199C169.129 396.958 171.509 392.658 171.509 387.348C171.509 382.038 169.129 377.748 166.199 377.748Z" fill="black" stroke="black" stroke-width="1.3" stroke-linecap="round" stroke-linejoin="round"/>
<path d="M268.708 396.958C271.641 396.958 274.018 392.656 274.018 387.348C274.018 382.041 271.641 377.738 268.708 377.738C265.776 377.738 263.398 382.041 263.398 387.348C263.398 392.656 265.776 396.958 268.708 396.958Z" fill="white"/>
<path d="M268.708 396.958C271.641 396.958 274.018 392.656 274.018 387.348C274.018 382.041 271.641 377.738 268.708 377.738C265.776 377.738 263.398 382.041 263.398 387.348C263.398 392.656 265.776 396.958 268.708 396.958Z" stroke="black" stroke-width="1.3" stroke-linecap="round" stroke-linejoin="round"/>
<path d="M274.73 377.748H268.73C271.66 377.748 274.04 382.048 274.04 387.348C274.04 392.648 271.66 396.958 268.73 396.958H274.73C277.66 396.958 280.04 392.658 280.04 387.348C280.04 382.038 277.66 377.748 274.73 377.748Z" fill="black" stroke="black" stroke-width="1.3" stroke-linecap="round" stroke-linejoin="round"/>
<path d="M220.269 377.748H214.339C212.892 377.748 211.719 378.921 211.719 380.368V392.978C211.719 394.425 212.892 395.598 214.339 395.598H220.269C221.716 395.598 222.889 394.425 222.889 392.978V380.368C222.889 378.921 221.716 377.748 220.269 377.748Z" stroke="black" stroke-width="1.3" stroke-linecap="round" stroke-linejoin="round"/>
<path d="M220.269 377.748H214.339C212.892 377.748 211.719 378.921 211.719 380.368V392.978C211.719 394.425 212.892 395.598 214.339 395.598H220.269C221.716 395.598 222.889 394.425 222.889 392.978V380.368C222.889 378.921 221.716 377.748 220.269 377.748Z" fill="black" stroke="black" stroke-width="1.3" stroke-linecap="round" stroke-linejoin="round"/>
<path d="M210.109 316.559V335.149" stroke="black" stroke-width="1.3" stroke-linecap="round" stroke-linejoin="round"/>
<path d="M210.109 335.148V349.538" stroke="black" stroke-width="1.3" stroke-linecap="round" stroke-linejoin="round"/>
<path d="M224.5 320.568V349.538" stroke="black" stroke-width="1.3" stroke-linecap="round" stroke-linejoin="round"/>
<path d="M171.179 259.719H181.379C182.23 259.719 183.047 260.057 183.649 260.659C184.251 261.261 184.589 262.077 184.589 262.929V266.699C184.586 267.548 184.247 268.362 183.645 268.962C183.043 269.562 182.228 269.899 181.379 269.899H171.179C170.758 269.9 170.34 269.818 169.951 269.658C169.562 269.498 169.208 269.262 168.91 268.965C168.611 268.668 168.375 268.315 168.213 267.926C168.052 267.537 167.969 267.12 167.969 266.699V262.929" stroke="black" stroke-width="1.3" stroke-linecap="round" stroke-linejoin="round"/>
<path d="M168.002 259.719H143.132C142.281 259.719 141.464 260.057 140.862 260.659C140.26 261.261 139.922 262.077 139.922 262.929V262.929" stroke="black" stroke-width="1.3" stroke-linecap="round" stroke-linejoin="round"/>
<path d="M361.831 116.968C357.591 107.378 353.971 99.6782 350.831 91.7682L348.581 85.7682C345.381 75.9782 343.121 67.6982 334.091 64.8682C325.061 62.0382 318.091 60.4882 318.091 60.4882L321.891 60.1982C322.778 60.0689 323.606 59.6754 324.266 59.0689C324.926 58.4624 325.388 57.6711 325.591 56.7982C326.791 51.7982 329.211 41.6282 329.711 39.3682C329.955 38.2493 329.938 37.0895 329.661 35.9782C329.298 34.5845 329.364 33.1136 329.851 31.7582C330.487 30.173 330.69 28.4477 330.441 26.7582C330.151 23.8982 329.901 22.2682 329.901 22.2682L329.421 19.6382L333.231 21.7482C334.141 8.74822 321.611 5.34822 321.611 5.34822L323.431 2.04822C305.461 -1.46178 294.001 4.96822 294.001 4.96822V1.45822C288.948 4.43788 284.885 8.8415 282.321 14.1182C280.871 17.1972 280.19 20.5827 280.338 23.9831C280.486 27.3835 281.458 30.697 283.171 33.6382C285.271 37.2482 287.501 40.6882 289.401 43.5782C286.568 43.7058 283.754 44.1145 281.001 44.7982C279.988 45.04 279.041 45.5003 278.224 46.1471C277.408 46.7939 276.743 47.6114 276.276 48.5423C275.81 49.4731 275.552 50.4949 275.522 51.5359C275.491 52.5768 275.689 53.6118 276.101 54.5682C276.301 55.0182 276.531 55.4782 276.781 55.9382L275.001 57.2982C270.001 61.8082 272.651 68.2982 272.651 68.2982C268.381 70.4182 262.421 74.3882 259.911 80.8082C255.821 91.3282 256.361 90.2282 255.001 94.4582C250.887 106.167 245.751 117.49 239.651 128.298L238.001 131.638C231.581 145.548 230.421 162.698 239.691 175.008C242.166 178.372 245.298 181.199 248.898 183.316C252.497 185.434 256.489 186.799 260.631 187.328L263.421 187.528C263.421 187.528 263.281 189.608 263.241 191.948C262.781 196.368 259.241 204.558 260.631 219.838C260.801 221.628 261.061 224.228 261.391 227.418V227.508C261.441 227.958 261.491 228.428 261.541 228.908V229.138V229.258C261.681 230.628 261.841 232.078 262.001 233.608V233.758V233.908C262.061 234.468 262.121 235.038 262.191 235.618C262.191 235.768 262.191 235.918 262.191 236.068C262.251 236.588 262.311 237.128 262.371 237.668V237.858C262.431 238.468 262.501 239.088 262.571 239.718L262.621 240.228C262.691 240.798 262.751 241.368 262.811 241.958V242.188C262.881 242.848 262.951 243.518 263.031 244.188V244.578C263.341 247.448 263.671 250.438 264.031 253.488L264.081 254.008C264.251 255.488 264.411 257.008 264.581 258.488V258.638C264.931 261.768 265.281 264.918 265.631 268.038C265.631 268.208 265.631 268.378 265.681 268.548L265.921 270.728V271.018C267.351 283.848 268.701 295.828 269.481 302.778C269.916 306.657 269.977 310.568 269.661 314.458C269.561 315.618 269.471 316.938 269.371 318.398C269.371 318.758 269.351 319.128 269.311 319.508C269.201 321.408 269.101 323.508 269.031 325.748C268.891 330.228 268.871 335.308 269.101 340.568C269.151 341.568 269.211 342.678 269.281 343.738C269.59 349.061 270.258 354.356 271.281 359.588C275.831 381.968 280.561 403.078 280.561 403.078C281.881 408.958 281.091 412.078 283.861 412.748C284.103 412.795 284.346 412.828 284.591 412.848C285.481 418.198 282.591 419.968 283.871 423.508C284.181 424.378 284.491 425.238 284.791 426.058L283.551 427.858C282.458 429.305 281.825 431.047 281.731 432.858C281.731 433.088 281.731 433.308 281.681 433.518C281.631 433.728 281.681 433.648 281.681 433.708C281.681 433.768 281.681 434.018 281.681 434.168C281.677 434.231 281.677 434.295 281.681 434.358C281.681 434.528 281.681 434.688 281.631 434.858C281.581 435.028 281.631 434.938 281.631 434.978C281.631 435.188 281.631 435.388 281.561 435.598C281.561 435.788 281.511 435.988 281.491 436.188V436.328C281.491 436.498 281.431 436.678 281.411 436.858V436.988C281.341 437.438 281.261 437.918 281.171 438.438V438.608C280.971 439.808 280.721 441.208 280.411 443.038C279.521 448.278 283.981 451.548 288.531 453.228C293.081 454.908 296.451 457.488 302.191 462.338C307.931 467.188 313.471 470.058 320.601 470.058C327.731 470.058 333.461 466.728 333.461 463.118V462.338C333.46 461.524 333.286 460.72 332.951 459.978C332.769 459.579 332.545 459.2 332.281 458.848C332.162 458.689 332.032 458.539 331.891 458.398L331.841 458.328C331.681 458.168 331.521 458.018 331.341 457.868C329.52 456.389 327.588 455.051 325.561 453.868C325.171 453.638 324.801 453.368 324.441 453.108C327.971 454.048 331.331 455.178 331.331 455.178C333.588 455.59 335.878 455.794 338.171 455.788C346.711 455.788 350.971 453.858 350.971 452.008C351.085 450.748 350.846 449.481 350.281 448.348L350.221 448.248C350.141 448.106 350.047 447.973 349.941 447.848L349.861 447.748C349.728 447.579 349.581 447.422 349.421 447.278C349.256 447.129 349.082 446.988 348.901 446.858L348.721 446.738L348.231 446.438L348.011 446.318C347.761 446.188 347.501 446.058 347.211 445.938C346.341 445.578 345.351 445.158 344.341 444.718C342.651 443.988 340.911 443.208 339.531 442.598C338.291 442.033 337.155 441.262 336.171 440.318C335.841 439.998 335.531 439.668 335.231 439.318C334.571 438.528 333.901 437.738 333.231 436.968C332.231 435.818 331.231 434.698 330.231 433.658L329.291 432.658C328.681 431.998 328.091 431.368 327.541 430.798C325.351 428.508 323.831 427.018 323.831 427.018C323.571 420.438 322.481 416.018 317.161 416.658C317.608 414.451 317.766 412.196 317.631 409.948C317.541 408.998 317.481 408.318 317.441 407.848C318.579 407.827 319.711 407.67 320.811 407.378C323.811 406.528 324.721 401.748 326.051 397.378C327.381 393.008 323.521 392.758 323.521 392.758L321.601 392.478L335.161 329.718L336.161 325.008C336.381 324.008 336.561 323.008 336.721 322.008C337.199 318.996 337.413 315.948 337.361 312.898C337.361 312.498 337.361 312.068 337.361 311.628C337.361 311.498 337.361 311.368 337.361 311.238C337.361 310.908 337.361 310.568 337.361 310.238C337.361 310.078 337.361 309.928 337.361 309.778C337.361 309.288 337.361 308.778 337.361 308.258C337.361 307.738 337.361 307.188 337.311 306.628C337.311 306.478 337.311 306.318 337.311 306.168C337.311 305.728 337.311 305.288 337.311 304.838C337.311 304.658 337.311 304.478 337.311 304.298C337.311 303.068 337.231 301.768 337.181 300.398C337.181 300.218 337.181 300.028 337.181 299.838C337.181 299.308 337.131 298.768 337.111 298.228C337.111 298.018 337.111 297.818 337.111 297.608C337.041 296.138 336.981 294.608 336.901 293.008C336.901 292.778 336.901 292.548 336.901 292.318C336.901 291.708 336.841 291.078 336.811 290.448C336.811 290.208 336.811 289.978 336.811 289.748C336.811 288.908 336.721 288.058 336.681 287.188C336.531 284.628 336.371 281.898 336.181 279.048V278.748V278.288C336.181 277.638 336.101 276.988 336.051 276.288C336.001 275.588 335.981 275.288 335.951 274.758C335.901 274.048 335.851 273.308 335.791 272.578C335.791 272.098 335.731 271.638 335.691 271.148C335.631 270.278 335.561 269.378 335.491 268.488C335.491 268.118 335.441 267.768 335.411 267.398C335.311 266.128 335.211 264.838 335.101 263.528C335.101 263.228 335.051 262.918 335.031 262.628C334.941 261.628 334.861 260.628 334.771 259.538C334.771 259.028 334.681 258.538 334.641 257.998C334.561 257.138 334.491 256.278 334.411 255.398C334.361 254.818 334.311 254.238 334.251 253.648C334.181 252.818 334.101 251.998 334.031 251.148L333.851 249.258L333.611 246.758C333.551 246.108 333.481 245.458 333.421 244.758C333.331 243.918 333.251 243.058 333.161 242.198C333.101 241.528 333.031 240.838 332.961 240.198L332.401 237.638C332.321 236.928 332.251 236.218 332.171 235.508C332.081 234.628 331.981 233.748 331.891 232.858L331.651 230.718C331.551 229.798 331.451 228.868 331.341 227.928L331.101 225.788C330.991 224.788 330.871 223.858 330.761 222.888C330.681 222.178 330.591 221.468 330.511 220.748C330.381 219.748 330.261 218.678 330.131 217.628C330.051 216.948 329.971 216.278 329.881 215.628C329.741 214.468 329.591 213.298 329.441 212.128C329.371 211.538 329.301 210.948 329.221 210.358C328.988 208.578 328.755 206.785 328.521 204.978C328.39 203.94 328.323 202.895 328.321 201.848C328.321 201.488 328.321 201.068 328.321 200.598C328.321 199.188 328.381 197.348 328.471 195.218C328.581 192.508 328.691 190.338 328.691 190.338C330.568 189.163 332.118 187.533 333.199 185.6C334.279 183.667 334.854 181.493 334.871 179.278C338.391 179.438 346.521 176.008 346.521 176.008C346.521 176.008 357.671 177.448 363.721 172.378C366.664 169.838 368.932 166.609 370.321 162.978L372.391 156.678C373.221 153.2 373.624 149.634 373.591 146.058C373.531 135.158 367.121 128.948 361.831 116.968ZM344.051 150.248C343.138 151.388 342.286 152.576 341.501 153.808C341.291 154.108 341.091 154.368 340.891 154.628C340.527 155.093 340.122 155.525 339.681 155.918L335.681 158.328C335.089 158.724 334.394 158.937 333.681 158.938L331.931 149.808C331.358 146.827 331.433 143.758 332.151 140.808C332.761 138.308 333.561 134.898 334.361 131.018C335.881 134.838 336.281 137.408 337.761 143.308C339.241 149.208 341.761 148.908 341.761 148.908C341.761 148.908 342.281 149.128 343.871 148.438V148.558C343.828 149.132 343.872 149.708 344.001 150.268L344.051 150.248Z" fill="white"/>
<path d="M350.999 449.978C350.739 448.548 349.929 447.038 347.339 445.978C345.019 445.028 341.859 443.618 339.659 442.638C337.997 441.882 336.527 440.761 335.359 439.358C330.109 433.038 323.999 427.048 323.999 427.048C323.999 427.048 323.999 426.048 323.699 423.208C323.699 422.988 323.639 422.768 323.599 422.558C323.089 420.018 320.779 418.558 315.819 419.498C310.479 420.548 309.039 426.198 309.039 426.198C309.874 427.662 310.414 429.276 310.629 430.948L311.319 435.258C314.591 439.415 317.578 443.788 320.259 448.348C320.419 448.628 320.619 448.898 320.809 449.168C321.329 449.388 329.919 452.928 336.419 452.928C343.119 452.958 351.139 452.068 350.999 449.978Z" fill="#33E6CA"/>
<path d="M317.609 407.877C314.252 408.009 310.94 407.063 308.159 405.177L308.239 405.117C307.037 405.906 305.788 406.62 304.499 407.257C304.438 408.698 304.566 410.14 304.879 411.547C305.409 414.647 306.529 415.097 306.529 418.457C306.572 420.13 306.462 421.804 306.199 423.457C305.839 423.367 305.489 423.277 305.139 423.207C305.894 423.435 306.604 423.79 307.239 424.257C307.239 424.257 307.739 417.407 317.309 416.737C317.756 414.53 317.914 412.275 317.779 410.027C317.709 409.027 317.649 408.347 317.609 407.877Z" fill="black" stroke="black" stroke-width="1.3" stroke-linecap="round" stroke-linejoin="round"/>
<path d="M303.211 407.888L304.501 407.258L303.211 407.888Z" fill="black" stroke="black" stroke-width="1.3" stroke-linecap="round" stroke-linejoin="round"/>
<path d="M295.701 427.279C292.451 429.739 293.341 435.349 293.341 435.349L290.421 436.349L290.181 432.839C290.181 432.839 288.181 433.289 287.441 431.839C287.001 430.969 285.861 427.969 285.151 426.059L283.911 427.859C282.815 429.304 282.18 431.047 282.091 432.859C281.962 434.744 281.728 436.62 281.391 438.479V438.649C281.311 439.279 281.251 441.729 284.311 445.729C287.891 450.399 293.861 451.199 298.091 454.189C302.321 457.179 308.141 462.549 313.171 464.689C317.367 466.56 322.083 466.913 326.511 465.689C330.511 464.689 333.631 461.689 333.171 459.979C332.798 459.154 332.24 458.425 331.541 457.849C329.72 456.369 327.788 455.032 325.761 453.849C323.485 452.504 321.597 450.592 320.281 448.299C317.6 443.739 314.613 439.365 311.341 435.209L310.651 430.899C309.611 424.039 299.001 424.819 295.701 427.279Z" fill="#33E6CA"/>
<path d="M304.511 407.248L303.221 407.878C295.221 411.698 288.221 413.138 284.971 412.818C285.861 418.168 282.971 419.938 284.251 423.478C285.531 427.018 286.751 430.388 287.461 431.808C288.171 433.228 290.201 432.808 290.201 432.808C290.025 430.43 290.79 428.078 292.331 426.258C294.901 423.328 299.331 421.558 306.231 423.418C306.493 421.765 306.603 420.091 306.561 418.418C306.561 415.058 305.441 414.608 304.911 411.508C304.593 410.111 304.459 408.679 304.511 407.248Z" fill="black" stroke="black" stroke-width="1.3" stroke-linecap="round" stroke-linejoin="round"/>
<path d="M306.211 423.407C306.473 421.754 306.584 420.08 306.541 418.407C306.541 415.047 305.421 414.597 304.891 411.497C304.578 410.09 304.45 408.647 304.511 407.207V407.207" stroke="white" stroke-width="1.3" stroke-linecap="round" stroke-linejoin="round"/>
<path d="M328.659 204.947C328.527 203.909 328.46 202.864 328.459 201.817C328.459 200.357 328.509 198.028 328.629 195.188C328.529 197.898 320.939 201.187 312.049 203.317C303.159 205.447 294.269 204.947 284.509 201.477C274.749 198.007 263.319 195.328 263.369 191.938C262.909 196.358 259.369 204.547 260.759 219.827C261.929 232.408 267.759 284.637 269.849 302.757C270.274 306.637 270.324 310.548 269.999 314.437C269.239 323.727 268.289 343.207 271.619 359.567C276.159 381.947 280.899 403.058 280.899 403.058C280.899 403.058 290.169 404.877 306.899 393.597L306.449 389.377C306.449 389.377 311.799 388.258 312.139 394.988C314.967 395.952 317.955 396.362 320.939 396.197L336.299 325.048C337.163 321.07 337.565 317.007 337.499 312.937C337.319 298.637 335.999 260.637 328.659 204.947ZM301.559 330.637L300.999 321.137C302.438 316.705 303.361 312.121 303.749 307.477C304.036 308.837 304.421 310.173 304.899 311.477C305.732 313.737 305.732 316.218 304.899 318.477C303.421 322.422 302.303 326.492 301.559 330.637Z" fill="#33E6CA"/>
<path d="M336.059 278.738C334.839 259.918 332.629 235.017 328.659 204.947C328.527 203.909 328.46 202.864 328.459 201.817C328.459 200.357 328.509 198.027 328.629 195.188C328.529 197.898 320.939 201.187 312.049 203.317C303.159 205.447 294.269 204.947 284.509 201.477C274.749 198.007 263.319 195.328 263.369 191.938C262.909 196.358 259.369 204.547 260.759 219.827" stroke="black" stroke-width="1.3" stroke-linecap="round" stroke-linejoin="round"/>
<path d="M336.34 325.049C337.203 321.072 337.606 317.009 337.54 312.939C337.46 307.569 337.22 298.889 336.54 287.199" stroke="black" stroke-width="1.3" stroke-linecap="round" stroke-linejoin="round"/>
<path d="M310.23 390.258C311.23 391.048 312.05 392.458 312.18 394.988C315.009 395.952 317.997 396.363 320.98 396.198L335.33 329.758" stroke="black" stroke-width="1.3" stroke-linecap="round" stroke-linejoin="round"/>
<path d="M261.52 227.418C261.58 227.968 261.64 228.548 261.7 229.138C261.86 230.588 262.02 232.138 262.2 233.758C264.41 254.468 268.27 288.758 269.85 302.758C270.274 306.637 270.325 310.549 270 314.438C269.24 323.728 268.29 343.208 271.62 359.568C276.16 381.948 280.9 403.058 280.9 403.058C280.9 403.058 290.17 404.878 306.9 393.598L306.45 389.378C305.09 377.488 302.28 343.718 301.31 327.268" stroke="black" stroke-width="1.3" stroke-linecap="round" stroke-linejoin="round"/>
<path d="M330 22.3281C330 22.3281 330.25 23.9581 330.54 26.8181C330.789 28.5076 330.585 30.2329 329.95 31.8181C329.458 33.1726 329.392 34.645 329.76 36.0381C330.036 37.1494 330.053 38.3092 329.81 39.4281C329.31 41.6881 326.88 51.8681 325.69 56.8581C325.485 57.7304 325.023 58.521 324.363 59.1272C323.703 59.7335 322.876 60.1275 321.99 60.2581C320.12 60.6529 318.189 60.6529 316.32 60.2581C312.13 59.3081 304.59 55.9281 304.59 55.9281" stroke="black" stroke-width="1.3" stroke-linecap="round" stroke-linejoin="round"/>
<path d="M321.338 34.6387C321.369 36.2265 321.677 37.7968 322.248 39.2787C322.808 40.6187 324.008 43.4887 324.838 45.4587C324.928 45.6677 324.959 45.8974 324.928 46.1228C324.897 46.3482 324.805 46.5609 324.662 46.7379C324.519 46.9149 324.331 47.0495 324.117 47.1272C323.903 47.2048 323.672 47.2227 323.448 47.1787C322.493 47.018 321.556 46.7669 320.648 46.4287" stroke="black" stroke-width="1.3" stroke-linecap="round" stroke-linejoin="round"/>
<path d="M324.122 16.6393V20.8993L302.562 19.8993L304.612 26.3793L298.882 28.3793L297.432 35.8193C296.562 34.8376 295.363 34.208 294.062 34.0493C291.802 33.7393 290.012 34.8393 290.382 37.8893C290.752 40.9393 292.432 44.6793 294.692 45.7793C295.251 46.1116 295.881 46.3082 296.531 46.3533C297.18 46.3985 297.831 46.291 298.432 46.0393C298.432 46.0393 297.742 51.1993 294.272 52.0893C294.272 52.0893 294.112 50.5093 290.912 45.6193C288.772 42.3693 285.912 38.1193 283.312 33.6193C281.585 30.6756 280.605 27.3543 280.457 23.9449C280.309 20.5356 280.997 17.1417 282.462 14.0593C285.035 8.80476 289.097 4.42299 294.142 1.45934V4.96934C294.142 4.96934 305.602 -1.46066 323.562 2.07934L321.752 5.37934C321.752 5.37934 334.282 8.75934 333.372 21.7793L324.122 16.6393Z" fill="black" stroke="black" stroke-width="1.3" stroke-linecap="round" stroke-linejoin="round"/>
<path d="M292.328 9.63867C292.328 9.63867 282.848 14.9987 285.978 27.6387" stroke="white" stroke-width="1.3" stroke-linecap="round" stroke-linejoin="round"/>
<path d="M308.25 33.0591C310.868 30.8563 314.133 29.5677 317.55 29.3891V27.2891C317.55 27.2891 311 27.6391 308.25 33.0591Z" fill="black" stroke="black" stroke-width="1.3" stroke-linecap="round" stroke-linejoin="round"/>
<path d="M324.117 27.2891V29.2891C326.232 29.4632 328.228 30.3397 329.787 31.7791C329.787 31.7791 329.137 28.3391 324.117 27.2891Z" fill="black" stroke="black" stroke-width="1.3" stroke-linecap="round" stroke-linejoin="round"/>
<path d="M315.383 36.3772C315.495 35.3449 315.108 34.4568 314.521 34.3936C313.933 34.3304 313.367 35.116 313.256 36.1484C313.145 37.1807 313.531 38.0688 314.119 38.132C314.706 38.1952 315.272 37.4096 315.383 36.3772Z" fill="black" stroke="black" stroke-width="1.3" stroke-linecap="round" stroke-linejoin="round"/>
<path d="M326.266 35.7604C326.374 34.761 326.002 33.9015 325.437 33.8407C324.871 33.7798 324.326 34.5407 324.218 35.5401C324.111 36.5395 324.482 37.3989 325.048 37.4598C325.613 37.5206 326.159 36.7598 326.266 35.7604Z" fill="black" stroke="black" stroke-width="1.3" stroke-linecap="round" stroke-linejoin="round"/>
<path d="M322.181 49.5781C321.881 49.9316 321.665 50.3477 321.547 50.7959C321.429 51.2441 321.413 51.713 321.501 52.1681H318.211C318.211 52.1681 319.781 49.5781 322.181 49.5781Z" fill="black" stroke="black" stroke-width="1.3" stroke-linecap="round" stroke-linejoin="round"/>
<path d="M293.188 36.998C293.188 36.998 295.547 37.708 296.487 41.418" stroke="black" stroke-width="1.3" stroke-linecap="round" stroke-linejoin="round"/>
<path d="M294.272 52.168C294.622 53.618 293.272 57.338 290.922 60.378" stroke="black" stroke-width="1.3" stroke-linecap="round" stroke-linejoin="round"/>
<path d="M284.258 48.7578C286.345 54.5911 289.802 59.8382 294.338 64.0578C302.118 71.5178 307.678 75.6378 314.188 75.6378" stroke="black" stroke-width="1.3" stroke-linecap="round" stroke-linejoin="round"/>
<path d="M316.341 60.1875L315.781 64.0275C315.527 65.7019 314.802 67.2695 313.691 68.5475L310.301 72.4375" stroke="black" stroke-width="1.3" stroke-linecap="round" stroke-linejoin="round"/>
<path d="M318.209 60.5078C319.124 64.5281 319.722 68.614 319.999 72.7278C320.105 74.1324 319.879 75.5423 319.337 76.8426C318.795 78.1428 317.954 79.2967 316.882 80.2101C315.809 81.1235 314.536 81.7706 313.166 82.0987C311.797 82.4267 310.369 82.4264 308.999 82.0978C297.561 79.0471 286.872 73.6758 277.599 66.3178C277.599 66.3178 264.229 70.2678 260.129 80.7778C256.029 91.2878 256.579 90.1978 255.219 94.4278C253.859 98.6578 268.869 111.498 283.339 110.428C283.339 110.428 277.689 126.858 274.089 137.488C270.489 148.118 275.889 146.308 275.239 153.488L274.579 160.348C274.579 160.348 282.939 160.738 288.579 159.698C294.929 158.538 295.489 160.918 295.489 160.918L305.149 155.558C306.399 154.865 307.871 154.689 309.249 155.068C309.977 155.283 310.751 155.283 311.479 155.068L312.479 154.738C313.223 154.498 314.021 154.479 314.777 154.681C315.532 154.883 316.213 155.299 316.739 155.878L319.589 158.998L321.839 158.878C322.907 158.822 323.963 159.124 324.839 159.738C326.1 160.634 327.503 161.31 328.989 161.738C329.483 160.888 330.195 160.185 331.051 159.702C331.907 159.218 332.876 158.972 333.859 158.988L332.109 149.858C331.536 146.877 331.611 143.807 332.329 140.858C334.199 133.248 337.759 117.248 338.029 105.068C338.029 105.068 351.959 95.6578 348.759 85.8678C345.559 76.0778 343.299 67.7978 334.269 64.9678C325.239 62.1378 318.209 60.5078 318.209 60.5078Z" fill="black" stroke="black" stroke-width="1.3" stroke-linecap="round" stroke-linejoin="round"/>
<path d="M277.552 66.3185C276.576 65.6424 275.763 64.7577 275.172 63.7285" stroke="black" stroke-width="1.3" stroke-linecap="round" stroke-linejoin="round"/>
<path d="M289.54 43.6387C286.694 43.7505 283.867 44.1458 281.1 44.8187C280.087 45.0604 279.139 45.5208 278.323 46.1676C277.507 46.8143 276.842 47.6318 276.375 48.5627C275.908 49.4936 275.65 50.5153 275.62 51.5563C275.59 52.5973 275.788 53.6323 276.2 54.5887C277.867 58.407 280.685 61.6094 284.26 63.7487" stroke="black" stroke-width="1.3" stroke-linecap="round" stroke-linejoin="round"/>
<path d="M272.819 68.2676C272.819 68.2676 270.169 61.8076 275.169 57.2676" stroke="black" stroke-width="1.3" stroke-linecap="round" stroke-linejoin="round"/>
<path d="M263.549 187.517C270.673 187.62 277.643 185.44 283.439 181.297H290.279C291.252 181.29 292.208 181.035 293.055 180.555C293.901 180.076 294.612 179.388 295.119 178.557C295.119 178.557 299.799 180.797 301.339 181.557C302.204 182.008 303.155 182.27 304.129 182.327C304.339 183.19 304.835 183.956 305.536 184.501C306.237 185.045 307.101 185.337 307.989 185.327H317.839C318.809 185.332 319.764 185.095 320.619 184.637L332.619 178.277C332.926 178.605 333.303 178.86 333.722 179.023C334.141 179.185 334.591 179.252 335.039 179.217C335.022 181.432 334.447 183.606 333.366 185.539C332.286 187.472 330.736 189.102 328.859 190.277C328.859 190.277 328.749 192.447 328.639 195.157C328.529 197.867 320.949 201.157 312.059 203.287C303.169 205.417 294.279 204.917 284.519 201.447C274.759 197.977 263.329 195.297 263.379 191.907C263.409 189.637 263.549 187.517 263.549 187.517Z" fill="black" stroke="black" stroke-width="1.3" stroke-linecap="round" stroke-linejoin="round"/>
<path d="M238.13 131.639C231.71 145.549 230.55 162.699 239.82 175.009C242.295 178.373 245.427 181.199 249.026 183.317C252.626 185.435 256.618 186.799 260.76 187.329" stroke="black" stroke-width="1.3" stroke-linecap="round" stroke-linejoin="round"/>
<path d="M255.17 94.4277C251.056 106.136 245.92 117.46 239.82 128.268" stroke="black" stroke-width="1.3" stroke-linecap="round" stroke-linejoin="round"/>
<path d="M274.527 160.338C270.779 160.287 267.044 159.896 263.367 159.168" stroke="black" stroke-width="1.3" stroke-linecap="round" stroke-linejoin="round"/>
<path d="M249.328 167.148C254.737 160.5 262.433 156.111 270.908 154.838" stroke="black" stroke-width="1.3" stroke-linecap="round" stroke-linejoin="round"/>
<path d="M372.549 156.638C373.374 153.159 373.777 149.593 373.749 146.018C373.669 135.148 367.259 128.938 361.969 116.958C357.729 107.368 354.109 99.6678 350.969 91.7578" stroke="black" stroke-width="1.3" stroke-linecap="round" stroke-linejoin="round"/>
<path d="M335 179.249C338.52 179.409 346.65 175.979 346.65 175.979C346.65 175.979 357.8 177.419 363.85 172.349C366.793 169.809 369.061 166.58 370.45 162.949" stroke="black" stroke-width="1.3" stroke-linecap="round" stroke-linejoin="round"/>
<path d="M335.84 158.327C338.253 157.565 340.311 155.96 341.64 153.807C343.64 150.957 347.36 143.707 360.02 143.707" stroke="black" stroke-width="1.3" stroke-linecap="round" stroke-linejoin="round"/>
<path d="M351 136.457C351 136.457 342.8 144.717 344.21 150.247" stroke="black" stroke-width="1.3" stroke-linecap="round" stroke-linejoin="round"/>
<path d="M341.931 148.888C341.931 148.888 339.381 149.188 337.931 143.288C336.481 137.388 336.051 134.818 334.531 130.998" stroke="black" stroke-width="1.3" stroke-linecap="round" stroke-linejoin="round"/>
<path d="M342.328 158.738C342.328 158.738 349.768 163.308 347.498 173.408" stroke="black" stroke-width="1.3" stroke-linecap="round" stroke-linejoin="round"/>
<path d="M332.607 178.309C335.527 176.509 337.417 176.089 337.367 173.409C337.317 170.729 335.907 165.069 331.367 162.949" stroke="black" stroke-width="1.3" stroke-linecap="round" stroke-linejoin="round"/>
<path d="M285.999 160.049C282.319 160.319 278.209 167.919 282.399 179.259" stroke="black" stroke-width="1.3" stroke-linecap="round" stroke-linejoin="round"/>
<path d="M304.133 182.338C307.343 182.788 314.693 182.338 314.693 182.338" stroke="black" stroke-width="1.3" stroke-linecap="round" stroke-linejoin="round"/>
<path d="M295.118 178.559L294.978 178.499C294.627 178.337 294.347 178.053 294.191 177.699C294.034 177.346 294.012 176.948 294.128 176.579L294.298 176.039" stroke="black" stroke-width="1.3" stroke-linecap="round" stroke-linejoin="round"/>
<path d="M317.4 159.549C316.03 159.799 314.62 159.999 313.59 160.139C313.15 160.195 312.745 160.41 312.453 160.743C312.16 161.076 311.999 161.505 312 161.949V161.949C312 162.361 312.14 162.761 312.396 163.084C312.651 163.407 313.009 163.634 313.41 163.729C314.966 164.083 316.555 164.271 318.15 164.289C319.705 164.244 321.26 164.331 322.8 164.549C322.8 164.549 324.03 164.549 324.8 166.479C325.522 168.527 326.475 170.486 327.64 172.319C327.866 172.62 327.966 172.996 327.919 173.369C327.873 173.743 327.683 174.083 327.39 174.319L327.3 174.379C327.054 174.57 326.752 174.674 326.44 174.674C326.128 174.674 325.826 174.57 325.58 174.379C323.247 172.433 321.363 170.004 320.06 167.259" stroke="black" stroke-width="1.3" stroke-linecap="round" stroke-linejoin="round"/>
<path d="M295.452 160.908C290.602 163.758 287.382 170.148 292.342 176.348" stroke="black" stroke-width="1.3" stroke-linecap="round" stroke-linejoin="round"/>
<path d="M308.549 178.888H304.769C303.296 178.886 301.834 178.629 300.449 178.128L294.139 175.828C293.89 175.735 293.676 175.568 293.524 175.35C293.372 175.132 293.29 174.873 293.289 174.608V174.608C293.289 174.414 293.333 174.223 293.416 174.049C293.5 173.874 293.621 173.72 293.771 173.599C293.922 173.477 294.098 173.391 294.286 173.345C294.474 173.3 294.67 173.298 294.859 173.338L299.569 174.338C300.608 174.561 301.667 174.675 302.729 174.678C301.667 174.675 300.608 174.561 299.569 174.338L294.949 173.338C294.602 173.263 294.29 173.071 294.066 172.794C293.843 172.518 293.72 172.173 293.719 171.818V171.818C293.718 171.603 293.762 171.391 293.848 171.194C293.934 170.998 294.06 170.821 294.218 170.676C294.377 170.531 294.563 170.421 294.767 170.352C294.97 170.284 295.185 170.258 295.399 170.278L300.069 170.668H301.999" stroke="black" stroke-width="1.3" stroke-linecap="round" stroke-linejoin="round"/>
<path d="M316.058 164.169L316.738 165.169C317.743 166.629 318.524 168.23 319.058 169.919C319.638 171.762 320.367 173.555 321.238 175.279C321.368 175.525 321.441 175.797 321.451 176.075C321.461 176.352 321.408 176.629 321.297 176.884C321.185 177.138 321.018 177.364 320.807 177.545C320.596 177.726 320.347 177.858 320.078 177.929H319.998C319.588 178.037 319.153 178.003 318.765 177.832C318.376 177.662 318.057 177.364 317.858 176.989L313.768 169.299C313.266 168.362 312.652 167.488 311.938 166.699L307.398 161.699" stroke="black" stroke-width="1.3" stroke-linecap="round" stroke-linejoin="round"/>
<path d="M316.607 174.637L317.408 176.237C317.517 176.455 317.578 176.694 317.586 176.938C317.594 177.181 317.549 177.424 317.454 177.649C317.359 177.873 317.216 178.074 317.035 178.238C316.855 178.402 316.64 178.524 316.408 178.597C316.068 178.696 315.706 178.684 315.373 178.563C315.041 178.443 314.755 178.22 314.557 177.927L309.478 170.477C309.052 169.858 308.551 169.294 307.987 168.797L303.938 165.207" stroke="black" stroke-width="1.3" stroke-linecap="round" stroke-linejoin="round"/>
<path d="M299.602 167.979L302.602 169.709C303.642 170.315 304.58 171.081 305.382 171.979L310.282 177.429C310.508 177.685 310.81 177.863 311.144 177.939C311.478 178.014 311.827 177.983 312.142 177.849V177.849C312.366 177.754 312.567 177.611 312.729 177.43C312.892 177.249 313.012 177.034 313.082 176.801C313.152 176.567 313.169 176.322 313.133 176.081C313.096 175.84 313.007 175.611 312.872 175.409L312.312 174.589" stroke="black" stroke-width="1.3" stroke-linecap="round" stroke-linejoin="round"/>
<path d="M297.367 220.059C297.367 220.059 302.787 284.309 303.557 295.149C304.327 305.989 304.277 312.369 298.987 327.269" stroke="black" stroke-width="1.3" stroke-linecap="round" stroke-linejoin="round"/>
<path d="M303.77 307.479C306.18 316.749 310.23 319.649 310.23 319.649" stroke="black" stroke-width="1.3" stroke-linecap="round" stroke-linejoin="round"/>
<path d="M275.43 336.498C275.49 345.38 276.243 354.243 277.68 363.008C279.94 375.138 283.32 391.888 283.32 391.888" stroke="black" stroke-width="1.3" stroke-linecap="round" stroke-linejoin="round"/>
<path d="M306.039 214.368L311.759 212.068" stroke="black" stroke-width="1.3" stroke-linecap="round" stroke-linejoin="round"/>
<path d="M282.57 212.068L291.57 215.588C295.282 217.064 299.418 217.064 303.13 215.588" stroke="black" stroke-width="1.3" stroke-linecap="round" stroke-linejoin="round"/>
<path d="M280.93 403.058C282.25 408.938 281.46 412.058 284.23 412.728C287 413.398 294.57 412.028 303.23 407.888C311.89 403.748 312.96 401.458 312.23 394.988" stroke="black" stroke-width="1.3" stroke-linecap="round" stroke-linejoin="round"/>
<path d="M321 396.199C321.995 396.177 322.984 396.046 323.95 395.809" stroke="black" stroke-width="1.3" stroke-linecap="round" stroke-linejoin="round"/>
<path d="M306.938 393.639C308.678 392.569 309.378 392.049 309.378 392.049" stroke="black" stroke-width="1.3" stroke-linecap="round" stroke-linejoin="round"/>
<path d="M323.69 392.799C323.69 392.799 327.56 393.059 326.22 397.419C324.88 401.779 323.93 406.559 320.98 407.419C318.806 407.958 316.542 408.039 314.335 407.655C312.128 407.271 310.025 406.431 308.16 405.189" stroke="black" stroke-width="1.3" stroke-linecap="round" stroke-linejoin="round"/>
<path d="M305.13 423.148C308.25 424.148 309.93 426.668 310.62 430.978L311.31 435.288C314.582 439.445 317.569 443.818 320.25 448.378C321.566 450.672 323.454 452.584 325.73 453.928C327.757 455.112 329.689 456.449 331.51 457.928C332.177 458.472 332.715 459.156 333.085 459.933C333.455 460.709 333.648 461.558 333.65 462.418V463.198C333.65 466.808 327.91 470.138 320.79 470.138C313.67 470.138 308.12 467.268 302.38 462.418C296.64 457.568 293.27 454.998 288.72 453.308C284.17 451.618 279.72 448.358 280.6 443.118C281.289 439.742 281.786 436.33 282.09 432.898C282.179 431.086 282.814 429.344 283.91 427.898" stroke="black" stroke-width="1.3" stroke-linecap="round" stroke-linejoin="round"/>
<path d="M290.18 432.799L290.42 436.309" stroke="black" stroke-width="1.3" stroke-linecap="round" stroke-linejoin="round"/>
<path d="M311.308 435.288C311.308 435.288 304.928 434.488 296.648 438.188" stroke="black" stroke-width="1.3" stroke-linecap="round" stroke-linejoin="round"/>
<path d="M314.999 440.168C314.999 440.168 305.709 440.258 300.539 442.768" stroke="black" stroke-width="1.3" stroke-linecap="round" stroke-linejoin="round"/>
<path d="M318.372 445.277C318.372 445.277 309.972 445.577 304.492 448.227" stroke="black" stroke-width="1.3" stroke-linecap="round" stroke-linejoin="round"/>
<path d="M321.33 449.999C316.82 449.821 312.325 450.629 308.16 452.369" stroke="black" stroke-width="1.3" stroke-linecap="round" stroke-linejoin="round"/>
<path d="M317.328 416.688C322.648 416.088 323.738 420.468 323.988 427.048C323.988 427.048 330.108 433.048 335.378 439.358C336.546 440.761 338.016 441.882 339.678 442.638C341.878 443.638 345.038 445.028 347.358 445.978C351.278 447.588 351.138 450.208 351.138 452.068C351.138 453.928 346.878 455.848 338.338 455.848C336.044 455.854 333.755 455.649 331.498 455.238" stroke="black" stroke-width="1.3" stroke-linecap="round" stroke-linejoin="round"/>
<path d="M314.742 430.289C314.742 430.289 316.892 428.409 321.662 427.289" stroke="black" stroke-width="1.3" stroke-linecap="round" stroke-linejoin="round"/>
</svg>
