<svg width="161" height="1441" viewBox="0 0 161 1441" fill="none" xmlns="http://www.w3.org/2000/svg">
<path d="M128.972 0.107422L112.972 48.1074C96.9718 96.1074 64.9718 192.107 38.2718 288.107C11.9718 384.107 -10.0282 480.107 6.27176 576.107C21.9718 672.107 75.9718 768.107 91.6718 864.107C107.972 960.107 85.9718 1056.11 91.6718 1152.11C96.9718 1248.11 128.972 1344.11 144.972 1392.11L160.972 1440.11V1392.11C160.972 1344.11 160.972 1248.11 160.972 1152.11C160.972 1056.11 160.972 960.107 160.972 864.107C160.972 768.107 160.972 672.107 160.972 576.107C160.972 480.107 160.972 384.107 160.972 288.107C160.972 192.107 160.972 96.1074 160.972 48.1074V0.107422L128.972 0.107422Z" fill="black"/>
</svg>
